<svg xmlns="http://www.w3.org/2000/svg" width="379.945" height="52.825" viewBox="0 0 379.945 52.825">
  <path id="パス_72465" data-name="パス 72465" d="M-146.117-48.75q.5,1.143,2.019,6.513a20.09,20.09,0,0,1,.724,5.18h-3.466a25.223,25.223,0,0,0-7.541-7.446,16.915,16.915,0,0,0-8.684-2.266,11.52,11.52,0,0,0-9.521,4.608q-4.913,6.246-4.913,17.405a35.274,35.274,0,0,0,.838,9.217A23.958,23.958,0,0,0-173.2-8.265a11.3,11.3,0,0,0,4.189,3.39,15.506,15.506,0,0,0,7.16,1.714,14.372,14.372,0,0,0,8.093-2.609,29.046,29.046,0,0,0,7.484-7.789,22.655,22.655,0,0,1,3.694-.3,27.458,27.458,0,0,1-.5,3.009q-.114.609-.876,4.837l-.343,1.143-.533,1.79A16.182,16.182,0,0,1-151.354-.4a50.666,50.666,0,0,1-10.34.9,43.013,43.013,0,0,1-8.855-.876,21.2,21.2,0,0,1-7.141-2.78A26.133,26.133,0,0,1-184.507-9.1a22.425,22.425,0,0,1-3.675-6.97,27.817,27.817,0,0,1-1.2-8.455q0-11.35,7.484-18.738t19.1-7.389a78.536,78.536,0,0,1,8.893.476A55.233,55.233,0,0,1-146.117-48.75Zm9.445,23.232A26.3,26.3,0,0,1-134.843-35a22.251,22.251,0,0,1,3.732-6.284,24.631,24.631,0,0,1,6.018-5.084,26.841,26.841,0,0,1,7.389-3.2,33.764,33.764,0,0,1,8.417-.971,29.911,29.911,0,0,1,13.749,2.971,23.6,23.6,0,0,1,9.179,8.036,24.742,24.742,0,0,1,4.342,13.825A25.826,25.826,0,0,1-89.35-7.236Q-96.681.457-109.745.457A41.242,41.242,0,0,1-115.8.038,21.5,21.5,0,0,1-119.533-.8q-2.895-.952-3.237-1.1a32.106,32.106,0,0,1-6.665-4.837,24.937,24.937,0,0,1-4.266-5.6,32.353,32.353,0,0,1-2.171-6.322A26.2,26.2,0,0,1-136.671-25.518Zm25.937-21.252a11.113,11.113,0,0,0-5.865,1.542,12.352,12.352,0,0,0-3.847,3.409,20.81,20.81,0,0,0-3.085,6.913,39.1,39.1,0,0,0-.914,9.122,28.479,28.479,0,0,0,.267,4.685q.076.457.229,1.562a21.168,21.168,0,0,0,.8,4.113,41.765,41.765,0,0,0,2.323,5.979,15.429,15.429,0,0,0,3.39,3.847,11.03,11.03,0,0,0,3.313,1.809,12.227,12.227,0,0,0,4.342.819,15.682,15.682,0,0,0,7.636-1.923,13.588,13.588,0,0,0,5.656-6.532q2.133-4.608,2.133-12,0-3.047-.419-8.265l-.19-.724a15.167,15.167,0,0,1-.381-1.562,16.58,16.58,0,0,0-5.389-9.521A15.211,15.211,0,0,0-110.735-46.77Zm32.792.229-.152-2.666h3.237l1.1-.038q2.285-.114,3.161-.114.457,0,2.666.076.5.038.838.038t2.4-.076q2.057-.076,2.323-.076.419,0,1.181.038,5.865,5.332,9.56,9.179t26.965,26.927v-.952l-.152-4.418q-.114-3.885-.3-6.151t-.229-5.408q-.038-3.142-.267-5.694-.457-4.989-.457-5.751-.038-2.476-.533-3.009-.8-.838-3.656-1.257a10.97,10.97,0,0,1-3.123-.876l.038-2.247.99-.114,7.5-.229,8.379-.229q.838-.038,1.6-.038l.038,2.476a8.119,8.119,0,0,1-1.79.686,16.241,16.241,0,0,0-2.818.8,11.714,11.714,0,0,0-2.095,1.333,2.35,2.35,0,0,0-.343,1.409q0,.229.076,1.6.038.686.038,3.2.038,5.522.3,8.722.076,1.028.114,2.323l.419,13.368q.038,1.409.038,1.98v4.685l.114,1.98-.114,2.057q.152,1.562.152,1.866V.876l-4.38.152L-29.65-3.656-38.9-12.835l-6.475-6.475-4.761-4.875q-4.646-4.57-8.455-8.036l-6.208-5.6.343,14.168q.038,1.295.038,2.666l-.038,2.7.229,4.989q.114,3.123.419,6.779a8.012,8.012,0,0,0,.19,1.39,9.452,9.452,0,0,0,.457,1.162,28.619,28.619,0,0,0,6.475.8q.343.076.99.267L-55.548.19l-1.485.038q-1.219,0-7.693-.571-6.056.076-8.074.229T-75.01.038a7.154,7.154,0,0,1-1.257-.152q-.076-.876-.076-1.523,0-.419.038-1.371a10.365,10.365,0,0,1,1.752-.19q.229,0,1.485.076,3.2,0,3.79-.476t.667-2.571q.267-6.056.267-7.389v-2.095l.076-12.378-.114-7.731a24.418,24.418,0,0,0-.571-6.132,3.3,3.3,0,0,0-.876-1.523A8.945,8.945,0,0,0-72.8-45.475,30.077,30.077,0,0,0-77.943-46.541Zm69.469-5.142h2.361q.267.419.381.609a13.4,13.4,0,0,0,1.638,2.4,41.392,41.392,0,0,0,5.218.152q2.933,0,5.218-.038l.762-.114,4.608-.038,8.607.076H32.087l2.247-.343A4.206,4.206,0,0,0,35.4-50.807q.152-.343.419-.952L37.5-51.8q.381,0,1.143.038.038,2.628.038,7.922l.038,3.39L38.676-38.5a8.419,8.419,0,0,1-.152,1.714,13.591,13.591,0,0,1-2.742.609,25.743,25.743,0,0,1-2.152-4.3,17.412,17.412,0,0,0-1.466-3.123,2.137,2.137,0,0,0-1.066-.647q-.914-.19-8.074-.19-1.066,0-2.666.152a16.668,16.668,0,0,0-.229,2.438l.038,5.1v11.2l.152,12.073-.038,4.951a12.957,12.957,0,0,0,.457,3.961,9.8,9.8,0,0,0,2.247.5q.3.038,2.818.609a14.8,14.8,0,0,1,2.019.609q.19,1.371.19,1.676a6.174,6.174,0,0,1-.114.99q-.838.038-1.371.038a65.775,65.775,0,0,1-6.665-.286Q17.12-.724,9.921-.724q-1.143,0-6.7.457Q1.047-.114.4-.114.362-.686.324-.99L.286-1.866v-.3A5.361,5.361,0,0,1,3.447-3.809,29.046,29.046,0,0,0,8.931-5.522a4.767,4.767,0,0,0,.457-1.9q.267-4.57.267-14.549l-.19-14.4a61.594,61.594,0,0,0-.229-7.2.946.946,0,0,0-.267-.514.93.93,0,0,0-.533-.209q-1.181-.152-7.693-.152-3.58,0-4.8.686-1.638.952-4.913,5.18-.952,1.219-1.409,1.219a8.5,8.5,0,0,1-2.247-1.485,74.741,74.741,0,0,0,3.275-9.9Q-8.741-50.921-8.474-51.683ZM34.3-.267l.076-2.59a25.186,25.186,0,0,1,2.552-.571,11.862,11.862,0,0,0,3.561-1.028,6.857,6.857,0,0,0,1.542-2.209l7.693-20.147L58.748-50.5q1.257.038,2.4.038h1.714l.343.686,6.627,15.691q2.247,4.989,4.037,9.693t3.085,7.674q.762,1.79,2.095,5.37a50.772,50.772,0,0,0,2.095,4.875,5.9,5.9,0,0,0,1.143,1.866,4.338,4.338,0,0,0,2.228.762,14.286,14.286,0,0,1,3.333.876,13.793,13.793,0,0,1,.19,1.866q0,.267-.038.838-2.818,0-6.208-.267T75.7-.8q-3.009,0-4.342.076l-6.475.343L63.013-.3q0-1.333.114-2.552l4.228-.914a7.956,7.956,0,0,0,2.209-.762,1.2,1.2,0,0,0,.381-.876,3.052,3.052,0,0,0-.19-1.028l-1.523-3.732-3.009-7.465-14.549-.038q-.8,1.828-3.313,8.95a10.244,10.244,0,0,0-.724,2.742,1.688,1.688,0,0,0,.533,1.409,6.9,6.9,0,0,0,3.352,1.028q.343.076,2.7.419.038,1.371.038,1.9a5.331,5.331,0,0,1-.076.876q-2.361,0-11.273-.647l-1.562.267a33.586,33.586,0,0,1-5.37.457Zm17.9-21.4q8.912.114,10.512.114l.952-.038q-1.143-3.39-2.971-7.9t-2.971-6.875ZM133.282-48.75q.5,1.143,2.019,6.513a20.09,20.09,0,0,1,.724,5.18h-3.466a25.223,25.223,0,0,0-7.541-7.446,16.915,16.915,0,0,0-8.684-2.266,11.52,11.52,0,0,0-9.521,4.608Q101.9-35.915,101.9-24.756a35.274,35.274,0,0,0,.838,9.217A23.958,23.958,0,0,0,106.2-8.265a11.3,11.3,0,0,0,4.189,3.39,15.506,15.506,0,0,0,7.16,1.714,14.372,14.372,0,0,0,8.093-2.609,29.046,29.046,0,0,0,7.484-7.789,22.655,22.655,0,0,1,3.694-.3,27.458,27.458,0,0,1-.5,3.009q-.114.609-.876,4.837l-.343,1.143-.533,1.79A16.182,16.182,0,0,1,128.045-.4,50.666,50.666,0,0,1,117.7.5a43.013,43.013,0,0,1-8.855-.876,21.2,21.2,0,0,1-7.141-2.78A26.133,26.133,0,0,1,94.891-9.1a22.425,22.425,0,0,1-3.675-6.97,27.817,27.817,0,0,1-1.2-8.455q0-11.35,7.484-18.738t19.1-7.389a78.536,78.536,0,0,1,8.893.476A55.233,55.233,0,0,1,133.282-48.75Zm10.093-2.933h2.361q.267.419.381.609a13.4,13.4,0,0,0,1.638,2.4,41.392,41.392,0,0,0,5.218.152q2.933,0,5.218-.038l.762-.114,4.608-.038,8.607.076h11.769l2.247-.343a4.206,4.206,0,0,0,1.066-1.828q.152-.343.419-.952l1.676-.038q.381,0,1.143.038.038,2.628.038,7.922l.038,3.39-.038,1.942a8.419,8.419,0,0,1-.152,1.714,13.591,13.591,0,0,1-2.742.609,25.743,25.743,0,0,1-2.152-4.3,17.412,17.412,0,0,0-1.466-3.123,2.137,2.137,0,0,0-1.066-.647q-.914-.19-8.074-.19-1.066,0-2.666.152a16.668,16.668,0,0,0-.229,2.438l.038,5.1v11.2l.152,12.073-.038,4.951a12.957,12.957,0,0,0,.457,3.961,9.8,9.8,0,0,0,2.247.5q.3.038,2.818.609a14.8,14.8,0,0,1,2.019.609q.19,1.371.19,1.676a6.174,6.174,0,0,1-.114.99q-.838.038-1.371.038a65.775,65.775,0,0,1-6.665-.286q-2.742-.286-9.94-.286-1.143,0-6.7.457-2.171.152-2.818.152-.038-.571-.076-.876l-.038-.876v-.3A5.361,5.361,0,0,1,155.3-3.809a29.046,29.046,0,0,0,5.484-1.714,4.767,4.767,0,0,0,.457-1.9q.267-4.57.267-14.549l-.19-14.4a61.594,61.594,0,0,0-.229-7.2.946.946,0,0,0-.267-.514.93.93,0,0,0-.533-.209q-1.181-.152-7.693-.152-3.58,0-4.8.686-1.638.952-4.913,5.18-.952,1.219-1.409,1.219a8.5,8.5,0,0,1-2.247-1.485,74.741,74.741,0,0,0,3.275-9.9Q143.108-50.921,143.375-51.683Z" transform="translate(189.382 51.797)"/>
</svg>
