<svg xmlns="http://www.w3.org/2000/svg" width="533.927" height="52.825" viewBox="0 0 533.927 52.825">
  <path id="パス_72464" data-name="パス 72464" d="M-266.963-49.55q2.171.114,3.771.343a51.119,51.119,0,0,0,6.97.419q1.371,0,7.046-.229,8.493-.343,15.349-.343l6.894-.076a59.734,59.734,0,0,1,6.855.571,2.96,2.96,0,0,1,.686,2.057v7.846l.076,1.562q0,.229-.038.686l-1.562.076q-.3,0-1.295-.076-.343-.762-.914-2.247l-1.523-2.7a17.558,17.558,0,0,0-2.437-3.5,10.232,10.232,0,0,0-2.437-.3q-.381-.038-2.323-.19-3.542-.3-7.617-.3-4.646,0-8.3.152-.114.952-.114,7.5l.076,6.4v4.8a14.035,14.035,0,0,0,1.638.114q6.817,0,9.712-.267a9.461,9.461,0,0,0,3.58-.743,3.932,3.932,0,0,0,1.219-1.657,52.4,52.4,0,0,0,1.333-5.6l.5-.038,2.209.038q.152,3.39.152,5.142,0,4-.057,5.142t-.057,1.79q0,1.028.114,3.294t.114,3.371v.838h-2.7q-.152-.609-.571-2.514A15.388,15.388,0,0,0-232-22.623a2.762,2.762,0,0,0-1.523-1.028,30.087,30.087,0,0,0-5.637-.267q-5.751,0-8.646.3-.038.99-.038,1.295,0,4.532.152,7.541l-.076,8.227a2.024,2.024,0,0,0,1.028,1.98q1.562.8,9.56.8a43.2,43.2,0,0,0,8.988-.8A8.938,8.938,0,0,0-223.7-7.122a19.386,19.386,0,0,0,4.3-7.16q1.181-.114,1.942-.114.419,0,1.257.038-.114.952-.19,1.6l-.229,1.143-1.409,7.2-.686,4.342q-2.476.114-3.923.114-2.133,0-11.388-.381-6.513-.267-15.691-.267-4.57,0-11.235.381h-1.6l-4.608.152V-2.7a23.715,23.715,0,0,1,2.895-.419,18.4,18.4,0,0,0,5.484-1.219,7.915,7.915,0,0,0,.419-2.78q0-.647-.038-2.209l.038-1.181-.114-14.358.038-4.3-.19-6.094.038-4.3-.343-4.723a7.244,7.244,0,0,0-.076-.762,1.86,1.86,0,0,0-1.143-.533q-.419-.076-1.143-.229a24.9,24.9,0,0,0-4.189-.533q-.724-.038-1.676-.152Zm52.825,2.895v-3.275q1.98.038,2.4.076a113.4,113.4,0,0,0,12.3.533q1.143,0,4.646-.229,2.514-.19,3.771-.381h2.78q.076,2.78.076,3.123-3.809.5-4.456.647a5.77,5.77,0,0,0-2.476,1.219,1.354,1.354,0,0,0-.419.99,4.675,4.675,0,0,0,.076.838l1.257,3.313q1.333,3.885,4.418,10.55l4.342,9.826q1.257,2.856,2.285,5.408l2.209-5.408,4.532-12.568,1.066-2.666q.19-.571.5-1.6.99-3.39,1.657-5.142a8.483,8.483,0,0,0,.667-2.856,1.541,1.541,0,0,0-.724-1.257,7.19,7.19,0,0,0-3.618-1.066,8.755,8.755,0,0,0-1.409-.248,14.456,14.456,0,0,1-1.562-.248,4.418,4.418,0,0,1-.229-1.143,17.169,17.169,0,0,1,.152-1.752q.686,0,3.923.3t6.322.3a43.719,43.719,0,0,0,5.408-.286q2.247-.286,3.656-.324v1.219q0,.457-.038,1.371a32.231,32.231,0,0,0-5.751,2.438,3.841,3.841,0,0,0-1.028,1.257,91.071,91.071,0,0,0-4.418,10.321L-176.7-20.757q-.686,1.828-1.5,3.866t-1.733,4.475q-.19.571-1.79,4.57l-.381.686q-1.676,5.37-2.514,7.427-1.523.076-1.9.076-.724,0-2.019-.076-.419-1.143-.838-2.323t-3.237-8.265l-7.2-16.148-4.3-10.4q-3.313-7.084-3.618-7.579a4.086,4.086,0,0,0-1.447-1.371,10.47,10.47,0,0,0-3.313-.647Zm54.425-2.895q2.171.114,3.771.343a51.119,51.119,0,0,0,6.97.419q1.371,0,7.046-.229,8.493-.343,15.349-.343l6.894-.076a59.734,59.734,0,0,1,6.855.571,2.96,2.96,0,0,1,.686,2.057v7.846l.076,1.562q0,.229-.038.686l-1.562.076q-.3,0-1.295-.076-.343-.762-.914-2.247l-1.523-2.7a17.558,17.558,0,0,0-2.437-3.5,10.232,10.232,0,0,0-2.437-.3q-.381-.038-2.323-.19-3.542-.3-7.617-.3-4.646,0-8.3.152-.114.952-.114,7.5l.076,6.4v4.8a14.035,14.035,0,0,0,1.638.114q6.817,0,9.712-.267a9.461,9.461,0,0,0,3.58-.743,3.932,3.932,0,0,0,1.219-1.657,52.4,52.4,0,0,0,1.333-5.6l.5-.038,2.209.038q.152,3.39.152,5.142,0,4-.057,5.142t-.057,1.79q0,1.028.114,3.294t.114,3.371v.838h-2.7q-.152-.609-.571-2.514a15.388,15.388,0,0,0-1.371-4.418,2.762,2.762,0,0,0-1.523-1.028,30.087,30.087,0,0,0-5.637-.267q-5.751,0-8.646.3-.038.99-.038,1.295,0,4.532.152,7.541l-.076,8.227a2.024,2.024,0,0,0,1.028,1.98q1.562.8,9.56.8a43.2,43.2,0,0,0,8.988-.8,8.938,8.938,0,0,0,4.494-2.552,19.386,19.386,0,0,0,4.3-7.16q1.181-.114,1.942-.114.419,0,1.257.038-.114.952-.19,1.6l-.229,1.143-1.409,7.2-.686,4.342q-2.476.114-3.923.114-2.133,0-11.388-.381-6.513-.267-15.691-.267-4.57,0-11.235.381h-1.6l-4.608.152V-2.7a23.715,23.715,0,0,1,2.895-.419,18.4,18.4,0,0,0,5.484-1.219,7.915,7.915,0,0,0,.419-2.78q0-.647-.038-2.209l.038-1.181-.114-14.358.038-4.3-.19-6.094.038-4.3-.343-4.723a7.244,7.244,0,0,0-.076-.762,1.86,1.86,0,0,0-1.143-.533q-.419-.076-1.143-.229a24.9,24.9,0,0,0-4.189-.533q-.724-.038-1.676-.152Zm54.12,3.009-.152-2.666h3.237l1.1-.038q2.285-.114,3.161-.114.457,0,2.666.076.5.038.838.038t2.4-.076q2.057-.076,2.323-.076.419,0,1.181.038,5.865,5.332,9.56,9.179t26.965,26.927v-.952l-.152-4.418q-.114-3.885-.3-6.151T-53-30.183q-.038-3.142-.267-5.694-.457-4.989-.457-5.751-.038-2.476-.533-3.009-.8-.838-3.656-1.257a10.97,10.97,0,0,1-3.123-.876l.038-2.247.99-.114,7.5-.229,8.379-.229q.838-.038,1.6-.038l.038,2.476a8.119,8.119,0,0,1-1.79.686,16.241,16.241,0,0,0-2.818.8,11.714,11.714,0,0,0-2.095,1.333,2.35,2.35,0,0,0-.343,1.409q0,.229.076,1.6.038.686.038,3.2.038,5.522.3,8.722.076,1.028.114,2.323l.419,13.368q.038,1.409.038,1.98v4.685l.114,1.98-.114,2.057q.152,1.562.152,1.866V.876l-4.38.152L-57.3-3.656l-9.255-9.179L-73.03-19.31l-4.761-4.875q-4.646-4.57-8.455-8.036l-6.208-5.6.343,14.168q.038,1.295.038,2.666l-.038,2.7.229,4.989q.114,3.123.419,6.779a8.012,8.012,0,0,0,.19,1.39,9.452,9.452,0,0,0,.457,1.162,28.619,28.619,0,0,0,6.475.8q.343.076.99.267L-83.2.19l-1.485.038q-1.219,0-7.693-.571-6.056.076-8.074.229t-2.209.152a7.154,7.154,0,0,1-1.257-.152q-.076-.876-.076-1.523,0-.419.038-1.371A10.365,10.365,0,0,1-102.2-3.2q.229,0,1.485.076,3.2,0,3.79-.476t.667-2.571Q-96-12.226-96-13.559v-2.095l.076-12.378-.114-7.731a24.418,24.418,0,0,0-.571-6.132,3.3,3.3,0,0,0-.876-1.523,8.945,8.945,0,0,0-2.971-2.057A30.077,30.077,0,0,0-105.593-46.541Zm69.469-5.142h2.361q.267.419.381.609a13.4,13.4,0,0,0,1.638,2.4,41.392,41.392,0,0,0,5.218.152q2.933,0,5.218-.038l.762-.114,4.608-.038,8.607.076H4.437l2.247-.343A4.206,4.206,0,0,0,7.75-50.807q.152-.343.419-.952L9.845-51.8q.381,0,1.143.038.038,2.628.038,7.922l.038,3.39L11.026-38.5a8.419,8.419,0,0,1-.152,1.714,13.591,13.591,0,0,1-2.742.609,25.743,25.743,0,0,1-2.152-4.3,17.412,17.412,0,0,0-1.466-3.123,2.137,2.137,0,0,0-1.066-.647q-.914-.19-8.074-.19-1.066,0-2.666.152a16.668,16.668,0,0,0-.229,2.438l.038,5.1v11.2l.152,12.073L-7.37-8.531A12.957,12.957,0,0,0-6.913-4.57a9.8,9.8,0,0,0,2.247.5q.3.038,2.818.609a14.8,14.8,0,0,1,2.019.609q.19,1.371.19,1.676a6.174,6.174,0,0,1-.114.99q-.838.038-1.371.038A65.775,65.775,0,0,1-7.789-.438q-2.742-.286-9.94-.286-1.143,0-6.7.457-2.171.152-2.818.152-.038-.571-.076-.876l-.038-.876v-.3A5.361,5.361,0,0,1-24.2-3.809a29.046,29.046,0,0,0,5.484-1.714,4.767,4.767,0,0,0,.457-1.9Q-18-12-18-21.976l-.19-14.4a61.594,61.594,0,0,0-.229-7.2.946.946,0,0,0-.267-.514.93.93,0,0,0-.533-.209q-1.181-.152-7.693-.152-3.58,0-4.8.686-1.638.952-4.913,5.18-.952,1.219-1.409,1.219a8.5,8.5,0,0,1-2.247-1.485A74.741,74.741,0,0,0-37-48.75Q-36.391-50.921-36.125-51.683ZM35.21,0l.076-2.742q.838-.19,2.78-.571t3.885-.876l.724-.457a12.828,12.828,0,0,0,.381-3.123V-8L42.9-16.8l.038-3.694-.152-5.446.076-6.475L42.409-45.17q-.571-.533-3.694-1.066-.762-.152-2.209-.609l-.914-.229V-49.74l5.027.19q4.57.457,13.444.457,4.456,0,9.293-.229l.724-.038,1.866.038.762-.038h1.6l6.817-.229q.457,0,1.2-.076t1.39-.114a17.616,17.616,0,0,1,.3,2.285l.571,7.16a5.214,5.214,0,0,1-.229,1.752,16.356,16.356,0,0,1-2.019.19,1.983,1.983,0,0,1-1.219-.343,8.264,8.264,0,0,1-.876-1.714q-1.6-3.847-2.723-4.551t-6.265-.7L60-45.551a34.239,34.239,0,0,0-5.294.381,7.591,7.591,0,0,0-1.219.381,4.531,4.531,0,0,0-.5,2.247l.114,4.532L53-32.83a24.968,24.968,0,0,0,.267,4.875,1.582,1.582,0,0,0,.571.267l2.7.038h4.57a35.858,35.858,0,0,0,4.685-.343,7.69,7.69,0,0,0,2.666-.609,3.488,3.488,0,0,0,1.314-1.542,17.552,17.552,0,0,0,.59-4.551q.19,0,1.028-.038.533-.038.724-.038.419,0,1.676.114l-.229,6.094q-.038,1.942-.152,3.352l.076.838q.038.381.038,5.637,0,.343-.038,1.143a5.9,5.9,0,0,1-1.143.152,11.107,11.107,0,0,1-1.485-.229,16.279,16.279,0,0,1-.762-2.095q-.876-3.009-1.9-3.5-1.828-.914-11.5-.914a23.52,23.52,0,0,0-3.275.267,22.693,22.693,0,0,0-.267,3.694L53.339-8.8q.038,3.161.686,3.885A6.654,6.654,0,0,0,56.881-4l.762.076a14.031,14.031,0,0,1,3.009.5L61.68-3.2a10.8,10.8,0,0,1,.152,1.523,11.6,11.6,0,0,1-.114,1.447l-.724-.038-1.181.038L54.406-.5q-.914-.038-8.531-.038a33.578,33.578,0,0,0-4,.229Q38.867.038,38.6.038,36.125.038,35.21,0ZM84.3-25.518A26.3,26.3,0,0,1,86.131-35a22.251,22.251,0,0,1,3.732-6.284,24.631,24.631,0,0,1,6.018-5.084,26.841,26.841,0,0,1,7.389-3.2,33.764,33.764,0,0,1,8.417-.971,29.911,29.911,0,0,1,13.749,2.971,23.6,23.6,0,0,1,9.179,8.036,24.742,24.742,0,0,1,4.342,13.825,25.826,25.826,0,0,1-7.332,18.472Q124.293.457,111.23.457a41.242,41.242,0,0,1-6.056-.419A21.5,21.5,0,0,1,101.442-.8Q98.547-1.752,98.2-1.9A32.106,32.106,0,0,1,91.54-6.741a24.937,24.937,0,0,1-4.266-5.6A32.353,32.353,0,0,1,85.1-18.662,26.2,26.2,0,0,1,84.3-25.518ZM110.24-46.77a11.113,11.113,0,0,0-5.865,1.542,12.352,12.352,0,0,0-3.847,3.409,20.81,20.81,0,0,0-3.085,6.913,39.1,39.1,0,0,0-.914,9.122A28.479,28.479,0,0,0,96.8-21.1q.076.457.229,1.562a21.168,21.168,0,0,0,.8,4.113,41.765,41.765,0,0,0,2.323,5.979,15.429,15.429,0,0,0,3.39,3.847A11.03,11.03,0,0,0,106.85-3.79a12.227,12.227,0,0,0,4.342.819,15.682,15.682,0,0,0,7.636-1.923,13.588,13.588,0,0,0,5.656-6.532q2.133-4.608,2.133-12,0-3.047-.419-8.265l-.19-.724a15.167,15.167,0,0,1-.381-1.562,16.58,16.58,0,0,0-5.389-9.521A15.211,15.211,0,0,0,110.24-46.77ZM145.812-2.59a8.734,8.734,0,0,1,2.933-.781,16.131,16.131,0,0,0,3.5-.819,9.522,9.522,0,0,0,.229-1.1q.076-.533.076-3.656l-.038-8.493.152-4.57-.076-3.542.076-2.057q.114-4.151.114-7.77,0-7.922-.19-10.131l-2.247-.457q-3.085-.19-4.113-.381l-.076-2.285.152-.419a22.3,22.3,0,0,1,3.5-.3q.876,0,3.542-.038,2.742.229,2.971.229l2.019-.114,4.761-.229a92.3,92.3,0,0,1,9.407-.457q7.808,0,12.416,3.98t4.608,9.122a10.968,10.968,0,0,1-2.495,6.989,15.185,15.185,0,0,1-7.674,4.742q.457.8,1.219,1.866,1.6,2.285,2.59,3.885l6.094,9.864a29.617,29.617,0,0,0,2.99,4.589,9.181,9.181,0,0,0,2.914,1.466A12,12,0,0,1,197.8-2.171a3.5,3.5,0,0,1,.229,1.143q0,.343-.038.876h-1.028l-.762.038-1.98-.267h-1.562a19.953,19.953,0,0,0-3.009-.19L185.84-.609q-.419,0-2.666.267-1.028.114-1.638.19l-1.295-2.514q-1.6-2.856-2.247-4.266-1.676-3.694-5.751-11.769-1.9-3.732-2.666-4.228a7.128,7.128,0,0,0-3.923-.8q-.762,0-2.59.076a26,26,0,0,0-.114,2.628l.152,8.455-.19,7.16a8.637,8.637,0,0,0,2.78.99,31.278,31.278,0,0,1,5.1,1.447,19.291,19.291,0,0,1-.152,2.818q-.724-.038-.914-.038l-1.562.076q-8.188-.724-9.712-.724-.99,0-1.409.038l-5.256.343a39.936,39.936,0,0,1-4.38.267h-1.638q-.076-.952-.076-1.219A8.535,8.535,0,0,1,145.812-2.59Zm17.139-24.642q1.828.076,2.666.076,6.475,0,9.179-2.323a7.772,7.772,0,0,0,2.7-6.208,14.925,14.925,0,0,0-.667-4.513,7.958,7.958,0,0,0-1.657-3.142,8.827,8.827,0,0,0-3.694-2.247,18.155,18.155,0,0,0-5.37-.571,20.43,20.43,0,0,0-3.009.19l-.038.724L163.1-40.1l-.076,3.123.038,4.151q-.076,1.752-.114,4.532ZM198.6-.267l.114-2.59q4.761-.609,6.056-1.942.838-.914,1.295-4.761l.5-13.559.571-13.787q.076-1.257.076-1.523,0-5.37-.628-6.208t-4.894-1.638q-1.066-.229-1.676-.381-.076-.952-.076-1.6v-1.181q1.409-.114,3.313-.114l11.159.381q.381.038,1.066.076l1.752.076A10.709,10.709,0,0,1,218.518-47q1.409,2.78,3.732,8.15l.419,1.028,5.941,12.911q.19.457.609,1.333.571,1.371,1.181,2.609t1.276,2.723q.667,1.485,1.276,2.628a21.307,21.307,0,0,0,1.028-2.019q1.523-3.5,2.971-6.437,2.514-5.18,6.817-15.844.686-1.714,2.266-5.161t1.733-3.637a2.17,2.17,0,0,1,1.371-.3q.381,0,1.181-.038,1.98-.114,4.761-.19,4-.038,6.417-.248t2.723-.209a6.609,6.609,0,0,1,.914.076q.038.533.038.838l-.076,1.143q0,.343-.038,1.028a20.978,20.978,0,0,0-5.827,1.6q-1.562.762-1.562,1.9v.571l.647,11.654q.114,1.6.609,15.882.114,3.2.5,8.112a8.183,8.183,0,0,1,.076.952,1.517,1.517,0,0,0,.4,1.181q.362.267,6.836,2.209.038.609.038.914,0,.8-.038,1.6-1.028,0-5.18-.438a74.3,74.3,0,0,0-7.77-.438q-5.522,0-10.74.457-.686.076-1.333.114l.076-2.628A20.959,20.959,0,0,1,245.94-4a3.474,3.474,0,0,0,2.323-1.028q.5-.724.5-4.037,0-1.257-.038-2.209-.19-4-.229-11.121l-.647-13.444q-.114-2.856-.267-3.961l-9.483,21.785q-.343.762-1.028,2.209-.876,1.866-1.181,2.552-2.933,7.046-4.075,10.778-.3.952-.914,2.476l-2.933-.038-2.057-5.827q-.914-2.285-3.123-6.932-1.295-2.7-2.019-4.38-.343-.686-.5-1.028l-.457-.952a1.354,1.354,0,0,0-.114-.381l-5.675-12.226-3.466-7.427-.3,18.015-.267,11.692a6.249,6.249,0,0,0,1.085,4.132q1.085,1.238,4.666,2.114l1.828.457V0q-2.209-.038-4.742-.324A62.727,62.727,0,0,0,206.1-.609Q205.226-.609,198.6-.267Z" transform="translate(267.154 51.797)"/>
</svg>
