<svg xmlns="http://www.w3.org/2000/svg" width="541.88" height="397.191" viewBox="0 0 541.88 397.191">
  <g id="グループ_6677" data-name="グループ 6677" transform="translate(-18527.225 341.005)" opacity="0.032">
    <path id="パス_71831" data-name="パス 71831" d="M110.553,335.888c35.208-29.888,44.763-76.6,34.366-88.391s-22.8-2.419-59.132-7.465C48.695,234.88-4.859,199.1,1.11,115.092,7.285,28.159,76.756-10.007,143.071,2.976s103.99,74.683,105.6,153.017-34.344,149.113-78.446,187.248C132.345,376,88.671,393.167,57.353,396.919c-42.575,5.1-36.691-16.561-19.925-21.629a199.146,199.146,0,0,0,73.125-39.4" transform="translate(18526.574 -341.505)" fill="#1a1311"/>
    <path id="パス_71832" data-name="パス 71832" d="M245.241,335.888C280.449,306,290,259.283,279.607,247.5s-22.8-2.419-59.132-7.465c-37.093-5.152-90.646-40.932-84.678-124.94,6.176-86.934,75.647-125.1,141.962-112.116s103.99,74.683,105.6,153.017-34.344,149.113-78.446,187.248C267.033,376,223.359,393.167,192.041,396.919c-42.575,5.1-36.691-16.561-19.925-21.629a199.148,199.148,0,0,0,73.125-39.4" transform="translate(18685.691 -341.505)" fill="#1a1311"/>
  </g>
</svg>
