<svg xmlns="http://www.w3.org/2000/svg" xmlns:xlink="http://www.w3.org/1999/xlink" width="348.597" height="49.484" viewBox="0 0 348.597 49.484">
  <defs>
    <clipPath id="clip-path">
      <rect id="長方形_8758" data-name="長方形 8758" width="348.597" height="49.484" fill="none"/>
    </clipPath>
  </defs>
  <g id="グループ_6695" data-name="グループ 6695" transform="translate(0 0)">
    <g id="グループ_6691" data-name="グループ 6691" transform="translate(0 0)" clip-path="url(#clip-path)">
      <path id="パス_71926" data-name="パス 71926" d="M236.584,37.524l.78-.262c.011-.156.019-.318.019-.5,0-.214.04-1.069.115-2.495l-2.178-1.885,2.24-1.516q0-.806,0-1.827l-1.416.019-.622.354.192-.753-1.773-3.383,2.91-.489.019.118.152.042.078-.055.069.1v0l.422.624a11.579,11.579,0,0,1,.078-1.289,1.666,1.666,0,0,1,.4-.9,7.588,7.588,0,0,1,1.663-.722,14.167,14.167,0,0,0,2.1-.9,2.051,2.051,0,0,0,.254-.9c0-.433-.011-.964-.036-1.59q-1.988-.109-2.422-.073L237.2,19.3l-5.711.073q-1.193,0-2.2-.073-2.891-.29-6.831-.289a3.476,3.476,0,0,0-.9.217,5.67,5.67,0,0,0-.254,1.409,5.21,5.21,0,0,0,.073.685,2.3,2.3,0,0,0,1.3.614l3.217.868a7.279,7.279,0,0,1,1.464.524,1.776,1.776,0,0,1,.488.7q.109,1.411.108,5.17a46.61,46.61,0,0,1-.289,5.965A3.059,3.059,0,0,1,226.9,36.9a4.008,4.008,0,0,1-.629.511l.166.114c.067.047.158.1.247.151.344.2.573.34.5.585-.2.711-.448,1.417-.692,2.1,0,.058,0,.114,0,.17l.112-.015-.132.182c-.007.056-.01.114-.019.17l-.084.614-.278-.259c-.742.06-1.479.121-2.217.182l.288.162-.356.037.108.169a51.972,51.972,0,0,0,6.838-1.062c.447-.11.871-.217,1.272-.324l.744-1.629.007-.354.964-.561-.469,1.03-.023,1.172a10.3,10.3,0,0,0,3.777-1.63.939.939,0,0,0,.219-.413Zm-.733-17.609c.012-.027.023-.055.032-.08l.093-.3.273.156c.025.014.052.025.081.037a.444.444,0,0,1,.269.7c-.011.029-.025.056-.033.082l-.1.311-.276-.175a.545.545,0,0,0-.079-.044.6.6,0,0,1-.306-.269.5.5,0,0,1,.047-.415" transform="translate(82.07 7.051)" fill="#070203"/>
      <path id="パス_71927" data-name="パス 71927" d="M154.428,47.968a8.686,8.686,0,0,0,1.049-.144,14.791,14.791,0,0,0,.506-3.18q.652-6.506.651-9.109V34.513a14.759,14.759,0,0,0-1.952-.144h-1.157a21.946,21.946,0,0,1-1.753,4.193,10.442,10.442,0,0,1-2.006,2.35,7.85,7.85,0,0,1-3.253,2.025,25.234,25.234,0,0,1-9.153,1.346l-2.277-.073-2.133.036-3.427-.144a1.945,1.945,0,0,1-.362-1.409l.019-2.252c-.186-.466-.381-.957-.6-1.518l-.665-1.681.666.437c.248.163.447.288.621.393l.1-12.516q0-1.448.036-2.35.109-2.422.108-4.3,0-1.629-.108-3.8-.072-1.374-.073-1.952,0-.471.036-.94.109-1.807.108-1.988l-.036-.4V9.181l.108-2.277.036-1.012a3.755,3.755,0,0,1,.217-.433q.434-.218.614-.289l4.483-1.049a3.3,3.3,0,0,0,1.59-.433,1.808,1.808,0,0,0,.4-1.265,2.593,2.593,0,0,0-.289-1.446.888.888,0,0,0-.759-.289q-.181,0-1.338.108-3.9.325-6.4.325L124.2,1.048l-5.17.036q-5.422-.29-6.289-.289a1.385,1.385,0,0,0-.685.181q-.035.578-.036.868c0,.337.025.818.073,1.446a4.591,4.591,0,0,0,1.771.759,9.4,9.4,0,0,1,1.627.506l1.371.548a4.769,4.769,0,0,1,2.078.96,19.53,19.53,0,0,1,.488,4.174v.506l-.036,3.651-.144,8.061.073,3.759L119.308,28c.174-.247.35-.492.524-.731l.613-.85.835,1.671-1.866,2.17-.123-.158v2.65l-.217,4.7.071,4.621a6.162,6.162,0,0,1-.217,1.446,3.011,3.011,0,0,1-1.879.47q-.36,0-2.4.307c-.84.114-1.672.281-2.5.477l.106.074-.461.008c-.1.026-.207.045-.31.073h0a6.944,6.944,0,0,0-.259,2.208,3.969,3.969,0,0,0,.073.685c.313.023.541.036.685.036h.548q3.724-.29,7.988-.4l7.381-.217q5.928,0,12.109.217t6.9.254q3.977.288,4.3.289l1.879-.036ZM135.8,1.935a2.671,2.671,0,0,0,.243-.121l.267-.159.435,1.264-1.077.838-.125-.308c-.033-.081-.077-.162-.119-.244a1.23,1.23,0,0,1-.211-.766c.051-.259.324-.384.588-.5M120.17,2.8c-.027.064-.051.141-.075.218-.082.259-.169.526-.411.573a.468.468,0,0,1-.106.011,1.22,1.22,0,0,1-.554-.2,1.872,1.872,0,0,0-.195-.1l-.254-.11.132-.244c.033-.059.062-.126.092-.192a1.138,1.138,0,0,1,.389-.551c.207-.125.43.008.67.155.067.04.132.082.192.11l.215.107Zm.221,33.123a2.86,2.86,0,0,1,.273-.587c.033-.056.064-.111.092-.165l.149-.287.241.215c.029.025.07.055.108.085.174.13.354.266.278.478a3.775,3.775,0,0,1-.3.607l-.281.511-.239-.281a1.057,1.057,0,0,0-.1-.1c-.134-.132-.289-.281-.23-.483m1.748,3.995a2.036,2.036,0,0,0-.218.081,1.392,1.392,0,0,1-.495.136.459.459,0,0,1-.215-.049,1.182,1.182,0,0,1-.448-.577c-.036-.075-.071-.151-.112-.219L120.477,39l.322-.088a2.067,2.067,0,0,0,.228-.081.725.725,0,0,1,1.161.5c.033.077.064.155.1.221l.149.276Zm5.427-9.637.236.328,1.385-1.284-1.23,1.943-.247.1-.011.005-.457.177h0l-.772.3.912-.846Zm-1.649,3.367.2.178c.084.074.171.145.258.215a2.692,2.692,0,0,1,.643.653c.136.217-.023.454-.208.729a2.577,2.577,0,0,0-.145.228l-.134.245-1.539-1.071ZM127.7,44.2l-.038.095-.211.9.056.055-.1.129-.09.384-.118-.114-.6.779.156-1.024h-.085l.136-.334.066-.436.08.077.226-.563.03-.126-2.559-.966.059-.2c-.026-.3-.055-.6-.084-.894l-.13-.982-.03-.06-.133-.132.17-.075-.052-.521.3.3,1.014-1.267.666,1.2-.255.111q-.568.247-1.132.495l.086.877.095.714,2.465,1,.133.208.021.032.334.528Z" transform="translate(41.246 0.253)" fill="#070203"/>
      <path id="パス_71928" data-name="パス 71928" d="M25.986,36.453a37.6,37.6,0,0,0,2.639-5.15c.195-.544.351-1.1.515-1.655l-.067-.1a4.378,4.378,0,0,1-.3-.455c-.107-.214.06-.328.254-.458l.339-.239.093.154c.2-.772.377-1.548.52-2.33L29.676,26l.37-.207a32.51,32.51,0,0,0,.459-4.9q0-9.9-4.572-15.145A14.557,14.557,0,0,0,14.492.507,14.9,14.9,0,0,0,7.346,2.3a.529.529,0,0,1-.048.3A9.978,9.978,0,0,1,5.975,4.4c-.184.217-.369.432-.544.654l-.223.278-.189-.3a6.635,6.635,0,0,0-.4-.548c-.029-.036-.053-.071-.082-.107a12.945,12.945,0,0,0-2,2.483l0,.307L2.519,8.549,2.148,7.5c-.067.121-.151.229-.214.352A16.829,16.829,0,0,0,0,15.827a21.5,21.5,0,0,0,.685,5.386,11.245,11.245,0,0,0,1.645,3.6,13.53,13.53,0,0,0,3.2,3.09c.33.189.679.341,1.019.513l.221-.864-.007-.01.067-.223.337.093.08-.053.069.095v0L8.559,29.3c.4.152.791.321,1.2.447a9.1,9.1,0,0,0,2.132.144,14.173,14.173,0,0,0,5.024-.868,1.675,1.675,0,0,0,1.093-1.779,1.79,1.79,0,0,0-.362-1.21,1.042,1.042,0,0,0-.794-.411l-.55.108a6.611,6.611,0,0,1-1.878.289,6.367,6.367,0,0,1-2.821-.685,3.875,3.875,0,0,1-1.232-1.409,9.6,9.6,0,0,1-1.3-3.652,45.076,45.076,0,0,1-.433-6.433,14.3,14.3,0,0,1,2.2-8.566,4.785,4.785,0,0,1,3.94-2.2,4.948,4.948,0,0,1,4.193,2.566q2.241,3.434,2.243,12.652A38.836,38.836,0,0,1,21,22.73q-.288,2.494-.324,3.145c-.07,1-.2,1.986-.366,2.971a1.2,1.2,0,0,1,.566.391c.136.207.008.458-.115.7-.037.074-.075.147-.1.211l-.092.237-.234-.093c-.07-.026-.151-.048-.233-.07-.025-.007-.045-.018-.069-.025-.073.336-.123.676-.208,1.009a20.082,20.082,0,0,1-1.6,4.455l.048.1.148.07-.058.118.26.536-.417-.2v.359l.862.022-1.051.557h0l-.314.166v-.166H17.36c-.055.089-.1.184-.158.271a18.576,18.576,0,0,1-4.554,4.952,26.462,26.462,0,0,1-6.47,3.487,7.475,7.475,0,0,0-.7.265h.393l-.1,1.025-1-.406,0,.418-.5.014-.023-.433c-.052.034-.111.058-.163.092a1.321,1.321,0,0,0-.362.976A2.107,2.107,0,0,0,4.3,49.224c.6.048,1.061.073,1.375.073a21.043,21.043,0,0,0,6.686-1.446,25.145,25.145,0,0,0,7.771-4.529,25.606,25.606,0,0,0,5.855-6.868M.556,11.554l.958.31.041-.115.014.012.417-3.342L2.578,10c.173.47.345.94.54,1.4.126.293.278.573.441.868l.032.06.212.056.064-.814.319.13c.025.01.056.016.085.026a.517.517,0,0,1,.356.229.568.568,0,0,1,0,.419.563.563,0,0,0-.022.089l-.027.166-.271.064-.322.16-.049.1a.216.216,0,0,1-.208.136.432.432,0,0,1-.078-.019l-.007.016-1.666-.541-.026.212-.1-.089-.406.884-.466-.189.395-1.106ZM2.606,21c-.038.052-.074.119-.112.184-.126.222-.256.45-.495.458H1.974a1.344,1.344,0,0,1-.635-.223c-.066-.037-.133-.075-.2-.107L.85,21.18,1.6,20.22l1.191.532Zm.9-4.629-.029.088H3.431l-.063.108-.721,1.26L2.831,16.8l-.027.018.048-.133.174-.977.2.14,1.4-.807.042-.6.5-.005.092.95-.2.033c-.529.321-1.046.642-1.557.962m2.839,2.755c-.012.029-.025.056-.033.081l-.1.313-.276-.177a.714.714,0,0,0-.08-.042.585.585,0,0,1-.3-.269.491.491,0,0,1,.047-.418c.011-.027.023-.053.032-.08l.1-.3L6,18.4c.023.014.053.025.081.037a.531.531,0,0,1,.321.274.543.543,0,0,1-.055.421m1.08.636.095-1.077.977.629ZM10,47.635l.1-1.15,1.065.67ZM25,31.259l-.217.541-.271-.256c-.027-.025-.063-.052-.1-.078-.134-.1-.3-.233-.27-.435a2.713,2.713,0,0,1,.191-.583c.026-.064.053-.13.078-.2l.122-.328.273.221a1.254,1.254,0,0,0,.106.075c.159.108.339.229.293.44a3.271,3.271,0,0,1-.207.6m-.559-8.7.721-.96.319,1.157Zm1.049,1.682.8.37-.95,1.067-.69-1.232Zm2.428,4.488c.106.111.212.223.306.307l.223.2-1.675,1.305-1.683-.879.31-.24c.141-.108.278-.223.415-.336a6.684,6.684,0,0,1,1.235-.87c.26-.126.5.125.869.511m-.931-13.948.206.376a2.331,2.331,0,0,0,.137.214,1.145,1.145,0,0,1,.278.679,1.286,1.286,0,0,1-.324.673c-.051.069-.1.134-.143.2l-.163.269-.228-.219c-.056-.053-.13-.114-.2-.173-.252-.2-.47-.381-.395-.62a2.882,2.882,0,0,1,.429-.777c.06-.085.119-.171.175-.26Zm-3.479-4.4c.277-.321.659-.687.945-.585a3.057,3.057,0,0,1,1.027.836c.223.232.5.518.877.875l.322.308-.43.118c-.263.071-.5.156-.7.229a2.435,2.435,0,0,1-.755.2.56.56,0,0,1-.28-.069,3.354,3.354,0,0,1-1.21-1.337c-.1-.189.044-.388.2-.574m-3.152,22.5.424,1.149-1.121-.143Zm1.032,6.073c-.04.075-.08.152-.112.228l-.144.332-1.162-1.1L21.2,37l.145.4c.027.071.062.144.1.218a1.38,1.38,0,0,1,.182.655,1.713,1.713,0,0,1-.239.674m.14-17.566a.8.8,0,0,0-.033-.1l-.1-.252.259-.082c.03-.01.064-.026.1-.041a.468.468,0,0,1,.478-.03.648.648,0,0,1,.223.381c.011.034.021.07.033.1l.1.251-.256.084c-.032.011-.066.027-.1.042a.761.761,0,0,1-.3.088.3.3,0,0,1-.18-.058.654.654,0,0,1-.223-.381" transform="translate(6 0.187)" fill="#070203"/>
      <path id="パス_71929" data-name="パス 71929" d="M152.275,17.641Z" transform="translate(56.472 6.542)" fill="#070203"/>
      <path id="パス_71931" data-name="パス 71931" d="M230.528,48.627l-.562.058.495-.446.044-.16a.227.227,0,0,1,.217-.171v-.016l.106-.01.5-.041,2.252-.3.119-.334,0-.012q.021-.962.038-1.926l.015-.791a4.107,4.107,0,0,1-1.313.5,22.005,22.005,0,0,1-4.989.614,13.58,13.58,0,0,1-4.812-.777,2.259,2.259,0,0,1-.579.466.546.546,0,0,1-.259.06,2.82,2.82,0,0,1-1.117-.44c-.278-.151-.595-.321-.943-.473l-.4-.174.348-.259c.169-.125.314-.236.459-.345a13.356,13.356,0,0,1-1.123-.743,16.181,16.181,0,0,1-5.368-7.427,27.383,27.383,0,0,1-1.789-9.759c0-6.68,1.36-11.8,4.044-15.391l-.18-.263c-.033-.047-.069-.095-.1-.141a1.732,1.732,0,0,1-.277-.465c-.074-.21.126-.44.215-.528a.332.332,0,0,1,.34-.108,2.274,2.274,0,0,1,.476.251l.343.21a13.619,13.619,0,0,1,10.361-5.108,13.913,13.913,0,0,1,5.567,1.049,17.691,17.691,0,0,1,5.386,3.427l.005.007.317.258-.03.1c.562.662,1.108,1.337,1.623,2.034l.126-.018,1.046-1.481-.435,1.391.1-.015-.169.226-.055.177.023.015-.088.193h0l-.037.121-.077.016c.528.746,1.043,1.5,1.515,2.284a13.14,13.14,0,0,0,2.639.289,4.542,4.542,0,0,0,.254-1.338q0-1.411-.325-4.5a38.97,38.97,0,0,0-.578-4.139h0a26.878,26.878,0,0,0-6.383-2.625,29.74,29.74,0,0,0-8.242-1.1Q227.65.37,226.927.37A29.717,29.717,0,0,0,216.234,2.25a23.86,23.86,0,0,0-8.187,5.042,23.438,23.438,0,0,0-5.072,7.1,26.085,26.085,0,0,0-2.458,10.771,28.733,28.733,0,0,0,1.663,9.507,20.231,20.231,0,0,0,3.615,6.254,22.579,22.579,0,0,0,5.819,4.916,20.066,20.066,0,0,0,6.126,2.295c1.017.2,2.043.352,3.071.476l.04-.558.284.6c.5.056,1,.1,1.494.141l.151-.088-.095.092c1.175.086,2.352.134,3.531.118,1.448.021,2.892-.041,4.335-.141-.007-.049-.021-.095-.023-.145m12.8-43.2-.005.99-1.2-.5Zm-17.691-2.7.541.727-.662.406-.761-.38Zm-7.33,2.839c.037-.07.075-.143.1-.206l.095-.237.237.1c.067.027.145.051.225.074.255.077.521.156.6.393a.952.952,0,0,1-.148.7c-.036.073-.071.144-.1.211l-.1.262-.251-.122c-.066-.033-.138-.059-.213-.088a1.037,1.037,0,0,1-.587-.388c-.122-.217.007-.462.132-.7m-15.615,14c-.037.074-.075.148-.1.214l-.089.237-.237-.093c-.069-.026-.151-.048-.233-.07-.266-.074-.54-.149-.613-.391a1.082,1.082,0,0,1,.125-.714c.032-.08.066-.159.089-.237l.089-.295.271.145c.07.037.145.07.222.1a1.255,1.255,0,0,1,.591.4c.136.207.008.458-.114.7m10.072-4.587.11.259c.015.033.034.067.055.1a.5.5,0,0,1,.08.5.634.634,0,0,1-.391.262c-.036.012-.074.025-.107.04l-.136.06-.768-.57Zm-5.349-1.1.8.374-.949,1.06-.688-1.231ZM206.92,20.9l-.217.536-.27-.255c-.027-.025-.062-.051-.1-.078-.134-.1-.3-.232-.269-.435a2.651,2.651,0,0,1,.189-.581q.041-.1.078-.2l.123-.328.271.221c.029.023.067.049.106.075.158.107.339.229.293.44a3.248,3.248,0,0,1-.208.6m1.771-.72-1.681-.877.31-.241c.137-.106.271-.218.407-.329a6.653,6.653,0,0,1,1.242-.876c.259-.125.5.126.872.511.1.11.211.222.3.306l.224.2Zm2.639-.515-.336-.48a4.548,4.548,0,0,1-.293-.452c-.118-.208.066-.332.262-.462l.333-.232.417.691Zm2.285,18.875c-.048.067-.1.132-.14.2l-.158.259-.226-.2c-.052-.048-.123-.1-.192-.154-.255-.2-.476-.365-.4-.6a2.7,2.7,0,0,1,.4-.747c.056-.082.112-.166.163-.249l.221-.356.212.361c.038.066.088.133.136.2a1.134,1.134,0,0,1,.291.65,1.162,1.162,0,0,1-.3.65m3.109,7.895,1.22-.456.085.243-.208.071.016.007.212-.021L218.3,47Z" transform="translate(74.363 0.137)" fill="#070203"/>
      <path id="パス_71932" data-name="パス 71932" d="M73.238,48.4l.156.456,9.394-14.409,1.294-3.43.273.229c.069.056.159.122.25.186l.1.074,20.47-31.4-.361.036L101.524,0l-.47.108Q76.9,37.773,68.991,49.34l.833-.11,2.2.11c.173.012.348,0,.522,0ZM101.165.873l.252.1a.563.563,0,0,0,.067.021c.11.033.293.088.317.281a.8.8,0,0,1-.048.33l-.088.336L100.9,1.7ZM99.669,4.3c.067-.149.212-.407.43-.454a.934.934,0,0,1,.65.214c.063.04.125.08.185.11l.211.106-.511,1.208-.248-.144c-.062-.037-.132-.069-.2-.1a1.18,1.18,0,0,1-.557-.415.578.578,0,0,1,.04-.522M79.5,34.643l1,.707-1.193.334Z" transform="translate(25.586 0)" fill="#070203"/>
      <path id="パス_71933" data-name="パス 71933" d="M63.132,5.672a25,25,0,0,0-1.265,3.9,13.848,13.848,0,0,0-.362,3.507,16.128,16.128,0,0,0,.042,1.689l1.893-.361-1.855.838a15.933,15.933,0,0,0,1.531,5.423A10,10,0,0,0,66.967,24.9a10.448,10.448,0,0,0,4.7.831,6.813,6.813,0,0,0,3.109-.976,8.271,8.271,0,0,0,1.9-1.461l-.154-.178a.825.825,0,0,0-.078-.075.5.5,0,0,1-.222-.422A2.009,2.009,0,0,1,76.4,22.1l.229-.537.266.315c.037.045.078.088.119.13a1.229,1.229,0,0,1,.333.485.268.268,0,0,1,0,.093,11.988,11.988,0,0,0,2.16-4.084,18.919,18.919,0,0,0,.8-5.747,13.689,13.689,0,0,0-.265-3.585c-.01,0-.021-.01-.029-.012l-.245-.107.163-.321A13.664,13.664,0,0,0,77.54,3.687,8.364,8.364,0,0,0,70.943.4a7.639,7.639,0,0,0-3.054.614A10.179,10.179,0,0,0,65.051,2.93a10.433,10.433,0,0,0-1.919,2.742M78.8,14.709c.159.347.319.7.483,1.046l.023.082.012.138-.407.315-.573-1.38ZM76,5.937a.788.788,0,0,0,.095-.081l.214-.221L77.037,6.7l-1.2.87-.048-.429c-.008-.07-.019-.141-.03-.21a2.359,2.359,0,0,1-.04-.6.622.622,0,0,1,.28-.4m-.817,12.528.243-.052.021-.407.3.326.648-.81.953.993-1.2.258.012.014-.241.129-.021.026-.07,1.38.019.023c.033.033.067.064.1.1l1.22.154-.679,1.067-.222-.214c-.182-.175-.363-.351-.547-.526l-.067-.01-.381.4.023-.447-.263-.033.278-.289,0-.066-.976-1.29,1-.546Zm-7.385-6.4q.072-4.771.217-5.675a5.893,5.893,0,0,1,1.175-3.109,2.488,2.488,0,0,1,1.789-.759A2.236,2.236,0,0,1,72.927,3.61a10.8,10.8,0,0,1,1.049,5.6v2.6l.073,2.422c0,1.2-.073,2.394-.184,3.585l.17.193-.2.085c-.048.484-.082.969-.149,1.45A6.01,6.01,0,0,1,72.512,22.9a2.542,2.542,0,0,1-1.789.777,1.994,1.994,0,0,1-1.193-.362L68.373,21.83a23.126,23.126,0,0,1-.47-6.289q0-.94-.108-3.47Z" transform="translate(22.807 0.147)" fill="#070203"/>
      <path id="パス_71934" data-name="パス 71934" d="M49.35,44.482l-1.013-1.934,2.908-.491.022.119.151.042.08-.053.067.093v0l.17.252A25.6,25.6,0,0,0,56.7,36.446c.622-1.014,1.179-2.066,1.7-3.132l-.005-.008c-.182-.3.06-.685.461-1.322.174-.274.374-.594.562-.943a32.364,32.364,0,0,0,1.8-10.155q0-9.9-4.57-15.138a14.513,14.513,0,0,0-1.213-1.282l-.9.207c-.084.019-.154.037-.215.055a1.324,1.324,0,0,1-.344.062.76.76,0,0,1-.077,0c-.2-.027-.256-.226-.3-.372-.01-.033-.018-.066-.027-.092l-.17-.467,1.986.57a14.491,14.491,0,0,0-2.351-1.788l-1.9,1.412-.064-.414c-.019-.129-.059-.282-.1-.436-.121-.48-.215-.858.03-1.04.162-.119.334-.225.5-.337a14.561,14.561,0,0,0-6.3-1.315,14.865,14.865,0,0,0-3.744.459c.107.147.208.3.31.466.073.121.151.247.237.377l.26.392H41.8c-.141,0-.277.012-.4.023s-.214.019-.311.019a.592.592,0,0,1-.433-.137,2.078,2.078,0,0,1-.447-.738,14.746,14.746,0,0,0-2.247.976,12.991,12.991,0,0,0-5.315,5.512,16.843,16.843,0,0,0-1.934,7.97,21.634,21.634,0,0,0,.685,5.386,11.318,11.318,0,0,0,1.645,3.6,13.548,13.548,0,0,0,2.976,2.908l.988-.108-.473.437a21.263,21.263,0,0,0,3.936,1.7,9.121,9.121,0,0,0,2.133.144,14.2,14.2,0,0,0,5.024-.868,1.676,1.676,0,0,0,1.1-1.781,1.788,1.788,0,0,0-.362-1.21,1.043,1.043,0,0,0-.8-.411l-.548.108a6.613,6.613,0,0,1-1.879.289,6.407,6.407,0,0,1-2.82-.685,3.891,3.891,0,0,1-1.234-1.409,9.6,9.6,0,0,1-1.3-3.651,45.089,45.089,0,0,1-.433-6.433,14.3,14.3,0,0,1,2.2-8.566,4.785,4.785,0,0,1,3.94-2.2,4.942,4.942,0,0,1,3.667,1.807l.1-.008L49.1,4.7l.491.027.1-.143.122.129.57-.883L51.1,4.8l.036.012.165.008.249,1.431-.7-.95-.786-.042-.173.265-.127-.134-.115.171c.015.026.034.049.048.075q2.243,3.434,2.241,12.652a38.526,38.526,0,0,1-.217,4.446q-.288,2.494-.325,3.145a30.226,30.226,0,0,1-.85,5.331A20.037,20.037,0,0,1,47.919,37.5a18.586,18.586,0,0,1-4.557,4.952,26.508,26.508,0,0,1-6.47,3.487,7.513,7.513,0,0,0-2.1.976,1.327,1.327,0,0,0-.362.976,2.11,2.11,0,0,0,.578,1.338q.9.072,1.374.073a21.1,21.1,0,0,0,6.688-1.446,25.21,25.21,0,0,0,6.276-3.368M58.56,29.609l-.178-.369c-.032-.063-.07-.126-.108-.191a1.144,1.144,0,0,1-.223-.617,1.393,1.393,0,0,1,.245-.637c.041-.069.081-.137.115-.207l.121-.251,1.2.744Zm-.254-4.766a5.556,5.556,0,0,1,.724-1.15c.129-.174.27-.365.419-.58l.225-.321.2.337c.119.2.252.393.367.562.3.435.481.7.332.936a4.668,4.668,0,0,1-.917.977c-.121.106-.243.212-.358.321l-.2.195-.171-.223c-.062-.08-.144-.169-.226-.258-.266-.288-.5-.537-.391-.8m-.631-9.3.433,1.184-1.149-.145ZM56.061,19.28c.007-.032.01-.066.014-.1a.733.733,0,0,1,.125-.393c.14-.174.361-.129.5-.143l.2-.023.274.869-1.139.119Zm.6,2.48a.562.562,0,0,0,.078-.008.427.427,0,0,1,.413.106.693.693,0,0,1,.089.144l.426.2-.248.254h0l-.118.123,0,0-.273.28-.143-.356c-.015-.04-.029-.082-.043-.125l-1.3-.6ZM32.2,14.225l-.762-.384.881-.748.541.725Zm1.387,10.212-.643-1.6.27-.077c.074-.022.152-.052.23-.082a1.115,1.115,0,0,1,.736-.115c.245.075.3.356.367.653a2.219,2.219,0,0,0,.06.249l.053.171Zm2.7-15.521a3.027,3.027,0,0,1-.517.06h-.053c-.184,0-.262-.184-.291-.251-.1-.237-.1-.414,0-.525a2.261,2.261,0,0,1,.433-.345c.051-.034.1-.069.152-.1l.269-.193.476,1.286Zm3.087,17.126-1.5.9.367-.764a2.054,2.054,0,0,0,.09-.21c.129-.219.27-.173.506-.1Zm2.951-22.2-1.2-.522,1.231-.484Zm9.515,32.842a2.581,2.581,0,0,1,.4-.769c.051-.078.1-.155.149-.232l.119-.2,1.437.7-.2.247c-.069.084-.134.17-.2.256a3.252,3.252,0,0,1-.643.7.275.275,0,0,1-.167.056,1.05,1.05,0,0,1-.537-.24c-.252-.173-.409-.326-.356-.52m-1.6.5a.753.753,0,0,0,.033-.08l.095-.3.273.16a.631.631,0,0,0,.081.038.534.534,0,0,1,.321.276.546.546,0,0,1-.055.417c-.011.029-.025.058-.033.084l-.1.313-.277-.177a.833.833,0,0,0-.078-.042.592.592,0,0,1-.3-.267.5.5,0,0,1,.045-.421" transform="translate(11.39 0.187)" fill="#070203"/>
      <path id="パス_71935" data-name="パス 71935" d="M200.024,10.764a22.4,22.4,0,0,0-8.71-7.626,28.372,28.372,0,0,0-11.8-2.813,1.267,1.267,0,0,1,.156.6,1.7,1.7,0,0,1-.234.672c-.041.075-.081.154-.115.23l-.143.332-1.165-1.1.644-.732c-.132,0-.263-.005-.395,0-1.014-.011-2.026.041-3.035.126l.163.147-.2.189c-.026.025-.055.056-.082.088a.585.585,0,0,1-.415.26h-.01a.571.571,0,0,1-.41-.284A.9.9,0,0,0,174.2.752l-.18-.186.007-.005c-.3.037-.6.086-.9.132a.643.643,0,0,0,.045.055l.181.188-.659.6-.714-.629.04-.036c-.584.11-1.165.229-1.742.37a25.377,25.377,0,0,0-2.638.872h0l.036-.014a2.389,2.389,0,0,1,1.014-.256c.8.008,1.6.081,2.376.152.308.027.617.055.925.08l.326.026-.108.308c-.06.171-.121.391-.178.61-.2.718-.314,1.153-.643,1.158l-.215,0A13.256,13.256,0,0,1,168,3.765c-.337-.081-.535-.444-.724-.8-.063-.114-.126-.222-.191-.322l-.137-.062.032-.095-.066-.1c-.258.108-.51.226-.764.343.494.4.979.8,1.444,1.194l.413.35-.951,1.245-.433-.477c-.493-.544-1-1.108-1.486-1.682a.245.245,0,0,1-.052-.119c-.618.321-1.226.659-1.816,1.03A23.369,23.369,0,0,0,157.554,9.1a21.105,21.105,0,0,0-3.542,5.965,25.67,25.67,0,0,0-.972,15.5c.086.377.189.75.289,1.124l1.361-.443h0l.239-.078v.108l1.1,0-.1,1.025-1-.4,0,.418-.5.014-.029-.552-1.05,0a30.672,30.672,0,0,0,1.744,4.788,23.652,23.652,0,0,0,4.048,5.313,30.5,30.5,0,0,0,6.325,4.591q.331.146,3.072,1.049a20.334,20.334,0,0,0,3.542.8,39.117,39.117,0,0,0,5.747.4,33.6,33.6,0,0,0,8.181-.951c-.206-.03-.415-.052-.618-.085l-.324.012s-.073,0-.144.005l-.776.166.384-.52.005-.01a.491.491,0,0,1,.036-.048l.112-.152.051-.067.032-.044.156.074.23.037,2.681-.572-.129.413c-.026.082-.053.188-.081.295l-.005.019a22.316,22.316,0,0,0,9.564-5.874,24.51,24.51,0,0,0,6.958-17.529,23.5,23.5,0,0,0-4.121-13.12M160.966,30.2c.03,0,.06-.008.092-.014a.687.687,0,0,1,.381.014.536.536,0,0,1,.263.3c.012.026.025.051.037.071l.139.223-.75.43-.551-.991Zm-1.242-13.491c-.073.03-.148.06-.21.093l-.206.11-.71-1.1,1.337-.746.093.295a2.053,2.053,0,0,0,.084.219,1.329,1.329,0,0,1,.143.688c-.038.24-.289.343-.531.441m3.312,25.309-.492-1.119,1.123.07Zm.942-2.9-.155.154a6.946,6.946,0,0,1-1.73,1.393.389.389,0,0,1-.177.041,1.791,1.791,0,0,1-.891-.495c-.14-.11-.278-.218-.4-.3l-.307-.2,2.823-2.1.151.2c.108.147.229.3.34.446.426.546.526.676.35.857m3.028,4.539-.324-.583c-.053-.1-.114-.195-.175-.291a3.007,3.007,0,0,1-.392-.8,1.049,1.049,0,0,1,.141-.683,2.234,2.234,0,0,0,.093-.219l.159-.484.887,1.3Zm23.4-6.215a12.9,12.9,0,0,1-5.368,6.2,14.888,14.888,0,0,1-7.248,1.826,11.606,11.606,0,0,1-4.121-.777,10.486,10.486,0,0,1-3.145-1.716,14.664,14.664,0,0,1-3.217-3.651,39.712,39.712,0,0,1-2.2-5.675,20.044,20.044,0,0,1-.759-3.9q-.144-1.049-.217-1.482a26.937,26.937,0,0,1-.254-4.446,37.128,37.128,0,0,1,.868-8.657A19.718,19.718,0,0,1,167.673,8.6c.11-.149.234-.284.351-.428l-.133,0c-.325.005-.648.011-.976.023l-.254.11-.546,1.472.071-1.267-.171.074.2-.522.012-.219-.418-1.818.389.084c.041.01.093.018.147.027.233.038.455.075.447.315-.005.413-.029.829-.053,1.246l.064,0,1.084-.469.3.753a11.688,11.688,0,0,1,3.142-2.617A10.533,10.533,0,0,1,176.891,3.9h0c.1,0,.2,0,.3,0l-.914-.729.2-.2c.1-.1.2-.2.3-.3a5.335,5.335,0,0,1,.9-.8c.221-.144.458.038.785.3.09.07.18.141.259.193l.293.2L177.254,3.9a14.4,14.4,0,0,1,5.574,1.051v-.21l1.056.037-.041.277-.047.333a14.415,14.415,0,0,1,2.584,1.619,15.743,15.743,0,0,1,5.115,9.037,14.5,14.5,0,0,0,.362,1.482l.181.685q.4,4.954.4,7.844A27.307,27.307,0,0,1,190.41,37.44m4.236,1.719a.662.662,0,0,0-.051.058l-.511.673.162-2.241.413.744a.465.465,0,0,0,.043.069.619.619,0,0,1,.126.358.547.547,0,0,1-.181.34m-.831-30.815.713-1.006.337,1.184Zm4.934,7.308a2.489,2.489,0,0,0,.156-.214l.158-.245.221.192c.055.047.125.1.193.149.243.178.452.333.385.563a3.424,3.424,0,0,1-.373.77c-.052.086-.1.17-.151.256l-.2.37-.23-.352a2.35,2.35,0,0,0-.147-.2,1.129,1.129,0,0,1-.321-.646,1.064,1.064,0,0,1,.31-.648M198.627,38.5l-.979-.655,1.094-.43Zm.521-5.416c-.145.13-.291.26-.43.395l-.2.191-.173-.214a3.679,3.679,0,0,0-.262-.277c-.28-.28-.544-.543-.473-.839a6.188,6.188,0,0,1,.637-1.426c.141-.262.3-.561.481-.916l.192-.382.241.354c.223.328.441.616.624.854a2.491,2.491,0,0,1,.511.833l.112-.69,1.113.676-1.28.356.015-.1a6.242,6.242,0,0,1-1.112,1.184" transform="translate(56.471 0.118)" fill="#070203"/>
      <path id="パス_71936" data-name="パス 71936" d="M106.569,36.517a6.079,6.079,0,0,1-1.6-.381c-.219-.074-.44-.149-.661-.21l-.765-.215,2.813-1c0-.037.007-.075.01-.112l-.332-1.556.489.052c.217.019.422.038.422.273-.014.388-.037.769-.069,1.16l.659-.234a18.936,18.936,0,0,0,.559-4.832,13.54,13.54,0,0,0-2.783-9.048c-.145-.189-.306-.363-.466-.537l-.663.543a1.024,1.024,0,0,1,.195.121.82.82,0,0,0,.086.06l.407.234-1.139.566-.875-.5.28-.137-.11-.048.461-.378.477-1.305a8.394,8.394,0,0,0-5.233-1.888,7.859,7.859,0,0,0-3.054.6,9.8,9.8,0,0,0-2.838,1.9,10.434,10.434,0,0,0-1.919,2.742,24.838,24.838,0,0,0-1.265,3.94c-.049.208-.069.422-.108.632h.407l.053-.107.171.108h.291l-.106.288-.015.044-.361,1.734-.659-.141c-.012.3-.044.607-.036.912-.012.318.015.635.023.953l.052.059-.051-.011c.007.314,0,.631.022.943l.1-.121.166-.308.012.092L89.7,31.3l.251.417c.115.182.234.37.048.521-.073.059-.155.108-.234.162l.1.687-.371-.347a16.071,16.071,0,0,0,1.4,4.64,9.8,9.8,0,0,0,1.837,2.609l.122-.252,1.2.744-.318.413a9.665,9.665,0,0,0,1.027.714,10.337,10.337,0,0,0,4.661.831,6.854,6.854,0,0,0,3.145-.98,7.9,7.9,0,0,0,2.458-2.056,11.622,11.622,0,0,0,1.789-2.88c-.078,0-.159,0-.239-.005m-.925-12.876c.107-.118.226-.251.356-.411l.266-.328.163.389c.08.192.16.356.232.5a1.664,1.664,0,0,1,.263.875c-.041.377-.7.644-1.028.644h-.019a.858.858,0,0,1-.548-.384.714.714,0,0,1-.18-.555,1.9,1.9,0,0,1,.495-.731M94.532,29.979c-.055.052-.108.1-.155.158l-.265.306-.159-.373c-.026-.062-.062-.125-.1-.191a.955.955,0,0,1-.18-.639,1.164,1.164,0,0,1,.38-.568c.053-.053.108-.108.156-.165l.267-.321.159.387c.026.064.062.13.1.2a1.037,1.037,0,0,1,.177.653,1.08,1.08,0,0,1-.38.557m2.426,12.169L96,41.312l.234-.188a.786.786,0,0,0,.078-.074c.1-.1.245-.241.406-.222a.568.568,0,0,1,.4.241.84.84,0,0,0,.075.08l.133.119ZM100.751,41l-.167.089a.648.648,0,0,0-.074.023,1.006,1.006,0,0,1-.156.036l.319.421-.679.554-.159-.207a.767.767,0,0,0-.064-.073.42.42,0,0,1,.088-.753.671.671,0,0,0,.08-.053L99.983,41a.9.9,0,0,1-.111-.206c-.011-.026-.022-.053-.034-.078l-.144-.289,1.228-.273Zm1.051-10.05a38.266,38.266,0,0,1-.362,5.313,6.124,6.124,0,0,1-1.157,3.344,2.477,2.477,0,0,1-1.771.777,2,2,0,0,1-1.193-.362l-1.157-1.482q-.471-.8-.47-6.289,0-.94-.108-3.47h0q.035-4.771.182-5.675a5.778,5.778,0,0,1,1.193-3.109,2.55,2.55,0,0,1,1.807-.759,2.236,2.236,0,0,1,1.952,1.084,10.814,10.814,0,0,1,1.049,5.6v2.6l.022,1.53.876.554-.014-.2.395.4.086-.015.041.143.071.074c.356.356.711.714,1.051,1.086.162.186.038.311-.208.565l-.329.339-.9-1.538-1.067-1.215Z" transform="translate(33.114 6.358)" fill="#070203"/>
      <path id="パス_71937" data-name="パス 71937" d="M89.441,24.682c-.033.219-.078.436-.1.657l.333-.659Z" transform="translate(33.133 9.153)" fill="#070203"/>
    </g>
  </g>
</svg>
