<?xml version="1.0" encoding="utf-8"?>
<!-- Generator: Adobe Illustrator 26.5.0, SVG Export Plug-In . SVG Version: 6.00 Build 0)  -->
<svg version="1.1" id="レイヤー_1" xmlns="http://www.w3.org/2000/svg" xmlns:xlink="http://www.w3.org/1999/xlink" x="0px"
	 y="0px" viewBox="0 0 530 240" style="enable-background:new 0 0 530 240;" xml:space="preserve">
<g id="グループ_7077" transform="translate(-497.984 -9052.115)">
	<path id="パス_72476" d="M550.5,9208.6c0.3-0.1,0.7-0.1,1-0.1c1.5,0,3-0.2,4.5-0.4c-1.5,1.5-3.1,2.8-4.9,3.9
		c-0.3,0.1-0.6,0.1-0.9,0.1c-0.3,0-0.5,0.1-0.6,0.1c-0.4,0-1.1,0.1-1.4,0.1c-0.1,0-0.2,0-0.3,0l0.2,2c0.2-0.1,0.5-0.1,0.7-0.2
		c1.1-0.2,1.9-0.3,2.6-0.4c0.4-0.1,1-0.1,1.8-0.2c0.8-0.1,1.3-0.2,2-0.3c-0.6,0.3-1.2,0.7-1.7,1.2c-0.5,0.6-0.9,1.3-0.9,2.1
		c0,1.3,1,2.5,2.3,2.8c1,0.3,2,0.4,3,0.4h0.2c0.4,0,0.7,0,0.8,0c0.2,0,0.4,0,0.6,0l-0.1-2c-0.5,0.1-1,0.2-1.5,0.1
		c-2.1,0-3.2-0.6-3.2-1.6c0-0.9,0.9-1.8,2.2-2.4c1.4-0.6,2.9-0.8,4.4-0.8h0.5l-0.1-1.9c-0.2,0-0.4,0.1-0.5,0.1c-0.1,0-0.6,0-1.1,0.1
		c-0.4,0-1.1,0.1-2.1,0.2c-1.9,0.2-3.1,0.3-3.9,0.4c1.5-1.1,3-2.2,4.4-3.5c0.3-0.3,0.6-0.6,0.9-0.8l-1-1.3c-0.5,0.2-1,0.2-1.5,0.3
		c-1.2,0.1-3.3,0.2-4.8,0.2c-0.5,0-1,0-1.6-0.1L550.5,9208.6z M573.9,9208.8c0.6,0,1.1,0.2,1.6,0.5c1.3,0.7,2,2.1,2,3.6
		c0,1.6-0.8,3.2-2.2,4c-1,0.5-2.1,0.8-3.2,0.9c0.5,0.5,0.8,1.2,1,1.9c0.9-0.1,1.7-0.3,2.5-0.7c2.4-1,4-3.4,3.9-6
		c0-3.6-2.5-5.9-6.3-5.9c-2.1-0.1-4.1,0.7-5.5,2.2c-1.1,1.3-1.8,2.9-1.8,4.7c0,2.6,1.3,4.4,3.1,4.4c1.3,0,2.3-0.9,3.2-3
		C573.1,9213.3,573.6,9211.1,573.9,9208.8z M571.9,9208.8c-0.2,1.9-0.6,3.7-1.3,5.4c-0.6,1.4-1.1,2-1.6,2c-0.7,0-1.3-1-1.3-2.4
		c0-1.7,0.8-3.3,2.2-4.3C570.5,9209.2,571.2,9208.9,571.9,9208.8z M591.8,9211.6v3.6c0,0.6,0,1.1-0.1,1.6h1.9
		c-0.1-0.5-0.1-1.1-0.1-1.6v-4.2l2-0.6c0,1,0,2-0.1,3c-0.1,0.8-0.2,0.9-0.5,0.9c-0.4,0-0.7-0.1-1.1-0.1c0.2,0.5,0.4,1.1,0.4,1.6
		c0.4,0,0.6,0,0.9,0c1.2,0,1.6-0.4,1.8-1.6c0.1-1,0.2-3.2,0.3-5.2c0-0.4,0-0.5,0-0.9c-0.4,0.2-0.9,0.4-1.3,0.5l-2.3,0.8v-2.1
		c0-0.5,0-1,0.1-1.6h-1.9c0.1,0.5,0.1,1.1,0.1,1.6v2.6l-1.6,0.5v-1.4c0-0.5,0-1.1,0.1-1.6h-1.9c0.1,0.6,0.1,1.1,0.1,1.7v1.9
		c-0.5,0.1-0.9,0.2-1.4,0.3l0.1,1.8c0.3-0.1,0.6-0.3,0.9-0.4c0.1,0,0.2,0,0.3-0.1v5.7c0,1.3,0.8,1.6,3.7,1.6c2.9,0,4-0.1,4.6-0.6
		c0.5-0.4,0.7-1,0.9-2.8c-0.6-0.1-1.2-0.3-1.7-0.5c0,0.4-0.1,0.8-0.1,1.3c0,0.3-0.2,0.5-0.4,0.7c-0.4,0.2-1,0.3-2.8,0.3
		c-0.7,0-1.4,0-2-0.1c-0.4-0.1-0.4-0.2-0.4-0.5v-5.6L591.8,9211.6z M584.7,9218.5c0,0.7,0,1.3-0.1,2h1.9c0-0.6-0.1-1.2-0.1-1.9v-8.9
		c0.4-0.8,0.8-1.7,1.1-2.6c0.2-0.4,0.2-0.5,0.3-0.9l-1.8-0.5c-0.1,0.7-0.3,1.5-0.6,2.2c-0.6,1.6-1.6,3.2-2.8,4.4
		c0.3,0.6,0.6,1.2,0.8,1.9c0.5-0.6,1-1.2,1.3-1.8c0,1.4,0,1.4,0,1.8L584.7,9218.5z M609.3,9213.3l0,4.8v0.3c0,0.5,0,1-0.1,1.5h2.2
		c0-0.4-0.1-1.1-0.1-1.8l-0.1-7.4h1.7c0.6,0,1.2,0,1.8,0.1v-1.9c-0.6,0.1-1.3,0.1-1.9,0.1h-1.6l0-1.3v-0.1c0-0.5,0-0.9,0.1-1.4h-2.1
		c0.1,0.5,0.1,1,0.1,1.5l0,1.3h-5.5c-0.7,0-1.4,0-2-0.1v2c0.7-0.1,1.3-0.1,2-0.1h4.4c-0.6,1-1.3,1.8-2.1,2.6c-1.5,1.5-3.2,2.6-5,3.5
		c0.6,0.4,1,1,1.3,1.7c0.8-0.4,1.6-0.9,2.4-1.5c1.1-0.8,2.2-1.8,3.1-2.8c0.6-0.7,1.2-1.4,1.6-2.2c0,0.3,0,1.1,0,1.2L609.3,9213.3z
		 M619,9214.1c0.9-0.1,1.7-0.1,2.6-0.1h8.5c0.9,0,1.7,0,2.6,0.1v-2.2c-0.9,0.1-1.7,0.1-2.6,0.1h-8.5c-0.9,0-1.7,0-2.6-0.1
		L619,9214.1z M645.1,9210c0-0.2,0-0.2,0-1.2l0-1c0-0.5,0-1,0.1-1.5H643c0.1,0.5,0.1,1,0.1,1.5v0.9c0,0.3,0,0.6,0,1.2h-4
		c-0.7,0-1.4,0-2.1-0.1v2c0.7-0.1,1.4-0.1,2-0.1h4c0,1.1-0.3,2.2-0.8,3.2c-0.9,1.5-2.2,2.6-3.9,3.2c0.6,0.5,1.1,1,1.5,1.7
		c1.7-0.8,3.1-2,4.1-3.6c0.8-1.4,1.2-2.9,1.2-4.5h3.3c0.7,0,1.4,0,2,0.1v-2c-0.7,0.1-1.4,0.1-2.1,0.1H645.1z M654.6,9214.1
		c0.9-0.1,1.7-0.1,2.6-0.1h8.5c0.9,0,1.7,0,2.6,0.1v-2.2c-0.9,0.1-1.7,0.1-2.6,0.1h-8.5c-0.9,0-1.7,0-2.6-0.1L654.6,9214.1z
		 M673.3,9210.9c0.2,0,0.5,0,0.7,0c1.9,0,3.8-0.2,5.7-0.4c0.5,1,1.1,2,1.7,2.9c-0.9-0.3-1.8-0.5-2.8-0.5c-1.5-0.1-2.9,0.3-4.1,1.2
		c-0.7,0.6-1.1,1.5-1.2,2.4c0,0.8,0.3,1.6,0.9,2.2c0.8,0.8,2.4,1.2,4.4,1.2c1.7,0,3.4-0.3,5.1-0.9l-0.3-2c-1.5,0.7-3.2,1.1-4.8,1.1
		c-2.2,0-3.4-0.6-3.4-1.6c0-1.1,1.3-1.8,3.5-1.8c0.9,0,1.7,0.1,2.5,0.4c0.4,0.1,0.8,0.4,1.1,0.7l1.9-0.8c-0.6-0.8-1.3-1.8-1.7-2.5
		c-0.2-0.3-0.5-1-1.1-2c1.3-0.3,2.1-0.4,2.4-0.5c0.5-0.1,0.7-0.2,1.1-0.2l-0.2-1.9c-1.3,0.4-2.6,0.7-3.9,0.9
		c-0.4-0.8-0.7-1.7-0.9-2.6l-2.1,0.3c0.1,0.1,0.8,1.8,1,2.5c-1,0.1-3.1,0.3-4.3,0.3c-0.5,0-1,0-1.6-0.1L673.3,9210.9z M693.9,9213.1
		c0.4-0.8,1.1-2.5,2-4.8c0.2-0.6,0.5-1.2,0.8-1.8l-2.2-0.5c-0.1,0.7-0.1,0.7-3.8,10.9c-0.5,1.4-0.7,1.8-0.9,2.2l2.1,0.7
		c0.3-1.3,0.8-2.5,1.3-3.7c0.8-1.4,1.7-2.2,2.5-2.2c0.3,0,0.6,0.1,0.7,0.4c0.1,0.3,0.2,0.6,0.1,0.9c0,0.2,0,0.5,0,1.1v0.2
		c0,0.6,0.1,1.2,0.3,1.8c0.5,0.9,1.5,1.5,2.5,1.4c2.4,0,4-1.7,4.7-5c-0.7-0.3-1.3-0.7-1.8-1.2c-0.1,0.9-0.3,1.7-0.6,2.5
		c-0.5,1.1-1.2,1.7-2,1.7c-0.3,0-0.6-0.1-0.8-0.2c-0.3-0.2-0.4-0.6-0.4-1.7c0-1.8-0.1-2.4-0.4-2.9c-0.4-0.6-1.1-0.9-1.8-0.9
		c-0.8,0-1.5,0.4-2.1,0.9L693.9,9213.1L693.9,9213.1z M715.9,9208.8c0.6,0,1.1,0.2,1.6,0.5c1.3,0.7,2,2.1,2,3.6c0,1.6-0.8,3.2-2.2,4
		c-1,0.5-2.1,0.8-3.2,0.9c0.5,0.5,0.8,1.2,1,1.9c0.9-0.1,1.7-0.3,2.5-0.7c2.4-1,4-3.4,3.9-6c0-3.6-2.5-5.9-6.3-5.9
		c-2.1-0.1-4.1,0.7-5.5,2.2c-1.1,1.3-1.8,2.9-1.8,4.7c0,2.6,1.3,4.4,3.1,4.4c1.3,0,2.3-0.9,3.2-3
		C715.2,9213.3,715.7,9211.1,715.9,9208.8L715.9,9208.8z M714,9208.8c-0.2,1.9-0.6,3.7-1.3,5.4c-0.6,1.4-1.1,2-1.6,2
		c-0.7,0-1.3-1-1.3-2.4c0-1.7,0.8-3.3,2.2-4.3C712.5,9209.2,713.2,9208.9,714,9208.8L714,9208.8z M725.2,9216.4l2.1-0.2
		c0,0.4,0.2,0.7,0.4,1c0.2,0.2,0.5,0.3,0.9,0.3c0.5,0,0.9-0.2,1.2-0.6c0.4-0.8,0.6-1.7,0.6-2.6c-0.5,0.6-1.3,1-2.1,1
		c-0.9,0-1.7-0.4-2.3-1c-0.7-0.7-1-1.7-1-2.7c0-1,0.3-2,1-2.8c1.5-1.4,3.9-1.4,5.3,0.1c0.1,0.1,0.1,0.1,0.2,0.2
		c0.9,1.3,1.3,2.9,1.1,4.4c0.1,1.6-0.3,3.2-1.2,4.5c-0.7,0.9-1.9,1.4-3,1.4c-0.8,0-1.6-0.2-2.2-0.7
		C725.7,9218,725.3,9217.3,725.2,9216.4L725.2,9216.4z M730.2,9211.6c0-0.6-0.1-1.2-0.5-1.6c-0.3-0.4-0.7-0.6-1.1-0.6
		c-0.4,0-0.8,0.2-1,0.5c-0.3,0.5-0.4,1-0.4,1.6c0,0.6,0.1,1.2,0.4,1.6c0.3,0.3,0.7,0.5,1.1,0.5c0.4,0,0.8-0.2,1.1-0.5
		C730,9212.7,730.2,9212.2,730.2,9211.6L730.2,9211.6z M735.8,9216.4l2.1-0.2c0,0.4,0.2,0.7,0.4,1c0.2,0.2,0.5,0.3,0.9,0.3
		c0.5,0,0.9-0.2,1.2-0.6c0.4-0.8,0.6-1.7,0.6-2.6c-0.5,0.6-1.3,1-2.1,1c-0.9,0-1.7-0.4-2.3-1c-0.7-0.7-1-1.7-1-2.7c0-1,0.3-2,1-2.8
		c1.5-1.4,3.9-1.4,5.3,0.1c0.1,0.1,0.1,0.1,0.2,0.2c0.9,1.3,1.3,2.9,1.1,4.4c0.1,1.6-0.3,3.2-1.2,4.5c-0.7,0.9-1.9,1.4-3,1.4
		c-0.8,0-1.6-0.2-2.2-0.7C736.3,9218,735.9,9217.2,735.8,9216.4L735.8,9216.4z M740.8,9211.6c0-0.6-0.1-1.2-0.5-1.6
		c-0.3-0.4-0.7-0.6-1.1-0.6c-0.4,0-0.8,0.2-1,0.5c-0.3,0.5-0.4,1-0.4,1.6c0,0.6,0.1,1.2,0.4,1.6c0.3,0.3,0.7,0.5,1.1,0.5
		c0.4,0,0.8-0.2,1.1-0.5C740.7,9212.7,740.8,9212.2,740.8,9211.6L740.8,9211.6z M746.5,9210.5c-0.1-0.8,0.2-1.6,0.7-2.3
		c0.5-0.5,1.1-0.8,1.8-0.7c0.7,0,1.4,0.2,1.9,0.7c0.5,0.7,0.7,1.5,0.7,2.3c0.1,0.8-0.2,1.6-0.7,2.3c-0.5,0.5-1.1,0.8-1.8,0.7
		c-0.7,0-1.4-0.2-1.9-0.7C746.6,9212.1,746.4,9211.3,746.5,9210.5L746.5,9210.5z M748.2,9210.4c0,0.5,0,1,0.3,1.5
		c0.1,0.2,0.3,0.3,0.5,0.3c0.2,0,0.4-0.1,0.5-0.3c0.2-0.5,0.3-1,0.2-1.5c0-0.5,0-1-0.2-1.5c-0.2-0.3-0.6-0.4-0.9-0.2
		c-0.1,0-0.1,0.1-0.2,0.2C748.2,9209.4,748.1,9209.9,748.2,9210.4L748.2,9210.4z M750.7,9219.5H749l6.1-12.1h1.6L750.7,9219.5z
		 M754.2,9216.5c-0.1-0.8,0.2-1.6,0.7-2.3c1-1,2.7-1,3.7,0c0.5,0.6,0.7,1.5,0.7,2.3c0.1,0.8-0.2,1.6-0.7,2.3
		c-0.5,0.5-1.1,0.8-1.8,0.7c-0.7,0-1.4-0.2-1.9-0.7C754.4,9218.1,754.1,9217.3,754.2,9216.5L754.2,9216.5z M755.9,9216.5
		c0,0.5,0,1,0.3,1.5c0.1,0.2,0.3,0.3,0.5,0.3c0.2,0,0.4-0.1,0.5-0.3c0.2-0.5,0.3-1,0.3-1.5c0-0.5,0-1-0.2-1.5
		c-0.1-0.2-0.3-0.3-0.5-0.3c-0.2,0-0.4,0.1-0.5,0.3C756,9215.5,755.9,9216,755.9,9216.5L755.9,9216.5z M762.9,9219.1v-11.5h2.3v4.5
		h4.5v-4.5h2.3v11.5h-2.3v-5h-4.5v5H762.9z M775.8,9213.4c0-1,0.1-2,0.5-2.9c0.3-0.6,0.6-1.1,1.1-1.6c0.4-0.4,0.9-0.8,1.5-1
		c0.8-0.3,1.6-0.5,2.5-0.5c1.5-0.1,3,0.5,4.1,1.6c1.1,1.2,1.6,2.8,1.5,4.4c0.1,1.6-0.4,3.2-1.5,4.3c-1.1,1.1-2.5,1.6-4,1.6
		c-1.5,0.1-3-0.5-4.1-1.6C776.2,9216.5,775.7,9215,775.8,9213.4L775.8,9213.4z M778.2,9213.3c-0.1,1.1,0.2,2.1,0.9,2.9
		c1.2,1.3,3.1,1.3,4.4,0.2c0.1-0.1,0.1-0.1,0.2-0.2c0.7-0.9,1-1.9,0.9-3c0.1-1.1-0.2-2.1-0.9-2.9c-1.2-1.3-3.3-1.3-4.5-0.1
		c0,0-0.1,0-0.1,0.1C778.4,9211.2,778.1,9212.3,778.2,9213.3L778.2,9213.3z M790.4,9207.6h2.3v6.2c0,0.6,0,1.3,0.1,1.9
		c0.1,0.5,0.3,0.9,0.7,1.1c0.4,0.3,1,0.5,1.5,0.4c0.5,0,1-0.1,1.5-0.4c0.3-0.2,0.5-0.6,0.6-1c0.1-0.6,0.1-1.3,0.1-1.9v-6.3h2.3v6
		c0,1,0,2-0.2,2.9c-0.1,0.5-0.3,1-0.7,1.4c-0.4,0.4-0.8,0.7-1.3,0.9c-0.7,0.3-1.5,0.4-2.2,0.3c-0.8,0-1.7-0.1-2.5-0.4
		c-0.5-0.2-1-0.6-1.3-1c-0.3-0.4-0.5-0.8-0.6-1.3c-0.2-1-0.3-1.9-0.2-2.9L790.4,9207.6z M803.2,9215.4l2.2-0.2
		c0.1,0.6,0.4,1.2,0.8,1.7c0.5,0.4,1.1,0.6,1.7,0.5c0.6,0,1.2-0.1,1.7-0.5c0.3-0.3,0.6-0.7,0.6-1.1c0-0.3-0.1-0.5-0.2-0.7
		c-0.2-0.2-0.5-0.4-0.8-0.5c-0.3-0.1-0.9-0.3-1.9-0.5c-0.9-0.2-1.8-0.6-2.6-1.1c-0.7-0.6-1.1-1.4-1.1-2.3c0-0.6,0.2-1.2,0.5-1.6
		c0.3-0.5,0.8-0.9,1.4-1.2c0.7-0.3,1.5-0.4,2.3-0.4c1.2-0.1,2.3,0.2,3.2,0.9c0.7,0.6,1.1,1.6,1.1,2.5l-2.3,0.1
		c0-0.5-0.3-0.9-0.6-1.3c-0.4-0.3-0.9-0.4-1.5-0.4c-0.6,0-1.1,0.1-1.6,0.4c-0.2,0.2-0.4,0.4-0.4,0.7c0,0.3,0.1,0.5,0.3,0.7
		c0.7,0.4,1.4,0.6,2.1,0.8c0.9,0.2,1.7,0.5,2.5,0.8c0.5,0.3,1,0.7,1.3,1.2c0.3,0.6,0.5,1.2,0.5,1.8c0,0.7-0.2,1.3-0.5,1.8
		c-0.4,0.6-0.9,1-1.5,1.3c-0.8,0.3-1.6,0.4-2.5,0.4c-1.2,0.1-2.4-0.3-3.3-1C803.8,9217.5,803.2,9216.5,803.2,9215.4L803.2,9215.4z
		 M816.2,9219.1v-11.5h8.5v1.9h-6.2v2.5h5.8v1.9h-5.8v3.1h6.4v1.9H816.2z M829.1,9213.9c0.2,0,0.4,0,0.6,0.1
		c0.6,0.1,1.3,0.2,2.2,0.4c-0.1,0.5-0.1,0.9-0.1,1.4c0,2.6,1.6,4,4.5,4c1.3,0.1,2.6-0.3,3.6-1.1c0.9-0.7,1.5-1.8,1.5-3
		c0-0.8-0.3-1.6-0.7-2.4c-0.2-0.4-0.5-0.7-0.8-1c-0.6,0.2-1.3,0.4-2,0.4c0.8,0.7,1.4,1.6,1.4,2.7c0,1.6-1.2,2.5-3.2,2.5
		c-0.7,0.1-1.4-0.2-2-0.6c-0.4-0.4-0.7-1-0.6-1.6c0-0.4,0-0.8,0.1-1.1c0.6,0,0.8,0,1,0c0.8,0,1.6-0.1,2.4-0.1c0.2,0,0.3-0.1,0.5,0
		l0-1.8c-1,0.2-2,0.3-3.1,0.3c-0.2,0-0.3,0-0.8,0c0.1-0.8,0.1-1.1,0.3-2.3c0.7,0,0.8,0,1,0c0.6,0,1.1,0,2.2-0.1c0.4,0,0.4,0,0.6-0.1
		l0.1-1.9c-1.2,0.3-2.4,0.4-3.6,0.3c0.1-0.9,0.2-1.8,0.5-2.7l-2.1-0.2c0,0.1,0,0.1,0,0.2c0,0.9-0.2,1.8-0.3,2.7
		c-1-0.1-2-0.3-2.9-0.6l-0.2,1.8c0.2,0,0.3,0.1,0.5,0.1c0.8,0.2,1.5,0.3,2.3,0.4c-0.1,0.6-0.2,1.7-0.3,2.2c-1-0.1-1.9-0.3-2.8-0.6
		L829.1,9213.9z M846,9214c0.3-0.1,0.7-0.1,1-0.1c0.1,0,0.3,0,0.6,0c0.1,0,0.4,0,0.6,0v4.9c0,0.6,0,1.1-0.1,1.7h1.7
		c-0.1-0.6-0.1-1.1-0.1-1.7v-5.1c0.5,0,0.6-0.1,1-0.1c0,0.2,0.1,0.4,0.1,0.7l1-0.4c0,0.3,0,0.7-0.1,1h1.6v-1.8h5.3v1.8h1.7
		c-0.1-0.4-0.1-0.8-0.1-1.1v-1c0-0.4,0-0.8,0-1.1c-0.5,0.1-1,0.1-1.5,0.1h-5.5c-0.5,0-1,0-1.4,0c0.1,0.4,0.1,0.8,0.1,1.2v0.4
		c-0.2-0.9-0.5-1.8-0.9-2.7l-1.1,0.4c0.2,0.4,0.3,0.8,0.5,1.2c-0.5,0-0.8,0.1-1.6,0.1c0.6-0.8,1.6-2.3,2.1-3.1
		c0.2-0.4,0.5-0.8,0.8-1.2l-1.4-0.8c-0.4,0.9-0.9,1.8-1.4,2.7c-0.2-0.3-0.3-0.4-0.6-0.8c0.5-0.8,1-1.6,1.4-2.5
		c0.1-0.2,0.2-0.4,0.3-0.6l-1.5-0.6c-0.3,0.9-0.7,1.8-1.2,2.6l-0.6-0.7l-0.8,1.4c0.8,0.7,1.5,1.6,2.1,2.4c-0.4,0.5-0.4,0.5-0.8,1.2
		h-0.6c-0.2,0-0.4,0-0.7,0L846,9214z M855,9208.4v1.1h-1.4c-0.5,0-1.1,0-1.6-0.1v1.6c0.5-0.1,1.1-0.1,1.6-0.1h4.7
		c0.5,0,1.1,0,1.6,0.1v-1.6c-0.5,0.1-1.1,0.1-1.6,0.1h-1.6v-1.1h2c0.6,0,1.2,0,1.7,0.1v-1.6c-0.6,0.1-1.2,0.1-1.8,0.1h-2v-0.1
		c0-0.4,0-0.8,0.1-1.2h-1.8c0.1,0.4,0.1,0.8,0.1,1.2v0.2h-1.5c-0.6,0-1.2,0-1.8-0.1v1.6c0.6-0.1,1.2-0.1,1.7-0.1L855,9208.4z
		 M846.4,9214.6c0,1.5-0.2,3-0.6,4.4l1.4,0.7c0.4-1.6,0.6-3.2,0.6-4.9L846.4,9214.6z M850.1,9214.8c0.3,1.2,0.4,2.4,0.4,3.6l1.3-0.4
		c-0.1-1.2-0.3-2.3-0.5-3.5L850.1,9214.8z M856.2,9214c0.1,0.4,0.1,0.8,0.1,1.1v3.7c0,1.1,0.4,1.3,2,1.3c1.3,0,1.8-0.2,2.1-0.8
		c0.3-0.8,0.4-1.6,0.4-2.4c-0.5-0.1-1.1-0.3-1.5-0.6c0.1,0.7,0,1.4-0.3,2.1c-0.2,0.1-0.4,0.2-0.6,0.2c-0.4,0-0.5-0.1-0.5-0.3v-3.1
		c0-0.4,0-0.8,0.1-1.1H856.2z M853.8,9214c0,0.2,0,0.5,0,0.7c0.1,1-0.2,2-0.8,2.8c-0.6,0.7-1.4,1.2-2.3,1.4c0.5,0.4,0.9,0.9,1.1,1.5
		c1-0.4,1.9-1,2.6-1.9c0.7-1,1.1-2.2,1.1-3.4c0-0.8,0-0.8,0.1-1.2H853.8z M874.4,9210.5c-0.7,1.7-1.7,3.2-2.8,4.6
		c-0.8-0.6-1.2-0.9-2.1-1.5l-1.3,1.2c1.1,0.7,2.1,1.5,3.1,2.4c0.9,0.8,1.7,1.6,2.4,2.5l1.4-1.3c-0.7-0.8-1.4-1.5-2.1-2.2
		c0.7-0.9,1.3-1.8,1.9-2.7c0.5-0.9,1.1-1.9,1.5-2.7c0.1-0.2,0.2-0.4,0.2-0.4l0.1-0.2c0.1-0.1,0.1-0.2,0.2-0.4l-1.1-1.2
		c-0.6,0.1-1.2,0.1-1.9,0.1h-3.4c0.3-0.7,0.3-0.8,0.4-1c0.2-0.4,0.3-0.9,0.5-1.3l-2.1-0.5c-0.2,1.3-0.7,2.5-1.4,3.7
		c-1,1.9-2.4,3.5-4,4.9c0.6,0.3,1.1,0.7,1.6,1.2c1.6-1.6,3-3.4,4.1-5.3L874.4,9210.5z M895.4,9219.4c-1.1-2.1-2.4-4.1-3.9-6
		l-1.6,0.9c0.7,0.9,1.4,1.9,2,2.8c-1.9,0.3-3.9,0.5-5.8,0.5c1.1-2,2.1-4,3-6.2c0.2-0.4,0.2-0.5,0.3-0.7l-2.1-0.5
		c-0.2,0.9-0.5,1.9-0.9,2.8c-0.7,1.6-1.5,3.2-2.4,4.7c-0.4,0-0.5,0-0.9,0c-0.4,0-0.8,0-1.2,0l0.3,2c0.6-0.1,1.2-0.2,1.9-0.2
		c2.9-0.1,5.8-0.4,8.7-0.9c0.3,0.5,0.4,0.8,0.8,1.7L895.4,9219.4z M885.9,9206c-0.2,0.7-0.4,1.4-0.8,2c-1,1.7-2.3,3.1-4,4.1
		c0.5,0.5,0.9,1.1,1.2,1.7c0.9-0.7,1.7-1.5,2.5-2.3c1-1.2,1.9-2.5,2.7-3.9c0.1-0.1,0.1-0.3,0.2-0.4c0-0.1,0.1-0.1,0.1-0.2
		c0-0.1,0.1-0.2,0.1-0.2L885.9,9206z M889.6,9206.7l0.1,0.3c0.1,0.1,0.1,0.2,0.2,0.3c0.1,0.2,0.1,0.3,0.2,0.4
		c0.4,0.8,0.9,1.7,1.5,2.4c1,1.4,2.3,2.7,3.7,3.7c0.3-0.6,0.7-1.2,1.2-1.8c-0.5-0.3-1-0.7-1.5-1.1c-0.6-0.5-1.2-1.2-1.8-1.8
		c-0.8-0.9-1.4-2-1.8-3.2L889.6,9206.7z M904,9214.9c-0.6,0-1.1,0-1.7-0.1v1.5c0.6-0.1,1.1-0.1,1.7-0.1c-0.1,1.2-0.7,2.2-1.7,2.8
		c0.5,0.3,0.9,0.7,1.3,1.1c1.1-1,1.8-2.4,1.9-4h1.8v2.4c0,0.5,0,0.9-0.1,1.4h1.7c-0.1-0.4-0.1-0.9-0.1-1.4v-2.4h0.2
		c0.6,0,1.1,0,1.6,0.1v-1.5c-0.5,0.1-1.1,0.1-1.6,0.1h-0.2v-1.5c0.6,0,1.1,0,1.7,0.1v-1.4c-0.6,0.1-1.1,0.1-1.7,0.1h-4.6
		c-0.5,0-1.1,0-1.6-0.1v1.4c0.5-0.1,1.1-0.1,1.6-0.1c0,0.7,0,0.9,0,1.5H904z M907.3,9213.4v1.5h-1.7c0-0.8,0-0.8,0-1.5L907.3,9213.4
		z M901.5,9211.3h3c0.6,0,1.1,0,1.5,0c0-0.4,0-0.7,0-1.4v-2.5c0-0.6,0-1,0-1.5c-0.5,0.1-1.1,0.1-1.6,0.1h-2.9c-0.6,0-1.1,0-1.6-0.1
		c0.1,0.6,0.1,1.2,0.1,1.8v10.6c0,0.7,0,1.3-0.1,2h1.9c-0.1-0.6-0.1-1.3-0.1-2L901.5,9211.3z M901.5,9207.3h2.8v0.8h-2.8V9207.3z
		 M901.5,9209.2h2.8v0.9h-2.8V9209.2z M913.3,9207.8c0-0.8,0-1.2,0.1-1.8c-0.5,0.1-1.1,0.1-1.6,0.1h-3.1c-0.5,0-1.1,0-1.6-0.1
		c0,0.5,0,0.9,0,1.5v2.5c0,0.7,0,1,0,1.4c0.4,0,0.9,0,1.5,0h3.1v6.8c0,0.4-0.1,0.4-0.6,0.4c-0.5,0-1-0.1-1.5-0.1
		c0.2,0.5,0.4,1.1,0.4,1.7c0.5,0,0.8,0,1,0c1.8,0,2.3-0.4,2.3-1.8V9207.8z M908.6,9207.3h3v0.8h-3V9207.3z M908.6,9209.2h3v0.9h-3
		V9209.2z M929.1,9206.2c-0.5,0.1-0.9,0.1-1.4,0.1h-7.1c-0.7,0-1.3,0-2-0.1v1.8c0.6-0.1,1.3-0.1,1.9-0.1h6.2
		c-0.8,0.6-1.6,1.2-2.5,1.6c-0.9-0.6-1.3-0.8-2.4-1.4l-1.2,1.1c1.2,0.7,2.4,1.4,3.5,2.3h-4.9c-0.7,0-1.4,0-2.1-0.1v1.8
		c0.7-0.1,1.3-0.1,2-0.1h4.2v5.1c0,0.4-0.1,0.4-0.6,0.4c-0.8,0-1.6,0-2.3-0.2c0.2,0.6,0.4,1.2,0.5,1.8c0.5,0,1.3,0,1.8,0
		c2,0,2.5-0.4,2.5-1.7v-5.5h3.7c-0.7,0.8-1.4,1.6-2.3,2.2c0.5,0.3,1,0.7,1.4,1.2c1-0.8,1.8-1.7,2.5-2.6c0.7-0.9,1-1.3,1-1.4l-1-1.1
		c-0.6,0.1-1.2,0.1-1.8,0.1h-2.9l0.5-0.5c-0.4-0.3-0.4-0.3-0.8-0.5c0.8-0.5,1.5-1,2.5-1.6c0.7-0.5,1.3-1,1.9-1.5L929.1,9206.2z
		 M941.3,9217.8c-1.1-0.4-1.9-1.2-2.4-2.2c0.2-0.8,0.3-1.1,0.4-1.4c0.1-0.7,0.1-0.7,0.2-0.9l-1.8-0.3c-0.1,0.6-0.2,1.2-0.3,1.7
		c-0.5,1.7-1.4,3.3-2.8,4.5c0.5,0.3,1,0.8,1.4,1.3c0.9-0.9,1.6-2,2.2-3.1c1.3,1.9,3.4,2.8,7.2,2.8c1.3,0,2.1,0,3.4,0
		c0.1-0.6,0.2-1.2,0.4-1.8c-1.6,0.1-2.7,0.2-3.6,0.2c-0.9,0-1.7,0-2.6-0.2v-2.7h3c0.5,0,1,0,1.6,0.1v-1.7c-0.5,0.1-1,0.1-1.6,0.1h-3
		v-2.1h2.1c0.6,0,1.1,0,1.6,0.1v-1.7c-0.5,0.1-1.1,0.1-1.6,0.1H939c-0.5,0-1.1,0-1.6-0.1v1.7c0.5-0.1,1.1-0.1,1.6-0.1h2.4
		L941.3,9217.8z M941.1,9207.3h-4.2c-0.6,0-1.2,0-1.8-0.1c0,0.4,0.1,0.8,0.1,1.2v1.2c0,0.4,0,0.8-0.1,1.3h1.8v-2h10.3v2h1.7
		c0-0.4-0.1-0.8-0.1-1.2v-1.2c0-0.4,0-0.8,0.1-1.2c-0.6,0-1.1,0.1-1.8,0.1h-4.3v-0.6c0-0.3,0-0.7,0.1-1h-2c0.1,0.3,0.1,0.7,0.1,1
		L941.1,9207.3z M953.1,9210c0.9-0.2,1.8-0.3,2.7-0.3c3.1-0.2,4.1-0.3,5.4-0.5c-0.8,0.4-1.6,0.9-2.2,1.6c-1,1-1.5,2.4-1.5,3.8
		c0,1.6,0.9,3.1,2.3,3.9c1.2,0.6,2.4,1,3.7,1.1c0.3,0,0.3,0,0.5,0.1l0.3-2.2c-0.2,0-0.3,0-0.3,0c-0.8,0-1.6-0.2-2.4-0.4
		c-1.2-0.3-2.1-1.3-2.1-2.6c0-1.6,1.2-3.2,3.2-4.3c1-0.5,2.1-0.8,3.2-0.9c0.1,0,0.2,0,0.3,0l-0.1-2c-0.5,0.1-1.1,0.1-1.6,0.1
		c-4.3,0.2-7,0.4-8.2,0.4c-2.4,0.2-2.4,0.2-2.6,0.2c-0.1,0-0.3,0-0.6,0L953.1,9210z M962.9,9211.5c0.7,0.7,1.2,1.5,1.7,2.4l1.1-0.6
		c-0.4-0.9-1-1.6-1.7-2.4L962.9,9211.5z M967.6,9212.3c-0.4-0.8-1-1.6-1.7-2.3l-1.1,0.6c0.6,0.7,1.2,1.5,1.6,2.3L967.6,9212.3z
		 M979.9,9210.6v-1c1.3,0,1.6,0,1.9,0c1.3,0,2.1,0,2.7,0.1l0-1.8c-0.6,0.1-1.8,0.1-4.6,0.1c0-0.6,0-1.3,0.1-1.9l-2,0
		c0.1,0.6,0.1,1.3,0.1,1.9c-0.8,0-0.8,0-1.4,0c-1.3,0-1.5,0-2.5,0.1c-2.1,0.1-2.3,0.1-2.7,0.1c-0.3,0-0.5,0-0.8,0l0.1,1.9
		c0.4-0.1,0.4-0.1,2.8-0.2c0.7,0,2.2-0.1,4.5-0.2c0,0.4,0,1.3,0,1.4c0,0.1,0,0.1,0,0.2c-0.5-0.3-1.1-0.5-1.7-0.5
		c-1.6-0.1-3,1.1-3.2,2.7c0,0.1,0,0.1,0,0.2c0,0.9,0.4,1.7,1.1,2.2c0.5,0.4,1.2,0.6,1.9,0.6c0.9,0.1,1.8-0.4,2.4-1.1
		c-0.2,1-0.9,1.9-1.9,2.3c-0.8,0.5-1.8,0.8-2.7,0.9c0.5,0.5,0.9,1.1,1.1,1.8c1-0.3,2-0.7,2.9-1.3c1.5-0.9,2.4-2.6,2.4-4.3
		c0-0.8-0.2-1.6-0.5-2.3c0-0.2,0-0.3,0-0.4L979.9,9210.6z M978,9213.2c0,0.8-0.7,1.5-1.5,1.4c0,0-0.1,0-0.1,0
		c-0.7,0.1-1.3-0.5-1.4-1.2c0,0,0-0.1,0-0.1c0.1-0.8,0.7-1.3,1.5-1.3C977.5,9212.1,978,9212.5,978,9213.2L978,9213.2z M989.2,9214.9
		c-1.5,0-2.7,1.2-2.7,2.7c0,1.5,1.2,2.7,2.7,2.7c1.5,0,2.7-1.2,2.7-2.7c0,0,0,0,0,0C991.9,9216.1,990.7,9214.9,989.2,9214.9
		L989.2,9214.9z M989.2,9216.2c0.8,0,1.5,0.6,1.5,1.5c0,0.8-0.6,1.5-1.5,1.5c-0.8,0-1.5-0.6-1.5-1.5c0,0,0,0,0,0
		C987.8,9216.8,988.4,9216.2,989.2,9216.2L989.2,9216.2z"/>
	<path id="パス_72475" d="M531.8,9166.5l8.8,2.8c-1.4,4.9-3.6,8.6-6.8,11c-3.1,2.4-7.1,3.6-12,3.6c-5.6,0.2-11-2.1-14.8-6.1
		c-3.9-4.1-5.8-9.7-5.8-16.8c0-7.5,1.9-13.3,5.8-17.5s9-6.2,15.3-6.2c5.5,0,10,1.6,13.4,4.9c2.3,2.3,3.9,5.2,4.6,8.3l-9,2.2
		c-0.4-2.2-1.6-4.1-3.3-5.5c-1.8-1.4-3.9-2.1-6.2-2c-3.1-0.1-6.1,1.2-8.1,3.6c-2.1,2.4-3.1,6.3-3.1,11.7c0,5.7,1,9.8,3.1,12.2
		c2,2.4,4.9,3.7,8,3.6c2.3,0,4.5-0.8,6.2-2.3C529.8,9172.2,531,9169.8,531.8,9166.5z M553.5,9160.8c-0.1-4,0.6-7.9,2.1-11.6
		c1-2.3,2.4-4.4,4.2-6.2c1.6-1.7,3.6-3.1,5.8-4.1c3.1-1.2,6.4-1.8,9.7-1.8c6.6,0,12,2.1,15.9,6.2c4,4.1,6,9.9,6,17.2
		c0,7.3-2,13-5.9,17.1s-9.2,6.2-15.9,6.2c-6.7,0-12-2-16-6.1C555.5,9173.6,553.5,9168,553.5,9160.8L553.5,9160.8z M562.9,9160.5
		c0,5.1,1.2,9,3.5,11.6c2.3,2.6,5.5,4,9,4c3.4,0.1,6.7-1.3,8.9-3.9c2.3-2.6,3.5-6.5,3.5-11.8c0-5.2-1.1-9-3.4-11.6
		c-2.3-2.6-5.6-4-9-3.8c-3.4-0.1-6.8,1.3-9.1,3.9C564.1,9151.4,562.9,9155.3,562.9,9160.5L562.9,9160.5z M611.2,9183.1V9138h13.6
		l8.2,30.8l8.1-30.8h13.7v45.1h-8.5v-35.5l-9,35.5h-8.8l-8.9-35.5v35.5H611.2z M670.4,9183.1V9138h9.1v45.1H670.4z M695.2,9183.1
		V9138h8.9l18.5,30.1V9138h8.5v45.1h-9.1l-18.2-29.4v29.4H695.2z M768.5,9166.5v-7.6h19.6v18c-2.4,2.2-5.2,3.8-8.3,4.9
		c-3.5,1.4-7.2,2.1-11,2.1c-4.3,0.1-8.5-0.9-12.3-3c-3.5-1.9-6.2-4.9-7.9-8.5c-1.8-3.8-2.7-7.9-2.7-12c-0.1-4.4,0.9-8.7,3-12.5
		c1.9-3.6,5-6.6,8.6-8.4c3.4-1.6,7.1-2.4,10.8-2.2c5.6,0,10,1.2,13.1,3.5c3.2,2.4,5.3,5.8,6.1,9.7l-9,1.7c-0.6-2.1-1.8-4-3.6-5.2
		c-1.9-1.3-4.2-2-6.6-1.9c-3.6-0.2-7,1.2-9.5,3.8c-2.3,2.5-3.5,6.3-3.5,11.2c0,5.4,1.2,9.4,3.6,12c2.4,2.7,5.8,4.1,9.4,4
		c2,0,3.9-0.4,5.7-1.1c1.8-0.7,3.4-1.6,4.9-2.7v-5.7L768.5,9166.5z M825.6,9168.4l8.9-0.9c0.5,3,1.6,5.2,3.2,6.6
		c1.9,1.5,4.2,2.2,6.6,2.1c2.9,0,5.1-0.6,6.6-1.9c1.4-1,2.2-2.6,2.2-4.4c0-1-0.3-2-0.9-2.7c-0.9-0.9-2-1.6-3.3-2
		c-1.1-0.4-3.5-1-7.3-2c-4.9-1.2-8.3-2.7-10.3-4.5c-2.7-2.3-4.2-5.6-4.2-9.1c0-2.3,0.7-4.5,2-6.4c1.4-2.1,3.3-3.6,5.6-4.6
		c2.8-1.1,5.8-1.6,8.9-1.6c5.7,0,9.9,1.2,12.8,3.7c2.9,2.5,4.5,6.1,4.5,9.9l-9.1,0.4c-0.2-1.9-1.1-3.7-2.5-5c-1.3-1-3.2-1.5-5.8-1.5
		c-2.2-0.1-4.4,0.4-6.2,1.6c-0.9,0.6-1.5,1.7-1.4,2.8c0,1.1,0.5,2.1,1.4,2.7c1.1,1,3.9,2,8.4,3c3.4,0.7,6.7,1.8,9.8,3.2
		c2,1,3.8,2.6,5,4.6c1.3,2.2,1.9,4.7,1.8,7.2c0,2.6-0.7,5.1-2.2,7.3c-1.5,2.3-3.6,4-6.1,5c-3.1,1.2-6.5,1.7-9.8,1.6
		c-5.7,0-10.1-1.3-13.1-4C828.1,9177.3,826.2,9173.5,825.6,9168.4L825.6,9168.4z M875,9160.8c-0.1-4,0.6-7.9,2.1-11.6
		c1-2.3,2.4-4.4,4.2-6.2c1.6-1.7,3.6-3.1,5.8-4.1c3.1-1.2,6.4-1.8,9.7-1.8c6.6,0,12,2.1,16,6.2c4,4.1,6,9.9,6,17.2
		c0,7.3-2,13-5.9,17.1s-9.2,6.2-15.9,6.2c-6.7,0-12-2-16-6.1C877,9173.6,875,9168,875,9160.8L875,9160.8z M884.4,9160.5
		c0,5.1,1.2,9,3.5,11.6c2.3,2.6,5.5,4,9,4c3.4,0.1,6.7-1.3,8.9-3.9c2.3-2.6,3.5-6.5,3.5-11.8c0-5.2-1.1-9-3.4-11.6
		c-2.3-2.6-5.6-4-9-3.8c-3.4-0.1-6.8,1.3-9.1,3.9C885.6,9151.4,884.4,9155.3,884.4,9160.5L884.4,9160.5z M931,9160.8
		c-0.1-4,0.6-7.9,2.1-11.6c1-2.3,2.4-4.4,4.2-6.2c1.6-1.7,3.6-3.1,5.8-4.1c3.1-1.2,6.4-1.8,9.7-1.8c6.6,0,12,2.1,16,6.2
		c4,4.1,6,9.9,6,17.2c0,7.3-2,13-5.9,17.1s-9.2,6.2-15.9,6.2c-6.7,0-12-2-16-6.1C932.9,9173.6,931,9168,931,9160.8L931,9160.8z
		 M940.4,9160.5c0,5.1,1.2,9,3.5,11.6c2.3,2.6,5.5,4,9,4c3.4,0.1,6.7-1.3,8.9-3.9c2.3-2.6,3.5-6.5,3.5-11.8c0-5.2-1.1-9-3.4-11.6
		c-2.3-2.6-5.6-4-9-3.8c-3.4-0.1-6.8,1.3-9.1,3.9C941.5,9151.4,940.4,9155.3,940.4,9160.5z M988.8,9183.1V9138h8.9l18.5,30.1V9138
		h8.5v45.1h-9.1l-18.2-29.4v29.4H988.8z"/>
	<path id="パス_72477" d="M745.7,9065.1v-12.9h2.5l5.3,8.6v-8.6h2.4v12.9h-2.6l-5.2-8.4v8.4H745.7z M760.6,9065.1v-12.9h9.6v2.2
		h-7v2.9h6.5v2.2h-6.5v3.5h7.2v2.2H760.6z M773.3,9065.1l4.4-6.7l-4-6.2h3l2.6,4.1l2.5-4.1h3l-4,6.3l4.4,6.6h-3.1l-2.9-4.5l-2.9,4.5
		H773.3z M791.5,9065.1v-10.7h-3.8v-2.2h10.2v2.2h-3.8v10.7H791.5z"/>
</g>
</svg>
