<?xml version="1.0" encoding="utf-8"?>
<!-- Generator: Adobe Illustrator 26.5.0, SVG Export Plug-In . SVG Version: 6.00 Build 0)  -->
<svg version="1.1" id="レイヤー_1" xmlns="http://www.w3.org/2000/svg" xmlns:xlink="http://www.w3.org/1999/xlink" x="0px"
	 y="0px" viewBox="0 0 284 160" style="enable-background:new 0 0 284 160;" xml:space="preserve">
<g id="グループ_7077" transform="translate(-38.61 -10604.694)">
	<path id="パス_72476" d="M164.8,10615.1v-9.3h1.8l3.8,6.2v-6.2h1.7v9.3h-1.9l-3.8-6.1v6.1H164.8z M175.6,10615.1v-9.3h6.9v1.6h-5
		v2.1h4.7v1.6h-4.7v2.5h5.2v1.6H175.6z M184.7,10615.1l3.2-4.9l-2.9-4.5h2.2l1.9,3l1.8-3h2.2l-2.9,4.5l3.2,4.8h-2.3l-2.1-3.2
		l-2.1,3.2H184.7z M197.9,10615.1v-7.7h-2.8v-1.6h7.4v1.6h-2.8v7.7H197.9z"/>
	<path id="パス_72477" d="M57.5,10720.1c0.3,0,0.6-0.1,0.9-0.1c1.3,0,2.6-0.1,3.9-0.3c-1.3,1.3-2.8,2.4-4.3,3.4
		c-0.3,0.1-0.5,0.1-0.8,0.1c-0.3,0-0.5,0.1-0.5,0.1c-0.3,0-0.9,0.1-1.2,0.1c-0.1,0-0.1,0-0.2,0l0.2,1.7c0.2-0.1,0.4-0.1,0.6-0.1
		c0.9-0.1,1.7-0.2,2.3-0.3c0.4-0.1,0.9-0.1,1.5-0.2c0.7-0.1,1.1-0.2,1.7-0.3c-0.6,0.3-1.1,0.6-1.5,1.1c-0.5,0.5-0.7,1.1-0.8,1.8
		c0,1.2,0.8,2.2,2,2.5c0.8,0.3,1.7,0.4,2.6,0.4h0.2c0.4,0,0.6,0,0.7,0c0.2,0,0.4,0,0.5,0l-0.1-1.8c-0.4,0.1-0.9,0.1-1.3,0.1
		c-1.8,0-2.8-0.5-2.8-1.4c0-0.8,0.8-1.6,1.9-2.1c1.2-0.5,2.6-0.7,3.9-0.7h0.4l-0.1-1.6c-0.1,0-0.3,0.1-0.4,0.1c-0.1,0-0.5,0-1,0.1
		c-0.3,0-1,0.1-1.8,0.1c-1.7,0.1-2.7,0.2-3.4,0.3c1.3-0.9,2.6-2,3.8-3.1c0.2-0.3,0.5-0.5,0.8-0.7l-0.9-1.2c-0.4,0.1-0.9,0.2-1.3,0.2
		c-1.1,0.1-2.9,0.2-4.2,0.2c-0.5,0-0.9,0-1.4-0.1L57.5,10720.1z M78,10720.3c0.5,0,1,0.2,1.4,0.4c1.1,0.6,1.8,1.8,1.7,3.1
		c0,1.4-0.7,2.8-1.9,3.5c-0.9,0.4-1.8,0.7-2.8,0.8c0.4,0.5,0.7,1,0.9,1.6c0.8-0.1,1.5-0.3,2.2-0.6c2.1-0.8,3.5-2.9,3.4-5.2
		c0-3.1-2.2-5.2-5.5-5.2c-1.8-0.1-3.6,0.6-4.8,2c-1,1.1-1.6,2.6-1.5,4.1c0,2.3,1.1,3.9,2.7,3.9c1.1,0,2-0.8,2.8-2.6
		C77.3,10724.1,77.8,10722.2,78,10720.3L78,10720.3z M76.3,10720.3c-0.2,1.6-0.6,3.2-1.2,4.7c-0.5,1.2-1,1.8-1.4,1.8
		c-0.6,0-1.1-0.9-1.1-2.1c0-1.5,0.7-2.9,1.9-3.8C75,10720.6,75.6,10720.3,76.3,10720.3z M93.7,10722.7v3.1c0,0.5,0,1-0.1,1.4h1.6
		c-0.1-0.5-0.1-0.9-0.1-1.4v-3.6l1.7-0.6c0,0.9,0,1.7-0.1,2.6c-0.1,0.7-0.1,0.8-0.4,0.8c-0.3,0-0.6-0.1-1-0.1
		c0.2,0.5,0.3,0.9,0.4,1.4c0.3,0,0.5,0,0.8,0c1.1,0,1.4-0.3,1.6-1.4c0.1-0.9,0.2-2.8,0.2-4.5c0-0.4,0-0.5,0-0.8
		c-0.4,0.2-0.7,0.3-1.1,0.4l-2,0.7v-1.9c0-0.5,0-0.9,0.1-1.4h-1.6c0.1,0.5,0.1,0.9,0.1,1.4v2.3l-1.4,0.5v-1.2c0-0.5,0-1,0.1-1.4
		h-1.6c0.1,0.5,0.1,1,0.1,1.5v1.7c-0.4,0.1-0.8,0.2-1.2,0.3l0.1,1.6c0.3-0.1,0.5-0.2,0.8-0.3c0.1,0,0.2,0,0.3-0.1v5
		c0,1.1,0.7,1.4,3.3,1.4c2.5,0,3.5-0.1,4-0.5c0.4-0.3,0.6-0.9,0.8-2.5c-0.5-0.1-1-0.2-1.5-0.4c0,0.4,0,0.7-0.1,1.1
		c0,0.2-0.1,0.5-0.3,0.6c-0.3,0.2-0.9,0.3-2.5,0.3c-0.6,0-1.2,0-1.8-0.1c-0.3-0.1-0.4-0.2-0.4-0.4v-4.9L93.7,10722.7z M87.5,10728.7
		c0,0.6,0,1.1-0.1,1.7h1.6c0-0.5-0.1-1-0.1-1.7v-7.8c0.4-0.7,0.7-1.5,1-2.3c0.1-0.4,0.2-0.5,0.3-0.8l-1.6-0.5
		c-0.1,0.6-0.3,1.3-0.5,1.9c-0.6,1.4-1.4,2.8-2.5,3.9c0.3,0.5,0.5,1.1,0.7,1.7c0.4-0.5,0.8-1,1.2-1.6c0,1.2,0,1.2,0,1.5
		L87.5,10728.7z M109,10724.2l0,4.2v0.3c0,0.5,0,0.9-0.1,1.3h1.9c0-0.4-0.1-0.9-0.1-1.6l-0.1-6.5h1.4c0.5,0,1.1,0,1.6,0.1v-1.7
		c-0.5,0.1-1.1,0.1-1.7,0.1h-1.4l0-1.1v-0.1c0-0.4,0-0.8,0.1-1.2h-1.8c0.1,0.4,0.1,0.9,0.1,1.3l0,1.1h-4.8c-0.6,0-1.2,0-1.8-0.1v1.7
		c0.6-0.1,1.1-0.1,1.7-0.1h3.8c-0.5,0.8-1.2,1.6-1.9,2.3c-1.3,1.3-2.8,2.3-4.4,3c0.5,0.4,0.9,0.9,1.2,1.5c0.7-0.4,1.4-0.8,2.1-1.3
		c1-0.7,1.9-1.5,2.8-2.4c0.6-0.6,1-1.2,1.4-2c0,0.2,0,0.9,0,1L109,10724.2z M117.5,10724.8c0.8-0.1,1.5-0.1,2.3-0.1h7.4
		c0.8,0,1.5,0,2.3,0.1v-1.9c-0.8,0.1-1.5,0.1-2.3,0.1h-7.5c-0.8,0-1.5,0-2.3-0.1L117.5,10724.8z M140.3,10721.3c0-0.2,0-0.2,0-1.1
		l0-0.8c0-0.4,0-0.9,0.1-1.3h-1.9c0.1,0.4,0.1,0.9,0.1,1.3v0.8c0,0.3,0,0.5,0,1.1H135c-0.6,0-1.2,0-1.8-0.1v1.8
		c0.6-0.1,1.2-0.1,1.8-0.1h3.5c0,1-0.2,1.9-0.7,2.8c-0.8,1.3-2,2.3-3.4,2.8c0.5,0.4,1,0.9,1.3,1.5c1.5-0.7,2.7-1.8,3.6-3.1
		c0.7-1.2,1-2.6,1-3.9h2.9c0.6,0,1.2,0,1.8,0.1v-1.8c-0.6,0.1-1.2,0.1-1.8,0.1L140.3,10721.3z M148.6,10724.8
		c0.8-0.1,1.5-0.1,2.3-0.1h7.4c0.8,0,1.5,0,2.3,0.1v-1.9c-0.8,0.1-1.5,0.1-2.3,0.1h-7.5c-0.8,0-1.5,0-2.3-0.1V10724.8z M165,10722
		c0.2,0,0.4,0,0.6,0c1.7,0,3.3-0.1,5-0.3c0.4,0.9,0.9,1.7,1.5,2.5c-0.8-0.3-1.6-0.4-2.4-0.4c-1.3-0.1-2.5,0.3-3.6,1
		c-0.6,0.5-1,1.3-1,2.1c0,0.7,0.3,1.4,0.8,1.9c1.1,0.8,2.5,1.2,3.9,1.1c1.5,0,3-0.3,4.4-0.8l-0.2-1.8c-1.3,0.6-2.8,0.9-4.2,0.9
		c-1.9,0-2.9-0.5-2.9-1.4c0-1,1.1-1.6,3-1.6c0.7,0,1.5,0.1,2.2,0.3c0.4,0.1,0.7,0.3,1,0.6l1.6-0.7c-0.5-0.7-1.1-1.6-1.5-2.2
		c-0.1-0.3-0.5-0.8-1-1.8c1.2-0.2,1.8-0.4,2.1-0.4c0.5-0.1,0.6-0.1,1-0.2l-0.2-1.7c-1.1,0.4-2.3,0.6-3.4,0.8
		c-0.3-0.7-0.6-1.5-0.8-2.2l-1.8,0.2c0.1,0.1,0.7,1.6,0.9,2.2c-0.9,0.1-2.7,0.2-3.8,0.2c-0.5,0-0.9,0-1.4-0.1L165,10722z
		 M183.1,10724c0.3-0.7,0.9-2.2,1.7-4.2c0.2-0.6,0.4-1.1,0.7-1.6l-1.9-0.5c-0.1,0.6-0.1,0.6-3.3,9.5c-0.4,1.2-0.6,1.6-0.8,2l1.8,0.6
		c0.3-1.1,0.7-2.2,1.2-3.2c0.7-1.3,1.5-2,2.2-2c0.3,0,0.5,0.1,0.6,0.3c0.1,0.3,0.1,0.5,0.1,0.8c0,0.1,0,0.5,0,1v0.1
		c0,0.5,0.1,1.1,0.2,1.6c0.4,0.8,1.3,1.3,2.2,1.2c2.1,0,3.5-1.5,4.1-4.4c-0.6-0.2-1.1-0.6-1.5-1.1c-0.1,0.8-0.3,1.5-0.5,2.2
		c-0.4,1-1,1.5-1.8,1.5c-0.3,0-0.5-0.1-0.7-0.2c-0.3-0.2-0.3-0.5-0.3-1.5c0-1.6-0.1-2.1-0.4-2.6c-0.4-0.5-0.9-0.8-1.6-0.8
		c-0.7,0-1.3,0.3-1.8,0.8L183.1,10724L183.1,10724z M202.3,10720.2c0.5,0,1,0.2,1.4,0.4c1.1,0.6,1.8,1.8,1.7,3.1
		c0,1.4-0.7,2.8-1.9,3.5c-0.9,0.4-1.8,0.7-2.8,0.8c0.4,0.5,0.7,1,0.9,1.6c0.8-0.1,1.5-0.3,2.2-0.6c2.1-0.8,3.5-2.9,3.4-5.2
		c0-3.1-2.2-5.2-5.5-5.2c-1.8-0.1-3.6,0.6-4.8,2c-1,1.1-1.6,2.6-1.5,4.1c0,2.3,1.1,3.9,2.7,3.9c1.1,0,2-0.8,2.8-2.6
		C201.6,10724.1,202.1,10722.2,202.3,10720.2L202.3,10720.2z M200.6,10720.3c-0.2,1.6-0.6,3.2-1.2,4.7c-0.5,1.2-1,1.8-1.4,1.8
		c-0.6,0-1.1-0.9-1.1-2.1c0-1.5,0.7-2.9,1.9-3.8C199.3,10720.6,200,10720.3,200.6,10720.3L200.6,10720.3z M210.4,10726.9l1.9-0.2
		c0,0.3,0.1,0.6,0.4,0.8c0.2,0.2,0.5,0.3,0.8,0.3c0.4,0,0.8-0.2,1-0.5c0.4-0.7,0.6-1.5,0.5-2.3c-0.4,0.5-1.1,0.9-1.8,0.8
		c-0.8,0-1.5-0.3-2-0.9c-0.6-0.6-0.9-1.5-0.9-2.4c0-0.9,0.3-1.8,0.9-2.5c1.3-1.3,3.4-1.2,4.6,0.1c0.1,0.1,0.1,0.1,0.2,0.2
		c0.8,1.1,1.1,2.5,1,3.9c0.1,1.4-0.2,2.8-1,4c-0.6,0.8-1.6,1.2-2.7,1.2c-0.7,0-1.4-0.2-1.9-0.6
		C210.8,10728.3,210.5,10727.6,210.4,10726.9L210.4,10726.9z M214.8,10722.7c0-0.5-0.1-1-0.4-1.4c-0.2-0.3-0.6-0.5-1-0.5
		c-0.3,0-0.7,0.2-0.9,0.4c-0.3,0.4-0.4,0.9-0.4,1.4c0,0.5,0.1,1,0.4,1.4c0.2,0.3,0.6,0.5,1,0.5c0.4,0,0.7-0.2,0.9-0.4
		C214.7,10723.6,214.8,10723.2,214.8,10722.7L214.8,10722.7z M219.7,10726.9l1.9-0.2c0,0.3,0.1,0.6,0.4,0.8c0.2,0.2,0.5,0.3,0.8,0.3
		c0.4,0,0.8-0.2,1-0.5c0.4-0.7,0.6-1.5,0.5-2.3c-0.4,0.5-1.1,0.9-1.8,0.8c-0.8,0-1.5-0.3-2-0.9c-0.6-0.6-0.9-1.5-0.9-2.4
		c0-0.9,0.3-1.8,0.9-2.5c1.3-1.3,3.4-1.2,4.6,0.1c0.1,0.1,0.1,0.1,0.2,0.2c0.8,1.1,1.1,2.5,1,3.9c0.1,1.4-0.2,2.8-1,4
		c-0.6,0.8-1.6,1.2-2.7,1.2c-0.7,0-1.4-0.2-1.9-0.6C220.1,10728.3,219.8,10727.6,219.7,10726.9L219.7,10726.9z M224.1,10722.7
		c0-0.5-0.1-1-0.4-1.4c-0.2-0.3-0.6-0.5-1-0.5c-0.3,0-0.7,0.2-0.9,0.4c-0.3,0.4-0.4,0.9-0.4,1.4c0,0.5,0.1,1,0.4,1.4
		c0.2,0.3,0.6,0.5,1,0.5c0.4,0,0.7-0.2,0.9-0.4C224,10723.6,224.1,10723.2,224.1,10722.7L224.1,10722.7z M229,10721.7
		c-0.1-0.7,0.2-1.4,0.6-2c0.4-0.4,1-0.7,1.6-0.6c0.6,0,1.2,0.2,1.6,0.6c0.4,0.6,0.6,1.3,0.6,2c0.1,0.7-0.2,1.4-0.6,2
		c-0.4,0.4-1,0.7-1.6,0.6c-0.6,0-1.2-0.2-1.6-0.6C229.2,10723.1,229,10722.4,229,10721.7L229,10721.7z M230.5,10721.7
		c0,0.5,0,0.9,0.2,1.3c0.1,0.2,0.3,0.3,0.5,0.2c0.2,0,0.4-0.1,0.5-0.2c0.2-0.4,0.3-0.9,0.2-1.3c0-0.4,0-0.9-0.2-1.3
		c-0.2-0.3-0.5-0.3-0.8-0.2c-0.1,0-0.1,0.1-0.1,0.1C230.6,10720.8,230.5,10721.2,230.5,10721.7L230.5,10721.7z M232.7,10729.6h-1.4
		l5.3-10.6h1.4L232.7,10729.6z M235.8,10727c-0.1-0.7,0.2-1.4,0.6-2c0.9-0.9,2.3-0.9,3.2,0c0.4,0.6,0.6,1.3,0.6,2
		c0.1,0.7-0.2,1.4-0.6,2c-0.4,0.4-1,0.7-1.6,0.6c-0.6,0-1.2-0.2-1.6-0.6C236,10728.4,235.7,10727.7,235.8,10727L235.8,10727z
		 M237.3,10727c0,0.4,0,0.9,0.2,1.3c0.1,0.2,0.3,0.3,0.5,0.3c0.2,0,0.4-0.1,0.5-0.2c0.2-0.4,0.3-0.9,0.2-1.3c0-0.4,0-0.9-0.2-1.3
		c-0.1-0.2-0.3-0.3-0.5-0.2c-0.2,0-0.4,0.1-0.5,0.2C237.3,10726.1,237.3,10726.5,237.3,10727L237.3,10727z M243.4,10729.2v-10h2v3.9
		h4v-3.9h2v10h-2v-4.4h-4v4.4H243.4z M254.7,10724.3c0-0.9,0.1-1.8,0.5-2.6c0.2-0.5,0.5-1,0.9-1.4c0.4-0.4,0.8-0.7,1.3-0.9
		c0.7-0.3,1.4-0.4,2.2-0.4c1.3-0.1,2.6,0.4,3.5,1.4c0.9,1,1.4,2.4,1.3,3.8c0.1,1.4-0.4,2.8-1.3,3.8c-0.9,0.9-2.2,1.4-3.5,1.4
		c-1.3,0.1-2.6-0.4-3.6-1.4C255.1,10727,254.6,10725.7,254.7,10724.3L254.7,10724.3z M256.8,10724.2c-0.1,0.9,0.2,1.8,0.8,2.6
		c1,1.1,2.7,1.2,3.8,0.2c0.1-0.1,0.1-0.1,0.2-0.2c0.6-0.7,0.8-1.7,0.8-2.6c0.1-0.9-0.2-1.8-0.8-2.6c-1.1-1.1-2.9-1.1-4-0.1
		c0,0,0,0-0.1,0.1C257,10722.4,256.7,10723.3,256.8,10724.2L256.8,10724.2z M267.5,10719.2h2v5.4c0,0.6,0,1.1,0.1,1.7
		c0.1,0.4,0.3,0.7,0.6,1c0.4,0.3,0.9,0.4,1.3,0.4c0.5,0,0.9-0.1,1.3-0.4c0.3-0.2,0.5-0.5,0.5-0.9c0.1-0.6,0.1-1.1,0.1-1.7v-5.5h2
		v5.3c0,0.9,0,1.7-0.2,2.6c-0.1,0.5-0.3,0.9-0.6,1.3c-0.3,0.4-0.7,0.6-1.2,0.8c-0.6,0.2-1.3,0.3-1.9,0.3c-0.7,0-1.5-0.1-2.2-0.3
		c-0.5-0.2-0.9-0.5-1.2-0.9c-0.3-0.3-0.5-0.7-0.6-1.1c-0.2-0.8-0.2-1.7-0.2-2.5L267.5,10719.2z M278.7,10726l2-0.2
		c0.1,0.6,0.3,1.1,0.7,1.4c0.4,0.3,0.9,0.5,1.5,0.5c0.5,0,1-0.1,1.5-0.4c0.3-0.2,0.5-0.6,0.5-1c0-0.2-0.1-0.4-0.2-0.6
		c-0.2-0.2-0.5-0.4-0.7-0.4c-0.2-0.1-0.8-0.2-1.6-0.4c-0.8-0.2-1.6-0.5-2.3-1c-0.6-0.5-0.9-1.2-0.9-2c0-0.5,0.2-1,0.4-1.4
		c0.3-0.5,0.7-0.8,1.2-1c0.6-0.2,1.3-0.4,2-0.3c1-0.1,2,0.2,2.8,0.8c0.6,0.6,1,1.4,1,2.2l-2,0.1c0-0.4-0.2-0.8-0.6-1.1
		c-0.4-0.3-0.8-0.4-1.3-0.3c-0.5,0-1,0.1-1.4,0.4c-0.2,0.1-0.3,0.4-0.3,0.6c0,0.2,0.1,0.5,0.3,0.6c0.6,0.3,1.2,0.6,1.9,0.7
		c0.8,0.2,1.5,0.4,2.2,0.7c0.5,0.2,0.8,0.6,1.1,1c0.3,0.5,0.4,1,0.4,1.6c0,0.6-0.2,1.1-0.5,1.6c-0.3,0.5-0.8,0.9-1.4,1.1
		c-0.7,0.3-1.4,0.4-2.2,0.4c-1,0.1-2.1-0.2-2.9-0.9C279.1,10727.9,278.7,10726.9,278.7,10726L278.7,10726z M290,10729.2v-10h7.4v1.7
		h-5.4v2.2h5v1.7h-5v2.7h5.6v1.7H290z M301.4,10724.7c0.2,0,0.4,0,0.5,0.1c0.6,0.1,1.1,0.2,1.9,0.3c0,0.4-0.1,0.8-0.1,1.2
		c0,2.3,1.4,3.5,3.9,3.5c1.1,0.1,2.2-0.3,3.2-0.9c0.8-0.6,1.3-1.6,1.3-2.6c0-0.7-0.2-1.4-0.6-2.1c-0.2-0.3-0.4-0.6-0.7-0.9
		c-0.6,0.2-1.1,0.3-1.7,0.3c0.7,0.6,1.2,1.4,1.3,2.4c0,1.4-1,2.2-2.8,2.2c-0.6,0-1.2-0.1-1.7-0.5c-0.4-0.4-0.6-0.9-0.5-1.4
		c0-0.3,0-0.7,0.1-1c0.5,0,0.7,0,0.9,0c0.7,0,1.4,0,2.1-0.1c0.1,0,0.3,0,0.4,0l0-1.6c-0.9,0.2-1.8,0.3-2.7,0.3c-0.2,0-0.3,0-0.7,0
		c0.1-0.7,0.1-1,0.3-2c0.6,0,0.7,0,0.9,0c0.5,0,1,0,2-0.1c0.3,0,0.4,0,0.6-0.1l0.1-1.6c-1,0.2-2.1,0.3-3.2,0.3
		c0.1-0.8,0.2-1.6,0.4-2.4l-1.9-0.2c0,0,0,0.1,0,0.1c0,0.8-0.1,1.6-0.3,2.3c-0.9-0.1-1.7-0.2-2.5-0.5l-0.1,1.5
		c0.2,0,0.3,0.1,0.5,0.1c0.7,0.2,1.3,0.3,2,0.3c-0.1,0.5-0.2,1.5-0.3,2c-0.8-0.1-1.7-0.2-2.5-0.5L301.4,10724.7z M117,10750.8
		c0.3,0,0.6-0.1,0.9-0.1c0.1,0,0.3,0,0.5,0c0.1,0,0.3,0,0.5,0v4.3c0,0.5,0,1-0.1,1.5h1.5c-0.1-0.5-0.1-1-0.1-1.5v-4.4
		c0.4,0,0.5-0.1,0.8-0.1c0,0.2,0.1,0.3,0.1,0.6l0.9-0.3c0,0.3,0,0.6-0.1,0.9h1.4v-1.5h4.6v1.5h1.5c0-0.3-0.1-0.7-0.1-1v-0.8
		c0-0.3,0-0.7,0-1c-0.4,0.1-0.9,0.1-1.3,0.1h-4.8c-0.4,0-0.8,0-1.3,0c0,0.3,0.1,0.7,0.1,1v0.3c-0.2-0.8-0.5-1.6-0.8-2.3l-1,0.3
		c0.2,0.4,0.3,0.7,0.4,1.1c-0.4,0-0.7,0.1-1.4,0.1c0.6-0.7,1.4-2,1.9-2.7c0.2-0.4,0.4-0.7,0.7-1.1l-1.3-0.7
		c-0.3,0.8-0.7,1.6-1.3,2.3c-0.2-0.3-0.3-0.3-0.5-0.7c0.5-0.7,0.9-1.4,1.2-2.2c0.1-0.2,0.2-0.4,0.3-0.5l-1.3-0.5
		c-0.2,0.8-0.6,1.6-1,2.3l-0.5-0.6l-0.7,1.2c0.7,0.6,1.3,1.4,1.8,2.1c-0.3,0.5-0.3,0.5-0.7,1h-0.5c-0.2,0-0.4,0-0.6,0L117,10750.8z
		 M124.9,10745.9v1h-1.2c-0.5,0-1,0-1.4-0.1v1.4c0.5-0.1,0.9-0.1,1.4-0.1h4.1c0.5,0,0.9,0,1.4,0.1v-1.4c-0.5,0.1-1,0.1-1.4,0.1h-1.4
		v-1h1.8c0.5,0,1,0,1.5,0.1v-1.4c-0.5,0.1-1,0.1-1.6,0.1h-1.7v-0.1c0-0.4,0-0.7,0.1-1.1h-1.6c0.1,0.3,0.1,0.7,0.1,1v0.1h-1.3
		c-0.5,0-1,0-1.6-0.1v1.4c0.5-0.1,1-0.1,1.5-0.1L124.9,10745.9z M117.4,10751.3c0,1.3-0.2,2.6-0.5,3.8l1.2,0.6
		c0.4-1.4,0.5-2.8,0.6-4.3L117.4,10751.3z M120.7,10751.5c0.2,1,0.3,2.1,0.4,3.1l1.1-0.3c-0.1-1-0.2-2.1-0.4-3.1L120.7,10751.5z
		 M126,10750.7c0.1,0.3,0.1,0.7,0.1,1v3.2c0,0.9,0.4,1.2,1.7,1.2c1.1,0,1.6-0.2,1.8-0.7c0.2-0.7,0.3-1.4,0.3-2.1
		c-0.5-0.1-0.9-0.2-1.3-0.5c0.1,0.6,0,1.2-0.2,1.8c-0.2,0.1-0.3,0.2-0.5,0.1c-0.3,0-0.4-0.1-0.4-0.3v-2.7c0-0.3,0-0.7,0.1-1H126z
		 M123.9,10750.7c0,0.2,0,0.4,0,0.6c0.1,0.9-0.2,1.7-0.7,2.4c-0.5,0.6-1.3,1-2,1.2c0.4,0.3,0.8,0.8,1,1.3c0.9-0.3,1.7-0.9,2.3-1.6
		c0.6-0.9,0.9-1.9,1-2.9c0-0.7,0-0.7,0.1-1L123.9,10750.7z M141.9,10747.7c-0.6,1.5-1.5,2.8-2.5,4c-0.7-0.5-1.1-0.8-1.8-1.3
		l-1.2,1.1c0.9,0.6,1.8,1.3,2.7,2.1c0.8,0.7,1.5,1.4,2.1,2.2l1.2-1.2c-0.6-0.7-1.2-1.3-1.9-1.9c0.6-0.7,1.1-1.5,1.6-2.4
		c0.5-0.8,1-1.7,1.3-2.4c0.1-0.2,0.2-0.3,0.2-0.4l0.1-0.1c0-0.1,0.1-0.2,0.2-0.3l-0.9-1.1c-0.5,0.1-1.1,0.1-1.6,0.1h-3
		c0.3-0.6,0.3-0.7,0.3-0.8c0.1-0.4,0.3-0.8,0.5-1.1l-1.8-0.5c-0.2,1.1-0.6,2.2-1.2,3.2c-0.9,1.6-2.1,3.1-3.5,4.3
		c0.5,0.3,1,0.6,1.4,1c1.4-1.4,2.6-2.9,3.6-4.7L141.9,10747.7z M160.3,10755.5c-1-1.8-2.1-3.6-3.4-5.2l-1.4,0.8
		c0.7,0.8,1.2,1.6,1.8,2.5c-1.7,0.3-3.4,0.4-5.1,0.5c1-1.7,1.9-3.5,2.6-5.4c0.1-0.3,0.2-0.4,0.3-0.6l-1.8-0.5
		c-0.2,0.8-0.5,1.6-0.8,2.4c-0.6,1.4-1.3,2.8-2.1,4.1c-0.4,0-0.5,0-0.8,0c-0.4,0-0.7,0-1,0l0.3,1.8c0.5-0.1,1.1-0.1,1.6-0.2
		c2.5-0.1,5.1-0.4,7.6-0.8c0.3,0.5,0.4,0.7,0.7,1.5L160.3,10755.5z M152,10743.8c-0.1,0.6-0.4,1.2-0.7,1.7c-0.9,1.4-2,2.7-3.5,3.6
		c0.4,0.4,0.8,0.9,1.1,1.5c0.8-0.6,1.5-1.3,2.2-2c0.9-1,1.7-2.2,2.3-3.4c0-0.1,0.1-0.2,0.2-0.4c0,0,0-0.1,0.1-0.1
		c0-0.1,0.1-0.1,0.1-0.2L152,10743.8z M155.2,10744.4l0.1,0.2c0.1,0.1,0.1,0.2,0.1,0.3c0.1,0.2,0.1,0.3,0.2,0.3
		c0.4,0.7,0.8,1.4,1.3,2.1c0.9,1.2,2,2.3,3.2,3.2c0.3-0.6,0.6-1.1,1-1.5c-0.5-0.3-0.9-0.6-1.3-1c-0.6-0.5-1.1-1-1.5-1.6
		c-0.7-0.8-1.2-1.8-1.6-2.8L155.2,10744.4z M167.8,10751.5c-0.5,0-1,0-1.5-0.1v1.3c0.5-0.1,1-0.1,1.5-0.1c-0.1,1-0.7,1.9-1.5,2.5
		c0.4,0.3,0.8,0.6,1.1,1c1-0.9,1.6-2.1,1.7-3.5h1.6v2.1c0,0.4,0,0.8-0.1,1.2h1.5c-0.1-0.4-0.1-0.8-0.1-1.2v-2.1h0.2
		c0.5,0,1,0,1.4,0.1v-1.3c-0.5,0-1,0.1-1.4,0.1H172v-1.3c0.5,0,1,0,1.5,0.1v-1.3c-0.5,0.1-1,0.1-1.5,0.1H168c-0.5,0-0.9,0-1.4-0.1
		v1.3c0.5,0,0.9-0.1,1.4-0.1c0,0.6,0,0.8,0,1.3L167.8,10751.5z M170.7,10750.2v1.3h-1.5c0-0.7,0-0.7,0-1.3H170.7z M165.6,10748.4
		h2.6c0.5,0,0.9,0,1.3,0c0-0.4,0-0.6,0-1.3v-2.2c0-0.5,0-0.9,0-1.3c-0.5,0-1,0.1-1.4,0.1h-2.5c-0.5,0-1,0-1.4-0.1
		c0,0.5,0.1,1,0.1,1.6v9.2c0,0.6,0,1.2-0.1,1.7h1.6c-0.1-0.6-0.1-1.1-0.1-1.7L165.6,10748.4z M165.6,10744.9h2.5v0.8h-2.5
		L165.6,10744.9z M165.6,10746.6h2.5v0.8h-2.5L165.6,10746.6z M175.9,10745.3c0-0.7,0-1,0.1-1.6c-0.5,0-1,0.1-1.4,0.1h-2.7
		c-0.5,0-1,0-1.4-0.1c0,0.4,0,0.8,0,1.3v2.2c0,0.6,0,0.9,0,1.3c0.3,0,0.8,0,1.3,0h2.7v6c0,0.3-0.1,0.4-0.5,0.4c-0.4,0-0.9,0-1.3-0.1
		c0.2,0.5,0.3,1,0.4,1.5c0.5,0,0.7,0,0.9,0c1.6,0,2-0.3,2-1.6L175.9,10745.3z M171.8,10744.9h2.6v0.8h-2.6V10744.9z M171.8,10746.6
		h2.6v0.8h-2.6V10746.6z M189.8,10744c-0.4,0-0.8,0.1-1.2,0.1h-6.2c-0.6,0-1.2,0-1.7-0.1v1.6c0.6-0.1,1.1-0.1,1.7-0.1h5.5
		c-0.7,0.5-1.4,1-2.2,1.4c-0.8-0.5-1.1-0.7-2.1-1.2l-1,1c1.1,0.6,2.1,1.3,3.1,2h-4.3c-0.6,0-1.2,0-1.8-0.1v1.6
		c0.6-0.1,1.2-0.1,1.8-0.1h3.7v4.4c0,0.3-0.1,0.4-0.6,0.4c-0.7,0-1.4,0-2-0.1c0.2,0.5,0.3,1,0.4,1.6c0.4,0,1.1,0,1.6,0
		c1.7,0,2.2-0.3,2.2-1.5v-4.8h3.2c-0.6,0.7-1.3,1.4-2,1.9c0.5,0.3,0.9,0.6,1.2,1c0.8-0.7,1.6-1.5,2.2-2.3c0.6-0.8,0.9-1.2,0.9-1.2
		l-0.9-0.9c-0.5,0.1-1,0.1-1.6,0.1h-2.5l0.4-0.4c-0.3-0.2-0.4-0.2-0.7-0.4c0.7-0.4,1.3-0.8,2.2-1.4c0.6-0.4,1.1-0.9,1.6-1.3
		L189.8,10744z M200.5,10754.1c-0.9-0.4-1.7-1.1-2.1-1.9c0.2-0.7,0.3-1,0.4-1.3c0.1-0.6,0.1-0.6,0.2-0.8l-1.6-0.3
		c0,0.5-0.1,1-0.3,1.5c-0.4,1.5-1.2,2.9-2.4,4c0.5,0.3,0.9,0.7,1.2,1.1c0.8-0.8,1.4-1.7,1.9-2.7c1.1,1.7,3,2.4,6.3,2.4
		c1.1,0,1.8,0,3,0c0-0.6,0.2-1.1,0.4-1.6c-1.4,0.1-2.4,0.2-3.2,0.2c-0.8,0-1.5,0-2.3-0.1v-2.4h2.6c0.5,0,0.9,0,1.4,0.1v-1.5
		c-0.5,0.1-0.9,0.1-1.4,0.1h-2.6v-1.8h1.8c0.5,0,1,0,1.4,0.1v-1.5c-0.5,0.1-1,0.1-1.4,0.1h-5.4c-0.5,0-0.9,0-1.4-0.1v1.5
		c0.5-0.1,0.9-0.1,1.4-0.1h2.1L200.5,10754.1z M200.2,10744.9h-3.7c-0.6,0-1,0-1.5-0.1c0,0.3,0.1,0.7,0.1,1v1.1c0,0.4,0,0.7-0.1,1.1
		h1.6v-1.8h9v1.8h1.5c0-0.4-0.1-0.7-0.1-1.1v-1.1c0-0.3,0-0.7,0.1-1c-0.5,0-1,0.1-1.6,0.1h-3.8v-0.5c0-0.3,0-0.6,0.1-0.9h-1.7
		c0.1,0.3,0.1,0.6,0.1,0.9V10744.9z M210.8,10747.3c0.8-0.1,1.5-0.2,2.3-0.3c2.7-0.2,3.6-0.3,4.7-0.4c-0.7,0.3-1.4,0.8-1.9,1.4
		c-0.8,0.9-1.3,2.1-1.3,3.3c0,1.4,0.8,2.7,2,3.4c1,0.5,2.1,0.8,3.3,0.9c0.3,0,0.3,0,0.5,0.1l0.3-1.9c-0.1,0-0.3,0-0.3,0
		c-0.7,0-1.4-0.2-2.1-0.4c-1.1-0.2-1.9-1.2-1.9-2.3c0-1.4,1.1-2.8,2.8-3.7c0.9-0.5,1.8-0.7,2.8-0.8c0.1,0,0.2,0,0.3,0l-0.1-1.8
		c-0.5,0.1-1,0.1-1.4,0.1c-3.7,0.2-6.1,0.3-7.2,0.4c-2.1,0.1-2.1,0.1-2.3,0.1c-0.1,0-0.2,0-0.5,0L210.8,10747.3z M219.3,10748.6
		c0.6,0.6,1.1,1.3,1.5,2.1l1-0.5c-0.4-0.8-0.9-1.4-1.5-2.1L219.3,10748.6z M223.4,10749.3c-0.4-0.7-0.9-1.4-1.5-2l-0.9,0.5
		c0.6,0.6,1,1.3,1.4,2L223.4,10749.3z M234.2,10747.8v-0.9c1.1,0,1.4,0,1.7,0c1.2,0,1.8,0,2.4,0.1l0-1.6c-0.5,0.1-1.6,0.1-4,0.1
		c0-0.6,0-1.1,0.1-1.7l-1.8,0c0.1,0.6,0.1,1.1,0.1,1.7c-0.7,0-0.7,0-1.2,0c-1.1,0-1.3,0-2.2,0.1c-1.8,0.1-2,0.1-2.4,0.1
		c-0.2,0-0.5,0-0.7,0l0.1,1.7c0.4-0.1,0.4-0.1,2.5-0.2c0.6,0,1.9-0.1,3.9-0.1c0,0.4,0,1.2,0,1.2c0,0.1,0,0.1,0,0.2
		c-0.4-0.3-0.9-0.4-1.5-0.4c-1.4-0.1-2.7,0.9-2.8,2.4c0,0.1,0,0.1,0,0.2c0,0.8,0.3,1.5,1,1.9c0.5,0.3,1,0.5,1.6,0.5
		c0.8,0.1,1.6-0.3,2.1-1c-0.2,0.9-0.8,1.7-1.6,2c-0.7,0.4-1.5,0.7-2.4,0.8c0.4,0.5,0.8,1,1,1.6c0.9-0.3,1.7-0.6,2.5-1.1
		c1.3-0.8,2.1-2.2,2.1-3.8c0-0.7-0.1-1.4-0.4-2c0-0.2,0-0.3,0-0.3L234.2,10747.8z M232.6,10750.1c0,0.7-0.6,1.3-1.3,1.3
		c0,0-0.1,0-0.1,0c-0.6,0-1.1-0.4-1.2-1c0,0,0-0.1,0-0.1c0.1-0.7,0.6-1.2,1.3-1.1C232.1,10749.1,232.6,10749.5,232.6,10750.1
		L232.6,10750.1z M242.4,10751.6c-1.3,0-2.4,1.1-2.4,2.4c0,1.3,1.1,2.4,2.4,2.4c1.3,0,2.4-1.1,2.4-2.4c0,0,0,0,0,0
		C244.7,10752.6,243.7,10751.6,242.4,10751.6L242.4,10751.6z M242.4,10752.7c0.7,0,1.3,0.6,1.3,1.3c0,0.7-0.6,1.3-1.3,1.3
		c-0.7,0-1.3-0.6-1.3-1.3c0,0,0,0,0,0C241.1,10753.2,241.7,10752.7,242.4,10752.7L242.4,10752.7z"/>
	<path id="パス_72475" d="M55.8,10687.2l4.8,1.5c-0.5,2.3-1.8,4.4-3.6,5.9c-1.9,1.3-4.2,2-6.5,1.9c-3,0.1-5.9-1.1-8-3.3
		c-2.1-2.2-3.1-5.2-3.1-9.1c0-4.1,1-7.2,3.1-9.4c2.1-2.3,5.1-3.5,8.3-3.4c2.7-0.1,5.3,0.8,7.3,2.6c1.2,1.2,2.1,2.8,2.5,4.5l-4.9,1.2
		c-0.2-1.2-0.9-2.2-1.8-3c-0.9-0.7-2.1-1.1-3.3-1.1c-1.7-0.1-3.3,0.7-4.4,1.9c-1.1,1.3-1.7,3.4-1.7,6.3c0,3.1,0.6,5.3,1.7,6.6
		c1.1,1.3,2.7,2,4.3,2c1.2,0,2.4-0.4,3.4-1.2C54.9,10690.1,55.6,10688.7,55.8,10687.2z M67.6,10684.1c-0.1-2.1,0.3-4.3,1.1-6.2
		c0.6-1.2,1.3-2.4,2.3-3.3c0.9-0.9,2-1.7,3.2-2.2c1.7-0.7,3.5-1,5.2-1c3.2-0.1,6.3,1.1,8.6,3.3c2.2,2.2,3.2,5.3,3.2,9.3
		c0,3.9-1.1,7-3.2,9.2c-2.3,2.3-5.4,3.5-8.6,3.3c-3.2,0.2-6.3-1-8.6-3.3C68.6,10691,67.6,10688,67.6,10684.1z M72.6,10684
		c0,2.8,0.6,4.8,1.9,6.3c1.2,1.4,3,2.2,4.8,2.1c1.8,0.1,3.6-0.7,4.8-2.1c1.3-1.4,1.9-3.5,1.9-6.4c0-2.8-0.6-4.9-1.8-6.2
		c-1.2-1.4-3-2.1-4.9-2.1c-1.9-0.1-3.7,0.7-4.9,2.1C73.3,10679.1,72.6,10681.2,72.6,10684L72.6,10684z M98.7,10696.1v-24.3h7.4
		l4.4,16.6l4.4-16.6h7.4v24.3h-4.6v-19.2l-4.8,19.2h-4.7l-4.8-19.2v19.2H98.7z M130.7,10696.1v-24.3h4.9v24.3H130.7z M144,10696.1
		v-24.3h4.8l10,16.3v-16.3h4.6v24.3h-4.9l-9.8-15.9v15.9H144z M183.6,10687.2v-4.1h10.6v9.7c-1.3,1.2-2.8,2.1-4.5,2.6
		c-1.9,0.7-3.9,1.1-5.9,1.1c-2.3,0.1-4.6-0.5-6.7-1.6c-1.9-1-3.4-2.6-4.3-4.6c-1-2-1.4-4.2-1.4-6.5c0-2.4,0.5-4.7,1.6-6.8
		c1-2,2.7-3.5,4.7-4.5c1.8-0.9,3.8-1.3,5.8-1.2c2.5-0.1,5,0.5,7.1,1.9c1.7,1.3,2.9,3.2,3.3,5.3l-4.9,0.9c-0.3-1.1-1-2.1-1.9-2.8
		c-1-0.7-2.3-1.1-3.5-1c-1.9-0.1-3.8,0.7-5.1,2c-1.3,1.4-1.9,3.4-1.9,6.1c0,2.9,0.6,5.1,1.9,6.5c1.3,1.4,3.1,2.2,5,2.2
		c1.1,0,2.1-0.2,3.1-0.6c1-0.4,1.9-0.9,2.7-1.5v-3.1H183.6z M214.4,10688.2l4.8-0.5c0.2,1.3,0.8,2.6,1.8,3.5c1,0.8,2.3,1.2,3.6,1.1
		c1.3,0.1,2.5-0.3,3.6-1c0.7-0.6,1.2-1.4,1.2-2.3c0-0.5-0.2-1.1-0.5-1.5c-0.5-0.5-1.1-0.9-1.8-1.1c-0.6-0.2-1.9-0.6-3.9-1.1
		c-2-0.4-3.9-1.2-5.5-2.4c-1.4-1.2-2.3-3-2.2-4.9c0-1.2,0.4-2.4,1.1-3.5c0.7-1.1,1.8-2,3-2.5c1.5-0.6,3.2-0.9,4.8-0.8
		c3.1,0,5.4,0.7,6.9,2c1.5,1.3,2.4,3.3,2.4,5.4l-4.9,0.2c-0.1-1-0.6-2-1.4-2.7c-0.9-0.6-2-0.9-3.1-0.8c-1.2-0.1-2.4,0.2-3.4,0.9
		c-0.5,0.3-0.8,0.9-0.8,1.5c0,0.6,0.3,1.1,0.7,1.5c1.4,0.8,2.9,1.4,4.5,1.6c1.8,0.4,3.6,1,5.3,1.8c1.1,0.6,2,1.4,2.7,2.5
		c0.7,1.2,1,2.5,1,3.9c0,1.4-0.4,2.8-1.2,3.9c-0.8,1.2-1.9,2.2-3.3,2.7c-1.7,0.6-3.5,0.9-5.3,0.9c-3.1,0-5.4-0.7-7.1-2.1
		C215.6,10692.8,214.6,10690.6,214.4,10688.2L214.4,10688.2z M241.1,10684.1c-0.1-2.1,0.3-4.3,1.1-6.2c0.6-1.2,1.3-2.4,2.3-3.3
		c0.9-0.9,2-1.7,3.1-2.2c1.7-0.7,3.5-1,5.2-1c3.2-0.1,6.3,1.1,8.6,3.3c2.2,2.2,3.2,5.3,3.2,9.3c0,3.9-1.1,7-3.2,9.2
		c-2.3,2.3-5.4,3.5-8.6,3.3c-3.2,0.2-6.3-1-8.6-3.3C242.2,10691,241.1,10688,241.1,10684.1L241.1,10684.1z M246.1,10684
		c0,2.8,0.6,4.8,1.9,6.3c1.2,1.4,3,2.2,4.8,2.1c1.8,0.1,3.6-0.7,4.8-2.1c1.3-1.4,1.9-3.5,1.9-6.3c0-2.8-0.6-4.9-1.8-6.2
		c-1.2-1.4-3-2.1-4.9-2.1c-1.9-0.1-3.7,0.7-4.9,2.1C246.8,10679.1,246.2,10681.2,246.1,10684L246.1,10684z M271.3,10684.1
		c-0.1-2.1,0.3-4.3,1.1-6.2c0.6-1.2,1.3-2.4,2.3-3.3c0.9-0.9,2-1.7,3.1-2.2c1.7-0.7,3.5-1,5.2-1c3.2-0.1,6.3,1.1,8.6,3.3
		c2.2,2.2,3.2,5.3,3.2,9.3c0,3.9-1.1,7-3.2,9.2c-2.3,2.3-5.4,3.5-8.6,3.3c-3.2,0.2-6.3-1-8.6-3.3
		C272.3,10691,271.3,10688,271.3,10684.1L271.3,10684.1z M276.3,10684c0,2.8,0.6,4.8,1.9,6.3c1.2,1.4,3,2.2,4.9,2.1
		c1.8,0,3.6-0.7,4.8-2.1c1.3-1.4,1.9-3.5,1.9-6.4c0-2.8-0.6-4.9-1.8-6.2c-1.2-1.4-3-2.1-4.9-2.1c-1.9-0.1-3.7,0.7-4.9,2.1
		C277,10679.1,276.3,10681.2,276.3,10684L276.3,10684z M302.5,10696.1v-24.3h4.8l10,16.3v-16.3h4.6v24.3h-4.9l-9.8-15.9v15.9H302.5z
		"/>
</g>
</svg>
