<svg xmlns="http://www.w3.org/2000/svg" xmlns:xlink="http://www.w3.org/1999/xlink" width="817.677" height="52.124" viewBox="0 0 817.677 52.124">
  <defs>
    <clipPath id="clip-path">
      <rect id="長方形_8756" data-name="長方形 8756" width="817.677" height="52.124" fill="none"/>
    </clipPath>
  </defs>
  <g id="グループ_6692" data-name="グループ 6692" transform="translate(0 0)">
    <g id="グループ_6689" data-name="グループ 6689" transform="translate(0 0)" clip-path="url(#clip-path)">
      <path id="パス_71870" data-name="パス 71870" d="M67.313,23.89a12.674,12.674,0,0,0,2.361-4.419,19.958,19.958,0,0,0,.693-3.414l-.114.143-.235-.383a8.459,8.459,0,0,0-.5-.687c-.49-.628-.952-1.22-.77-1.733a7.724,7.724,0,0,1,1.544-2.283c.048-.056.1-.12.149-.179A14.4,14.4,0,0,0,67.6,3.863,8.806,8.806,0,0,0,60.651.4a8.045,8.045,0,0,0-3.217.645,10.712,10.712,0,0,0-2.989,2.022,10.947,10.947,0,0,0-2.022,2.888,26.2,26.2,0,0,0-1.333,4.114c-.064.267-.09.54-.137.812a1.449,1.449,0,0,1,.316-.066,1.687,1.687,0,0,1,.832.388c.087.064.175.126.263.178l.381.225-.336.287c-.071.061-.144.14-.221.221-.224.235-.438.459-.69.459a.439.439,0,0,1-.118-.016,2.372,2.372,0,0,1-.612-.295,14.443,14.443,0,0,0-.058,1.5h0a16.807,16.807,0,0,0,1.7,7.993,10.55,10.55,0,0,0,4.053,4.455,11.007,11.007,0,0,0,4.951.874,7.18,7.18,0,0,0,3.275-1.027,8.8,8.8,0,0,0,2.627-2.166M63.92,15.935l-.01.931-.053-.15c-.053,1.289-.147,2.576-.325,3.854A6.319,6.319,0,0,1,62.3,24.092a2.675,2.675,0,0,1-1.879.823,2.1,2.1,0,0,1-1.255-.38l-1.219-1.561a24.317,24.317,0,0,1-.508-6.16,5.5,5.5,0,0,1-2.448-2.842,7,7,0,0,1-.211-4.215c.087-.388.627-.683,1.063-.862a3.311,3.311,0,0,1,1.588-.276c.038-.957.079-1.6.127-1.909a6.206,6.206,0,0,1,1.236-3.275,2.623,2.623,0,0,1,1.884-.8,2.354,2.354,0,0,1,2.056,1.142,11.372,11.372,0,0,1,1.106,5.9v.206l.14.114h0l.462.378-.466.051c-.013,1.549-.026,3.1-.043,4.638l.534,1.47Z" transform="translate(22.509 0.176)" fill="#070203"/>
      <path id="パス_71871" data-name="パス 71871" d="M438.509,37.635l-.156-.286.139-.019-.061-.3a22.761,22.761,0,0,0-3.487.3,29,29,0,0,1-7.481,7.788,14.364,14.364,0,0,1-8.086,2.606,15.477,15.477,0,0,1-5.919-1.168c-.071.2-.143.387-.211.585l.573.345-.9.117a5.464,5.464,0,0,0-.563.121,3.9,3.9,0,0,1-.862.149.705.705,0,0,1-.517-.178,43.736,43.736,0,0,1-3.74-4.216c-.217-.271,0-.52.582-1.18l0,0a23.857,23.857,0,0,1-2.1-3.786,8.538,8.538,0,0,1-.557.693.351.351,0,0,1-.26.111,1.677,1.677,0,0,1-.664-.251c-.105-.055-.209-.11-.3-.147l-.309-.134,1.18-2.334.124.046c-.129-.381-.267-.758-.375-1.144a35.138,35.138,0,0,1-.765-5.3l-2.222-1.48.459-.251c.228-.124.456-.279.684-.432a6.917,6.917,0,0,1,1-.583c0-.39-.007-.78.009-1.168q0-11.157,4.911-17.4a11.51,11.51,0,0,1,9.517-4.606,16.925,16.925,0,0,1,8.683,2.264,25.238,25.238,0,0,1,7.538,7.444h3.466a19.985,19.985,0,0,0-.722-5.177Q435.6,3.284,435.1,2.141v0A55.31,55.31,0,0,0,427.321.72a78.188,78.188,0,0,0-8.892-.477,26,26,0,0,0-18.274,6.664l.237.156c.553.362.944.595,1.22.758.462.274.654.388.742.625.412,1.1.788,2.237,1.155,3.331l.488,1.45-.345.077c-.107.025-.243.059-.377.1a3.026,3.026,0,0,1-.66.136.3.3,0,0,1-.313-.2c-.592-1.369-1.154-2.793-1.932-4.762L399.826,7.2c-.16.149-.334.28-.491.433a25.236,25.236,0,0,0-2,2.244l.349.631-1.206.529c-.162.228-.339.445-.492.677.022.218.043.435.065.651l.12.905,3.1,1.253.182.287.009.013.422.666-.6-.225-.048.12q-.149.626-.3,1.255v.071l-.025.032-.11.477-.146-.14-.755.965.222-1.476-.036-.035.065-.162.087-.572.1.1.284-.708c.013-.053.025-.107.038-.159l-3.22-1.217.079-.248c-.029-.312-.058-.619-.088-.927a25.19,25.19,0,0,0-3.6,13.722,27.793,27.793,0,0,0,1.2,8.453,22.412,22.412,0,0,0,3.672,6.969,26.16,26.16,0,0,0,5.38,4.985l-.263-.631.58-.254q.288.626.581,1.256l.823.742a21.12,21.12,0,0,0,3.489,1.668l.167-.26.139.364a21.241,21.241,0,0,0,3.06.849,42.964,42.964,0,0,0,8.85.874,50.55,50.55,0,0,0,10.338-.894,16.175,16.175,0,0,0,6.53-2.686L436.925,46l.344-1.142q.76-4.226.874-4.835c.172-.768.3-1.545.4-2.323l-.036-.066ZM428.254,1.659c.038-.081.078-.163.114-.245l.191-.433.328.341q.186.195.381.386l.162.156-.092.2c-.142.312-.287.625-.433.939l-.209.449-.319-.377c-.032-.038-.074-.074-.114-.114-.153-.143-.345-.322-.292-.572a3.381,3.381,0,0,1,.284-.732M414.5,1.626l.071-.1a6,6,0,0,1,.435-.57c.14-.166.3-.121.466-.026l.058-.04-.016.066c.046.029.094.061.14.094l.539.358-1.126.764-.331,0h-.009l-.409,0h-.217l-.387,0Zm-3.184.09-1.268,1.128-.344-1.33Zm-4.94,7.878.41,1.765-1.308-.251ZM398.7,36.914l-.061-.54c-.01-.088-.025-.178-.039-.264a2.963,2.963,0,0,1-.049-.755.779.779,0,0,1,.351-.5,1.22,1.22,0,0,0,.118-.1l.27-.276.92,1.343Zm32.47,8.443-.007.016-.009,0-.129.165-.114-.062c-.1.04-.2.081-.3.124-.124.11-.25.218-.383.318a.4.4,0,0,1-.251.081.906.906,0,0,1-.207-.03l-1.162-.126,1-.492.656-.292.1-.088.18-.162,1.069-1.041.471.425Zm4.651,1.352-.1.168-.025.172-.487.065h-.01l-.315.042-.336.045.28-.465-.14-1.043.507.43.843-1.4-.283,1.919Zm1.9-6.709c-.24.267-.461.537-.651.771-.429.527-.664.816-.917.816a.412.412,0,0,1-.155-.035,9.508,9.508,0,0,1-1.684-1.017c-.183-.129-.368-.257-.553-.381l-.407-.271.413-.26a4.536,4.536,0,0,0,.38-.279,1.9,1.9,0,0,1,1.1-.543h0a4.3,4.3,0,0,1,1.495.384c.253.1.529.2.842.3l.465.152Z" transform="translate(173.975 0.101)" fill="#070203"/>
      <path id="パス_71872" data-name="パス 71872" d="M406.384,32.463l.121-.292c-.163-.075-.334-.136-.494-.217.092.131.2.258.289.388.027.04.056.079.084.12" transform="translate(180.27 14.188)" fill="#070203"/>
      <path id="パス_71873" data-name="パス 71873" d="M452.889,23.248l-.433-.01-.386.508-.669-.529-4.144-.085a14.959,14.959,0,0,1-1.789-.227q-.113-2.127-.113-2.7,0-.645.036-1.255c.052-.686.077-1.093.077-1.219,0-.23-.012-.572-.036-1.03l.036-4.835c0-.2-.012-.443-.036-.722v-.3l.075-1.3.038-1.674-.038-.611-.114-1.408a1.206,1.206,0,0,1,.838-1.106l6.7-1.066c.049-.26.055-.527.079-.791a6.294,6.294,0,0,1-.79.214.489.489,0,0,1-.078.007c-.309,0-.5-.362-.787-.891-.087-.163-.175-.326-.254-.453l-.192-.3.322-.156c.206-.1.412-.206.618-.313.035-.019.072-.036.107-.053-.423-.03-.848-.046-1.274-.04a7.585,7.585,0,0,0-1.75.191q-4.873.381-6.131.381-.8,0-1.845-.056t-2.075-.058q-2.246-.039-6.892-.533c-.354.025-.989.038-1.9.038a11.487,11.487,0,0,0-2.134.152,4.877,4.877,0,0,0-.227,1.256c0,.162.025.5.074,1.009q.136.2.295.464a7.293,7.293,0,0,0,1.305.241l.432.113c0-.029-.026-.049-.025-.082a.636.636,0,0,1,.322-.451c.033-.025.065-.048.092-.071l.241-.224.709.826-.149.137c.481.049.96.111,1.438.183l.133-1.336.461.4c.026.023.059.046.092.071.152.111.36.26.284.51-.052.163-.114.319-.17.478.209.039.419.074.618.094a2.686,2.686,0,0,1,.666.153,4.594,4.594,0,0,1,.306.914c.052.425.079.852.12,1.278l.162-.289.989.667-.83,1.467-.182-.157c.042.736.077,1.473.082,2.212V12.5l.039,3.314-.074,3.041a.379.379,0,0,0,.035-.032l.286-.274.144.235.013-.1c.026-.166.055-.335.078-.513l.061-.482.414.248c.157.094.322.175.474.248.407.2.731.355.749.677a2.849,2.849,0,0,1-.244,1.136c-.048.131-.1.263-.133.394l-.1.347L436.6,20.6c-.09-.039-.2-.074-.31-.111a1.763,1.763,0,0,1-.589-.28l-.1.257-.384-.449.009.1q0,6.281-.116,7.842l-.036.915c0,.63.009,1.421.022,2.289h.052l-.046.318c.025,1.412.065,3.082.124,5.081l-.133,2.54c.514-.1,1.04-.189,1.552-.269l.367-.058.2-.127.562-1.132v.77l.482-.31-.413.827a2.627,2.627,0,0,1,2.1,1.547,5.017,5.017,0,0,1-.012,2.474,6.434,6.434,0,0,0-.14,1.708c.029.222-.153.377-.312.487a1.714,1.714,0,0,1-.806.318.463.463,0,0,1-.214-.046c-.456-.24-1.225-.728-1.266-1.3-.087-1.253-.074-2.527-.061-3.76,0-.258,0-.517.007-.775l-2.131,1.376-.273,5.253a18.9,18.9,0,0,1-2.1.611l-4.764.838a19.036,19.036,0,0,0-.23,2.7,63.758,63.758,0,0,0,7.389-.3l.071-.006.029-.046c.051-.079.1-.168.142-.258a1.385,1.385,0,0,1,.57-.692c.276-.131.578.048.865.224.087.052.172.105.253.144l.3.142-.153.292c-.012.023-.023.053-.035.079l.627-.029q3.427,0,5.33.191l5.369.228a5.717,5.717,0,0,0,.647.038c.482.025,1,.038,1.561.038q.953,0,2.322-.038a8.579,8.579,0,0,0,.153-1.372,11.5,11.5,0,0,0-.115-1.178,2.517,2.517,0,0,0-.838-.344,3.948,3.948,0,0,1-.647-.191l-5.6-.875-.38-.228a18.185,18.185,0,0,1-.115-2.02v-11.8c0-.2-.025-.648-.077-1.333v-.5l.149-2.853a5.9,5.9,0,0,1,1.638-.267h1.067c.455,0,1.014-.013,1.674-.039a5.749,5.749,0,0,1,.609-.036l.267.036.342.039.976.01,1.518-1.466c.027-.051.055-.1.081-.153a.836.836,0,0,1,.264-.276l-.368-.539.5-.39.081.085a2.574,2.574,0,0,1,.218.253c.042.059.078.124.116.186l.449-.352-.256,1.021h0l-.149.595-.185-.271-.235.227c-.195.364-.383.731-.573,1.1l2.615.027.025-.422-.276-.234.283.092.136-2.332.529.97c.019.035.04.068.062.1a.815.815,0,0,1,.183.49.749.749,0,0,1-.24.458.822.822,0,0,0-.074.088l-.248.338.6.195.051-.142.019.014.459-3.7-1.983-.01ZM442.935,45.5l-.767.409-.11-2.788-.826.485.5-.97s.039-.074.074-.143l-.039-.064.014-.016-.4-.8,1.279.783.308.188-.293.172V42.8c.322.648.651,1.317.937,1.994.131.286-.056.384-.682.706" transform="translate(189.877 0.363)" fill="#070203"/>
      <path id="パス_71874" data-name="パス 71874" d="M89.416,9.458l.566.357,6.325-9.7-.381.038L92.46,0l-.5.114Q66.529,39.789,58.192,51.971l.875-.114,2.322.116a7.834,7.834,0,0,0,1.1,0L89.3,10.865Zm-8.154,9.865-.292-.251c-.04-.033-.092-.072-.146-.11-.212-.155-.433-.315-.347-.579a3.742,3.742,0,0,1,.336-.682l.287-.511.991.666Z" transform="translate(25.837 0)" fill="#070203"/>
      <path id="パス_71875" data-name="パス 71875" d="M95.051,20.223l-.079-.038a2.645,2.645,0,0,0-.267-.11,1.308,1.308,0,0,1-.738-.488.561.561,0,0,1-.022-.458,8.831,8.831,0,0,0-2.115-1.264l-.946.739-.159-.387c-.04-.1-.1-.2-.15-.308a2.829,2.829,0,0,1-.231-.539,8.848,8.848,0,0,0-1.908-.23,8.279,8.279,0,0,0-3.217.628,10.327,10.327,0,0,0-2.989,2,10.99,10.99,0,0,0-2.022,2.888,26.156,26.156,0,0,0-1.331,4.15,13.964,13.964,0,0,0-.381,3.655h0a16.971,16.971,0,0,0,1.675,8,10.331,10.331,0,0,0,4.078,4.448,10.889,10.889,0,0,0,4.91.875,7.22,7.22,0,0,0,3.313-1.028,8.321,8.321,0,0,0,2.589-2.166c.068-.079.126-.169.192-.251a.354.354,0,0,1,.092-.29c.14-.15.3-.284.449-.42a12.3,12.3,0,0,0,1.665-3.456,19.927,19.927,0,0,0,.838-6.053,14.262,14.262,0,0,0-2.931-9.53c-.1-.129-.211-.243-.316-.365M80.439,29.156l1.005.469-1.2,1.336-.866-1.551Zm1.61,7.922-2.115-1.1.391-.3q.262-.208.521-.425A8.385,8.385,0,0,1,82.4,34.156c.322-.166.63.157,1.092.641.134.14.267.282.386.387l.28.254Zm9.582-10.691V29.13l.038,2.552a40.082,40.082,0,0,1-.381,5.6A6.45,6.45,0,0,1,90.069,40.8a2.612,2.612,0,0,1-1.866.819,2.1,2.1,0,0,1-1.256-.381l-1.219-1.561q-.5-.838-.5-6.625,0-.99-.114-3.655h0c.022-2.863.072-4.726.147-5.607l-2.056-.722,2.12.2a6.082,6.082,0,0,1,1.235-3.126,2.686,2.686,0,0,1,1.9-.8,2.355,2.355,0,0,1,2.056,1.142,11.4,11.4,0,0,1,.836,2.439c.12.064.245.118.355.189l.477.292-.622.773a11.292,11.292,0,0,1,.059,2.209" transform="translate(34.849 7.612)" fill="#070203"/>
      <path id="パス_71876" data-name="パス 71876" d="M144.312,23.276l-.295.009-6.853-.038h-2.744l-5.632-.114c-.383-.026-.761-.091-1.141-.146a7.053,7.053,0,0,1-.879.254l-.1.023.466.778-.871-.348c-.078-.03-.156-.064-.238-.087a.321.321,0,0,1-.209-.375l-.014,0,.029-.1c.012-.049.023-.1.039-.155l.195-.721.01.017a2.883,2.883,0,0,1,.606-1.262,1.5,1.5,0,0,1,.217-.165c-.01-.274-.016-.505-.016-.644,0-.432.012-.851.038-1.256q.076-1.029.077-1.219,0-.342-.038-1.028L127,11.862c0-.2-.013-.443-.038-.722v-.3l.077-1.3.038-1.675-.038-.609-.114-1.409a1.2,1.2,0,0,1,.838-1.1l1.578-.251-.178-.338,3.656-.617.026.15.191.052.1-.068.084.12v0l.049.071,1.2-.189a8.982,8.982,0,0,0,.152-1.484q0-.342-.038-1.142a15.377,15.377,0,0,0-2.361-.152,7.519,7.519,0,0,0-1.752.191q-4.874.381-6.13.381-.8,0-1.847-.058t-2.075-.058q-2.246-.037-6.891-.533c-.227.016-.58.026-1.034.032l.364.8L112,2.453l-.292-.608a4.083,4.083,0,0,1-.3-.7.319.319,0,0,1,.051-.283,11.361,11.361,0,0,0-1.968.147,4.83,4.83,0,0,0-.228,1.256q0,.305.114,1.409a7.355,7.355,0,0,0,1.561.3l.578.152a29.063,29.063,0,0,1,3.159.381c.254.051.5.09.742.114a2.714,2.714,0,0,1,.666.152,4.621,4.621,0,0,1,.3.914,46.325,46.325,0,0,1,.342,5.178V12.5l.038,3.313-.077,3.2.077,1.1q0,3.11-.029,5.061l.091.143-.094.064c-.019,1.213-.046,2.079-.082,2.576l-.038.914q0,2.549.152,7.691l-.5,9.519a19.179,19.179,0,0,1-2.094.609l-4.765.838a19.037,19.037,0,0,0-.228,2.7h.009a64.057,64.057,0,0,0,7.388-.3c.1-.014.341-.032.706-.053a8.937,8.937,0,0,1,.189-1.367c.088-.39.63-.686,1.069-.865.218-.087,1.327-.51,1.851-.172a5.671,5.671,0,0,1,2.017,2.36c.833.032,1.56.077,2.163.137l5.369.228a5.084,5.084,0,0,0,.647.038q.723.037,1.561.038.951,0,2.322-.038a8.729,8.729,0,0,0,.152-1.37,11.527,11.527,0,0,0-.114-1.18,2.527,2.527,0,0,0-.838-.342,4.008,4.008,0,0,1-.647-.191l-5.6-.875-.381-.228a18.182,18.182,0,0,1-.114-2.022v-11.8c0-.2-.026-.647-.077-1.333v-.5L127,27.547a5.886,5.886,0,0,1,1.638-.267H129.7c.456,0,1.014-.013,1.675-.038a5.727,5.727,0,0,1,.609-.038l.267.038.342.038,2.709.029c-.624-.684-1.268-1.392-1.873-2.117-.2-.243-.009-.44.308-.771.248-.26.429-.446.664-.267.747.582,1.461,1.19,2.153,1.778l.482.41-.748.979,8.091.087,0-.013c-.03-1.391-.048-2.754-.064-4.118m-24.752,6.9c.007-.04.012-.084.016-.127a.932.932,0,0,1,.157-.494.609.609,0,0,1,.521-.178.96.96,0,0,0,.113,0l.257-.03.345,1.095-1.492.156Zm1.708,3.983,0,0-.149.155,0,0-.342.349-.179-.445c-.02-.049-.038-.1-.055-.156l-1.609-.742,1.379-.026a.84.84,0,0,0,.1-.01.542.542,0,0,1,.521.131.832.832,0,0,1,.113.18l.536.244Zm-.579-7.377.9-1.308.547,1.486Zm4.54,10.115a5.728,5.728,0,0,1-1.148,1.222c-.153.136-.308.27-.453.41l-.257.245-.214-.283c-.078-.1-.182-.214-.286-.326-.334-.36-.624-.671-.49-1a6.97,6.97,0,0,1,.908-1.445c.163-.219.341-.459.528-.729l.283-.4.25.425c.15.256.316.5.462.708.378.546.6.877.416,1.177m.982-22.079.576,1.425-1.411-.131ZM140.756,25.1l-.329.15a.289.289,0,0,1-.144.04.357.357,0,0,1-.234-.1l-.007.007-.078-.082-.409-.422L143.189,24Z" transform="translate(48.477 0.363)" fill="#070203"/>
      <path id="パス_71877" data-name="パス 71877" d="M404.338,47.2a9.144,9.144,0,0,1-2.914-1.463,29.43,29.43,0,0,1-2.99-4.588l-.477-.774a5.219,5.219,0,0,1-.609-.306l-.234-.039-.244-.045-.3.13-.068-.673v-.012l-.085-.822.576.523.082.048c.027-.017.056-.033.087-.049l.019-.012-3.2-5.18-.533.014-.037-.695-1.838-.006,1.675-.5-.9-1.464q-.99-1.6-2.589-3.883a22.053,22.053,0,0,1-1.219-1.866,15.182,15.182,0,0,0,7.067-4.085l-.907-.438.762-.8.2.094a1.112,1.112,0,0,0,.111.04.744.744,0,0,1,.438.295.387.387,0,0,1,.026.133,10.957,10.957,0,0,0,2.478-6.966,11.805,11.805,0,0,0-4.606-9.119Q389.494.712,381.689.713a92.155,92.155,0,0,0-9.4.456L367.52,1.4l-2.022.114q-.23,0-2.972-.228-2.664.037-3.539.038a22.238,22.238,0,0,0-3.5.3l-.153.419.078,2.284c.611.114,1.805.227,3.51.341l.478-1.138.618,1.278,1.752.357q.193,2.209.191,10.128,0,3.617-.113,7.767l-.078,2.056.078,3.541-.153,4.569.038,8.491q0,3.121-.077,3.655a9.6,9.6,0,0,1-.228,1.1,16.223,16.223,0,0,1-3.5.817,8.7,8.7,0,0,0-2.931.781,8.739,8.739,0,0,0-.114,1.181c0,.178.026.585.077,1.219h1.63a40.034,40.034,0,0,0,4.38-.267l5.253-.342q.42-.037,1.409-.038,1.525,0,9.71.722l1.572-.077q.191,0,.914.038a19.331,19.331,0,0,0,.15-2.817,31.218,31.218,0,0,0-5.1-1.444,8.773,8.773,0,0,1-1.152-.3c-.069.312-.168.621-.264.924-.079.247-.16.494-.221.739l-.127.516-.391-.357c-.224-.2-.459-.394-.692-.586a6.968,6.968,0,0,1-1.655-1.7c-.228-.381.075-.862.58-1.662.224-.351.479-.757.721-1.2l.241-.451.114.16a3.233,3.233,0,0,1,.156-.414l.1-3.814-.156-8.456a25.765,25.765,0,0,1,.115-2.627q1.826-.076,2.589-.077a7.128,7.128,0,0,1,3.922.8,14.9,14.9,0,0,1,1.389,1.821c.113-.153.26-.328.472-.57.142-.159.28-.319.386-.451l.235-.292,1.1,1.229c.7.773,1.393,1.545,2.065,2.339.357.42.674.878.979,1.32.03.04.056.081.087.121l.647-1.557v0l.157-.383v0l.193-.771.383.722c.064.116.126.237.189.36l.732,1.414-1.119-.9c-.207.563-.416,1.128-.615,1.7l.579.345-.9.118c-.173.023-.367.072-.566.12a3.736,3.736,0,0,1-.861.15.708.708,0,0,1-.517-.176c-.9-.869-1.721-1.786-2.455-2.653.035.077.072.147.1.224q4.074,8.071,5.75,11.764.645,1.41,2.238,4.267l1.3,2.513q.609-.076,1.637-.191c1.5-.179,2.388-.267,2.667-.267l3.806.032a19.814,19.814,0,0,1,3.011.2h1.561l1.98.267.761-.038h1.028q.037-.533.038-.875a3.471,3.471,0,0,0-.227-1.142,12.057,12.057,0,0,0-2.627-1.3m-7.744-29.778.468,1.473-1.323-.186ZM363.172,2.29l.529,1.448-1.406-.179Zm0,10.624L363,12.557c-.062-.124-.134-.247-.2-.37a3.1,3.1,0,0,1-.443-1.067c-.065-.442.653-.954.66-.959a.439.439,0,0,1,.468-.078,2.8,2.8,0,0,1,.323.224l-1.122-1.063,1.551-1.763.183.5c.035.091.078.183.121.274a1.756,1.756,0,0,1,.227.823,2.119,2.119,0,0,1-.3.846c-.052.1-.1.192-.143.289l-.165.383c.084.074.165.143.25.224.114.1.228.209.357.321l.28.247Zm28.009-5.731.523.986a1.076,1.076,0,0,0,.068.1.816.816,0,0,1,.178.481.758.758,0,0,1-.238.461.689.689,0,0,0-.077.087l-.634.865Zm1.024,2.533.438.1.014,0,.5.114.218.049h0l.062.013-.66.393-2.606,1.759Zm-4.92,2.478-1.119-1.082a14.994,14.994,0,0,1,.5,3.876,7.78,7.78,0,0,1-2.7,6.209q-2.705,2.322-9.177,2.322-.836,0-2.666-.077V22.38q.037-2.779.114-4.531L372.2,13.7l.079-3.133-.038-5.141.038-.722a20.549,20.549,0,0,1,3.008-.191,18.128,18.128,0,0,1,5.369.578,8.83,8.83,0,0,1,3.691,2.244A8,8,0,0,1,386,10.475c.038.127.066.256.1.384l2.351-2.273c.03-.052.058-.105.087-.157a.805.805,0,0,1,.263-.276l-.367-.536.5-.393.082.088a2.082,2.082,0,0,1,.217.25c.042.059.077.124.114.186l.41-.322-.212.988-.133.628-.205-.3-.24.23c-.375.7-.741,1.405-1.1,2.111Zm5.278,31.859c-.039.03-.079.059-.111.088l-.237.225L392,44.123c-.027-.032-.065-.064-.1-.1a.56.56,0,0,1,.043-1.017c.038-.03.077-.058.108-.088l.237-.224.217.244c.03.032.068.065.1.1a.694.694,0,0,1,.3.524.684.684,0,0,1-.345.491m.219-8.264h-.439l.627-1.874.348.247c.068.049.137.092.208.137a2.2,2.2,0,0,1,.55.445.77.77,0,0,1,.023.689.476.476,0,0,1-.321.329,2.462,2.462,0,0,1-.469.039c-.092,0-.185,0-.273-.006s-.17-.006-.254-.006m3.36,8.368-.982-.053-.215.335-.16-.17-.64.947-.858-1.528.51-.027.391-.02-.225-.237.617.033.12-.178.152.159.718-1.106.9,1.214.045.017.205.01.084.482h0l.222,1.277.007.043.006.029Z" transform="translate(157.566 0.317)" fill="#070203"/>
      <path id="パス_71878" data-name="パス 71878" d="M251.64,1.058a67.634,67.634,0,0,1-6.967.342L237.4,1.1h-3.008l-.012.41.186.8-.206-.039-.045,1.721.5.114,3.58-.077a3.848,3.848,0,0,1,2.744,1.18,4.882,4.882,0,0,1,.838,3.008l.152,2.022q.99,11.536.991,20.75a30.689,30.689,0,0,1-.722,7.8,14.942,14.942,0,0,1-1.9,3.922,9.176,9.176,0,0,1-2.31,2.189,11.255,11.255,0,0,1-3.522,1.733,23.516,23.516,0,0,1-6.816.952,13.964,13.964,0,0,1-6.274-1.6,8.424,8.424,0,0,1-3.427-3.159,14.59,14.59,0,0,1-1.828-6.891l-.5-9.556.152-6.588-.228-3.045.077-3.58-.038-1.37q-.039-.76-.038-1.98,0-4,.456-4.531a3.588,3.588,0,0,1,2.817-.838,31.241,31.241,0,0,0,4.251-.287c-.025-.257-.048-.514-.074-.77l-.165-1.235L223,2.077l-.168-.168.214-.094-.066-.654.374.374.016-.02.032-.386q-.8.039-3.066.077t-5.178.172q-2.913.134-5.958.133-.877,0-5.9-.267-2.1-.115-4-.114-.723,0-1.409.038L198,4.176H198a9.332,9.332,0,0,0,1.593.116,12.3,12.3,0,0,1,4.4.728.285.285,0,0,1,.361-.078c.669.335,1.317.687,1.967,1.04l.094.051.69-.432-.276.657.225.121-.163.1.761.537-1.841.035.156-.378-.894-.3a38.96,38.96,0,0,1,.348,6.52l-.038,18.161a43.169,43.169,0,0,0,.578,8.072,14.5,14.5,0,0,0,1.945,5.232l1.717-1.6-1.347,2.13c.208.308.4.624.635.915a14.912,14.912,0,0,0,6.378,4.15,28.925,28.925,0,0,0,10.134,1.58,32.748,32.748,0,0,0,9.061-1.123,20.16,20.16,0,0,0,6.465-3.03,15.327,15.327,0,0,0,4-4.208,13.325,13.325,0,0,0,1.444-4.15,64.165,64.165,0,0,0,.533-10.4l-.381-7.73q-.078-2.816-.191-5.559-.039-.8-.058-1.561t-.019-2.094a32.522,32.522,0,0,0-.114-3.313q-.115-1.293-.114-1.98a1.759,1.759,0,0,1,.533-1.409,10.265,10.265,0,0,1,2.817-.578,12.492,12.492,0,0,0,2.97-.5,4.412,4.412,0,0,0,.152-1.028,11.727,11.727,0,0,0-.228-1.752Zm-32.1,45.119a2.564,2.564,0,0,0-.24.153,1.538,1.538,0,0,1-.777.336h-.04a1.961,1.961,0,0,1-.8-.235c-.094-.043-.189-.088-.283-.123l-.6-.219.543-.345c.1-.062.192-.133.289-.2a2.1,2.1,0,0,1,.881-.462c.306-.064.579.173.819.373a2.319,2.319,0,0,0,.232.185l.432.287ZM246.5,25.128l-1.363-.211.875-1.2Z" transform="translate(87.864 0.47)" fill="#070203"/>
      <path id="パス_71879" data-name="パス 71879" d="M269.964,25.263a16.475,16.475,0,0,0-5.006-3.313,42.515,42.515,0,0,0-5.616-2.208q-6.929-2.053-9.061-4.3a6.718,6.718,0,0,1-2.172-4.683A6.265,6.265,0,0,1,250.3,5.9a8.538,8.538,0,0,1,5.92-1.96,9.1,9.1,0,0,1,6.816,3.044,19.656,19.656,0,0,1,3.35,6.816l.456.077,2.744.191.381-.114a7.984,7.984,0,0,0,.152-1.484,56.152,56.152,0,0,0-.456-6.091,25.265,25.265,0,0,0-.686-3.923h-.006a40.84,40.84,0,0,0-5.75-1.6c-1.07-.218-2.152-.365-3.237-.477l-.006.01-.013-.012c-.715-.074-1.431-.142-2.15-.169q-8.452,0-12.792,4.227a13.811,13.811,0,0,0-4.341,10.281,14.464,14.464,0,0,0,1.561,6.261,13.207,13.207,0,0,0,.833,1.526l.36-.267.1.481c.035.163.079.325.124.487.016.058.027.118.043.176a13.382,13.382,0,0,0,2.309,2.387l.016-.029.077.105c.137.108.26.23.4.334a42.419,42.419,0,0,0,9.709,4.416c.344.121.656.237.979.355-.048-.085-.094-.17-.144-.247l-.175-.077.042-.121-.569-.807.4.176-.179-.384,1.415-.146-.234.687.042-.016a3.741,3.741,0,0,1,1.281-.325c.995.012,2,.1,2.969.189q.591.054,1.178.1l.41.03-.134.388c-.075.215-.149.488-.224.761-.245.908-.394,1.457-.81,1.466h-.26c-.292,0-.605-.042-.907-.061a13.992,13.992,0,0,1,3.528,1.986,6.66,6.66,0,0,1,1.132,9.5,8.329,8.329,0,0,1-3.978,2.876,13.73,13.73,0,0,1-4.531.875,12.758,12.758,0,0,1-4.3-.706,10.926,10.926,0,0,1-3.408-1.9,12.59,12.59,0,0,1-2.608-3.139c-.344-.566-1.1-2.191-2.253-4.856l-.884,1.017-1.521-1.213-1.207.027V38.48q0,1.027.077,3.5.191,4.8.191,5.216v.419a1.454,1.454,0,0,0,.342.722,7.512,7.512,0,0,0,2.4.952l4.569,1.333a32.236,32.236,0,0,0,6.354.762,26.313,26.313,0,0,0,6.6-.687,17.472,17.472,0,0,0,4.965-2.225A22,22,0,0,0,270.3,45.79a10.513,10.513,0,0,0,1.363-1.665,16.948,16.948,0,0,1-1.753-3.522l-.046-.124.059-.15a8.773,8.773,0,0,1,2.8-1.62c.313-.114.637-.2.956-.3a19.261,19.261,0,0,0,.276-3.132,15.088,15.088,0,0,0-.856-5.464,14.2,14.2,0,0,0-3.132-4.553m-25.417-4.7-1.23-.823,1.375-.542Zm-1.154-2.7-.157-.284c-.048-.088-.117-.192-.183-.3-.263-.41-.438-.68-.225-.915a5.579,5.579,0,0,1,.95-.78c.113-.078.224-.155.331-.237l.3-.219.865,1.633Zm3.207-5.594a7.936,7.936,0,0,1-1.4,1.492c-.182.163-.364.326-.539.494l-.247.238-.218-.269c-.09-.11-.208-.225-.325-.344-.355-.352-.689-.684-.6-1.058a7.826,7.826,0,0,1,.8-1.8c.176-.326.377-.7.6-1.142l.243-.481.3.445c.282.414.556.777.786,1.079.544.713.791,1.041.591,1.347m11.617,14.72c-.094.084-.183.172-.271.258a3.932,3.932,0,0,1-.853.69.308.308,0,0,1-.157.046c-.137,0-.355-.1-.742-.5-.139-.144-.348-.365-.2-.605a6.055,6.055,0,0,1,.719-.941l.461-.542,1.287,1.375Zm6.017.429-.292-.731a3.788,3.788,0,0,1-.27-.788c-.053-.258.163-.422.354-.563.048-.036.1-.072.133-.105l.344-.316.6,1.552ZM247.8,48.38a2.927,2.927,0,0,0-.269.118l-.257.139-.9-1.386,1.679-.937.117.373c.029.09.068.182.1.274a1.628,1.628,0,0,1,.182.869c-.046.3-.358.426-.661.55m18.8-19.586a.719.719,0,0,1-.514-.358c-.033-.04-.065-.082-.1-.116l-.224-.232.8-.745.244.165.679.614-.256.235c-.035.032-.069.072-.1.111a.722.722,0,0,1-.52.326Zm3.248,8.078c-.078.247-.157.494-.218.739l-.129.516-.393-.358c-.221-.2-.458-.393-.692-.586a7.042,7.042,0,0,1-1.653-1.7c-.228-.38.077-.861.579-1.658.222-.352.479-.76.719-1.21l.243-.451.3.416c.266.373.521.682.744.95a2.932,2.932,0,0,1,.846,1.457,4.824,4.824,0,0,1-.342,1.883M269.8,32.3l-1.187-.944.258-.251c.127-.124.251-.253.377-.381a6.723,6.723,0,0,1,1.132-1.005c.277-.185.576.049.986.371.114.088.228.178.326.241l.371.247Z" transform="translate(106.862 0.093)" fill="#070203"/>
      <path id="パス_71880" data-name="パス 71880" d="M157.584,3.037a1.17,1.17,0,0,1,.952-.228,3.675,3.675,0,0,1,1.044.754c.019.017.048.04.068.058l.153-.032c.058-.456.1-.947.133-1.458l-.619-.045L159.9.879c-1-.071-1.858-.108-2.572-.108a12.93,12.93,0,0,0-2.817.3l-1.333.077-4.95.152q-.494.037-1.333.038c-.643,0-1.285-.039-1.928-.061l.373,1.357-1.308-.251.838-1.109q-1.612-.056-3.214-.205l.049.12-.322.1c-.038.013-.082.033-.126.052a.935.935,0,0,1-.378.11.386.386,0,0,1-.227-.072.763.763,0,0,1-.266-.436c-.228-.026-.458-.036-.686-.065L136,.848q-.191,0-1.028.038a10.844,10.844,0,0,0-.3,2.166,10.77,10.77,0,0,0,1.37.381,23.408,23.408,0,0,1,5.33,1.714,1.13,1.13,0,0,1,.533.5l.267,2.666.228,6.472-.066,1.495.142.053-.153.4c-.025,3.227-.062,5.273-.113,6.118-.065.012-.131.016-.2.027.12.244.238.472.348.68.384.728.64,1.209.432,1.6a12.774,12.774,0,0,1-1.661,2.263c-.043.051-.085.1-.129.153.37.022.741.042,1.089.071,0,.042,0,.084,0,.124l1.386-1.275,1.812,2.061-.4.172a5.244,5.244,0,0,0-.485.248,1.834,1.834,0,0,1-.8.3.57.57,0,0,1-.222-.043,2.626,2.626,0,0,1-.91-.767c-.1-.113-.195-.225-.3-.326l-.081-.079a43.843,43.843,0,0,0,.219,4.419l-.038,3.236a89.867,89.867,0,0,1-.455,10.242c-.484.152-.877.266-1.181.342l-3.084.5-2.931.686a15.441,15.441,0,0,0-.191,2.475,4.689,4.689,0,0,0,1.3.228q4.951-.5,8.073-.5,6.929,0,10.05.342,2.361.227,4.188.228.266,0,1.789-.038l-.116-2.664A29.68,29.68,0,0,0,154.316,46q-.684-.154-1.484-.381.078-1.789.077-3.045l-.077-4.492v-5.4q-.152-5.179-.114-6.853l.077-4.836-.036-3.587-.264-.114.263-.52V12.5q0-.191-.038-1.9V9.643q0-.42.077-1.219l.038-.5-.038-.991V6.291l.228-.761a12.648,12.648,0,0,1,2.189-.9c.423-.127,1.158-.3,2.134-.523-.013-.027-.026-.055-.038-.082a4.1,4.1,0,0,0-.186-.391l-.176-.313.332-.136a3.339,3.339,0,0,0,.3-.153m-9.828,10.329a1.185,1.185,0,0,0,.118-.1l.269-.276.918,1.343-1.509,1.1-.061-.54c-.01-.088-.025-.178-.038-.264a2.9,2.9,0,0,1-.049-.755.8.8,0,0,1,.351-.5m.207,16.153-.3.162-.029.035-.088,1.731.027.036.124.118,1.534.193-.852,1.34-.28-.269q-.342-.334-.687-.663l-.082-.01-.481.51.029-.567-.326-.042.347-.367,0-.082-1.227-1.619,1.261-.687-.205-.222.3-.065.026-.513.378.41.816-1.017,1.194,1.246-1.5.323Z" transform="translate(59.691 0.342)" fill="#070203"/>
      <path id="パス_71881" data-name="パス 71881" d="M197.683,3.292A29.925,29.925,0,0,0,183.937.322a33.952,33.952,0,0,0-4.829.308l-.033.181-.045,2.251L177.363,2.4l.745-1.627c-.866.143-1.73.306-2.585.516a26.89,26.89,0,0,0-5.081,1.928l-.03.221-.146-.137c-.725.367-1.438.755-2.128,1.187A24.6,24.6,0,0,0,162.656,9l.4.075.27-.03,2.546-1.895.006-.009c.027-.059.052-.12.078-.181l-.094-.448.848.269.578.182-.553.336-.052.039.664,3.184-3.944-.738-.006,0-.09.075h-.022l-.159.118-.315-.384h0l-.334-.409c-.117.131-.244.251-.358.384s-.222.292-.336.436l.565.032-.664,1.386-.351-.839a22.217,22.217,0,0,0-2.944,5.268,26.314,26.314,0,0,0-1.828,9.48l.009,0a26.227,26.227,0,0,0,.809,6.853,32.347,32.347,0,0,0,2.166,6.32,24.95,24.95,0,0,0,3.909,5.224l-.035-.234-.269-.331.334-.078.7-1.848-.105-.124.207-.143.159-.414.084.1,1.349-4.163L168.7,37.9l0,0,.319.163.016.007.391.2-2.552,2.484.806-1.373-2.679,1.863,0,.009.016.022-.078.172-.16.491-.04-.048-.471,1.04,1.134-.217-.751,2.14a32.115,32.115,0,0,0,5.814,4.085q.349.154,3.236,1.1a21.449,21.449,0,0,0,3.731.838,41.02,41.02,0,0,0,6.053.419,30.047,30.047,0,0,0,14.948-3.5l.064-.394c.013-.082.023-.165.033-.248a3.447,3.447,0,0,1,.128-.666.827.827,0,0,1,.349-.394c.036-.026.072-.051.1-.078l.354-.312.429,1.239a23.125,23.125,0,0,0,3.978-3.331,25.821,25.821,0,0,0,7.331-18.47,24.737,24.737,0,0,0-4.349-13.815,23.6,23.6,0,0,0-9.175-8.033M157.615,22.481a1.03,1.03,0,0,0-.077.087l-.63.852.178-2.95.523.962c.019.033.042.066.064.1a.824.824,0,0,1,.183.485.761.761,0,0,1-.241.464m2.256,16.3.4-1.126h.227a1.171,1.171,0,0,0,.12-.009.652.652,0,0,1,.544.108.911.911,0,0,1,.238.482,1.141,1.141,0,0,0,.038.13l.147.425Zm.845-13.481.8-1.235.557,1.367ZM165.9,14.724c-.055.033-.108.069-.157.1a.919.919,0,0,1-.517.217h0a.752.752,0,0,1-.5-.254,1.087,1.087,0,0,0-.1-.085l-.784-.572h3.082Zm29.745-4.385a.834.834,0,0,0,.1-.092c.126-.123.309-.3.51-.279a.711.711,0,0,1,.5.3,1.05,1.05,0,0,0,.1.1l.168.15-.466,1.108-1.2-1.053ZM168.6,13.371l.547,1.409-1.343-.117Zm28.138,26.05a13.571,13.571,0,0,1-5.647,6.53,15.667,15.667,0,0,1-7.634,1.923,12.232,12.232,0,0,1-4.341-.819,11.014,11.014,0,0,1-3.313-1.808,15.425,15.425,0,0,1-3.389-3.845,41.762,41.762,0,0,1-2.322-5.978,21.175,21.175,0,0,1-.8-4.113c-.04-.3-.075-.536-.107-.762l-.155.019.072-.422c0-.029.006-.062.007-.094-.014-.1-.033-.227-.046-.3a28.526,28.526,0,0,1-.267-4.683c0-.127.006-.254,0-.381l-1.154-.126,1-.491L168.81,24a39.09,39.09,0,0,1,.9-8.047A20.856,20.856,0,0,1,172.8,9.038a12.39,12.39,0,0,1,3.845-3.408A11.128,11.128,0,0,1,182.5,4.088a15.208,15.208,0,0,1,9.988,3.275,16.575,16.575,0,0,1,5.388,9.519,15.178,15.178,0,0,0,.381,1.561l.191.722q.42,5.218.419,8.263a28.737,28.737,0,0,1-2.133,11.994m3.349-28.183a.649.649,0,0,1-.243-.505.646.646,0,0,1,.352-.44.9.9,0,0,0,.1-.068l.058-.048a1.159,1.159,0,0,1-.14-.257c-.013-.033-.027-.068-.042-.1l-.182-.364,1.544-.342-.215,1.063-.209.111c-.029.007-.061.019-.094.03a1.407,1.407,0,0,1-.2.045l.4.529-.855.7-.2-.26a1.117,1.117,0,0,0-.079-.091m.868,21.732-.243-.328a1.957,1.957,0,0,0-.159-.182c-.189-.2-.4-.433-.351-.715a1.661,1.661,0,0,1,.7-1.064c.251-.149.54-.035.846.088a3.354,3.354,0,0,0,.339.121l.461.134Zm2.068-18.794-.232-.491c-.045-.094-.1-.189-.16-.284a1.62,1.62,0,0,1-.315-.882,1.534,1.534,0,0,1,.425-.827c.069-.087.139-.172.2-.257l.3-.453.861,1.659Zm7.61,11.834.066.482c.006.036.014.072.022.108a.851.851,0,0,1,.012.465.685.685,0,0,1-.331.348.9.9,0,0,0-.082.053l-.253.195-.67-.885Z" transform="translate(69.514 0.139)" fill="#070203"/>
      <path id="パス_71882" data-name="パス 71882" d="M161.563,30.65l.022.023c.12.114.248.217.371.328l-.358-.442Z" transform="translate(71.734 13.568)" fill="#070203"/>
      <path id="パス_71883" data-name="パス 71883" d="M470.328,35.077l.244-.006-.009-.178Z" transform="translate(208.827 15.493)" fill="#070203"/>
      <path id="パス_71884" data-name="パス 71884" d="M447.392,19.258l.477.006-.3-.253Z" transform="translate(198.643 8.441)" fill="#070203"/>
      <path id="パス_71885" data-name="パス 71885" d="M537.916,1.317q-3.085,0-6.32-.3c-.588-.056-1.1-.1-1.561-.142L529.3.878l.027-.066c-.822-.066-1.4-.1-1.658-.1a16.885,16.885,0,0,0-.152,1.752A4.361,4.361,0,0,0,527.75,3.6a14.264,14.264,0,0,0,1.561.247,8.646,8.646,0,0,1,1.409.247,7.176,7.176,0,0,1,3.61,1.066,1.544,1.544,0,0,1,.722,1.256,8.508,8.508,0,0,1-.666,2.856q-.667,1.752-1.656,5.141-.305,1.02-.5,1.6l-1.067,2.666-4.53,12.563-2.209,5.406q-1.027-2.549-2.284-5.406l-1.417-3.209a7.86,7.86,0,0,1-1.549,1.108,5.107,5.107,0,0,1-1.211.381l-.094.022.465.768-.869-.335c-.092-.036-.166-.065-.243-.087a.322.322,0,0,1-.209-.375l-.014,0,.03-.1c.012-.049.023-.1.039-.155l.192-.723.012.019a2.892,2.892,0,0,1,.607-1.261,3.59,3.59,0,0,1,2.014-.771l.14-.023.013,0L517.8,21.422q-3.084-6.658-4.417-10.541l-1.256-3.313a4.664,4.664,0,0,1-.077-.838,1.345,1.345,0,0,1,.419-.991,5.77,5.77,0,0,1,2.475-1.219q.645-.152,4.455-.647c0-.126-.009-.526-.025-1.147a1.527,1.527,0,0,1-.828.446.49.49,0,0,1-.185-.036,7.383,7.383,0,0,1-2.224-1.479c-.2-.188-.127-.423.12-.869-.83.116-1.978.23-3.484.344q-3.5.227-4.645.228a113.542,113.542,0,0,1-12.3-.533q-.42-.039-2.4-.077V4.028l1.642.188a10.439,10.439,0,0,1,3.313.647,4.09,4.09,0,0,1,1.444,1.37q.3.5,3.61,7.577l4.3,10.4,7.2,16.144.26.654.1-.14.25.425c.152.254.318.494.464.706.377.546.6.875.417,1.175a3.348,3.348,0,0,1-.247.3q1.679,4.248,2,5.139.418,1.18.837,2.322,1.3.076,2.022.077.379,0,1.9-.077.836-2.056,2.511-7.425l.383-.686q1.6-3.992,1.789-4.569.914-2.441,1.733-4.476t1.5-3.864l4.873-12.6a91.18,91.18,0,0,1,4.427-10.325,3.815,3.815,0,0,1,1.028-1.256,32.165,32.165,0,0,1,5.749-2.437q.037-.914.037-1.37V.7q-1.408.035-3.655.323a43.637,43.637,0,0,1-5.406.289M512.295,2.441l1.229.843-1.393.524Zm-6.784,2.645-.2-.257a.916.916,0,0,0-.081-.09.651.651,0,0,1-.244-.511.65.65,0,0,1,.352-.436.893.893,0,0,0,.1-.068l.253-.209.674.875Zm6.377,27.972.9-1.308.552,1.486Zm5.519-11.964.581,1.425-1.411-.131Z" transform="translate(219.087 0.313)" fill="#070203"/>
      <path id="パス_71886" data-name="パス 71886" d="M511.574.738h-.679l.7.664c0-.219-.01-.416-.017-.664" transform="translate(226.839 0.328)" fill="#070203"/>
      <path id="パス_71887" data-name="パス 71887" d="M571.8,25.354q-.762,0-1.942.114a19.389,19.389,0,0,1-4.3,7.158,8.949,8.949,0,0,1-4.492,2.552,43.117,43.117,0,0,1-8.806.8l-.552.383,0,.006.016.023-.075.166-.163.5L551.434,37l-.482,1.044,1.154-.222-.511,1.456c1.274.035,2.49.075,3.639.123q9.251.381,11.385.381,1.447,0,3.922-.114l.686-4.341,1.409-7.2.228-1.142q.076-.648.191-1.6-.838-.037-1.256-.038" transform="translate(244.624 11.257)" fill="#070203"/>
      <path id="パス_71888" data-name="パス 71888" d="M474.9,1.076l-1.333.077-4.95.152c-.329.026-.774.038-1.333.038a56.288,56.288,0,0,1-7.2-.455L456.394.848q-.191,0-1.028.039a10.844,10.844,0,0,0-.3,2.166,10.766,10.766,0,0,0,1.37.38,23.551,23.551,0,0,1,5.33,1.714,1.144,1.144,0,0,1,.533.5l.267,2.666.228,6.472-.077,1.714q-.037,5.055-.114,6.354a14.947,14.947,0,0,1-2.744.267l-6.663.191-4.615-.025.534,1.428c.222.606.446,1.213.7,1.806.127.3.286.586.446.879l9.178.1q1.638.037,3.045.152a43.966,43.966,0,0,0,.228,4.835l-.038,3.236a89.835,89.835,0,0,1-.456,10.242q-.723.23-1.18.342l-3.084.5-2.931.686a15.449,15.449,0,0,0-.191,2.475,4.576,4.576,0,0,0,1.3.228c.355-.035.676-.061,1.017-.092L457.138,50l.585.035c2.572-.228,4.746-.349,6.476-.349,2.442,0,4.52.033,6.251.1a.4.4,0,0,1-.059-.1,1.36,1.36,0,0,1,.156-.9,3.1,3.1,0,0,0,.111-.3l.114-.37.339.182c.088.048.183.088.279.129a1.582,1.582,0,0,1,.744.508c.17.26.01.573-.143.878a.4.4,0,0,0-.02.043c.874.048,1.643.105,2.28.175.826.081,1.6.137,2.325.175l.152-.4.342.277c.036.029.084.062.131.094l.077.053c.391.013.8.033,1.161.033.077,0,.244,0,.474-.007l-1.49-.775.39-.3c.172-.134.341-.274.511-.414a8.407,8.407,0,0,1,1.561-1.1.387.387,0,0,1,.233-.033l0-.066A29.565,29.565,0,0,0,474.707,46q-.684-.154-1.484-.383.078-1.789.077-3.045l-.077-4.492v-5.4q-.152-5.177-.114-6.852l.016-.973c-.2-.163-.3-.321-.253-.508a2.363,2.363,0,0,1,.27-.6l.043-2.757-.038-3.655V12.5q0-.191-.038-1.9V9.643q0-.418.077-1.219l.038-.5-.038-.991V6.291l.228-.76c.339-.178.686-.338,1.04-.484l-.019-.023-.013-.954,0-.263.526.595.131.084c.111.071.214.149.321.224.071-.023.137-.053.208-.075q1.085-.323,4.588-1.047a27.06,27.06,0,0,0,.191-2.7q-1.56-.115-2.666-.116a13.02,13.02,0,0,0-2.817.3m-6.238,17.259c-.032.105-.068.238-.1.374-.146.556-.217.825-.5.825h-.042c-.767-.068-1.534-.189-2.277-.31l-.4.013s-.088,0-.175.009l-.982.208.482-.654.007-.012a.4.4,0,0,1,.045-.059l.129-.175.075-.1.04-.055.2.092.289.046,3.369-.716Zm3.811,13.884c-.108.1-.211.205-.3.306-.228.244-.432.459-.679.459a.467.467,0,0,1-.1-.012,4.664,4.664,0,0,1-1.122-.468c-.128-.066-.26-.136-.39-.2l-.374-.178.27-.315c.087-.1.179-.231.273-.362.315-.44.556-.8.908-.7a2.9,2.9,0,0,1,1.092.658c.129.107.261.215.4.316l.321.231Z" transform="translate(199.17 0.342)" fill="#070203"/>
      <path id="パス_71889" data-name="パス 71889" d="M139.6,20.652c-.484-.621-.937-1.209-.757-1.715a7.76,7.76,0,0,1,1.545-2.289l.373-.443c-.142.012-.283.014-.425.022-.033.066-.069.133-.1.2l-.181.414-.6-.57-5.39.155c-.012,1.389-.025,2.78-.039,4.16l5.206.056c.126,0,.243.01.367.013" transform="translate(59.507 7.195)" fill="#070203"/>
      <path id="パス_71890" data-name="パス 71890" d="M538.1,24.672l.006,0,0-.007Z" transform="translate(238.917 10.953)" fill="#070203"/>
      <path id="パス_71891" data-name="パス 71891" d="M559.755,47.161l-.1-.123.2-.142.045-.116c-4.69-.033-7.545-.3-8.514-.793a2.025,2.025,0,0,1-1.028-1.98l.077-8.231q-.152-3.009-.152-7.539,0-.31.038-1.3,2.894-.305,8.642-.3a29.98,29.98,0,0,1,5.632.267,2.759,2.759,0,0,1,1.523,1.028c.1.214.193.435.287.653l.279.253-.107.137a15.384,15.384,0,0,1,.911,3.375q.427,1.9.578,2.513h2.7v-.838q0-1.1-.114-3.369c-.019-.388-.036-.748-.051-1.082l-.251,1.71.064.068-.1.165-.026.175-.492.065H569.8l-.315.042-.335.045.279-.464-.14-1.044.508.432.806-1.343c-.038-.887-.058-1.583-.058-2.063q0-.648.058-1.789t.058-5.141q0-1.752-.152-5.141l-2.208-.038-.5.038a52.028,52.028,0,0,1-1.333,5.6,3.932,3.932,0,0,1-1.219,1.656,9.441,9.441,0,0,1-3.58.742q-2.894.266-9.709.267a14.114,14.114,0,0,1-1.637-.114v-4.8l-.077-6.4q0-6.548.114-7.5,3.656-.152,8.3-.152,4.074,0,7.614.3,1.941.154,2.322.191a10.188,10.188,0,0,1,2.436.3,17.521,17.521,0,0,1,2.436,3.5l1.523,2.7q.572,1.486.914,2.247,1,.076,1.3.077l1.561-.077c.025-.3.038-.534.038-.686l-.076-1.561V3.754a2.955,2.955,0,0,0-.686-2.056,59.489,59.489,0,0,0-6.853-.578L564.3,1.2q-6.853,0-15.344.342-5.673.227-7.044.228a51.322,51.322,0,0,1-6.967-.419c-.423-.061-.9-.11-1.382-.157V1.2l.038.075-.081.105-.113.472-.144-.139-.752.978L532.73,1.2l-.036-.035.022-.053c-.494-.04-.991-.079-1.541-.108l-.2,3.044q.953.115,1.675.152a24.905,24.905,0,0,1,4.188.533q.723.152,1.142.228a1.857,1.857,0,0,1,1.142.533,7.1,7.1,0,0,1,.077.761l.342,4.722-.038,4.3.185,5.9,1.679.612-.258.341c-.107.142-.212.284-.318.427a11.981,11.981,0,0,1-1.025,1.272c-.027.029-.064.025-.094.04l-.016,1.8.064,8.017,1.095.986.5-.212-.189.494.179.16.77-1.194.543,1.421-1.3-.137.475.24-1.116.238-.858,2.456-.065-.075.014,1.96-.038,1.18q.039,1.562.038,2.208a7.906,7.906,0,0,1-.419,2.78,18.4,18.4,0,0,1-5.487,1.219,23.467,23.467,0,0,0-2.888.419v2.645l4.606-.152h1.6q6.663-.381,11.231-.381,6.152,0,11.1.121l-.484-.595-.114-.11.009-.022-.2-.243.322-.081Zm-12.7-8.075-1.087-.855c-.091.007-.183.017-.267.017a.758.758,0,0,1-.546-.172,2.656,2.656,0,0,1-.563-.939c-.053-.123-.105-.245-.163-.36l-.188-.368.4-.085c.09-.019.191-.053.29-.085.345-.111.669-.217.894,0a4.769,4.769,0,0,1,.734.995c.094.15.189.308.3.471l.117.178.36-.085Zm.461-6.849a5.67,5.67,0,0,0-.567.12,3.853,3.853,0,0,1-.858.149.711.711,0,0,1-.517-.178,43.976,43.976,0,0,1-3.74-4.214c-.217-.274,0-.521.583-1.186.142-.16.283-.321.39-.455l.234-.293,1.112,1.24c.695.77,1.388,1.539,2.058,2.328.357.422.672.878.978,1.318.126.181.25.361.377.539l.849.514Z" transform="translate(235.755 0.447)" fill="#070203"/>
      <path id="パス_71892" data-name="パス 71892" d="M366.817,46.983a4.34,4.34,0,0,1-2.227-.761,5.912,5.912,0,0,1-1.142-1.866,50.709,50.709,0,0,1-2.094-4.874q-1.332-3.58-2.094-5.369-1.3-2.97-3.084-7.672t-4.036-9.689l-2.38-5.637-.075.54-.349-.325q-1.4.113-2.786.228l.362.205-.448.046.409.638-1.382.924-.15-.722a4.349,4.349,0,0,1-.113-.713l-.706.074.622-.559.055-.2a.282.282,0,0,1,.272-.221v-.014L345.6,11l.627-.052,2.83-.383.15-.422,0-.014c0-.1,0-.2.006-.295l-3.7-8.774-.342-.686h-1.714q-1.141,0-2.4-.038L332.54,22.7c.075-.051.149-.1.222-.157a2.087,2.087,0,0,1,.881-.461c.3-.061.579.173.817.373a2.748,2.748,0,0,0,.234.183l.432.287-.452.254c-.081.045-.16.1-.241.152a1.529,1.529,0,0,1-.773.338h-.039a1.979,1.979,0,0,1-.8-.234c-.094-.043-.188-.088-.283-.123l-.2-.074-.3.778-2.94,7.7.318-.055.13-.78,1.78.943-1.272.54a1.3,1.3,0,0,1-.309.131l-.494.162h0l-.427.14.458-.634-.3-.13-4.629,12.124a6.842,6.842,0,0,1-1.542,2.208,11.867,11.867,0,0,1-3.56,1.028,24.874,24.874,0,0,0-2.552.578l-.077,2.589h.684a33.609,33.609,0,0,0,5.369-.456l1.57-.26q8.9.645,11.263.647a5.386,5.386,0,0,0,.077-.875q0-.533-.038-1.9-2.361-.342-2.7-.419a6.9,6.9,0,0,1-3.35-1.028,1.69,1.69,0,0,1-.533-1.409,10.248,10.248,0,0,1,.722-2.744q2.513-7.124,3.313-8.953l14.544.038,3.006,7.463,1.516,3.731a3.087,3.087,0,0,1,.191,1.028,1.2,1.2,0,0,1-.381.875,7.99,7.99,0,0,1-2.2.761l-4.227.914q-.115,1.217-.114,2.552l1.866-.077,6.472-.342Q355,50.032,358,50.031q2.7,0,6.088.263t6.209.267c.025-.38.038-.66.038-.838a13.951,13.951,0,0,0-.191-1.866,14.237,14.237,0,0,0-3.331-.875M342,.707l1.232.58-1.71.986Zm3.016,28.578q-1.6,0-10.508-.114l.833-2.222a1,1,0,0,1-.029-.358.48.48,0,0,1,.295-.351l4.416-11.77q1.146,2.367,2.975,6.878t2.97,7.9Zm2.315-9.094c-.1.023-.192.046-.269.068a1.674,1.674,0,0,1-.433.079c-.03,0-.064,0-.1-.006-.254-.035-.322-.282-.371-.462-.013-.042-.023-.085-.036-.118l-.219-.591,2.625.755Z" transform="translate(140.579 0.151)" fill="#070203"/>
      <path id="パス_71893" data-name="パス 71893" d="M54.717,12.869l-.347-1.33,1.506.189A18.609,18.609,0,0,0,54,7.874c-.049.04-.105.081-.147.121l-.23.221-.219-.23c-.1-.107-.214-.208-.328-.309a2.522,2.522,0,0,1-.77-.965c-.087-.245.026-.471.248-.774A15.325,15.325,0,0,0,40.583.5a15.682,15.682,0,0,0-7.636,1.942,13.669,13.669,0,0,0-5.6,5.806,17.637,17.637,0,0,0-1.528,4.033c.078.143.155.282.224.407.368.657.612,1.092.433,1.474a4.2,4.2,0,0,1-1.1,1.3c-.023.393-.066.783-.064,1.175a22.8,22.8,0,0,0,.722,5.675,11.908,11.908,0,0,0,1.734,3.789,14.28,14.28,0,0,0,3.369,3.255,22.5,22.5,0,0,0,4.455,1.942,9.591,9.591,0,0,0,2.245.152,14.962,14.962,0,0,0,5.292-.914,1.77,1.77,0,0,0,1.155-1.876,1.882,1.882,0,0,0-.383-1.275,1.087,1.087,0,0,0-.393-.318l-.04.169-.149-.144-.748.967.159-1.043-.244.049a6.964,6.964,0,0,1-1.978.3,6.746,6.746,0,0,1-2.972-.722,4.105,4.105,0,0,1-1.3-1.484,10.066,10.066,0,0,1-1.37-3.845,47.51,47.51,0,0,1-.458-6.777,15.05,15.05,0,0,1,2.323-9.024A5.033,5.033,0,0,1,40.885,3.2a5.208,5.208,0,0,1,4.416,2.7q2.363,3.619,2.361,13.327c0,.348-.014.695-.02,1.043.175.511.362,1.027.53,1.529l.488,1.45-.344.077c-.108.023-.243.061-.378.1-.193.052-.344.087-.474.11-.013.126-.016.253-.03.38q-.3,2.625-.342,3.313a31.991,31.991,0,0,1-.894,5.616,21.158,21.158,0,0,1-2.762,6.625,19.611,19.611,0,0,1-4.8,5.216,27.923,27.923,0,0,1-6.816,3.674,7.914,7.914,0,0,0-2.208,1.028,1.389,1.389,0,0,0-.381,1.028,2.217,2.217,0,0,0,.611,1.409q.951.076,1.447.077a22.213,22.213,0,0,0,7.041-1.523A26.516,26.516,0,0,0,46.521,45.6a27,27,0,0,0,6.167-7.236,39.669,39.669,0,0,0,2.78-5.424,34.181,34.181,0,0,0,1.981-10.966A30.423,30.423,0,0,0,55.9,11.809ZM29.434,19.475l-.212-.3c-.061-.084-.142-.189-.224-.293-.367-.468-.533-.684-.319-.915.487-.523,1.021-1.008,1.535-1.476l.875-.8.185,2.042ZM42.693,3.05,42,1.811l.491-.04a1.037,1.037,0,0,0,.114-.017.853.853,0,0,1,.482.017.685.685,0,0,1,.329.371c.016.032.03.062.046.09l.178.28Zm7.454,18.083.9-1.51.41,1.762Zm4.039-10.039a.916.916,0,0,1-.475-.146.6.6,0,0,1-.195-.492c0-.036,0-.074-.009-.105l-.049-.28,1.056-.3.245,1.428-.448-.087c-.042-.007-.084-.012-.126-.016" transform="translate(11.239 0.222)" fill="#070203"/>
      <path id="パス_71894" data-name="パス 71894" d="M314.237,36.257a19.358,19.358,0,0,1-4.3,7.158,8.934,8.934,0,0,1-4.489,2.552,43.038,43.038,0,0,1-8.986.8q-7.995,0-9.556-.8A2.023,2.023,0,0,1,285.872,44l.077-8.231c-.082-1.639-.129-3.637-.144-5.955-.013.029-.026.053-.04.084-.183.406-.318.7-.6.7h-.046a8.968,8.968,0,0,1-2.048-.5,5.255,5.255,0,0,1-.793-.391l-.221-.036c-.078-.013-.16-.029-.244-.045l-.3.13-.068-.673,0-.012-.084-.827.606.547.051.029.085-.048a2.234,2.234,0,0,1,1.222-.4,6.876,6.876,0,0,1,1.743.5c.224.087.449.175.676.25l.065.023c0-.31,0-.6,0-.926q0-.308.038-1.3c.853-.09,1.9-.159,3.129-.208l.261-2.121.738,1.967c.014.039.032.078.046.117,1.311-.038,2.793-.059,4.468-.059a30.225,30.225,0,0,1,5.632.267,2.766,2.766,0,0,1,1.523,1.028A15.354,15.354,0,0,1,303,32.337q.427,1.9.578,2.513h.793l1.07-2.835.342.287c.085.071.2.153.312.234.056.039.1.074.15.111-.019-.569-.048-1.235-.087-2q-.113-2.266-.114-3.294,0-.645.058-1.789t.058-5.141q0-1.75-.152-5.141l-2.208-.038-.481.038a52.036,52.036,0,0,1-1.333,5.6,3.914,3.914,0,0,1-1.219,1.656,9.416,9.416,0,0,1-3.587.741q-2.894.269-9.71.267a13.8,13.8,0,0,1-1.637-.114v-4.8l-.077-6.4q0-6.548.114-7.5,3.654-.152,8.3-.152,4.074,0,7.614.3,1.941.154,2.322.191a10.338,10.338,0,0,1,2.436.3,17.532,17.532,0,0,1,2.44,3.5l1.523,2.716q.572,1.486.914,2.247c.664.052,1.1.077,1.3.077l1.561-.077c.026-.3.038-.533.038-.686l-.077-1.561V3.754a2.956,2.956,0,0,0-.686-2.056A60.141,60.141,0,0,0,306.7,1.12l-6.891.077q-6.853,0-15.344.342-5.673.23-7.044.228a50.861,50.861,0,0,1-6.967-.419q-1.6-.227-3.769-.342L266.5,4.041q.953.115,1.675.152a25.074,25.074,0,0,1,4.188.533q.723.152,1.142.228a1.868,1.868,0,0,1,1.142.533,7.111,7.111,0,0,1,.077.761l.342,4.722-.046,4.3.191,6.092-.033,4.307.114,14.353-.038,1.18q.039,1.562.038,2.208a7.938,7.938,0,0,1-.39,2.663c.088.192.186.377.269.572.121.29-.058.383-.653.692-.126.065-.25.129-.347.182l-.448.244-.046-1.158a18.355,18.355,0,0,1-4.292.8,24.031,24.031,0,0,0-2.888.419v2.627l4.606-.152h1.6q6.663-.381,11.231-.381,9.182,0,15.68.267,9.257.381,11.39.38,1.447,0,3.916-.114l.69-4.342,1.409-7.2.228-1.142c.05-.43.115-.963.191-1.6-.559-.025-.976-.038-1.256-.038q-.763,0-1.942.114M276.147,3.292l-.3.313-.074-.453-.272-.1.182-.195-1.242-.866,1.18.1a.826.826,0,0,0,.1,0c.16,0,.394-.007.513.195a.7.7,0,0,1,.074.2l.074.091.264.185-.035.036,1.367.518-1.051.93-.771-.943Zm1.359,30.4a1.042,1.042,0,0,0-.111.09l-.237.225-.218-.244c-.03-.033-.066-.066-.1-.1a.56.56,0,0,1,.043-1.017,1.149,1.149,0,0,0,.108-.088l.237-.222.218.241a.807.807,0,0,0,.1.1.559.559,0,0,1-.04,1.017m1.538-8.629a.472.472,0,0,1-.321.338,2.49,2.49,0,0,1-.469.039c-.1,0-.191,0-.283-.006l-.684-.007.628-1.873.348.248c.068.049.137.094.206.139a2.185,2.185,0,0,1,.549.442.758.758,0,0,1,.026.68m.147,12.443.891-1.265.43,1.49Z" transform="translate(118.324 0.447)" fill="#070203"/>
      <path id="パス_71895" data-name="パス 71895" d="M27.55,8.452a1.327,1.327,0,0,1-.309.131l-.5.162h0l-.427.14.458-.632-.806-.342.941-.16.129-.78,1.617.856a16.01,16.01,0,0,0-1.339-1.8A15.329,15.329,0,0,0,15.269.5,15.713,15.713,0,0,0,7.635,2.445a13.681,13.681,0,0,0-5.6,5.806A17.741,17.741,0,0,0,0,16.647,22.779,22.779,0,0,0,.722,22.32a11.879,11.879,0,0,0,1.734,3.789,14.252,14.252,0,0,0,3.369,3.255,22.351,22.351,0,0,0,4.453,1.942,9.608,9.608,0,0,0,2.247.152,14.93,14.93,0,0,0,5.292-.914,1.767,1.767,0,0,0,1.154-1.876,1.891,1.891,0,0,0-.381-1.275,1.1,1.1,0,0,0-.838-.433l-.578.114a6.966,6.966,0,0,1-1.98.3,6.744,6.744,0,0,1-2.97-.722,4.1,4.1,0,0,1-1.3-1.484,10.088,10.088,0,0,1-1.369-3.845A47.287,47.287,0,0,1,9.1,14.55a15.061,15.061,0,0,1,2.322-9.024,5.041,5.041,0,0,1,2.891-2.134q.087-.043.173-.091a2.59,2.59,0,0,1,.618-.269.686.686,0,0,1,.539.179,5.206,5.206,0,0,1,4.346,2.7q2.361,3.617,2.361,13.327c0,.4-.014.8-.023,1.2a4.294,4.294,0,0,1,.8.669,6,6,0,0,0,.494.461l.4.318-.459.218c-.173.081-.342.173-.513.267a7.591,7.591,0,0,1-.835.391c-.03.388-.049.777-.091,1.164-.038.326-.069.605-.1.887l2.752,2.627-.332.218c-.114.075-.238.179-.364.282a1.683,1.683,0,0,1-.894.5A.457.457,0,0,1,23,28.391a6.868,6.868,0,0,1-1.274-.715,31.789,31.789,0,0,1-.845,5.17,21.107,21.107,0,0,1-2.761,6.625,19.567,19.567,0,0,1-4.8,5.216A27.923,27.923,0,0,1,6.51,48.36,7.914,7.914,0,0,0,4.3,49.388a1.389,1.389,0,0,0-.381,1.028,2.217,2.217,0,0,0,.611,1.409q.951.076,1.445.077a22.181,22.181,0,0,0,7.045-1.522A26.461,26.461,0,0,0,21.208,45.6a26.973,26.973,0,0,0,6.167-7.234,39.6,39.6,0,0,0,2.78-5.425,34.138,34.138,0,0,0,1.786-7.9l-.374-.126.329-.511c.038-.062.075-.121.113-.175.061-.751.116-1.5.126-2.256,0-5.832-1.144-10.5-3.4-14.027ZM3.28,15.081c-.068.066-.137.131-.195.2l-.332.387-.2-.469a2.553,2.553,0,0,0-.124-.241,1.2,1.2,0,0,1-.225-.8,1.456,1.456,0,0,1,.479-.715c.068-.069.136-.137.195-.206l.336-.4.2.485c.033.079.077.162.12.244a1.319,1.319,0,0,1,.224.819,1.36,1.36,0,0,1-.477.7M16.928,27.695l1.232.845-1.4.52ZM9.977,29.043a.84.84,0,0,0,.1-.068l.253-.205.674.875-.855.7-.2-.26c-.022-.029-.052-.058-.079-.088a.643.643,0,0,1-.244-.511.65.65,0,0,1,.354-.439M8.312,5.278c-.081.036-.162.074-.244.113a3.466,3.466,0,0,1-.754.287.446.446,0,0,1-.1.01.825.825,0,0,1-.485-.224c-.043-.032-.085-.064-.124-.088l-.331-.195.254-.287c.051-.058.1-.134.156-.206.182-.256.39-.511.664-.49a1.652,1.652,0,0,1,.768.364c.077.053.152.107.228.155l.524.316ZM24.477,6.7a2.9,2.9,0,0,0-.286.105,1.872,1.872,0,0,1-.661.175.72.72,0,0,1-.237-.039,1.2,1.2,0,0,1-.578-.689c-.046-.094-.091-.188-.14-.267l-.235-.374.43-.1c.092-.023.189-.056.286-.088a1.4,1.4,0,0,1,.882-.1,1.15,1.15,0,0,1,.579.657,2.635,2.635,0,0,0,.137.247l.235.361Z" transform="translate(0 0.222)" fill="#070203"/>
      <path id="パス_71896" data-name="パス 71896" d="M495.61,1.016q-4.949.305-7.2.3-.492,0-2.513-.077L475.013.788l.114,3.352a12.859,12.859,0,0,0,1.333.113,14.9,14.9,0,0,1,5.064.914,8.62,8.62,0,0,1,.267,1.219l.017.771.2-.326.549,1.415-.719-.064.183,4.182-.114,2.056.077,5.064q0,.23-.267,7.767l.038,2.056-.077,8.681.038,4.492a6.558,6.558,0,0,1-.686,3.275,16.892,16.892,0,0,1-3.694,1.256q-1.752.42-2.513.647v.784l.66.318-.277.425,2.075.367-2.318.221c-.061.006-.1.01-.14.016V50.4h0q.76-.037,3.274-.266,3.842-.381,5.864-.381l1.7.019a.983.983,0,0,1-.228-.622A3.655,3.655,0,0,1,486,47.647c.137-.256.29-.54.442-.868l.248-.537.309.505c.191.312.383.576.549.8.358.49.617.843.534,1.226a2.8,2.8,0,0,1-.5,1.019l3.119.033q4.531.457,5.064.534a7.564,7.564,0,0,0,.991.113c.127,0,.6-.025,1.409-.077a5.584,5.584,0,0,1,.761-.036q.037-.882.038-1.3a15,15,0,0,0-.152-1.9q-1.98-.266-2.322-.3a39.037,39.037,0,0,1-4.227-.687,3.668,3.668,0,0,1-.152-.875l.038-1.444-.02-1.961-1.35,1.005-.807-2.011.338-.1a2.944,2.944,0,0,0,.29-.1,1.427,1.427,0,0,1,.926-.143c.306.094.381.448.461.822.025.111.046.221.075.312l.068.212-.056-5.647.114-5.1-.038-10.052q0-3.463.114-9.9a24.881,24.881,0,0,1-.114-2.666,13.442,13.442,0,0,1,.228-2.856,25.459,25.459,0,0,1,3.217-.97q1.96-.477,3.484-1.011.076-1.027.077-1.675,0-.5-.038-1.219-.723.039-3.5.228M482.441,24.035l.071-.423c.006-.045.009-.092.013-.14a.769.769,0,0,1,.185-.549.725.725,0,0,1,.57-.142c.048,0,.094,0,.137,0l.224-.014.442,1.05Zm6.3,19.046c-.144.173-.273.335-.39.485a4.256,4.256,0,0,1-.9.946.343.343,0,0,1-.2.059.765.765,0,0,1-.361-.126c-.036-.022-.872-.52-.832-.992a2.565,2.565,0,0,1,.5-1.134c.081-.127.163-.254.232-.381l.153-.282,2.043,1.129Zm.293-13.023-.957-.478,1.109-.946.68.914Z" transform="translate(210.822 0.35)" fill="#070203"/>
      <path id="パス_71897" data-name="パス 71897" d="M294.082,24.556v-.367c-.045.121-.09.244-.136.367Z" transform="translate(130.513 10.74)" fill="#070203"/>
    </g>
  </g>
</svg>
