<svg id="グループ_6689" data-name="グループ 6689" xmlns="http://www.w3.org/2000/svg" xmlns:xlink="http://www.w3.org/1999/xlink" width="566.257" height="36.097" viewBox="0 0 566.257 36.097">
  <defs>
    <clipPath id="clip-path">
      <rect id="長方形_8756" data-name="長方形 8756" width="566.257" height="36.097" transform="translate(0 0)" fill="none"/>
    </clipPath>
  </defs>
  <g id="グループ_6689-2" data-name="グループ 6689" clip-path="url(#clip-path)">
    <path id="パス_71870" data-name="パス 71870" d="M62.2,16.666a8.777,8.777,0,0,0,1.635-3.06,13.821,13.821,0,0,0,.48-2.364l-.079.1-.163-.265a5.856,5.856,0,0,0-.348-.476c-.339-.435-.659-.845-.533-1.2a5.349,5.349,0,0,1,1.069-1.581l.1-.124A9.973,9.973,0,0,0,62.4,2.8,6.1,6.1,0,0,0,57.59.4a5.572,5.572,0,0,0-2.228.447,7.418,7.418,0,0,0-2.07,1.4,7.581,7.581,0,0,0-1.4,2,18.142,18.142,0,0,0-.923,2.849c-.044.185-.062.374-.1.562a1,1,0,0,1,.219-.046,1.168,1.168,0,0,1,.576.269c.06.044.121.087.182.123l.264.156-.233.2c-.049.042-.1.1-.153.153-.155.163-.3.318-.478.318a.3.3,0,0,1-.082-.011,1.643,1.643,0,0,1-.424-.2,10,10,0,0,0-.04,1.039h0a11.639,11.639,0,0,0,1.177,5.535,7.306,7.306,0,0,0,2.807,3.085,7.623,7.623,0,0,0,3.429.605,4.972,4.972,0,0,0,2.268-.711,6.1,6.1,0,0,0,1.819-1.5m-2.35-5.509-.007.645-.037-.1c-.037.893-.1,1.784-.225,2.669a4.376,4.376,0,0,1-.856,2.439,1.852,1.852,0,0,1-1.3.57,1.451,1.451,0,0,1-.869-.263l-.844-1.081a16.84,16.84,0,0,1-.352-4.266A3.808,3.808,0,0,1,53.668,9.8a4.849,4.849,0,0,1-.146-2.919c.06-.269.434-.473.736-.6a2.293,2.293,0,0,1,1.1-.191c.026-.663.055-1.106.088-1.322A4.3,4.3,0,0,1,56.3,2.5a1.816,1.816,0,0,1,1.305-.554,1.63,1.63,0,0,1,1.424.791A7.875,7.875,0,0,1,59.8,6.824v.143l.1.079h0l.32.262-.323.035c-.009,1.073-.018,2.147-.03,3.212l.37,1.018Z" fill="#070203"/>
    <path id="パス_71871" data-name="パス 71871" d="M424.157,26.133l-.108-.2.1-.013-.042-.21a15.764,15.764,0,0,0-2.415.2,20.083,20.083,0,0,1-5.181,5.393,9.948,9.948,0,0,1-5.6,1.805,10.718,10.718,0,0,1-4.1-.809c-.049.136-.1.268-.146.4l.4.239-.623.081a3.783,3.783,0,0,0-.39.084,2.7,2.7,0,0,1-.6.1.488.488,0,0,1-.358-.123,30.288,30.288,0,0,1-2.59-2.92c-.15-.188,0-.36.4-.817l0,0a16.52,16.52,0,0,1-1.452-2.622,5.916,5.916,0,0,1-.386.48.243.243,0,0,1-.18.077,1.162,1.162,0,0,1-.46-.174c-.073-.038-.145-.076-.206-.1l-.214-.093.817-1.616.086.032c-.089-.264-.185-.525-.26-.792a24.332,24.332,0,0,1-.53-3.67l-1.539-1.025.318-.174c.158-.086.316-.193.474-.3a4.792,4.792,0,0,1,.69-.4c0-.27-.005-.54.006-.809q0-7.727,3.4-12.05a7.971,7.971,0,0,1,6.591-3.19,11.721,11.721,0,0,1,6.013,1.568,17.478,17.478,0,0,1,5.22,5.155h2.4a13.84,13.84,0,0,0-.5-3.585q-1.056-3.719-1.4-4.51v0a38.3,38.3,0,0,0-5.386-.987,54.146,54.146,0,0,0-6.158-.33A18.007,18.007,0,0,0,397.6,4.854l.164.108c.383.251.654.412.845.525.32.19.453.269.514.433.285.765.546,1.549.8,2.307l.338,1-.239.053c-.074.017-.168.041-.261.067a2.1,2.1,0,0,1-.457.094.209.209,0,0,1-.217-.14c-.41-.948-.8-1.934-1.338-3.3l-.377-.953c-.111.1-.231.194-.34.3a17.479,17.479,0,0,0-1.382,1.554l.242.437-.835.366c-.112.158-.235.308-.341.469l.045.451.083.627,2.145.868.126.2.006.009.292.461-.414-.156-.033.083q-.1.433-.205.869v.049l-.017.022-.076.33-.1-.1-.523.668.154-1.022-.025-.024.045-.112.06-.4.072.069.2-.49c.009-.037.017-.074.026-.11l-2.23-.843.055-.172c-.02-.216-.04-.429-.061-.642a17.444,17.444,0,0,0-2.492,9.5,19.247,19.247,0,0,0,.832,5.854A15.52,15.52,0,0,0,395.216,29a18.117,18.117,0,0,0,3.726,3.452l-.182-.437.4-.176q.2.433.4.87l.57.514a14.628,14.628,0,0,0,2.416,1.155l.116-.18.1.252a14.71,14.71,0,0,0,2.119.588,29.754,29.754,0,0,0,6.129.6,35.007,35.007,0,0,0,7.159-.619,11.2,11.2,0,0,0,4.522-1.86l.369-1.239.238-.791q.526-2.927.605-3.348c.119-.532.207-1.07.279-1.609l-.025-.046Zm-7.1-24.914c.026-.056.054-.113.079-.17l.132-.3.227.236q.129.135.264.267l.112.108L417.8,1.5c-.1.216-.2.433-.3.65l-.145.311-.221-.261c-.022-.026-.051-.051-.079-.079-.106-.1-.239-.223-.2-.4a2.341,2.341,0,0,1,.2-.507M407.533,1.2l.049-.069a4.156,4.156,0,0,1,.3-.395c.1-.115.209-.084.323-.018l.04-.028-.011.046c.032.02.065.042.1.065l.373.248-.78.529-.229,0h-.006l-.283,0h-.15l-.268,0Zm-2.2.062-.878.781-.238-.921Zm-3.421,5.456.284,1.222-.906-.174Zm-5.321,18.92-.042-.374c-.007-.061-.017-.123-.027-.183a2.054,2.054,0,0,1-.034-.523.539.539,0,0,1,.243-.346.845.845,0,0,0,.082-.072l.187-.191.637.93Zm22.486,5.847-.005.011-.006,0-.089.114-.079-.043c-.068.028-.137.056-.205.086-.086.076-.173.151-.265.22a.274.274,0,0,1-.174.056.627.627,0,0,1-.143-.021l-.8-.087.693-.341.454-.2.069-.061.125-.112.74-.721.326.294Zm3.221.936-.069.116-.017.119-.337.045h-.007l-.218.029-.233.031.194-.322-.1-.722.351.3.584-.971-.2,1.329Zm1.317-4.646c-.166.185-.319.372-.451.534-.3.365-.46.565-.635.565a.285.285,0,0,1-.107-.024,6.585,6.585,0,0,1-1.166-.7c-.127-.089-.255-.178-.383-.264l-.282-.188.286-.18a3.149,3.149,0,0,0,.263-.193,1.315,1.315,0,0,1,.759-.376h0a2.978,2.978,0,0,1,1.035.266c.175.066.366.139.583.208l.322.1Z" fill="#070203"/>
    <path id="パス_71872" data-name="パス 71872" d="M406.269,32.307l.084-.2c-.113-.052-.231-.094-.342-.15.064.091.138.179.2.269l.058.083" fill="#070203"/>
    <path id="パス_71873" data-name="パス 71873" d="M445.128,16.351l-.3-.007-.267.352-.463-.366-2.87-.059a10.359,10.359,0,0,1-1.239-.157q-.078-1.473-.078-1.873,0-.447.025-.869c.036-.475.053-.757.053-.844,0-.159-.008-.4-.025-.713l.025-3.348c0-.141-.008-.307-.025-.5V7.756l.052-.9.026-1.159-.026-.423-.079-.975a.835.835,0,0,1,.58-.766l4.642-.738c.034-.18.038-.365.055-.548a4.359,4.359,0,0,1-.547.148.339.339,0,0,1-.054,0c-.214,0-.348-.251-.545-.617-.06-.113-.121-.226-.176-.314l-.133-.208.223-.108c.143-.069.285-.143.428-.217.024-.013.05-.025.074-.037C444.191.877,443.9.866,443.6.87A5.253,5.253,0,0,0,442.39,1q-3.375.264-4.246.264-.554,0-1.278-.039t-1.437-.04q-1.555-.027-4.773-.369c-.245.017-.685.026-1.317.026a7.955,7.955,0,0,0-1.478.105,3.377,3.377,0,0,0-.157.87c0,.112.017.349.051.7q.094.141.2.321a5.049,5.049,0,0,0,.9.167l.3.078c0-.02-.018-.034-.017-.057a.441.441,0,0,1,.223-.312c.023-.017.045-.033.064-.049l.167-.155.491.572-.1.1c.333.034.665.077,1,.127l.092-.925.319.275c.018.016.041.032.064.049.1.077.249.18.2.353-.036.113-.079.221-.118.331.145.027.29.051.428.065a1.861,1.861,0,0,1,.461.106,3.182,3.182,0,0,1,.212.633c.036.294.055.59.083.885l.112-.2.685.462-.575,1.016-.126-.109c.029.51.053,1.02.057,1.532V8.911l.027,2.3-.051,2.106a.259.259,0,0,0,.024-.022l.2-.19.1.163.009-.068c.018-.115.038-.232.054-.355l.042-.334.287.172c.109.065.223.121.328.172.282.137.506.246.519.469a1.973,1.973,0,0,1-.169.787c-.033.091-.066.182-.092.273l-.071.24-.228-.1c-.062-.027-.138-.051-.215-.077a1.22,1.22,0,0,1-.408-.194l-.067.178-.266-.311.006.072q0,4.35-.08,5.431l-.025.634c0,.436.006.984.015,1.585h.036l-.032.22c.017.978.045,2.134.086,3.519l-.092,1.759c.356-.069.72-.131,1.075-.186l.254-.04.136-.088.389-.784v.533l.334-.215-.286.573a1.819,1.819,0,0,1,1.453,1.071,3.475,3.475,0,0,1-.008,1.713,4.456,4.456,0,0,0-.1,1.183c.02.154-.106.261-.216.337a1.187,1.187,0,0,1-.558.22.321.321,0,0,1-.148-.032c-.316-.166-.848-.5-.877-.9-.06-.868-.051-1.75-.042-2.6,0-.179,0-.358.005-.537l-1.476.953-.189,3.638a13.085,13.085,0,0,1-1.451.423l-3.3.58a13.179,13.179,0,0,0-.159,1.871,44.155,44.155,0,0,0,5.117-.208l.049,0,.02-.032c.035-.055.066-.116.1-.179a.959.959,0,0,1,.395-.479c.191-.091.4.033.6.155.06.036.119.073.175.1l.205.1-.106.2c-.008.016-.016.037-.024.055l.434-.02q2.373,0,3.691.132l3.718.158a3.959,3.959,0,0,0,.448.026c.334.017.7.026,1.081.026q.66,0,1.608-.026a5.945,5.945,0,0,0,.106-.95,7.967,7.967,0,0,0-.08-.816,1.744,1.744,0,0,0-.58-.238,2.734,2.734,0,0,1-.448-.132l-3.876-.606-.263-.158a12.583,12.583,0,0,1-.08-1.4V22.573c0-.141-.017-.449-.053-.923v-.344l.1-1.976a4.088,4.088,0,0,1,1.134-.185h.739c.315,0,.7-.009,1.159-.027a3.981,3.981,0,0,1,.422-.025l.185.025.237.027.676.007,1.051-1.015.056-.106a.579.579,0,0,1,.183-.191l-.255-.373.344-.27.056.059a1.783,1.783,0,0,1,.151.175c.029.041.054.086.08.129l.311-.244-.177.707h0l-.1.412-.128-.188-.163.157c-.135.252-.265.506-.4.759l1.811.019.017-.292-.191-.162.2.064.094-1.615.366.672c.013.024.028.047.043.07a.564.564,0,0,1,.127.339.519.519,0,0,1-.166.317.572.572,0,0,0-.051.061l-.172.234.415.135.035-.1.013.01.318-2.559-1.373-.007Zm-6.893,15.41-.531.283-.076-1.931-.572.336.345-.672s.027-.051.051-.1l-.027-.044.01-.011-.274-.553.886.542.213.13-.2.119v.03c.223.449.451.912.649,1.381.091.2-.039.266-.472.489" fill="#070203"/>
    <path id="パス_71874" data-name="パス 71874" d="M79.815,6.55l.392.247L84.587.079,84.323.1l-2.4-.1L81.58.079Q63.965,27.554,58.192,35.991l.606-.079,1.608.08a5.426,5.426,0,0,0,.765,0L79.733,7.524Zm-5.647,6.832-.2-.174c-.028-.023-.064-.05-.1-.076-.147-.107-.3-.218-.24-.4a2.592,2.592,0,0,1,.233-.472l.2-.354.686.461Z" fill="#070203"/>
    <path id="パス_71875" data-name="パス 71875" d="M89.958,19.276,89.9,19.25a1.832,1.832,0,0,0-.185-.076.906.906,0,0,1-.511-.338.389.389,0,0,1-.015-.317,6.115,6.115,0,0,0-1.465-.875l-.655.512-.11-.268c-.028-.07-.067-.141-.1-.213a1.959,1.959,0,0,1-.16-.373,6.127,6.127,0,0,0-1.321-.159,5.733,5.733,0,0,0-2.228.435,7.152,7.152,0,0,0-2.07,1.384,7.611,7.611,0,0,0-1.4,2,18.114,18.114,0,0,0-.922,2.874,9.671,9.671,0,0,0-.264,2.531h0a11.752,11.752,0,0,0,1.16,5.538,7.155,7.155,0,0,0,2.824,3.08,7.541,7.541,0,0,0,3.4.606,5,5,0,0,0,2.294-.712,5.762,5.762,0,0,0,1.793-1.5c.047-.055.087-.117.133-.174a.245.245,0,0,1,.064-.2c.1-.1.2-.2.311-.291a8.521,8.521,0,0,0,1.153-2.393,13.8,13.8,0,0,0,.58-4.192,9.877,9.877,0,0,0-2.03-6.6c-.068-.089-.146-.168-.219-.253M79.839,25.462l.7.325-.828.925-.6-1.074Zm1.115,5.486-1.465-.763.271-.21q.181-.144.361-.294a5.807,5.807,0,0,1,1.075-.756c.223-.115.436.109.756.444.093.1.185.195.267.268l.194.176Zm6.636-7.4v1.9l.026,1.767a27.757,27.757,0,0,1-.264,3.876,4.467,4.467,0,0,1-.844,2.439,1.809,1.809,0,0,1-1.292.567,1.453,1.453,0,0,1-.87-.264L83.5,32.748q-.343-.581-.343-4.588,0-.686-.079-2.531h0c.015-1.983.05-3.273.1-3.883l-1.424-.5,1.468.139a4.212,4.212,0,0,1,.855-2.165,1.86,1.86,0,0,1,1.318-.554,1.631,1.631,0,0,1,1.424.791,7.9,7.9,0,0,1,.579,1.689c.083.044.17.082.246.131l.33.2-.431.535a7.819,7.819,0,0,1,.041,1.53" fill="#070203"/>
    <path id="パス_71876" data-name="パス 71876" d="M133.51,16.37l-.2.006-4.746-.026h-1.9l-3.9-.079c-.265-.018-.527-.063-.79-.1a4.884,4.884,0,0,1-.609.176l-.067.016.323.539-.6-.241c-.054-.021-.108-.044-.165-.06a.222.222,0,0,1-.145-.26l-.01,0,.02-.068c.008-.034.016-.068.027-.107l.135-.5.007.012a2,2,0,0,1,.42-.874,1.04,1.04,0,0,1,.15-.114c-.007-.19-.011-.35-.011-.446,0-.3.008-.589.026-.87q.052-.713.053-.844,0-.237-.026-.712l.026-3.349c0-.14-.009-.307-.026-.5V7.755l.053-.9.026-1.16-.026-.422-.079-.976a.831.831,0,0,1,.58-.765l1.093-.174-.123-.234,2.532-.427.018.1.132.036.07-.047.058.083v0l.034.049.828-.131a6.221,6.221,0,0,0,.1-1.028q0-.237-.026-.791A10.649,10.649,0,0,0,125.134.87,5.207,5.207,0,0,0,123.921,1q-3.375.264-4.245.264-.555,0-1.279-.04t-1.437-.04q-1.556-.025-4.772-.369c-.157.011-.4.018-.716.022l.252.552-.594.559-.2-.421a2.829,2.829,0,0,1-.207-.487.221.221,0,0,1,.035-.2,7.867,7.867,0,0,0-1.363.1,3.345,3.345,0,0,0-.158.87q0,.212.079.976a5.093,5.093,0,0,0,1.081.211l.4.1a20.127,20.127,0,0,1,2.188.264c.176.035.347.062.514.079a1.88,1.88,0,0,1,.461.105,3.2,3.2,0,0,1,.211.633,32.081,32.081,0,0,1,.237,3.586V8.911l.026,2.294-.053,2.215.053.765q0,2.154-.02,3.505l.063.1-.065.044c-.013.84-.032,1.44-.057,1.784l-.026.633q0,1.766.1,5.326l-.343,6.592a13.282,13.282,0,0,1-1.45.422l-3.3.58a13.183,13.183,0,0,0-.158,1.872h.006a44.361,44.361,0,0,0,5.116-.208c.067-.01.236-.022.489-.037a6.19,6.19,0,0,1,.131-.947c.061-.27.436-.475.74-.6.151-.06.919-.353,1.282-.119a3.927,3.927,0,0,1,1.4,1.634c.577.022,1.08.053,1.5.1l3.718.158a3.521,3.521,0,0,0,.448.026q.5.026,1.081.026.659,0,1.608-.026a6.044,6.044,0,0,0,.105-.949,7.981,7.981,0,0,0-.079-.817,1.75,1.75,0,0,0-.58-.237,2.775,2.775,0,0,1-.448-.132l-3.876-.606-.264-.158a12.592,12.592,0,0,1-.079-1.4V22.572c0-.141-.018-.448-.053-.923v-.343l.1-1.978a4.076,4.076,0,0,1,1.134-.185h.738c.316,0,.7-.009,1.16-.026a3.966,3.966,0,0,1,.422-.026l.185.026.237.026,1.876.02c-.432-.474-.878-.964-1.3-1.466-.137-.168-.006-.305.213-.534.172-.18.3-.309.46-.185.517.4,1.012.824,1.491,1.231l.334.284-.518.678,5.6.06,0-.009c-.021-.963-.033-1.907-.044-2.852m-17.141,4.775c0-.028.008-.058.011-.088a.646.646,0,0,1,.109-.342.422.422,0,0,1,.361-.123.664.664,0,0,0,.078,0l.178-.021.239.758-1.033.108Zm1.183,2.758,0,0-.1.107,0,0-.237.242-.124-.308c-.014-.034-.026-.071-.038-.108l-1.114-.514.955-.018a.582.582,0,0,0,.068-.007.375.375,0,0,1,.361.091.576.576,0,0,1,.078.125l.371.169Zm-.4-5.109.622-.906.379,1.029Zm3.144,7a3.967,3.967,0,0,1-.795.846c-.106.094-.213.187-.314.284l-.178.17-.148-.2c-.054-.07-.126-.148-.2-.226-.231-.249-.432-.465-.339-.691a4.826,4.826,0,0,1,.629-1c.113-.152.236-.318.366-.505l.2-.28.173.294c.1.177.219.343.32.49.262.378.418.607.288.815m.68-15.29.4.987L120.4,11.4Zm10.072,7.123-.228.1a.2.2,0,0,1-.1.028.247.247,0,0,1-.162-.07l-.005,0-.054-.057-.283-.292,2.517-.479Z" fill="#070203"/>
    <path id="パス_71877" data-name="パス 71877" d="M389.129,32.906a6.332,6.332,0,0,1-2.018-1.013,20.378,20.378,0,0,1-2.071-3.177l-.33-.536a3.617,3.617,0,0,1-.422-.212l-.162-.027-.169-.031-.207.09-.047-.466v-.008l-.059-.569.4.362.057.033c.019-.012.039-.023.06-.034l.013-.008-2.216-3.587-.369.01-.026-.481-1.273,0,1.16-.347-.626-1.014q-.686-1.107-1.793-2.689a15.273,15.273,0,0,1-.844-1.292,10.513,10.513,0,0,0,4.894-2.829l-.628-.3.528-.556.141.065a.771.771,0,0,0,.077.028.515.515,0,0,1,.3.2.269.269,0,0,1,.018.092,7.588,7.588,0,0,0,1.716-4.824,8.175,8.175,0,0,0-3.19-6.315q-3.2-2.755-8.6-2.755a63.82,63.82,0,0,0-6.513.316l-3.3.158-1.4.079q-.159,0-2.058-.158-1.845.025-2.451.026a15.4,15.4,0,0,0-2.426.211l-.106.29.054,1.582c.423.079,1.25.157,2.431.236l.331-.788.428.885,1.213.247q.133,1.53.132,7.014,0,2.505-.078,5.379l-.054,1.424.054,2.452L359.6,23.23l.026,5.88q0,2.161-.053,2.531a6.654,6.654,0,0,1-.158.765,11.235,11.235,0,0,1-2.427.566,6.028,6.028,0,0,0-2.03.541,6.054,6.054,0,0,0-.079.818c0,.123.018.4.053.844h1.129a27.725,27.725,0,0,0,3.033-.185l3.638-.237q.291-.025.976-.026,1.056,0,6.724.5l1.089-.053q.132,0,.633.026a13.393,13.393,0,0,0,.1-1.951,21.621,21.621,0,0,0-3.533-1,6.078,6.078,0,0,1-.8-.209c-.048.216-.116.43-.183.64-.055.171-.111.342-.153.512l-.088.357-.271-.247c-.155-.139-.318-.273-.479-.406A4.826,4.826,0,0,1,365.6,31.72c-.158-.264.052-.6.4-1.151.155-.243.332-.524.5-.834l.167-.312.079.111a2.235,2.235,0,0,1,.108-.287l.07-2.641-.108-5.856a17.832,17.832,0,0,1,.08-1.819q1.265-.052,1.793-.053a4.936,4.936,0,0,1,2.716.554,10.316,10.316,0,0,1,.962,1.261c.078-.106.18-.227.327-.4.1-.11.194-.221.267-.312l.163-.2.764.851c.482.535.965,1.07,1.43,1.62.247.291.467.608.678.914.021.028.039.056.06.084l.448-1.078v0l.109-.265v0l.134-.534.265.5c.044.08.087.164.131.249l.507.979-.775-.625c-.143.39-.288.781-.426,1.18l.4.239-.626.082c-.12.016-.254.05-.392.083a2.587,2.587,0,0,1-.6.1.491.491,0,0,1-.358-.122c-.623-.6-1.192-1.237-1.7-1.837.024.053.05.1.072.155q2.822,5.589,3.982,8.147.447.976,1.55,2.955l.9,1.74q.422-.052,1.134-.132c1.037-.124,1.654-.185,1.847-.185l2.636.022a13.721,13.721,0,0,1,2.085.138h1.081l1.371.185.527-.026h.712q.025-.369.026-.606a2.4,2.4,0,0,0-.157-.791,8.351,8.351,0,0,0-1.819-.9m-5.363-20.622.324,1.02-.916-.129ZM360.621,1.8l.366,1-.974-.124Zm0,7.357-.121-.247c-.043-.086-.093-.171-.141-.256a2.147,2.147,0,0,1-.307-.739c-.045-.306.452-.661.457-.664a.3.3,0,0,1,.324-.054,1.939,1.939,0,0,1,.224.155l-.777-.736L361.357,5.4l.127.346c.024.063.054.127.084.19a1.216,1.216,0,0,1,.157.57,1.466,1.466,0,0,1-.205.586c-.036.067-.069.133-.1.2l-.114.265c.058.051.114.1.173.155.079.071.158.145.247.222l.194.171Zm19.4-3.969.362.683a.736.736,0,0,0,.047.072.565.565,0,0,1,.123.333.525.525,0,0,1-.165.319.477.477,0,0,0-.053.06l-.439.6Zm.709,1.754.3.068.01,0,.346.079.151.034h0l.043.009-.457.272-1.8,1.218Zm-3.407,1.716-.775-.749a10.384,10.384,0,0,1,.344,2.684,5.388,5.388,0,0,1-1.872,4.3q-1.873,1.608-6.355,1.608-.579,0-1.846-.053v-.735q.025-1.924.079-3.138l-.026-2.874.055-2.17-.026-3.56.026-.5a14.231,14.231,0,0,1,2.083-.132,12.554,12.554,0,0,1,3.718.4A6.115,6.115,0,0,1,375.284,5.3a5.543,5.543,0,0,1,1.147,2.175c.026.088.046.177.07.266l1.628-1.574c.021-.036.04-.073.06-.109a.557.557,0,0,1,.182-.191l-.254-.371.344-.272.057.061a1.443,1.443,0,0,1,.15.173c.029.041.053.086.079.129l.284-.223-.147.684-.092.435-.142-.208-.166.159c-.26.485-.513.973-.765,1.462Zm3.655,22.063c-.027.021-.055.041-.077.061l-.164.156-.15-.168c-.019-.022-.045-.044-.07-.068a.387.387,0,0,1,.03-.7c.026-.021.053-.04.075-.061l.164-.155.15.169c.021.022.047.045.072.067a.48.48,0,0,1,.209.363.474.474,0,0,1-.239.34M381.13,25h-.3l.434-1.3.241.171c.047.034.1.064.144.1a1.522,1.522,0,0,1,.381.308.533.533,0,0,1,.016.477.33.33,0,0,1-.222.228,1.7,1.7,0,0,1-.325.027c-.064,0-.128,0-.189,0s-.118,0-.176,0m2.327,5.8-.68-.037-.149.232-.111-.118-.443.656-.594-1.058.353-.019.271-.014-.156-.164.427.023.083-.123.1.11.5-.766.624.841.031.012.142.007.058.334h0l.154.884.005.03,0,.02Z" fill="#070203"/>
    <path id="パス_71878" data-name="パス 71878" d="M235.113,1.058a46.838,46.838,0,0,1-4.825.237l-5.036-.211h-2.083l-.008.284.129.551-.143-.027-.031,1.192.343.079,2.479-.053a2.665,2.665,0,0,1,1.9.817,3.381,3.381,0,0,1,.58,2.083l.1,1.4q.686,7.989.686,14.37a21.254,21.254,0,0,1-.5,5.4A10.347,10.347,0,0,1,227.4,29.9a6.354,6.354,0,0,1-1.6,1.516,7.794,7.794,0,0,1-2.439,1.2,16.285,16.285,0,0,1-4.72.659,9.67,9.67,0,0,1-4.345-1.108,5.833,5.833,0,0,1-2.373-2.188,10.1,10.1,0,0,1-1.266-4.772l-.343-6.618.1-4.562-.158-2.109.053-2.479-.026-.949q-.027-.526-.026-1.371,0-2.769.316-3.138a2.485,2.485,0,0,1,1.951-.58,21.635,21.635,0,0,0,2.944-.2c-.017-.178-.033-.356-.051-.533l-.114-.855-.025-.051-.116-.116.148-.065-.046-.453.259.259.011-.014.022-.267q-.555.027-2.123.053t-3.586.119q-2.018.093-4.126.092-.607,0-4.087-.185-1.452-.08-2.769-.079-.5,0-.976.026l.079,2.083h0a6.463,6.463,0,0,0,1.1.08,8.518,8.518,0,0,1,3.045.5.2.2,0,0,1,.25-.054c.463.232.912.476,1.362.72l.065.035.478-.3-.191.455.156.084-.113.071.527.372-1.275.024.108-.262-.619-.206a26.981,26.981,0,0,1,.241,4.515l-.026,12.577a29.9,29.9,0,0,0,.4,5.59,10.038,10.038,0,0,0,1.347,3.623l1.189-1.1-.933,1.475c.144.213.279.432.44.634a10.327,10.327,0,0,0,4.417,2.874,20.031,20.031,0,0,0,7.018,1.094,22.679,22.679,0,0,0,6.275-.778,13.961,13.961,0,0,0,4.477-2.1,10.614,10.614,0,0,0,2.769-2.914,9.228,9.228,0,0,0,1-2.874,44.439,44.439,0,0,0,.369-7.2L231.58,14.8q-.054-1.95-.132-3.85-.027-.554-.04-1.081T231.4,8.42a22.523,22.523,0,0,0-.079-2.294q-.079-.9-.079-1.371a1.218,1.218,0,0,1,.369-.976,7.109,7.109,0,0,1,1.951-.4,8.651,8.651,0,0,0,2.057-.343,3.054,3.054,0,0,0,.1-.712,8.118,8.118,0,0,0-.158-1.213ZM212.885,32.3a1.778,1.778,0,0,0-.166.106,1.065,1.065,0,0,1-.538.233h-.028a1.358,1.358,0,0,1-.554-.163c-.065-.03-.131-.061-.2-.085l-.418-.152.376-.239c.067-.043.133-.092.2-.141a1.452,1.452,0,0,1,.61-.32c.212-.044.4.12.567.258a1.607,1.607,0,0,0,.161.128l.3.2Zm18.667-14.577-.944-.146.606-.83Z" fill="#070203"/>
    <path id="パス_71879" data-name="パス 71879" d="M260.959,17.56a11.409,11.409,0,0,0-3.467-2.294,29.441,29.441,0,0,0-3.889-1.529q-4.8-1.422-6.275-2.979a4.653,4.653,0,0,1-1.5-3.243,4.339,4.339,0,0,1,1.516-3.362,5.913,5.913,0,0,1,4.1-1.357A6.3,6.3,0,0,1,256.16,4.9a13.612,13.612,0,0,1,2.32,4.72l.316.053,1.9.132.264-.079a5.53,5.53,0,0,0,.105-1.028,38.885,38.885,0,0,0-.316-4.218,17.5,17.5,0,0,0-.475-2.717h0A28.283,28.283,0,0,0,256.288.658c-.741-.151-1.49-.253-2.242-.33l0,.007-.009-.008c-.5-.051-.991-.1-1.489-.117q-5.853,0-8.859,2.927a9.565,9.565,0,0,0-3.006,7.12,10.016,10.016,0,0,0,1.081,4.336,9.146,9.146,0,0,0,.577,1.057l.249-.185.071.333c.024.113.055.225.086.337.011.04.019.082.03.122a9.267,9.267,0,0,0,1.6,1.653l.011-.02.053.073c.1.075.18.159.277.231a29.376,29.376,0,0,0,6.724,3.058c.238.084.454.164.678.246-.033-.059-.065-.118-.1-.171l-.121-.053.029-.084-.394-.559.275.122-.124-.266.98-.1-.162.476.029-.011a2.59,2.59,0,0,1,.887-.225c.689.008,1.385.071,2.056.131q.409.037.816.071l.284.021-.093.269c-.052.149-.1.338-.155.527-.17.629-.273,1.009-.561,1.015h-.18c-.2,0-.419-.029-.628-.042a9.69,9.69,0,0,1,2.443,1.375,4.612,4.612,0,0,1,.784,6.582,5.768,5.768,0,0,1-2.755,1.992,9.508,9.508,0,0,1-3.138.606,8.835,8.835,0,0,1-2.979-.489,7.566,7.566,0,0,1-2.36-1.318,8.719,8.719,0,0,1-1.806-2.174c-.238-.392-.76-1.517-1.56-3.363l-.612.7-1.053-.84-.836.019v1q0,.711.053,2.425.132,3.323.132,3.612v.29a1.007,1.007,0,0,0,.237.5,5.2,5.2,0,0,0,1.661.659l3.164.923a22.324,22.324,0,0,0,4.4.528,18.222,18.222,0,0,0,4.572-.476,12.1,12.1,0,0,0,3.438-1.541,15.236,15.236,0,0,0,2.452-1.858,7.28,7.28,0,0,0,.944-1.153,11.736,11.736,0,0,1-1.214-2.439l-.032-.086.041-.1a6.076,6.076,0,0,1,1.939-1.122c.217-.079.441-.139.662-.2a13.34,13.34,0,0,0,.191-2.169,10.449,10.449,0,0,0-.593-3.784,9.834,9.834,0,0,0-2.169-3.153m-17.6-3.256-.852-.57.952-.375Zm-.8-1.872-.109-.2c-.033-.061-.081-.133-.127-.206-.182-.284-.3-.471-.156-.634a3.864,3.864,0,0,1,.658-.54c.078-.054.155-.107.229-.164l.205-.152.6,1.131Zm2.221-3.874a5.5,5.5,0,0,1-.97,1.033c-.126.113-.252.226-.373.342l-.171.165-.151-.186c-.062-.076-.144-.156-.225-.238-.246-.244-.477-.474-.414-.733a5.42,5.42,0,0,1,.557-1.247c.122-.226.261-.484.415-.791l.168-.333.211.308c.195.287.385.538.544.747.377.494.548.721.409.933m8.045,10.194c-.065.058-.127.119-.188.179a2.722,2.722,0,0,1-.591.478.214.214,0,0,1-.109.032c-.1,0-.246-.066-.514-.345-.1-.1-.241-.253-.141-.419a4.192,4.192,0,0,1,.5-.652l.319-.375.891.952Zm4.167.3-.2-.506A2.623,2.623,0,0,1,256.6,18c-.037-.179.113-.292.245-.39.033-.025.067-.05.092-.073l.238-.219.415,1.075Zm-11.378,14.52a2.031,2.031,0,0,0-.186.082l-.178.1-.62-.96,1.163-.649.081.258c.02.062.047.126.072.19a1.127,1.127,0,0,1,.126.6c-.032.207-.248.3-.458.381M258.632,20a.5.5,0,0,1-.356-.248c-.023-.028-.045-.057-.067-.08l-.155-.161.557-.516.169.114.47.425-.177.163c-.024.022-.048.05-.072.077a.5.5,0,0,1-.36.226Zm2.249,5.594c-.054.171-.109.342-.151.512l-.089.357-.272-.248c-.153-.139-.317-.272-.479-.406a4.877,4.877,0,0,1-1.145-1.176c-.158-.263.053-.6.4-1.148.154-.244.332-.526.5-.838l.168-.312.2.288c.184.258.361.472.515.658a2.03,2.03,0,0,1,.586,1.009,3.341,3.341,0,0,1-.237,1.3m-.039-3.165-.822-.654.179-.174c.088-.086.174-.175.261-.264a4.655,4.655,0,0,1,.784-.7c.192-.128.4.034.683.257.079.061.158.123.226.167l.257.171Z" fill="#070203"/>
    <path id="パス_71880" data-name="パス 71880" d="M150.467,2.34a.81.81,0,0,1,.659-.158,2.545,2.545,0,0,1,.723.522l.047.04L152,2.722c.04-.316.069-.656.092-1.01l-.429-.031.4-.835c-.691-.049-1.287-.075-1.781-.075a8.954,8.954,0,0,0-1.951.211l-.923.053-3.428.105q-.342.025-.923.026c-.445,0-.89-.027-1.335-.042l.258.94-.906-.174.58-.768q-1.116-.039-2.226-.142l.034.083-.223.072c-.026.009-.057.023-.087.036a.647.647,0,0,1-.262.076.267.267,0,0,1-.157-.05.528.528,0,0,1-.184-.3C138.4.877,138.238.87,138.08.85L135.522.824q-.132,0-.712.026a7.51,7.51,0,0,0-.211,1.5,7.458,7.458,0,0,0,.949.264A16.21,16.21,0,0,1,139.239,3.8a.783.783,0,0,1,.369.343l.185,1.846.158,4.482-.046,1.035.1.037-.106.278c-.017,2.235-.043,3.652-.078,4.237-.045.008-.091.011-.137.019.083.169.165.327.241.471.266.5.443.837.3,1.109a8.846,8.846,0,0,1-1.15,1.567l-.089.106c.256.015.513.029.754.049,0,.029,0,.058,0,.086l.96-.883,1.255,1.427-.276.119a3.631,3.631,0,0,0-.336.172,1.27,1.27,0,0,1-.553.21.4.4,0,0,1-.154-.03,1.818,1.818,0,0,1-.63-.531c-.067-.078-.135-.156-.206-.226l-.056-.055a30.362,30.362,0,0,0,.152,3.06l-.026,2.241a62.233,62.233,0,0,1-.315,7.093c-.335.1-.607.184-.818.237l-2.136.343-2.03.475a10.693,10.693,0,0,0-.132,1.714,3.247,3.247,0,0,0,.9.158q3.429-.344,5.591-.343,4.8,0,6.96.237,1.635.157,2.9.158.185,0,1.239-.026l-.08-1.845A20.554,20.554,0,0,0,148.2,32.09q-.474-.106-1.028-.264.054-1.239.053-2.109l-.053-3.111V22.867q-.1-3.587-.079-4.746l.053-3.349-.025-2.484-.183-.079.182-.36V8.892q0-.132-.026-1.318V6.915q0-.291.053-.844l.026-.343-.026-.686V4.594l.158-.527a8.759,8.759,0,0,1,1.516-.62c.293-.088.8-.211,1.478-.362-.009-.019-.018-.038-.026-.057a2.837,2.837,0,0,0-.129-.271l-.122-.217.23-.094a2.311,2.311,0,0,0,.211-.106m-6.806,7.153a.82.82,0,0,0,.082-.071l.186-.191.636.93-1.045.759-.042-.374c-.007-.061-.017-.123-.026-.183a2.01,2.01,0,0,1-.034-.523.551.551,0,0,1,.243-.347m.143,11.186-.208.112-.02.024-.061,1.2.019.025.086.082,1.062.134-.59.928L143.9,23q-.237-.231-.476-.459l-.057-.007-.333.353.02-.393-.226-.029.24-.254,0-.057-.85-1.121.873-.476-.142-.154.21-.045.018-.355.262.284.565-.7.827.863-1.039.224Z" fill="#070203"/>
    <path id="パス_71881" data-name="パス 71881" d="M185.039,2.376A20.724,20.724,0,0,0,175.52.319a23.512,23.512,0,0,0-3.344.213l-.023.125-.031,1.559-1.155-.455.516-1.127c-.6.1-1.2.212-1.79.357a18.622,18.622,0,0,0-3.519,1.335l-.021.153-.1-.1c-.5.254-1,.523-1.474.822a17.035,17.035,0,0,0-3.8,3.123l.279.052.187-.021,1.763-1.312,0-.006c.019-.041.036-.083.054-.125L163,4.607l.587.186.4.126-.383.233-.036.027.46,2.2L161.3,6.873l0,0-.062.052h-.015l-.11.082-.218-.266h0l-.231-.283c-.081.091-.169.174-.248.266s-.154.2-.233.3l.391.022-.46.96-.243-.581a15.385,15.385,0,0,0-2.039,3.648,18.223,18.223,0,0,0-1.266,6.565l.006,0a18.162,18.162,0,0,0,.56,4.746,22.4,22.4,0,0,0,1.5,4.377,17.278,17.278,0,0,0,2.707,3.618l-.024-.162-.186-.229.231-.054.488-1.28-.073-.086.143-.1.11-.287.058.069.934-2.883,1.954.974,0,0,.221.113.011,0,.271.14-1.767,1.72.558-.951-1.855,1.29,0,.006.011.015-.054.119-.111.34-.028-.033-.326.72.785-.15-.52,1.482a22.241,22.241,0,0,0,4.026,2.829q.241.106,2.241.765a14.853,14.853,0,0,0,2.584.58,28.407,28.407,0,0,0,4.192.29,20.808,20.808,0,0,0,10.352-2.427l.044-.273c.009-.057.016-.114.023-.172a2.387,2.387,0,0,1,.089-.461.573.573,0,0,1,.242-.273c.025-.018.05-.035.072-.054l.245-.216.3.858a16.014,16.014,0,0,0,2.755-2.307A17.881,17.881,0,0,0,194.4,17.506a17.13,17.13,0,0,0-3.012-9.567,16.344,16.344,0,0,0-6.354-5.563M157.291,15.665a.713.713,0,0,0-.053.06l-.436.59.123-2.043.362.666c.013.023.029.046.044.07a.57.57,0,0,1,.127.336.527.527,0,0,1-.167.321m1.562,11.289.276-.78h.157a.811.811,0,0,0,.083-.006.451.451,0,0,1,.377.075.631.631,0,0,1,.165.334.79.79,0,0,0,.026.09l.1.294Zm.585-9.336.554-.855.386.947Zm3.59-7.325c-.038.023-.075.048-.109.072a.637.637,0,0,1-.358.15h0a.52.52,0,0,1-.344-.176.756.756,0,0,0-.07-.059l-.543-.4h2.134Zm20.6-3.037a.576.576,0,0,0,.068-.064c.087-.085.214-.21.353-.193a.493.493,0,0,1,.347.21.729.729,0,0,0,.066.069l.116.1-.323.767-.831-.729ZM164.9,9.356l.379.976-.93-.081ZM184.385,27.4a9.4,9.4,0,0,1-3.911,4.522,10.85,10.85,0,0,1-5.287,1.332,8.471,8.471,0,0,1-3.006-.567,7.627,7.627,0,0,1-2.294-1.252,10.682,10.682,0,0,1-2.347-2.663,28.922,28.922,0,0,1-1.608-4.14,14.666,14.666,0,0,1-.554-2.848c-.028-.206-.052-.371-.074-.528l-.107.013.05-.292c0-.02,0-.043.005-.065-.01-.069-.023-.157-.032-.209a19.756,19.756,0,0,1-.185-3.243c0-.088,0-.176,0-.264l-.8-.087.69-.34.115-.051a27.07,27.07,0,0,1,.624-5.573A14.443,14.443,0,0,1,167.8,6.355a8.58,8.58,0,0,1,2.663-2.36,7.706,7.706,0,0,1,4.061-1.068A10.532,10.532,0,0,1,181.445,5.2a11.478,11.478,0,0,1,3.731,6.592,10.511,10.511,0,0,0,.264,1.081l.132.5q.291,3.614.29,5.722a19.9,19.9,0,0,1-1.477,8.306M186.7,7.879a.45.45,0,0,1-.168-.35.447.447,0,0,1,.244-.3.623.623,0,0,0,.068-.047l.04-.033a.8.8,0,0,1-.1-.178c-.009-.023-.019-.047-.029-.068l-.126-.252,1.069-.237-.149.736-.145.077c-.02.005-.042.013-.065.021a.974.974,0,0,1-.136.031l.279.366-.592.482-.138-.18a.771.771,0,0,0-.055-.063m.6,15.05-.168-.227a1.355,1.355,0,0,0-.11-.126c-.131-.14-.278-.3-.243-.5a1.15,1.15,0,0,1,.484-.737c.174-.1.374-.024.586.061a2.32,2.32,0,0,0,.235.084l.319.093Zm1.432-13.015-.161-.34c-.031-.065-.071-.131-.111-.2a1.122,1.122,0,0,1-.218-.611,1.062,1.062,0,0,1,.294-.573c.048-.06.1-.119.136-.178l.205-.314.6,1.149Zm5.27,8.195.046.334c0,.025.01.05.015.075a.589.589,0,0,1,.008.322.474.474,0,0,1-.229.241.624.624,0,0,0-.057.037l-.175.135-.464-.613Z" fill="#070203"/>
    <path id="パス_71882" data-name="パス 71882" d="M161.563,30.622l.015.016c.083.079.172.15.257.227l-.248-.306Z" fill="#070203"/>
    <path id="パス_71883" data-name="パス 71883" d="M470.328,35.021l.169,0-.006-.123Z" fill="#070203"/>
    <path id="パス_71884" data-name="パス 71884" d="M447.392,19.182l.33,0-.2-.175Z" fill="#070203"/>
    <path id="パス_71885" data-name="パス 71885" d="M524.239,1.129q-2.136,0-4.377-.211c-.407-.039-.762-.071-1.081-.1l-.506,0,.019-.046c-.569-.046-.967-.072-1.148-.072a11.723,11.723,0,0,0-.1,1.213,3.019,3.019,0,0,0,.158.791,9.881,9.881,0,0,0,1.081.171,5.989,5.989,0,0,1,.976.171,4.969,4.969,0,0,1,2.5.738,1.069,1.069,0,0,1,.5.87,5.892,5.892,0,0,1-.461,1.978q-.462,1.214-1.147,3.56-.211.706-.343,1.107l-.739,1.846-3.137,8.7L514.9,25.6q-.711-1.766-1.582-3.744l-.981-2.222a5.446,5.446,0,0,1-1.073.767,3.537,3.537,0,0,1-.839.264l-.065.015.322.532-.6-.232c-.064-.025-.115-.045-.168-.06a.223.223,0,0,1-.145-.26l-.01,0,.021-.068c.008-.034.016-.068.027-.107l.133-.5.008.013a2,2,0,0,1,.42-.873,2.487,2.487,0,0,1,1.4-.534l.1-.016.009,0-1.554-3.517q-2.136-4.611-3.059-7.3l-.87-2.294a3.233,3.233,0,0,1-.053-.58.932.932,0,0,1,.29-.686,4,4,0,0,1,1.714-.844q.447-.1,3.085-.448c0-.087-.006-.364-.017-.794a1.058,1.058,0,0,1-.573.309.339.339,0,0,1-.128-.025,5.112,5.112,0,0,1-1.54-1.024c-.138-.13-.088-.293.083-.6-.575.08-1.37.159-2.413.238q-2.427.158-3.217.158A78.63,78.63,0,0,1,495.1.791q-.291-.027-1.661-.053V3.006l1.137.13a7.229,7.229,0,0,1,2.294.448,2.833,2.833,0,0,1,1,.949q.205.346,2.5,5.247l2.979,7.2,4.983,11.18.18.453.067-.1.173.294c.105.176.22.342.321.489.261.378.417.606.289.814a2.318,2.318,0,0,1-.171.211q1.163,2.942,1.383,3.559.289.818.58,1.608.9.052,1.4.053.262,0,1.318-.053.579-1.424,1.739-5.142l.265-.475q1.107-2.765,1.239-3.164.633-1.69,1.2-3.1t1.042-2.676l3.375-8.728a63.141,63.141,0,0,1,3.066-7.15,2.642,2.642,0,0,1,.712-.87A22.274,22.274,0,0,1,530.488,2.5q.026-.633.026-.949V.7q-.975.024-2.531.224a30.22,30.22,0,0,1-3.744.2M506.5,1.907l.851.584-.965.363Zm-4.7,1.832-.137-.178a.63.63,0,0,0-.056-.062.451.451,0,0,1-.169-.354.45.45,0,0,1,.244-.3.618.618,0,0,0,.068-.047l.175-.145.467.606Zm4.416,19.371.62-.906.382,1.029Zm3.822-8.285.4.987-.977-.091Z" fill="#070203"/>
    <path id="パス_71886" data-name="パス 71886" d="M511.365.738h-.47l.482.46c0-.152-.007-.288-.012-.46" fill="#070203"/>
    <path id="パス_71887" data-name="パス 71887" d="M565.388,25.354q-.528,0-1.345.079a13.428,13.428,0,0,1-2.979,4.957,6.2,6.2,0,0,1-3.111,1.767,29.86,29.86,0,0,1-6.1.553l-.382.265,0,0,.011.016-.052.115-.113.347-.031-.037-.334.723.8-.154L551.4,35c.882.024,1.724.052,2.52.085q6.406.264,7.884.264,1,0,2.716-.079l.475-3.006.976-4.983.158-.791q.053-.448.132-1.107-.581-.025-.87-.026" fill="#070203"/>
    <path id="パス_71888" data-name="パス 71888" d="M466.806.982l-.923.053-3.428.105c-.228.018-.536.026-.923.026a38.981,38.981,0,0,1-4.983-.315L453.991.824q-.132,0-.712.027a7.511,7.511,0,0,0-.211,1.5,7.455,7.455,0,0,0,.949.263A16.31,16.31,0,0,1,457.708,3.8a.792.792,0,0,1,.369.343l.185,1.846.158,4.482-.053,1.187q-.025,3.5-.079,4.4a10.35,10.35,0,0,1-1.9.185l-4.614.132-3.2-.017.37.989c.154.42.309.84.483,1.251.088.207.2.406.309.609l6.356.069q1.134.026,2.109.1a30.435,30.435,0,0,0,.158,3.348l-.026,2.241a62.217,62.217,0,0,1-.316,7.093q-.5.159-.817.237l-2.136.343-2.03.475a10.693,10.693,0,0,0-.132,1.714,3.169,3.169,0,0,0,.9.158c.246-.024.468-.042.7-.064l0-.061.4.024c1.781-.158,3.287-.242,4.485-.242,1.691,0,3.13.023,4.329.067a.281.281,0,0,1-.041-.072.942.942,0,0,1,.108-.622,2.146,2.146,0,0,0,.077-.206l.079-.256.235.126c.061.033.127.061.193.089a1.1,1.1,0,0,1,.515.352c.118.18.007.4-.1.608a.273.273,0,0,0-.014.03c.6.033,1.138.073,1.579.121.572.056,1.106.1,1.61.121l.1-.28.237.192c.025.02.058.043.091.065l.053.037c.271.009.554.023.8.023l.328-.005-1.032-.537.27-.21c.119-.093.236-.19.354-.287a5.823,5.823,0,0,1,1.081-.763.268.268,0,0,1,.161-.023l0-.046a20.474,20.474,0,0,0-3.744-1.081q-.474-.106-1.028-.265.054-1.239.053-2.109l-.053-3.111V22.867q-.1-3.585-.079-4.745l.011-.674c-.136-.113-.21-.222-.175-.352a1.638,1.638,0,0,1,.187-.415l.03-1.909-.026-2.531V8.893q0-.132-.026-1.319V6.915q0-.289.053-.844l.026-.343-.026-.686V4.594l.158-.526c.235-.123.475-.234.72-.335l-.013-.016-.009-.661,0-.182.364.412.091.058c.077.049.148.1.222.155.049-.016.1-.037.144-.052q.752-.223,3.177-.725A18.73,18.73,0,0,0,470.6.851q-1.08-.08-1.846-.08a9.017,9.017,0,0,0-1.951.211m-4.32,11.952c-.022.073-.047.165-.071.259-.1.385-.15.571-.345.571h-.029c-.531-.047-1.062-.131-1.577-.215l-.274.009s-.061,0-.121.006l-.68.144.334-.453.005-.008a.274.274,0,0,1,.031-.041l.089-.121.052-.07.028-.038.137.064.2.032,2.333-.5Zm2.639,9.615c-.075.067-.146.142-.211.212-.158.169-.3.318-.47.318a.323.323,0,0,1-.068-.008,3.229,3.229,0,0,1-.777-.324c-.089-.046-.18-.094-.27-.137l-.259-.123.187-.218c.06-.07.124-.16.189-.251.218-.305.385-.552.629-.485a2.005,2.005,0,0,1,.756.456c.089.074.181.149.277.219l.222.16Z" fill="#070203"/>
    <path id="パス_71889" data-name="パス 71889" d="M137.883,19.284c-.335-.43-.649-.837-.524-1.188a5.374,5.374,0,0,1,1.07-1.585l.258-.307c-.1.008-.2.01-.294.015-.023.046-.048.092-.067.137l-.125.287-.417-.4-3.733.107c-.008.962-.017,1.925-.027,2.881l3.6.039c.087,0,.168.007.254.009" fill="#070203"/>
    <path id="パス_71890" data-name="パス 71890" d="M538.1,24.67l0,0,0-.005Z" fill="#070203"/>
    <path id="パス_71891" data-name="パス 71891" d="M550.906,32.969l-.071-.085.141-.1.031-.08c-3.248-.023-5.225-.205-5.9-.549a1.4,1.4,0,0,1-.712-1.371l.053-5.7q-.105-2.083-.105-5.221,0-.214.026-.9,2-.212,5.985-.211a20.762,20.762,0,0,1,3.9.185,1.91,1.91,0,0,1,1.055.712c.072.148.134.3.2.452l.193.175-.074.095a10.655,10.655,0,0,1,.631,2.337q.3,1.319.4,1.74h1.872v-.58q0-.764-.079-2.333c-.013-.269-.025-.518-.035-.749l-.174,1.184.044.047-.067.114-.018.121-.341.045h0l-.218.029-.232.031.193-.321-.1-.723.352.3.558-.93c-.026-.614-.04-1.1-.04-1.429q0-.448.04-1.239t.04-3.56q0-1.214-.1-3.56l-1.529-.026-.343.026a36.042,36.042,0,0,1-.923,3.876,2.723,2.723,0,0,1-.844,1.147,6.538,6.538,0,0,1-2.479.514q-2,.184-6.724.185a9.775,9.775,0,0,1-1.134-.079V13.218l-.053-4.43q0-4.535.079-5.194,2.532-.105,5.748-.105,2.822,0,5.273.211,1.344.106,1.608.132a7.055,7.055,0,0,1,1.687.211A12.133,12.133,0,0,1,560.4,6.469l1.055,1.872q.4,1.029.633,1.556.69.052.9.053l1.081-.053c.017-.211.026-.37.026-.475l-.053-1.081V2.909a2.046,2.046,0,0,0-.475-1.424,41.2,41.2,0,0,0-4.746-.4l-4.772.053q-4.746,0-10.626.237-3.929.158-4.878.158a35.541,35.541,0,0,1-4.825-.29c-.293-.042-.623-.076-.957-.109v.008l.026.052-.056.073-.078.327-.1-.1-.521.677.154-1.033-.025-.024.015-.037c-.342-.028-.686-.055-1.067-.075l-.137,2.108q.66.079,1.16.105a17.247,17.247,0,0,1,2.9.369q.5.1.791.158a1.286,1.286,0,0,1,.791.369,4.929,4.929,0,0,1,.053.527l.237,3.27-.026,2.979.128,4.087,1.163.424-.179.236c-.074.1-.147.2-.22.3a8.293,8.293,0,0,1-.71.881c-.019.02-.044.017-.065.028l-.011,1.246.044,5.552.758.683.346-.147-.131.342.124.111.533-.827.376.984-.9-.1.329.166-.773.165-.594,1.7-.045-.052.01,1.357-.026.817q.027,1.081.026,1.529a5.474,5.474,0,0,1-.29,1.925,12.746,12.746,0,0,1-3.8.844,16.249,16.249,0,0,0-2,.29v1.832l3.19-.1h1.107q4.614-.264,7.778-.264,4.26,0,7.685.084l-.335-.412-.079-.076.006-.015-.137-.168.223-.056Zm-8.792-5.592-.753-.592c-.063.005-.127.012-.185.012a.525.525,0,0,1-.378-.119,1.838,1.838,0,0,1-.39-.65c-.037-.085-.073-.17-.113-.249l-.13-.255.279-.059c.062-.013.132-.037.2-.059.239-.077.463-.15.619,0a3.3,3.3,0,0,1,.508.689c.065.1.131.213.207.326l.081.123.249-.059Zm.319-4.743a3.928,3.928,0,0,0-.393.083,2.668,2.668,0,0,1-.594.1.493.493,0,0,1-.358-.123,30.455,30.455,0,0,1-2.59-2.918c-.15-.19,0-.361.4-.821.1-.111.2-.222.27-.315l.162-.2.77.859c.481.533.961,1.066,1.425,1.612.247.292.465.608.677.913.087.125.173.25.261.373l.588.356Z" fill="#070203"/>
    <path id="パス_71892" data-name="パス 71892" d="M351.382,32.641a3.006,3.006,0,0,1-1.542-.527,4.094,4.094,0,0,1-.791-1.292,35.117,35.117,0,0,1-1.45-3.375q-.922-2.479-1.45-3.718-.9-2.057-2.136-5.313t-2.8-6.71L339.57,7.8l-.052.374-.242-.225-1.929.158.251.142-.31.032.283.442-.957.64-.1-.5a3.01,3.01,0,0,1-.078-.494l-.489.051.431-.387.038-.141a.2.2,0,0,1,.188-.153v-.01l.091-.008.434-.036,1.96-.265.1-.292,0-.01c0-.068,0-.136,0-.2L336.631.84l-.237-.475h-1.187q-.791,0-1.661-.026l-5.9,15.488c.052-.035.1-.071.154-.109a1.445,1.445,0,0,1,.61-.319c.207-.042.4.12.566.258a1.9,1.9,0,0,0,.162.127l.3.2-.313.176c-.056.031-.111.069-.167.1a1.059,1.059,0,0,1-.535.234h-.027a1.371,1.371,0,0,1-.557-.162c-.065-.03-.13-.061-.2-.085L327.5,16.2l-.205.539-2.036,5.333.22-.038.09-.54,1.233.653-.881.374a.9.9,0,0,1-.214.091l-.342.112h0l-.3.1.317-.439-.211-.09-3.206,8.4a4.738,4.738,0,0,1-1.068,1.529,8.218,8.218,0,0,1-2.465.712,17.227,17.227,0,0,0-1.767.4l-.053,1.793h.474a23.275,23.275,0,0,0,3.718-.316l1.087-.18q6.165.447,7.8.448a3.73,3.73,0,0,0,.053-.606q0-.369-.026-1.318-1.635-.237-1.872-.29a4.78,4.78,0,0,1-2.32-.712,1.17,1.17,0,0,1-.369-.976,7.1,7.1,0,0,1,.5-1.9q1.74-4.933,2.294-6.2l10.072.026,2.082,5.168,1.05,2.584a2.137,2.137,0,0,1,.132.712.833.833,0,0,1-.264.606,5.533,5.533,0,0,1-1.524.527l-2.927.633q-.08.843-.079,1.767l1.292-.053,4.482-.237q.922-.052,3.006-.053,1.867,0,4.216.182t4.3.185c.017-.263.026-.457.026-.58a9.656,9.656,0,0,0-.132-1.292,9.86,9.86,0,0,0-2.307-.606M334.2.594l.853.4-1.184.683Zm2.089,19.791q-1.107,0-7.277-.079l.577-1.539a.693.693,0,0,1-.02-.248.332.332,0,0,1,.2-.243l3.058-8.151q.793,1.64,2.06,4.763t2.057,5.471Zm1.6-6.3c-.072.016-.133.032-.186.047a1.159,1.159,0,0,1-.3.055c-.021,0-.044,0-.067,0-.176-.024-.223-.2-.257-.32-.009-.029-.016-.059-.025-.082l-.152-.409,1.818.523Z" fill="#070203"/>
    <path id="パス_71893" data-name="パス 71893" d="M45.676,9.066l-.24-.921,1.043.131a12.887,12.887,0,0,0-1.3-2.669c-.034.028-.073.056-.1.084l-.159.153-.152-.159c-.07-.074-.148-.144-.227-.214a1.747,1.747,0,0,1-.533-.668c-.06-.17.018-.326.172-.536A10.613,10.613,0,0,0,35.888.5,10.86,10.86,0,0,0,30.6,1.847a9.466,9.466,0,0,0-3.875,4.021,12.214,12.214,0,0,0-1.058,2.793l.155.282c.255.455.424.756.3,1.021a2.906,2.906,0,0,1-.765.9c-.016.272-.046.542-.044.814a15.789,15.789,0,0,0,.5,3.93,8.247,8.247,0,0,0,1.2,2.624,9.889,9.889,0,0,0,2.333,2.254,15.578,15.578,0,0,0,3.085,1.345,6.642,6.642,0,0,0,1.555.1,10.361,10.361,0,0,0,3.665-.633,1.226,1.226,0,0,0,.8-1.3,1.3,1.3,0,0,0-.265-.883.752.752,0,0,0-.272-.22l-.028.117-.1-.1-.518.67.11-.722-.169.034a4.822,4.822,0,0,1-1.37.211,4.671,4.671,0,0,1-2.058-.5,2.843,2.843,0,0,1-.9-1.028,6.971,6.971,0,0,1-.949-2.663,32.9,32.9,0,0,1-.317-4.693,10.422,10.422,0,0,1,1.609-6.249A3.485,3.485,0,0,1,36.1,2.373a3.606,3.606,0,0,1,3.058,1.871q1.636,2.507,1.635,9.229c0,.241-.01.481-.014.722.121.354.251.711.367,1.059l.338,1-.238.053c-.075.016-.168.042-.262.067-.134.036-.238.06-.328.076-.009.087-.011.175-.021.263q-.21,1.818-.237,2.294a22.154,22.154,0,0,1-.619,3.889,14.652,14.652,0,0,1-1.913,4.588A13.581,13.581,0,0,1,34.541,31.1a19.337,19.337,0,0,1-4.72,2.544,5.481,5.481,0,0,0-1.529.712.962.962,0,0,0-.264.712,1.535,1.535,0,0,0,.423.976q.658.052,1,.053a15.383,15.383,0,0,0,4.876-1.055A18.363,18.363,0,0,0,40,31.734a18.7,18.7,0,0,0,4.271-5.011A27.472,27.472,0,0,0,46.2,22.967a23.671,23.671,0,0,0,1.372-7.594A21.069,21.069,0,0,0,46.5,8.332ZM28.167,13.641l-.147-.2c-.042-.058-.1-.131-.155-.2-.254-.324-.369-.474-.221-.634.337-.362.707-.7,1.063-1.022l.606-.557.128,1.414ZM37.349,2.266l-.48-.858.34-.028a.718.718,0,0,0,.079-.012.591.591,0,0,1,.334.012.474.474,0,0,1,.228.257c.011.022.021.043.032.062l.123.194Zm5.162,12.523.621-1.046.284,1.22Zm2.8-6.952a.634.634,0,0,1-.329-.1.417.417,0,0,1-.135-.341c0-.025,0-.051-.006-.073L44.8,7.128l.731-.209.17.989-.31-.06c-.029-.005-.058-.008-.087-.011" fill="#070203"/>
    <path id="パス_71894" data-name="パス 71894" d="M299.557,25.418a13.406,13.406,0,0,1-2.979,4.957,6.187,6.187,0,0,1-3.109,1.767,29.8,29.8,0,0,1-6.223.554q-5.537,0-6.618-.554a1.4,1.4,0,0,1-.714-1.363l.053-5.7c-.057-1.135-.089-2.519-.1-4.124-.009.02-.018.037-.028.058-.127.281-.22.486-.417.486h-.032a6.21,6.21,0,0,1-1.418-.343,3.638,3.638,0,0,1-.549-.271l-.153-.025-.169-.031-.209.09-.047-.466,0-.008-.058-.573.42.379.035.02.059-.033a1.547,1.547,0,0,1,.846-.276,4.761,4.761,0,0,1,1.207.349c.155.06.311.121.468.173l.045.016c0-.215,0-.418,0-.641q0-.213.026-.9c.591-.062,1.318-.11,2.167-.144l.181-1.469.511,1.362c.01.027.022.054.032.081.908-.026,1.934-.041,3.094-.041a20.932,20.932,0,0,1,3.9.185,1.916,1.916,0,0,1,1.055.712,10.632,10.632,0,0,1,.946,3.059q.3,1.319.4,1.74h.549l.741-1.963.237.2c.059.049.138.106.216.162.039.027.069.051.1.077-.013-.394-.033-.855-.06-1.388q-.078-1.569-.079-2.281,0-.447.04-1.239t.04-3.56q0-1.212-.105-3.56l-1.529-.026-.333.026a36.028,36.028,0,0,1-.923,3.876,2.711,2.711,0,0,1-.844,1.147,6.521,6.521,0,0,1-2.484.513q-2,.186-6.724.185a9.559,9.559,0,0,1-1.134-.079V13.21l-.053-4.43q0-4.534.079-5.194,2.531-.1,5.748-.105,2.821,0,5.273.211,1.344.107,1.608.132a7.159,7.159,0,0,1,1.687.211,12.141,12.141,0,0,1,1.69,2.425l1.055,1.881q.4,1.029.633,1.556c.46.036.76.053.9.053l1.081-.053c.018-.211.026-.369.026-.475l-.053-1.081V2.909a2.047,2.047,0,0,0-.475-1.424,41.648,41.648,0,0,0-4.746-.4l-4.772.053q-4.746,0-10.626.237-3.929.159-4.878.158a35.222,35.222,0,0,1-4.825-.29q-1.11-.158-2.61-.237l-.132,2.1q.66.079,1.16.105a17.364,17.364,0,0,1,2.9.369q.5.1.791.158a1.294,1.294,0,0,1,.791.369,4.921,4.921,0,0,1,.053.527l.237,3.27-.032,2.981.132,4.219-.023,2.983.079,9.94-.026.817q.027,1.081.026,1.529a5.5,5.5,0,0,1-.27,1.844c.061.133.129.261.186.4.084.2-.04.265-.452.479-.087.045-.173.089-.24.126l-.31.169-.032-.8a12.711,12.711,0,0,1-2.972.557,16.642,16.642,0,0,0-2,.29v1.819l3.19-.1h1.107q4.614-.264,7.778-.264,6.359,0,10.859.185,6.411.264,7.888.263,1,0,2.712-.079l.478-3.007.976-4.983.158-.791c.035-.3.08-.667.132-1.107-.387-.017-.676-.026-.87-.026q-.528,0-1.345.079M273.179,2.589l-.2.217-.051-.314-.188-.071.126-.135-.86-.6.817.07a.573.573,0,0,0,.072,0c.111,0,.273,0,.355.135a.485.485,0,0,1,.051.137l.051.063.183.128-.024.025.947.359-.728.644-.534-.653Zm.941,21.055a.719.719,0,0,0-.077.062l-.164.156-.151-.169c-.021-.023-.046-.046-.07-.068a.387.387,0,0,1,.03-.7.792.792,0,0,0,.075-.061l.164-.154.151.167a.562.562,0,0,0,.07.067.387.387,0,0,1-.028.7m1.065-5.976a.327.327,0,0,1-.222.234,1.725,1.725,0,0,1-.325.027c-.067,0-.132,0-.2,0l-.474,0,.435-1.3.241.172c.047.034.1.065.143.1a1.513,1.513,0,0,1,.38.306.525.525,0,0,1,.018.471m.1,8.617.617-.876.3,1.032Z" fill="#070203"/>
    <path id="パス_71895" data-name="パス 71895" d="M19.079,6.007a.919.919,0,0,1-.214.091l-.343.112h0l-.3.1.317-.438-.558-.237.652-.111.089-.54,1.12.593a11.087,11.087,0,0,0-.927-1.248A10.616,10.616,0,0,0,10.574.5,10.881,10.881,0,0,0,5.287,1.847,9.474,9.474,0,0,0,1.411,5.868,12.286,12.286,0,0,0,0,11.682a15.775,15.775,0,0,0,.5,3.929,8.227,8.227,0,0,0,1.2,2.624,9.87,9.87,0,0,0,2.333,2.254,15.479,15.479,0,0,0,3.084,1.345,6.654,6.654,0,0,0,1.556.1,10.339,10.339,0,0,0,3.665-.633,1.224,1.224,0,0,0,.8-1.3,1.309,1.309,0,0,0-.264-.883.761.761,0,0,0-.58-.3l-.4.079a4.824,4.824,0,0,1-1.371.211,4.671,4.671,0,0,1-2.057-.5,2.839,2.839,0,0,1-.9-1.028,6.986,6.986,0,0,1-.948-2.663A32.747,32.747,0,0,1,6.3,10.23,10.43,10.43,0,0,1,7.909,3.981a3.491,3.491,0,0,1,2-1.478q.06-.03.12-.063a1.794,1.794,0,0,1,.428-.186.475.475,0,0,1,.373.124,3.605,3.605,0,0,1,3.01,1.867q1.635,2.505,1.635,9.229c0,.276-.01.552-.016.828a2.974,2.974,0,0,1,.554.463,4.155,4.155,0,0,0,.342.319l.276.22-.318.151c-.12.056-.237.12-.355.185a5.257,5.257,0,0,1-.578.271c-.021.269-.034.538-.063.806-.026.226-.048.419-.069.614l1.906,1.819-.23.151c-.079.052-.165.124-.252.195a1.166,1.166,0,0,1-.619.345.316.316,0,0,1-.126-.026,4.756,4.756,0,0,1-.882-.5,22.014,22.014,0,0,1-.585,3.58,14.617,14.617,0,0,1-1.912,4.588A13.551,13.551,0,0,1,9.228,31.1a19.337,19.337,0,0,1-4.72,2.544,5.481,5.481,0,0,0-1.529.712.962.962,0,0,0-.264.712,1.535,1.535,0,0,0,.423.976q.658.052,1,.053a15.361,15.361,0,0,0,4.879-1.054,18.325,18.325,0,0,0,5.669-3.309,18.679,18.679,0,0,0,4.271-5.01,27.426,27.426,0,0,0,1.925-3.757A23.641,23.641,0,0,0,22.12,17.5l-.259-.087.228-.354c.026-.043.052-.084.078-.121.042-.52.08-1.04.087-1.562,0-4.039-.792-7.27-2.356-9.714ZM2.271,10.6c-.047.046-.095.091-.135.138L1.906,11l-.139-.325a1.768,1.768,0,0,0-.086-.167.833.833,0,0,1-.156-.555,1.008,1.008,0,0,1,.332-.495c.047-.048.094-.1.135-.143l.233-.277.138.336c.023.055.053.112.083.169a.913.913,0,0,1,.155.567.942.942,0,0,1-.33.484m9.452,8.735.853.585-.967.36Zm-4.814.934a.582.582,0,0,0,.068-.047l.175-.142.467.606-.592.482-.139-.18c-.015-.02-.036-.04-.055-.061a.445.445,0,0,1-.169-.354.45.45,0,0,1,.245-.3M5.756,3.809l-.169.078a2.4,2.4,0,0,1-.522.2A.309.309,0,0,1,5,4.093a.571.571,0,0,1-.336-.155c-.03-.022-.059-.044-.086-.061l-.229-.135.176-.2c.035-.04.072-.093.108-.143.126-.177.27-.354.46-.339a1.144,1.144,0,0,1,.532.252c.053.037.105.074.158.107l.363.219Zm11.2.983a2,2,0,0,0-.2.073,1.3,1.3,0,0,1-.458.121.5.5,0,0,1-.164-.027.828.828,0,0,1-.4-.477c-.032-.065-.063-.13-.1-.185l-.163-.259.3-.07c.064-.016.131-.039.2-.061a.969.969,0,0,1,.611-.072.8.8,0,0,1,.4.455,1.825,1.825,0,0,0,.095.171l.163.25Z" fill="#070203"/>
    <path id="パス_71896" data-name="パス 71896" d="M489.218.946q-3.427.212-4.983.211-.34,0-1.74-.053L474.954.788l.079,2.321a8.9,8.9,0,0,0,.923.078,10.32,10.32,0,0,1,3.507.633,5.969,5.969,0,0,1,.185.844l.012.534.137-.226.38.98-.5-.044.127,2.9-.079,1.424.053,3.507q0,.159-.185,5.379l.026,1.424-.053,6.012.026,3.111a4.542,4.542,0,0,1-.475,2.268,11.7,11.7,0,0,1-2.558.87q-1.213.291-1.74.448v.543l.457.22-.192.294,1.437.254-1.605.153-.1.011v.425h0q.526-.025,2.267-.184,2.661-.264,4.061-.264l1.179.013a.681.681,0,0,1-.158-.431,2.531,2.531,0,0,1,.391-1.043c.1-.177.2-.374.306-.6l.172-.372.214.35c.132.216.265.4.38.557.248.339.427.584.37.849a1.935,1.935,0,0,1-.348.706l2.16.023q3.138.317,3.507.37a5.238,5.238,0,0,0,.686.078c.088,0,.413-.017.976-.053a3.867,3.867,0,0,1,.527-.025q.026-.61.026-.9a10.39,10.39,0,0,0-.1-1.318q-1.371-.185-1.608-.21a27.036,27.036,0,0,1-2.927-.476,2.541,2.541,0,0,1-.105-.606l.026-1-.014-1.358-.935.7-.559-1.393.234-.067a2.036,2.036,0,0,0,.2-.072.988.988,0,0,1,.641-.1c.212.065.264.31.319.569.017.077.032.153.052.216l.047.147-.039-3.911.079-3.534-.026-6.961q0-2.4.079-6.855a17.231,17.231,0,0,1-.079-1.846,9.305,9.305,0,0,1,.158-1.978,17.631,17.631,0,0,1,2.228-.672q1.357-.33,2.413-.7.053-.711.053-1.16,0-.343-.026-.844-.5.027-2.426.158M480.1,16.887l.049-.293c0-.031.006-.064.009-.1a.533.533,0,0,1,.128-.38.5.5,0,0,1,.395-.1c.033,0,.065,0,.1,0l.155-.01.306.727Zm4.36,13.19c-.1.12-.189.232-.27.336a2.948,2.948,0,0,1-.622.655.238.238,0,0,1-.137.041.53.53,0,0,1-.25-.087c-.025-.015-.6-.36-.576-.687a1.776,1.776,0,0,1,.343-.785c.056-.088.113-.176.161-.264l.106-.195,1.415.782Zm.2-9.019L484,20.727l.768-.655.471.633Z" fill="#070203"/>
    <path id="パス_71897" data-name="パス 71897" d="M294.04,24.443v-.254c-.031.084-.062.169-.094.254Z" fill="#070203"/>
  </g>
</svg>
