<svg id="グループ_6687" data-name="グループ 6687" xmlns="http://www.w3.org/2000/svg" xmlns:xlink="http://www.w3.org/1999/xlink" width="415.529" height="52.811" viewBox="0 0 415.529 52.811">
  <defs>
    <clipPath id="clip-path">
      <rect id="長方形_8754" data-name="長方形 8754" width="415.529" height="52.811" transform="translate(0 0)" fill="none"/>
    </clipPath>
  </defs>
  <g id="グループ_6687-2" data-name="グループ 6687" clip-path="url(#clip-path)">
    <path id="パス_71840" data-name="パス 71840" d="M78.952,10.534l.265.029a17.14,17.14,0,0,0-2.664-4.234,15.521,15.521,0,0,0-8.975-5.3l0,.25.417,1.155-.424-.469-.009.735-.378-1.063a7.083,7.083,0,0,1-3.488,1.326,2.89,2.89,0,0,1-.82-.115A3.534,3.534,0,0,1,60.894,1.1,15.877,15.877,0,0,0,56.617,2.7a13.853,13.853,0,0,0-5.67,5.883,17.964,17.964,0,0,0-2,6.943l.009,0c.5-.1,1.009-.183,1.5-.259l.273-.043.156-.1.443-.893v.608l.379-.244-.324.651a2.074,2.074,0,0,1,1.655,1.221,3.935,3.935,0,0,1-.009,1.952,5.048,5.048,0,0,0-.11,1.346c.021.175-.121.3-.248.385a1.352,1.352,0,0,1-.636.251.362.362,0,0,1-.167-.037c-.36-.189-.968-.574-1-1.027-.069-.989-.059-1.994-.049-2.967,0-.2,0-.408.006-.612l-1.913,1.235-.023-.176c0,.092-.008.184-.007.276a23.034,23.034,0,0,0,.733,5.748,12.067,12.067,0,0,0,1.755,3.838,14.516,14.516,0,0,0,3.414,3.3A22.728,22.728,0,0,0,59.3,31.941a9.757,9.757,0,0,0,2.276.154,15.154,15.154,0,0,0,5.362-.926,1.791,1.791,0,0,0,1.157-1.89,1.916,1.916,0,0,0-.386-1.292,1.116,1.116,0,0,0-.849-.444l-.579.116a7.067,7.067,0,0,1-2.006.309,6.815,6.815,0,0,1-3.009-.733,4.157,4.157,0,0,1-1.312-1.5,10.259,10.259,0,0,1-1.389-3.9,48.08,48.08,0,0,1-.463-6.866q0-5.941,2.353-9.142a5.1,5.1,0,0,1,4.2-2.353,5.261,5.261,0,0,1,2.195.56l.182-1.465.588,1.566c.063.171.132.338.2.507a5.284,5.284,0,0,1,1.072,1.191l.011-.14.317.129c.025.009.055.017.084.026a.518.518,0,0,1,.354.227.558.558,0,0,1,0,.416.664.664,0,0,0-.022.088l-.027.164-.161.039A17.231,17.231,0,0,1,71.08,12.5l.008,0a.529.529,0,0,1,.318.272.542.542,0,0,1-.055.417c-.011.028-.024.055-.032.081l-.1.309c.132,1.206.224,2.518.267,3.952l.118-.02.021.117.151.042.078-.053.068.094v0L74.613,21.7l-3.133.043c-.037.907-.1,1.814-.191,2.717q-.308,2.662-.347,3.356c-.012.177-.033.353-.048.529l.126.179-.144.015a32.39,32.39,0,0,1-.84,4.967,21.417,21.417,0,0,1-2.8,6.712,19.86,19.86,0,0,1-3.917,4.505l.094.171,0-.111.341.452.66-.1-.51.477,1.38,1.135-1.937,1.39.008-.5c.01-.582.02-1.165.033-1.749l-.046-.083-1.831.286a28.258,28.258,0,0,1-6.038,3.134,7.994,7.994,0,0,0-2.237,1.042,1.409,1.409,0,0,0-.386,1.042,2.244,2.244,0,0,0,.617,1.427h0q.964.076,1.466.077a22.494,22.494,0,0,0,7.136-1.543,26.83,26.83,0,0,0,6.363-3.337l-.028-.024c-.031-.026-.072-.057-.114-.087-.168-.122-.342-.248-.274-.456a2.9,2.9,0,0,1,.266-.538l.227-.4.781.525-.321.567c.47-.352.942-.7,1.389-1.085a27.324,27.324,0,0,0,4.711-5.007l-.1.04.1-1.141.533.336c.347-.511.693-1.023,1-1.557a40.253,40.253,0,0,0,2.816-5.5c.114-.319.217-.642.322-.963l-.162.147-.169-.148.165-.187h0l-.206.153-.5-.439.2-.188c.026-.025.052-.055.079-.085a.576.576,0,0,1,.41-.256h.014a.551.551,0,0,1,.392.272,34.574,34.574,0,0,0,1.456-9.414,29.143,29.143,0,0,0-2.1-11.687ZM54.989,15.19c.038-.027.077-.052.106-.076l.25-.2.5,1.107-.677.637-.232-.485a3.177,3.177,0,0,1-.233-.55c-.063-.208.12-.329.281-.436m-.934,3.833.392-.763.058-.114-.039-.063.015-.014-.307-.622.891.551.007.005.354.218-.23.135v.033c.254.512.513,1.038.739,1.573.093.232-.038.3-.526.551l-.265.139-.353.192-.085-2.2Zm.71,7.662.377-1.244.969.463ZM72.423,13.821l.094-1.068.969.624ZM64.757,44.959l-.169-.2a.81.81,0,0,0-.066-.064.411.411,0,0,1,.043-.739c.027-.02.052-.038.073-.057l.19-.176.562.653Zm2.413-.611c-.1.3-.207.6-.319.893l0,.012,0,.038.1.184-.129.091-.041.418-.422-.414h0l-.264-.259.243-.106.024-.066.152-1.558.365.309c.02.017.046.037.072.055.12.088.285.207.226.4m.772-1.033c-.051.048-.107.11-.164.171-.169.187-.33.364-.529.364a.364.364,0,0,1-.085-.01,2.167,2.167,0,0,1-.717-.391c-.077-.057-.153-.112-.232-.163l-.36-.232.379-.2a2.07,2.07,0,0,0,.2-.124,1.2,1.2,0,0,1,.631-.258h.02a1.147,1.147,0,0,1,.633.308,2.34,2.34,0,0,0,.189.139l.278.175Zm2.843-2.259-.993-.4,0,.415-.5.013-.029-.547-1.412,0,1.7-.523h0l.236-.073v.1l1.092,0Zm5.364-24.147c.107-.032.212-.067.317-.1a3.853,3.853,0,0,1,.939-.231c.23-.022.35.2.516.535.058.117.124.249.2.378l.165.281-.316.086c-.115.031-.228.073-.338.113a2.058,2.058,0,0,1-.678.165.866.866,0,0,1-.182-.019c-.27-.064-.43-.32-.584-.568a2.769,2.769,0,0,0-.162-.243l-.227-.288ZM72.311,30.865l-.974-.713,1.143-.389Zm3.85-2.82c-.239.18-.434.342-.6.481a2.213,2.213,0,0,1-.915.568.392.392,0,0,1-.076.008c-.245,0-.443-.249-.671-.532-.078-.1-.155-.2-.228-.271l-.189-.193.042-.036-.681-.166,1-.243.2-.047c.036-.034.074-.066.111-.1L74,25.017l-.2.166.11-.668c.012-.072.025-.144.043-.224l-.015-.234.492.029h0l.081,0,.147.009.4.024-.386.326.087,2.692a1.178,1.178,0,0,1,.728.195c.165.079.367.176.619.276l.415.164ZM78.6,26.656l-1.718.244.042-.992.56.081-1.029-.633,1.6.412c.025.007.052.011.079.016a.722.722,0,0,1,.306.1,1.1,1.1,0,0,1,.207.208l.04.048,1.209.744Z" fill="#070203"/>
    <path id="パス_71841" data-name="パス 71841" d="M22.194,2.137s0,.008,0,.012a6.679,6.679,0,0,1-.183,1.211c-.036.163-.071.326-.1.49l-.084.462-.337-.328c-.115-.113-.239-.22-.364-.327a3.515,3.515,0,0,1-.863-.958c-.146-.278.024-.612.2-.965.04-.079.072-.153.107-.229A15.556,15.556,0,0,0,15.468.734,15.912,15.912,0,0,0,7.734,2.7a13.864,13.864,0,0,0-5.67,5.883A17.972,17.972,0,0,0,0,17.09a23.069,23.069,0,0,0,.733,5.748,12.057,12.057,0,0,0,1.755,3.838,14.477,14.477,0,0,0,3.414,3.3,22.67,22.67,0,0,0,4.513,1.967,9.7,9.7,0,0,0,2.276.154,15.137,15.137,0,0,0,5.363-.926,1.79,1.79,0,0,0,1.158-1.892,1.911,1.911,0,0,0-.385-1.292,1.123,1.123,0,0,0-.85-.444l-.579.116a6.992,6.992,0,0,1-2.006.309,6.818,6.818,0,0,1-3.009-.733,4.149,4.149,0,0,1-1.312-1.5c-.177-.292-.339-.594-.486-.9l-.308-.2.184-.1a10.237,10.237,0,0,1-.779-2.7,47.924,47.924,0,0,1-.462-6.866q0-5.941,2.352-9.142a5.1,5.1,0,0,1,4.2-2.353,5.28,5.28,0,0,1,4.475,2.739,10.083,10.083,0,0,1,1.058,2.256l.042-.98.559.081-1.028-.633,1.6.412c.026.007.053.011.079.016a.725.725,0,0,1,.307.105,1.11,1.11,0,0,1,.208.209l.037.045,1.236.761-1.324-.249-1.715.245c.159.466.3.974.432,1.514a1.029,1.029,0,0,1,.219-.046,2.649,2.649,0,0,1,1.349.552c.17.111.34.223.508.311l.281.147-1.806,2.075-.015-.011a54.583,54.583,0,0,1,.363,6.69,41.457,41.457,0,0,1-.23,4.74L25.94,26.37l-.343.23a11.327,11.327,0,0,0-.924.724,3.944,3.944,0,0,1-2.133,1.2,1.07,1.07,0,0,1-.139-.008,1.578,1.578,0,0,1-.394-.1,32.284,32.284,0,0,1-.852,5.094,21.37,21.37,0,0,1-2.8,6.712,19.839,19.839,0,0,1-4.86,5.285,28.275,28.275,0,0,1-6.9,3.722,8.014,8.014,0,0,0-2.238,1.042,1.412,1.412,0,0,0-.386,1.042,2.255,2.255,0,0,0,.617,1.427q.964.078,1.465.077a22.479,22.479,0,0,0,3.169-.4l.079-.123c.139-.224.26-.415.475-.291.131.065.263.14.394.208a22.347,22.347,0,0,0,3.024-.937,26.841,26.841,0,0,0,8.293-4.841A27.323,27.323,0,0,0,27.737,39.1a40.2,40.2,0,0,0,2.817-5.5c.136-.383.263-.771.386-1.158l-.486-.39.364-.3a1.934,1.934,0,0,1,.412-.292,34.553,34.553,0,0,0,1.327-8.975q0-10.569-4.88-16.163a15.534,15.534,0,0,0-5.483-4.19M4.356,24.893a.669.669,0,0,0-.05.058l-.512.674.168-2.265.406.774a.74.74,0,0,0,.042.068.6.6,0,0,1,.126.358.54.54,0,0,1-.18.333m19.9-17.977c-.088-.217-.179-.431-.27-.646-.247-.584-.5-1.188-.7-1.8-.079-.248.1-.486.264-.717a2.525,2.525,0,0,0,.152-.222l.193-.341,1.111,1.55-.4,3.058ZM25.3,21.05c-.074.03-.15.061-.212.094l-.2.109-.706-1.094,1.324-.739.093.293c.022.071.052.144.082.217a1.3,1.3,0,0,1,.143.686c-.037.236-.283.336-.521.434M16.227,48.4l-.167-.234c-.048-.066-.113-.149-.177-.231-.289-.37-.421-.54-.252-.723.385-.412.806-.8,1.212-1.165l.69-.634.146,1.612Zm5.339-3.892a3.726,3.726,0,0,1-.294.605l-.279.509-.236-.279c-.026-.031-.061-.063-.1-.1-.135-.13-.287-.276-.227-.476a2.8,2.8,0,0,1,.27-.583l.238-.447.24.213c.029.026.069.056.109.086.171.128.347.26.275.469m5.123-9.068-.547-.979.387-.031c.03,0,.06-.008.09-.014a.675.675,0,0,1,.381.014.535.535,0,0,1,.259.292c.013.025.024.05.037.071l.14.221Zm4.465-7.634.393,1.059L30.5,28.734Zm.183,1.412-.52,1.251L30.305,29.2Z" transform="translate(10)" fill="#070203"/>
    <path id="パス_71842" data-name="パス 71842" d="M341.072,16.475q-.849.039-1.042.039a17.763,17.763,0,0,1-.6,4.61,3.536,3.536,0,0,1-1.331,1.562,7.8,7.8,0,0,1-2.7.617,36.38,36.38,0,0,1-4.745.347h-3.216a.268.268,0,0,1,.064.276c-.378,1.088-.8,2.171-1.213,3.234q9.707,0,11.551.926,1.043.5,1.929,3.549a16.489,16.489,0,0,0,.771,2.122,11.159,11.159,0,0,0,1.5.231,5.939,5.939,0,0,0,1.157-.154q.039-.81.039-1.157,0-5.323-.039-5.709l-.077-.849q.115-1.428.154-3.395l.231-6.172q-1.277-.115-1.7-.116-.193,0-.733.039" fill="#070203"/>
    <path id="パス_71843" data-name="パス 71843" d="M147.058.154,143.548,0l-.5.116c-1.2,1.871-2.364,3.685-3.506,5.465a1.741,1.741,0,0,1,.432.609.317.317,0,0,1-.019.4,6.654,6.654,0,0,1-1.352.981,2.7,2.7,0,0,1-.452.174l-.346.537.133.222-.219-.087q-2.478,3.854-4.766,7.406a.282.282,0,0,1,.088.072.663.663,0,0,1,.089.143l.422.195-.245.251,0,0-.117.122,0,0-.272.277-.14-.352c-.016-.041-.03-.083-.043-.125l-.121-.055q-17.165,26.632-23.78,36.3l.888-.113,2.353.113a8.022,8.022,0,0,0,1.118,0L126.7,31.937l-.174-.111a.719.719,0,0,0-.078-.043.6.6,0,0,1-.3-.266.5.5,0,0,1,.045-.417.514.514,0,0,0,.032-.078l.1-.3.271.159a.646.646,0,0,0,.079.038.533.533,0,0,1,.319.273.469.469,0,0,1-.033.354l7.7-11.811-.079-.09c-.265-.285-.493-.532-.388-.789a5.425,5.425,0,0,1,.718-1.142c.128-.173.267-.361.416-.574l.222-.319.2.334c.1.165.2.313.3.455L147.444.115ZM138.976,10.3l-.16-.391c-.011-.027-.027-.055-.041-.083a.639.639,0,0,1-.1-.386.636.636,0,0,1,.2-.343c.023-.024.045-.047.064-.07l.274-.352.344.906Z" fill="#070203"/>
    <path id="パス_71844" data-name="パス 71844" d="M347.473,1.239q-.657.039-1.409.116t-1.214.077l-6.9.231h-1.62l-.771.039-1.891-.039-.733.039q-4.9.231-9.411.231-5.547,0-9.429-.177l.24.846-1.041-.177.484-.684c-1.473-.071-2.769-.161-3.871-.271l-5.093-.193v2.7l.588.147.111-.224v.251l.228.057a22.954,22.954,0,0,0,2.236.617q3.164.54,3.743,1.08l.463,12.922-.078,6.558.154,5.516-.038,3.742.153,8.911v.231a12.92,12.92,0,0,1-.386,3.163l-.732.463q-1.968.5-3.936.887t-2.815.579l-.077,2.777q.926.039,3.433.039.269,0,3.317-.347a34.241,34.241,0,0,1,4.049-.231q7.716,0,8.642.039l.737.036-1.422-1.229,3.33-2.255.117.283c.138.33.284.635.423.922a5.2,5.2,0,0,1,.64,1.876.9.9,0,0,1-.189.545l.642.031c.009-.037.009-.074.021-.111a.656.656,0,0,1,.275-.311c.028-.021.057-.041.082-.062l.278-.245.269.775.277.013,1.2-.039.588.031-1.125-.4,1.259-.561.028.743a11.5,11.5,0,0,0,.1-1.243,10.942,10.942,0,0,0-.153-1.543l-1.042-.231a14.244,14.244,0,0,0-3.048-.5l-.771-.077a6.726,6.726,0,0,1-2.892-.926q-.656-.735-.694-3.935L322.6,31.172a23.1,23.1,0,0,1,.27-3.742c.58-.088,1.161-.152,1.745-.2l1.366-3.583-2.693-.039a1.588,1.588,0,0,1-.578-.27,25.183,25.183,0,0,1-.27-4.938l.116-5.246-.116-4.59a4.586,4.586,0,0,1,.5-2.276,7.7,7.7,0,0,1,1.233-.386,34.752,34.752,0,0,1,5.363-.386l5.323-.154q5.207,0,6.344.714t2.759,4.61a8.38,8.38,0,0,0,.886,1.736,2.07,2.07,0,0,0,.248.116,5.473,5.473,0,0,1,.969-.661c.258-.124.5.125.865.508.1.11.21.22.3.3h0c.174-.018.346-.042.519-.065,0-.136.139-.234.291-.336l.174-.12a5.327,5.327,0,0,0,.142-1.366l-.579-7.252a18.033,18.033,0,0,0-.309-2.314M314.118,32.987a.671.671,0,0,0-.05.058l-.507.667.16-2.222.409.738a.627.627,0,0,0,.042.068.61.61,0,0,1,.126.355.539.539,0,0,1-.18.336m6.71-29.039,1.181.527-.179.249a1.863,1.863,0,0,0-.111.182c-.125.218-.254.444-.491.454h-.022a1.323,1.323,0,0,1-.628-.22c-.067-.038-.136-.076-.2-.107l-.288-.131Zm-2.641,5.725c.054-.069.11-.139.156-.211l.156-.245.219.191c.054.047.124.1.192.148.24.177.448.33.382.559a3.42,3.42,0,0,1-.371.764c-.051.085-.1.169-.149.255l-.2.367-.228-.35a2.286,2.286,0,0,0-.146-.194,1.123,1.123,0,0,1-.318-.64,1.058,1.058,0,0,1,.307-.644m-.121,22.663-.97-.65,1.085-.428Zm.517-5.373c-.144.13-.288.259-.427.392l-.2.19-.171-.212a3.6,3.6,0,0,0-.26-.276c-.277-.276-.54-.538-.469-.832a6.175,6.175,0,0,1,.632-1.414c.14-.26.3-.556.477-.908l.191-.379.24.351c.221.325.437.61.618.846a2.453,2.453,0,0,1,.507.827l.111-.684,1.105.67-1.271.354.016-.1a6.268,6.268,0,0,1-1.1,1.174m3.544,6.026c-.052.048-.108.11-.164.172-.17.187-.332.364-.53.364a.335.335,0,0,1-.083-.009,2.168,2.168,0,0,1-.713-.389c-.079-.058-.157-.114-.237-.165l-.364-.232.382-.2a2.112,2.112,0,0,0,.2-.125,1.2,1.2,0,0,1,.63-.257h.02a1.142,1.142,0,0,1,.63.306c.064.049.127.1.191.139l.28.177Zm1.034-7.256.195.3c.039.059.079.113.12.168a1.751,1.751,0,0,1,.272.468c.078.228-.144.5-.169.533a.336.336,0,0,1-.255.14.3.3,0,0,1-.042,0,2.9,2.9,0,0,1-.562-.165l-.5-.176ZM326.608,3.5,326.7,2.43l.972.621Zm17.764,5.862-.683-1.222.834-.2.789.371Z" fill="#070203"/>
    <path id="パス_71845" data-name="パス 71845" d="M414.256,37.073q-.768,0-1.967.115a19.65,19.65,0,0,1-4.359,7.253c-.068.07-.147.127-.216.195.143.088.285.178.428.25l.453.227L405.8,46.467l-.331-.221a9.107,9.107,0,0,1-2.094.779,43.763,43.763,0,0,1-9.1.809q-8.1,0-9.682-.809a2.051,2.051,0,0,1-1.042-2.007l0-.4-.235-.259c-.491-.54-1-1.1-1.474-1.669-.165-.2.009-.375.323-.692.108-.107.272-.265.451-.121.327.256.635.522.951.787l.051-5.981,0-.073c-.064-.079-.127-.161-.188-.222l-.189-.192.207-.174c.048-.04.093-.085.14-.129-.01-.24-.021-.468-.03-.721l-.005.005a5.523,5.523,0,0,0-.446.447l-.163.192-3.1-2.681,3.331-2.255.117.283c.062.149.126.277.19.416-.006-.568-.009-1.167-.011-1.779l-2.806.038-.618.35.19-.746-1.757-3.356,2.886-.485.019.118.15.041.079-.054.067.094v0l1.8,2.661c.006-.2.014-.442.026-.733q2.931-.309,8.756-.308a30.451,30.451,0,0,1,5.709.269,2.808,2.808,0,0,1,1.543,1.042,15.627,15.627,0,0,1,1.389,4.475q.424,1.93.579,2.546h2.739v-.849q0-1.117-.116-3.413t-.116-3.338q0-.654.058-1.812t.058-5.208c0-.695-.02-1.6-.056-2.677a.817.817,0,0,1-.183.032.542.542,0,0,1-.148-.019c-.231-.061-.363-.283-.48-.477a1.95,1.95,0,0,0-.118-.185l-.148-.2.2-.151c.056-.042.124-.1.191-.155.293-.243.458-.375.638-.257-.015-.365-.029-.724-.047-1.122l-2.237-.039-.5.039a53.157,53.157,0,0,1-1.35,5.67,3.991,3.991,0,0,1-1.234,1.679,9.519,9.519,0,0,1-1.411.458v0l-.254.083a1.052,1.052,0,0,0-.1.041.762.762,0,0,1-.3.087.312.312,0,0,1-.159-.05,9.6,9.6,0,0,1-1.406.13q-2.937.27-9.836.269a14.373,14.373,0,0,1-1.659-.115v-4.86l-.077-6.48q0-6.636.116-7.6,3.7-.152,8.409-.153,4.128,0,7.715.309,1.967.153,2.353.192A10.437,10.437,0,0,1,404.5,5.9a17.813,17.813,0,0,1,2.469,3.55l1.54,2.739q.579,1.5.926,2.276,1,.078,1.312.077l1.582-.077c.026-.309.039-.541.039-.694l-.077-1.582V4.246a3,3,0,0,0-.694-2.083,60.69,60.69,0,0,0-6.943-.579L402.9,1.6a1.006,1.006,0,0,1,.21.553,1.182,1.182,0,0,1-.293.645c-.048.066-.1.132-.136.2l-.223.378-.211-.385c-.039-.069-.087-.14-.134-.208a1.234,1.234,0,0,1-.28-.665.888.888,0,0,1,.2-.507l-4.37.049q-6.945,0-15.545.346-5.748.231-7.136.232c-.241,0-.481-.005-.721-.007l.955.777-.39,1.312-.3-.276a2.186,2.186,0,0,0-.17-.14,1.121,1.121,0,0,1-.435-.509.952.952,0,0,1,.1-.644,1.939,1.939,0,0,0,.074-.2l.1-.323a51.881,51.881,0,0,1-6.277-.417q-1.62-.231-3.819-.347l-.2,3.087q.966.114,1.7.153a25.362,25.362,0,0,1,4.243.54q.732.155,1.157.231a1.889,1.889,0,0,1,1.157.541,7.623,7.623,0,0,1,.077.771l.347,4.782-.039,4.359.2,6.167-.039,4.359L372.827,41l-.039,1.2q.039,1.581.039,2.237a8.021,8.021,0,0,1-.424,2.816,18.675,18.675,0,0,1-3.784,1.024l1.438.413-.946.217c-.082.019-.152.037-.212.054a1.334,1.334,0,0,1-.342.062.676.676,0,0,1-.076,0c-.2-.027-.254-.221-.293-.364-.01-.033-.019-.067-.028-.094l-.075-.2c-.41.055-.822.1-1.235.129a24.132,24.132,0,0,0-2.932.424v2.665l4.667-.154h1.62c2.359-.134,4.518-.233,6.489-.3a1.631,1.631,0,0,1-.105-.242c-.085-.268.164-.5.452-.767.089-.082.178-.164.245-.239l.181-.2,1.319,1.4c.987-.021,1.924-.033,2.8-.033q9.292,0,15.893.27,9.374.387,11.534.386,1.466,0,3.973-.116l.694-4.4,1.179-6.027c-.121.233-.245.465-.365.7l-.454.876-1.011-.979,1.931-1.867.068-.124a.582.582,0,0,1,.138-.164l.024-.12-.243-.356.372-.295.019-.091q.076-.657.193-1.621-.849-.038-1.273-.038m-13.5-18.712a2.878,2.878,0,0,1,.428-.772c.059-.086.119-.171.174-.257l.226-.359.2.373c.039.068.088.14.136.21a1.151,1.151,0,0,1,.278.673,1.278,1.278,0,0,1-.322.668c-.051.068-.1.135-.142.2l-.162.266-.225-.217c-.056-.054-.129-.112-.2-.171-.25-.2-.467-.379-.394-.615m-.98,5.377.315,1.145-1.033-.2ZM385.912,25c.108-.032.215-.068.323-.1a3.835,3.835,0,0,1,.931-.23c.218-.041.349.2.514.531.06.119.126.253.2.381l.166.283-.316.086c-.116.031-.23.073-.341.114a2.039,2.039,0,0,1-.676.164.8.8,0,0,1-.181-.02c-.272-.063-.432-.321-.587-.571a2.562,2.562,0,0,0-.161-.24l-.225-.289Zm.23-21.986c.007-.034.009-.069.013-.1a.747.747,0,0,1,.124-.387.485.485,0,0,1,.412-.139.627.627,0,0,0,.088,0l.2-.024.272.864-1.181.125Zm-5.77,17.762c.012-.027.024-.054.032-.078l.092-.3.271.154a.589.589,0,0,0,.08.037.536.536,0,0,1,.321.273.544.544,0,0,1-.054.418.857.857,0,0,0-.033.081l-.1.309-.274-.175a.806.806,0,0,0-.078-.043.589.589,0,0,1-.3-.266.494.494,0,0,1,.045-.412m-1.712-6.991.316.128c.025.01.055.018.084.027a.516.516,0,0,1,.354.228.548.548,0,0,1,0,.418c-.007.03-.016.059-.021.086l-.028.16-.753.182-.023-.33Zm-3.736,33.122c-.056.035-.116.083-.177.13a.95.95,0,0,1-.533.268.366.366,0,0,1-.107-.016,1.08,1.08,0,0,1-.524-.452,2.187,2.187,0,0,0-.141-.179l-.2-.221.25-.158c.062-.039.125-.09.189-.14a.854.854,0,0,1,.654-.283c.246.046.393.283.523.491.043.068.085.137.13.195l.17.219Zm1.137-41.673.865-.126,1.038-1.468-.431,1.38.1-.014-.167.225-.054.174.023.017-.087.19h0l-.037.119-.346.077h0l-.647.144.313-.429Zm1.75,34.351-.045,2.29-1.315-.517.862-1.887.007-.351.957-.557Zm3.289-1.344,1.143-.385-.171,1.1ZM388.014,48.7l.312-.843.182.009a.491.491,0,0,0,.077,0,.455.455,0,0,1,.4.107.762.762,0,0,1,.159.347c.008.031.016.063.025.092l.116.345Z" fill="#070203"/>
    <path id="パス_71846" data-name="パス 71846" d="M114.695,24.378a12.829,12.829,0,0,0,2.393-4.476,20.206,20.206,0,0,0,.848-6.133q0-6.171-2.951-9.681A8.886,8.886,0,0,0,112.37,1.8l.44,1.188-.462.074a2.95,2.95,0,0,1-.513.06h-.053c-.182,0-.259-.182-.288-.249-.1-.235-.1-.411,0-.521a2.219,2.219,0,0,1,.43-.343c.051-.034.1-.068.15-.1l.214-.154a8.9,8.9,0,0,0-4.34-1.172,8.139,8.139,0,0,0-3.26.656,10.849,10.849,0,0,0-3.027,2.043A11.1,11.1,0,0,0,99.613,6.21a26.571,26.571,0,0,0-1.349,4.166,14.765,14.765,0,0,0-.387,3.742v0A17.072,17.072,0,0,0,98,16.854c.171-.121.347-.217.526-.132a1.019,1.019,0,0,1,.421.5c.033.063.066.126.1.182l.138.214-.216.133c-.051.033-.11.076-.167.12a.9.9,0,0,1-.473.239.292.292,0,0,1-.136-.038,17.059,17.059,0,0,0,1.393,4.146,10.669,10.669,0,0,0,3.3,3.939c.073-.057.145-.117.216-.173.117-.091.234-.181.348-.273l.273-.221.521,1.439a11.156,11.156,0,0,0,4.469.689,7.283,7.283,0,0,0,3.318-1.042,8.881,8.881,0,0,0,2.661-2.2M98.784,14.753l-.189-.278c-.034-.047-.069-.094-.1-.14a1.765,1.765,0,0,1-.276-.463c-.07-.195.1-.407.209-.517a.341.341,0,0,1,.341-.115,2.264,2.264,0,0,1,.47.25l.381.233Zm2.574,1.6.569-1.173.438,1.25Zm.887-5.516c-.035.07-.07.14-.1.208l-.1.258-.248-.12a2.069,2.069,0,0,0-.209-.084,1.038,1.038,0,0,1-.585-.388c-.121-.214.006-.456.129-.691a1.79,1.79,0,0,0,.1-.207l.1-.236.234.1c.066.027.144.05.222.074.256.077.519.156.6.393a.938.938,0,0,1-.147.694m.849-7.266.056-.333c0-.034.007-.071.01-.109a.612.612,0,0,1,.147-.432.565.565,0,0,1,.446-.111c.037,0,.072,0,.109,0l.179-.013.348.83Zm7.781,17.451q-.386,2.739-1.254,3.568a2.712,2.712,0,0,1-1.908.829,2.139,2.139,0,0,1-1.274-.386l-1.234-1.583q-.46-.849-.5-6.712c0-.574-.03-1.6-.088-3.016a4.465,4.465,0,0,1-.469.127.418.418,0,0,1-.061.005c-.242,0-.4-.286-.619-.7-.069-.129-.138-.258-.2-.357l-.151-.238.254-.122c.164-.079.326-.164.488-.249.245-.126.5-.25.753-.362q.077-3.99.209-4.837a6.3,6.3,0,0,1,1.254-3.317,2.652,2.652,0,0,1,1.909-.81,2.384,2.384,0,0,1,2.083,1.157q1.119,1.7,1.119,5.979v2.773l.078,2.583a40.751,40.751,0,0,1-.387,5.671m1,1.1-.293-.357-.142-.173.637.119.2-.022,2.015-1.5,0-.007c.023-.046.042-.1.062-.143l-.074-.356.835.268.3.1-.485.292.524,2.512-3.112-.583-.007.006-.058.047-.015,0-.137.1-.248-.3h0" fill="#070203"/>
    <path id="パス_71847" data-name="パス 71847" d="M212.743,45.811a14.547,14.547,0,0,1-8.2,2.642,15.7,15.7,0,0,1-7.252-1.736,11.447,11.447,0,0,1-4.244-3.433,24.3,24.3,0,0,1-3.51-7.368,35.806,35.806,0,0,1-.849-9.335q0-11.3,4.976-17.628a11.672,11.672,0,0,1,9.644-4.674,17.157,17.157,0,0,1,8.795,2.3,25.573,25.573,0,0,1,7.638,7.546h3.509a20.262,20.262,0,0,0-.2-2.662l-.36.391-.153-.346-.922-1.767,1.168,1.183s.058.058.112.113l.062.053.028.007a19.75,19.75,0,0,0-.472-2.218q-1.542-5.443-2.043-6.6a56,56,0,0,0-7.89-1.442,79.71,79.71,0,0,0-9.006-.482c-.209,0-.412.008-.617.013l.158.169-.188.172c-.073.064-.144.134-.215.2a3.116,3.116,0,0,1-.671.545.294.294,0,0,1-.129.036c-.114,0-.282-.081-.575-.385-.117-.123-.281-.293-.171-.482.041-.068.089-.127.132-.192a29.513,29.513,0,0,0-6.216,1.051c-.021.062-.041.126-.062.187-.03.087-.058.175-.087.262l.567-.077.082.493-.155.031-.521.1.385,1.6-.989-1.822v0l-.123-.227.11-.014-.058-.282a25,25,0,0,0-10,6.094q-7.581,7.479-7.58,18.978a28.17,28.17,0,0,0,1.22,8.565,22.72,22.72,0,0,0,3.722,7.059c.133.163.28.311.416.47a.642.642,0,0,1,.28-.259,1,1,0,0,1,.722.089,2.416,2.416,0,0,0,.229.08l.321.086-.173.285c-.037.062-.071.135-.105.207a1.063,1.063,0,0,1-.4.507,26.445,26.445,0,0,0,5.608,4.553,21.437,21.437,0,0,0,7.232,2.813,43.507,43.507,0,0,0,8.968.887,51.262,51.262,0,0,0,10.474-.9,16.376,16.376,0,0,0,6.621-2.717l.539-1.813.347-1.157q.772-4.282.888-4.9a28,28,0,0,0,.5-3.047,23,23,0,0,0-3.742.309,29.4,29.4,0,0,1-7.581,7.888m7.674-35.929.052.382a.511.511,0,0,0,.017.083.687.687,0,0,1,.007.37.532.532,0,0,1-.263.275c-.022.014-.044.027-.063.041l-.2.149-.526-.693ZM196.6,2.555,197.691,3l-1.569.639Zm-4.416,6.867-.079.132-.02.134-.384.053h-.008l-.248.033-.265.035.22-.367-.11-.823.4.34.664-1.107-.223,1.515Zm-1.62-5.593a3.062,3.062,0,0,0,.3-.218,1.514,1.514,0,0,1,.866-.43h0a3.376,3.376,0,0,1,1.179.305c.2.075.418.158.665.236l.367.119-.259.286c-.189.212-.364.424-.513.609-.34.417-.526.644-.724.644a.35.35,0,0,1-.123-.027A7.5,7.5,0,0,1,191,4.55c-.145-.1-.291-.2-.438-.3l-.321-.215ZM187.286,8.35c.172-.075.344-.153.517-.228.026-.025.052-.047.077-.071l.145-.127.842-.821.371.334-.724.917-.007.014-.006,0-.1.13-.091-.05c-.077.032-.155.064-.233.1-.1.087-.2.172-.3.25a.321.321,0,0,1-.2.063.881.881,0,0,1-.163-.022l-.918-.1Zm-.681,8.429.04,1.017-1.3-.459ZM183.4,18.106a2.6,2.6,0,0,1,.1-.532.644.644,0,0,1,.276-.311c.028-.02.056-.041.08-.062l.28-.246.407,1.171-1.247.659Zm-2.961,14.657-.16.843-.036,1.777-1.315-.519.862-1.886,0-.139-.024-.055.026-.062v-.094l.315-.183.437-.254.207-.12Zm1.407-1.864c-.045.037-.091.082-.136.127a.881.881,0,0,1-.524.317h-.03c-.233,0-.4-.229-.545-.432l-.175-.232.11-.176c.076-.116.268-.385.5-.322a3.177,3.177,0,0,1,.564.215l.556.241Zm-1.483-10.94.315-.888h.179a.663.663,0,0,0,.1-.008.528.528,0,0,1,.428.088.709.709,0,0,1,.188.379c.009.035.019.07.03.1l.116.335Zm2-2.067-.778-.041-.17.263-.128-.135-.5.75-.677-1.207.4-.022.306-.014-.176-.186.485.026.1-.144.122.128.565-.872.711.959.032.01.168.009.164.949.082.475-.284-.384Zm1.118,6.174-.2.521-.116-.912-.209-.257.181-.042v-.008l.082-.016.555-1.454-.082-.1.162-.113.123-.323.067.078,1.067-3.289,2.226,1.11h0l.263.132.065.034.526-.312.211-.128.67,1.084-3.757,2.8-.064-.41c-.02-.127-.058-.279-.1-.43a4.106,4.106,0,0,1-.112-.564l-.623.433-.015.044.006.017-.038.086-.13.4-.034-.039-.371.822.895-.173-.625,1.783Zm1.472,6.96.281-.4-.91-.184-.263-.032-.222.644-.166-.739-.1-.016L184,28.409l.078.05c.118-.218.233-.436.349-.65l.269-.506-.1-.234.228,0,.175-.326.153.326q.931,0,1.866,0h.1l.054-.107.168.108h.289l-.1.28-.017.048-.358,1.719-.9-.193.086-.3.522-1.036-1.681.023c-.2.472-.42.931-.636,1.387l-.313.912.173.036c.455.055.909.113,1.362.171l.093.011.685.76-.679-.137Zm2.078,2.129-.446-.417-.039-.006-.272.174-.062-.58,0-.024-.073-.675.3.282.179-.218.164-.305.013.091.079-.094.248.414c.114.18.231.367.048.515-.073.059-.155.108-.233.161ZM186.68,45.1c-.123,0-.289-.089-.558-.364-.125-.129-.3-.305-.19-.5a4.847,4.847,0,0,1,.571-.745l.364-.429,1.015,1.083-.189.171c-.071.066-.14.135-.211.2a3.042,3.042,0,0,1-.675.547.274.274,0,0,1-.127.034m3.082.822c-.14.107-.28.233-.412.35-.3.27-.532.479-.752.479a.335.335,0,0,1-.144-.033,2.4,2.4,0,0,1-1.313-1.237c-.1-.336.226-.676.569-1.036.121-.127.241-.253.332-.371l.181-.235,1.754,1.917Zm.075-4.28a2.008,2.008,0,0,0-.108-.188,1.123,1.123,0,0,1-.222-.614,1.4,1.4,0,0,1,.244-.632c.041-.068.08-.136.114-.206l.121-.249,1.194.738L190.014,42Zm1.949,5.916a2.048,2.048,0,0,0-.093.207l-.1.3-.265-.17a2.008,2.008,0,0,0-.2-.108.957.957,0,0,1-.528-.452.935.935,0,0,1,.116-.686c.03-.071.061-.143.084-.211l.1-.312.276.178c.062.04.136.076.207.112a1.027,1.027,0,0,1,.537.454.875.875,0,0,1-.125.69" fill="#070203"/>
    <path id="パス_71848" data-name="パス 71848" d="M152.031,25.81a.657.657,0,0,1-.241.309.951.951,0,0,0-.087.071l-.188.178-.172-.193a.986.986,0,0,0-.08-.077.552.552,0,0,1-.24-.411.362.362,0,0,1,.087-.21,8.93,8.93,0,0,0-2.507-.4,8.4,8.4,0,0,0-3.26.636,10.483,10.483,0,0,0-3.028,2.025,11.131,11.131,0,0,0-2.044,2.932,26.686,26.686,0,0,0-1.35,4.2,14.312,14.312,0,0,0-.386,3.7v0a17.193,17.193,0,0,0,1.7,8.1,10.468,10.468,0,0,0,4.127,4.513,11.022,11.022,0,0,0,4.976.887,7.3,7.3,0,0,0,3.356-1.035,8.438,8.438,0,0,0,2.623-2.2,12.473,12.473,0,0,0,2.43-4.475,20.176,20.176,0,0,0,.849-6.133q0-6.171-2.97-9.663a8.949,8.949,0,0,0-3.593-2.762m-9.1,4.054.236.65c.044.122.093.243.142.364a4.443,4.443,0,0,1,.3.937,1.282,1.282,0,0,1-.145.684,2.4,2.4,0,0,0-.088.233l-.188.613-.863-1.8Zm-.826,3.55a.711.711,0,0,0,.1-.041.477.477,0,0,1,.48-.029.654.654,0,0,1,.221.377c.01.035.02.069.032.1l.1.248-.254.083a.775.775,0,0,0-.1.041.761.761,0,0,1-.3.086.3.3,0,0,1-.178-.057.651.651,0,0,1-.223-.378c-.01-.034-.019-.068-.032-.1l-.1-.248Zm-1.973,12.827.691-1,.42,1.141Zm1.45-4.557.716-.445.369.632-.365.853Zm1.633,5.465-.35-.138c-.234-.089-.419-.158-.358-.385a4.332,4.332,0,0,1,.274-.7c.1-.218.31-.133.51-.052l.355.137Zm7.043,1.9a2.645,2.645,0,0,1-1.89.829,2.129,2.129,0,0,1-1.273-.386l-1.234-1.582q-.5-.849-.5-6.712,0-1-.116-3.7c.007-.9.017-1.7.029-2.406l-.4-.077.412-.546c.034-1.589.084-2.6.149-3.021a6.167,6.167,0,0,1,1.273-3.317,2.775,2.775,0,0,1,.335-.278c.044-.063.089-.127.13-.192l.226-.358.141.258a2.726,2.726,0,0,1,1.1-.24,2.361,2.361,0,0,1,.776.134c.174-.128.3-.173.436-.055a3.834,3.834,0,0,1,.536.607l.375.474-.032.011c.035.053.065.117.1.174l.949-.582.112.271c.032.073.071.147.11.222a1.272,1.272,0,0,1,.207.7c-.027.248-.289.365-.544.477a2.223,2.223,0,0,0-.218.1l-.1.056a16.791,16.791,0,0,1,.5,4.537v2.769l.039,2.584a40.572,40.572,0,0,1-.386,5.67q-.386,2.739-1.234,3.568m3.562-3.285c-.085.111-.168.224-.251.338a9.78,9.78,0,0,1-.809,1,.269.269,0,0,1-.2.088,1.317,1.317,0,0,1-.519-.2c-.084-.044-.168-.088-.238-.118l-.246-.106.933-1.841,1.539.562Zm4-3.421c-.021.042-.046.084-.07.126l-.238.44-.669-.82-.01-.756,0-.206.422.475.1.065a4.117,4.117,0,0,1,.431.3.246.246,0,0,1,.063.307l.074.083ZM157.5,33.6l.439,1.247-1.008-.072Zm-1.182,1.745a2.867,2.867,0,0,1,.823.595c.143.128.3.272.5.432l.409.336-.518.1c-.244.049-.455.107-.64.158a2.784,2.784,0,0,1-.693.135.756.756,0,0,1-.291-.054,1.256,1.256,0,0,1-.557-.741c-.047-.108-.094-.215-.146-.309l-.14-.247.263-.107a2.572,2.572,0,0,0,.24-.121.921.921,0,0,1,.751-.18" fill="#070203"/>
    <path id="パス_71849" data-name="パス 71849" d="M288.277,47.758a4.387,4.387,0,0,1-2.257-.771,5.979,5.979,0,0,1-1.157-1.89q-.572-1.161-1.083-2.35l-1.552-.545,1.381.131c-.3-.718-.6-1.441-.867-2.174q-1.352-3.625-2.123-5.439c-.154-.354-.32-.749-.485-1.14l-.067-.043.037-.027c-.761-1.808-1.628-3.982-2.61-6.563q-1.812-4.764-4.089-9.816L266.693,1.237l-.347-.694H264.61q-1.156,0-2.43-.038L253.038,24.5,245.246,44.9a6.907,6.907,0,0,1-1.562,2.236,11.98,11.98,0,0,1-3.607,1.042,25.982,25.982,0,0,0-2.584.579l-.077,2.623h.7a33.958,33.958,0,0,0,5.44-.463l1.577-.267c2.139.155,3.985.281,5.566.381l-.122-.292,1,.054-.135.284c2.455.149,4.173.226,5.111.226a5.373,5.373,0,0,0,.077-.887q0-.54-.039-1.929-2.391-.347-2.739-.424a6.979,6.979,0,0,1-3.4-1.044,1.709,1.709,0,0,1-.54-1.427,10.4,10.4,0,0,1,.733-2.777q2.547-7.212,3.356-9.065l14.735.04,3.047,7.56,1.541,3.781a3.1,3.1,0,0,1,.193,1.042,1.215,1.215,0,0,1-.386.887,8.018,8.018,0,0,1-2.237.771l-4.282.926q-.116,1.235-.116,2.584l1.89-.077,6.558-.347q1.353-.076,4.4-.077,2.739,0,6.172.271t6.288.27c.026-.386.04-.669.04-.849a13.948,13.948,0,0,0-.194-1.89,14.529,14.529,0,0,0-3.375-.887m-33.606,1.028.95.44-1.344.79ZM268.289,33.27l.008-.5c.009-.584.02-1.167.032-1.752l-.045-.081-3.728.582.206-.429c.1-.2.182-.405.269-.61.093-.222.19-.447.3-.667q-2.443-.018-9.782-.112l.6-1.606-.326.708-.253-.3a.95.95,0,0,0-.09-.089c-.123-.114-.275-.257-.229-.455a2.673,2.673,0,0,1,.222-.577c.031-.064.062-.128.091-.192l.148-.34.26.266c.1.1.2.2.3.306l.092.09,4.771-12.7q1.158,2.4,3.009,6.962c.971,2.394,1.793,4.544,2.477,6.471a.561.561,0,0,1,.245-.047c.439.033.772.542,1.483,1.823l0-.113.342.455.664-.1-.514.478,1.379,1.135ZM269.7,30.1l-.169-.2c-.018-.022-.042-.043-.065-.066a.5.5,0,0,1-.212-.383.51.51,0,0,1,.258-.358.851.851,0,0,0,.072-.056l.19-.171.556.65Zm2.413-.61c-.1.3-.209.6-.321.9l0,.009,0,.036.1.185-.13.09-.042.43-.535-.545-.143-.145.236-.1.024-.063.153-1.564.366.315a.892.892,0,0,0,.074.055c.119.087.283.206.222.4m1.241,3.559c-.031-.026-.071-.054-.111-.084-.171-.123-.346-.251-.28-.459a2.8,2.8,0,0,1,.266-.537l.227-.405.78.525-.652,1.154Zm1.709,9.027c-.037.1-.076.209-.106.313l-.08.273-.261-.115c-.07-.03-.158-.058-.245-.088-.3-.1-.565-.186-.592-.435a3.678,3.678,0,0,1,.074-.984c.02-.13.043-.264.06-.4l.048-.38.328.2c.123.073.254.136.373.195.323.157.577.281.593.536a2.278,2.278,0,0,1-.192.893m.663-15.878-.99-.4v.414l-.5.014-.029-.547-1.329,0,1.615-.525h0l.238-.077v.107l1.093,0Zm12.573,24.631-.358-.417a1.688,1.688,0,0,1-.26-.343c-.1-.2.057-.336.2-.458.031-.027.064-.054.087-.077l.224-.216.414.675Z" fill="#070203"/>
  </g>
</svg>
