<svg xmlns="http://www.w3.org/2000/svg" width="652.764" height="64.326" viewBox="0 0 652.764 64.326">
  <path id="パス_72455" data-name="パス 72455" d="M27.549,0h-9.6V-36.2a33.111,33.111,0,0,1-12.407,7.28v-8.716A27.776,27.776,0,0,0,13.706-42.3a17.728,17.728,0,0,0,6.05-8.015h7.793Zm90.412-3.691A13.369,13.369,0,0,0,115.021.854q-.581,1.538-1.06,1.538a4.06,4.06,0,0,1-1.675-.752,56.167,56.167,0,0,1-14.971-13.4q.034,5.229.273,11.519l.205,4.922q0,.581-.137.684a1.177,1.177,0,0,1-.615.1H91.164a1.246,1.246,0,0,1-.752-.137,1.276,1.276,0,0,1-.1-.649q0-.273.137-2.837.376-7.588.444-13.4A54.1,54.1,0,0,1,75.407,2.256a4.425,4.425,0,0,1-1.538.752q-.479,0-1.265-1.538A14.342,14.342,0,0,0,69.46-2.358a48.294,48.294,0,0,0,17.979-13.3H86.311l-9.092.137q-.752,0-.752-.684l.137-6.768V-33.53l-.137-6.631q0-.581.137-.684a1.177,1.177,0,0,1,.615-.1l9.092.137h4.341v-4.683H83.815l-9.6.273q-.684,0-.684-.889v-4.751a1.246,1.246,0,0,1,.137-.752.892.892,0,0,1,.547-.1l9.6.137h6.836a57.726,57.726,0,0,0-.479-7.212q4.1.1,7.075.479,1.128.137,1.128.854a3.939,3.939,0,0,1-.479,1.4,14.11,14.11,0,0,0-.444,4.478H106l9.57-.137q.513,0,.615.137a1.618,1.618,0,0,1,.1.718v4.751q0,.889-.718.889L106-45.493H97.453v4.683h5.2l9.058-.137q.581,0,.684.137a1.276,1.276,0,0,1,.1.649l-.137,6.631v10.562l.137,6.768q0,.684-.786.684l-9.058-.137h-2.187Q106.818-8.887,117.961-3.691Zm-12.1-31.992H97.248v5.024h8.613Zm0,14.9V-25.84H97.248v5.059Zm-22.9,0h7.93V-25.84h-7.93Zm0-9.878h7.93v-5.024h-7.93ZM60.129-38.281l-6.562.137q-.718,0-.718-.752v-4.99q0-.752.718-.752l6.563.137h1.4v-4.614a60.269,60.269,0,0,0-.547-9.4,63.953,63.953,0,0,1,6.7.479q1.2.239,1.2.786a3.352,3.352,0,0,1-.41,1.47q-.41,1.025-.41,6.6V-44.5l5.435-.137q.718,0,.718.752v4.99q0,.752-.718.752-.1,0-1.675-.034-1.641-.068-3.623-.1A40.865,40.865,0,0,0,75.681-25.4a23.669,23.669,0,0,0-2.6,4.683q-.547,1.2-.752,1.2-.308,0-.923-1.128a39.778,39.778,0,0,1-3.555-8.34q.034,11.758.273,24.473.068,2.871.171,7.075.034,1.982.034,2.222,0,.547-.171.649a1.379,1.379,0,0,1-.684.1H62.043q-.581,0-.684-.137a1.177,1.177,0,0,1-.1-.615q0-.239.1-4.956.273-14.355.376-26.284a65.258,65.258,0,0,1-6.494,15.313q-.684,1.128-1.06,1.128-.342,0-.752-1.265A15.847,15.847,0,0,0,51.037-16.3,61.6,61.6,0,0,0,61.052-38.281ZM157.479,0h-9.6V-36.2a33.111,33.111,0,0,1-12.407,7.28v-8.716a27.776,27.776,0,0,0,8.169-4.666,17.728,17.728,0,0,0,6.05-8.015h7.793Zm90.412-3.691A13.369,13.369,0,0,0,244.952.854q-.581,1.538-1.06,1.538a4.06,4.06,0,0,1-1.675-.752,56.167,56.167,0,0,1-14.971-13.4q.034,5.229.273,11.519l.205,4.922q0,.581-.137.684a1.177,1.177,0,0,1-.615.1h-5.879a1.246,1.246,0,0,1-.752-.137,1.276,1.276,0,0,1-.1-.649q0-.273.137-2.837.376-7.588.444-13.4A54.1,54.1,0,0,1,205.338,2.256a4.426,4.426,0,0,1-1.538.752q-.479,0-1.265-1.538a14.342,14.342,0,0,0-3.145-3.828,48.294,48.294,0,0,0,17.979-13.3h-1.128l-9.092.137q-.752,0-.752-.684l.137-6.768V-33.53l-.137-6.631q0-.581.137-.684a1.177,1.177,0,0,1,.615-.1l9.092.137h4.341v-4.683h-6.836l-9.6.273q-.684,0-.684-.889v-4.751a1.246,1.246,0,0,1,.137-.752.892.892,0,0,1,.547-.1l9.6.137h6.836a57.725,57.725,0,0,0-.479-7.212q4.1.1,7.075.479,1.128.137,1.128.854a3.939,3.939,0,0,1-.479,1.4,14.11,14.11,0,0,0-.444,4.478h8.545l9.57-.137q.513,0,.615.137a1.618,1.618,0,0,1,.1.718v4.751q0,.889-.718.889l-9.57-.273h-8.545v4.683h5.2l9.058-.137q.581,0,.684.137a1.276,1.276,0,0,1,.1.649l-.137,6.631v10.562l.137,6.768q0,.684-.786.684l-9.058-.137h-2.187Q236.749-8.887,247.892-3.691Zm-12.1-31.992h-8.613v5.024h8.613Zm0,14.9V-25.84h-8.613v5.059Zm-22.9,0h7.93V-25.84h-7.93Zm0-9.878h7.93v-5.024h-7.93ZM190.06-38.281l-6.562.137q-.718,0-.718-.752v-4.99q0-.752.718-.752l6.563.137h1.4v-4.614a60.27,60.27,0,0,0-.547-9.4,63.952,63.952,0,0,1,6.7.479q1.2.239,1.2.786a3.352,3.352,0,0,1-.41,1.47q-.41,1.025-.41,6.6V-44.5l5.435-.137q.718,0,.718.752v4.99q0,.752-.718.752-.1,0-1.675-.034-1.641-.068-3.623-.1A40.865,40.865,0,0,0,205.611-25.4a23.669,23.669,0,0,0-2.6,4.683q-.547,1.2-.752,1.2-.308,0-.923-1.128a39.778,39.778,0,0,1-3.555-8.34q.034,11.758.273,24.473.068,2.871.171,7.075.034,1.982.034,2.222,0,.547-.171.649a1.379,1.379,0,0,1-.684.1h-5.435q-.581,0-.684-.137a1.177,1.177,0,0,1-.1-.615q0-.239.1-4.956.273-14.355.376-26.284a65.258,65.258,0,0,1-6.494,15.313q-.684,1.128-1.06,1.128-.342,0-.752-1.265a15.847,15.847,0,0,0-2.393-5.024,61.6,61.6,0,0,0,10.015-21.978ZM287.41,0h-9.6V-36.2a33.111,33.111,0,0,1-12.407,7.28v-8.716a27.776,27.776,0,0,0,8.169-4.666,17.728,17.728,0,0,0,6.05-8.015h7.793Zm24.924-37.734q0-6.733,2.957-9.98a10.3,10.3,0,0,1,8.015-3.247,10.541,10.541,0,0,1,8.186,3.23q2.957,3.23,2.957,10,0,6.733-2.957,9.98a10.3,10.3,0,0,1-8.015,3.247,10.541,10.541,0,0,1-8.186-3.23Q312.334-30.967,312.334-37.734Zm7.485-.068q0,4.888,1.128,6.563a2.717,2.717,0,0,0,2.358,1.23,2.748,2.748,0,0,0,2.393-1.23q1.094-1.675,1.094-6.562T325.7-44.331a2.727,2.727,0,0,0-2.393-1.265,2.717,2.717,0,0,0-2.358,1.23Q319.819-42.69,319.819-37.8Zm10.8,39.717h-7.109l26.694-52.876h6.9Zm15.518-13.159q0-6.733,2.957-9.98a10.386,10.386,0,0,1,8.083-3.247,10.428,10.428,0,0,1,8.118,3.247q2.957,3.247,2.957,9.98,0,6.768-2.957,10.015a10.3,10.3,0,0,1-8.015,3.247,10.513,10.513,0,0,1-8.186-3.247Q346.138-4.478,346.138-11.245Zm7.485-.034q0,4.888,1.128,6.528a2.7,2.7,0,0,0,2.358,1.265,2.664,2.664,0,0,0,2.358-1.23q1.128-1.675,1.128-6.562T359.5-17.842a2.748,2.748,0,0,0-2.393-1.23,2.664,2.664,0,0,0-2.358,1.23Q353.623-16.167,353.623-11.279Zm62.009-34.214Q414.3-22.456,408.8-10.015q-2.256,5.161-5.264,7.246a10.127,10.127,0,0,1-5.811,1.641q-5.571,0-8.818-5.64Q385.9-12,385.9-20.781q0-14.185,7.964-22.627a23.332,23.332,0,0,1,8.887-5.913,27.6,27.6,0,0,1,10.083-1.846q23.892,0,23.892,27.446,0,21.431-22.832,26.523l-3.623-5.947q10.732-2.119,15.176-8.2,3.589-4.956,3.589-13.364,0-11.006-4.478-16.406A11.878,11.878,0,0,0,415.632-45.493Zm-7.28.479q-5.708.615-10.425,6.665-5.161,6.631-5.161,17.842,0,6.323,1.743,9.57,1.333,2.529,3.281,2.529a3.543,3.543,0,0,0,2.7-1.128,10.856,10.856,0,0,0,1.982-3.691,90.879,90.879,0,0,0,4.067-15.62A113.227,113.227,0,0,0,408.352-45.015ZM478.6,0h-9.6V-36.2a33.111,33.111,0,0,1-12.407,7.28v-8.716a27.776,27.776,0,0,0,8.169-4.666,17.728,17.728,0,0,0,6.05-8.015H478.6Zm41.091-50.312q7.28,0,11.382,5.2,4.888,6.152,4.888,20.405,0,14.219-4.922,20.439Q526.969.854,519.688.854A14.34,14.34,0,0,1,507.9-4.768q-4.478-5.623-4.478-20.046,0-14.15,4.922-20.371Q512.408-50.312,519.688-50.312Zm0,7.964a4.8,4.8,0,0,0-3.11,1.111,7.457,7.457,0,0,0-2.119,3.982q-.991,3.726-.991,12.544t.889,12.117q.889,3.3,2.239,4.392a4.776,4.776,0,0,0,3.093,1.094A4.8,4.8,0,0,0,522.8-8.22a7.457,7.457,0,0,0,2.119-3.982q.991-3.691.991-12.51t-.889-12.117q-.889-3.3-2.239-4.409A4.731,4.731,0,0,0,519.688-42.349Zm49.431-7.964q7.28,0,11.382,5.2,4.888,6.152,4.888,20.405,0,14.219-4.922,20.439Q576.4.854,569.119.854a14.34,14.34,0,0,1-11.792-5.623q-4.478-5.623-4.478-20.046,0-14.15,4.922-20.371Q561.839-50.312,569.119-50.312Zm0,7.964a4.8,4.8,0,0,0-3.11,1.111,7.457,7.457,0,0,0-2.119,3.982q-.991,3.726-.991,12.544t.889,12.117q.889,3.3,2.239,4.392a4.776,4.776,0,0,0,3.093,1.094,4.8,4.8,0,0,0,3.11-1.111,7.457,7.457,0,0,0,2.119-3.982q.991-3.691.991-12.51t-.889-12.117q-.889-3.3-2.239-4.409A4.731,4.731,0,0,0,569.119-42.349Zm33.264,4.614q0-6.733,2.957-9.98a10.3,10.3,0,0,1,8.015-3.247,10.541,10.541,0,0,1,8.186,3.23q2.957,3.23,2.957,10,0,6.733-2.957,9.98a10.3,10.3,0,0,1-8.015,3.247,10.541,10.541,0,0,1-8.186-3.23Q602.383-30.967,602.383-37.734Zm7.485-.068q0,4.888,1.128,6.563a2.717,2.717,0,0,0,2.358,1.23,2.748,2.748,0,0,0,2.393-1.23q1.094-1.675,1.094-6.562t-1.094-6.528a2.727,2.727,0,0,0-2.393-1.265A2.717,2.717,0,0,0,611-44.365Q609.868-42.69,609.868-37.8Zm10.8,39.717H613.56l26.694-52.876h6.9Zm15.518-13.159q0-6.733,2.957-9.98a10.386,10.386,0,0,1,8.083-3.247,10.428,10.428,0,0,1,8.118,3.247q2.957,3.247,2.957,9.98,0,6.768-2.957,10.015a10.3,10.3,0,0,1-8.015,3.247,10.513,10.513,0,0,1-8.186-3.247Q636.187-4.478,636.187-11.245Zm7.485-.034q0,4.888,1.128,6.528a2.7,2.7,0,0,0,2.358,1.265,2.664,2.664,0,0,0,2.358-1.23q1.128-1.675,1.128-6.562t-1.094-6.562a2.748,2.748,0,0,0-2.393-1.23,2.664,2.664,0,0,0-2.358,1.23Q643.672-16.167,643.672-11.279Z" transform="translate(-5.537 58.789)" fill="#fff"/>
</svg>
