<svg xmlns="http://www.w3.org/2000/svg" width="768.926" height="61.033" viewBox="0 0 768.926 61.033">
  <path id="パス_72455" data-name="パス 72455" d="M17.075,4.7H11.426a.954.954,0,0,1-.587-.111,1.033,1.033,0,0,1-.111-.619l.127-21.2v-12l-.127-16.155q0-.508.127-.6a1.185,1.185,0,0,1,.6-.1l9.014.127h4.221A49.211,49.211,0,0,0,27.1-52.051a17.462,17.462,0,0,0,.7-3.079q2.666.254,6.951.984.92.19.92.857a1.393,1.393,0,0,1-.508.889,5.315,5.315,0,0,0-.984,1.555q-1.174,2.825-2.253,4.888H44.592l9.045-.127q.508,0,.6.127a1.093,1.093,0,0,1,.1.571l-.127,14.377V-17.3L54.336,3.84a1,1,0,0,1-.127.635,1.093,1.093,0,0,1-.571.1H47.861q-.54,0-.635-.159a.992.992,0,0,1-.1-.571V.92H17.805V3.967a1,1,0,0,1-.127.635A1.185,1.185,0,0,1,17.075,4.7Zm.73-10.029H47.131V-13.14H17.805Zm0-13.933H47.131V-26.5H17.805Zm0-20.439v7.078H47.131V-39.7ZM85.48,4.761H79.862q-.7,0-.7-.667l.127-18.948V-26.184l-.127-14.6q0-.508.127-.6a1.185,1.185,0,0,1,.6-.1l8.823.127H100.81v-3.428a69.848,69.848,0,0,0-.508-9.363q4.285.1,7.268.444.984,0,.984.793a8.761,8.761,0,0,1-.413,1.555,38.954,38.954,0,0,0-.317,6.475v3.523h12.949l8.855-.127q.508,0,.6.127a1.093,1.093,0,0,1,.1.571L130.2-27.676v12.7l.127,18.821q0,.635-.7.635h-5.681q-.7,0-.7-.635V1.111H86.178V4.094Q86.178,4.761,85.48,4.761Zm22.344-9.966h15.425V-17.393H107.824Zm-21.646,0H100.81V-17.393H86.178Zm37.07-29.834H107.824v11.458h15.425Zm-37.07,0v11.458H100.81V-35.039ZM207.142-1.555a20.716,20.716,0,0,0-2.793,4.57q-.825,1.746-1.3,1.746a7.392,7.392,0,0,1-1.492-.444,48.206,48.206,0,0,1-13.2-7.554,49.578,49.578,0,0,1-13.267,7.871,4.07,4.07,0,0,1-1.492.444q-.54,0-1.365-1.619a12.226,12.226,0,0,0-3.047-3.84q.032,1.619.1,2.825.032.825.032.889,0,.508-.127.6a1.093,1.093,0,0,1-.571.1h-4.6q-.54,0-.635-.127a1.093,1.093,0,0,1-.1-.571V1.174h-7.046V4.539q0,.54-.127.635a1.185,1.185,0,0,1-.6.1h-4.6a1.157,1.157,0,0,1-.7-.127,1.185,1.185,0,0,1-.1-.6l.159-9.807V-9.426l-.159-6.094q0-.54.159-.635a1.28,1.28,0,0,1,.635-.1l5.935.127h5.776l6-.127q.508,0,.6.127a1.185,1.185,0,0,1,.1.6l-.127,4.983V-.444a44.368,44.368,0,0,0,14.5-7.3,39.863,39.863,0,0,1-7.681-13.521l-2.92.063q-.508,0-.635-.159a1.185,1.185,0,0,1-.1-.6v-4.57q0-.635.73-.635l7.935.127H196.16a3.978,3.978,0,0,0,1.428-.254,2.65,2.65,0,0,1,.984-.317q.635,0,2.444,1.809,2.031,2.095,2.031,2.729a1.334,1.334,0,0,1-.73,1.174,4.665,4.665,0,0,0-1.555,2A47.12,47.12,0,0,1,193.05-7.808,43.012,43.012,0,0,0,207.142-1.555ZM194.415-21.328H182.386a30.722,30.722,0,0,0,5.9,9.426A32.142,32.142,0,0,0,194.415-21.328Zm-31.135,10.6h-7.046v6.506h7.046Zm7.3-21.931a14.522,14.522,0,0,0,5.237-5.9,19.686,19.686,0,0,0,1.523-8.252l-.127-4.824q0-.508.159-.6a1.28,1.28,0,0,1,.635-.1l5.713.127h6.506l5.84-.127q.54,0,.635.127a1.093,1.093,0,0,1,.1.571l-.127,5.269v6.76a3.6,3.6,0,0,0,.444,2.222,2.952,2.952,0,0,0,1.841.381,1.96,1.96,0,0,0,1.746-.92q.476-.762.635-5.84a18.078,18.078,0,0,0,3.84,1.746,3.9,3.9,0,0,1,1.3.6,1.426,1.426,0,0,1,.222.92q0,.159-.032.825-.254,5.237-2.349,6.951-1.587,1.492-6.6,1.492-4.094,0-5.554-.92-1.746-1.143-1.746-4.475v-9.553h-6.76a26.7,26.7,0,0,1-2,10.505,19.007,19.007,0,0,1-4.38,6.062q-1.047,1.047-1.555,1.047T174.166-29.8A11.987,11.987,0,0,0,170.579-32.659ZM155.218-42.974h8.442l6.951-.127a1,1,0,0,1,.635.127,1.093,1.093,0,0,1,.1.571v4.634q0,.54-.159.667a.992.992,0,0,1-.571.1l-6.951-.127h-8.442l-6.887.127q-.54,0-.635-.159a1.185,1.185,0,0,1-.1-.6V-42.4q0-.508.127-.6a1.185,1.185,0,0,1,.6-.1Zm1.746-8.887h5.9l5.872-.127a1.079,1.079,0,0,1,.667.127,1.093,1.093,0,0,1,.1.571v4.348q0,.54-.127.635a1.28,1.28,0,0,1-.635.1l-5.872-.127h-5.9l-5.9.127q-.54,0-.635-.127a1.185,1.185,0,0,1-.1-.6v-4.348q0-.508.127-.6a1.185,1.185,0,0,1,.6-.1Zm.254,18.186h5.142l5.459-.127q.571,0,.667.127.127.1.127.54v4.221q0,.508-.159.6a1.28,1.28,0,0,1-.635.1l-5.459-.127h-5.142l-5.522.127a1,1,0,0,1-.635-.127,1.093,1.093,0,0,1-.1-.571v-4.221q0-.667.73-.667Zm0,8.728h5.142l5.459-.159q.571,0,.667.127a.932.932,0,0,1,.127.6v4.158q0,.54-.159.635a1.28,1.28,0,0,1-.635.1l-5.459-.127h-5.142l-5.522.127a1,1,0,0,1-.635-.127,1.185,1.185,0,0,1-.1-.6v-4.158q0-.508.159-.635a.992.992,0,0,1,.571-.1ZM258.5-54.463q4.348.1,7.141.444,1.047.1,1.047.73a2.393,2.393,0,0,1-.127.667q-.159.476-.19.635-.476,1.079-.476,7.2v11.648h4.158l8.252-.159q.571,0,.7.159a1.28,1.28,0,0,1,.1.635v5.269q0,.508-.159.6a1.28,1.28,0,0,1-.635.1l-8.252-.127H265.9V-7.014l.127,11.362a1.157,1.157,0,0,1-.127.7.829.829,0,0,1-.508.1h-5.872q-.444,0-.54-.159a1.28,1.28,0,0,1-.1-.635l.127-11.3V-26.66h-3.65l-8.315.127q-.571,0-.667-.127a1.093,1.093,0,0,1-.1-.571V-32.5a1.157,1.157,0,0,1,.127-.7,1.28,1.28,0,0,1,.635-.1l8.315.159h3.65V-44.656A75.5,75.5,0,0,0,258.5-54.463Zm-14.25,57.8q0,.508-.127.6a1.185,1.185,0,0,1-.6.1h-5.142q-.508,0-.6-.127a1.093,1.093,0,0,1-.1-.571V1.238h-8.252V4.475q0,.54-.127.635a1.185,1.185,0,0,1-.6.1h-5.046a1.157,1.157,0,0,1-.7-.127,1.185,1.185,0,0,1-.1-.6l.127-9.744V-9.553l-.127-6.094q0-.54.159-.635a1.28,1.28,0,0,1,.635-.1l5.9.127h8l5.967-.127q.54,0,.635.127a1.185,1.185,0,0,1,.1.6l-.127,4.983V-6.03Zm-6.57-14.06h-8.252v6.443h8.252ZM227.241-43.1h11.934l6.982-.127q.635,0,.635.7V-37.9a1.079,1.079,0,0,1-.127.667.829.829,0,0,1-.508.1l-6.982-.127H227.241l-6.887.127q-.54,0-.635-.127a1.4,1.4,0,0,1-.1-.635v-4.634q0-.508.127-.6a1.185,1.185,0,0,1,.6-.1Zm2.507-8.76h8.125l5.872-.127q.571,0,.667.127a1.093,1.093,0,0,1,.1.571v4.316q0,.508-.127.6a1.28,1.28,0,0,1-.635.1l-5.872-.127h-8.125l-5.9.127q-.508,0-.6-.127a1.093,1.093,0,0,1-.1-.571v-4.316q0-.508.127-.6a1.093,1.093,0,0,1,.571-.1Zm.222,18h7.2l5.459-.127q.571,0,.667.127a.864.864,0,0,1,.127.571v4.253q0,.508-.159.6a1.28,1.28,0,0,1-.635.1l-5.459-.127h-7.2l-5.522.127q-.54,0-.635-.127a1.093,1.093,0,0,1-.1-.571v-4.253q0-.508.127-.6a1.185,1.185,0,0,1,.6-.1Zm0,8.76h7.2l5.459-.127q.571,0,.667.127a.864.864,0,0,1,.127.571v4.189q0,.508-.159.6a1.28,1.28,0,0,1-.635.1l-5.459-.127h-7.2l-5.522.127q-.54,0-.635-.127a1.093,1.093,0,0,1-.1-.571v-4.189q0-.508.127-.6a1.185,1.185,0,0,1,.6-.1Zm101.191-9.331q.1,10.791.6,20.281a41.561,41.561,0,0,1,11.489,8.506L338.778-.127a28.616,28.616,0,0,0-7.078-7.2v.317A8.123,8.123,0,0,1,328.209.032,14.148,14.148,0,0,1,319.8,2.285q-12.029,0-12.029-9.426A8.021,8.021,0,0,1,311.293-14a13.131,13.131,0,0,1,7.9-2.253,33.507,33.507,0,0,1,5.935.508q-.444-9.3-.54-18.44-5.554.19-10.854.19-.381,0-6.348-.127v-5.713q4.57.19,8,.19,4.475,0,9.141-.19V-51.162h6.7q-.063,3.9-.063,10.918,4.7-.254,10.283-.889v6.03Q337.953-34.817,331.161-34.436Zm-5.84,24.629a15.226,15.226,0,0,0-6.316-1.111,7.014,7.014,0,0,0-4.158,1.111,3.236,3.236,0,0,0-1.428,2.729q0,3.9,6.252,3.9,5.649,0,5.649-5.459ZM305.04-50.559q-4.285,18.979-4.285,32.214A131.663,131.663,0,0,0,302.565,2l-6.7.6a152.732,152.732,0,0,1-1.555-21.074q0-13.171,3.967-32.627ZM361.512-13.2A61.622,61.622,0,0,1,375.032,1.3l-6.348,4.6A54.645,54.645,0,0,0,355.8-8.7ZM420.078,4.7h-5.649a.954.954,0,0,1-.587-.111,1.032,1.032,0,0,1-.111-.619l.127-21.2v-12l-.127-16.155q0-.508.127-.6a1.185,1.185,0,0,1,.6-.1l9.014.127h4.221a49.21,49.21,0,0,0,2.412-6.094,17.461,17.461,0,0,0,.7-3.079q2.666.254,6.951.984.92.19.92.857a1.393,1.393,0,0,1-.508.889,5.315,5.315,0,0,0-.984,1.555q-1.174,2.825-2.253,4.888h12.664l9.045-.127q.508,0,.6.127a1.093,1.093,0,0,1,.1.571l-.127,14.377V-17.3l.127,21.138a1,1,0,0,1-.127.635,1.093,1.093,0,0,1-.571.1h-5.776q-.54,0-.635-.159a.992.992,0,0,1-.1-.571V.92H420.808V3.967a1,1,0,0,1-.127.635A1.185,1.185,0,0,1,420.078,4.7Zm.73-10.029h29.326V-13.14H420.808Zm0-13.933h29.326V-26.5H420.808Zm0-20.439v7.078h29.326V-39.7ZM488.483,4.761h-5.618q-.7,0-.7-.667l.127-18.948V-26.184l-.127-14.6q0-.508.127-.6a1.185,1.185,0,0,1,.6-.1l8.823.127h12.092v-3.428a69.848,69.848,0,0,0-.508-9.363q4.285.1,7.268.444.984,0,.984.793a8.761,8.761,0,0,1-.413,1.555,38.957,38.957,0,0,0-.317,6.475v3.523h12.949l8.855-.127q.508,0,.6.127a1.094,1.094,0,0,1,.1.571L533.2-27.676v12.7l.127,18.821q0,.635-.7.635h-5.681q-.7,0-.7-.635V1.111h-37.07V4.094Q489.181,4.761,488.483,4.761Zm22.344-9.966h15.425V-17.393H510.826Zm-21.646,0h14.631V-17.393H489.181Zm37.07-29.834H510.826v11.458h15.425Zm-37.07,0v11.458h14.631V-35.039Zm93.827,2.031,4.348-1.238a62.38,62.38,0,0,1,4.729,10.791l-4.475,1.492A54.611,54.611,0,0,0,583.008-33.008Zm7.839-2.031,4.316-1.3a63.283,63.283,0,0,1,4.6,10.347l-4.412,1.555A59.974,59.974,0,0,0,590.847-35.039ZM593.64-48.02l.222,6.348q-6.792.127-10.981,2.412Q569.8-32.214,569.8-18.979q0,13.044,19.551,14.885l-1.682,6.887Q563.3.571,563.3-18.662a24,24,0,0,1,3.936-13.457,28.077,28.077,0,0,1,9.458-8.7l3.11-1.238-.127-.444-3.555.952q-8.188.984-24.534,2.729l-.571-6.475Q569.3-46.624,593.64-48.02Zm49.584,9.268q-.063,4.919-.063,7.808,0,3.237.063,5.713a20.256,20.256,0,0,1,1.492,8.125q0,9.363-6.506,14.346-5.332,4.094-16.218,6.221l-3.777-6.189q11.331-1.143,16.44-5.427a9.821,9.821,0,0,0,3.713-6.411,9.613,9.613,0,0,1-7.617,3.142q-5.364,0-8.315-3.047a10.328,10.328,0,0,1-2.666-7.49,10.138,10.138,0,0,1,3.745-8.411,12.3,12.3,0,0,1,7.839-2.444,12.718,12.718,0,0,1,5.522,1.3l-.127-7.173q-12.092.286-25.1,1.174l-.063-5.84q12.41-.571,25.01-.793l-.063-8.188h6.919q0,2.349-.159,8.062,5.205-.063,15.3-.063v5.872Q653.444-38.752,643.225-38.752ZM631.069-27.9a4.987,4.987,0,0,0-3.9,1.587,5.836,5.836,0,0,0-1.428,4.158A5.268,5.268,0,0,0,627.419-18a5.391,5.391,0,0,0,3.777,1.3,5.506,5.506,0,0,0,4.348-1.682,5.569,5.569,0,0,0,1.27-3.84Q636.813-27.9,631.069-27.9Zm61.169-12.156q4.031-.127,5.205-.127,4.634,0,6.824,2.825,2.317,3.015,2.317,9.617,0,16.377-1.873,22.788A9.536,9.536,0,0,1,701.283.476a10.191,10.191,0,0,1-6.062,1.619,43.038,43.038,0,0,1-6.887-.54l-1.3-6.443a36.9,36.9,0,0,0,5.9.857,7.735,7.735,0,0,0,3.682-.635,3.931,3.931,0,0,0,1.523-2.222q1.9-5.554,1.9-20.027,0-4.761-1.047-6.411a2.77,2.77,0,0,0-2.539-1.27q-2.412,0-5.522.222A199.378,199.378,0,0,1,678.463,2.095L672.147-.317a182.929,182.929,0,0,0,12.029-33.611q-5.4.508-11.458,1.174l-.254-6.062q8.982-.508,13.076-.762Q687.1-46.5,688.016-52.59l6.7.857Q693.221-44.18,692.237-40.054Zm13.521-3.809,5.9-2.349a93.163,93.163,0,0,1,10.283,24.185l-6.633,2.666A74.379,74.379,0,0,0,705.758-43.862ZM745.852-38.4q.984-7.014,6-10.664A18.279,18.279,0,0,1,762.959-52.3q8.125,0,12.7,4.221a12.314,12.314,0,0,1,4,9.49,12.878,12.878,0,0,1-1.936,6.887,28.5,28.5,0,0,1-5.808,6.316q-4.158,3.459-5.269,6.094a17.634,17.634,0,0,0-.952,6.506h-6.7v-1.555a19.267,19.267,0,0,1,1.428-8.093,23.273,23.273,0,0,1,4.539-5.872,26.868,26.868,0,0,0,4.888-5.967,9.042,9.042,0,0,0,1.047-4.316,6.692,6.692,0,0,0-2.412-5.491,8.345,8.345,0,0,0-5.459-1.714,8.005,8.005,0,0,0-6.475,2.793,11.175,11.175,0,0,0-2.317,6.538ZM757.691-6.475h9.236v8.76h-9.236Z" transform="translate(-10.728 55.129)" fill="#fff"/>
</svg>
