<svg id="グループ_6688" data-name="グループ 6688" xmlns="http://www.w3.org/2000/svg" xmlns:xlink="http://www.w3.org/1999/xlink" width="647.226" height="52.814" viewBox="0 0 647.226 52.814">
  <defs>
    <clipPath id="clip-path">
      <rect id="長方形_8755" data-name="長方形 8755" width="647.226" height="52.814" transform="translate(0 0)" fill="none"/>
    </clipPath>
  </defs>
  <g id="グループ_6688-2" data-name="グループ 6688" clip-path="url(#clip-path)">
    <path id="パス_71852" data-name="パス 71852" d="M15.468.732A15.883,15.883,0,0,0,7.735,2.7c-.18.1-.351.209-.525.315l.471.755-2.112.61L5.558,4.2A13.836,13.836,0,0,0,2.065,8.582c-.153.289-.294.584-.429.88.068-.019.135-.042.206-.055.223-.035.38.174.5.369.031.05.062.1.09.138l.237.312-.371.13c-.079.027-.158.058-.237.088a3.345,3.345,0,0,1-.723.215l-.054,0a.327.327,0,0,1-.141-.031A17.967,17.967,0,0,0,0,17.088a22.988,22.988,0,0,0,.733,5.748,12.052,12.052,0,0,0,1.754,3.838,14.516,14.516,0,0,0,3.414,3.3,22.728,22.728,0,0,0,4.513,1.967,9.761,9.761,0,0,0,2.277.154,15.171,15.171,0,0,0,5.361-.926,1.793,1.793,0,0,0,1.158-1.89,1.916,1.916,0,0,0-.386-1.292,1.12,1.12,0,0,0-.85-.444l-.578.116a7.078,7.078,0,0,1-2.006.309,6.832,6.832,0,0,1-3.01-.733,4.167,4.167,0,0,1-1.312-1.5,10.347,10.347,0,0,1-.661-1.319.636.636,0,0,1-.406.2A.4.4,0,0,1,9.9,24.6a2.93,2.93,0,0,1-.878-.484c-.1-.069-.2-.138-.294-.2l-.455-.289.494-.214c.085-.037.17-.084.255-.131a1.528,1.528,0,0,1,.781-.252.824.824,0,0,1,.14.027,10,10,0,0,1-.257-1.226c-.127-.907-.221-1.818-.3-2.73a3.134,3.134,0,0,1-.881.182,1.166,1.166,0,0,1-.248-.025,1.521,1.521,0,0,1-.8-.694,3.834,3.834,0,0,0-.243-.312l-.289-.317.4-.144c.128-.045.259-.107.39-.167a1.943,1.943,0,0,1,1.09-.278,1.072,1.072,0,0,1,.475.208c-.043-.863-.07-1.726-.067-2.589,0-.085.006-.163.007-.247-.153-.075-.3-.159-.441-.245-.084-.051-.169-.1-.254-.151l-.347-.194.294-.266a2.365,2.365,0,0,0,.188-.2,1.241,1.241,0,0,1,.615-.445,13.834,13.834,0,0,1,2.291-7.4,5.1,5.1,0,0,1,4.2-2.353,5.277,5.277,0,0,1,4.475,2.739q2.392,3.663,2.392,13.5a41.329,41.329,0,0,1-.231,4.745q-.307,2.661-.347,3.356a32.315,32.315,0,0,1-.906,5.69,21.31,21.31,0,0,1-1.282,3.836,2.247,2.247,0,0,1,.532-.228.643.643,0,0,1,.5.168.783.783,0,0,0,.1.068l.462.267-1.291.641-.573-.328a21.335,21.335,0,0,1-1.242,2.288,19.888,19.888,0,0,1-4.86,5.285,28.486,28.486,0,0,1-3.478,2.179,2.36,2.36,0,0,1-.275.3c-.061.06-.124.118-.176.179l-.3.349-.16-.375c-.821.4-1.655.774-2.513,1.093a7.975,7.975,0,0,0-2.236,1.042,1.4,1.4,0,0,0-.386,1.042,2.245,2.245,0,0,0,.617,1.427q.963.076,1.47.076a22.494,22.494,0,0,0,7.135-1.543,26.869,26.869,0,0,0,8.293-4.841,27.345,27.345,0,0,0,5.726-6.518c-.023-.047-.046-.1-.071-.135l-.212-.339.388-.091c.084-.02.171-.05.258-.079l.067-.023c.029-.049.064-.1.093-.144a40.2,40.2,0,0,0,2.816-5.5,34.59,34.59,0,0,0,2.007-11.109q0-10.571-4.881-16.163A15.526,15.526,0,0,0,15.468.732M2.41,13.05l-.079,1.059-.261,0,0-.285-.058.288H1.935c-.135,0-.3-.026-.349-.227a4.234,4.234,0,0,1-.041-.452l-.024-.378Zm-.034,10.3c-.036-.007-.074-.01-.112-.015a.824.824,0,0,1-.429-.133.538.538,0,0,1-.177-.443c0-.032,0-.066-.007-.094l-.044-.253.952-.276.221,1.292Zm-.093-3.073c-.113.088-.228.176-.32.264l-.207.2-.2-.207c-.092-.1-.193-.188-.3-.279a2.271,2.271,0,0,1-.694-.87c-.1-.287.1-.541.427-.964.149-.189.326-.416.513-.691l.243-.359.234.365c.15.233.3.433.431.609a1.923,1.923,0,0,1,.529,1.068c0,.353-.336.613-.663.865m8.346-15.2-.274-.242c-.035-.031-.079-.065-.125-.1-.183-.136-.39-.29-.315-.53a3.469,3.469,0,0,1,.3-.658l.267-.519.861.666Zm4.643,40.9.767-1.424.438,1.54ZM29.443,23.321l.464.884a.821.821,0,0,0,.048.078.682.682,0,0,1,.144.41.624.624,0,0,1-.205.38c-.02.021-.041.044-.058.066l-.585.77Z" fill="#070203"/>
    <path id="パス_71853" data-name="パス 71853" d="M538.609,1.388c-1.184.073-2.248.132-3.2.179l.511.675-.8.486-.956-.443.861-.7c-1.559.074-2.8.112-3.707.112q-.5,0-2.546-.077L517.74,1.157l.116,3.4q.672.091,1.35.116a15.049,15.049,0,0,1,5.13.926,8.646,8.646,0,0,1,.27,1.234l.039,1.659.133,3.039.019-.005.639-1.672-.092-.111.183-.128.145-.377.074.09,1.216-3.751,2.544,1.268.005,0,.3.154.354.182-2.261,2.2.7-1.209-2.428,1.69,0,.005.014.02-.069.15-.146.452-.041-.048-.434.941,1.039-.2-.714,2.036L524.8,11.951l.041.936-.116,2.083.077,5.13q0,.231-.27,7.869l.039,2.083-.077,8.8.039,4.552a6.649,6.649,0,0,1-.694,3.317,17.175,17.175,0,0,1-3.742,1.273q-1.776.425-2.546.656v2.778q.771-.039,3.317-.27,3.9-.387,5.94-.386l6.831.078q4.59.462,5.13.54a7.973,7.973,0,0,0,1,.116q.192,0,1.427-.077a5.674,5.674,0,0,1,.771-.039Q542,50.5,542,50.073a15.189,15.189,0,0,0-.154-1.929q-2.007-.27-2.353-.309a39.692,39.692,0,0,1-4.282-.694,3.726,3.726,0,0,1-.154-.887l.039-1.467-.077-7.715.116-5.169L535.1,21.719q0-3.51.116-10.029a25.094,25.094,0,0,1-.116-2.7A13.622,13.622,0,0,1,535.33,6.1a25.534,25.534,0,0,1,3.26-.984q1.986-.483,3.53-1.022.077-1.044.077-1.7,0-.5-.039-1.234-.734.038-3.549.231m-9.288,20.357c-.086.071-.178.125-.268.186l.114.8-.522-.5-.042-.006-.311.2-.071-.67,0-.019-.082-.772.34.323.2-.242.2-.374.016.113.083-.1.282.474c.135.212.262.413.065.584m1.317,9.613-1.052-.867,1.459-.231Zm2.48,1.7.352-.961.21.01.088,0a.543.543,0,0,1,.454.125.864.864,0,0,1,.179.4c.009.036.018.072.029.106l.132.395Z" fill="#070203"/>
    <path id="パス_71854" data-name="パス 71854" d="M343.964,1.547a68.775,68.775,0,0,1-7.059.346l-7.368-.31h-3.046l-.077,2.933.5.115,3.626-.077a3.907,3.907,0,0,1,2.777,1.2,4.946,4.946,0,0,1,.852,3.044l.154,2.044q.879,10.283.985,18.743l.25.215c.023.02.053.041.084.064.137.1.324.235.255.459-.111.349-.239.688-.367,1.026l0,.01,0,.042.117.21-.148.1-.048.491-.119-.121a31.044,31.044,0,0,1-.734,7.688,15.058,15.058,0,0,1-1.06,2.511c.07.044.132.085.207.13.539.325.811.488.71.777-.518,1.49-1.1,2.981-1.667,4.423l-.5,1.278-1.424-1.143,1.279-3.357a9.283,9.283,0,0,1-1.807,1.572c-.084.062-.174.114-.259.173a1.2,1.2,0,0,1,.089.184c.089.259-.164.573-.193.608a.382.382,0,0,1-.291.161.252.252,0,0,1-.048,0,3.246,3.246,0,0,1-.644-.189l-.107-.038a11.284,11.284,0,0,1-2.12.861,23.994,23.994,0,0,1-2.967.657l.528,1-1.693.992-.141-.257c-.044-.079-.1-.173-.165-.268-.238-.369-.4-.614-.2-.826a3.755,3.755,0,0,1,.566-.49,23.79,23.79,0,0,1-2.825.16,14.155,14.155,0,0,1-6.365-1.622,8.534,8.534,0,0,1-3.472-3.2,14.778,14.778,0,0,1-1.852-6.982l-.5-9.682.154-6.673-.231-3.086.077-3.626-.039-1.389q-.039-.771-.039-2.006,0-4.05.463-4.59.695-.849,2.854-.849a31.578,31.578,0,0,0,4.473-.307v-.31L315.3,2.086l.039-.463q-.805.039-3.105.077t-5.246.174q-2.952.135-6.037.135-.888,0-5.979-.27-2.121-.116-4.05-.116-.734,0-1.427.039l.116,3.047h0a9.437,9.437,0,0,0,1.619.12q4.436.15,5.285,1.35.617.849.617,7.368l-.039,18.4c-.024,1.055,0,2.109.053,3.162l.014-.024.371,1.591-.287-.055c.1,1.173.235,2.342.428,3.5a14.718,14.718,0,0,0,2.99,6.77,15.1,15.1,0,0,0,6.461,4.2,29.319,29.319,0,0,0,8.745,1.593l.1-.307.682.316c.246,0,.49.005.736,0a33.206,33.206,0,0,0,5.53-.393l-.362-.242,1.24-.489-.063.6c.952-.169,1.9-.365,2.836-.617a20.432,20.432,0,0,0,6.559-3.088,15.552,15.552,0,0,0,4.05-4.262,13.479,13.479,0,0,0,1.466-4.2,65.04,65.04,0,0,0,.54-10.531l-.164-3.322-.124-.05,0,.474-.571.015-.034-.625-1.519,0,1.846-.6h0l.271-.089V25.4h.09l-.185-3.753q-.078-2.854-.193-5.632-.039-.81-.058-1.582t-.019-2.122a32.69,32.69,0,0,0-.116-3.356q-.117-1.311-.116-2.006a1.776,1.776,0,0,1,.54-1.427,10.458,10.458,0,0,1,2.854-.579,12.69,12.69,0,0,0,3.009-.5,4.47,4.47,0,0,0,.154-1.042,11.784,11.784,0,0,0-.231-1.774ZM300.475,29l-.313-1.2,1.45.185Zm4.523-.6-.3,0h-.008l-.472,0h-.09l-.341,0,.7-.507.052-.072a5.768,5.768,0,0,1,.4-.53c.125-.145.266-.111.414-.026l.057-.041-.015.064c.045.029.09.059.136.092l.477.319Zm13.63,22.578.077-.45c.007-.04.01-.081.015-.124a1,1,0,0,1,.116-.443.584.584,0,0,1,.407-.231c.032-.008.065-.014.093-.023l.242-.086.454.951Zm18.24-17.2a3.309,3.309,0,0,1,.3-.614l.26-.463.892.6-.745,1.319-.264-.222c-.034-.03-.08-.062-.126-.095-.195-.141-.4-.287-.32-.525" fill="#070203"/>
    <path id="パス_71855" data-name="パス 71855" d="M270.712,3.474A30.291,30.291,0,0,0,256.787.465a34.2,34.2,0,0,0-8.525.984,27.1,27.1,0,0,0-2.894.961c-.2.231-.357.363-.514.363a.342.342,0,0,1-.139-.032c-.03-.012-.055-.031-.084-.044a27.158,27.158,0,0,0-3.852,1.992,24.938,24.938,0,0,0-6.1,5.15A22.548,22.548,0,0,0,230.9,16.2a26.655,26.655,0,0,0-1.854,9.6,26.569,26.569,0,0,0,.8,6.946c.135.583.289,1.16.455,1.734l.08-.174,0-.16-.026-.062.028-.071,0-.108.353-.205.506-.294.236-.137-.361.79-.184.964-.026,1.332c.337.946.711,1.879,1.134,2.791a25.277,25.277,0,0,0,4.32,5.67c.548.517,1.116,1.01,1.7,1.487l.406-.476,1.158,1.238-.214.195c-.018.016-.035.034-.052.05.031.023.061.049.092.072.13-.136.26-.272.359-.4l.207-.268,2.005,2.19-.124.1c.355.213.709.429,1.072.63l.1-.305.315.2c.071.046.154.087.235.129a1.326,1.326,0,0,1,.568.441c.54.184,1.273.428,2.209.736a21.8,21.8,0,0,0,3.785.849,41.809,41.809,0,0,0,6.133.424q13.232,0,20.656-7.792a26.147,26.147,0,0,0,5.911-9.483c-.036-.076-.072-.152-.113-.221l-.2-.324.366-.1c.059-.016.122-.042.185-.066a26.124,26.124,0,0,0,1.281-8.519,25.053,25.053,0,0,0-4.4-14,23.892,23.892,0,0,0-9.3-8.139m7.3,18.231a2.8,2.8,0,0,1,.273-.518l.424-.713.366,1.18-.4.9-.293-.262c-.029-.026-.066-.054-.1-.082-.158-.121-.355-.271-.269-.5M243.532,6.476l.458.389.76-1.266-.255,1.731.059.062-.09.151-.023.154-.41.055-.038.006-.283.038h0l-.3.041.253-.42Zm-9.016,10.841a2.962,2.962,0,0,1,.117-.608.744.744,0,0,1,.315-.356c.032-.023.065-.046.092-.07l.318-.28.466,1.338-1.424.753ZM232.74,31.938a2.1,2.1,0,0,0-.156.146,1.012,1.012,0,0,1-.6.361h-.033c-.267,0-.455-.261-.623-.493l-.2-.266.124-.2c.087-.131.308-.439.577-.367a3.6,3.6,0,0,1,.644.246l.635.275Zm-1.7-12.5.359-1.014h.2a1.067,1.067,0,0,0,.109-.009.6.6,0,0,1,.491.1.827.827,0,0,1,.214.434,1,1,0,0,0,.034.117l.133.383Zm2.28-2.362-.889-.047-.194.3-.146-.154-.576.857-.773-1.379.46-.025.349-.017-.2-.211.555.028.109-.163.138.146.648-1,.812,1.1.037.012.191.009.183,1.062.1.567-.322-.438Zm1.049,7.651-.132-1.041-.239-.3.208-.048v-.009l.094-.018.867-2.271.312.368c.124.145.131.153.15.209l.034.106-.655,1.451,1.024-.2-.715,2.036-.718-.886Zm.639,7.386-.191-.845-.113-.018.5-2.155.691.451Zm1.272-.027.472-.676c.069-.1.127-.181.194-.264l.086-.1h.135c.136,0,.2.066.354.243l.3.335Zm2.53,1.47a3.134,3.134,0,0,1-.266.184l.111.78-.51-.477-.044-.007-.31.2-.071-.663,0-.028-.081-.771.34.323.206-.25.187-.349.015.1.089-.108.283.473c.131.207.266.42.055.589m.33-5.423-.2.015-2.788.038-.273-.622.431,0c.776,0,1.559,0,2.339,0l.7,0Zm-1.778-6.906,1.07-1.834c.112-.19.224-.381.347-.572l.083-.132h.156c.074,0,.118.019.289.106l.355.18Zm-.629-4.785,1.441-.638.045,1.162ZM240.36,6.172l-.007.015-.008,0-.116.148-.1-.057-.267.113c-.111.1-.225.2-.344.287a.366.366,0,0,1-.227.072.8.8,0,0,1-.186-.027l-1.05-.113.9-.445c.2-.087.392-.175.591-.262l.089-.08.163-.146.964-.938.424.382Zm1.713,38.456-.2-.415c-.035-.072-.079-.143-.123-.216a1.28,1.28,0,0,1-.254-.7,1.606,1.606,0,0,1,.278-.722c.047-.078.092-.156.131-.235l.137-.285,1.364.843ZM271.6,40.959l.142-.34-1.948-.649c-.016.037-.031.078-.048.115a13.766,13.766,0,0,1-5.728,6.615,15.888,15.888,0,0,1-7.734,1.948,12.406,12.406,0,0,1-4.4-.829,11.172,11.172,0,0,1-3.356-1.832,15.586,15.586,0,0,1-1.661-1.578l-.159.378-1.083-.948.266-.214a.852.852,0,0,0,.089-.083c.026-.026.055-.054.086-.082a15.518,15.518,0,0,1-.971-1.373,42.347,42.347,0,0,1-2.353-6.056,21.491,21.491,0,0,1-.81-4.166q-.153-1.119-.231-1.582a28.967,28.967,0,0,1-.27-4.745,39.69,39.69,0,0,1,.926-9.239,21.093,21.093,0,0,1,3.125-7,12.515,12.515,0,0,1,3.9-3.452,11.26,11.26,0,0,1,5.94-1.562A15.406,15.406,0,0,1,265.446,7.6a16.79,16.79,0,0,1,3.743,4.74l.341.1-.179.219a16.742,16.742,0,0,1,1.553,4.587,15.621,15.621,0,0,0,.383,1.581l.124.47c.059-.017.121-.033.17-.052l.284-.11.461,1.5-.74.292q.318,4.323.318,7a30.958,30.958,0,0,1-1.722,11.1.261.261,0,0,1,.1.019c.6.3,1.187.621,1.773.939l.085.046.623-.39-.249.592.2.11-.147.092.686.485Zm3.416-10.791a4.122,4.122,0,0,1-1.11,1.275c-.165.147-.331.292-.483.444l-.223.223-.2-.245c-.114-.138-.262-.285-.412-.434-.416-.414-.81-.806-.706-1.2a4.055,4.055,0,0,1,.985-1.5c.227-.263.485-.563.765-.924l.287-.372.2.428c.173.374.355.7.509.974.333.594.552.987.391,1.333m1.806-22.25.061.436a.751.751,0,0,0,.019.1.758.758,0,0,1,.007.422.6.6,0,0,1-.3.313c-.025.016-.05.031-.072.047l-.228.172-.6-.792ZM276.364,26.5c.109-.11.217-.225.325-.34a7.5,7.5,0,0,1,1.012-.951c.075-.051.271-.2.916.246.133.092.356.245.293.478a11.472,11.472,0,0,1-.53,1.429l-.387.936-1.844-1.579Zm1.312,8.453-.191-.267c-.055-.076-.128-.17-.2-.263-.332-.425-.483-.619-.289-.829.447-.478.936-.924,1.409-1.353l.762-.7.169,1.838Zm6.1-4.443a4.178,4.178,0,0,1-.336.688l-.318.579-.27-.318c-.03-.034-.069-.072-.108-.109-.153-.149-.329-.317-.262-.546a3.215,3.215,0,0,1,.309-.665c.038-.063.073-.126.1-.188l.17-.323.273.243c.033.029.078.063.123.1.2.149.4.3.315.543m-3.267-7.549c.408-.682.882-1.331,1.339-1.959l.694-.963.947,1.894-2.115,2.46-.214-.276c-.067-.086-.16-.187-.251-.288-.333-.367-.554-.609-.4-.868" fill="#070203"/>
    <path id="パス_71856" data-name="パス 71856" d="M87.935,25.7l1.033.494a8.865,8.865,0,0,0,2.026-1.815A12.832,12.832,0,0,0,93.386,19.9a20.211,20.211,0,0,0,.849-6.133q0-6.173-2.951-9.682a8.926,8.926,0,0,0-7.04-3.51,8.152,8.152,0,0,0-3.26.656,10.821,10.821,0,0,0-3.028,2.044A11.115,11.115,0,0,0,75.912,6.21a26.575,26.575,0,0,0-1.35,4.166,14.719,14.719,0,0,0-.386,3.742v0c-.018.479-.008.957.015,1.434.184.012.375.021.572.021h.748l-.558.5c-.236.211-.448.4-.671.6a17,17,0,0,0,1.61,5.542A10.674,10.674,0,0,0,80,26.733a11.144,11.144,0,0,0,5.015.887,7.282,7.282,0,0,0,2.529-.628Zm5.341-15.64.386,1.342-1.193-.207ZM78.941,8.692c.091-.038.183-.075.259-.115l.212-.113.877,1.129-1.452.884-.136-.288c-.035-.074-.079-.15-.123-.225a1.3,1.3,0,0,1-.251-.755c.028-.277.313-.394.614-.517M76.835,23.128l.776-1.179.469,1.334Zm2.459-10.32.031-.164-1.12.44,1.131-1.037s.038-.035.078-.073l-.019-.069.079-.04.08-.421.6.625.173.182-.273.107-.207.6Zm1.668,12.4a1.036,1.036,0,0,0-.1.042.845.845,0,0,1-.325.092.343.343,0,0,1-.2-.064.689.689,0,0,1-.237-.416c-.01-.036-.019-.072-.031-.1l-.106-.278.281-.095c.031-.01.067-.027.1-.042a.487.487,0,0,1,.533-.021.756.756,0,0,1,.229.407c.011.036.021.07.034.1l.111.282Zm6.491-6.893c-.064.9-.155,1.8-.279,2.7q-.387,2.739-1.254,3.568a2.716,2.716,0,0,1-1.909.829,2.134,2.134,0,0,1-1.273-.386L81.5,23.45q-.462-.849-.5-6.712c0-.209,0-.492-.013-.812l-.175.113-.108-.814c-.094-.646-.116-.8.157-.862l.076-.013c-.015-.4-.033-.833-.053-1.312v0q.078-5.088.231-6.056a6.282,6.282,0,0,1,1.254-3.317,2.653,2.653,0,0,1,1.909-.81,2.385,2.385,0,0,1,2.083,1.157q1.119,1.7,1.119,5.979v2.773l.042,1.4a1.28,1.28,0,0,1,.235-.187c.044-.03.089-.059.122-.086l.286-.225.577,1.264-.774.729-.265-.555c-.057-.113-.113-.23-.164-.35l.018.59c0,.544-.033,1.088-.054,1.632l.342.211.007,0,.4.25L88,17.6v.039c.29.585.586,1.186.845,1.8.106.265-.043.342-.6.63-.109.056-.218.113-.3.159l-.4.22Z" fill="#070203"/>
    <path id="パス_71857" data-name="パス 71857" d="M42.934,29.975a22.7,22.7,0,0,0,4.513,1.967,9.757,9.757,0,0,0,2.276.154,15.158,15.158,0,0,0,5.362-.926,1.791,1.791,0,0,0,1.157-1.89,1.917,1.917,0,0,0-.386-1.292,1.118,1.118,0,0,0-.849-.444l-.579.116a7.051,7.051,0,0,1-1.4.26,4.315,4.315,0,0,1-2.356,1.3,1.382,1.382,0,0,1-.158-.009c-1.154-.136-2.129-1.459-2.99-2.626l-.237-.321c-.18-.24-.025-.522.484-1.133a10.248,10.248,0,0,1-1.062-3.294,47.935,47.935,0,0,1-.463-6.866q0-5.942,2.353-9.142a5.045,5.045,0,0,1,.755-.918l-.581-.358.762.2A5.1,5.1,0,0,1,52.22,3.522c-.246-.584-.492-1.182-.685-1.8-.09-.283.109-.556.3-.819.04-.055.074-.107.11-.16a15.8,15.8,0,0,0-1.97.183c-.006.031-.014.062-.019.093l-.1.528-.385-.375c-.047-.046-.1-.09-.15-.135A15.913,15.913,0,0,0,44.766,2.7,13.853,13.853,0,0,0,39.1,8.583a17.952,17.952,0,0,0-2.043,7.586l.637.387-.65.181c0,.118-.009.234-.008.352a22.988,22.988,0,0,0,.733,5.748,12,12,0,0,0,.425,1.3,1.559,1.559,0,0,1,.6.329c.072.056.144.113.216.159l.317.2-.278.252a2.506,2.506,0,0,0-.186.194c-.036.04-.071.077-.107.115a11.987,11.987,0,0,0,.765,1.29,14.478,14.478,0,0,0,3.414,3.3M41.171,6.751l.307.28a.257.257,0,0,1,.3.072,5.624,5.624,0,0,1,.418.548l.068.1.086.078-.007.034.22.311-.828.083h0l-.129.013-.038-.135-.852-.619.468-.312c.034-.024.065-.044.1-.065Z" fill="#070203"/>
    <path id="パス_71858" data-name="パス 71858" d="M381.773,25.7a16.664,16.664,0,0,0-5.073-3.356,43.025,43.025,0,0,0-5.691-2.237q-7.02-2.084-9.181-4.359a6.809,6.809,0,0,1-1.63-2.3l-.616.178-.2-3.247L359.2,10.1l.585-.6a6.339,6.339,0,0,1,2.057-3.419A8.676,8.676,0,0,1,365.4,4.315a15.985,15.985,0,0,1-1.141-2.448l-.041-.111.054-.136a5.217,5.217,0,0,1,1.691-1.1A15.862,15.862,0,0,0,356.5,4.593a13.992,13.992,0,0,0-4.4,10.415,14.668,14.668,0,0,0,1.579,6.346A13.567,13.567,0,0,0,358,26.619q2.739,1.964,9.836,4.475t8.718,4.012a6.725,6.725,0,0,1,1.138,9.625,8.441,8.441,0,0,1-4.03,2.912,13.883,13.883,0,0,1-4.591.887,12.91,12.91,0,0,1-4.359-.714,11.1,11.1,0,0,1-3.452-1.929,12.789,12.789,0,0,1-2.642-3.182q-.54-.887-2.391-5.169l-3.254.07-.3,1.343v.13q0,1.041.077,3.549c.06,1.5.105,2.663.137,3.529l1,.35-.944,1.249c0,.068,0,.125,0,.157v.424a1.474,1.474,0,0,0,.347.733,7.672,7.672,0,0,0,2.431.964l4.464,1.3c.038-.056.076-.112.111-.17l.249-.4.241.409a2.5,2.5,0,0,0,.154.225l.085.119a32.571,32.571,0,0,0,5.766.638,26.62,26.62,0,0,0,6.692-.693,17.751,17.751,0,0,0,5.042-2.252,22.307,22.307,0,0,0,3.586-2.719,10.651,10.651,0,0,0,2.353-3.51,19.716,19.716,0,0,0,1.35-7.136,15.264,15.264,0,0,0-.868-5.535,14.385,14.385,0,0,0-3.181-4.61M356.346,23.36l-.262,0,0-.286-.059.288h-.062c-.134,0-.338-.026-.364-.257-.019-.124-.028-.26-.035-.4l-.028-.4.891-.01Zm-.032-3.754c-.078.027-.156.057-.235.087a3.31,3.31,0,0,1-.723.217l-.053,0c-.207,0-.337-.182-.453-.343a1.4,1.4,0,0,0-.094-.125l-.277-.314.639-.238a3.921,3.921,0,0,1,.74-.235c.234-.053.379.175.5.369.031.05.061.1.09.139l.233.311Zm.016-3a.876.876,0,0,0-.1-.008.782.782,0,0,1-.426-.114.51.51,0,0,1-.173-.446.652.652,0,0,0-.006-.091l-.034-.245.943-.277L356.7,16.6Zm6.161,6.5c.062-.057.123-.125.185-.194a1.15,1.15,0,0,1,.672-.463,1.118,1.118,0,0,1,.735.343c.072.059.143.118.214.165l.244.161-.165.239c-.05.072-.1.162-.157.252-.176.294-.309.517-.518.517a.331.331,0,0,1-.1-.014,3.273,3.273,0,0,1-.81-.4c-.085-.05-.168-.1-.253-.15l-.346-.194Zm1.638,5.033c-.25.059-.473.128-.674.19a3.286,3.286,0,0,1-.937.2,1.138,1.138,0,0,1-.247-.025,1.512,1.512,0,0,1-.8-.692,3.743,3.743,0,0,0-.246-.313l-.29-.318.4-.144c.129-.046.26-.107.391-.167a1.907,1.907,0,0,1,1.09-.278,1.86,1.86,0,0,1,.938.613c.142.136.3.286.483.436l.448.365Zm10.686,4.437a.513.513,0,0,1-.283.1.36.36,0,0,1-.109-.017,3.116,3.116,0,0,1-.658-.33l-.78-.446.631-.2.228-.077a3.172,3.172,0,0,1,.706-.186.458.458,0,0,1,.365.161.767.767,0,0,1,.243.522.744.744,0,0,1-.343.469m1.5,17.063-.907-.5.137-.249c.012-.023.023-.051.034-.078a.6.6,0,0,1,.268-.341.893.893,0,0,1,.419-.067.648.648,0,0,0,.108,0l.453-.029Zm7.6-15.325a.722.722,0,0,0-.058.066l-.579.762.183-2.539.467.843c.014.025.03.052.048.078a.7.7,0,0,1,.144.406.619.619,0,0,1-.205.384" fill="#070203"/>
    <path id="パス_71859" data-name="パス 71859" d="M510.83,36.948a23.354,23.354,0,0,1-1.871,4.475,11.114,11.114,0,0,1-2.141,2.507,8.359,8.359,0,0,1-3.472,2.16,26.9,26.9,0,0,1-9.759,1.427l-2.43-.077-.6.01.175.107c.21.13.419.261.628.366l.518.26L488.69,49.73l-2.242-1.495.414-.226c.207-.113.412-.252.617-.39l.286-.187-2.549-.107a2.077,2.077,0,0,1-.386-1.5l.154-18.284q0-1.544.039-2.507.117-2.584.116-4.59,0-1.737-.116-4.05-.077-1.465-.077-2.083,0-.5.039-1,.117-1.929.116-2.122l-.039-.424v-.694l.116-2.43.039-1.08a3.914,3.914,0,0,1,.231-.463q.463-.233.656-.309l4.786-1.117a3.521,3.521,0,0,0,1.7-.463,1.931,1.931,0,0,0,.424-1.35,2.77,2.77,0,0,0-.308-1.543.949.949,0,0,0-.811-.309q-.192,0-1.427.116-4.165.346-6.828.347l-4.089-.077-5.516.039q-5.785-.309-6.712-.309a1.484,1.484,0,0,0-.733.193q-.039.617-.039.926c0,.178.007.394.019.647l.33-.007a.547.547,0,0,0,.086-.009.486.486,0,0,1,.474.121.781.781,0,0,1,.1.161l.482.222-.277.289-.134.139h0a.3.3,0,0,1-.05.044l-.293.2-.132-.327c-.017-.046-.033-.093-.049-.142l-.509-.233c.009.14.019.287.031.444a4.892,4.892,0,0,0,1.891.81,10.175,10.175,0,0,1,1.169.335c.119-.162.241-.324.374-.515l.254-.365.226.383c.136.229.285.446.417.637s.217.324.294.459l.467.185a5.106,5.106,0,0,1,2.218,1.022,20.871,20.871,0,0,1,.521,4.455v.54l-.039,3.9-.154,8.6.077,4.012-.039,3.78v3.2l-.213,4.624.07.034-.064.132.3.618-.319-.155.005.333.829.022-.743.365.008.016-.087.045.061,3.918a6.557,6.557,0,0,1-.231,1.543,3.212,3.212,0,0,1-2.006.5q-.385,0-2.565.328a27.31,27.31,0,0,0-3.375.675,7.346,7.346,0,0,0-.235,1.348l.551-.085-.409,1.1-.172-.142c0,.044-.007.088-.005.133a4.2,4.2,0,0,0,.077.733q.5.039.733.039h.579q3.973-.309,8.525-.424l7.869-.231q6.318,0,12.918.231l7.367.261c.745.054,1.394.1,1.958.14l.763-1.149.392,1.23c.854.058,1.354.088,1.477.088l2.006-.039h1.427a9.35,9.35,0,0,0,1.119-.154,15.8,15.8,0,0,0,.54-3.4q.695-6.945.694-9.721V37.1a15.778,15.778,0,0,0-2.083-.154Zm-35.266.724.791-1.145.476,1.306Zm.8,8.435-.159-.322c-.056-.111-.119-.223-.183-.333a2.837,2.837,0,0,1-.4-.962c-.058-.4.588-.861.6-.865a.4.4,0,0,1,.423-.071,2.657,2.657,0,0,1,.291.2l-1.012-.959,1.4-1.59.165.451c.03.082.07.165.109.247a1.58,1.58,0,0,1,.2.742,1.913,1.913,0,0,1-.268.764c-.046.087-.09.173-.128.26l-.148.345c.074.067.147.129.226.2.1.093.2.19.319.291l.254.222Zm2.235-22.253c-.034.011-.073.03-.112.047a.878.878,0,0,1-.342.1.349.349,0,0,1-.2-.063.746.746,0,0,1-.255-.434c-.011-.039-.022-.079-.036-.115l-.115-.283.29-.095a1.1,1.1,0,0,0,.113-.047.53.53,0,0,1,.545-.034.745.745,0,0,1,.255.432.968.968,0,0,0,.037.115l.114.283Zm2.389.981.82-1.082.361,1.31Zm.4-11.562a.635.635,0,0,1-.318-.078,3.811,3.811,0,0,1-1.371-1.514c-.117-.215.05-.44.231-.651.313-.365.754-.78,1.07-.664a3.43,3.43,0,0,1,1.164.948c.255.262.573.589.995.992l.365.349-.488.133c-.3.081-.563.178-.791.261a2.8,2.8,0,0,1-.857.224m2.823,4.948c-.058.078-.116.154-.163.23l-.185.3-.257-.248c-.063-.062-.147-.129-.228-.194-.286-.234-.534-.435-.45-.706a3.267,3.267,0,0,1,.489-.881c.067-.1.136-.195.2-.294l.259-.409.232.425c.045.08.1.159.155.24a1.307,1.307,0,0,1,.317.77,1.453,1.453,0,0,1-.367.763" fill="#070203"/>
    <path id="パス_71860" data-name="パス 71860" d="M219.659,3l.211-.265.976,1.089c.121.133.237.27.358.4.367-.078.75-.159,1.169-.245q.153-1.239.193-2.739-1.581-.116-2.7-.116a13.1,13.1,0,0,0-2.854.309l-1.35.077-5.015.154q-.5.039-1.35.039a56.964,56.964,0,0,1-7.291-.463L198.264,1.2q-.194,0-1.042.039a10.891,10.891,0,0,0-.309,2.2,10.952,10.952,0,0,0,1.389.386,23.8,23.8,0,0,1,5.4,1.736,1.154,1.154,0,0,1,.54.5l.27,2.7.231,6.558-.077,1.736q-.024,3.155-.063,4.861c.2.069.4.141.6.217s.406.158.61.226l.324.109-.165.3c-.043.079-.089.18-.135.281-.159.351-.286.632-.543.632a.325.325,0,0,1-.044,0,7.053,7.053,0,0,1-.878-.155,15.306,15.306,0,0,1-2.6.245l-6.75.193-2.528-.014c.057.055.1.1.163.159l.365.35-.488.133c-.3.081-.564.177-.792.261a2.775,2.775,0,0,1-.857.224A.642.642,0,0,1,190.57,25a3.341,3.341,0,0,1-1.1-1.068l-1.4-.008H185.3l-5.709-.116a15.332,15.332,0,0,1-1.813-.231q-.117-2.16-.116-2.739,0-.657.039-1.273.077-1.041.077-1.234,0-.348-.039-1.042l.039-4.9q0-.309-.039-.733v-.313l.077-1.312.025-1.081-1.1-.139.811-1.178.3.822,0-.124-.039-.617L177.7,6.285a1.215,1.215,0,0,1,.849-1.119l3.07-.489a2.511,2.511,0,0,1,.527-1.066,3.255,3.255,0,0,1,1.821-.694l.121-.02c.239-.052.512.224.794.8a.362.362,0,0,1-.022.46l-.005.005.483-.077a9.1,9.1,0,0,0,.154-1.5q0-.346-.039-1.157a15.436,15.436,0,0,0-2.392-.154,7.667,7.667,0,0,0-1.774.193q-4.938.385-6.21.386-.813,0-1.871-.058t-2.1-.058q-2.277-.041-6.982-.54-.54.039-1.929.039a11.652,11.652,0,0,0-2.16.154,4.961,4.961,0,0,0-.231,1.273q0,.307.116,1.427a7.407,7.407,0,0,0,1.582.309l.579.154a29.41,29.41,0,0,1,3.2.386q.386.077.752.116a2.709,2.709,0,0,1,.675.154,4.643,4.643,0,0,1,.309.926,46.707,46.707,0,0,1,.347,5.246v1.659l.039,3.356-.077,3.24.077,1.119c0,1.336-.005,2.495-.012,3.515l.14.057a.985.985,0,0,0,.1.031.593.593,0,0,1,.4.262.628.628,0,0,1,0,.473.668.668,0,0,0-.024.1l-.032.187-.6.143c-.019,1.53-.049,2.6-.091,3.177l-.039.926q0,2.584.154,7.792l-.5,9.644a19.516,19.516,0,0,1-2.119.616l-4.822.849a19.171,19.171,0,0,0-.231,2.739,64.821,64.821,0,0,0,7.49-.3q.27-.039,1.89-.116l.81-.039c1.358,0,2.517.025,3.521.069a2.044,2.044,0,0,1-.554-.55c-.089-.111-.179-.224-.262-.31l-.216-.22.236-.2c.1-.083.2-.174.29-.266a2.75,2.75,0,0,1,.852-.625c.264-.1.518.023.909.209.189.09.42.2.708.314l.474.188-.407.306c-.273.2-.494.391-.682.548a2.88,2.88,0,0,1-.962.623c.548.028,1.06.062,1.493.1l5.439.231a5.135,5.135,0,0,0,.656.039l.269.01.767-1.832.9,1.858c.574,0,1.225-.014,2-.036a8.762,8.762,0,0,0,.154-1.389c-.006-.12-.026-.239-.035-.359l-.4-.053.351-.505c-.012-.094-.013-.189-.027-.283a2.55,2.55,0,0,0-.849-.347,4.015,4.015,0,0,1-.656-.193l-5.67-.887-.386-.231a18.371,18.371,0,0,1-.116-2.044V38.034l-.173.047c-.132.036-.261.083-.388.129a2.3,2.3,0,0,1-.773.189.891.891,0,0,1-.21-.024.873.873,0,0,1-.494-.388l-1.865,1.146-.135-.292c-.029-.062-.065-.131-.1-.2a3.375,3.375,0,0,1-.354-.9.422.422,0,0,1,.165-.377c.112-.1.6-.455.932-.361a2.135,2.135,0,0,1,.793.509c.085.075.168.149.255.214l.264.2c-.043-.064-.084-.13-.125-.2-.061-.1-.121-.195-.184-.277l-.259-.329.4-.121c.121-.036.241-.077.362-.117a4.461,4.461,0,0,1,1.072-.264c.277-.03.4.229.591.61.067.134.142.285.228.432V33.022c0-.2-.025-.627-.072-1.276l-.76.17.077-.424a1.082,1.082,0,0,0,.014-.116.983.983,0,0,1,.115-.417.533.533,0,0,1,.413-.211c.03,0,.058-.008.084-.015l.076-.021.13-2.433a5.984,5.984,0,0,1,1.659-.27h1.08q.7,0,1.7-.039a5.758,5.758,0,0,1,.617-.039l.27.039.347.039,9.726.1.183-.29.16.293,1.961.021c.3-.245.483-.375.679-.2a2.635,2.635,0,0,1,.21.213l4.981.054q1.659.037,3.086.154a44.066,44.066,0,0,0,.231,4.9l-.028,2.318.266-.55.5,1.425-.778-.056v.142c.005.426,0,.852,0,1.278.132.117.273.242.441.379l.467.384-.592.117c-.113.023-.216.048-.318.073q-.03,2.588-.209,5.169l.205.23.115.074a4.492,4.492,0,0,1,.493.341.282.282,0,0,1,.072.35l.084.1-.116-.013c-.024.048-.052.1-.08.144l-.271.5-.579-.71c-.053.655-.106,1.309-.172,1.963q-.738.231-1.2.347l-3.125.5-2.97.694a15.471,15.471,0,0,0-.193,2.507A4.685,4.685,0,0,0,198,51.19q5.014-.5,8.178-.5,7.02,0,10.184.347,2.391.231,4.243.231.27,0,1.813-.039l-.116-2.7a30.007,30.007,0,0,0-3.1-1.027l-.134.078c-.05.029-.1.062-.142.093a.84.84,0,0,1-.466.2h0a.684.684,0,0,1-.448-.229,1.026,1.026,0,0,0-.09-.077l-.708-.517h.084c-.159-.033-.317-.071-.476-.1q-.69-.155-1.5-.386c.034-.817.056-1.545.068-2.2l-.118.245-.55-1.317.674.039-.074-4.408V33.443Q215.16,28.2,215.2,26.5l.077-4.9-.039-3.7V13q0-.193-.039-1.929v-.964q0-.424.077-1.234l.039-.5-.039-1V6.717l.231-.771a12.765,12.765,0,0,1,2.218-.906c.289-.086.711-.2,1.254-.323-.063-.08-.136-.168-.2-.245-.2-.245,0-.468.524-1.063.129-.146.257-.293.353-.413m-56.1,46.032.752-1.166.52,1.284Zm3.154-46.042-.471-1.344,1.231.138Zm2.152,6.048L167.5,8.467l1.37-.557Zm.219,23.61a.561.561,0,0,1,.051-.476.952.952,0,0,0,.037-.09l.108-.34.309.181a.587.587,0,0,0,.091.043.5.5,0,0,1,.3.786c-.013.033-.028.065-.038.095l-.113.354-.313-.2a.937.937,0,0,0-.089-.049.674.674,0,0,1-.345-.3m1.533,13.994c-.011.024-.021.053-.032.082-.05.137-.127.344-.352.354H170.2a1,1,0,0,1-.361-.084l-.41-.133.143-.3c.012-.024.021-.051.033-.079.05-.134.126-.337.345-.351a.81.81,0,0,1,.39.08l.412.13ZM173.1,31.315c-.077.094-.152.193-.226.291a3.7,3.7,0,0,1-.729.788.308.308,0,0,1-.189.063,1.192,1.192,0,0,1-.61-.272c-.284-.2-.462-.37-.4-.589a2.949,2.949,0,0,1,.451-.872c.058-.088.118-.175.17-.262l.135-.222,1.629.8Zm2.625-19.442c.006-.037.011-.076.014-.115a.847.847,0,0,1,.142-.446c.158-.2.409-.146.571-.162l.232-.026.311.985-1.292.136Zm1.541,3.592,0,0-.134.14,0,0-.31.317-.161-.4c-.018-.046-.034-.094-.049-.142l-1.477-.681,1.273-.012a.772.772,0,0,0,.088-.009.48.48,0,0,1,.467.118.822.822,0,0,1,.1.164l.482.222Zm21.123,11.01a.954.954,0,0,0-.1.08l-.215.2-.2-.221c-.027-.029-.059-.059-.092-.088a.5.5,0,0,1,.039-.916c.035-.027.071-.053.1-.079l.213-.2.2.217a.973.973,0,0,0,.092.087.505.505,0,0,1-.037.917m2.322,22.446c-.1.127-.191.256-.286.387a11.441,11.441,0,0,1-.924,1.146.313.313,0,0,1-.235.1,1.5,1.5,0,0,1-.594-.225c-.1-.05-.191-.1-.272-.135l-.28-.12,1.066-2.1,1.759.642Zm7.968-38.37c-.155.067-.3.149-.437.222a1.655,1.655,0,0,1-.719.274.539.539,0,0,1-.2-.039,2.367,2.367,0,0,1-.821-.692c-.089-.1-.176-.2-.268-.293l-.214-.211,1.386-1.273,1.632,1.856Zm1.493,3.036.316-.327,0-.076-1.106-1.462,1.136-.619-.186-.2.275-.059.023-.462.341.37.735-.917,1.079,1.125-1.354.291.014.015-.273.147-.024.029-.079,1.564.021.028c.039.036.076.073.115.11l1.384.174-.77,1.208-.251-.242-.621-.6-.075-.009-.433.454.026-.506Zm.322,32.161.79-1.085.439,1.27Zm1.935-29.683c-.057.045-.115.091-.159.132l-.218.2-.194-.226c-.025-.027-.056-.057-.088-.086a.556.556,0,0,1-.253-.478,2.276,2.276,0,0,1,.2-.584l.259-.609.3.358c.041.05.088.1.135.146a1.418,1.418,0,0,1,.377.55c.073.249-.138.417-.364.594" fill="#070203"/>
    <path id="パス_71861" data-name="パス 71861" d="M373.517,6.048c-.029-.846-.033-1.694-.024-2.522,0-.233,0-.466.006-.7l-2.184,1.41-.107-.786c-.1-.661-.122-.84.169-.89.55-.117,1.126-.206,1.682-.291l.33-.052.177-.114.507-1.022v.694l.434-.28-.371.746a2.368,2.368,0,0,1,1.891,1.395,4.519,4.519,0,0,1-.01,2.231,5.79,5.79,0,0,0-.126,1.54c.025.2-.138.339-.282.438a2.288,2.288,0,0,1-.232.137,24.571,24.571,0,0,1,2.764,6.1l.464.077,2.774.188.386-.116a8.036,8.036,0,0,0,.154-1.5,57.139,57.139,0,0,0-.462-6.172,25.849,25.849,0,0,0-.694-3.973h0a41.328,41.328,0,0,0-5.82-1.621,33.8,33.8,0,0,0-4.122-.55,5.729,5.729,0,0,1-1.088,1.153c-.886.777-1.608,1.411-.958,2.575a9.216,9.216,0,0,1,4.742,1.9m4.152-.543.013-.014-.357-.72,1.024.626h0l.069.043.06.036.277.17-.264.155,0,.038c.29.585.587,1.187.845,1.8.118.259-.052.347-.615.637l-.692.368-.1-2.514-.746.437.45-.875.066-.129Z" fill="#070203"/>
    <path id="パス_71862" data-name="パス 71862" d="M116.646,9.813l-.02.256-.454-.587c-.054-.07-.1-.133-.16-.2l-.866-.619,1.416.151.159.018-.012.16.174.21c.213.152.421.31.632.463L123.742.115l-.386.039L119.846,0l-.5.116q-7.3,11.388-13.194,20.513l-.084.329.185.351-.851.482Q91.044,44.013,85.131,52.654l.886-.116,2.353.116a7.739,7.739,0,0,0,1.119,0l15.4-23.616-.652-.475.467-.311c.034-.024.065-.043.1-.065l-.11-.385.307.28a.257.257,0,0,1,.3.072c.033.037.058.079.09.117l7.165-10.99a1.424,1.424,0,0,1-.564-.6c-.062-.1-.121-.2-.185-.278l-.26-.329.4-.121c.122-.037.242-.077.363-.118a4.4,4.4,0,0,1,1.073-.264.323.323,0,0,1,.236.081l3.464-5.314ZM93.409,46.127a.857.857,0,0,0-.057.065l-.583.76.191-2.577.465.883c.013.026.031.052.047.078a.681.681,0,0,1,.145.408.626.626,0,0,1-.208.383" fill="#070203"/>
    <path id="パス_71863" data-name="パス 71863" d="M68.57,19.861c-.2-.153-.4-.308-.576-.419l-.316-.208.287-.248c.365-.314.723-.638,1.082-.963l.259-.232q-.88-7.181-4.6-11.462c-.009-.011-.019-.019-.028-.03-.482-.074-.971-.167-1.472-.29-.383-.095-.606-.507-.823-.9-.07-.129-.14-.253-.214-.366l-.155-.069.036-.109-.517-.734.359.162-.162-.346.049,0a15.563,15.563,0,0,0-2.3-1.367,1.173,1.173,0,0,1-.188.627,2.54,2.54,0,0,0-.114.24l-.1.268L58.806,3.3c-.078-.03-.171-.055-.265-.081-.3-.082-.613-.167-.694-.442a1.236,1.236,0,0,1,.142-.81c.037-.09.075-.18.1-.269v0A15.519,15.519,0,0,0,52.57.735l.93,1.3-.192,1.488a5.276,5.276,0,0,1,3.969,2.691q2.393,3.663,2.392,13.5a41.556,41.556,0,0,1-.231,4.745q-.309,2.661-.347,3.356a32.486,32.486,0,0,1-.906,5.69,21.436,21.436,0,0,1-2.8,6.712,19.888,19.888,0,0,1-4.86,5.285q-.81.594-1.658,1.128l.256.229c.034.029.08.063.125.1.2.146.4.3.315.535a4.177,4.177,0,0,1-.337.691l-.318.583-.27-.319a1.27,1.27,0,0,0-.11-.111c-.153-.148-.328-.316-.26-.544a3.182,3.182,0,0,1,.31-.667l.253-.473a28.489,28.489,0,0,1-3.864,2.02l.153,1.7L43.46,51.94l-.19-.267c-.055-.076-.129-.17-.2-.264-.33-.423-.481-.617-.287-.826.439-.471.92-.909,1.385-1.332l.493-.452c-.344.143-.684.3-1.033.425a7.96,7.96,0,0,0-2.234,1.041,1.405,1.405,0,0,0-.386,1.042,2.246,2.246,0,0,0,.614,1.427q.963.076,1.466.08a22.449,22.449,0,0,0,5.581-1c-.033-.071-.067-.142-.1-.206l-.2-.323.366-.1c.084-.022.172-.058.26-.091a1.115,1.115,0,0,1,.821-.1.719.719,0,0,1,.324.312c.028-.011.058-.019.086-.03a26.881,26.881,0,0,0,8.293-4.841,27.328,27.328,0,0,0,5.576-6.287,2.266,2.266,0,0,1,.425-.676l.071-.093c.056-.093.122-.179.177-.273a40.424,40.424,0,0,0,2.816-5.5,34.616,34.616,0,0,0,1.847-8.27l-.34.1-.206-3.245-.173-.278.232-.238h0l.4-.418h0l.045-.046.039.627.029.2.119.189c0-.592-.025-1.167-.052-1.736a4.327,4.327,0,0,1-.955-.625M55.54,47.224c-.061.089-.122.178-.165.257l-.152.279-1.745-1.214,1.052-1.334.226.2c.094.083.191.162.289.24a3.145,3.145,0,0,1,.732.742c.155.246-.027.515-.237.828m4.981-18.819.448,1.21-1.194-.152Zm.208,1.613-.594,1.43L59.55,30Zm.382,3.685-.236.48-1.155-.928.416-.338a2.182,2.182,0,0,1,.474-.335.442.442,0,0,1,.46.111c.2.157.29.31.261.465a2,2,0,0,1-.22.545m.867-22.676-.287.125-.619,1.682.082-1.449-.2.086.226-.593.014-.251-.471-2.06.6.125c.273.047.509.087.509.349-.007.477-.034.95-.061,1.423l.072,0,1.23-.533.416,1.064L63,11c-.338.007-.677.014-1.02.026M63.8,14.554c-.157,0-.258-.15-.366-.306l-.257-.362.755-.454,1.012.391-.522.375a5.26,5.26,0,0,1-.477.317.339.339,0,0,1-.145.039m2.047,20.607-.261,0,0-.285-.058.288h-.07c-.138,0-.3-.025-.35-.22a4.557,4.557,0,0,1-.043-.457l-.023-.38.888-.01Zm-.261-3.669a3.316,3.316,0,0,1-.728.218.323.323,0,0,1-.053,0c-.207,0-.337-.181-.453-.342a1.232,1.232,0,0,0-.094-.125l-.279-.314.637-.238a4.071,4.071,0,0,1,.742-.237c.229-.052.379.173.5.366a1.521,1.521,0,0,0,.093.139l.237.313Zm.245-3.08c-.033,0-.068-.007-.1-.009a.764.764,0,0,1-.426-.113.512.512,0,0,1-.173-.449.861.861,0,0,0,0-.091l-.031-.24.942-.282.171,1.235Z" fill="#070203"/>
    <path id="パス_71864" data-name="パス 71864" d="M645.953,37.075q-.766,0-1.967.116a19.588,19.588,0,0,1-3.258,5.955l.113.484-.449-.088c-.253.3-.493.614-.765.9a9.048,9.048,0,0,1-4.552,2.584c-.2.039-.4.065-.6.1l.142.224-.453-.172-.108.019-.021.051-.253,1.069.034.069-.073.1-.1.426-.131-.126-.678.881.2-1.344L633,48.289l.059-.145.077-.519.095.092.163-.406a43.646,43.646,0,0,1-7.418.526q-8.1,0-9.682-.81a2.038,2.038,0,0,1-.3-.233l-.167.4.2.109-.147.093.683.5-1.648.017.137-.336-2.275-.758.3-.462c.165-.268.289-.464.528-.341.584.293,1.157.6,1.73.914l.12.065.436-.277a2.038,2.038,0,0,1-.633-1.692l.068-7.3a.684.684,0,0,1-.132-.542,1.878,1.878,0,0,1,.14-.365v-.128q-.155-3.048-.154-7.638c0-.206.013-.638.038-1.293l-.919.364-.1-.28c-.029-.086-.068-.173-.107-.26a1.483,1.483,0,0,1-.192-.828c.047-.285.37-.375.711-.47.1-.028.2-.056.284-.087l.284-.11.461,1.5-.361.143q2.931-.3,8.7-.3a30.532,30.532,0,0,1,5.709.27,2.8,2.8,0,0,1,1.543,1.042,15.586,15.586,0,0,1,1.389,4.475q.425,1.929.579,2.546h2.739v-.849q0-1.119-.116-3.414t-.116-3.337q0-.654.058-1.813t.058-5.208q0-1.775-.154-5.208l-2.237-.039-.5.039a52.972,52.972,0,0,1-1.35,5.67,3.98,3.98,0,0,1-1.234,1.678,9.573,9.573,0,0,1-3.626.752q-2.935.27-9.836.27a14.154,14.154,0,0,1-1.659-.116v-4.86l-.077-6.48q0-6.636.116-7.6,3.7-.153,8.409-.154,4.128,0,7.715.309,1.966.155,2.353.193a10.372,10.372,0,0,1,2.469.309,17.765,17.765,0,0,1,2.469,3.549l1.54,2.739q.579,1.506.926,2.276,1,.078,1.312.077l1.582-.077c.026-.308.039-.54.039-.694l-.077-1.582V4.247a3,3,0,0,0-.694-2.083,60.65,60.65,0,0,0-6.943-.579l-6.982.077q-6.945,0-15.545.347-5.746.231-7.136.231a51.74,51.74,0,0,1-7.059-.424q-1.618-.231-3.819-.347l-.2,3.081q.967.115,1.7.154a25.246,25.246,0,0,1,4.243.54q.733.155,1.157.231a1.885,1.885,0,0,1,1.157.54,7.405,7.405,0,0,1,.077.771l.347,4.783-.039,4.359.193,6.172-.039,4.359L604.528,41l-.039,1.2c.005.216.01.411.014.6a4.369,4.369,0,0,1,.659.57,5.982,5.982,0,0,0,.444.415l.36.286-.415.195c-.156.074-.31.157-.463.241-.184.1-.371.2-.565.29a8.026,8.026,0,0,1-.282,1.985l2.408,2.3-.3.2c-.1.068-.216.161-.33.253a1.512,1.512,0,0,1-.8.448.447.447,0,0,1-.167-.032,6.67,6.67,0,0,1-2-1.333c-.221-.207-.075-.478.281-1.088a18.633,18.633,0,0,1-4.777.966,24.161,24.161,0,0,0-2.932.424v2.667l4.667-.154h1.62q6.75-.385,11.379-.386,9.293,0,15.893.27,9.375.387,11.534.386,1.467,0,3.973-.116l.694-4.4,1.427-7.291.231-1.157q.076-.656.193-1.62-.849-.039-1.273-.039M599.424,50.55l.149-1.233,1.108.76Zm6.956-20.167c-.083.024-.169.059-.256.094a1.648,1.648,0,0,1-.6.158.636.636,0,0,1-.214-.035,1.077,1.077,0,0,1-.524-.622,2.318,2.318,0,0,0-.125-.239l-.211-.338.388-.091c.083-.021.17-.051.256-.08a1.276,1.276,0,0,1,.8-.092,1.044,1.044,0,0,1,.521.591c.041.078.08.156.123.223l.211.324Zm2.769,1.584a1.157,1.157,0,0,1-.266.113l-.01,0-.448.146h0l-.4.13.424-.579-.705-.31.827-.14.117-.7,1.6.856Zm3.214-7.844a1.766,1.766,0,0,1-.723-.212c-.085-.039-.17-.078-.254-.109l-.542-.2.487-.31c.088-.056.173-.121.259-.184a1.9,1.9,0,0,1,.794-.418.991.991,0,0,1,.742.339,2.619,2.619,0,0,0,.209.166l.387.26-.408.226a2.476,2.476,0,0,0-.217.139,1.387,1.387,0,0,1-.7.3Z" fill="#070203"/>
    <path id="パス_71865" data-name="パス 71865" d="M134.18,33.094l-1.264-2.955.029-.111a10.826,10.826,0,0,0-1.023-1.456,8.956,8.956,0,0,0-4.349-3.046l-.214.536-.308-.29c-.03-.028-.071-.058-.11-.088a.649.649,0,0,1-.3-.405,8.939,8.939,0,0,0-1.741-.2,8.362,8.362,0,0,0-3.26.636,10.463,10.463,0,0,0-3.028,2.025,11.108,11.108,0,0,0-2.044,2.932q-.432,1.041-.774,2.115a.384.384,0,0,1,.059-.011h.016a.644.644,0,0,1,.457.321c.029.037.057.074.086.1l.2.212-.743.679-.193-.17.189-.214h0l-.235.174-.112-.1c-.1.363-.216.722-.3,1.089a14.308,14.308,0,0,0-.386,3.7v0a17.2,17.2,0,0,0,1.7,8.1c.071.148.165.281.242.425l1.307.709-.394.263c-.071.048-.146.109-.219.163a10.451,10.451,0,0,0,3.191,2.953,11.035,11.035,0,0,0,4.976.887,7.316,7.316,0,0,0,3.356-1.035,8.438,8.438,0,0,0,2.623-2.2,12.482,12.482,0,0,0,2.43-4.475,20.211,20.211,0,0,0,.849-6.133,19,19,0,0,0-.661-5.188ZM117.822,45.8l.723-1.114.5,1.229Zm1.87-13.586H118.7v.22l-.363-.22h0l-1.2-.728.792.02.029-.706c.022-.171.074-.2.327-.342l.427-.237-.007,1.305,2.182.056Zm8.1,13.267q-.385,2.739-1.234,3.568a2.63,2.63,0,0,1-.445.372c.031,0,.061,0,.09,0l.2-.013.394.948-1.478.19.065-.38a1.214,1.214,0,0,0,.011-.125,1.127,1.127,0,0,1,.064-.311,2.6,2.6,0,0,1-.794.147,2.115,2.115,0,0,1-.5-.068l.319.86-1.194-.152.564-.8a2.162,2.162,0,0,1-.461-.225l-1.234-1.582q-.5-.849-.5-6.712,0-1-.116-3.7.038-5.089.19-6.05a6.161,6.161,0,0,1,.98-2.876l-1.165-.147.791-1.141.439,1.191c.077-.114.143-.235.228-.344a2.721,2.721,0,0,1,1.929-.81,2.388,2.388,0,0,1,2.083,1.157q1.119,1.7,1.119,5.979v2.769l.039,2.584a40.582,40.582,0,0,1-.386,5.67" fill="#070203"/>
    <path id="パス_71866" data-name="パス 71866" d="M438.239,37.189a19.629,19.629,0,0,1-4.348,7.24l.464.979a.882.882,0,0,0,.048.08.564.564,0,0,1,.12.451c-.014.054-.039.107-.056.161l1.61-.934-1.657,1.611-.138.135-.023.322L433.8,47l-.006,0-.465-.239.367-.213.043-.113.146-2-.009.011a9.053,9.053,0,0,1-4.552,2.584c-.461.091-.925.159-1.388.235l-.172.128.611.641-.948-.231c-.054-.014-.11-.024-.165-.036l-.463.345.1-.681a43.7,43.7,0,0,1-6.676.409q-8.1,0-9.682-.81a2.05,2.05,0,0,1-1.042-2.006l.037-4.511a8.547,8.547,0,0,1-2.212-2.348l-.24-.323c-.224-.3.057-.647.9-1.618.225-.261.449-.519.616-.736l.15-.193.78.423c-.074-1.857-.113-4.062-.113-6.662q0-.312.039-1.312,2.931-.309,8.756-.309a30.536,30.536,0,0,1,5.709.27,2.79,2.79,0,0,1,1.129.606l.009-.007a2.672,2.672,0,0,1,1.735-.171c.339.031.724.065,1.127.065h.749l-.56.5c-.459.411-.892.8-1.306,1.175-.222.2-.433.39-.645.581a15.675,15.675,0,0,1,.694,2.769q.425,1.929.579,2.546h2.739v-.849q0-1.119-.116-3.414t-.116-3.337q0-.654.058-1.813t.058-5.208q0-1.775-.154-5.208l-2.238-.039-.5.039c-.147.814-.323,1.621-.508,2.426.081.186.162.373.227.565.1.309-.139.614-.629,1.033-.144.549-.279,1.1-.44,1.646a4,4,0,0,1-1.234,1.678,9.577,9.577,0,0,1-3.626.752q-2.937.27-9.836.27a14.154,14.154,0,0,1-1.659-.116v-4.86l-.078-6.48q0-6.636.117-7.6,3.7-.153,8.409-.154,4.128,0,7.715.309,1.967.155,2.353.193a10.436,10.436,0,0,1,2.469.309,17.805,17.805,0,0,1,2.469,3.549l1.543,2.738q.579,1.506.925,2.276,1,.078,1.313.077l1.582-.077c.026-.308.039-.54.039-.694l-.077-1.582v-.729a4,4,0,0,1-.6.981c-.112.147-.223.293-.32.441l-.217.332-.245-.31a4.406,4.406,0,0,0-.315-.338c-.308-.309-.626-.628-.609-1.011a3.287,3.287,0,0,1,.508-1.358c.124-.231.262-.487.4-.782l.224-.485.278.456c.172.281.346.52.5.725a4.118,4.118,0,0,1,.4.627V6.91a2.568,2.568,0,0,1-.49.463.316.316,0,0,1-.179.054.685.685,0,0,1-.326-.114c-.032-.019-.787-.468-.75-.894a2.313,2.313,0,0,1,.447-1.022c.073-.115.147-.229.209-.344l.138-.254.951.526V4.246a3,3,0,0,0-.694-2.083,60.69,60.69,0,0,0-6.943-.579l-2.238.025-.06.073-.049-.072-4.635.051q-6.945,0-15.545.347-5.748.231-7.136.231a51.731,51.731,0,0,1-7.059-.424c-.34-.048-.7-.091-1.082-.132l.126.056-.2.285c-.043.059-.084.133-.127.207-.143.249-.29.508-.56.519h-.026a1.517,1.517,0,0,1-.717-.251c-.077-.043-.156-.087-.234-.123l-.329-.149.531-.683c-.385-.028-.781-.054-1.2-.076l-.2,3.088q.966.115,1.7.154a25.259,25.259,0,0,1,4.243.54q.732.155,1.157.231a1.888,1.888,0,0,1,1.157.54,7.4,7.4,0,0,1,.077.771l.347,4.783-.039,4.359.2,6.166-.011,1.212c.4.247.6.408.515.657-.17.487-.353.972-.534,1.458l-.009,1.032L398.777,41l-.039,1.2q.039,1.581.039,2.237a8.041,8.041,0,0,1-.424,2.816,18.591,18.591,0,0,1-5.553,1.237,24.1,24.1,0,0,0-2.932.424v2.662l4.667-.154h1.62q.837-.048,1.642-.089l.277-.189.071.171q5.456-.278,9.39-.276,9.293,0,15.892.27,9.375.387,11.535.386,1.465,0,3.973-.116l.694-4.4,1.427-7.291.231-1.157q.077-.656.193-1.62-.849-.039-1.273-.039-.768,0-1.968.116M427.089,4.317c.064-.038.134-.091.2-.142.236-.175.478-.36.728-.24a1.179,1.179,0,0,1,.483.578c.037.072.074.142.114.2l.155.244-.244.153c-.059.035-.123.086-.189.135a1.041,1.041,0,0,1-.541.274.328.328,0,0,1-.175-.049,1.514,1.514,0,0,1-.485-.543c-.044-.068-.086-.138-.133-.2l-.187-.255Zm-26.2,13.005-.409-.451a.851.851,0,0,1-.133.136.33.33,0,0,1-.212.071.771.771,0,0,1-.26-.059c-.027-.01-.055-.021-.078-.027l-1.149-.277,1.149-.278.345-.082.013-.021-.18-2.915-.226.192.126-.77c.014-.082.029-.165.049-.256l-.017-.267.558.034h.005l.085.005.175.01h0l.455.027-.442.375.11,3.427.773-.169-.757.646Zm4.348-2.034-1.963.28.044-1.136.635.092-1.121-.687,1.87.453a.819.819,0,0,1,.356.124,1.242,1.242,0,0,1,.238.237l.042.052,1.422.87Zm27.685,36.287-1.359-.588,1.4-.553Z" fill="#070203"/>
    <path id="パス_71867" data-name="パス 71867" d="M591.027,1.239q-.655.039-1.408.116t-1.215.077l-6.9.231h-1.62l-.771.039-1.89-.039-.733.039q-4.9.231-9.412.231-8.988,0-13.617-.463l-5.092-.193v2.7l.926.231q1.467.464,2.237.617,3.164.54,3.742,1.08l.388,10.8a3.921,3.921,0,0,1,1.326.343c.228.087.478.182.759.273l.421.136-.3.327c-.218.242-.417.487-.589.7-.4.484-.6.733-.822.733a.348.348,0,0,1-.14-.031,5.108,5.108,0,0,1-.584-.312l-.077,6.507.154,5.516-.039,3.742.154,8.911v.231a13,13,0,0,1-.144,1.859l.427.392-.59.488c-.031.141-.044.284-.079.424l-.733.463c-.122.031-.245.058-.367.088l-.97.8-.181-.228c-.064-.081-.149-.163-.225-.244-.73.167-1.461.326-2.192.469q-1.966.385-2.816.579l-.077,2.777q.922.039,3.433.039.27,0,3.317-.347a33.85,33.85,0,0,1,4.05-.231q7.716,0,8.641.039l5.481.269,1.205-.04.733.039a11.6,11.6,0,0,0,.116-1.466,10.787,10.787,0,0,0-.154-1.543l-1.042-.231a14.164,14.164,0,0,0-3.047-.5l-.771-.077a6.747,6.747,0,0,1-2.893-.926q-.654-.735-.694-3.935l-.085-5.083-.124.318-1.227-.857,1.286-3.411-.043-2.539a23.081,23.081,0,0,1,.27-3.742,23.776,23.776,0,0,1,3.317-.27q9.8,0,11.649.926,1.042.5,1.929,3.549a16.655,16.655,0,0,0,.771,2.122,11.373,11.373,0,0,0,1.5.231,6.006,6.006,0,0,0,1.157-.154q.039-.81.039-1.157,0-5.323-.039-5.709l-.077-.849q.116-1.428.154-3.395l.231-6.172q-1.275-.115-1.7-.116c-.128,0-.373.013-.733.039q-.849.039-1.042.039a17.763,17.763,0,0,1-.6,4.61,3.529,3.529,0,0,1-1.331,1.562,7.8,7.8,0,0,1-2.7.617c-.054.007-.109.01-.163.017l.338.973-1.428.754.089-.563c.012-.073.021-.149.03-.224a3.045,3.045,0,0,1,.116-.6.592.592,0,0,1,.212-.273,36.284,36.284,0,0,1-3.939.262h-4.629l-2.739-.039a1.6,1.6,0,0,1-.579-.27A25.337,25.337,0,0,1,566,18.4l.116-5.246L566,8.567a4.6,4.6,0,0,1,.5-2.276,7.738,7.738,0,0,1,1.234-.386,34.748,34.748,0,0,1,5.362-.386l5.323-.154q5.208,0,6.345.714t2.758,4.61a8.384,8.384,0,0,0,.887,1.736,2.014,2.014,0,0,0,1.234.347,16.65,16.65,0,0,0,2.044-.193,5.251,5.251,0,0,0,.231-1.774l-.579-7.252a17.679,17.679,0,0,0-.309-2.314m-32.97,12.2a4,4,0,0,0-.85-1.038c-.162-.158-.323-.317-.47-.483l-.291-.326,3.013-.98.056.325c.038.22.09.441.143.661a5.185,5.185,0,0,1,.2,1.608,7.533,7.533,0,0,1-.456,1.778c-.034.1-.066.2-.1.3l.65-.089.093.564-.183.035-.591.118.427,1.775-1.117-2.024v0l-.143-.258.128-.018c-.025-.123-.05-.247-.074-.371a6.537,6.537,0,0,0-.438-1.575m.331,14.82a2,2,0,0,1-.61-.147c-.061-.021-.124-.043-.185-.062l-.32-.1.714-1.45.421.407a2.639,2.639,0,0,1,.464.515.492.492,0,0,1-.058.5c-.126.224-.263.333-.418.333Zm.476,17.647-.183-.454a.647.647,0,0,0-.047-.1.727.727,0,0,1-.113-.443.716.716,0,0,1,.232-.39c.025-.027.051-.052.072-.079l.309-.4.4,1.029Zm1.219-14.865-1.314-.595,1.333-.539Zm21.4-8.288.045,1.165-1.484-.524Z" fill="#070203"/>
    <path id="パス_71868" data-name="パス 71868" d="M235.052,31.067l.018,0-.017,0Z" fill="#070203"/>
  </g>
</svg>
