<svg id="グループ_6691" data-name="グループ 6691" xmlns="http://www.w3.org/2000/svg" xmlns:xlink="http://www.w3.org/1999/xlink" width="239.291" height="36.097" viewBox="0 0 239.291 36.097">
  <defs>
    <clipPath id="clip-path">
      <rect id="長方形_8758" data-name="長方形 8758" width="239.291" height="36.097" transform="translate(0 0)" fill="none"/>
    </clipPath>
  </defs>
  <g id="グループ_6691-2" data-name="グループ 6691" clip-path="url(#clip-path)">
    <path id="パス_71926" data-name="パス 71926" d="M232.449,32.516l.569-.191c.008-.114.014-.232.014-.367,0-.156.029-.78.084-1.82l-1.589-1.375,1.634-1.106q0-.588,0-1.333l-1.033.014-.454.258.14-.549-1.293-2.468,2.123-.357.014.086.111.031.057-.04.05.07v0l.308.455a8.443,8.443,0,0,1,.057-.94,1.215,1.215,0,0,1,.29-.659,5.536,5.536,0,0,1,1.213-.527,10.335,10.335,0,0,0,1.529-.659,1.5,1.5,0,0,0,.185-.659c0-.316-.008-.7-.026-1.16q-1.45-.079-1.767-.053l-1.767.053-4.166.053q-.87,0-1.608-.053-2.109-.211-4.983-.211a2.536,2.536,0,0,0-.659.158A4.136,4.136,0,0,0,221.3,20.2a3.8,3.8,0,0,0,.053.5,1.68,1.68,0,0,0,.949.448l2.347.633a5.31,5.31,0,0,1,1.068.382,1.3,1.3,0,0,1,.356.514q.079,1.029.079,3.771a34,34,0,0,1-.211,4.351,2.232,2.232,0,0,1-.554,1.266,2.924,2.924,0,0,1-.459.373l.121.083c.049.034.115.072.18.11.251.149.418.248.366.427-.145.519-.327,1.034-.505,1.534,0,.042,0,.083,0,.124l.082-.011-.1.133c-.005.041-.007.083-.014.124l-.061.448-.2-.189-1.617.133.21.118-.26.027.079.123a37.912,37.912,0,0,0,4.988-.775c.326-.08.635-.158.928-.236l.543-1.188.005-.258.7-.409-.342.751-.017.855a7.516,7.516,0,0,0,2.755-1.189.685.685,0,0,0,.16-.3Zm-.535-12.845c.009-.02.017-.04.023-.058l.068-.219.2.114c.018.01.038.018.059.027a.324.324,0,0,1,.2.508c-.008.021-.018.041-.024.06l-.073.227-.2-.128a.4.4,0,0,0-.058-.032.436.436,0,0,1-.223-.2.363.363,0,0,1,.034-.3" fill="#070203"/>
    <path id="パス_71927" data-name="パス 71927" d="M142.738,35.176a6.337,6.337,0,0,0,.765-.1,10.79,10.79,0,0,0,.369-2.32q.476-4.746.475-6.645v-.745a10.766,10.766,0,0,0-1.424-.1h-.844a16.008,16.008,0,0,1-1.279,3.059,7.618,7.618,0,0,1-1.463,1.714,5.727,5.727,0,0,1-2.373,1.477,18.407,18.407,0,0,1-6.677.982l-1.661-.053-1.556.026-2.5-.1a1.419,1.419,0,0,1-.264-1.028l.014-1.643c-.136-.34-.278-.7-.439-1.107l-.485-1.226.486.319c.181.119.326.21.453.287l.076-9.13q0-1.056.026-1.714.08-1.767.079-3.138,0-1.188-.079-2.769-.052-1-.053-1.424,0-.344.026-.686.079-1.318.079-1.45l-.026-.29V6.882l.079-1.661.026-.738a2.739,2.739,0,0,1,.158-.316q.316-.159.448-.211l3.27-.765a2.408,2.408,0,0,0,1.16-.316,1.319,1.319,0,0,0,.29-.923A1.892,1.892,0,0,0,129.683.9a.648.648,0,0,0-.554-.211q-.132,0-.976.079Q125.3,1,123.486,1L120.691.949,116.92.975q-3.956-.212-4.588-.211a1.01,1.01,0,0,0-.5.132q-.025.422-.026.633c0,.246.018.6.053,1.055a3.349,3.349,0,0,0,1.292.554,6.855,6.855,0,0,1,1.187.369l1,.4a3.479,3.479,0,0,1,1.516.7,14.247,14.247,0,0,1,.356,3.045v.369l-.026,2.663-.1,5.88.053,2.742-.013,1.305c.127-.18.255-.359.382-.533l.447-.62.609,1.219L117.2,22.26l-.09-.115v1.933l-.158,3.428L117,30.877a4.5,4.5,0,0,1-.158,1.055,2.2,2.2,0,0,1-1.371.343q-.263,0-1.753.224c-.613.083-1.22.2-1.822.348l.077.054-.336.006c-.075.019-.151.033-.226.053h0a5.065,5.065,0,0,0-.189,1.611,2.9,2.9,0,0,0,.053.5c.228.017.395.026.5.026h.4q2.716-.211,5.827-.29l5.384-.158q4.324,0,8.833.158t5.036.185q2.9.21,3.138.211l1.371-.026ZM129.151,1.6a1.948,1.948,0,0,0,.177-.088l.195-.116.317.922-.786.611-.091-.225c-.024-.059-.056-.118-.087-.178a.9.9,0,0,1-.154-.559c.037-.189.236-.28.429-.367m-11.4.628c-.02.047-.037.1-.055.159-.06.189-.123.384-.3.418a.342.342,0,0,1-.077.008.89.89,0,0,1-.4-.143,1.366,1.366,0,0,0-.142-.073l-.185-.08.1-.178c.024-.043.045-.092.067-.14a.83.83,0,0,1,.284-.4c.151-.091.314.006.489.113.049.029.1.06.14.08l.157.078Zm.161,24.162a2.086,2.086,0,0,1,.2-.428c.024-.041.047-.081.067-.12l.109-.209.176.157c.021.018.051.04.079.062.127.1.258.194.2.349a2.753,2.753,0,0,1-.216.443l-.205.373-.174-.2a.77.77,0,0,0-.07-.07c-.1-.1-.211-.2-.168-.352m1.275,2.914a1.486,1.486,0,0,0-.159.059,1.015,1.015,0,0,1-.361.1.335.335,0,0,1-.157-.036A.862.862,0,0,1,118.18,29c-.026-.055-.052-.11-.082-.16l-.126-.208.235-.064a1.507,1.507,0,0,0,.166-.059.529.529,0,0,1,.847.364c.024.056.047.113.073.161l.109.2Zm3.959-7.03.172.239,1.01-.937-.9,1.417-.18.07-.008,0-.333.129h0l-.563.219.665-.617Zm-1.2,2.456.145.13c.061.054.125.106.188.157a1.964,1.964,0,0,1,.469.476c.1.158-.017.331-.152.532a1.877,1.877,0,0,0-.106.166l-.1.179-1.123-.781Zm1.3,7.7-.028.069-.154.653.041.04-.072.094-.066.28-.086-.083-.436.568.114-.747h-.062l.1-.244.048-.318.058.056.165-.411.022-.092-1.867-.7.043-.143c-.019-.219-.04-.436-.061-.652l-.1-.716-.022-.044-.1-.1.124-.055-.038-.38.217.217.74-.924.486.874-.186.081c-.276.12-.552.24-.826.361l.063.64.069.521,1.8.727.1.152.015.023.244.385Z" fill="#070203"/>
    <path id="パス_71928" data-name="パス 71928" d="M18.956,26.728a27.426,27.426,0,0,0,1.925-3.757c.142-.4.256-.8.376-1.207l-.049-.071a3.194,3.194,0,0,1-.216-.332c-.078-.156.044-.239.185-.334l.247-.174.068.112c.146-.563.275-1.129.379-1.7l-.223-.165.27-.151a23.715,23.715,0,0,0,.335-3.572q0-7.224-3.335-11.048A10.619,10.619,0,0,0,10.572.506,10.868,10.868,0,0,0,5.359,1.812a.386.386,0,0,1-.035.221,7.278,7.278,0,0,1-.965,1.313c-.134.158-.269.315-.4.477l-.163.2-.138-.221a4.84,4.84,0,0,0-.29-.4c-.021-.026-.039-.052-.06-.078A9.443,9.443,0,0,0,1.852,5.138l0,.224L1.838,6.373l-.271-.762c-.049.088-.11.167-.156.257A12.276,12.276,0,0,0,0,11.682a15.682,15.682,0,0,0,.5,3.929,8.2,8.2,0,0,0,1.2,2.624,9.87,9.87,0,0,0,2.333,2.254c.241.138.495.249.743.374l.161-.63-.005-.007.049-.163.246.068.058-.039.05.069v0l.909,1.344c.291.111.577.234.875.326a6.642,6.642,0,0,0,1.555.1,10.339,10.339,0,0,0,3.665-.633,1.222,1.222,0,0,0,.8-1.3,1.306,1.306,0,0,0-.264-.883.76.76,0,0,0-.579-.3l-.4.079a4.822,4.822,0,0,1-1.37.211,4.644,4.644,0,0,1-2.058-.5,2.827,2.827,0,0,1-.9-1.028,7,7,0,0,1-.946-2.664A32.881,32.881,0,0,1,6.3,10.23,10.432,10.432,0,0,1,7.911,3.981a3.49,3.49,0,0,1,2.874-1.608,3.61,3.61,0,0,1,3.059,1.872q1.635,2.505,1.636,9.229a28.33,28.33,0,0,1-.159,3.243q-.21,1.82-.236,2.294c-.051.727-.145,1.449-.267,2.167a.876.876,0,0,1,.413.285c.1.151.006.334-.084.511-.027.054-.055.107-.073.154l-.067.173-.171-.068c-.051-.019-.11-.035-.17-.051-.018,0-.033-.013-.05-.018-.053.245-.09.493-.152.736a14.649,14.649,0,0,1-1.17,3.25l.035.072.108.051-.042.086.19.391-.3-.144v.262l.629.016-.767.406h0l-.229.121V27.29h-.249c-.04.065-.074.134-.115.2A13.551,13.551,0,0,1,9.227,31.1a19.3,19.3,0,0,1-4.72,2.544,5.452,5.452,0,0,0-.513.193h.287l-.07.748-.731-.3,0,.305-.368.01L3.1,34.289c-.038.025-.081.042-.119.067a.964.964,0,0,0-.264.712,1.537,1.537,0,0,0,.422.976c.441.035.774.053,1,.053a15.35,15.35,0,0,0,4.877-1.055,18.342,18.342,0,0,0,5.669-3.3,18.679,18.679,0,0,0,4.271-5.01M.406,8.565l.7.226.03-.084.01.009.3-2.438L1.881,7.43c.126.343.252.686.394,1.022.092.214.2.418.322.633l.023.044.155.041.047-.594.233.095c.018.007.041.012.062.019a.377.377,0,0,1,.26.167.414.414,0,0,1,0,.306.41.41,0,0,0-.016.065l-.02.121-.2.047-.235.117-.036.073a.158.158,0,0,1-.152.1.315.315,0,0,1-.057-.014l0,.012L1.445,9.288l-.019.155L1.35,9.378l-.3.645-.34-.138L1,9.078Zm1.5,6.892c-.028.038-.054.087-.082.134-.092.162-.187.328-.361.334H1.44a.98.98,0,0,1-.463-.163c-.048-.027-.1-.055-.147-.078l-.21-.1.544-.7.869.388Zm.655-3.377-.021.064H2.5l-.046.079-.526.919.134-.754-.02.013.035-.1.127-.713.143.1L3.374,11.1l.031-.439.366,0,.067.693-.146.024c-.386.234-.763.468-1.136.7m2.071,2.01c-.009.021-.018.041-.024.059l-.073.228-.2-.129a.521.521,0,0,0-.058-.031.427.427,0,0,1-.222-.2.358.358,0,0,1,.034-.305c.008-.02.017-.039.023-.058l.07-.218.2.116c.017.01.039.018.059.027a.388.388,0,0,1,.234.2.4.4,0,0,1-.04.307m.788.464.069-.786.713.459ZM7.293,34.885l.071-.839.777.489ZM18.235,22.939l-.158.4-.2-.187c-.02-.018-.046-.038-.071-.057-.1-.076-.221-.17-.2-.317a1.979,1.979,0,0,1,.139-.425c.019-.047.039-.095.057-.143l.089-.239.2.161a.915.915,0,0,0,.077.055c.116.079.247.167.214.321a2.386,2.386,0,0,1-.151.436m-.408-6.346.526-.7.233.844Zm.765,1.227.583.27-.693.778-.5-.9Zm1.771,3.274c.077.081.155.163.223.224l.163.147-1.222.952L18.3,21.776l.226-.175c.1-.079.2-.163.3-.245a4.876,4.876,0,0,1,.9-.635c.19-.092.366.091.634.373m-.679-10.175.15.274a1.7,1.7,0,0,0,.1.156.835.835,0,0,1,.2.495.938.938,0,0,1-.236.491c-.037.05-.074.1-.1.147l-.119.2-.166-.16c-.041-.039-.095-.083-.148-.126-.184-.149-.343-.278-.288-.452a2.1,2.1,0,0,1,.313-.567c.044-.062.087-.125.128-.19ZM17.146,7.706c.2-.234.481-.5.689-.427a2.23,2.23,0,0,1,.749.61c.163.169.368.378.64.638l.235.225-.314.086c-.192.052-.362.114-.51.167a1.776,1.776,0,0,1-.551.145.408.408,0,0,1-.2-.05A2.447,2.447,0,0,1,17,8.125c-.076-.138.032-.283.149-.419m-2.3,16.412.309.838-.818-.1Zm.753,4.43c-.029.055-.058.111-.082.166l-.1.242-.848-.805.9-1.022.106.29c.02.052.045.1.07.159a1.007,1.007,0,0,1,.133.478,1.25,1.25,0,0,1-.174.492m.1-12.814a.582.582,0,0,0-.024-.074l-.074-.184.189-.06c.022-.007.047-.019.072-.03a.341.341,0,0,1,.349-.022.473.473,0,0,1,.163.278c.008.025.015.051.024.073l.075.183-.187.061c-.023.008-.048.02-.073.031a.555.555,0,0,1-.22.064.221.221,0,0,1-.131-.042.477.477,0,0,1-.163-.278" transform="translate(4)" fill="#070203"/>
    <path id="パス_71929" data-name="パス 71929" d="M152.275,17.641Z" fill="#070203"/>
    <path id="パス_71931" data-name="パス 71931" d="M222.409,35.572l-.41.042.361-.325.032-.117a.166.166,0,0,1,.158-.125v-.012l.077-.007.363-.03,1.643-.222.087-.244,0-.009q.015-.7.028-1.4l.011-.577a3,3,0,0,1-.958.366,16.052,16.052,0,0,1-3.639.448,9.906,9.906,0,0,1-3.51-.567,1.648,1.648,0,0,1-.422.34.4.4,0,0,1-.189.044,2.057,2.057,0,0,1-.815-.321c-.2-.11-.434-.234-.688-.345l-.29-.127.254-.189c.123-.091.229-.172.335-.252a9.743,9.743,0,0,1-.819-.542,11.8,11.8,0,0,1-3.916-5.418,19.974,19.974,0,0,1-1.305-7.119c0-4.873.992-8.6,2.95-11.227l-.131-.192c-.024-.034-.05-.069-.076-.1a1.264,1.264,0,0,1-.2-.339c-.054-.153.092-.321.157-.385a.242.242,0,0,1,.248-.079,1.659,1.659,0,0,1,.347.183l.25.153A9.935,9.935,0,0,1,219.9,3.144a10.149,10.149,0,0,1,4.061.765,12.905,12.905,0,0,1,3.929,2.5l0,.005.231.188-.022.075c.41.483.808.975,1.184,1.484l.092-.013.763-1.08-.317,1.015.075-.011-.123.165-.04.129.017.011-.064.141h0l-.027.088-.056.012c.385.544.761,1.095,1.1,1.666a9.585,9.585,0,0,0,1.925.211,3.314,3.314,0,0,0,.185-.976q0-1.029-.237-3.283a28.432,28.432,0,0,0-.422-3.019h0A19.606,19.606,0,0,0,227.508,1.3,21.694,21.694,0,0,0,221.5.5Q220.31.37,219.782.37a21.677,21.677,0,0,0-7.8,1.371,17.4,17.4,0,0,0-5.972,3.678,17.1,17.1,0,0,0-3.7,5.181,19.028,19.028,0,0,0-1.793,7.857,20.96,20.96,0,0,0,1.213,6.935,14.758,14.758,0,0,0,2.637,4.562,16.471,16.471,0,0,0,4.245,3.586,14.637,14.637,0,0,0,4.469,1.674c.742.148,1.49.257,2.24.347l.029-.407.207.435c.363.041.726.076,1.09.1l.11-.064-.069.067c.857.063,1.716.1,2.576.086,1.056.015,2.11-.03,3.162-.1,0-.036-.015-.069-.017-.106m9.336-31.514,0,.722-.877-.362Zm-12.9-1.967.4.53-.483.3L218.2,2.64Zm-5.347,2.071c.027-.051.055-.1.074-.15l.069-.173.173.072c.049.02.106.037.164.054.186.056.38.114.439.287a.694.694,0,0,1-.108.511c-.026.053-.052.105-.071.154l-.07.191-.183-.089c-.048-.024-.1-.043-.155-.064a.757.757,0,0,1-.428-.283c-.089-.158,0-.337.1-.51M202.1,14.377c-.027.054-.055.108-.074.156l-.065.173-.173-.068c-.05-.019-.11-.035-.17-.051-.194-.054-.394-.109-.447-.285a.79.79,0,0,1,.091-.521c.023-.058.048-.116.065-.173l.065-.215.2.106c.051.027.106.051.162.075a.915.915,0,0,1,.431.294c.1.151.006.334-.083.509m7.347-3.346.08.189c.011.024.025.049.04.076a.366.366,0,0,1,.058.362.463.463,0,0,1-.285.191c-.026.009-.054.018-.078.029l-.1.044-.56-.416Zm-3.9-.806.58.273-.692.773-.5-.9Zm-.359,5.122-.158.391-.2-.186c-.02-.018-.045-.037-.071-.057-.1-.075-.22-.169-.2-.317a1.933,1.933,0,0,1,.138-.424q.03-.072.057-.144l.09-.239.2.161c.021.017.049.036.077.055.115.078.247.167.214.321a2.371,2.371,0,0,1-.152.439m1.292-.525-1.226-.64.226-.176c.1-.077.2-.159.3-.24a4.852,4.852,0,0,1,.906-.639c.189-.091.366.092.636.373.076.08.154.162.221.223l.163.147Zm1.925-.376-.245-.35a3.317,3.317,0,0,1-.214-.33c-.086-.152.048-.242.191-.337l.243-.169.3.5Zm1.667,13.769c-.035.049-.072.1-.1.144l-.115.189-.165-.149c-.038-.035-.09-.074-.14-.112-.186-.143-.347-.266-.294-.441a1.972,1.972,0,0,1,.292-.545c.041-.06.082-.121.119-.182l.161-.26.155.263c.028.048.064.1.1.145a.827.827,0,0,1,.212.474.847.847,0,0,1-.222.474m2.268,5.759.89-.333.062.177-.152.052.012.005.155-.015.183.528Z" fill="#070203"/>
    <path id="パス_71932" data-name="パス 71932" d="M72.089,35.3l.114.333,6.853-10.511.944-2.5.2.167c.05.041.116.089.182.136l.073.054L95.386.079,95.123.1l-2.4-.1L92.38.079Q74.764,27.554,68.991,35.992l.608-.08,1.608.08c.126.009.254,0,.381,0ZM92.461.637l.184.075a.411.411,0,0,0,.049.015c.08.024.214.064.231.2a.581.581,0,0,1-.035.241l-.064.245-.56-.178Zm-1.091,2.5c.049-.109.155-.3.314-.331a.681.681,0,0,1,.474.156c.046.029.091.058.135.08l.154.077L92.074,4l-.181-.105c-.045-.027-.1-.05-.146-.074a.861.861,0,0,1-.406-.3.421.421,0,0,1,.029-.381M76.655,25.271l.73.516-.87.244Z" fill="#070203"/>
    <path id="パス_71933" data-name="パス 71933" d="M62.69,4.245a18.235,18.235,0,0,0-.923,2.848A10.1,10.1,0,0,0,61.5,9.651a11.765,11.765,0,0,0,.031,1.232l1.381-.263-1.353.611a11.622,11.622,0,0,0,1.117,3.956,7.3,7.3,0,0,0,2.808,3.085,7.621,7.621,0,0,0,3.428.606,4.97,4.97,0,0,0,2.268-.712A6.034,6.034,0,0,0,72.569,17.1l-.112-.13a.6.6,0,0,0-.057-.055.361.361,0,0,1-.162-.308,1.466,1.466,0,0,1,.13-.376l.167-.392.194.23c.027.033.057.064.087.095a.9.9,0,0,1,.243.354.2.2,0,0,1,0,.068,8.745,8.745,0,0,0,1.576-2.979,13.8,13.8,0,0,0,.58-4.192A9.986,9.986,0,0,0,75.024,6.8c-.007,0-.015-.007-.021-.009l-.179-.078.119-.234A9.967,9.967,0,0,0,73.2,2.8,6.1,6.1,0,0,0,68.388.4,5.572,5.572,0,0,0,66.16.845a7.426,7.426,0,0,0-2.07,1.4,7.611,7.611,0,0,0-1.4,2m11.426,6.592c.116.253.233.508.352.763l.017.06.009.1-.3.23-.418-1.007Zm-2.042-6.4a.576.576,0,0,0,.069-.059l.156-.161.534.78-.877.635-.035-.313c-.006-.051-.014-.1-.022-.153a1.721,1.721,0,0,1-.029-.439.454.454,0,0,1,.2-.29m-.6,9.139.177-.038.015-.3.219.238.473-.591.695.724-.872.188.009.01-.176.094L72,13.924l-.051,1.007.014.017.074.071.89.112-.5.778-.162-.156-.4-.384-.049-.007-.278.293.017-.326-.192-.024.2-.211,0-.048-.712-.941.732-.4ZM66.091,8.912q.052-3.48.158-4.14A4.3,4.3,0,0,1,67.106,2.5a1.815,1.815,0,0,1,1.305-.554,1.631,1.631,0,0,1,1.424.791A7.878,7.878,0,0,1,70.6,6.828v1.9l.053,1.767c0,.874-.053,1.746-.134,2.615l.124.141-.145.062c-.035.353-.06.707-.109,1.058a4.384,4.384,0,0,1-.857,2.439,1.854,1.854,0,0,1-1.305.567,1.455,1.455,0,0,1-.87-.264l-.844-1.081a16.87,16.87,0,0,1-.343-4.588q0-.685-.079-2.531Z" fill="#070203"/>
    <path id="パス_71934" data-name="パス 71934" d="M44.308,32.585l-.739-1.411,2.121-.358.016.087.11.031.058-.039.049.068v0l.124.184a18.671,18.671,0,0,0,3.622-4.427c.454-.74.86-1.507,1.241-2.285l0-.006c-.133-.221.044-.5.336-.964.127-.2.273-.433.41-.688a23.609,23.609,0,0,0,1.312-7.408q0-7.224-3.334-11.043a10.588,10.588,0,0,0-.885-.935l-.66.151c-.061.014-.112.027-.157.04a.966.966,0,0,1-.251.045l-.056,0c-.149-.02-.187-.165-.216-.271-.007-.024-.013-.048-.02-.067l-.124-.341,1.449.416a10.571,10.571,0,0,0-1.715-1.3L45.612,3.09l-.047-.3c-.014-.094-.043-.206-.071-.318-.088-.35-.157-.626.022-.759.118-.087.244-.164.366-.246a10.622,10.622,0,0,0-4.6-.959,10.844,10.844,0,0,0-2.731.335c.078.107.152.221.226.34.053.088.11.18.173.275l.19.286H38.8c-.1,0-.2.009-.292.017s-.156.014-.227.014a.432.432,0,0,1-.316-.1,1.516,1.516,0,0,1-.326-.538A10.757,10.757,0,0,0,36,1.847a9.476,9.476,0,0,0-3.877,4.021,12.286,12.286,0,0,0-1.411,5.814,15.781,15.781,0,0,0,.5,3.929,8.256,8.256,0,0,0,1.2,2.624,9.883,9.883,0,0,0,2.171,2.121l.721-.079-.345.319a15.511,15.511,0,0,0,2.871,1.238,6.654,6.654,0,0,0,1.556.1,10.361,10.361,0,0,0,3.665-.633,1.223,1.223,0,0,0,.8-1.3,1.3,1.3,0,0,0-.264-.883.761.761,0,0,0-.58-.3l-.4.079a4.824,4.824,0,0,1-1.371.211,4.674,4.674,0,0,1-2.057-.5,2.839,2.839,0,0,1-.9-1.028,7,7,0,0,1-.949-2.663,32.891,32.891,0,0,1-.316-4.693,10.428,10.428,0,0,1,1.608-6.249A3.49,3.49,0,0,1,41.5,2.373a3.6,3.6,0,0,1,2.675,1.318l.071-.006-.116-.122.358.02.07-.1.089.094.416-.644.523.706.026.009.12.006.182,1.044L45.4,4l-.573-.031-.126.193-.093-.1-.084.125c.011.019.025.036.035.055q1.636,2.505,1.635,9.229a28.1,28.1,0,0,1-.158,3.243q-.21,1.82-.237,2.294a22.048,22.048,0,0,1-.62,3.889,14.617,14.617,0,0,1-1.912,4.588A13.558,13.558,0,0,1,39.94,31.1a19.337,19.337,0,0,1-4.72,2.544,5.481,5.481,0,0,0-1.529.712.968.968,0,0,0-.264.712,1.539,1.539,0,0,0,.422.976q.66.052,1,.053a15.389,15.389,0,0,0,4.879-1.055,18.39,18.39,0,0,0,4.578-2.457m6.718-10.85-.13-.269c-.023-.046-.051-.092-.079-.139a.834.834,0,0,1-.163-.45,1.016,1.016,0,0,1,.179-.465c.03-.05.059-.1.084-.151l.088-.183.878.543Zm-.185-3.477a4.053,4.053,0,0,1,.528-.839c.094-.127.2-.266.306-.423l.164-.234.145.246c.087.148.184.287.268.41.219.317.351.509.242.683a3.405,3.405,0,0,1-.669.713c-.088.077-.177.155-.261.234l-.148.142-.125-.163c-.045-.058-.1-.123-.165-.188-.194-.21-.363-.392-.285-.581m-.46-6.786.316.864-.838-.106ZM49.2,14.2c.005-.023.007-.048.01-.073a.535.535,0,0,1,.091-.287c.1-.127.263-.094.368-.1l.149-.017.2.634-.831.087Zm.439,1.809A.41.41,0,0,0,49.7,16a.311.311,0,0,1,.3.077.506.506,0,0,1,.065.105l.311.143-.181.185h0l-.086.09,0,0-.2.2-.1-.26c-.011-.029-.021-.06-.031-.091l-.95-.438ZM31.8,10.513l-.556-.28.643-.546.395.529Zm1.012,7.449L32.341,16.8l.2-.056c.054-.016.111-.038.168-.06a.813.813,0,0,1,.537-.084c.179.055.222.26.268.476a1.619,1.619,0,0,0,.044.182l.039.125ZM34.78,6.64a2.208,2.208,0,0,1-.377.044h-.039c-.134,0-.191-.134-.212-.183-.075-.173-.076-.3,0-.383a1.65,1.65,0,0,1,.316-.252c.037-.025.075-.05.111-.076l.2-.141.347.938Zm2.252,12.493-1.092.657.268-.557a1.5,1.5,0,0,0,.066-.153c.094-.16.2-.126.369-.071ZM39.185,2.938l-.875-.381.9-.353ZM46.126,26.9a1.883,1.883,0,0,1,.291-.561c.037-.057.075-.113.109-.169l.087-.143,1.048.512-.147.18c-.05.061-.1.124-.145.187a2.373,2.373,0,0,1-.469.507.2.2,0,0,1-.122.041.766.766,0,0,1-.392-.175c-.184-.126-.3-.238-.26-.379m-1.166.368a.549.549,0,0,0,.024-.058l.069-.219.2.117a.46.46,0,0,0,.059.028.389.389,0,0,1,.234.2.4.4,0,0,1-.04.3c-.008.021-.018.042-.024.061l-.073.228-.2-.129a.607.607,0,0,0-.057-.031.432.432,0,0,1-.222-.195.365.365,0,0,1,.033-.307" fill="#070203"/>
    <path id="パス_71935" data-name="パス 71935" d="M187.106,7.938a16.336,16.336,0,0,0-6.354-5.563A20.7,20.7,0,0,0,172.146.323a.924.924,0,0,1,.114.435,1.242,1.242,0,0,1-.171.49c-.03.055-.059.112-.084.168l-.1.242-.85-.805.47-.534c-.1,0-.192,0-.288,0-.74-.008-1.478.03-2.214.092l.119.107-.147.138c-.019.018-.04.041-.06.064a.427.427,0,0,1-.3.19h-.007a.417.417,0,0,1-.3-.207.656.656,0,0,0-.056-.068L168.135.5l.005,0c-.219.027-.436.063-.655.1a.469.469,0,0,0,.033.04l.132.137-.481.438-.521-.459.029-.026c-.426.08-.85.167-1.271.27a18.513,18.513,0,0,0-1.924.636h0l.026-.01a1.743,1.743,0,0,1,.74-.187c.581.006,1.167.059,1.733.111.225.02.45.04.675.058l.238.019-.079.225c-.044.125-.088.285-.13.445-.143.524-.229.841-.469.845l-.157,0a9.67,9.67,0,0,1-2.316-.3c-.246-.059-.39-.324-.528-.581-.046-.083-.092-.162-.139-.235l-.1-.045L163,1.9l-.048-.07c-.188.079-.372.165-.557.25.36.289.714.583,1.053.871l.3.255-.694.908-.316-.348c-.36-.4-.733-.808-1.084-1.227a.179.179,0,0,1-.038-.087c-.451.234-.894.481-1.325.751a17.047,17.047,0,0,0-4.166,3.52,15.4,15.4,0,0,0-2.584,4.351,18.725,18.725,0,0,0-.709,11.309c.063.275.138.547.211.82l.993-.323h0l.174-.057V22.9l.805,0-.074.748-.729-.3,0,.305-.368.01-.021-.4-.766,0a22.373,22.373,0,0,0,1.272,3.493,17.254,17.254,0,0,0,2.953,3.876,22.246,22.246,0,0,0,4.614,3.349q.241.106,2.241.765a14.833,14.833,0,0,0,2.584.58,28.535,28.535,0,0,0,4.192.29,24.508,24.508,0,0,0,5.968-.694c-.15-.022-.3-.038-.451-.062l-.236.009s-.053,0-.105,0l-.566.121.28-.379,0-.007a.355.355,0,0,1,.026-.035l.082-.111.037-.049.023-.032.114.054.168.027,1.956-.417-.094.3c-.019.06-.039.137-.059.215l0,.014a16.279,16.279,0,0,0,6.977-4.285,17.88,17.88,0,0,0,5.076-12.787,17.14,17.14,0,0,0-3.006-9.571m-28.492,14.18c.022,0,.044-.006.067-.01a.5.5,0,0,1,.278.01.391.391,0,0,1,.192.217c.009.019.018.037.027.052l.1.163-.547.314-.4-.723Zm-.906-9.841c-.053.022-.108.044-.153.068l-.15.08-.518-.8.975-.544.068.215a1.5,1.5,0,0,0,.061.16.969.969,0,0,1,.1.5c-.028.175-.211.25-.387.322m2.416,18.462-.359-.816.819.051Zm.687-2.119-.113.112a5.067,5.067,0,0,1-1.262,1.016.284.284,0,0,1-.129.03,1.307,1.307,0,0,1-.65-.361c-.1-.08-.2-.159-.294-.218l-.224-.143,2.059-1.534.11.148c.079.107.167.221.248.325.311.4.384.493.255.625m2.209,3.311-.236-.425c-.039-.071-.083-.142-.128-.212a2.193,2.193,0,0,1-.286-.585.766.766,0,0,1,.1-.5,1.629,1.629,0,0,0,.068-.16l.116-.353.647.945ZM180.093,27.4a9.413,9.413,0,0,1-3.916,4.522,10.861,10.861,0,0,1-5.287,1.332,8.467,8.467,0,0,1-3.006-.567,7.649,7.649,0,0,1-2.294-1.252,10.7,10.7,0,0,1-2.347-2.663,28.97,28.97,0,0,1-1.608-4.14,14.622,14.622,0,0,1-.554-2.848q-.1-.765-.158-1.081a19.652,19.652,0,0,1-.185-3.243,27.085,27.085,0,0,1,.633-6.315,14.384,14.384,0,0,1,2.136-4.786c.08-.109.171-.207.256-.312l-.1,0c-.237,0-.473.008-.712.017l-.185.08-.4,1.074.052-.924-.125.054.144-.381.009-.16-.305-1.326.284.061c.03.007.068.013.107.02.17.028.332.055.326.23,0,.3-.021.605-.039.909l.047,0,.791-.342.216.549A8.526,8.526,0,0,1,166.17,4a7.683,7.683,0,0,1,4.061-1.068h0c.074,0,.147,0,.221,0l-.667-.532.149-.146c.073-.071.144-.145.216-.219a3.892,3.892,0,0,1,.66-.586c.161-.105.334.028.573.216.066.051.131.1.189.141l.214.143-1.29.983a10.506,10.506,0,0,1,4.066.767V3.543l.77.027-.03.2-.034.243A10.515,10.515,0,0,1,177.153,5.2a11.484,11.484,0,0,1,3.731,6.592,10.579,10.579,0,0,0,.264,1.081l.132.5q.29,3.613.29,5.722a19.92,19.92,0,0,1-1.477,8.306m3.09,1.254a.484.484,0,0,0-.037.042l-.373.491.118-1.635.3.543a.339.339,0,0,0,.031.05.451.451,0,0,1,.092.261.4.4,0,0,1-.132.248m-.606-22.479.52-.734.246.864Zm3.6,5.331a1.819,1.819,0,0,0,.114-.156l.115-.179.161.14c.04.034.091.071.141.109.177.13.33.243.281.411a2.5,2.5,0,0,1-.272.562c-.038.063-.074.124-.11.187l-.147.27-.168-.257a1.717,1.717,0,0,0-.107-.143.824.824,0,0,1-.234-.471.776.776,0,0,1,.226-.473m-.089,16.668-.714-.478.8-.314Zm.38-3.951c-.106.1-.212.19-.314.288l-.144.139-.126-.156a2.68,2.68,0,0,0-.191-.2c-.2-.2-.4-.4-.345-.612a4.514,4.514,0,0,1,.465-1.04c.1-.191.22-.409.351-.668l.14-.279.176.258c.163.239.322.449.455.623a1.817,1.817,0,0,1,.373.608l.082-.5.812.493-.934.26.011-.073a4.553,4.553,0,0,1-.811.864" fill="#070203"/>
    <path id="パス_71936" data-name="パス 71936" d="M101.895,31.276A4.435,4.435,0,0,1,100.728,31c-.16-.054-.321-.109-.482-.153l-.558-.157,2.052-.728c0-.027.005-.055.007-.082l-.242-1.135.357.038c.158.014.308.028.308.2-.01.283-.027.561-.05.846l.481-.171a13.813,13.813,0,0,0,.408-3.525,9.877,9.877,0,0,0-2.03-6.6c-.106-.138-.223-.265-.34-.392l-.484.4a.747.747,0,0,1,.142.088.6.6,0,0,0,.063.044l.3.171-.831.413-.638-.366.2-.1-.08-.035.336-.276.348-.952a6.123,6.123,0,0,0-3.817-1.377,5.733,5.733,0,0,0-2.228.435,7.152,7.152,0,0,0-2.07,1.384,7.611,7.611,0,0,0-1.4,2,18.118,18.118,0,0,0-.923,2.874c-.036.152-.05.308-.079.461h.3l.039-.078.125.079h.212l-.077.21-.011.032L89.8,25.806l-.481-.1c-.009.222-.032.443-.026.665s.011.463.017.695l.038.043-.037-.008c.005.229,0,.46.016.688L89.4,27.7l.121-.225.009.067.057-.069.183.3c.084.133.171.27.035.38-.053.043-.113.079-.171.118l.071.5-.271-.253a11.723,11.723,0,0,0,1.019,3.385,7.148,7.148,0,0,0,1.34,1.9l.089-.184.877.543-.232.3a7.05,7.05,0,0,0,.749.521,7.541,7.541,0,0,0,3.4.606,5,5,0,0,0,2.294-.715,5.762,5.762,0,0,0,1.793-1.5,8.478,8.478,0,0,0,1.305-2.1c-.057,0-.116,0-.174,0m-.675-9.393c.078-.086.165-.183.26-.3l.194-.239.119.284c.058.14.117.26.169.365a1.214,1.214,0,0,1,.192.638c-.03.275-.509.47-.75.47h-.014a.626.626,0,0,1-.4-.28.521.521,0,0,1-.131-.4,1.386,1.386,0,0,1,.361-.533m-8.106,4.624c-.04.038-.079.076-.113.115l-.193.223-.116-.272c-.019-.045-.045-.091-.071-.139a.7.7,0,0,1-.131-.466.849.849,0,0,1,.277-.414c.039-.039.079-.079.114-.12l.195-.234.116.282c.019.047.045.095.07.143a.757.757,0,0,1,.129.476.788.788,0,0,1-.277.406m1.77,8.877-.7-.61.171-.137a.573.573,0,0,0,.057-.054c.074-.072.179-.176.3-.162A.414.414,0,0,1,95,34.6a.613.613,0,0,0,.055.058l.1.087Zm2.767-.841-.122.065a.472.472,0,0,0-.054.017.734.734,0,0,1-.114.026l.233.307-.5.4-.116-.151a.558.558,0,0,0-.047-.053A.306.306,0,0,1,97,34.609a.489.489,0,0,0,.058-.039l.033-.027a.652.652,0,0,1-.081-.15c-.008-.019-.016-.039-.025-.057l-.105-.211.9-.2Zm.767-7.331a27.912,27.912,0,0,1-.264,3.876,4.467,4.467,0,0,1-.844,2.439,1.807,1.807,0,0,1-1.292.567,1.46,1.46,0,0,1-.87-.264L94.3,32.749q-.344-.581-.343-4.588,0-.685-.079-2.531h0q.025-3.48.133-4.14a4.215,4.215,0,0,1,.87-2.268,1.86,1.86,0,0,1,1.318-.554,1.631,1.631,0,0,1,1.424.791,7.888,7.888,0,0,1,.765,4.087v1.9l.016,1.116.639.4-.01-.147.288.29.063-.011.03.1.052.054c.26.26.519.521.767.792.118.136.028.227-.152.412l-.24.247-.657-1.122L98.41,26.7Z" fill="#070203"/>
    <path id="パス_71937" data-name="パス 71937" d="M89.414,24.681c-.024.16-.057.318-.073.479l.243-.481Z" fill="#070203"/>
  </g>
</svg>
