<svg xmlns="http://www.w3.org/2000/svg" xmlns:xlink="http://www.w3.org/1999/xlink" width="385.07" height="387.195" viewBox="0 0 385.07 387.195">
  <defs>
    <filter id="パス_35" x="4.987" y="294.905" width="82.689" height="89.052" filterUnits="userSpaceOnUse">
      <feOffset dy="3" input="SourceAlpha"/>
      <feGaussianBlur stdDeviation="13" result="blur"/>
      <feFlood flood-opacity="0.149"/>
      <feComposite operator="in" in2="blur"/>
      <feComposite in="SourceGraphic"/>
    </filter>
    <filter id="パス_36" x="24.044" y="299.895" width="83.273" height="84.284" filterUnits="userSpaceOnUse">
      <feOffset dy="3" input="SourceAlpha"/>
      <feGaussianBlur stdDeviation="13" result="blur-2"/>
      <feFlood flood-opacity="0.149"/>
      <feComposite operator="in" in2="blur-2"/>
      <feComposite in="SourceGraphic"/>
    </filter>
    <filter id="パス_37" x="18.929" y="294.526" width="85.342" height="89.81" filterUnits="userSpaceOnUse">
      <feOffset dy="3" input="SourceAlpha"/>
      <feGaussianBlur stdDeviation="13" result="blur-3"/>
      <feFlood flood-opacity="0.149"/>
      <feComposite operator="in" in2="blur-3"/>
      <feComposite in="SourceGraphic"/>
    </filter>
    <filter id="パス_38" x="16.119" y="294.683" width="83.274" height="84.285" filterUnits="userSpaceOnUse">
      <feOffset dy="3" input="SourceAlpha"/>
      <feGaussianBlur stdDeviation="13" result="blur-4"/>
      <feFlood flood-opacity="0.149"/>
      <feComposite operator="in" in2="blur-4"/>
      <feComposite in="SourceGraphic"/>
    </filter>
    <filter id="パス_39" x="39.992" y="294.684" width="86.81" height="89.273" filterUnits="userSpaceOnUse">
      <feOffset dy="3" input="SourceAlpha"/>
      <feGaussianBlur stdDeviation="13" result="blur-5"/>
      <feFlood flood-opacity="0.149"/>
      <feComposite operator="in" in2="blur-5"/>
      <feComposite in="SourceGraphic"/>
    </filter>
    <filter id="パス_40" x="51.187" y="294.415" width="88.8" height="89.81" filterUnits="userSpaceOnUse">
      <feOffset dy="3" input="SourceAlpha"/>
      <feGaussianBlur stdDeviation="13" result="blur-6"/>
      <feFlood flood-opacity="0.149"/>
      <feComposite operator="in" in2="blur-6"/>
      <feComposite in="SourceGraphic"/>
    </filter>
    <filter id="パス_41" x="63.944" y="294.684" width="92.715" height="89.274" filterUnits="userSpaceOnUse">
      <feOffset dy="3" input="SourceAlpha"/>
      <feGaussianBlur stdDeviation="13" result="blur-7"/>
      <feFlood flood-opacity="0.149"/>
      <feComposite operator="in" in2="blur-7"/>
      <feComposite in="SourceGraphic"/>
    </filter>
    <filter id="パス_42" x="81.848" y="294.684" width="86.227" height="89.274" filterUnits="userSpaceOnUse">
      <feOffset dy="3" input="SourceAlpha"/>
      <feGaussianBlur stdDeviation="13" result="blur-8"/>
      <feFlood flood-opacity="0.149"/>
      <feComposite operator="in" in2="blur-8"/>
      <feComposite in="SourceGraphic"/>
    </filter>
    <filter id="パス_43" x="93.691" y="294.684" width="87.536" height="89.274" filterUnits="userSpaceOnUse">
      <feOffset dy="3" input="SourceAlpha"/>
      <feGaussianBlur stdDeviation="13" result="blur-9"/>
      <feFlood flood-opacity="0.149"/>
      <feComposite operator="in" in2="blur-9"/>
      <feComposite in="SourceGraphic"/>
    </filter>
    <filter id="パス_44" x="106.385" y="294.684" width="86.227" height="89.274" filterUnits="userSpaceOnUse">
      <feOffset dy="3" input="SourceAlpha"/>
      <feGaussianBlur stdDeviation="13" result="blur-10"/>
      <feFlood flood-opacity="0.149"/>
      <feComposite operator="in" in2="blur-10"/>
      <feComposite in="SourceGraphic"/>
    </filter>
    <filter id="パス_45" x="118.226" y="294.683" width="87.647" height="89.275" filterUnits="userSpaceOnUse">
      <feOffset dy="3" input="SourceAlpha"/>
      <feGaussianBlur stdDeviation="13" result="blur-11"/>
      <feFlood flood-opacity="0.149"/>
      <feComposite operator="in" in2="blur-11"/>
      <feComposite in="SourceGraphic"/>
    </filter>
    <filter id="パス_46" x="137.599" y="294.683" width="86.084" height="89.495" filterUnits="userSpaceOnUse">
      <feOffset dy="3" input="SourceAlpha"/>
      <feGaussianBlur stdDeviation="13" result="blur-12"/>
      <feFlood flood-opacity="0.149"/>
      <feComposite operator="in" in2="blur-12"/>
      <feComposite in="SourceGraphic"/>
    </filter>
    <filter id="パス_47" x="148.194" y="297.795" width="86.084" height="89.4" filterUnits="userSpaceOnUse">
      <feOffset dy="3" input="SourceAlpha"/>
      <feGaussianBlur stdDeviation="13" result="blur-13"/>
      <feFlood flood-opacity="0.149"/>
      <feComposite operator="in" in2="blur-13"/>
      <feComposite in="SourceGraphic"/>
    </filter>
    <filter id="パス_48" x="165.721" y="294.684" width="85.705" height="89.274" filterUnits="userSpaceOnUse">
      <feOffset dy="3" input="SourceAlpha"/>
      <feGaussianBlur stdDeviation="13" result="blur-14"/>
      <feFlood flood-opacity="0.149"/>
      <feComposite operator="in" in2="blur-14"/>
      <feComposite in="SourceGraphic"/>
    </filter>
    <filter id="長方形_11" x="176.678" y="294.683" width="79.974" height="89.274" filterUnits="userSpaceOnUse">
      <feOffset dy="3" input="SourceAlpha"/>
      <feGaussianBlur stdDeviation="13" result="blur-15"/>
      <feFlood flood-opacity="0.149"/>
      <feComposite operator="in" in2="blur-15"/>
      <feComposite in="SourceGraphic"/>
    </filter>
    <filter id="パス_49" x="183.278" y="294.684" width="85.784" height="89.274" filterUnits="userSpaceOnUse">
      <feOffset dy="3" input="SourceAlpha"/>
      <feGaussianBlur stdDeviation="13" result="blur-16"/>
      <feFlood flood-opacity="0.149"/>
      <feComposite operator="in" in2="blur-16"/>
      <feComposite in="SourceGraphic"/>
    </filter>
    <filter id="パス_50" x="193.903" y="294.684" width="86.227" height="89.274" filterUnits="userSpaceOnUse">
      <feOffset dy="3" input="SourceAlpha"/>
      <feGaussianBlur stdDeviation="13" result="blur-17"/>
      <feFlood flood-opacity="0.149"/>
      <feComposite operator="in" in2="blur-17"/>
      <feComposite in="SourceGraphic"/>
    </filter>
    <filter id="長方形_12" x="212.03" y="294.683" width="79.974" height="89.274" filterUnits="userSpaceOnUse">
      <feOffset dy="3" input="SourceAlpha"/>
      <feGaussianBlur stdDeviation="13" result="blur-18"/>
      <feFlood flood-opacity="0.149"/>
      <feComposite operator="in" in2="blur-18"/>
      <feComposite in="SourceGraphic"/>
    </filter>
    <filter id="パス_51" x="217.635" y="294.415" width="87.189" height="89.81" filterUnits="userSpaceOnUse">
      <feOffset dy="3" input="SourceAlpha"/>
      <feGaussianBlur stdDeviation="13" result="blur-19"/>
      <feFlood flood-opacity="0.149"/>
      <feComposite operator="in" in2="blur-19"/>
      <feComposite in="SourceGraphic"/>
    </filter>
    <filter id="長方形_13" x="236.724" y="294.683" width="79.974" height="89.274" filterUnits="userSpaceOnUse">
      <feOffset dy="3" input="SourceAlpha"/>
      <feGaussianBlur stdDeviation="13" result="blur-20"/>
      <feFlood flood-opacity="0.149"/>
      <feComposite operator="in" in2="blur-20"/>
      <feComposite in="SourceGraphic"/>
    </filter>
    <filter id="パス_52" x="242.756" y="297.574" width="85.168" height="86.384" filterUnits="userSpaceOnUse">
      <feOffset dy="3" input="SourceAlpha"/>
      <feGaussianBlur stdDeviation="13" result="blur-21"/>
      <feFlood flood-opacity="0.149"/>
      <feComposite operator="in" in2="blur-21"/>
      <feComposite in="SourceGraphic"/>
    </filter>
    <filter id="パス_53" x="253.319" y="297.574" width="85.705" height="86.605" filterUnits="userSpaceOnUse">
      <feOffset dy="3" input="SourceAlpha"/>
      <feGaussianBlur stdDeviation="13" result="blur-22"/>
      <feFlood flood-opacity="0.149"/>
      <feComposite operator="in" in2="blur-22"/>
      <feComposite in="SourceGraphic"/>
    </filter>
    <filter id="長方形_14" x="264.529" y="303.826" width="80.194" height="80.132" filterUnits="userSpaceOnUse">
      <feOffset dy="3" input="SourceAlpha"/>
      <feGaussianBlur stdDeviation="13" result="blur-23"/>
      <feFlood flood-opacity="0.149"/>
      <feComposite operator="in" in2="blur-23"/>
      <feComposite in="SourceGraphic"/>
    </filter>
  </defs>
  <g id="グループ_6750" data-name="グループ 6750" transform="translate(6728.27 -609.403)">
    <g id="グループ_6749" data-name="グループ 6749" transform="translate(-7282.212 353.108)">
      <g id="グループ_26" data-name="グループ 26" transform="translate(553.942 498.669)">
        <g id="グループ_23" data-name="グループ 23" transform="translate(0 0)">
          <path id="パス_30" data-name="パス 30" d="M34.96,267.076H9.737V243.4H.035v55.417h9.7V276.469H34.96v22.352h9.7V243.4h-9.7Z" transform="translate(-0.035 -242.084)" fill="#fff"/>
          <path id="パス_31" data-name="パス 31" d="M122.879,291.582a27.97,27.97,0,0,0,5.24-9.237,35.418,35.418,0,0,0,0-22.431,27.967,27.967,0,0,0-5.24-9.236,24.973,24.973,0,0,0-8.343-6.286,27.791,27.791,0,0,0-22.275,0,24.919,24.919,0,0,0-8.342,6.286,27.915,27.915,0,0,0-5.24,9.236,35.382,35.382,0,0,0,0,22.431,27.918,27.918,0,0,0,5.24,9.237,24.447,24.447,0,0,0,8.342,6.247,28.241,28.241,0,0,0,22.275,0,24.5,24.5,0,0,0,8.343-6.247m-11.836-1.654a17.268,17.268,0,0,1-15.289,0,14.971,14.971,0,0,1-5.24-4.772,18.9,18.9,0,0,1-2.987-6.3,31.493,31.493,0,0,1,0-15.522,17.566,17.566,0,0,1,2.987-6.035,15.015,15.015,0,0,1,5.24-4.774,17.269,17.269,0,0,1,15.289,0,15.018,15.018,0,0,1,5.238,4.774,17.6,17.6,0,0,1,2.989,6.035,31.555,31.555,0,0,1,0,15.522,18.946,18.946,0,0,1-2.989,6.3,14.974,14.974,0,0,1-5.238,4.772" transform="translate(-1.256 -242.063)" fill="#fff"/>
          <path id="パス_32" data-name="パス 32" d="M197.581,274.682q0,2.793-.273,5.665a12.972,12.972,0,0,1-1.552,5.168,10.286,10.286,0,0,1-3.88,3.937,16.086,16.086,0,0,1-14.669,0,10.275,10.275,0,0,1-3.881-3.937,12.973,12.973,0,0,1-1.552-5.168q-.274-2.87-.272-5.665V243.4h-9.7v33.456a30.062,30.062,0,0,0,1.629,10.325c1.087,2.638,2.627,5.613,4.619,7.4a19.7,19.7,0,0,0,7.178,4.237,33.527,33.527,0,0,0,18.628,0,19.718,19.718,0,0,0,7.179-4.237c1.991-1.784,3.531-4.759,4.618-7.4a30.04,30.04,0,0,0,1.629-10.325V243.4h-9.7Z" transform="translate(-2.606 -242.084)" fill="#fff"/>
          <path id="パス_33" data-name="パス 33" d="M324.046,274.218h27.941V266.3H324.046V251.787h30.191V243.4H314.343v55.417H354.78v-8.383H324.046Z" transform="translate(-5.032 -242.084)" fill="#fff"/>
          <path id="パス_34" data-name="パス 34" d="M282.777,283.506a13.433,13.433,0,0,0-5.821-11.947c-7.673-4.895-16.477-4.4-22.07-9.2a6.279,6.279,0,0,1-2.1-4.7,7.925,7.925,0,0,1,.829-3.445,7.381,7.381,0,0,1,2.564-2.773,7.851,7.851,0,0,1,2.669-1.11,15.146,15.146,0,0,1,3.185-.352,12.327,12.327,0,0,1,7.566,2.213q2.975,2.216,3.325,7.569h8.842a17.8,17.8,0,0,0-1.555-7.646A16.3,16.3,0,0,0,276,246.566a17.849,17.849,0,0,0-6.153-3.376,24.215,24.215,0,0,0-7.462-1.127,23.764,23.764,0,0,0-6.718.972,17.673,17.673,0,0,0-5.94,2.988,15.205,15.205,0,0,0-4.211,5.082,15.57,15.57,0,0,0-1.588,7.258,17.362,17.362,0,0,0,.529,4.27,11.824,11.824,0,0,0,1.8,3.956c2.191,3.1,5.1,4.475,8.422,5.821,5.9,2.39,13.972,2.165,17.835,6.56a6.565,6.565,0,0,1,1.816,4.515,9.474,9.474,0,0,1-.72,3.527,7.447,7.447,0,0,1-1.893,2.523,9.668,9.668,0,0,1-3.325,1.9,13.321,13.321,0,0,1-4.736.766,17.953,17.953,0,0,1-4.984-.662,11.215,11.215,0,0,1-4.066-2.093,9.664,9.664,0,0,1-2.759-3.686,18.4,18.4,0,0,1-1.362-5.433h-8.469a23.737,23.737,0,0,0,1.915,9.2,15.714,15.714,0,0,0,4.378,5.858,18.412,18.412,0,0,0,6.651,3.572,27.793,27.793,0,0,0,8.132,1.162,28.262,28.262,0,0,0,7.357-.967,16.582,16.582,0,0,0,5.956-2.962,15.965,15.965,0,0,0,4.545-5.488,14.864,14.864,0,0,0,1.827-7.195" transform="translate(-3.882 -242.063)" fill="#fff"/>
        </g>
        <g id="グループ_22" data-name="グループ 22" transform="translate(43.987 88.041)">
          <g transform="matrix(1, 0, 0, 1, -43.99, -330.42)" filter="url(#パス_35)">
            <path id="パス_35-2" data-name="パス 35" d="M2.818,325.086a2.485,2.485,0,0,1-.742.569,3.463,3.463,0,0,1-.971.316,6.335,6.335,0,0,1-1.1.094v1.421H2.716v7.8H4.689V324.233H3.221a1.737,1.737,0,0,1-.4.853" transform="translate(43.99 6.67)" fill="#fff"/>
          </g>
          <g transform="matrix(1, 0, 0, 1, -43.99, -330.42)" filter="url(#パス_36)">
            <path id="パス_36-2" data-name="パス 36" d="M30.53,331.941a2.342,2.342,0,0,0-.821-.68,2.938,2.938,0,0,0-2.384,0,2.342,2.342,0,0,0-.821.68,2.8,2.8,0,0,0-.474,1,4.805,4.805,0,0,0-.149,1.207,5,5,0,0,0,.142,1.217,2.756,2.756,0,0,0,.458.993,2.256,2.256,0,0,0,.82.68,3.052,3.052,0,0,0,2.432,0,2.261,2.261,0,0,0,.822-.68,2.768,2.768,0,0,0,.457-.993,5,5,0,0,0,.142-1.217A4.805,4.805,0,0,0,31,332.943a2.814,2.814,0,0,0-.474-1m-.868,3.039a2.519,2.519,0,0,1-.213.671,1.182,1.182,0,0,1-.379.45.967.967,0,0,1-.568.166.931.931,0,0,1-.56-.166,1.218,1.218,0,0,1-.371-.45,2.347,2.347,0,0,1-.205-.671,5.167,5.167,0,0,1-.063-.83,6.2,6.2,0,0,1,.048-.772,2.377,2.377,0,0,1,.182-.68,1.227,1.227,0,0,1,.37-.482,1.085,1.085,0,0,1,1.2,0,1.287,1.287,0,0,1,.378.482,2.381,2.381,0,0,1,.2.68,5.241,5.241,0,0,1,.055.772,4.616,4.616,0,0,1-.071.83" transform="translate(37.16 4.89)" fill="#fff"/>
          </g>
          <g transform="matrix(1, 0, 0, 1, -43.99, -330.42)" filter="url(#パス_37)">
            <path id="パス_37-2" data-name="パス 37" d="M25.075,323.718l-6.142,11.81h1.231l6.111-11.81Z" transform="translate(39 6.81)" fill="#fff"/>
          </g>
          <g transform="matrix(1, 0, 0, 1, -43.99, -330.42)" filter="url(#パス_38)">
            <path id="パス_38-2" data-name="パス 38" d="M19.79,329.285a2.783,2.783,0,0,0,.458-.994,5.025,5.025,0,0,0,.142-1.216,4.776,4.776,0,0,0-.15-1.208,2.806,2.806,0,0,0-.473-1,2.348,2.348,0,0,0-.821-.679,2.93,2.93,0,0,0-2.384,0,2.344,2.344,0,0,0-.822.679,2.806,2.806,0,0,0-.473,1,4.776,4.776,0,0,0-.15,1.208,5.025,5.025,0,0,0,.142,1.216,2.783,2.783,0,0,0,.458.994,2.252,2.252,0,0,0,.821.679,3.043,3.043,0,0,0,2.432,0,2.252,2.252,0,0,0,.821-.679m-1.105-.711a1.178,1.178,0,0,1-.379.45.968.968,0,0,1-.568.166.929.929,0,0,1-.56-.166,1.2,1.2,0,0,1-.371-.45,2.318,2.318,0,0,1-.205-.671,5.156,5.156,0,0,1-.063-.828,6.233,6.233,0,0,1,.048-.775,2.349,2.349,0,0,1,.181-.678,1.217,1.217,0,0,1,.371-.482,1.081,1.081,0,0,1,1.2,0,1.3,1.3,0,0,1,.379.482,2.377,2.377,0,0,1,.2.678,5.373,5.373,0,0,1,.055.775,4.606,4.606,0,0,1-.071.828,2.485,2.485,0,0,1-.214.671" transform="translate(40 6.75)" fill="#fff"/>
          </g>
          <g transform="matrix(1, 0, 0, 1, -43.99, -330.42)" filter="url(#パス_39)">
            <path id="パス_39-2" data-name="パス 39" d="M55.636,325.148a3.1,3.1,0,0,0-1.168-.868,4.734,4.734,0,0,0-1.958-.348H47.536v11.273H49.51V330.88h3a4.828,4.828,0,0,0,1.958-.339,3.012,3.012,0,0,0,1.168-.861,2.948,2.948,0,0,0,.561-1.128,4.725,4.725,0,0,0,.149-1.13,4.826,4.826,0,0,0-.149-1.137,2.958,2.958,0,0,0-.561-1.137M54.191,328.3a1.582,1.582,0,0,1-.474.568,1.949,1.949,0,0,1-.639.309,2.6,2.6,0,0,1-.679.094H49.51v-3.726h2.921a3.326,3.326,0,0,1,.742.079,1.519,1.519,0,0,1,.616.292,1.463,1.463,0,0,1,.426.577,2.3,2.3,0,0,1,.158.915,1.96,1.96,0,0,1-.181.893" transform="translate(31.46 6.75)" fill="#fff"/>
          </g>
          <g transform="matrix(1, 0, 0, 1, -43.99, -330.42)" filter="url(#パス_40)">
            <path id="パス_40-2" data-name="パス 40" d="M72.1,325.321a5.082,5.082,0,0,0-1.7-1.28,5.658,5.658,0,0,0-4.532,0,5.075,5.075,0,0,0-1.7,1.28,5.676,5.676,0,0,0-1.066,1.879,7.2,7.2,0,0,0,0,4.563,5.687,5.687,0,0,0,1.066,1.879,4.976,4.976,0,0,0,1.7,1.271,5.749,5.749,0,0,0,4.532,0,4.983,4.983,0,0,0,1.7-1.271,5.7,5.7,0,0,0,1.066-1.879,7.2,7.2,0,0,0,0-4.563,5.689,5.689,0,0,0-1.066-1.879m-.734,5.731a4.378,4.378,0,0,1-.608,1.381,3.058,3.058,0,0,1-1.066.972,3.512,3.512,0,0,1-3.11,0,3.045,3.045,0,0,1-1.066-.972,4.377,4.377,0,0,1-.608-1.381,6.417,6.417,0,0,1,0-3.158,4.381,4.381,0,0,1,.608-1.381,3.043,3.043,0,0,1,1.066-.971,3.507,3.507,0,0,1,3.11,0,3.055,3.055,0,0,1,1.066.971,4.382,4.382,0,0,1,.608,1.381,6.417,6.417,0,0,1,0,3.158" transform="translate(27.45 6.85)" fill="#fff"/>
          </g>
          <g transform="matrix(1, 0, 0, 1, -43.99, -330.42)" filter="url(#パス_41)">
            <path id="パス_41-2" data-name="パス 41" d="M90.672,332.554h-.032l-2.21-8.622H86.409l-2.273,8.622H84.1l-2.037-8.622H80.063l2.968,11.274h2.037l2.3-8.621H87.4l2.258,8.621h2.005l3.111-11.274H92.773Z" transform="translate(22.88 6.75)" fill="#fff"/>
          </g>
          <g transform="matrix(1, 0, 0, 1, -43.99, -330.42)" filter="url(#パス_42)">
            <path id="パス_42-2" data-name="パス 42" d="M106.35,330.2h5.684V328.59H106.35v-2.952h6.142v-1.706h-8.116v11.274H112.6V333.5H106.35Z" transform="translate(16.47 6.75)" fill="#fff"/>
          </g>
          <g transform="matrix(1, 0, 0, 1, -43.99, -330.42)" filter="url(#パス_43)">
            <path id="パス_43-2" data-name="パス 43" d="M129.379,332.238a3.183,3.183,0,0,0-.166-1.105,2.194,2.194,0,0,0-.418-.718,1.619,1.619,0,0,0-.545-.4,2.008,2.008,0,0,0-.544-.158v-.032q.141-.048.45-.189a2.154,2.154,0,0,0,.623-.466,2.9,2.9,0,0,0,.553-.852,3.269,3.269,0,0,0,.237-1.334,2.806,2.806,0,0,0-.932-2.242,4.18,4.18,0,0,0-2.8-.806h-5.384v11.274h1.974v-4.642h2.905a3.034,3.034,0,0,1,1.113.174,1.469,1.469,0,0,1,.687.544,2.327,2.327,0,0,1,.347.932,8.1,8.1,0,0,1,.095,1.334q0,.41.04.852a1.827,1.827,0,0,0,.261.806h2.115a2.382,2.382,0,0,1-.465-1.161,9.994,9.994,0,0,1-.15-1.809m-2.273-3.623a2.056,2.056,0,0,1-1.437.45h-3.237v-3.521h3.205a4.131,4.131,0,0,1,.734.063,1.594,1.594,0,0,1,.631.252,1.273,1.273,0,0,1,.434.529,2.086,2.086,0,0,1,.158.876,1.744,1.744,0,0,1-.489,1.351" transform="translate(12.23 6.75)" fill="#fff"/>
          </g>
          <g transform="matrix(1, 0, 0, 1, -43.99, -330.42)" filter="url(#パス_44)">
            <path id="パス_44-2" data-name="パス 44" d="M139.67,330.2h5.684V328.59H139.67v-2.952h6.142v-1.706H137.7v11.274h8.226V333.5H139.67Z" transform="translate(7.69 6.75)" fill="#fff"/>
          </g>
          <g transform="matrix(1, 0, 0, 1, -43.99, -330.42)" filter="url(#パス_45)">
            <path id="パス_45-2" data-name="パス 45" d="M162.24,325.583a4.187,4.187,0,0,0-1.548-1.208,5.248,5.248,0,0,0-2.242-.443h-4.674v11.275h4.674a5.259,5.259,0,0,0,2.242-.442,4.165,4.165,0,0,0,1.548-1.208,5.158,5.158,0,0,0,.892-1.792,8.383,8.383,0,0,0,0-4.389,5.151,5.151,0,0,0-.892-1.792m-.94,5.574a3.091,3.091,0,0,1-.568,1.278,2.763,2.763,0,0,1-1.152.853,4.935,4.935,0,0,1-1.887.308h-1.943v-8.052h1.943a4.938,4.938,0,0,1,1.887.307,2.762,2.762,0,0,1,1.152.853,3.09,3.09,0,0,1,.568,1.279,8.456,8.456,0,0,1,0,3.174" transform="translate(3.45 6.75)" fill="#fff"/>
          </g>
          <g transform="matrix(1, 0, 0, 1, -43.99, -330.42)" filter="url(#パス_46)">
            <path id="パス_46-2" data-name="パス 46" d="M187.222,328.093a3.31,3.31,0,0,0-1.192-.931,3.894,3.894,0,0,0-1.682-.34,2.971,2.971,0,0,0-.7.086,3.063,3.063,0,0,0-.679.253,2.854,2.854,0,0,0-.592.4,2.447,2.447,0,0,0-.457.537h-.032v-4.169h-1.8v11.274h1.705v-1.121h.032a2,2,0,0,0,.513.664,2.729,2.729,0,0,0,.687.41,3.152,3.152,0,0,0,.8.214,6.453,6.453,0,0,0,.83.054,3.161,3.161,0,0,0,2.66-1.3,4.161,4.161,0,0,0,.647-1.366,5.977,5.977,0,0,0,.213-1.595,5.862,5.862,0,0,0-.236-1.689,4.06,4.06,0,0,0-.711-1.382m-.971,4.09a2.649,2.649,0,0,1-.394.916,2.209,2.209,0,0,1-.7.655,2.009,2.009,0,0,1-1.042.252,2.059,2.059,0,0,1-.971-.22,2.259,2.259,0,0,1-.718-.6,2.584,2.584,0,0,1-.451-.907,4.183,4.183,0,0,1-.15-1.146,3.476,3.476,0,0,1,.577-2.1,1.983,1.983,0,0,1,1.713-.79,1.928,1.928,0,0,1,.979.245,2.207,2.207,0,0,1,.711.647,2.941,2.941,0,0,1,.426.924,4.082,4.082,0,0,1,.142,1.073,4.663,4.663,0,0,1-.119,1.051" transform="translate(-3.49 6.75)" fill="#fff"/>
          </g>
          <g transform="matrix(1, 0, 0, 1, -43.99, -330.42)" filter="url(#パス_47)">
            <path id="パス_47-2" data-name="パス 47" d="M198.609,334.251h-.032l-2.132-6.094h-1.973l3.1,8.131-.205.632a3.509,3.509,0,0,1-.174.474,1.435,1.435,0,0,1-.229.356.862.862,0,0,1-.339.228,1.463,1.463,0,0,1-.521.079,2.3,2.3,0,0,1-.426-.039q-.206-.04-.426-.071v1.516a8.151,8.151,0,0,0,1.247.1,2.616,2.616,0,0,0,1.169-.229,2.266,2.266,0,0,0,.765-.616,3.8,3.8,0,0,0,.521-.892q.213-.506.434-1.058l3.173-8.6h-1.879Z" transform="translate(-7.28 5.64)" fill="#fff"/>
          </g>
          <g transform="matrix(1, 0, 0, 1, -43.99, -330.42)" filter="url(#パス_48)">
            <path id="パス_48-2" data-name="パス 48" d="M220.246,323.933h-1.974v11.274h7.7V333.5h-5.731Z" transform="translate(-13.55 6.75)" fill="#fff"/>
          </g>
          <g transform="matrix(1, 0, 0, 1, -43.99, -330.42)" filter="url(#長方形_11)">
            <rect id="長方形_11-2" data-name="長方形 11" width="1.974" height="11.274" transform="translate(215.68 330.68)" fill="#fff"/>
          </g>
          <g transform="matrix(1, 0, 0, 1, -43.99, -330.42)" filter="url(#パス_49)">
            <path id="パス_49-2" data-name="パス 49" d="M242.115,335.206h1.974V330.2h5.1v-1.61h-5.1v-2.952h5.81v-1.706h-7.784Z" transform="translate(-19.84 6.75)" fill="#fff"/>
          </g>
          <g transform="matrix(1, 0, 0, 1, -43.99, -330.42)" filter="url(#パス_50)">
            <path id="パス_50-2" data-name="パス 50" d="M258.519,330.2H264.2V328.59h-5.684v-2.952h6.141v-1.706h-8.116v11.274h8.226V333.5h-6.252Z" transform="translate(-23.64 6.75)" fill="#fff"/>
          </g>
          <g transform="matrix(1, 0, 0, 1, -43.99, -330.42)" filter="url(#長方形_12)">
            <rect id="長方形_12-2" data-name="長方形 12" width="1.974" height="11.274" transform="translate(251.03 330.68)" fill="#fff"/>
          </g>
          <g transform="matrix(1, 0, 0, 1, -43.99, -330.42)" filter="url(#パス_51)">
            <path id="パス_51-2" data-name="パス 51" d="M297.417,330.129a3.025,3.025,0,0,0-.688-.686,3.258,3.258,0,0,0-.962-.474c-.147-.043-.393-.108-.735-.2l-1.049-.276q-.537-.142-.971-.26l-.5-.135a2.4,2.4,0,0,1-.971-.513,1.208,1.208,0,0,1-.371-.939,1.222,1.222,0,0,1,.2-.711,1.457,1.457,0,0,1,.5-.45,2.245,2.245,0,0,1,.663-.236,3.708,3.708,0,0,1,.711-.071,2.945,2.945,0,0,1,1.689.45,1.9,1.9,0,0,1,.743,1.54h1.974a3.252,3.252,0,0,0-1.288-2.684,4.082,4.082,0,0,0-1.373-.686,5.876,5.876,0,0,0-1.666-.23,5.781,5.781,0,0,0-1.5.2,4.113,4.113,0,0,0-1.326.607,3.185,3.185,0,0,0-.94,1.034,2.939,2.939,0,0,0-.354,1.476,3.239,3.239,0,0,0,.118.869,2.392,2.392,0,0,0,.4.8,2.847,2.847,0,0,0,.766.687,4.2,4.2,0,0,0,1.208.5q1.169.316,1.965.513a13.57,13.57,0,0,1,1.4.418,1.676,1.676,0,0,1,.638.434,1.343,1.343,0,0,1,.292.954,1.626,1.626,0,0,1-.125.624,1.39,1.39,0,0,1-.411.545,2.226,2.226,0,0,1-.742.387,3.574,3.574,0,0,1-1.106.15,4.351,4.351,0,0,1-1.112-.135,2.6,2.6,0,0,1-.908-.426,1.994,1.994,0,0,1-.616-.75,2.513,2.513,0,0,1-.221-1.105h-1.974a4.179,4.179,0,0,0,.4,1.808,3.538,3.538,0,0,0,1.01,1.255,4.231,4.231,0,0,0,1.485.727,6.749,6.749,0,0,0,1.814.236,6.91,6.91,0,0,0,1.644-.2,4.439,4.439,0,0,0,1.437-.624,3.28,3.28,0,0,0,1.017-1.1,3.172,3.172,0,0,0,.387-1.618,3.047,3.047,0,0,0-.134-.885,2.843,2.843,0,0,0-.41-.828" transform="translate(-32.14 6.85)" fill="#fff"/>
          </g>
          <g transform="matrix(1, 0, 0, 1, -43.99, -330.42)" filter="url(#長方形_13)">
            <rect id="長方形_13-2" data-name="長方形 13" width="1.974" height="11.274" transform="translate(275.72 330.68)" fill="#fff"/>
          </g>
          <g transform="matrix(1, 0, 0, 1, -43.99, -330.42)" filter="url(#パス_52)">
            <path id="パス_52-2" data-name="パス 52" d="M327.165,327.857a2.858,2.858,0,0,0-1.469.387,3.008,3.008,0,0,0-1.073,1.065l-.032-.031v-1.2h-1.706v8.163h1.8v-4.815a2.449,2.449,0,0,1,.142-.837,2.158,2.158,0,0,1,.394-.687,1.8,1.8,0,0,1,.616-.457,1.953,1.953,0,0,1,.82-.166,1.49,1.49,0,0,1,1.184.434,2.219,2.219,0,0,1,.411,1.4v5.131h1.8v-5.605a2.663,2.663,0,0,0-.773-2.084,3.056,3.056,0,0,0-2.116-.694" transform="translate(-41.13 5.72)" fill="#fff"/>
          </g>
          <g transform="matrix(1, 0, 0, 1, -43.99, -330.42)" filter="url(#パス_53)">
            <path id="パス_53-2" data-name="パス 53" d="M339.8,329.839a1.757,1.757,0,0,1,.727-.442,2.582,2.582,0,0,1,.742-.119,1.986,1.986,0,0,1,1.256.387,1.69,1.69,0,0,1,.607,1.144h1.8a3.136,3.136,0,0,0-.379-1.31,2.918,2.918,0,0,0-.813-.916,3.579,3.579,0,0,0-1.137-.545,4.966,4.966,0,0,0-1.35-.181,4.224,4.224,0,0,0-1.76.34,3.521,3.521,0,0,0-1.255.931,3.946,3.946,0,0,0-.758,1.4,5.712,5.712,0,0,0-.253,1.721,5.236,5.236,0,0,0,.26,1.674,3.771,3.771,0,0,0,.767,1.334,3.586,3.586,0,0,0,1.239.884,4.174,4.174,0,0,0,1.7.324,3.688,3.688,0,0,0,2.534-.845,3.955,3.955,0,0,0,1.208-2.44h-1.8a2.277,2.277,0,0,1-.639,1.375,1.812,1.812,0,0,1-1.3.489,1.9,1.9,0,0,1-.995-.245,2.047,2.047,0,0,1-.671-.639,2.751,2.751,0,0,1-.379-.9,4.421,4.421,0,0,1-.119-1.01,4.294,4.294,0,0,1,.221-1.508,2.488,2.488,0,0,1,.553-.9" transform="translate(-44.91 5.72)" fill="#fff"/>
          </g>
          <g transform="matrix(1, 0, 0, 1, -43.99, -330.42)" filter="url(#長方形_14)">
            <rect id="長方形_14-2" data-name="長方形 14" width="2.194" height="2.132" transform="translate(303.53 339.83)" fill="#fff"/>
          </g>
        </g>
      </g>
      <g id="グループ_30" data-name="グループ 30" transform="translate(581.468 256.295)">
        <path id="パス_28" data-name="パス 28" d="M150.925,21.865Q131.846,0,103.2,0A62.141,62.141,0,0,0,72.968,7.691,54.141,54.141,0,0,0,50.8,30.685a70.21,70.21,0,0,0-8.067,33.248A89.849,89.849,0,0,0,45.6,86.4a47.057,47.057,0,0,0,6.875,15A56.674,56.674,0,0,0,65.851,114.3q3.476,2.567,17.678,7.691,1.809.6,8.913.6a59.466,59.466,0,0,0,21-3.618q4.53-1.659,4.533-7.39a7.476,7.476,0,0,0-1.515-5.051,4.4,4.4,0,0,0-3.329-1.732l-2.271.452a27.712,27.712,0,0,1-7.87,1.207,26.822,26.822,0,0,1-11.808-2.866q-2.425-1.356-5.145-5.881A39.87,39.87,0,0,1,80.59,82.48a186.986,186.986,0,0,1-1.817-26.841Q78.772,32.42,88,19.9q6.8-9.193,16.484-9.2,10.432,0,17.543,10.706,9.371,14.327,9.375,52.775a162.054,162.054,0,0,1-.907,18.548q-1.21,10.4-1.36,13.119-.3,8.142-3.551,22.24a83.7,83.7,0,0,1-10.955,26.238,77.687,77.687,0,0,1-19.038,20.656,110.729,110.729,0,0,1-27.047,14.552q-8.009,3.021-8.766,4.071a5.5,5.5,0,0,0-1.51,4.072,8.773,8.773,0,0,0,2.412,5.577q3.767.3,5.73.3,10.856,0,27.9-6.032a104.96,104.96,0,0,0,32.419-18.925,106.87,106.87,0,0,0,24.427-28.65q9.047-15.752,11.008-21.485Q170,105.4,170,85.044q0-41.314-19.075-63.179" transform="translate(-42.735)" fill="#fff"/>
        <path id="パス_29" data-name="パス 29" d="M190.762,101.405A56.682,56.682,0,0,0,204.135,114.3q3.474,2.566,17.678,7.689,1.809.6,8.913.6a59.446,59.446,0,0,0,21-3.619q4.53-1.657,4.532-7.389a7.482,7.482,0,0,0-1.514-5.051,4.4,4.4,0,0,0-3.329-1.733l-2.271.453a27.761,27.761,0,0,1-7.871,1.206,26.835,26.835,0,0,1-11.808-2.865q-2.425-1.357-5.145-5.881a39.9,39.9,0,0,1-5.45-15.229,187.173,187.173,0,0,1-1.816-26.842q0-23.219,9.224-35.736,6.8-9.195,16.482-9.2,10.432,0,17.544,10.705,9.371,14.327,9.374,52.775a161.778,161.778,0,0,1-.908,18.549q-1.206,10.4-1.359,13.119-.3,8.142-3.549,22.24a83.747,83.747,0,0,1-10.956,26.238,77.686,77.686,0,0,1-19.038,20.656,110.743,110.743,0,0,1-27.047,14.551q-8.008,3.021-8.765,4.072a5.493,5.493,0,0,0-1.511,4.071,8.775,8.775,0,0,0,2.413,5.579q3.767.3,5.73.3,10.856,0,27.9-6.03a104.975,104.975,0,0,0,32.419-18.926,106.827,106.827,0,0,0,24.427-28.649q9.047-15.752,11.01-21.486,7.834-23.072,7.84-43.427,0-41.315-19.076-63.18T241.483,0A62.149,62.149,0,0,0,211.25,7.691a54.151,54.151,0,0,0-22.166,23,70.207,70.207,0,0,0-8.067,33.248,89.855,89.855,0,0,0,2.87,22.468,47.076,47.076,0,0,0,6.875,15" transform="translate(-30.085)" fill="#fff"/>
        <path id="パス_54" data-name="パス 54" d="M371.779,46.106a14.787,14.787,0,0,0-3.21-4.8,15.675,15.675,0,0,0-4.93-3.3,16.61,16.61,0,0,0-12.532,0,15.642,15.642,0,0,0-4.928,3.3,14.787,14.787,0,0,0-3.211,4.8,14.968,14.968,0,0,0-1.139,5.782,15.491,15.491,0,0,0,1.114,5.841,14.808,14.808,0,0,0,3.143,4.824,15.083,15.083,0,0,0,4.891,3.3,17.264,17.264,0,0,0,12.794,0,15.072,15.072,0,0,0,4.89-3.3,14.8,14.8,0,0,0,3.143-4.825,15.482,15.482,0,0,0,1.113-5.841,14.946,14.946,0,0,0-1.138-5.782m-7.622,5.782a6.79,6.79,0,0,1-.538,2.695,6.874,6.874,0,0,1-1.459,2.18,6.979,6.979,0,0,1-2.16,1.46,6.794,6.794,0,0,1-5.277,0,6.9,6.9,0,0,1-3.682-3.683,6.682,6.682,0,0,1-.538-2.651,6.494,6.494,0,0,1,.535-2.646,6.6,6.6,0,0,1,1.475-2.111,7.027,7.027,0,0,1,2.2-1.421,6.909,6.909,0,0,1,2.659-.521,6.76,6.76,0,0,1,6.249,4.053,6.493,6.493,0,0,1,.535,2.646" transform="translate(-15.374 3.365)" fill="#fff"/>
        <path id="パス_55" data-name="パス 55" d="M322.773,33.317a16.3,16.3,0,0,0,6.35-1.2,14.757,14.757,0,0,0,8.08-8.128,15.347,15.347,0,0,0,1.114-5.82,14.875,14.875,0,0,0-1.16-5.8,15.234,15.234,0,0,0-3.208-4.821,15.066,15.066,0,0,0-4.914-3.278,16.878,16.878,0,0,0-12.526,0,15.324,15.324,0,0,0-4.932,3.276,14.725,14.725,0,0,0-3.211,4.828,15.086,15.086,0,0,0-1.138,5.8,15.332,15.332,0,0,0,1.115,5.821,15.153,15.153,0,0,0,3.14,4.822,14.659,14.659,0,0,0,4.9,3.305,16.416,16.416,0,0,0,6.393,1.2m-6.914-15.153a6.682,6.682,0,0,1,.536-2.67,6.523,6.523,0,0,1,1.472-2.129,6.755,6.755,0,0,1,2.195-1.4,7.334,7.334,0,0,1,2.711-.5,7.076,7.076,0,0,1,2.643.5,6.562,6.562,0,0,1,2.15,1.394,6.673,6.673,0,0,1,1.992,4.8,6.82,6.82,0,0,1-.538,2.7,6.856,6.856,0,0,1-12.623-.043,6.724,6.724,0,0,1-.538-2.653" transform="translate(-18.539 0.28)" fill="#fff"/>
        <path id="パス_56" data-name="パス 56" d="M368.416,1.418H358.4L312.2,70.536h9.977Z" transform="translate(-18.084 0.13)" fill="#fff"/>
      </g>
    </g>
  </g>
</svg>
