<svg xmlns="http://www.w3.org/2000/svg" width="599.463" height="341.297" viewBox="0 0 599.463 341.297">
  <g id="グループ_6418" data-name="グループ 6418" transform="translate(-574.861 -256.295)">
    <g id="グループ_30" data-name="グループ 30" transform="translate(574.861 256.295)">
      <path id="パス_28" data-name="パス 28" d="M224.127,36.658Q192.14,0,144.111,0A104.187,104.187,0,0,0,93.424,12.894Q69.781,25.785,56.26,51.447A117.716,117.716,0,0,0,42.735,107.19a150.643,150.643,0,0,0,4.811,37.67,78.9,78.9,0,0,0,11.527,25.157q7.724,10.994,22.419,21.614,5.828,4.3,29.639,12.894,3.033,1.013,14.944,1.01a99.7,99.7,0,0,0,35.213-6.066q7.6-2.781,7.6-12.391,0-5.556-2.54-8.469a7.37,7.37,0,0,0-5.581-2.9l-3.808.758a46.462,46.462,0,0,1-13.194,2.024,44.97,44.97,0,0,1-19.8-4.806q-4.065-2.273-8.627-9.86a66.846,66.846,0,0,1-9.137-25.534,313.5,313.5,0,0,1-3.047-45q0-38.929,15.465-59.918,11.405-15.413,27.637-15.42,17.491,0,29.413,17.95,15.712,24.021,15.718,88.484a271.694,271.694,0,0,1-1.521,31.1q-2.029,17.442-2.28,21.995-.511,13.651-5.953,37.288a140.329,140.329,0,0,1-18.368,43.991,130.251,130.251,0,0,1-31.919,34.633q-19,14.29-45.347,24.4-13.428,5.064-14.7,6.826a9.22,9.22,0,0,0-2.531,6.828q0,4.548,4.044,9.351,6.316.508,9.607.509,18.2,0,46.771-10.112t54.354-31.73q25.786-21.614,40.955-48.035T242.962,215.4q13.14-38.682,13.147-72.812,0-69.267-31.981-105.927" transform="translate(-42.735 0)" fill="#fff"/>
      <path id="パス_29" data-name="パス 29" d="M197.355,170.017q7.727,11,22.421,21.616,5.825,4.3,29.639,12.892,3.033,1.013,14.944,1.012a99.667,99.667,0,0,0,35.213-6.068q7.6-2.778,7.6-12.389,0-5.556-2.538-8.469a7.373,7.373,0,0,0-5.581-2.906l-3.808.759a46.544,46.544,0,0,1-13.2,2.022,44.992,44.992,0,0,1-19.8-4.8q-4.065-2.276-8.627-9.86a66.889,66.889,0,0,1-9.137-25.534,313.816,313.816,0,0,1-3.045-45q0-38.929,15.465-59.916,11.4-15.416,27.635-15.42,17.491,0,29.415,17.949,15.712,24.021,15.716,88.484a271.261,271.261,0,0,1-1.523,31.1q-2.023,17.439-2.278,21.995-.508,13.651-5.951,37.288a140.412,140.412,0,0,1-18.369,43.991,130.251,130.251,0,0,1-31.919,34.633q-19,14.288-45.347,24.4-13.426,5.064-14.695,6.828a9.209,9.209,0,0,0-2.533,6.826q0,4.551,4.046,9.353,6.316.508,9.607.507,18.2,0,46.769-10.111t54.354-31.732q25.786-21.611,40.955-48.034T381.247,215.4q13.135-38.682,13.145-72.81,0-69.27-31.983-105.929T282.395,0a104.2,104.2,0,0,0-50.689,12.894q-23.643,12.893-37.164,38.554a117.711,117.711,0,0,0-13.525,55.743,150.653,150.653,0,0,0,4.811,37.67,78.929,78.929,0,0,0,11.527,25.155" transform="translate(72.038 0)" fill="#fff"/>
      <path id="パス_54" data-name="パス 54" d="M392.045,52.417a24.793,24.793,0,0,0-5.382-8.054,26.28,26.28,0,0,0-8.266-5.528,27.847,27.847,0,0,0-21.012,0,26.223,26.223,0,0,0-8.262,5.527,24.792,24.792,0,0,0-5.384,8.054,25.1,25.1,0,0,0-1.911,9.693A25.972,25.972,0,0,0,343.7,71.9a24.823,24.823,0,0,0,5.271,8.089,25.287,25.287,0,0,0,8.2,5.536,28.944,28.944,0,0,0,21.451,0,25.27,25.27,0,0,0,8.2-5.534,24.816,24.816,0,0,0,5.27-8.09,25.958,25.958,0,0,0,1.867-9.792,25.06,25.06,0,0,0-1.909-9.693m-12.779,9.693a11.383,11.383,0,0,1-.9,4.518,11.524,11.524,0,0,1-2.447,3.654,11.7,11.7,0,0,1-3.621,2.449,11.391,11.391,0,0,1-8.848,0,11.574,11.574,0,0,1-6.172-6.174,11.2,11.2,0,0,1-.9-4.445,10.887,10.887,0,0,1,.9-4.436,11.062,11.062,0,0,1,2.472-3.539,11.784,11.784,0,0,1,3.693-2.383,11.585,11.585,0,0,1,4.458-.873,11.336,11.336,0,0,1,4.418.871,11.451,11.451,0,0,1,3.618,2.379,11.335,11.335,0,0,1,2.441,3.545,10.885,10.885,0,0,1,.9,4.436" transform="translate(205.51 30.525)" fill="#fff"/>
      <path id="パス_55" data-name="パス 55" d="M333.291,53.793a27.324,27.324,0,0,0,10.647-2.02,24.743,24.743,0,0,0,13.547-13.628,25.736,25.736,0,0,0,1.868-9.758,24.938,24.938,0,0,0-1.945-9.732,25.541,25.541,0,0,0-5.378-8.083,25.26,25.26,0,0,0-8.239-5.5,28.3,28.3,0,0,0-21,0,25.691,25.691,0,0,0-8.27,5.492,24.685,24.685,0,0,0-5.384,8.094,25.292,25.292,0,0,0-1.909,9.725,25.708,25.708,0,0,0,1.869,9.759,25.408,25.408,0,0,0,5.265,8.085,24.578,24.578,0,0,0,8.211,5.541,27.522,27.522,0,0,0,10.718,2.02M321.7,28.387a11.2,11.2,0,0,1,.9-4.476,10.939,10.939,0,0,1,2.469-3.57A11.326,11.326,0,0,1,328.745,18a12.3,12.3,0,0,1,4.546-.84,11.864,11.864,0,0,1,4.43.836,11,11,0,0,1,3.605,2.337,11.187,11.187,0,0,1,3.34,8.054,11.433,11.433,0,0,1-.9,4.52,11.495,11.495,0,0,1-21.164-.071,11.273,11.273,0,0,1-.9-4.449" transform="translate(176.792 2.536)" fill="#fff"/>
      <path id="パス_56" data-name="パス 56" d="M406.454,1.418h-16.8L312.2,117.3h16.728Z" transform="translate(180.917 1.177)" fill="#fff"/>
    </g>
  </g>
</svg>
