<svg xmlns="http://www.w3.org/2000/svg" xmlns:xlink="http://www.w3.org/1999/xlink" width="548.959" height="36.095" viewBox="0 0 548.959 36.095">
  <defs>
    <clipPath id="clip-path">
      <rect id="長方形_8757" data-name="長方形 8757" width="548.959" height="36.095" transform="translate(0 0.001)" fill="none"/>
    </clipPath>
  </defs>
  <g id="グループ_6690" data-name="グループ 6690" transform="translate(0 -0.001)">
    <g id="グループ_6690-2" data-name="グループ 6690" clip-path="url(#clip-path)">
      <path id="パス_71899" data-name="パス 71899" d="M54.689,18.27a7.617,7.617,0,0,0,3.428.606,4.973,4.973,0,0,0,2.268-.712,6.064,6.064,0,0,0,1.818-1.5A8.748,8.748,0,0,0,63.838,13.6a13.8,13.8,0,0,0,.581-4.192A9.977,9.977,0,0,0,62.4,2.8c-.086-.113-.182-.216-.275-.322-.051.027-.094.051-.158.084-.083.043-.167.086-.232.121l-.31.169-.042-1.094a6.087,6.087,0,0,0-1.526-.9A3.883,3.883,0,0,0,59.782,1.9c.019.154-.106.261-.218.338a1.178,1.178,0,0,1-.558.22.3.3,0,0,1-.146-.033c-.317-.166-.85-.5-.877-.9-.026-.366-.034-.735-.04-1.1C57.825.41,57.708.4,57.59.4a5.573,5.573,0,0,0-2.228.448,7.4,7.4,0,0,0-2.07,1.4,7.591,7.591,0,0,0-1.4,2c-.22.528-.408,1.068-.578,1.613l.378.293-.547,1.062-.167-.149c0,.01-.006.019-.008.029A10.1,10.1,0,0,0,50.7,9.649h0a11.658,11.658,0,0,0,1.177,5.535,7.293,7.293,0,0,0,2.809,3.085M61.733,6.882l.851.406L61.4,7.973Zm-7.2,3.742c.317-.236.573-.431.8-.606-.012-.33-.026-.687-.043-1.107h0q.052-3.48.159-4.141A4.3,4.3,0,0,1,56.307,2.5a1.815,1.815,0,0,1,1.306-.554,1.63,1.63,0,0,1,1.423.791A7.879,7.879,0,0,1,59.8,6.826v1.9l.053,1.767a27.76,27.76,0,0,1-.265,3.876,4.377,4.377,0,0,1-.857,2.439,1.852,1.852,0,0,1-1.3.567,1.458,1.458,0,0,1-.871-.264l-.844-1.081a16.912,16.912,0,0,1-.343-4.588V11.4c-.236-.128-.5-.27-.793-.4l-.346-.152ZM53.8,4l.361,1.024-.956-.119Zm-.79,8.353.317.893-1.383-.5Z" fill="#070203"/>
      <path id="パス_71900" data-name="パス 71900" d="M252.08,35.623a1.582,1.582,0,0,1-.49-.626c-.053-.1-.108-.193-.164-.279l-.12-.053.028-.084-.4-.559.276.122-.124-.266.98-.1-.162.476.029-.011a2.59,2.59,0,0,1,.887-.225c.689.008,1.384.071,2.056.132q.41.038.817.07l.283.021-.093.27c-.053.148-.1.337-.155.526a12.133,12.133,0,0,0,3-1.4,15.292,15.292,0,0,0,2.452-1.86A7.22,7.22,0,0,0,261.85,31a.563.563,0,0,1-.029-.146,1.067,1.067,0,0,1,.295-.574c.047-.059.1-.118.134-.177l.206-.314.073.14c.093-.181.184-.365.262-.554a13.525,13.525,0,0,0,.923-4.879,10.45,10.45,0,0,0-.083-1.562l-.966-.764-.144-.012v-.046l-1.478-.518,1.552.147v0c.148-.391.3-.78.453-1.168a9.812,9.812,0,0,0-2.1-3.007,11.4,11.4,0,0,0-3.467-2.294,29.358,29.358,0,0,0-3.889-1.529l-.122-.039-.014.027-.058-.049a30.943,30.943,0,0,1-3.008-1.057l-1.577,1.133.006-.436c.008-.48.017-.958.027-1.438-.084-.046-.155-.094-.234-.14l-3.076.48.181-.376c.084-.175.16-.356.236-.536a5.307,5.307,0,0,1,.628-1.2c.029-.038.055-.069.083-.106a4.648,4.648,0,0,1-.847-2.488,4.329,4.329,0,0,1,1.516-3.361,5.914,5.914,0,0,1,4.1-1.358,6.3,6.3,0,0,1,4.72,2.109,13.6,13.6,0,0,1,2.32,4.719l.316.053,1.9.133.264-.08a5.53,5.53,0,0,0,.105-1.028,39.141,39.141,0,0,0-.316-4.218,17.582,17.582,0,0,0-.475-2.716l0,0A28.477,28.477,0,0,0,256.289.657a23.112,23.112,0,0,0-3.744-.448q-5.853,0-8.859,2.927a9.565,9.565,0,0,0-3.006,7.12,10.02,10.02,0,0,0,1.081,4.336,9.268,9.268,0,0,0,2.953,3.6,29.335,29.335,0,0,0,4.81,2.386l.458-1.2.23.156c.081.056.187.119.292.183.414.25.622.375.545.6-.082.238-.174.475-.26.712.217.073.43.157.649.224q4.851,1.714,5.959,2.742a4.6,4.6,0,0,1,.782,6.577,5.781,5.781,0,0,1-1.192,1.172l.016.04-.6.659-.106-.265a5.9,5.9,0,0,1-.872.385,9.492,9.492,0,0,1-3.138.606,8.827,8.827,0,0,1-2.979-.489,7.561,7.561,0,0,1-2.36-1.317,8.7,8.7,0,0,1-1.806-2.175q-.369-.606-1.635-3.533l-1.293.028-.244.143-.075-.136-.814.018v1q0,.715.051,2.431c.005.125.009.235.014.354l.852-.634.071.333c.024.112.055.225.086.337a2.857,2.857,0,0,1,.143.844,5.789,5.789,0,0,1-.162,1.064c-.03.143-.061.286-.087.43l-.074.407-.3-.289c-.1-.1-.211-.195-.322-.29-.044-.039-.086-.081-.131-.121.025.676.038,1.074.038,1.178v.29a1.007,1.007,0,0,0,.237.5,5.205,5.205,0,0,0,1.661.658l.909.266c-.065-.156-.13-.312-.2-.466-.218-.515-.443-1.049-.615-1.593-.069-.219.084-.427.231-.629a2.143,2.143,0,0,0,.134-.195l.17-.3.974,1.359-.251,1.954,1.807.528a22.3,22.3,0,0,0,4.4.526c.452.011.9,0,1.355-.024m7.636-29.914L259.8,5.7a.611.611,0,0,1,.332.012.471.471,0,0,1,.23.259c.01.022.02.043.031.062l.121.194-.653.375-.48-.863Zm-4.965,15.769c-.032.092-.066.184-.092.275l-.071.24-.229-.1c-.061-.027-.138-.051-.215-.077-.266-.087-.5-.164-.519-.382a3.219,3.219,0,0,1,.064-.863c.018-.115.038-.233.053-.356l.042-.333.288.172c.108.064.223.12.328.171.283.138.506.247.52.471a1.982,1.982,0,0,1-.169.783m3.271,10.913.169.115.47.424-.177.163a.923.923,0,0,0-.072.078.5.5,0,0,1-.36.225h-.009a.5.5,0,0,1-.356-.248c-.023-.028-.045-.057-.067-.08l-.155-.162Zm-15.254-4.7-.852-.57.952-.375Zm3.483,7.023.427-.954.962.392Z" fill="#070203"/>
      <path id="パス_71901" data-name="パス 71901" d="M405.629,5.262h-.009l.019.017-.01-.018" fill="#070203"/>
      <path id="パス_71902" data-name="パス 71902" d="M418.843,35.043l1.371.185.527-.026h.712q.025-.369.026-.606a2.432,2.432,0,0,0-.158-.791c-.1-.069-.216-.122-.323-.185-.008.028-.015.058-.022.083l-.077.291-.667-.212.163-.5a8.511,8.511,0,0,0-.893-.375,6.35,6.35,0,0,1-1.454-.671l-.245.071.035-.2c-.113-.074-.235-.133-.343-.214a20.448,20.448,0,0,1-2.07-3.177l-4.219-6.829q-.687-1.107-1.793-2.689a15.273,15.273,0,0,1-.844-1.292,10.52,10.52,0,0,0,5.313-3.283,7.594,7.594,0,0,0,1.727-4.838,8.178,8.178,0,0,0-3.19-6.315q-3.2-2.756-8.6-2.755a63.806,63.806,0,0,0-6.513.316l-3.3.158-1.4.079q-.157,0-2.057-.158-1.847.026-2.452.026a15.41,15.41,0,0,0-2.426.211l-.1.29.053,1.582c.464.086,1.388.172,2.759.258l.007-.346.336.231c.06.041.138.086.216.133s.144.085.2.125l.882.179q.132,1.53.132,7.014,0,2.505-.079,5.379l-.053,1.424.053,2.452-.1,3.164.026,5.88q0,2.161-.053,2.531a6.654,6.654,0,0,1-.158.765,11.17,11.17,0,0,1-2.426.567,6.022,6.022,0,0,0-2.03.541,5.874,5.874,0,0,0-.081.816c0,.123.017.4.053.844h1.134a27.69,27.69,0,0,0,3.032-.185l3.639-.237c.193-.018.518-.026.976-.026q1.055,0,6.724.5l1.081-.053q.132,0,.633.026a13.536,13.536,0,0,0,.105-1.951c-.334-.126-.675-.225-1.014-.334.052.029.1.065.156.091l.4.2-2.451,1.187-1.722-1.146.318-.175c.159-.086.316-.192.474-.3a4.42,4.42,0,0,1,.735-.422c-.144-.031-.284-.073-.427-.1a6,6,0,0,1-1.925-.686L397.3,26.6l-.1-5.854c0-.377.028-.752.049-1.128-.031-.077-.057-.144-.089-.223l-.563-1.425.579.38c.383.251.654.412.845.525l.036.022c.44-.015.785-.023,1.015-.023a4.927,4.927,0,0,1,2.716.554,10.178,10.178,0,0,1,1.846,2.927q2.82,5.589,3.981,8.147.447.977,1.553,2.951l.9,1.74c.281-.036.659-.079,1.134-.132q1.556-.184,1.846-.185l.244,0,.1-.15.048.152,2.244.022a13.69,13.69,0,0,1,2.082.138ZM409.651,5.886a.315.315,0,0,1,.327-.056,3.521,3.521,0,0,1,.646.511c.077.071.157.146.244.222l.194.171-1.3,1.058-.122-.247c-.043-.084-.091-.169-.139-.253a2.219,2.219,0,0,1-.309-.743c-.047-.309.45-.659.454-.663m-17.518,5.076c-.05.032-.1.073-.156.115a.836.836,0,0,1-.466.234.331.331,0,0,1-.093-.013.929.929,0,0,1-.46-.4c-.041-.053-.082-.108-.124-.156l-.175-.192.219-.14a1.722,1.722,0,0,0,.164-.124.8.8,0,0,1,.577-.248c.215.04.344.248.458.431.037.06.075.121.113.171l.149.193Zm2.757-8.695c.052-.08.237-.332.443-.287a2.9,2.9,0,0,1,.5.19l.482.212-.28.228c-.04.033-.079.071-.119.111a.779.779,0,0,1-.46.278h-.023c-.208,0-.353-.2-.48-.377l-.156-.2Zm.739,14.116c-.046.069-.094.138-.126.2l-.117.215-1.339-.933.806-1.024.174.155c.072.063.147.124.222.184a2.457,2.457,0,0,1,.563.57c.119.189-.021.395-.183.635m-1.4-11.949,0-.122-.019-.047.021-.054,0-.083.23-.135.013-.008.421-.248h0l.18-.105-.276.6-.146.749-.03,1.561-1.156-.455Zm2.589,19.753-.414-.157-.033.083c-.069.29-.137.579-.2.869v.049l-.017.023-.076.329-.1-.1h0l-.522.668.154-1.022-.025-.024.045-.112.06-.4.072.069.2-.49c.008-.037.017-.073.026-.11l-2.23-.843.055-.172c-.024-.262-.049-.523-.074-.781l-.113-.849-.052-.105.073-.078v-.057l.074-.032,1.009-1.258.577,1.043-1.207.527.015.152c.02.2.041.4.06.607l.084.626,2.145.868.127.2.005.007Zm8.575-9.29q-1.872,1.608-6.354,1.608-.58,0-1.846-.053v-.745q.025-1.926.079-3.138l-.026-2.874.053-2.162-.026-3.56.026-.5a14.222,14.222,0,0,1,2.083-.132c.142-.006.284,0,.426,0l-.01-.091.1.09c.1,0,.2,0,.3,0l.022-.027.152-.287.013.087.064-.078.194.326a12.558,12.558,0,0,1,2.465.383,6.1,6.1,0,0,1,2.3,1.326l.247-.266.005-.006.3-.329.04.246.733-.05.046.436-.7.1.149.911a5.483,5.483,0,0,1,.577,1.363,10.345,10.345,0,0,1,.461,3.125,5.384,5.384,0,0,1-1.872,4.3m1.941.069-.227,0H407.1l-.349,0h-.084l-.268,0,.544-.388.049-.069a4.282,4.282,0,0,1,.3-.395c.1-.114.209-.084.323-.017l.04-.029-.011.046.1.065.373.248Zm3.4,14.9-1.806,1.219,1.423-1.687.308.07h0l.536.122Zm4.672,4.611.354-1.085.833.392Z" fill="#070203"/>
      <path id="パス_71903" data-name="パス 71903" d="M35.886.5A10.87,10.87,0,0,0,30.6,1.846a9.469,9.469,0,0,0-3.876,4.021,12.286,12.286,0,0,0-1.411,5.814,15.781,15.781,0,0,0,.5,3.929,8.256,8.256,0,0,0,1.2,2.624,9.928,9.928,0,0,0,2.333,2.254,15.513,15.513,0,0,0,3.085,1.345,6.654,6.654,0,0,0,1.556.1,10.361,10.361,0,0,0,3.665-.633,1.224,1.224,0,0,0,.8-1.3,1.309,1.309,0,0,0-.264-.883.761.761,0,0,0-.58-.3l-.4.079a4.824,4.824,0,0,1-1.371.211,4.671,4.671,0,0,1-2.057-.5,2.839,2.839,0,0,1-.9-1.028,7,7,0,0,1-.949-2.663,32.891,32.891,0,0,1-.316-4.693,10.477,10.477,0,0,1,.019-1.5A13.108,13.108,0,0,1,30.7,7.56l-.181-.246c-.172-.228.043-.5.69-1.244.172-.2.344-.4.472-.564l.115-.148.566.308a10.374,10.374,0,0,1,.86-1.686,3.466,3.466,0,0,1,1.607-1.317l-.27-.417L35.721,1.6l.082.257c.02.063.046.126.072.19a1.972,1.972,0,0,1,.108.344c.038,0,.074-.015.113-.016a3.605,3.605,0,0,1,3.059,1.872,11.569,11.569,0,0,1,1.414,4.871l.11-.156.345.929-.386-.049c.01.12.024.233.033.356l.168,0-.142.343c.035.515.058,1.059.073,1.625a.353.353,0,0,1,.331.086c.156.121.222.238.2.357a1.527,1.527,0,0,1-.169.419l-.18.368-.165-.132c0,.072,0,.136,0,.209a28.1,28.1,0,0,1-.158,3.243q-.21,1.82-.237,2.294a22.049,22.049,0,0,1-.62,3.889,14.639,14.639,0,0,1-.94,2.761c.161.1.3.184.406.246.319.191.451.269.513.433.285.765.546,1.549.8,2.308l.338,1-.239.053c-.074.017-.168.042-.261.067a2.1,2.1,0,0,1-.457.094.21.21,0,0,1-.217-.137c-.4-.928-.779-1.887-1.3-3.2-.175.327-.357.65-.556.964a13.544,13.544,0,0,1-1.921,2.379l1.68.68.069.111,0,0,.051.083.293.469-.407-.154-.033.084-.184.776.049.047-.086.112-.079.335-.1-.1-.519.67.156-1.021-.027-.027.05-.123.058-.383.069.067.2-.486L37.2,30.9l-1.666-.63c-.319.292-.65.571-1,.832a19.337,19.337,0,0,1-4.72,2.544,5.481,5.481,0,0,0-1.529.712.962.962,0,0,0-.264.712,1.539,1.539,0,0,0,.422.976h0q.66.052,1,.053a15.378,15.378,0,0,0,4.878-1.055A18.358,18.358,0,0,0,40,31.733a18.694,18.694,0,0,0,4.271-5.01,27.426,27.426,0,0,0,1.925-3.757,23.638,23.638,0,0,0,1.371-7.594q0-7.225-3.335-11.048A10.616,10.616,0,0,0,35.886.5m6.035,27.68.621-1.045.285,1.219Zm1.9-17.463a3.037,3.037,0,0,1,.57-.182c.175-.04.291.133.383.281.025.038.048.077.072.107l.182.24-.463.166a2.5,2.5,0,0,1-.558.167.2.2,0,0,1-.041,0c-.159,0-.258-.14-.348-.263a1.042,1.042,0,0,0-.072-.1l-.214-.241Zm1.005,2.616-.06.814-.2,0,0-.22-.045.222h-.054c-.1,0-.231-.018-.268-.168a3.455,3.455,0,0,1-.033-.351l-.018-.292Zm-.112,7.9a.632.632,0,0,1-.329-.1.418.418,0,0,1-.136-.341c0-.025,0-.051-.006-.073l-.033-.194.731-.209.169.989-.31-.06c-.028,0-.057-.007-.086-.011m.367,1.229-.24-.92,1.116.139Zm-.351-3.578a2.984,2.984,0,0,0-.247.2l-.159.152-.151-.159c-.07-.074-.149-.144-.227-.214a1.737,1.737,0,0,1-.533-.668c-.079-.22.075-.417.329-.741.113-.145.25-.319.392-.53l.187-.275.179.28c.115.178.229.331.331.465a1.494,1.494,0,0,1,.407.822c0,.271-.257.471-.508.664M45.046,9l-.287-.04c-.026,0-.052,0-.08-.006a.592.592,0,0,1-.327-.087.4.4,0,0,1-.133-.345c0-.024,0-.048,0-.07l-.023-.184.723-.217Z" fill="#070203"/>
      <path id="パス_71904" data-name="パス 71904" d="M65.661,25.265l.181-.377c.084-.174.16-.355.236-.536a5.35,5.35,0,0,1,.628-1.2c.369-.48.63-.841.985-.8.386.029.678.476,1.3,1.6l0-.1.048.063,9.245-14.18L78.2,9.628c-.068-.086-.136-.172-.2-.238l-.166-.17.037-.03-.6-.147.875-.212.174-.042c.032-.03.065-.058.1-.087l-.135-2.193-.173.146.1-.586c.011-.063.023-.126.038-.2l-.013-.205.431.026h0l.086.005.113.007.349.021-.339.286.077,2.362a.478.478,0,0,1,.228.005l5.412-8.3L84.324.1,81.959,0l.087.148-.277.075c-.1.028-.2.065-.3.1l-.06.02Q78.3,5.191,75.566,9.44l.1.146-.211.021q-2.1,3.256-3.97,6.153l.437.266-.743.207q-8.689,13.436-12.6,19.18l.905.4-.09.125,1.007.049a5.426,5.426,0,0,0,.765,0L68.45,24.829Zm11.29-14.59-.148.968-.856-.627Z" fill="#070203"/>
      <path id="パス_71905" data-name="パス 71905" d="M340.257,17.561a11.39,11.39,0,0,0-3.467-2.294,29.509,29.509,0,0,0-3.168-1.275l.839.4-1.185.683.332-1.084c-.237-.08-.469-.174-.707-.249q-4.8-1.424-6.275-2.979a4.66,4.66,0,0,1-1.5-3.243,4.331,4.331,0,0,1,1.516-3.362c.06-.049.129-.083.19-.13l-.693.275L327,3.5l.071-.066-.01-.048.047-.025.061-.321.363.375,0,0,.081.083a5.913,5.913,0,0,1,3.125-.706,6.3,6.3,0,0,1,4.72,2.109,13.612,13.612,0,0,1,2.32,4.72l.316.053,1.9.132.264-.079a5.547,5.547,0,0,0,.105-1.028,38.922,38.922,0,0,0-.316-4.219,17.6,17.6,0,0,0-.475-2.716l0,0A28.244,28.244,0,0,0,335.6.657a23.1,23.1,0,0,0-3.744-.448,16.817,16.817,0,0,0-4.733.618l.614.79-1.118.678-.1-.221a1.785,1.785,0,0,0-.1-.175,1,1,0,0,1-.191-.578.364.364,0,0,1,.212-.274A9.414,9.414,0,0,0,323,3.136a9.552,9.552,0,0,0-2.422,3.705c.237-.187.47-.381.719-.549a2.051,2.051,0,0,1,1.332-.132c.261.024.556.051.866.051h.575l-.43.383c-.353.315-.685.615-1,.9-.944.852-1.77,1.588-2.625,2.267-.006.164-.021.327-.018.492a9.995,9.995,0,0,0,.261,2.049,3.627,3.627,0,0,1,.243-.41c.049-.072.1-.144.142-.217l.191-.311.186.314a1.978,1.978,0,0,0,.118.174.982.982,0,0,1,.253.565,1.016,1.016,0,0,1-.264.566c-.043.058-.087.114-.122.172l-.138.225-.2-.178c-.047-.042-.108-.088-.168-.134-.013-.011-.025-.021-.039-.031a10.048,10.048,0,0,0,.614,1.553,9.263,9.263,0,0,0,2.953,3.6,29.379,29.379,0,0,0,6.724,3.059q4.853,1.714,5.959,2.742a4.6,4.6,0,0,1,.777,6.579,5.776,5.776,0,0,1-2.755,1.991,9.482,9.482,0,0,1-3.138.606,8.806,8.806,0,0,1-2.188-.257l-.123.049-.032-.089c-.214-.057-.426-.118-.636-.191a7.575,7.575,0,0,1-2.36-1.318,8.742,8.742,0,0,1-1.806-2.175q-.367-.606-1.631-3.53l-2.426.053v1q0,.713.053,2.426.132,3.323.132,3.612v.29a1.007,1.007,0,0,0,.237.5,5.24,5.24,0,0,0,.937.442l-.023-.038.3-.069c.065-.016.131-.039.2-.061a.969.969,0,0,1,.611-.072.8.8,0,0,1,.4.457,1.939,1.939,0,0,0,.094.17l.063.1,1.582.462.007-.042.184.1.473.138a22.313,22.313,0,0,0,4.4.527,18.2,18.2,0,0,0,4.575-.475,12.118,12.118,0,0,0,3.43-1.54,15.239,15.239,0,0,0,2.452-1.859,7.283,7.283,0,0,0,1.608-2.4,13.481,13.481,0,0,0,.923-4.878,10.456,10.456,0,0,0-.593-3.784,9.859,9.859,0,0,0-2.175-3.151M327.7,12.979a.661.661,0,0,0,.08-.034.38.38,0,0,1,.407-.016.584.584,0,0,1,.177.311.709.709,0,0,0,.026.082l.088.218-.225.072c-.025.008-.052.021-.08.033a.633.633,0,0,1-.247.069.261.261,0,0,1-.155-.049.525.525,0,0,1-.182-.32c-.008-.028-.016-.056-.025-.081l-.08-.213Zm-2.617-.967.6-.9.361,1.021Zm4.643,5.257a3.131,3.131,0,0,1-1.253,1.578.476.476,0,0,1-.226.053,2.436,2.436,0,0,1-.972-.384c-.242-.131-.518-.279-.821-.411l-.346-.152.3-.225c.381-.283.688-.519.945-.716a7.284,7.284,0,0,1,1.346-.91c.157-.075.322.038.53.246.286.284.6.674.494.921m-8.308,13.905a2.555,2.555,0,0,1-.443.051h-.047c-.16,0-.228-.16-.253-.219-.089-.206-.09-.36,0-.457a1.962,1.962,0,0,1,.377-.3q.067-.043.132-.09l.234-.168.416,1.12Zm17.717-10.447-.114.159c-.006.049-.009.1-.017.148l-.074.534-.242-.225-1.929.158.251.142-.31.032.283.442-.957.641-.1-.5a3.01,3.01,0,0,1-.078-.494l-.49.051.432-.387.038-.141a.2.2,0,0,1,.188-.153v-.01l.091-.008.434-.036,1.959-.265.1-.291,0-.011c.013-.559.023-1.117.033-1.676l.018-.946.336.231c.059.041.137.087.215.132.3.177.5.3.437.509-.173.619-.39,1.234-.6,1.831,0,.049,0,.1,0,.148Zm3.475,4.869-.206.128c-.05.031-.1.073-.155.114a.834.834,0,0,1-.468.235.343.343,0,0,1-.094-.013.952.952,0,0,1-.46-.4,1.827,1.827,0,0,0-.124-.157l-.175-.194.221-.139a1.854,1.854,0,0,0,.165-.123.751.751,0,0,1,.574-.248c.216.041.345.248.459.43a1.97,1.97,0,0,0,.114.172Z" fill="#070203"/>
      <path id="パス_71906" data-name="パス 71906" d="M277.383,34.546a3.581,3.581,0,0,1-.548-.271l-.154-.025-.169-.031-.209.09-.048-.467v-.007l-.058-.573.42.379.035.02.059-.033a1.546,1.546,0,0,1,.845-.276,4.769,4.769,0,0,1,1.208.349c.155.06.311.121.468.174l.249.084-.127.229c-.034.061-.068.139-.1.216-.12.267-.214.46-.391.479.673,0,1.327,0,1.968.006l.288-.805-.742-.625.866.28.034-.1.013.011.156-1.258a3.137,3.137,0,0,1-.818-.243,1.4,1.4,0,0,1-.713-1.371l.053-5.7q-.1-2.082-.1-5.221,0-.213.027-.9,2-.21,5.984-.211a20.946,20.946,0,0,1,3.9.185,1.917,1.917,0,0,1,1.054.712,10.637,10.637,0,0,1,.949,3.059q.3,1.318.4,1.74h1.863v-.58q0-.763-.078-2.333t-.08-2.281q0-.447.04-1.239t.041-3.56q0-1.212-.105-3.56l-1.53-.026-.343.026c-.088.489-.2.973-.3,1.457l.92-.363-.1.945-.826-.553c-.181.8-.378,1.6-.612,2.39a2.72,2.72,0,0,1-.844,1.147,6.547,6.547,0,0,1-2.479.514q-2.006.186-6.725.185a9.574,9.574,0,0,1-1.134-.079V13.215l-.053-4.431q0-4.535.08-5.194,2.53-.1,5.748-.1,2.82,0,5.273.21,1.344.106,1.607.132a7.152,7.152,0,0,1,1.687.211,12.162,12.162,0,0,1,1.687,2.426l.673,1.194.39-.522.171.259q.053.077.105.147a1.527,1.527,0,0,1,.239.411c.068.2-.126.441-.148.468a.3.3,0,0,1-.224.123.231.231,0,0,1-.037,0c-.013,0-.025-.009-.038-.011.228.587.415,1.046.557,1.362.46.036.76.053.9.053l.6-.029-1.078-.866,1.529-4.011V2.9a2.053,2.053,0,0,0-.476-1.424,41.422,41.422,0,0,0-4.746-.4l-4.772.053q-4.746,0-10.626.238-3.928.158-4.877.157a35.2,35.2,0,0,1-4.825-.29q-1.11-.158-2.611-.237l-.048.783.354-.131a3.012,3.012,0,0,1,.568-.181c.18-.04.292.135.385.284.024.038.047.076.069.106l.18.239-.283.1c-.06.021-.12.044-.181.067a2.58,2.58,0,0,1-.556.167l-.04,0c-.158,0-.259-.139-.348-.264-.024-.034-.049-.069-.072-.1l-.088-.1-.069,1.134q.66.079,1.159.105a17.377,17.377,0,0,1,2.9.369q.5.1.79.158a1.291,1.291,0,0,1,.791.369,4.689,4.689,0,0,1,.053.527l.216,2.981a.919.919,0,0,1,.442-.048,1.425,1.425,0,0,1,.72.471c.11.1.23.22.371.335l.345.28-.433.1c-.192.045-.363.1-.518.146a2.531,2.531,0,0,1-.719.153.87.87,0,0,1-.19-.02l-.006,0-.016,1.85.046,1.5.364-.158c.065-.028.131-.064.2-.1a1.2,1.2,0,0,1,.6-.194,1.151,1.151,0,0,1,.574.268c.061.043.121.087.182.123l.263.155-.231.2c-.048.041-.1.1-.152.152-.155.163-.3.319-.478.319a.306.306,0,0,1-.083-.011,2.245,2.245,0,0,1-.675-.371c-.075-.053-.149-.106-.225-.154l-.333-.212.084,2.7v.08a.225.225,0,0,1,.13.093.485.485,0,0,1,.051.137l.051.063.183.128-.024.025.947.359-.728.644-.534-.653-.012-.005-.072.076-.017,2.032.078,9.94-.025.816q.026,1.082.025,1.529a5.483,5.483,0,0,1-.29,1.926,12.738,12.738,0,0,1-3.8.843,16.612,16.612,0,0,0-2,.29v1.819l3.189-.1h1.112q4.614-.264,7.777-.264h.2a6.223,6.223,0,0,1-1.385-.337M274.034,5.09c-.038.055-.079.124-.12.193-.136.226-.238.4-.4.4a.247.247,0,0,1-.073-.012,2.475,2.475,0,0,1-.622-.3c-.065-.039-.13-.078-.2-.115l-.265-.149.225-.205a2.036,2.036,0,0,0,.142-.149.885.885,0,0,1,.516-.356.866.866,0,0,1,.565.263,1.829,1.829,0,0,0,.165.127l.186.124Zm.562,25.969a.327.327,0,0,1-.222.234,1.725,1.725,0,0,1-.325.027c-.067,0-.132,0-.2,0l-.474,0,.435-1.3.241.172c.047.034.1.065.143.1a1.475,1.475,0,0,1,.38.307.526.526,0,0,1,.018.47" fill="#070203"/>
      <path id="パス_71907" data-name="パス 71907" d="M193.671,19.139c-.176-.167-.052-.379.247-.889.094-.16.2-.334.283-.5l.135-.258.066.063c0-.016,0-.033,0-.049,0-.381-.023-.761-.051-1.14a10.15,10.15,0,0,1-2.072.279q-.125,0-.249-.006a5.262,5.262,0,0,1-1.393-.332c-.191-.064-.383-.129-.575-.182l-.666-.187,2.448-.869.009-.1-.289-1.353.425.044c.19.018.369.034.369.238-.013.337-.033.669-.061,1.009l1.041-.369-.27.209a5.73,5.73,0,0,1,1.043-.2,17.123,17.123,0,0,0-2.719-6.61,16.344,16.344,0,0,0-6.354-5.563A20.716,20.716,0,0,0,175.521.317c-.087,0-.174.006-.261.006l.048.138-1.093.579.089-.6c0-.033.015-.068.019-.1-.148.006-.3.011-.445.02l.053.308.073.418-.247-.336-.265-.358c-.39.03-.778.065-1.165.114L172,.99l-.225-.4c-.7.105-1.4.231-2.084.4A18.589,18.589,0,0,0,164.579,3.2a17.052,17.052,0,0,0-4.167,3.52,15.419,15.419,0,0,0-2.584,4.351,18.185,18.185,0,0,0-1.19,5.105l1.068.979-1.131.935a18.149,18.149,0,0,0,.551,4.29,22.335,22.335,0,0,0,1.5,4.377,17.232,17.232,0,0,0,2.953,3.876,22.2,22.2,0,0,0,4.613,3.348q.241.106,2.241.765a14.833,14.833,0,0,0,2.584.58,28.4,28.4,0,0,0,4.192.29q9.044,0,14.119-5.326A17.869,17.869,0,0,0,194.3,19.641a5.4,5.4,0,0,1-.628-.5M186.388,8.315l.34,1.183-.925-.089ZM183.807,3.89c.035-.04.072-.093.108-.143.126-.178.269-.354.46-.34a1.154,1.154,0,0,1,.532.252c.053.038.1.075.158.107l.365.221-.391.169c-.058.024-.115.052-.173.079a2.41,2.41,0,0,1-.519.2.311.311,0,0,1-.067.007.583.583,0,0,1-.336-.155.983.983,0,0,0-.085-.061l-.227-.135Zm-11.893-2.6h.157a.832.832,0,0,0,.083-.006.46.46,0,0,1,.377.076.632.632,0,0,1,.165.333.79.79,0,0,0,.025.09l.1.294-1.186-.008ZM165.9,6.312l.237.2c.06.05.139.106.217.163.292.21.485.348.412.56-.329.941-.7,1.879-1.06,2.788l-.373.949-.942-.658Zm-1.594,16.435.38.976-.93-.082Zm-2.4-13.276.872.615-1.039.293ZM159.52,21.4,159.1,20.39l.884.051Zm2.919,2.283c-.039.023-.076.048-.11.072a.637.637,0,0,1-.358.15h0a.523.523,0,0,1-.344-.176.9.9,0,0,0-.069-.059l-.543-.4h2.134Zm-1.728-3.421,0,0-.061.052h-.016l-.11.081-.217-.265h0l-.257-.314-.125-.152.552.1.187-.022,1.763-1.311,0-.006c.02-.041.037-.083.054-.125l-.064-.31.527.167h0l.458.145-.383.233-.036.027.46,2.2Zm4.7,9.906-.005,0-.09.113-.079-.042-.205.087c-.085.076-.173.15-.264.219a.282.282,0,0,1-.175.056.583.583,0,0,1-.142-.021l-.8-.087.69-.34c.151-.067.3-.135.453-.2l.071-.064.116-.1.747-.727.326.293-.636.8Zm15.134,3.2c-.028.055-.054.121-.08.187-.088.219-.179.445-.392.482a.5.5,0,0,1-.093.009,1.193,1.193,0,0,1-.509-.164,1.944,1.944,0,0,0-.187-.086l-.248-.1.143-.226c.035-.055.066-.117.1-.179a.957.957,0,0,1,.4-.48c.193-.092.4.034.6.154.06.037.12.074.176.1l.206.1Zm3.839-5.977a9.4,9.4,0,0,1-3.916,4.522,10.851,10.851,0,0,1-5.284,1.331,8.505,8.505,0,0,1-1.3-.114l-.106.106c-.159.169-.3.318-.47.318a.339.339,0,0,1-.07-.007,3.219,3.219,0,0,1-.774-.322c-.091-.048-.182-.1-.272-.139l-.261-.122.188-.219c.017-.02.036-.049.054-.072a7.629,7.629,0,0,1-2.29-1.248A10.635,10.635,0,0,1,168.7,30.31l-.109.738.051.053-.075.114-.017.114-.336.045h-.008l-.218.03h0l-.235.032.195-.326-.1-.717.349.3.336-.56a10.6,10.6,0,0,1-1.009-1.361,28.924,28.924,0,0,1-1.608-4.14,14.666,14.666,0,0,1-.554-2.848q-.1-.765-.158-1.081a19.645,19.645,0,0,1-.185-3.243c-.012-.7.013-1.4.055-2.106a.166.166,0,0,1,.008-.111q.059-.9.177-1.8l.006-.3.018-.946.15.1c.068-.385.135-.769.219-1.151a14.4,14.4,0,0,1,2.136-4.786,8.556,8.556,0,0,1,2.663-2.36,7.7,7.7,0,0,1,4.061-1.068l0,0c.163-.006.324,0,.486,0L175.8.486l1.954.974,0,0,.231.118.057.029q.231-.136.461-.274l.186-.112.588.951-1.538,1.146a10.527,10.527,0,0,1,3.706,1.876A11.476,11.476,0,0,1,184.094,8.6l.209-.261.3.787-.166.206a11.474,11.474,0,0,1,.742,2.449,10.579,10.579,0,0,0,.261,1.082l.132.5q.289,3.613.29,5.722a19.9,19.9,0,0,1-1.477,8.306m2.582-6.858-.146.077a.527.527,0,0,0-.064.021.958.958,0,0,1-.137.031l.279.366-.591.482-.138-.181c-.016-.02-.036-.041-.056-.062a.366.366,0,0,1,.076-.655c.024-.016.049-.031.069-.047l.039-.033a.872.872,0,0,1-.1-.178c-.009-.023-.018-.047-.029-.069l-.126-.251,1.07-.237Zm1.181,2.769-.162-.34a2.046,2.046,0,0,0-.111-.2,1.122,1.122,0,0,1-.218-.611,1.071,1.071,0,0,1,.295-.573c.048-.06.1-.119.135-.178l.206-.314.6,1.149Zm.652-11.074-1.25-1.424,1.083.686-.012-.176.344.347.074-.013.036.124.063.063c.309.311.619.622.914.946.142.162.034.271-.181.491l-.287.3Zm2.093,8.393.113-.947.852.587Zm1.13-2.062-.171-.3a.646.646,0,0,0-.046-.07.544.544,0,0,1-.133-.338.512.512,0,0,1,.172-.319.774.774,0,0,0,.054-.062l.195-.259.407.673Z" fill="#070203"/>
      <path id="パス_71908" data-name="パス 71908" d="M151.949,33.169a20.654,20.654,0,0,0-3.744-1.08q-.474-.106-1.028-.264.053-1.239.053-2.109l-.053-3.111v-.65a1.394,1.394,0,0,1-.4-.158c-.073-.039-.147-.077-.209-.1l-.215-.092.818-1.616.006,0V22.866q-.105-3.586-.079-4.747l.053-3.348-.026-2.531V8.89q0-.13-.026-1.317V6.914c0-.194.017-.475.053-.844l.026-.343-.026-.686V4.593l.158-.528a8.723,8.723,0,0,1,1.516-.619q.75-.225,3.177-.725.1-.844.132-1.873Q151.054.77,150.289.77a8.887,8.887,0,0,0-1.951.211l-.738.042.007.006a.527.527,0,0,1,.017.474.326.326,0,0,1-.221.231,1.668,1.668,0,0,1-.327.028c-.066,0-.132,0-.2,0l-.473,0,.233-.7-2.654.081q-.344.027-.923.027a38.972,38.972,0,0,1-4.983-.317L135.523.823c-.088,0-.326.008-.712.025a7.458,7.458,0,0,0-.211,1.5,7.584,7.584,0,0,0,.949.265A16.242,16.242,0,0,1,139.24,3.8a.782.782,0,0,1,.369.343l.055.554c.007-.008.012-.016.02-.024.24-.28.578-.592.818-.5a2.613,2.613,0,0,1,.893.728c.2.2.439.451.763.761l.281.268-.375.1c-.23.062-.433.136-.609.2a2.1,2.1,0,0,1-.658.173.487.487,0,0,1-.242-.059,2.5,2.5,0,0,1-.8-.769l.042.416.158,4.482-.053,1.187q-.027,3.5-.079,4.4a10.368,10.368,0,0,1-1.9.185l-4.614.133-2.649-.015-.109.029c-.1.028-.2.065-.3.1a1.771,1.771,0,0,1-.594.145.679.679,0,0,1-.161-.018.635.635,0,0,1-.353-.264h-.082l-1.377.847-.1-.225c-.022-.047-.049-.1-.078-.157a3.456,3.456,0,0,1-.2-.468h-.64l-1.385-.027,1.922,2.841,10.431.113q1.132.026,2.109.1a30.215,30.215,0,0,0,.158,3.349l-.026,2.241c.024,1.9-.064,3.805-.215,5.7a.528.528,0,0,1-.021.378l-.007.011c-.029.333-.039.668-.073,1-.329.1-.6.181-.807.234-.088.106-.174.216-.263.32-.161.188-.322.376-.475.568l-.194.243-.164-.266c-.094-.15-.221-.313-.349-.477-.037-.047-.069-.092-.1-.138l-.6.1-2.03.474a10.59,10.59,0,0,0-.132,1.715,3.241,3.241,0,0,0,.9.158q3.428-.344,5.59-.343l.875,0-.173-.227.874-.476-.143-.154.21-.045.018-.355.262.284.565-.7.827.863-1.039.224.011.012-.209.111-.019.024-.023.453c2.165.028,3.81.1,4.925.225q1.633.157,2.9.158.183,0,1.239-.027ZM132.52,17.463a.7.7,0,0,1-.224.053.207.207,0,0,1-.187-.106,1.146,1.146,0,0,1-.111-.289l-.094-.306.725-.175.173.734Zm8.568,16.058a3.737,3.737,0,0,0-.335.172,1.283,1.283,0,0,1-.553.21.418.418,0,0,1-.154-.03,1.811,1.811,0,0,1-.63-.532c-.067-.078-.135-.155-.206-.225l-.164-.162,1.064-.979,1.255,1.426Zm-.6-18.24.629-.833.277,1.007Zm5.637-8.527c.026-.021.053-.041.075-.061l.164-.154.151.167a.759.759,0,0,0,.07.067.477.477,0,0,1,.211.364.48.48,0,0,1-.239.339.866.866,0,0,0-.077.062l-.164.157-.151-.17c-.021-.022-.046-.045-.071-.068a.483.483,0,0,1-.21-.361.478.478,0,0,1,.241-.342M142.5,10.42c-.05-.047-.114-.1-.177-.151-.219-.178-.408-.332-.343-.539a2.55,2.55,0,0,1,.374-.677c.053-.075.1-.15.153-.226l.2-.314.178.326c.034.061.077.123.119.184a1.006,1.006,0,0,1,.244.592,1.135,1.135,0,0,1-.283.587c-.044.059-.089.117-.125.176l-.142.234Zm.429,13.891-.042-.373c-.007-.061-.017-.123-.026-.184a2.1,2.1,0,0,1-.035-.522.557.557,0,0,1,.244-.347.821.821,0,0,0,.082-.071l.186-.191.636.93Zm2.241-14.593a1.171,1.171,0,0,1-.459.131.5.5,0,0,1-.131-.017c-.2-.052-.318-.247-.421-.418a1.487,1.487,0,0,0-.1-.161l-.131-.175.174-.132c.051-.039.112-.09.174-.141.27-.224.419-.352.584-.207a3.374,3.374,0,0,1,.471.532l.329.417-.3.1a1.95,1.95,0,0,0-.184.073m.906,1.142-.651-.974,1.121-.688.1.238c.027.064.062.129.1.194a1.112,1.112,0,0,1,.182.619c-.024.218-.254.321-.478.419a2.011,2.011,0,0,0-.191.092Zm2.363,22.9.57-.883.378.982Z" fill="#070203"/>
      <path id="パス_71909" data-name="パス 71909" d="M235.117,1.057a46.819,46.819,0,0,1-4.824.237l-5.036-.211h-2.083l-.054,2,.343.079,2.479-.053a2.665,2.665,0,0,1,1.9.817,3.374,3.374,0,0,1,.579,2.083l.106,1.4c.018.215.03.416.048.629a.4.4,0,0,1,.133.049l.043-.032-.011.05c.034.022.069.045.1.07l.365.245-.575.392c.378,4.758.577,9.1.577,12.967a21.164,21.164,0,0,1-.5,5.405A10.36,10.36,0,0,1,227.4,29.9a6.359,6.359,0,0,1-1.6,1.516,7.773,7.773,0,0,1-2.439,1.2c-.434.127-.874.232-1.316.322l.644.235-.4.529a8.265,8.265,0,0,1-.714.886.239.239,0,0,1-.18.078,1.164,1.164,0,0,1-.454-.172c-.074-.039-.148-.078-.21-.1l-.214-.091.6-1.2a16.24,16.24,0,0,1-2.484.174,9.677,9.677,0,0,1-4.355-1.106,5.842,5.842,0,0,1-2.374-2.188,10.119,10.119,0,0,1-1.266-4.772l-.342-6.618.1-4.562-.159-2.109.054-2.479-.027-.949q-.025-.526-.026-1.371c0-.477.008-.9.022-1.269l-.143-.184c-.052-.066-.123-.144-.193-.221-.255-.282-.425-.468-.307-.667.314-.524.677-1.023,1.029-1.5l.533-.74.458.916a2.48,2.48,0,0,1,.868-.049,21.6,21.6,0,0,0,3.06-.211V2.981l-.053-1.556.025-.316q-.554.027-2.122.053t-3.587.119q-2.016.091-4.126.092-.606,0-4.086-.185-1.452-.079-2.769-.079-.5,0-.977.026l.08,2.083.005,0a6.527,6.527,0,0,0,1.108.079q3.031.106,3.611.923.423.581.423,5.036l0,.83a4.523,4.523,0,0,1,.651-.876c.174-.2.372-.433.587-.71l.221-.285.151.328c.133.287.273.536.391.749.255.456.424.757.3,1.023a3.169,3.169,0,0,1-.852.98c-.127.112-.255.223-.371.34l-.172.171-.153-.187c-.088-.107-.2-.22-.316-.334a3.236,3.236,0,0,1-.439-.5l-.014,7.052c.015.009.031.017.047.025l.065.035.479-.3-.191.455.155.084-.113.071.527.372-.971.018-.007,3.236a29.988,29.988,0,0,0,.4,5.59,10.06,10.06,0,0,0,2.037,4.628,10.333,10.333,0,0,0,4.417,2.874,20.065,20.065,0,0,0,7.015,1.094,22.671,22.671,0,0,0,6.274-.778,13.95,13.95,0,0,0,4.487-2.1,10.646,10.646,0,0,0,2.77-2.914,9.227,9.227,0,0,0,1-2.874,44.325,44.325,0,0,0,.368-7.2l-.263-5.353q-.054-1.95-.133-3.85c-.018-.369-.031-.73-.04-1.081s-.013-.835-.013-1.45a22.522,22.522,0,0,0-.078-2.294q-.079-.9-.079-1.371a1.214,1.214,0,0,1,.369-.976,7.109,7.109,0,0,1,1.951-.4,8.634,8.634,0,0,0,2.056-.343,2.953,2.953,0,0,0,.105-.712,7.867,7.867,0,0,0-.158-1.213ZM202.31,3.4l-.076-.216c-.023-.066-.053-.134-.083-.2a1.153,1.153,0,0,1-.145-.634c.035-.218.283-.287.546-.36.077-.022.155-.043.217-.067l.219-.084L203.342,3Zm5.4.412a2.15,2.15,0,0,1,.21-.4l.325-.548.281.906-.305.69-.225-.2c-.023-.02-.051-.041-.079-.063-.122-.093-.273-.208-.207-.385M206.443,7.5c.084-.085.166-.174.249-.262a5.742,5.742,0,0,1,.778-.73c.057-.039.208-.15.7.19.1.07.274.187.225.366a8.579,8.579,0,0,1-.407,1.1l-.3.72-1.417-1.213Zm1.007,6.491-.146-.2c-.042-.058-.1-.13-.155-.2-.254-.326-.371-.475-.222-.636.344-.368.719-.71,1.083-1.04l.585-.535.129,1.411Z" fill="#070203"/>
      <path id="パス_71910" data-name="パス 71910" d="M357.569,18.42a2.328,2.328,0,0,1,.153-.374v0l-.483,0,0,.411.337.009c0-.016-.01-.028-.005-.046" fill="#070203"/>
      <path id="パス_71911" data-name="パス 71911" d="M91.556,28.131l.53.041a13.829,13.829,0,0,0,.122-2.045,9.884,9.884,0,0,0-2.03-6.6,6.128,6.128,0,0,0-4.8-2.386,5.73,5.73,0,0,0-2.228.435,7.177,7.177,0,0,0-2.071,1.384,7.6,7.6,0,0,0-1.086,1.465l.16.1-.289.12c-.058.106-.131.2-.184.314a18.118,18.118,0,0,0-.923,2.874,9.761,9.761,0,0,0-.264,2.531h0a11.74,11.74,0,0,0,1.16,5.538A7.137,7.137,0,0,0,82.1,34.725l.623.059c.206-.546.412-1.092.631-1.631.075-.175.209-.149.4-.083l-.252-.324q-.343-.579-.343-4.588,0-.684-.08-2.531h0c0-.136,0-.257,0-.387a2.153,2.153,0,0,1-1.185.51,1,1,0,0,1-.122-.007c-.883-.1-1.632-1.116-2.291-2.01l-.187-.252c-.171-.229.045-.5.692-1.247.172-.2.343-.4.471-.562l.115-.147,2.55,1.384c.023-.72.052-1.2.088-1.423a4.21,4.21,0,0,1,.87-2.268,1.86,1.86,0,0,1,1.317-.554,1.635,1.635,0,0,1,1.425.791,7.89,7.89,0,0,1,.765,4.087v1.9l.026,1.767a27.846,27.846,0,0,1-.228,3.523l.029.085-.041.032c-.01.079-.014.158-.025.236a4.463,4.463,0,0,1-.843,2.439,1.811,1.811,0,0,1-1.292.567,1.453,1.453,0,0,1-.87-.264l-.269-.344-.878,1.4,2.019.708c.22.007.44.014.661,0a4.971,4.971,0,0,0,.608-.074c-.027-.038-.054-.075-.082-.112A1.536,1.536,0,0,1,86.163,35c-.061-.171.089-.357.184-.453a.3.3,0,0,1,.3-.1,1.908,1.908,0,0,1,.415.22l.33.2-.428.533a5.02,5.02,0,0,0,1.211-.525,5.785,5.785,0,0,0,1.793-1.5,8.532,8.532,0,0,0,1.661-3.059,13.8,13.8,0,0,0,.411-1.85Zm-9.363,0-.546.913-.432-.974Zm7.266-3,.344.929-.917-.116Zm.242,7.21a1.98,1.98,0,0,0-.084.185l-.084.227-.219-.106a1.832,1.832,0,0,0-.185-.076.9.9,0,0,1-.511-.338c-.1-.188.007-.4.115-.608a1.845,1.845,0,0,0,.088-.18l.083-.207.206.086a1.855,1.855,0,0,0,.195.065c.224.068.456.138.525.345a.823.823,0,0,1-.129.607m.214-3.146c-.022.042-.044.083-.064.124l-.118.249-.889-.712.319-.258a1.668,1.668,0,0,1,.364-.258.341.341,0,0,1,.349.081c.161.122.227.241.2.361a1.5,1.5,0,0,1-.165.413m.58-3.521c0-.03.006-.062.009-.1a.537.537,0,0,1,.127-.379.513.513,0,0,1,.4-.1c.035,0,.066,0,.1,0l.156-.01.3.728-1.135.146Z" fill="#070203"/>
      <path id="パス_71912" data-name="パス 71912" d="M126.141,33.041a2.787,2.787,0,0,1-.449-.132l-3.876-.606-.264-.158a12.593,12.593,0,0,1-.079-1.4V29.526a4.282,4.282,0,0,1-.7.212l-.067.016.323.539-.6-.241a1.543,1.543,0,0,0-.165-.06.222.222,0,0,1-.145-.26l-.01,0,.02-.067c.008-.034.016-.068.027-.108l.134-.5.008.012a2,2,0,0,1,.421-.874,1.6,1.6,0,0,1,.759-.4V22.571c0-.141-.018-.448-.052-.923v-.343l.1-1.977a4.069,4.069,0,0,1,1.133-.185h.738c.124,0,.268,0,.413,0l-1.373-2.622,1.339-.226-1.009-.02a10.473,10.473,0,0,1-1.238-.158q-.081-1.473-.08-1.872c0-.3.01-.589.026-.87q.054-.712.054-.844c0-.158-.01-.4-.027-.712l.027-3.349c0-.14-.01-.307-.027-.5V7.754l.054-.9.026-1.16-.026-.422-.08-.976a.832.832,0,0,1,.581-.765l4.64-.738a6.117,6.117,0,0,0,.106-1.028c0-.158-.01-.422-.026-.791a10.662,10.662,0,0,0-1.636-.1A5.2,5.2,0,0,0,123.921,1q-3.375.264-4.246.264-.554,0-1.279-.04c-.484-.027-.962-.04-1.437-.04Q115.4,1.16,112.188.816c-.247.017-.685.026-1.319.026a7.928,7.928,0,0,0-1.476.105,3.305,3.305,0,0,0-.159.87q0,.211.079.976A5.09,5.09,0,0,0,110.395,3l.4.105c.5.033,1.005.092,1.505.163l1.343-1,0-.006c.019-.041.037-.083.054-.125l-.065-.313.762.244.232.075L114.2,2.4l.46,2.205-.462-.087a31.882,31.882,0,0,1,.206,3.254V8.91l.025,2.294-.052,2.215.052.765q0,4.351-.078,5.432l-.027.633q0,1.766.105,5.326l-.342,6.592a13.235,13.235,0,0,1-1.451.422l-3.3.58a13.184,13.184,0,0,0-.159,1.872h.006a44.352,44.352,0,0,0,5.116-.208q.185-.025,1.292-.079l.145-.007.039-.21a.621.621,0,0,0,.012-.088.643.643,0,0,1,.109-.342.422.422,0,0,1,.36-.122h0c.028,0,.053,0,.079,0l.178-.021.239.758-.113.012c1.338.008,2.415.05,3.2.128l3.718.158a3.5,3.5,0,0,0,.448.026q.5.026,1.081.026c.438,0,.975-.009,1.607-.026a5.941,5.941,0,0,0,.105-.949,7.981,7.981,0,0,0-.079-.817,1.753,1.753,0,0,0-.579-.237M116.265,8.759h-.022a.846.846,0,0,1-.31-.073l-.324-.1.1-.225c.008-.023.018-.051.029-.079.044-.122.1-.29.28-.3a.969.969,0,0,1,.332.072c.029.011.058.022.087.031l.241.073-.105.229a.454.454,0,0,0-.028.079c-.044.121-.1.289-.283.3m.3,23.427.622-.906.379,1.029Zm3.247-7.389.577-.9.4.987Z" fill="#070203"/>
      <path id="パス_71913" data-name="パス 71913" d="M380.8,27.262l.157-.791q.054-.448.133-1.107-.58-.026-.871-.026-.526,0-1.345.079a13.4,13.4,0,0,1-2.979,4.957,6.19,6.19,0,0,1-3.11,1.767,29.976,29.976,0,0,1-6.226.562q-5.538,0-6.619-.554a1.4,1.4,0,0,1-.712-1.371l.053-5.7q-.105-2.083-.105-5.221,0-.214.027-.9c.436-.046.949-.084,1.525-.115l.045-.051.017.048c1.18-.062,2.641-.093,4.4-.093a20.776,20.776,0,0,1,3.9.185,1.914,1.914,0,0,1,1.055.712,10.691,10.691,0,0,1,.949,3.059c.1.454.185.825.253,1.119.072.043.145.091.218.127l.4.2-.483.234c0,.018.011.044.015.06h1.871v-.58q0-.763-.079-2.333t-.079-2.281q0-.448.04-1.239t.04-3.56q0-1.214-.105-3.56l-1.529-.026-.343.026a36.274,36.274,0,0,1-.924,3.876,2.716,2.716,0,0,1-.85,1.152,6.566,6.566,0,0,1-2.479.514q-2.005.185-6.724.185a9.792,9.792,0,0,1-1.135-.079V13.215l-.052-4.43q0-4.534.079-5.194,2.531-.105,5.748-.105,2.82,0,5.273.211c.9.07,1.432.115,1.608.132a7.062,7.062,0,0,1,1.687.211,12.224,12.224,0,0,1,.98,1.264l.157-.325.383,1.1-.074-.006c.077.134.168.259.241.4l1.054,1.872q.4,1.029.634,1.556.689.052.9.053l1.081-.053c.018-.212.027-.37.027-.475l-.053-1.081V3.03l-.149.056c-.262.1-.5.189-.708.273a7.635,7.635,0,0,1-1.385.452.317.317,0,0,1-.053,0c-.213,0-.348-.25-.543-.616-.062-.113-.123-.227-.179-.315l-.134-.208.224-.108c.145-.07.288-.144.432-.219a5.962,5.962,0,0,1,1.19-.513c.225-.065.414.117.72.415.137.132.3.293.5.46l.078.066a2.038,2.038,0,0,0-.469-1.3,41.214,41.214,0,0,0-4.747-.4l-4.772.053c-.906,0-1.852.008-2.82.021a1.922,1.922,0,0,0-.112.159l-.143.233-.2-.19c-.049-.048-.113-.1-.176-.15l-.047-.04c-2.224.036-4.589.1-7.131.2-.844.034-1.574.062-2.211.085.316.226.631.452.939.688.165.124.075.287-.039.493l-.064.123-.15.3-1-1.206-.082.093,0,.029-.011-.014-.656.739-.145-.289a2.156,2.156,0,0,0-.113-.185c-.129-.2-.263-.4-.191-.612a1.024,1.024,0,0,1,.06-.113c-.555.017-.963.025-1.211.025a35.532,35.532,0,0,1-4.825-.29q-1.11-.159-2.61-.237l-.126,2.11q.658.079,1.159.105c.085,0,.169.016.253.021a.315.315,0,0,1-.073-.088.433.433,0,0,1,.041-.362c.01-.023.02-.047.027-.069l.081-.262.238.136a.451.451,0,0,0,.07.033.472.472,0,0,1,.282.239.476.476,0,0,1-.048.367c-.008.02-.016.038-.022.056a17.1,17.1,0,0,1,2.052.3c.334.07.6.123.791.158a1.285,1.285,0,0,1,.791.369c.026.174.044.35.053.527l.237,3.27-.026,2.979.132,4.219-.007.711c.056.024.107.047.169.072l.364.144-.313.236c-.082.062-.154.119-.225.176l-.015,1.64.057,7.126.428-.066-.314.843-.108-.09.017,2.127-.027.817q.027,1.082.027,1.529a5.519,5.519,0,0,1-.29,1.925,12.759,12.759,0,0,1-3.8.844,16.249,16.249,0,0,0-2,.29v1.819l3.189-.1H350.1q4.615-.264,7.778-.264,6.357,0,10.864.183c1.342.055,2.5.1,3.519.139-.2-.243-.388-.475-.56-.691-.15-.19,0-.363.407-.824.1-.11.194-.221.267-.312l.162-.2.764.851q.559.621,1.106,1.252c.658.021,1.2.036,1.61.043l.01-.022v0l.133-.533.264.5c.012.021.023.043.034.064l.168,0q1,0,2.716-.079l.474-3.006ZM377.039,8.039l.11-1.524.357.737a.605.605,0,0,0,.038.062.442.442,0,0,1,.094.346c-.011.041-.03.081-.043.122l1.215-.71-1.253,1.233-.105.1-.017.241-.531-.261-.187-.093.288-.167ZM353.2,2.268a.887.887,0,0,0,.011-.09.754.754,0,0,1,.088-.32.4.4,0,0,1,.314-.162.558.558,0,0,0,.066-.012l.2-.056.246.744-.987.223Zm.148,5.16a1.793,1.793,0,0,1-.593.144.791.791,0,0,1-.16-.017c-.238-.056-.379-.282-.515-.5a2.345,2.345,0,0,0-.141-.211l-.2-.254.309-.091c.094-.028.189-.06.283-.092a3.343,3.343,0,0,1,.818-.2c.191-.036.3.175.45.465.053.105.111.222.178.335l.145.248-.277.075c-.1.028-.2.065-.3.1m.546,19.872.274-.74.16.008a.516.516,0,0,0,.068,0,.4.4,0,0,1,.346.094.66.66,0,0,1,.14.305c.007.027.014.055.022.08l.1.3Zm1.172-6.868-.148-.13.145-.165-.177.137-.443-.391.181-.164c.023-.022.047-.049.071-.076a.5.5,0,0,1,.357-.222h.012a.5.5,0,0,1,.353.247.776.776,0,0,0,.065.08l.155.163Zm.872-.341c-.034-.063-.066-.127-.106-.188-.092-.143.012-.255.1-.345l.3-.329.32,2.029Zm2.423-1.3-.308.161-.011-.02-.1.048h-.708v.169l-.279-.169h0l-.92-.559.607.016.007-.153-.213.119.983-2.351.8,1.653.129.062-.05.1.23.474-.366-.177v.311l.762.02-.571.281Z" fill="#070203"/>
      <path id="パス_71914" data-name="パス 71914" d="M448.982,1.128q-2.136,0-4.377-.211T441.889.706a11.723,11.723,0,0,0-.105,1.213,3.1,3.1,0,0,0,.158.791,9.88,9.88,0,0,0,1.081.171,6.1,6.1,0,0,1,.976.171,4.979,4.979,0,0,1,2.5.738,1.067,1.067,0,0,1,.5.87,5.888,5.888,0,0,1-.461,1.978q-.461,1.214-1.147,3.56-.211.706-.343,1.107l-.738,1.846-.41,1.135a5.649,5.649,0,0,1,1.113-.475c.228-.062.413.115.718.412.138.134.3.3.5.463l.215.181.675-1.747a.2.2,0,0,1-.117-.089,1.192,1.192,0,0,1-.112-.3l-.09-.3.643-.156.03-.077a63.091,63.091,0,0,1,3.059-7.15,2.664,2.664,0,0,1,.712-.87A22.348,22.348,0,0,1,455.231,2.5q.025-.633.026-.949V.7q-.975.024-2.531.224a30.221,30.221,0,0,1-3.744.2" fill="#070203"/>
      <path id="パス_71915" data-name="パス 71915" d="M490.764,4.4c-.18.413-.367.815-.557,1.214l-.272.787.1.015c.073-.1.138-.208.213-.305a7.976,7.976,0,0,1,1.8-1.729Z" fill="#070203"/>
      <path id="パス_71916" data-name="パス 71916" d="M263.47,21.979c-.041-.187-.084-.374-.135-.559l-.262.419Z" fill="#070203"/>
      <path id="パス_71917" data-name="パス 71917" d="M509.409,33.205a2.317,2.317,0,0,1,.173-.423l.255-.853.237-.791c.2-1.139.357-1.984.461-2.554a1.8,1.8,0,0,1-.464-.713c-.075-.235.144-.437.4-.672.078-.072.156-.144.216-.211l.158-.179.022.023c.062-.374.116-.748.155-1.125a15.763,15.763,0,0,0-2.557.211,20.1,20.1,0,0,1-5.181,5.392,9.944,9.944,0,0,1-5.6,1.806,10.722,10.722,0,0,1-4.955-1.187,7.817,7.817,0,0,1-2.9-2.347,16.549,16.549,0,0,1-2.4-5.035,24.406,24.406,0,0,1-.58-6.382q0-6.852,2.679-11.024l-.084-.366-.088-.013.381-1.654.068.044.3-.555.253-.474-.055-.2h.16l.193-.361.1.361c.572,0,1.144,0,1.717,0l.049-.1.149.1h.105a7.959,7.959,0,0,1,4.065-1.007,11.731,11.731,0,0,1,6.012,1.569A17.485,17.485,0,0,1,508.07,9.65h2.4a13.936,13.936,0,0,0-.5-3.587q-1.057-3.717-1.4-4.509a38.254,38.254,0,0,0-5.391-.987,54.361,54.361,0,0,0-6.157-.331A18.038,18.038,0,0,0,483.8,5.351a17.461,17.461,0,0,0-5.18,12.973,19.246,19.246,0,0,0,.831,5.854A15.522,15.522,0,0,0,481.993,29a18.083,18.083,0,0,0,4.72,4.112,14.661,14.661,0,0,0,4.944,1.925,29.689,29.689,0,0,0,6.13.606,35.09,35.09,0,0,0,7.159-.619,11.218,11.218,0,0,0,4.463-1.823m.037-4.989.4.987-.978-.091Zm-30.785-8.955.547-.9.38.98Zm8.96,10.569a2.579,2.579,0,0,1-.445.052h-.041c-.168-.007-.237-.174-.262-.238-.123-.3-.024-.407.008-.441a1.936,1.936,0,0,1,.376-.3l.363-.257.417,1.12Z" fill="#070203"/>
      <path id="パス_71918" data-name="パス 71918" d="M548.584,25.719l-.152-.364c-.135,0-.251-.007-.343-.007q-.528,0-1.345.079a13.418,13.418,0,0,1-2.979,4.958,6.189,6.189,0,0,1-3.111,1.767c-.467.091-.938.168-1.409.237l.27.3c.481.533.961,1.067,1.424,1.612.247.293.466.608.678.913.012.019.025.036.038.055,1.384.047,2.339.071,2.847.071q1,0,2.716-.08l.475-3.005.976-4.984.158-.791q.054-.447.132-1.106l-.208-.009Z" fill="#070203"/>
      <path id="パス_71919" data-name="パス 71919" d="M301.641,26.471c.035-.3.079-.667.132-1.107-.387-.017-.676-.026-.87-.026q-.528,0-1.345.079a13.312,13.312,0,0,1-.75,1.754l1.1-.748.1.249c.121.289.25.557.371.809a4.545,4.545,0,0,1,.562,1.646c.022.387-.346.733-.7,1.067a5.121,5.121,0,0,0-.389.393l-.144.169-2.019-1.746a13.458,13.458,0,0,1-1.115,1.364,6.192,6.192,0,0,1-3.115,1.78,29.94,29.94,0,0,1-6.223.554,48.25,48.25,0,0,1-4.921-.19c.1.273.2.548.315.816s.243.5.384.76c.009.015.018.031.026.047l.824.217-.478.241-.041.087a.187.187,0,0,1-.179.121.4.4,0,0,1-.072-.018l-.005.015-1.45-.471-.022.179-.089-.076-.21.457q4.608.031,8.108.174,6.408.264,7.884.264,1,0,2.716-.079l.476-3.007.976-4.983Z" fill="#070203"/>
      <path id="パス_71920" data-name="パス 71920" d="M534.569,34.835l.078.173c.682.02,1.343.042,1.972.068,1.12.046,2.12.086,3.015.12-.662-.716-1.253-1.434-1.725-2.026-.128-.162-.025-.322.257-.649a29.855,29.855,0,0,1-3.734.184q-5.538,0-6.618-.554a1.4,1.4,0,0,1-.712-1.371l.053-5.7q-.105-2.082-.105-5.221c0-.143.008-.443.026-.9q2-.211,5.985-.211a20.846,20.846,0,0,1,3.9.185,1.914,1.914,0,0,1,1.055.712,10.691,10.691,0,0,1,.949,3.059q.294,1.318.4,1.74h1.872v-.58q0-.764-.079-2.333t-.079-2.281c0-.3.013-.712.04-1.239s.04-1.714.04-3.56q0-1.214-.1-3.56l-1.529-.026-.343.026a36.5,36.5,0,0,1-.923,3.876,2.725,2.725,0,0,1-.844,1.147,6.538,6.538,0,0,1-2.479.514q-2,.185-6.724.185a9.559,9.559,0,0,1-1.134-.079V13.212l-.038-3.143a.575.575,0,0,1-.1.017.4.4,0,0,1-.188-.043,1,1,0,0,1-.389-.5c-.031-.065-.063-.131-.1-.189l-.151-.249.281-.076a2.008,2.008,0,0,0,.2-.071,1.352,1.352,0,0,1,.429-.111V8.782c0-1.01,0-1.862.009-2.584a3.227,3.227,0,0,1-.254.521l-.247.453-.208-.248c-.023-.027-.054-.056-.084-.085-.117-.114-.251-.242-.2-.418a2.425,2.425,0,0,1,.235-.505c.028-.051.057-.1.082-.148l.129-.249.21.186c.026.022.06.047.094.073a.635.635,0,0,1,.243.266c.012-1.35.035-2.174.069-2.456q2.531-.105,5.748-.105,2.821,0,5.273.211,1.344.107,1.608.132a7.055,7.055,0,0,1,1.687.211,12.173,12.173,0,0,1,1.687,2.426l1.055,1.872q.4,1.029.633,1.556.689.052.9.053l1.081-.053c.017-.211.026-.37.026-.475l-.053-1.081V2.9a2.052,2.052,0,0,0-.475-1.424,41.44,41.44,0,0,0-4.746-.4l-4.772.053q-4.746,0-10.626.237-3.93.158-4.878.158a35.212,35.212,0,0,1-4.825-.29q-1.11-.158-2.61-.237l-.025.415.35.187-.371.157-.082,1.353q.66.079,1.16.105a17.275,17.275,0,0,1,2.9.369q.5.1.791.158a1.285,1.285,0,0,1,.735.33l.188-.242.151.328c.133.287.272.535.391.747.255.457.424.757.3,1.023a2.9,2.9,0,0,1-.763.9l.078,1.079-.026,2.979.132,4.219-.026,2.979.079,9.94-.026.817q.025,1.082.026,1.529a5.474,5.474,0,0,1-.29,1.925,12.753,12.753,0,0,1-3.8.844,16.641,16.641,0,0,0-2,.29V35.26l3.19-.1h1.1c.267-.015.51-.026.77-.04l-.056-.059,2.514-.478-1.025.462q3.2-.148,5.575-.149,4.74,0,8.452.1Zm8.417-30.709a4.282,4.282,0,0,1,.306-.4c.1-.116.209-.085.323-.018l.051-.036-.015.059c.029.019.059.038.088.059l.377.25-.783.529-.228,0H543.1l-.377,0h-.054l-.262,0,.532-.383ZM522.349,9.609,522.2,9.4c-.042-.06-.1-.135-.159-.21-.25-.321-.364-.467-.216-.627.339-.362.71-.7,1.068-1.026l.6-.553.128,1.414Z" fill="#070203"/>
      <path id="パス_71921" data-name="パス 71921" d="M299.12,9.916l.457-.022c.017-.212.026-.37.026-.475l-.032-.657c-.021.052-.041.106-.062.158Z" fill="#070203"/>
      <path id="パス_71922" data-name="パス 71922" d="M440.624,29.873c.284-.711.52-1.3.707-1.778l-1.384-.485,1.519.144c.218-.557.351-.908.4-1.045.01-.027.019-.051.03-.078a5.876,5.876,0,0,1,.1-2.046c.061-.269.436-.474.739-.6.037-.015.113-.044.209-.076.039-.1.081-.207.12-.3.13-.323.251-.633.374-.944a2.47,2.47,0,0,1-.336-.688.907.907,0,0,1,.124-.6,1.871,1.871,0,0,0,.079-.19l.141-.418.462.677c.065-.172.135-.35.2-.517l2.3-5.963-.239.089c-.261.1-.492.188-.7.272a7.587,7.587,0,0,1-1.39.454.253.253,0,0,1-.054.005c-.19,0-.319-.2-.483-.505l-2.368,6.566-1.529,3.744q-.713-1.766-1.582-3.744l-3.006-6.8c-.283-.609-.544-1.186-.8-1.745l-.025.253-.8-.326c-.013.019-.028.038-.039.056l-.027.044,0,.236-.439.013-.02-.373c-.012-.009-.021-.018-.033-.028l-.1-.079-1.012,0,.784-.261a.268.268,0,0,1-.021-.2,2.531,2.531,0,0,1,.377-.679c.051-.074.1-.149.151-.223l.2-.314.178.326c.034.061.076.122.119.184a1.006,1.006,0,0,1,.243.592.629.629,0,0,1-.043.138h.219q-.923-2.086-1.526-3.671c-.156.049-.313.1-.441.145a2.124,2.124,0,0,1-.66.174.487.487,0,0,1-.243-.06,2.931,2.931,0,0,1-1.054-1.164c-.09-.164.038-.336.178-.5.242-.281.582-.6.823-.509a2.624,2.624,0,0,1,.894.728c.032.033.075.076.11.113-.019-.056-.042-.117-.06-.171l-.87-2.294a3.225,3.225,0,0,1-.053-.58.932.932,0,0,1,.29-.686,4,4,0,0,1,1.714-.844q.447-.1,3.085-.448,0-.237-.053-2.162h-1.925q-.87.132-2.61.264-2.427.157-3.217.158A78.63,78.63,0,0,1,419.841.79Q419.55.763,418.18.737V3.005l1.144.13a7.234,7.234,0,0,1,2.294.448,2.833,2.833,0,0,1,1,.949q.205.346,2.5,5.247l2.979,7.2.1.226.457-.072-.345.322.13.293.975.8-.468.336,3.434,7.7.1-.1.1.164c0-.023.005-.045.009-.068.018-.115.038-.233.053-.356l.042-.333.288.172c.108.064.223.12.328.171.282.137.506.246.519.469a1.99,1.99,0,0,1-.169.787c-.033.092-.066.182-.092.273l-.071.24-.228-.1c-.062-.027-.138-.051-.215-.077l-.134-.046.167.373q1.952,4.906,2.242,5.723t.58,1.608q.9.052,1.4.053.262,0,1.318-.053.579-1.424,1.74-5.142ZM428.965,16.966l-.166-.154a.62.62,0,0,0-.058-.056.446.446,0,0,1-.185-.337.438.438,0,0,1,.223-.312c.023-.017.045-.034.063-.05l.168-.155.491.572Zm1.752.923-.47-.47-.128-.128.21-.092.021-.055.135-1.372.32.275c.018.015.041.031.064.048.105.077.249.181.2.354-.082.258-.177.508-.271.759l-.014.036,0,.033.09.161s-.015.009-.035.024l.337.563.5-.664.277,1.007-.647-.126.345.576Zm1.637,1.857-.2-.174c-.028-.023-.064-.05-.1-.076-.149-.108-.3-.22-.239-.4a2.613,2.613,0,0,1,.231-.468l.2-.356.685.462Z" fill="#070203"/>
      <path id="パス_71923" data-name="パス 71923" d="M467.937,34.75q3.138.316,3.507.369a5.278,5.278,0,0,0,.686.079c.088,0,.413-.017.976-.053a4.036,4.036,0,0,1,.527-.026q.025-.609.026-.9a10.385,10.385,0,0,0-.105-1.318q-1.371-.185-1.608-.211a27.033,27.033,0,0,1-2.927-.475,2.54,2.54,0,0,1-.105-.606l.026-1-.024-2.352a1.762,1.762,0,0,1-.776-.877c-.085-.3.2-.592.5-.908.094-.1.183-.2.259-.29l-.008-.846.008-.362-.692.286.088-1,.611.387.064-2.841-.026-6.961q0-2.4.079-6.855a17.223,17.223,0,0,1-.079-1.846c0-.134.008-.267.011-.4l-2.415,1.8-.057-.359c-.017-.112-.051-.245-.085-.378-.105-.419-.188-.75.025-.908a22.609,22.609,0,0,1,1.963-1.25c.226-.133.452-.267.675-.4l.033-.02c0-.02,0-.04.008-.06a17.472,17.472,0,0,1,2.228-.672q1.357-.331,2.413-.7.052-.711.053-1.16,0-.344-.026-.844-.5.027-2.426.158-3.428.211-4.983.211-.34,0-1.74-.053L457.076.787l.079,2.32a8.907,8.907,0,0,0,.923.079,10.311,10.311,0,0,1,3.507.633,5.964,5.964,0,0,1,.185.844L461.8,5.8l.132,3.006-.079,1.424.053,3.507q0,.159-.185,5.379l.026,1.424-.049,5.5.315-.067-.112.358c-.022.072-.047.165-.071.258a2.386,2.386,0,0,1-.133.418l.023,2.659a4.542,4.542,0,0,1-.475,2.268,11.7,11.7,0,0,1-2.558.87q-1.214.291-1.74.448v1.9q.528-.027,2.266-.185,2.661-.264,4.061-.264Zm-1.467-4.479c-.06.073-.117.148-.174.224a2.8,2.8,0,0,1-.561.6.232.232,0,0,1-.144.048.911.911,0,0,1-.464-.2c-.221-.152-.359-.287-.314-.456a2.311,2.311,0,0,1,.346-.669c.046-.068.091-.134.131-.2l.1-.171,1.251.612Zm.219-12.827-.207.383-.585-.719-.01-.662,0-.181.364.412.091.058a3.306,3.306,0,0,1,.383.266.217.217,0,0,1,.053.272l.06.069-.083-.01c-.019.038-.041.075-.063.112m-2.122-5.987a2.1,2.1,0,0,0,.211-.107.793.793,0,0,1,.66-.156,2.561,2.561,0,0,1,.726.523c.123.111.265.238.434.377l.358.3-.454.09c-.214.042-.4.094-.561.139a2.448,2.448,0,0,1-.609.118.681.681,0,0,1-.257-.047,1.1,1.1,0,0,1-.486-.648c-.042-.1-.083-.19-.129-.272l-.124-.218Z" fill="#070203"/>
      <path id="パス_71924" data-name="パス 71924" d="M22.133,15.4a.287.287,0,0,1,.117-.181q-.037-7.107-3.331-10.892A10.616,10.616,0,0,0,10.574.5,10.881,10.881,0,0,0,5.287,1.845a9.458,9.458,0,0,0-3.3,3.069A2.063,2.063,0,0,1,2.3,5.1c.06.043.119.087.18.122l.263.156-.232.2a1.862,1.862,0,0,0-.154.154c-.155.163-.3.317-.477.317A.343.343,0,0,1,1.8,6.04a1.575,1.575,0,0,1-.386-.178l0,0A12.274,12.274,0,0,0,0,11.68a15.682,15.682,0,0,0,.5,3.929,8.222,8.222,0,0,0,1.2,2.624,9.908,9.908,0,0,0,2.333,2.254,15.524,15.524,0,0,0,2.374,1.08l.112-.208.079.279c.175.062.343.139.52.194a6.663,6.663,0,0,0,1.557.1,10.338,10.338,0,0,0,3.664-.633,1.224,1.224,0,0,0,.8-1.3,1.306,1.306,0,0,0-.264-.883.761.761,0,0,0-.58-.3l-.4.079a4.824,4.824,0,0,1-1.371.211,4.663,4.663,0,0,1-2.056-.5,2.832,2.832,0,0,1-.9-1.028,7.038,7.038,0,0,1-.949-2.663A32.745,32.745,0,0,1,6.3,10.228,10.421,10.421,0,0,1,7.909,3.979a3.49,3.49,0,0,1,2.874-1.608,3.613,3.613,0,0,1,3.06,1.872q1.633,2.505,1.634,9.229a28.1,28.1,0,0,1-.158,3.243c-.026.229-.048.426-.07.622.043-.012.085-.025.129-.039a.969.969,0,0,1,.611-.072.8.8,0,0,1,.4.455c.031.06.061.12.094.171l.163.25-.285.081a2,2,0,0,0-.2.073,1.3,1.3,0,0,1-.458.121.49.49,0,0,1-.164-.027.721.721,0,0,1-.36-.405c-.054.508-.089.875-.1,1.064a22.049,22.049,0,0,1-.62,3.889,14.638,14.638,0,0,1-1.911,4.588c-.033.052-.072.1-.1.15-.007.106-.01.206-.019.315l1.04-.37-.269.209a5.109,5.109,0,0,1,1.276-.224h.011c.349,0,.65.3.941.591a4.316,4.316,0,0,0,.342.318l.276.22-.318.151c-.12.056-.237.12-.355.185a3.321,3.321,0,0,1-.89.377,10.15,10.15,0,0,1-2.072.279c-.083,0-.167,0-.25-.006a4.32,4.32,0,0,1-1.1-.241A13.629,13.629,0,0,1,9.229,31.1a19.373,19.373,0,0,1-4.72,2.544,5.455,5.455,0,0,0-1.529.712.96.96,0,0,0-.264.712,1.531,1.531,0,0,0,.421.976c.44.036.773.053,1,.053A15.372,15.372,0,0,0,9.014,35.04,18.324,18.324,0,0,0,13.95,32.3c-.049-.043-.1-.076-.151-.121-.176-.167-.052-.377.244-.884.094-.161.2-.337.286-.506l.134-.259.753.718a18.663,18.663,0,0,0,3.738-4.531,27.426,27.426,0,0,0,1.925-3.757,23.627,23.627,0,0,0,1.346-7.074.921.921,0,0,1-.092-.494M5.167,17.2c-.057.025-.112.051-.169.078a2.409,2.409,0,0,1-.523.2.3.3,0,0,1-.066.007.569.569,0,0,1-.335-.155c-.03-.022-.059-.044-.086-.061l-.229-.135.175-.2c.035-.04.072-.092.108-.143.126-.177.271-.354.461-.339a1.149,1.149,0,0,1,.532.252c.052.037.1.074.158.107l.363.219ZM6.438,34.557l-.139-.18a.759.759,0,0,0-.056-.061.368.368,0,0,1,.077-.658.5.5,0,0,0,.067-.047l.175-.142.468.606Zm4.582-.888.114-.945.852.585Zm1.132-2.063-.171-.3c-.014-.023-.03-.045-.046-.069A.55.55,0,0,1,11.8,30.9a.519.519,0,0,1,.171-.322c.019-.02.039-.041.055-.061l.195-.26.407.674ZM17.159,6.4a.521.521,0,0,0-.045.05l-.449.592.148-1.988.356.679a.487.487,0,0,0,.037.06.527.527,0,0,1,.111.315.482.482,0,0,1-.158.292m1.331,13a.878.878,0,0,1-.214.091l-.343.112-.3.1.316-.438-.557-.237.651-.111.09-.54,1.233.653Zm3.2-6.362c-.056.031-.111.069-.166.1a1.062,1.062,0,0,1-.536.234h-.027a1.371,1.371,0,0,1-.557-.162c-.065-.031-.13-.061-.195-.085l-.417-.153.374-.238c.067-.043.133-.092.2-.141a1.428,1.428,0,0,1,.611-.32c.213-.042.4.119.567.258a1.748,1.748,0,0,0,.161.127l.3.2Z" fill="#070203"/>
    </g>
  </g>
</svg>
