<svg xmlns="http://www.w3.org/2000/svg" width="310" height="97.736" viewBox="0 0 310 97.736">
  <g id="グループ_6805" data-name="グループ 6805" transform="translate(0)">
    <g id="グループ_6784" data-name="グループ 6784" transform="translate(26 61.264)">
      <path id="パス_71871" data-name="パス 71871" d="M425.114,26.9,425,26.7l.1-.013-.043-.216a16.229,16.229,0,0,0-2.486.211,20.678,20.678,0,0,1-5.334,5.553,10.242,10.242,0,0,1-5.766,1.858,11.035,11.035,0,0,1-4.22-.833c-.05.14-.1.276-.15.417l.409.246-.641.083a3.9,3.9,0,0,0-.4.086,2.781,2.781,0,0,1-.615.106.5.5,0,0,1-.369-.127,31.186,31.186,0,0,1-2.667-3.006c-.154-.194,0-.371.415-.841l0,0a17.009,17.009,0,0,1-1.495-2.7,6.088,6.088,0,0,1-.4.494.25.25,0,0,1-.185.079,1.2,1.2,0,0,1-.474-.179c-.075-.039-.149-.078-.212-.105l-.22-.1.841-1.664.089.033c-.092-.272-.191-.541-.268-.815a25.05,25.05,0,0,1-.546-3.779l-1.585-1.055.327-.179c.163-.089.325-.2.488-.308a4.933,4.933,0,0,1,.71-.416c0-.278-.005-.556.006-.833q0-7.955,3.5-12.407A8.207,8.207,0,0,1,410.6,3a12.068,12.068,0,0,1,6.191,1.614,18,18,0,0,1,5.375,5.308h2.471a14.25,14.25,0,0,0-.515-3.691q-1.087-3.829-1.441-4.643v0A39.436,39.436,0,0,0,417.136.579a55.749,55.749,0,0,0-6.34-.34,18.54,18.54,0,0,0-13.03,4.752l.169.111c.394.258.673.424.87.541.329.2.466.277.529.446.293.788.562,1.595.824,2.375l.348,1.034-.246.055c-.076.018-.173.042-.269.069a2.158,2.158,0,0,1-.471.1.215.215,0,0,1-.223-.144c-.422-.976-.823-1.991-1.378-3.4l-.388-.981c-.114.106-.238.2-.35.309a18,18,0,0,0-1.423,1.6l.249.45-.86.377c-.115.163-.242.317-.351.483l.046.464.085.646,2.208.894.13.2.006.009.3.475-.426-.161-.034.085q-.107.446-.211.895v.05l-.017.023-.078.34-.1-.1-.538.688.159-1.052-.026-.025.046-.115.062-.408.074.071.2-.5c.009-.038.017-.076.027-.113l-2.3-.868.057-.177c-.021-.222-.041-.442-.063-.661a17.96,17.96,0,0,0-2.566,9.784,19.818,19.818,0,0,0,.857,6.027,15.98,15.98,0,0,0,2.618,4.969,18.652,18.652,0,0,0,3.836,3.554l-.187-.45.414-.181q.205.446.414.9l.587.529a15.059,15.059,0,0,0,2.488,1.189l.119-.185.1.259a15.144,15.144,0,0,0,2.182.605,30.634,30.634,0,0,0,6.31.623,36.043,36.043,0,0,0,7.371-.637,11.533,11.533,0,0,0,4.656-1.915l.38-1.276.245-.814q.542-3.013.623-3.447c.123-.548.213-1.1.287-1.657l-.026-.047ZM417.8,1.248c.027-.058.056-.116.081-.175l.136-.309.234.243q.133.139.272.275l.115.111-.066.145c-.1.222-.2.446-.309.669l-.149.32-.228-.269c-.023-.027-.052-.053-.081-.081-.109-.1-.246-.23-.208-.408a2.41,2.41,0,0,1,.2-.522M408,1.225l.05-.071a4.277,4.277,0,0,1,.31-.407c.1-.118.215-.086.333-.019L408.732.7l-.011.047c.033.021.067.043.1.067l.384.255-.8.545-.236,0h-.006l-.291,0h-.154l-.276,0Zm-2.27.064-.9.8-.245-.948Zm-3.522,5.617.292,1.258-.933-.179Zm-5.479,19.48L396.683,26c-.007-.063-.017-.127-.028-.188a2.114,2.114,0,0,1-.035-.538.555.555,0,0,1,.25-.356.869.869,0,0,0,.084-.074l.193-.2.656.958Zm23.151,6.02-.005.011-.006,0-.092.117-.081-.044c-.07.029-.141.058-.211.089-.089.078-.178.155-.273.227a.282.282,0,0,1-.179.058.646.646,0,0,1-.147-.022l-.829-.09.714-.351.467-.208.071-.063.129-.115.762-.742.336.3Zm3.316.964-.071.119-.018.123-.347.046h-.007l-.225.03-.24.032.2-.332-.1-.743.361.307.6-1-.2,1.368Zm1.356-4.784c-.171.19-.328.383-.464.55-.306.376-.474.582-.654.582a.294.294,0,0,1-.11-.025,6.78,6.78,0,0,1-1.2-.725c-.131-.092-.263-.183-.394-.272l-.29-.194.294-.185a3.238,3.238,0,0,0,.271-.2,1.354,1.354,0,0,1,.781-.387h0a3.066,3.066,0,0,1,1.066.274c.18.068.377.143.6.214l.332.108Z" transform="translate(-314.392 -0.228)" fill="#070203"/>
      <path id="パス_71872" data-name="パス 71872" d="M406.277,32.317l.086-.208c-.116-.054-.238-.1-.352-.154.066.094.142.184.206.277l.06.085" transform="translate(-313.972 0.711)" fill="#070203"/>
      <path id="パス_71873" data-name="パス 71873" d="M445.645,16.811l-.309-.007-.275.362-.477-.377-2.955-.061a10.665,10.665,0,0,1-1.276-.162q-.08-1.517-.08-1.928,0-.46.026-.895c.037-.489.055-.779.055-.869,0-.164-.008-.408-.026-.734l.026-3.447c0-.145-.008-.316-.026-.515V7.961l.053-.928.027-1.193-.027-.436-.081-1a.86.86,0,0,1,.6-.789l4.779-.76c.035-.185.039-.376.057-.564a4.487,4.487,0,0,1-.563.152.349.349,0,0,1-.056.005c-.22,0-.358-.258-.561-.635-.062-.116-.125-.233-.181-.323l-.137-.214.23-.111c.147-.071.293-.147.441-.223.025-.013.051-.026.076-.038-.3-.022-.6-.033-.908-.029a5.408,5.408,0,0,0-1.248.136q-3.475.272-4.372.272-.57,0-1.316-.04t-1.48-.041q-1.6-.028-4.914-.38c-.252.018-.705.027-1.356.027a8.191,8.191,0,0,0-1.522.108,3.478,3.478,0,0,0-.162.9c0,.115.018.359.053.72q.1.145.21.331a5.2,5.2,0,0,0,.931.172l.308.08c0-.021-.019-.035-.018-.059a.454.454,0,0,1,.23-.321c.024-.018.046-.034.066-.05l.172-.16.506.589-.106.1c.343.035.685.079,1.025.131l.095-.952.328.283c.019.016.042.033.066.05.108.079.256.185.2.363-.037.116-.081.228-.122.341.149.028.3.053.441.067a1.915,1.915,0,0,1,.475.109,3.274,3.274,0,0,1,.218.652c.037.3.057.607.086.911L432.986,5l.705.476L433.1,6.519l-.13-.112c.03.525.055,1.05.059,1.577V9.151l.028,2.363L433,13.682a.271.271,0,0,0,.025-.023l.2-.2.1.168.009-.07c.019-.118.039-.239.056-.366l.043-.344.3.177c.112.067.23.125.338.177.29.141.521.253.534.483a2.031,2.031,0,0,1-.174.81c-.034.094-.068.187-.095.281l-.073.247-.235-.1c-.064-.028-.142-.053-.221-.079a1.257,1.257,0,0,1-.42-.2l-.069.183-.274-.32.006.074q0,4.479-.082,5.592l-.026.653c0,.449.006,1.013.015,1.632H433l-.033.227c.017,1.007.046,2.2.089,3.623l-.095,1.811c.367-.071.741-.135,1.107-.192l.262-.041.14-.091.4-.807v.549l.344-.221-.294.59a1.873,1.873,0,0,1,1.5,1.1,3.578,3.578,0,0,1-.008,1.764,4.587,4.587,0,0,0-.1,1.218c.021.159-.109.269-.222.347a1.222,1.222,0,0,1-.574.227.33.33,0,0,1-.152-.033c-.325-.171-.873-.519-.9-.929-.062-.894-.052-1.8-.043-2.681,0-.184,0-.369.005-.553l-1.52.981L432.7,33.1a13.472,13.472,0,0,1-1.494.436l-3.4.6a13.571,13.571,0,0,0-.164,1.926,45.461,45.461,0,0,0,5.268-.214l.051,0,.021-.033c.036-.057.068-.119.1-.184a.987.987,0,0,1,.407-.493c.2-.094.412.034.617.16.062.037.122.075.18.1l.211.1-.109.208c-.008.016-.016.038-.025.057l.447-.021q2.443,0,3.8.136l3.828.163a4.077,4.077,0,0,0,.461.027c.344.018.716.027,1.113.027q.679,0,1.656-.027a6.119,6.119,0,0,0,.109-.978,8.2,8.2,0,0,0-.082-.84,1.8,1.8,0,0,0-.6-.245,2.815,2.815,0,0,1-.461-.136l-3.991-.624-.271-.163a12.973,12.973,0,0,1-.082-1.44V23.217c0-.145-.018-.462-.055-.95v-.354l.106-2.034a4.209,4.209,0,0,1,1.168-.19h.761c.324,0,.723-.009,1.193-.028a4.1,4.1,0,0,1,.434-.026l.19.026.244.028.7.007,1.082-1.045c.02-.036.039-.073.058-.109a.6.6,0,0,1,.188-.2l-.263-.384.354-.278.058.061a1.835,1.835,0,0,1,.155.18c.03.042.056.089.082.133l.32-.251-.182.728h0l-.106.424-.132-.194-.168.162c-.139.259-.273.521-.409.781l1.865.02.018-.3-.2-.167.2.066.1-1.663.377.692c.013.025.029.048.044.072a.581.581,0,0,1,.131.349.534.534,0,0,1-.171.326.585.585,0,0,0-.053.063l-.177.241.427.139.036-.1.013.01.327-2.635-1.414-.007Zm-7.1,15.866-.547.291-.078-1.988-.589.346.355-.692s.028-.053.052-.1l-.028-.045.01-.011-.282-.569.912.558.219.134-.209.123v.031c.23.462.464.939.668,1.422.094.2-.04.274-.486.5" transform="translate(-313.332 -0.211)" fill="#070203"/>
      <path id="パス_71877" data-name="パス 71877" d="M390.143,33.859a6.52,6.52,0,0,1-2.078-1.043,20.985,20.985,0,0,1-2.132-3.271l-.34-.552a3.721,3.721,0,0,1-.435-.218l-.167-.028-.174-.032-.213.093-.048-.48V28.32l-.061-.586.411.373.059.034c.02-.012.04-.024.062-.035l.013-.008L382.757,24.4l-.38.01-.027-.5-1.311,0,1.194-.357-.645-1.044q-.706-1.14-1.846-2.769a15.722,15.722,0,0,1-.869-1.33,10.825,10.825,0,0,0,5.039-2.913l-.647-.312.544-.572.145.067a.794.794,0,0,0,.079.029.53.53,0,0,1,.312.21.276.276,0,0,1,.019.095,7.813,7.813,0,0,0,1.767-4.967,8.417,8.417,0,0,0-3.284-6.5Q379.559.712,373.994.713a65.709,65.709,0,0,0-6.706.325l-3.4.163-1.441.081q-.164,0-2.119-.163-1.9.026-2.524.027a15.856,15.856,0,0,0-2.5.217l-.109.3.056,1.629c.436.081,1.287.162,2.5.243l.341-.811.441.911,1.249.254q.137,1.575.136,7.222,0,2.579-.08,5.538l-.056,1.466.056,2.525-.109,3.258.027,6.054q0,2.225-.055,2.606a6.845,6.845,0,0,1-.163.788,11.568,11.568,0,0,1-2.5.583,6.207,6.207,0,0,0-2.09.557,6.232,6.232,0,0,0-.081.842c0,.127.019.417.055.869h1.162a28.545,28.545,0,0,0,3.123-.19l3.746-.244q.3-.026,1-.027,1.087,0,6.923.515l1.121-.055q.136,0,.652.027a13.785,13.785,0,0,0,.107-2.009,22.259,22.259,0,0,0-3.638-1.03,6.256,6.256,0,0,1-.822-.215c-.049.222-.119.443-.188.659-.057.176-.114.352-.158.527l-.091.368-.279-.254c-.16-.143-.327-.281-.493-.418a4.969,4.969,0,0,1-1.18-1.211c-.163-.272.054-.615.414-1.185.16-.25.342-.54.514-.859l.172-.321.081.114a2.308,2.308,0,0,1,.111-.3l.072-2.719-.111-6.029a18.379,18.379,0,0,1,.082-1.873q1.3-.054,1.846-.055a5.082,5.082,0,0,1,2.8.57,10.625,10.625,0,0,1,.99,1.3c.08-.109.185-.234.337-.407.1-.113.2-.228.275-.321l.168-.208.787.876c.5.551.994,1.1,1.472,1.668.254.3.481.626.7.941.022.029.04.058.062.086l.461-1.11v0l.112-.273v0l.138-.55.273.515c.045.082.09.169.135.256l.522,1.008-.8-.643c-.147.4-.3.8-.439,1.215l.413.246-.645.084c-.124.016-.262.051-.4.085a2.664,2.664,0,0,1-.614.107.505.505,0,0,1-.369-.126c-.641-.62-1.227-1.274-1.75-1.891.025.055.051.105.074.16q2.905,5.754,4.1,8.388.46,1.005,1.6,3.042l.927,1.791q.434-.054,1.168-.136c1.068-.128,1.7-.19,1.9-.19l2.714.023a14.127,14.127,0,0,1,2.147.142h1.113l1.412.19.543-.027h.733q.026-.38.027-.624a2.475,2.475,0,0,0-.162-.814,8.6,8.6,0,0,0-1.873-.927m-5.522-21.232.334,1.05-.943-.133ZM360.791,1.837l.377,1.033-1-.128Zm0,7.575-.125-.254c-.044-.089-.1-.176-.145-.264a2.211,2.211,0,0,1-.316-.761c-.046-.315.465-.681.471-.684a.313.313,0,0,1,.334-.056,2,2,0,0,1,.231.16l-.8-.758,1.106-1.257.131.356c.025.065.056.131.086.2a1.252,1.252,0,0,1,.162.587,1.511,1.511,0,0,1-.211.6c-.037.069-.071.137-.1.206l-.117.273c.06.053.117.1.178.16.081.073.163.149.254.229l.2.176Zm19.971-4.086.373.7a.769.769,0,0,0,.048.074.582.582,0,0,1,.127.343.541.541,0,0,1-.17.328.491.491,0,0,0-.055.062l-.452.617Zm.73,1.806.312.07.01,0,.356.081.156.035h0l.044.009-.471.28-1.858,1.254ZM377.987,8.9l-.8-.771a10.691,10.691,0,0,1,.354,2.763,5.547,5.547,0,0,1-1.927,4.427q-1.929,1.656-6.543,1.656-.6,0-1.9-.055v-.757q.026-1.981.081-3.231l-.027-2.959.057-2.234-.027-3.665.027-.515a14.652,14.652,0,0,1,2.145-.136,12.926,12.926,0,0,1,3.828.412,6.3,6.3,0,0,1,2.632,1.6,5.706,5.706,0,0,1,1.181,2.239c.027.091.047.182.072.274l1.676-1.621c.022-.037.041-.075.062-.112a.574.574,0,0,1,.187-.2l-.262-.382.354-.28.059.063a1.483,1.483,0,0,1,.154.178c.03.042.055.089.081.133l.292-.23-.151.7-.095.448-.146-.214-.171.164c-.268.5-.528,1-.788,1.505Zm3.763,22.716c-.028.022-.057.042-.079.063l-.169.161-.154-.173c-.02-.023-.046-.045-.072-.07a.4.4,0,0,1,.031-.725c.027-.022.055-.041.077-.063l.169-.16.154.174c.022.023.048.046.074.069a.5.5,0,0,1,.215.374.488.488,0,0,1-.246.35m.156-5.892h-.313l.447-1.336.248.176c.048.035.1.066.148.1a1.567,1.567,0,0,1,.392.317.549.549,0,0,1,.016.491.339.339,0,0,1-.229.235,1.756,1.756,0,0,1-.335.028c-.066,0-.132,0-.195,0s-.122,0-.181,0m2.4,5.967-.7-.038-.153.239-.114-.121-.456.675-.612-1.089.363-.02.279-.014-.161-.169.44.024.085-.127.108.113.512-.789.642.866.032.012.146.007.06.344h0l.159.91.005.031,0,.021Z" transform="translate(-315.486 -0.214)" fill="#070203"/>
      <path id="パス_71884" data-name="パス 71884" d="M447.392,19.187l.34,0-.211-.18Z" transform="translate(-312.748 0.328)" fill="#070203"/>
      <path id="パス_71888" data-name="パス 71888" d="M467.345.988l-.95.055-3.529.108c-.235.019-.552.027-.95.027a40.135,40.135,0,0,1-5.13-.324L454.151.826q-.136,0-.733.028A7.736,7.736,0,0,0,453.2,2.4a7.68,7.68,0,0,0,.977.271,16.792,16.792,0,0,1,3.8,1.222.816.816,0,0,1,.38.353l.19,1.9.163,4.615-.055,1.222q-.026,3.6-.081,4.53a10.657,10.657,0,0,1-1.956.19l-4.751.136-3.291-.018.381,1.018c.159.432.318.865.5,1.288.091.213.2.418.318.627l6.544.071q1.168.026,2.171.108a31.345,31.345,0,0,0,.163,3.447l-.027,2.307a64.064,64.064,0,0,1-.325,7.3q-.516.164-.841.244l-2.2.353-2.09.489a11.017,11.017,0,0,0-.136,1.765,3.263,3.263,0,0,0,.927.163c.253-.025.482-.043.725-.066l0-.063.417.025c1.834-.163,3.384-.249,4.618-.249,1.741,0,3.223.024,4.457.069a.286.286,0,0,1-.042-.074.97.97,0,0,1,.111-.64,2.215,2.215,0,0,0,.079-.212l.081-.264.242.13c.063.034.131.063.2.092a1.128,1.128,0,0,1,.53.362c.122.185.007.409-.1.626a.306.306,0,0,0-.014.031c.623.034,1.172.075,1.626.125.589.058,1.139.1,1.658.125l.108-.288.244.2c.026.021.06.044.094.067l.055.038c.279.009.57.024.828.024l.338-.005-1.063-.553.278-.216c.122-.1.243-.2.365-.3A5.993,5.993,0,0,1,470.9,34.2a.276.276,0,0,1,.166-.024l0-.047a21.08,21.08,0,0,0-3.855-1.113q-.488-.11-1.058-.273.056-1.276.055-2.171l-.055-3.2v-3.85q-.108-3.691-.081-4.885l.011-.694c-.14-.116-.216-.229-.18-.362a1.685,1.685,0,0,1,.193-.427l.031-1.965L466.1,12.58V9.133q0-.136-.027-1.358V7.1q0-.3.055-.869l.027-.353-.027-.706V4.707l.163-.542c.242-.127.489-.241.741-.345l-.013-.016-.009-.681,0-.187.375.424.094.06c.079.05.152.106.229.16.05-.016.1-.038.148-.054q.774-.23,3.271-.746a19.278,19.278,0,0,0,.136-1.926q-1.112-.082-1.9-.082a9.284,9.284,0,0,0-2.009.217M462.9,13.294c-.023.075-.048.17-.073.267-.1.4-.154.588-.355.588h-.03c-.547-.048-1.093-.135-1.624-.221l-.282.009s-.063,0-.125.006l-.7.148.344-.466.005-.008a.286.286,0,0,1,.032-.042l.092-.125.054-.072.029-.039.141.066.206.033,2.4-.511Zm2.717,9.9c-.077.069-.15.146-.217.218-.163.174-.308.327-.484.327a.333.333,0,0,1-.07-.008,3.325,3.325,0,0,1-.8-.334c-.092-.047-.185-.1-.278-.141l-.267-.127.193-.224c.062-.072.128-.165.195-.258.224-.314.4-.568.648-.5a2.064,2.064,0,0,1,.778.469c.092.076.186.153.285.225l.229.165Z" transform="translate(-312.713 -0.212)" fill="#070203"/>
      <path id="パス_71892" data-name="パス 71892" d="M352.411,33.6a3.1,3.1,0,0,1-1.588-.543,4.215,4.215,0,0,1-.814-1.33,36.168,36.168,0,0,1-1.493-3.475q-.95-2.553-1.493-3.828-.924-2.117-2.2-5.47t-2.878-6.909l-1.7-4.02-.054.385-.249-.232-1.986.163.258.146-.319.033.291.455-.985.659-.107-.515a3.1,3.1,0,0,1-.08-.509l-.5.053.444-.4L337,8.118a.2.2,0,0,1,.194-.158V7.95l.094-.008.447-.037,2.018-.273.107-.3,0-.01c0-.07,0-.14,0-.21L337.223.855l-.244-.489h-1.222q-.814,0-1.71-.027L327.97,16.285c.054-.036.106-.073.159-.112a1.488,1.488,0,0,1,.628-.328c.213-.043.413.124.583.266a1.955,1.955,0,0,0,.167.131l.308.2-.322.181c-.058.032-.114.071-.172.108a1.09,1.09,0,0,1-.551.241h-.028a1.411,1.411,0,0,1-.573-.167c-.067-.031-.134-.063-.2-.088l-.142-.053-.211.555-2.1,5.491.227-.039.093-.556,1.269.672-.907.385a.928.928,0,0,1-.22.094l-.352.115h0l-.3.1.326-.452-.217-.093-3.3,8.644a4.878,4.878,0,0,1-1.1,1.574,8.461,8.461,0,0,1-2.538.733,17.734,17.734,0,0,0-1.819.412l-.055,1.846h.488a23.963,23.963,0,0,0,3.828-.325l1.119-.185q6.347.46,8.031.461a3.844,3.844,0,0,0,.055-.624q0-.38-.027-1.357-1.683-.244-1.927-.3a4.921,4.921,0,0,1-2.389-.733,1.205,1.205,0,0,1-.38-1,7.307,7.307,0,0,1,.515-1.956q1.792-5.08,2.362-6.383l10.37.027,2.144,5.321,1.081,2.66a2.2,2.2,0,0,1,.136.733.858.858,0,0,1-.272.624,5.7,5.7,0,0,1-1.569.543l-3.014.652q-.082.868-.081,1.819l1.33-.055,4.615-.244q.95-.054,3.095-.055,1.923,0,4.341.187t4.427.19c.017-.271.027-.471.027-.6a9.953,9.953,0,0,0-.136-1.33,10.151,10.151,0,0,0-2.375-.624M334.718.6l.878.414-1.219.7Zm2.151,20.377q-1.14,0-7.492-.081l.594-1.585a.714.714,0,0,1-.021-.255.342.342,0,0,1,.21-.25l3.149-8.392q.817,1.688,2.121,4.9t2.118,5.633Zm1.65-6.484c-.074.016-.137.033-.191.048a1.194,1.194,0,0,1-.309.057c-.022,0-.045,0-.069,0-.181-.025-.23-.2-.265-.329-.009-.03-.016-.061-.026-.084l-.156-.421,1.872.538Z" transform="translate(-316.618 -0.225)" fill="#070203"/>
      <path id="パス_71883" data-name="パス 71883" d="M470.328,35.025l.174,0-.006-.127Z" transform="translate(-312.069 0.798)" fill="#070203"/>
      <path id="パス_71885" data-name="パス 71885" d="M525.151,1.142q-2.2,0-4.507-.217c-.419-.04-.785-.073-1.113-.1l-.521.005.02-.047c-.586-.047-1-.074-1.182-.074a12.042,12.042,0,0,0-.108,1.249,3.107,3.107,0,0,0,.163.814,10.168,10.168,0,0,0,1.113.176,6.164,6.164,0,0,1,1,.176,5.117,5.117,0,0,1,2.574.76,1.1,1.1,0,0,1,.515.9,6.067,6.067,0,0,1-.475,2.037q-.476,1.249-1.181,3.665-.218.727-.353,1.14l-.761,1.9-3.23,8.957-1.575,3.855q-.732-1.818-1.629-3.855L512.9,20.19a5.6,5.6,0,0,1-1.1.79,3.642,3.642,0,0,1-.864.272l-.067.015.332.548-.62-.239c-.066-.026-.118-.046-.173-.062a.229.229,0,0,1-.149-.268l-.01,0,.022-.07c.008-.035.016-.07.028-.11l.137-.516.008.013a2.062,2.062,0,0,1,.432-.9,2.56,2.56,0,0,1,1.436-.55l.1-.016.009,0-1.6-3.621q-2.2-4.747-3.15-7.516l-.9-2.362a3.326,3.326,0,0,1-.055-.6.959.959,0,0,1,.3-.706,4.114,4.114,0,0,1,1.765-.869q.46-.108,3.176-.461c0-.09-.006-.375-.017-.817a1.089,1.089,0,0,1-.59.318.349.349,0,0,1-.132-.026,5.264,5.264,0,0,1-1.586-1.054c-.142-.134-.091-.3.085-.62-.592.082-1.411.164-2.484.245q-2.5.162-3.312.163a80.957,80.957,0,0,1-8.769-.38q-.3-.028-1.71-.055V3.074l1.171.134a7.443,7.443,0,0,1,2.362.461,2.916,2.916,0,0,1,1.03.977q.212.357,2.574,5.4l3.067,7.413,5.13,11.511.185.466.069-.1.178.3c.108.181.227.352.331.5.269.389.429.624.3.838a2.385,2.385,0,0,1-.176.217q1.2,3.029,1.424,3.664.3.842.6,1.656.927.054,1.441.055.27,0,1.357-.055.6-1.466,1.79-5.294l.273-.489q1.14-2.846,1.276-3.258.652-1.741,1.236-3.192t1.073-2.755l3.475-8.986a65.016,65.016,0,0,1,3.157-7.362,2.719,2.719,0,0,1,.733-.9,22.935,22.935,0,0,1,4.1-1.738q.026-.652.027-.977V.7q-1,.025-2.606.231a31.114,31.114,0,0,1-3.855.206m-18.268.8.876.6-.994.374Zm-4.837,1.886-.141-.183a.653.653,0,0,0-.058-.064.464.464,0,0,1-.174-.364.463.463,0,0,1,.251-.311.636.636,0,0,0,.07-.048l.18-.149.481.624Zm4.547,19.944.638-.933.393,1.059Zm3.935-8.53.414,1.016-1.006-.094Z" transform="translate(-311.385 -0.214)" fill="#070203"/>
      <path id="パス_71886" data-name="パス 71886" d="M511.379.738h-.484l.5.474c0-.156-.007-.3-.012-.474" transform="translate(-310.868 -0.213)" fill="#070203"/>
      <path id="パス_71887" data-name="パス 71887" d="M565.815,25.354q-.544,0-1.385.081a13.825,13.825,0,0,1-3.067,5.1,6.381,6.381,0,0,1-3.2,1.819,30.744,30.744,0,0,1-6.279.569l-.393.273,0,0,.011.016-.054.118-.116.357-.032-.038-.344.744.823-.159-.364,1.038c.908.025,1.775.054,2.595.088q6.6.272,8.117.272,1.032,0,2.8-.081l.489-3.095,1-5.13.163-.814q.054-.462.136-1.14-.6-.026-.9-.027" transform="translate(-309.683 0.516)" fill="#070203"/>
      <path id="パス_71890" data-name="パス 71890" d="M538.1,24.67l0,0,0-.005Z" transform="translate(-310.063 0.495)" fill="#070203"/>
      <path id="パス_71891" data-name="パス 71891" d="M551.5,33.915l-.073-.088.145-.1.032-.082c-3.344-.024-5.38-.211-6.07-.565a1.444,1.444,0,0,1-.733-1.412l.055-5.869q-.108-2.145-.108-5.376,0-.221.027-.927,2.063-.218,6.162-.217a21.376,21.376,0,0,1,4.015.19,1.967,1.967,0,0,1,1.086.733c.074.152.138.31.2.465l.2.18-.076.1a10.97,10.97,0,0,1,.65,2.406q.3,1.358.412,1.792h1.927v-.6q0-.786-.081-2.4c-.013-.277-.026-.533-.036-.771l-.179,1.219.045.048-.069.117-.019.125-.351.046h0l-.224.03-.239.032.2-.33-.1-.744.362.308.575-.958c-.027-.632-.041-1.128-.041-1.471q0-.462.041-1.276t.041-3.665q0-1.249-.108-3.665l-1.574-.027-.353.027a37.084,37.084,0,0,1-.95,3.991,2.8,2.8,0,0,1-.869,1.181,6.732,6.732,0,0,1-2.552.529q-2.063.19-6.923.19A10.064,10.064,0,0,1,544.771,17v-3.42l-.055-4.561q0-4.669.081-5.348,2.607-.108,5.918-.108,2.905,0,5.429.217,1.384.11,1.656.136a7.264,7.264,0,0,1,1.737.217,12.492,12.492,0,0,1,1.737,2.5l1.086,1.927q.408,1.059.652,1.6.71.054.927.055l1.113-.055c.018-.217.027-.381.027-.489l-.055-1.113V2.965a2.107,2.107,0,0,0-.489-1.466,42.417,42.417,0,0,0-4.886-.412l-4.913.055q-4.886,0-10.94.244-4.045.162-5.022.163a36.593,36.593,0,0,1-4.968-.3c-.3-.043-.641-.078-.985-.112v.008l.027.054-.058.075-.08.337-.1-.1-.536.7.159-1.064-.026-.025.016-.038c-.352-.029-.706-.057-1.1-.077l-.141,2.17q.68.082,1.194.108a17.758,17.758,0,0,1,2.986.38q.516.108.814.163a1.324,1.324,0,0,1,.814.38,5.078,5.078,0,0,1,.055.543l.244,3.367-.027,3.067.132,4.208,1.2.437-.184.243c-.076.1-.151.2-.227.3a8.549,8.549,0,0,1-.731.907c-.02.021-.045.018-.067.029l-.011,1.283.045,5.716.78.7.356-.151-.135.352.128.114.549-.851.387,1.013-.925-.1.339.171-.8.17-.612,1.751-.046-.054.01,1.4-.027.841q.028,1.114.027,1.574a5.638,5.638,0,0,1-.3,1.982,13.123,13.123,0,0,1-3.912.869,16.733,16.733,0,0,0-2.059.3V36.28l3.284-.108h1.14q4.75-.272,8.008-.272,4.386,0,7.913.086l-.345-.424-.081-.078.006-.015-.141-.173.23-.058Zm-9.052-5.757-.775-.61c-.065.005-.131.012-.191.012a.541.541,0,0,1-.389-.123,1.893,1.893,0,0,1-.4-.669c-.038-.088-.075-.175-.116-.256l-.134-.263.287-.061c.064-.013.136-.038.207-.061.246-.079.477-.154.637,0a3.4,3.4,0,0,1,.523.709c.067.107.135.219.213.336l.083.127.256-.061Zm.328-4.883a4.04,4.04,0,0,0-.4.085,2.747,2.747,0,0,1-.612.106.507.507,0,0,1-.369-.127,31.358,31.358,0,0,1-2.667-3c-.154-.2,0-.372.416-.845.1-.114.2-.229.278-.324l.167-.209.793.884c.5.549.989,1.1,1.467,1.66.254.3.479.626.7.94.09.129.178.257.269.384l.605.367Z" transform="translate(-310.274 -0.205)" fill="#070203"/>
      <path id="パス_71896" data-name="パス 71896" d="M489.644.951q-3.529.218-5.13.217-.351,0-1.792-.055L474.958.788l.081,2.39a9.169,9.169,0,0,0,.95.08,10.625,10.625,0,0,1,3.611.652,6.149,6.149,0,0,1,.19.869l.012.55.141-.233.391,1.009-.513-.045.131,2.982-.081,1.466.055,3.611q0,.164-.19,5.538l.027,1.466-.055,6.19.027,3.2a4.676,4.676,0,0,1-.489,2.335,12.044,12.044,0,0,1-2.634.9q-1.249.3-1.792.461v.559l.471.227-.2.3,1.479.262-1.652.158-.1.011v.438h0q.542-.026,2.334-.189,2.74-.272,4.181-.272l1.214.013a.7.7,0,0,1-.163-.444,2.606,2.606,0,0,1,.4-1.074c.1-.182.207-.385.315-.619l.177-.383.22.36c.136.222.273.411.391.573.255.349.44.6.381.874a2,2,0,0,1-.358.727l2.224.024q3.231.326,3.611.381a5.394,5.394,0,0,0,.706.08c.091,0,.425-.018,1-.055a3.981,3.981,0,0,1,.543-.026q.026-.629.027-.928a10.694,10.694,0,0,0-.108-1.357q-1.412-.19-1.656-.216a27.834,27.834,0,0,1-3.014-.49,2.614,2.614,0,0,1-.108-.624l.027-1.03-.014-1.4-.963.717-.576-1.434.241-.069a2.094,2.094,0,0,0,.207-.074,1.017,1.017,0,0,1,.66-.1c.218.067.272.319.328.586.017.079.033.158.054.222l.048.151-.04-4.027.081-3.639-.027-7.167q0-2.469.081-7.058a17.741,17.741,0,0,1-.081-1.9,9.584,9.584,0,0,1,.163-2.037,18.153,18.153,0,0,1,2.294-.692q1.4-.34,2.484-.721.054-.732.055-1.194,0-.354-.027-.869-.516.028-2.5.163m-9.39,16.413.05-.3c0-.032.006-.066.009-.1a.548.548,0,0,1,.132-.391.517.517,0,0,1,.407-.1c.034,0,.067,0,.1,0l.16-.01.315.749Zm4.489,13.58c-.1.124-.195.239-.278.346a3.035,3.035,0,0,1-.64.674.245.245,0,0,1-.141.042.546.546,0,0,1-.257-.09c-.026-.015-.622-.371-.593-.707a1.828,1.828,0,0,1,.353-.808c.058-.091.116-.181.166-.272l.109-.2,1.457.805Zm.209-9.286-.683-.341.791-.674.485.652Z" transform="translate(-311.936 -0.211)" fill="#070203"/>
    </g>
    <g id="グループ_6804" data-name="グループ 6804" transform="translate(0)">
      <g id="グループ_6783" data-name="グループ 6783" transform="translate(111.709 1)">
        <path id="パス_71876" data-name="パス 71876" d="M134.23,16.83l-.21.006-4.886-.027h-1.956l-4.015-.081c-.273-.019-.543-.065-.813-.1a5.029,5.029,0,0,1-.627.181l-.069.016.333.555-.621-.248c-.056-.022-.111-.045-.17-.062a.229.229,0,0,1-.149-.268l-.01,0,.021-.07c.008-.035.016-.07.028-.11l.139-.514.007.012a2.056,2.056,0,0,1,.432-.9,1.071,1.071,0,0,1,.154-.117c-.007-.2-.011-.36-.011-.459,0-.308.008-.606.027-.9q.054-.734.055-.869,0-.244-.027-.733l.027-3.448c0-.144-.009-.316-.027-.515V7.96l.055-.927.027-1.194-.027-.434-.081-1a.856.856,0,0,1,.6-.788l1.125-.179-.127-.241,2.607-.44.019.107.136.037.072-.048.06.085v0l.035.05.853-.135a6.4,6.4,0,0,0,.108-1.058q0-.244-.027-.814a10.964,10.964,0,0,0-1.683-.108,5.362,5.362,0,0,0-1.249.136q-3.475.272-4.371.272-.571,0-1.317-.041T117.19,1.2q-1.6-.026-4.913-.38c-.162.011-.414.019-.737.023l.259.568-.612.576-.208-.433a2.912,2.912,0,0,1-.213-.5.227.227,0,0,1,.036-.2,8.1,8.1,0,0,0-1.4.105,3.444,3.444,0,0,0-.163.9q0,.218.081,1a5.244,5.244,0,0,0,1.113.217l.412.108a20.722,20.722,0,0,1,2.253.272c.181.036.357.064.529.081a1.935,1.935,0,0,1,.475.108,3.3,3.3,0,0,1,.217.652,33.03,33.03,0,0,1,.244,3.692V9.151l.027,2.362-.055,2.281.055.788q0,2.218-.021,3.609l.065.1-.067.045c-.013.865-.033,1.483-.059,1.837l-.027.652q0,1.818.108,5.484l-.353,6.787a13.676,13.676,0,0,1-1.493.434l-3.4.6a13.573,13.573,0,0,0-.163,1.927h.006a45.673,45.673,0,0,0,5.267-.214c.069-.01.243-.023.5-.038a6.372,6.372,0,0,1,.135-.975c.063-.278.449-.489.762-.617.155-.062.946-.363,1.32-.123a4.044,4.044,0,0,1,1.438,1.682c.594.023,1.112.055,1.542.1l3.828.163a3.625,3.625,0,0,0,.461.027q.516.026,1.113.027.678,0,1.656-.027a6.222,6.222,0,0,0,.108-.977,8.218,8.218,0,0,0-.081-.841,1.8,1.8,0,0,0-.6-.244,2.857,2.857,0,0,1-.461-.136l-3.991-.624-.272-.163a12.965,12.965,0,0,1-.081-1.441V23.216c0-.145-.019-.461-.055-.95v-.353l.1-2.037a4.2,4.2,0,0,1,1.168-.19h.76q.488,0,1.194-.027a4.084,4.084,0,0,1,.434-.027l.19.027.244.027,1.932.021c-.445-.488-.9-.993-1.335-1.509-.141-.173-.006-.314.219-.55.177-.185.306-.318.474-.19.532.415,1.042.848,1.535,1.267l.344.292-.533.7,5.769.062,0-.009c-.022-.992-.034-1.963-.045-2.936m-17.648,4.916c.005-.029.008-.06.011-.091a.665.665,0,0,1,.112-.352.434.434,0,0,1,.372-.127.684.684,0,0,0,.08,0l.183-.022.246.78-1.064.111Zm1.218,2.84,0,0-.106.11,0,0-.244.249-.128-.317c-.014-.035-.027-.073-.039-.111l-1.147-.529.983-.019a.6.6,0,0,0,.07-.007.386.386,0,0,1,.372.094.594.594,0,0,1,.08.129l.382.174Zm-.413-5.26.64-.933.39,1.059Zm3.237,7.212a4.085,4.085,0,0,1-.819.871c-.109.1-.219.193-.323.292l-.183.175-.152-.2c-.056-.072-.13-.152-.2-.233-.238-.256-.445-.479-.349-.711a4.97,4.97,0,0,1,.648-1.031c.116-.156.243-.327.377-.52l.2-.288.178.3c.107.182.225.353.329.5.27.389.43.625.3.839m.7-15.743.411,1.016-1.006-.094Zm10.37,7.334-.235.107a.206.206,0,0,1-.1.029.255.255,0,0,1-.167-.072l-.005.005-.056-.059-.291-.3,2.592-.493Z" transform="translate(-109.181 -0.192)" fill="#070203"/>
        <path id="パス_71878" data-name="パス 71878" d="M236.215,1.058a48.224,48.224,0,0,1-4.968.244l-5.185-.217h-2.145l-.008.292.133.567-.147-.028-.032,1.227.353.081,2.552-.055a2.744,2.744,0,0,1,1.956.841,3.481,3.481,0,0,1,.6,2.145L229.43,7.6q.706,8.225.706,14.8a21.881,21.881,0,0,1-.515,5.565,10.654,10.654,0,0,1-1.352,2.8,6.542,6.542,0,0,1-1.647,1.561,8.025,8.025,0,0,1-2.511,1.236,16.767,16.767,0,0,1-4.86.679,9.957,9.957,0,0,1-4.474-1.141,6.006,6.006,0,0,1-2.443-2.253,10.4,10.4,0,0,1-1.3-4.913l-.353-6.814.108-4.7-.163-2.171.055-2.552-.027-.977q-.028-.542-.027-1.412,0-2.851.325-3.231a2.558,2.558,0,0,1,2.009-.6,22.275,22.275,0,0,0,3.031-.2c-.018-.183-.034-.367-.053-.549l-.117-.88-.026-.053-.119-.119.152-.067-.047-.466.267.267.011-.014.023-.275q-.571.028-2.186.055t-3.692.123q-2.077.1-4.248.095-.625,0-4.208-.19-1.495-.082-2.851-.081-.516,0-1,.027l.081,2.145h0a6.654,6.654,0,0,0,1.136.082,8.77,8.77,0,0,1,3.135.519.2.2,0,0,1,.257-.056c.477.239.939.49,1.4.741l.067.036.492-.308-.2.468.161.086-.116.073.543.383-1.313.025.111-.27-.637-.212a27.78,27.78,0,0,1,.248,4.649l-.027,12.949a30.779,30.779,0,0,0,.412,5.755,10.335,10.335,0,0,0,1.387,3.73l1.224-1.138-.961,1.519c.148.219.287.445.453.653a10.633,10.633,0,0,0,4.548,2.959,20.624,20.624,0,0,0,7.226,1.126,23.35,23.35,0,0,0,6.461-.8,14.374,14.374,0,0,0,4.609-2.16,10.928,10.928,0,0,0,2.851-3,9.5,9.5,0,0,0,1.03-2.959,45.75,45.75,0,0,0,.38-7.413l-.272-5.511q-.056-2.008-.136-3.964-.028-.57-.041-1.113t-.013-1.493a23.186,23.186,0,0,0-.081-2.362q-.082-.922-.081-1.412a1.254,1.254,0,0,1,.38-1,7.319,7.319,0,0,1,2.009-.412,8.907,8.907,0,0,0,2.118-.353,3.146,3.146,0,0,0,.108-.733,8.363,8.363,0,0,0-.163-1.249ZM213.329,33.229a1.833,1.833,0,0,0-.171.109,1.1,1.1,0,0,1-.554.24h-.029a1.4,1.4,0,0,1-.57-.168c-.067-.031-.135-.063-.2-.088l-.43-.156.387-.246c.069-.044.137-.095.206-.145a1.5,1.5,0,0,1,.628-.329c.218-.045.413.124.584.266a1.656,1.656,0,0,0,.166.132l.308.2ZM232.548,18.22l-.972-.15.624-.855Z" transform="translate(-106.555 -0.185)" fill="#070203"/>
        <path id="パス_71879" data-name="パス 71879" d="M261.559,18.073a11.748,11.748,0,0,0-3.57-2.362,30.315,30.315,0,0,0-4-1.574q-4.941-1.464-6.461-3.067a4.79,4.79,0,0,1-1.548-3.339,4.467,4.467,0,0,1,1.561-3.461,6.088,6.088,0,0,1,4.221-1.4,6.486,6.486,0,0,1,4.86,2.17,14.015,14.015,0,0,1,2.389,4.86l.325.055,1.956.136.272-.081a5.694,5.694,0,0,0,.108-1.058,40.039,40.039,0,0,0-.325-4.343,18.016,18.016,0,0,0-.489-2.8h0a29.119,29.119,0,0,0-4.1-1.142c-.763-.155-1.534-.26-2.308-.34l0,.007L254.428.33c-.51-.053-1.02-.1-1.533-.12q-6.026,0-9.121,3.014a9.848,9.848,0,0,0-3.095,7.331,10.313,10.313,0,0,0,1.113,4.464,9.412,9.412,0,0,0,.594,1.088l.256-.19.073.343c.025.116.057.232.089.347.011.041.02.084.031.126a9.542,9.542,0,0,0,1.646,1.7l.011-.021.055.075c.1.077.185.164.285.238a30.246,30.246,0,0,0,6.923,3.149c.245.086.467.169.7.253-.034-.061-.067-.121-.1-.176l-.125-.055.03-.086-.406-.576.283.126-.128-.274,1.009-.1-.167.49.03-.011a2.667,2.667,0,0,1,.913-.232c.709.008,1.426.073,2.117.135q.422.039.84.073l.292.022-.1.277c-.054.153-.106.348-.16.543-.175.648-.281,1.039-.578,1.045h-.185c-.208,0-.431-.03-.647-.043a9.976,9.976,0,0,1,2.515,1.416,4.748,4.748,0,0,1,.807,6.777,5.939,5.939,0,0,1-2.837,2.051,9.789,9.789,0,0,1-3.231.624,9.1,9.1,0,0,1-3.067-.5,7.791,7.791,0,0,1-2.43-1.357,8.977,8.977,0,0,1-1.859-2.238c-.245-.4-.783-1.562-1.606-3.463l-.63.725-1.084-.865-.861.02V27.5q0,.732.055,2.5.136,3.421.136,3.719v.3a1.037,1.037,0,0,0,.244.515,5.356,5.356,0,0,0,1.71.679l3.258.95a22.985,22.985,0,0,0,4.53.544,18.762,18.762,0,0,0,4.707-.49,12.458,12.458,0,0,0,3.54-1.587,15.687,15.687,0,0,0,2.525-1.913,7.5,7.5,0,0,0,.972-1.187,12.083,12.083,0,0,1-1.25-2.511l-.033-.089.042-.107a6.255,6.255,0,0,1,2-1.155c.223-.081.454-.143.682-.211a13.733,13.733,0,0,0,.2-2.233,10.757,10.757,0,0,0-.611-3.9,10.125,10.125,0,0,0-2.233-3.246m-18.123-3.352-.877-.587.98-.386Zm-.823-1.927-.112-.2c-.034-.063-.083-.137-.131-.212-.187-.292-.312-.485-.161-.653a3.978,3.978,0,0,1,.677-.556c.08-.056.16-.11.236-.169l.211-.156.617,1.164ZM244.9,8.805a5.659,5.659,0,0,1-1,1.064c-.13.116-.259.233-.384.352l-.176.17-.155-.192c-.064-.078-.148-.161-.232-.245-.253-.251-.491-.488-.426-.755a5.58,5.58,0,0,1,.573-1.284c.126-.233.269-.5.427-.814l.173-.343.217.317c.2.3.4.554.56.769.388.509.564.742.421.961m8.283,10.5c-.067.06-.131.123-.194.184a2.8,2.8,0,0,1-.609.492.22.22,0,0,1-.112.033c-.1,0-.253-.068-.529-.355-.1-.1-.248-.26-.145-.431a4.318,4.318,0,0,1,.513-.671l.328-.386.917.98Zm4.29.306-.208-.521a2.7,2.7,0,0,1-.193-.562c-.038-.184.116-.3.252-.4.034-.026.069-.051.095-.075l.245-.225.427,1.107Zm-11.715,14.95a2.085,2.085,0,0,0-.191.084l-.183.1-.638-.988,1.2-.668.083.266c.021.064.048.13.074.2a1.161,1.161,0,0,1,.13.62c-.033.213-.255.3-.472.392m13.4-13.965a.513.513,0,0,1-.367-.255c-.024-.029-.046-.059-.069-.082l-.16-.166.574-.531.174.117.484.438-.182.168c-.025.023-.049.051-.074.079a.515.515,0,0,1-.371.233Zm2.316,5.76c-.056.176-.112.352-.155.527l-.092.368-.28-.255c-.158-.143-.326-.28-.493-.418a5.021,5.021,0,0,1-1.179-1.211c-.163-.271.055-.614.413-1.182.159-.251.342-.542.513-.863l.173-.321.211.3c.189.266.372.486.53.677a2.091,2.091,0,0,1,.6,1.039,3.44,3.44,0,0,1-.244,1.343m-.04-3.259-.846-.673.184-.179c.091-.089.179-.18.269-.272a4.794,4.794,0,0,1,.807-.717c.2-.132.411.035.7.265.081.063.163.127.233.172l.265.176Z" transform="translate(-105.289 -0.21)" fill="#070203"/>
        <path id="パス_71880" data-name="パス 71880" d="M150.941,2.386a.834.834,0,0,1,.679-.163,2.62,2.62,0,0,1,.744.537l.048.041.109-.023c.041-.325.071-.675.095-1.04l-.442-.032.416-.86c-.711-.05-1.325-.077-1.834-.077a9.219,9.219,0,0,0-2.009.217l-.95.055-3.529.108q-.352.026-.95.027c-.458,0-.916-.028-1.375-.043l.266.968-.933-.179.6-.791q-1.149-.04-2.292-.146l.035.085-.23.074c-.027.009-.059.024-.09.037a.666.666,0,0,1-.27.078.275.275,0,0,1-.162-.051A.544.544,0,0,1,138.677.9c-.163-.019-.326-.026-.489-.046L135.554.826q-.136,0-.733.027A7.732,7.732,0,0,0,134.6,2.4a7.679,7.679,0,0,0,.977.272,16.69,16.69,0,0,1,3.8,1.222.806.806,0,0,1,.38.353l.19,1.9.163,4.615-.047,1.066.1.038-.109.286c-.018,2.3-.044,3.76-.08,4.362-.046.008-.094.011-.141.02.085.174.17.337.248.485.274.519.456.862.308,1.142a9.108,9.108,0,0,1-1.184,1.613l-.092.109c.264.015.528.03.776.05,0,.03,0,.06,0,.089l.988-.909,1.292,1.469-.284.123a3.737,3.737,0,0,0-.346.177,1.308,1.308,0,0,1-.569.216.406.406,0,0,1-.159-.031,1.872,1.872,0,0,1-.649-.547c-.069-.08-.139-.161-.212-.233l-.058-.057a31.264,31.264,0,0,0,.156,3.151l-.027,2.307a64.077,64.077,0,0,1-.324,7.3c-.345.108-.625.189-.842.244l-2.2.353-2.09.489a11.012,11.012,0,0,0-.136,1.765,3.344,3.344,0,0,0,.927.163q3.53-.354,5.756-.353,4.941,0,7.166.244,1.683.162,2.986.163.19,0,1.276-.027l-.082-1.9a21.162,21.162,0,0,0-3.855-1.113q-.488-.11-1.058-.272.056-1.276.055-2.171l-.055-3.2v-3.85q-.108-3.693-.081-4.886l.055-3.448-.026-2.558-.188-.081.187-.371V9.132q0-.136-.027-1.357V7.1q0-.3.055-.869l.027-.353-.027-.706V4.707l.163-.543a9.018,9.018,0,0,1,1.561-.638c.3-.091.826-.217,1.522-.373-.009-.02-.019-.039-.027-.059a2.924,2.924,0,0,0-.133-.279l-.126-.223.237-.1a2.38,2.38,0,0,0,.217-.109m-7.007,7.365a.844.844,0,0,0,.084-.073l.192-.2.655.958-1.076.781-.043-.385c-.007-.063-.017-.127-.027-.188a2.069,2.069,0,0,1-.035-.538.568.568,0,0,1,.25-.357m.147,11.517-.214.115-.021.025-.063,1.234.02.026.089.084,1.093.138-.607.955-.2-.192q-.244-.238-.49-.473l-.059-.007-.343.363.021-.4-.233-.03.247-.262,0-.059-.875-1.154.9-.49-.146-.159.216-.046.019-.366.27.292.582-.725.851.889-1.07.231Z" transform="translate(-108.433 -0.193)" fill="#070203"/>
        <path id="パス_71881" data-name="パス 71881" d="M185.882,2.437a21.337,21.337,0,0,0-9.8-2.118,24.208,24.208,0,0,0-3.443.219l-.024.129-.032,1.605L171.393,1.8l.531-1.16c-.618.1-1.233.218-1.843.368a19.173,19.173,0,0,0-3.623,1.375l-.022.158-.1-.1c-.517.262-1.025.538-1.518.846a17.539,17.539,0,0,0-3.908,3.215l.287.054.193-.022L163.2,5.188l0-.006c.02-.042.037-.085.056-.129l-.067-.319.6.192.412.13-.394.24-.037.028.474,2.27-2.812-.526,0,0-.064.054h-.015l-.113.084-.224-.274h0l-.238-.291c-.083.094-.174.179-.255.274s-.159.208-.24.311l.4.023-.474.988-.25-.6a15.84,15.84,0,0,0-2.1,3.756,18.762,18.762,0,0,0-1.3,6.759l.006,0a18.7,18.7,0,0,0,.577,4.886,23.064,23.064,0,0,0,1.544,4.507,17.789,17.789,0,0,0,2.787,3.725l-.025-.167-.192-.236.238-.056.5-1.318-.075-.089.147-.1.113-.3.06.071.962-2.968,2.012,1,0,0,.228.116.011.005.279.144-1.819,1.771.575-.979-1.91,1.328,0,.006.011.015-.056.123-.114.35-.029-.034-.336.741.808-.154-.535,1.526a22.9,22.9,0,0,0,4.145,2.913q.249.11,2.307.788a15.293,15.293,0,0,0,2.66.6,29.248,29.248,0,0,0,4.316.3,21.424,21.424,0,0,0,10.658-2.5l.045-.281c.009-.059.016-.117.024-.177a2.458,2.458,0,0,1,.092-.475.59.59,0,0,1,.249-.281c.026-.019.051-.036.074-.056l.252-.222.306.883a16.488,16.488,0,0,0,2.837-2.375,18.411,18.411,0,0,0,5.227-13.17,17.637,17.637,0,0,0-3.1-9.85,16.828,16.828,0,0,0-6.542-5.728M157.313,16.119a.736.736,0,0,0-.055.062l-.449.607.127-2.1.373.686c.013.024.03.047.045.072a.587.587,0,0,1,.131.346.543.543,0,0,1-.172.33m1.608,11.623.284-.8h.162a.835.835,0,0,0,.085-.006.465.465,0,0,1,.388.077.65.65,0,0,1,.17.344.816.816,0,0,0,.027.093l.105.3Zm.6-9.612.57-.88.4.975Zm3.7-7.542c-.039.024-.077.049-.112.074a.655.655,0,0,1-.369.154h0a.536.536,0,0,1-.354-.181.774.774,0,0,0-.072-.061l-.559-.408h2.2Zm21.209-3.127a.6.6,0,0,0,.07-.066c.09-.088.22-.216.363-.2a.507.507,0,0,1,.357.216.75.75,0,0,0,.068.071l.119.107-.333.79-.856-.751ZM165.146,9.624l.39,1-.958-.083ZM185.208,28.2a9.676,9.676,0,0,1-4.027,4.656,11.171,11.171,0,0,1-5.443,1.371,8.722,8.722,0,0,1-3.095-.584,7.853,7.853,0,0,1-2.362-1.289,11,11,0,0,1-2.416-2.742,29.777,29.777,0,0,1-1.656-4.263,15.1,15.1,0,0,1-.57-2.932c-.029-.212-.054-.382-.076-.544l-.11.013.051-.3c0-.021,0-.044.005-.067-.01-.071-.024-.162-.033-.215a20.339,20.339,0,0,1-.19-3.339c0-.091,0-.181,0-.272l-.823-.09.71-.35.118-.053a27.871,27.871,0,0,1,.642-5.738,14.87,14.87,0,0,1,2.2-4.928,8.834,8.834,0,0,1,2.742-2.43A7.934,7.934,0,0,1,175.06,3a10.844,10.844,0,0,1,7.122,2.335,11.818,11.818,0,0,1,3.841,6.787,10.821,10.821,0,0,0,.272,1.113l.136.515q.3,3.72.3,5.891a20.49,20.49,0,0,1-1.521,8.552M187.6,8.1a.463.463,0,0,1-.173-.36.46.46,0,0,1,.251-.314.641.641,0,0,0,.07-.048l.041-.034a.826.826,0,0,1-.1-.183c-.009-.024-.02-.048-.03-.07l-.13-.259,1.1-.244-.153.758-.149.079c-.021.005-.043.013-.067.022a1,1,0,0,1-.14.032l.287.377-.61.5-.142-.185A.8.8,0,0,0,187.6,8.1m.619,15.5-.173-.234a1.394,1.394,0,0,0-.113-.13c-.135-.144-.286-.309-.25-.51a1.184,1.184,0,0,1,.5-.759c.179-.106.385-.025.6.063a2.391,2.391,0,0,0,.242.086l.328.1Zm1.474-13.4-.166-.35c-.032-.067-.073-.135-.114-.2a1.155,1.155,0,0,1-.224-.629,1.094,1.094,0,0,1,.3-.59c.049-.062.1-.123.14-.183l.211-.323.614,1.183Zm5.426,8.438.047.344c0,.026.01.051.015.077a.607.607,0,0,1,.008.332.488.488,0,0,1-.236.248.645.645,0,0,0-.059.038l-.18.139-.478-.631Z" transform="translate(-107.779 -0.207)" fill="#070203"/>
        <path id="パス_71882" data-name="パス 71882" d="M161.563,30.624l.015.016c.085.081.177.154.265.234l-.255-.315Z" transform="translate(-107.631 0.688)" fill="#070203"/>
        <path id="パス_71889" data-name="パス 71889" d="M138,19.375c-.345-.443-.668-.862-.539-1.223a5.532,5.532,0,0,1,1.1-1.632l.266-.316c-.1.008-.2.01-.3.015-.024.047-.049.095-.069.141l-.129.3-.429-.407-3.843.11c-.008.99-.018,1.982-.028,2.966l3.712.04c.09,0,.173.007.262.009" transform="translate(-108.446 0.263)" fill="#070203"/>
        <path id="パス_71894" data-name="パス 71894" d="M300.536,26.14a13.8,13.8,0,0,1-3.067,5.1,6.37,6.37,0,0,1-3.2,1.819,30.686,30.686,0,0,1-6.407.57q-5.7,0-6.814-.57a1.443,1.443,0,0,1-.735-1.4l.055-5.869c-.059-1.169-.092-2.594-.1-4.246-.009.021-.019.038-.029.06-.131.289-.227.5-.429.5h-.033a6.394,6.394,0,0,1-1.46-.353,3.746,3.746,0,0,1-.565-.279l-.158-.026-.174-.032-.215.093-.048-.48,0-.008-.06-.59.432.39.036.021.061-.034a1.593,1.593,0,0,1,.871-.284,4.9,4.9,0,0,1,1.243.359c.16.062.32.125.482.178l.046.016c0-.221,0-.43,0-.66q0-.219.027-.927c.609-.064,1.357-.113,2.231-.148l.186-1.512.526,1.4c.01.028.023.056.033.083.935-.027,1.991-.042,3.186-.042a21.551,21.551,0,0,1,4.015.19,1.972,1.972,0,0,1,1.086.733,10.948,10.948,0,0,1,.974,3.15q.3,1.358.412,1.791h.565l.763-2.021.244.2c.061.05.142.109.222.167.04.028.071.053.107.079-.013-.406-.034-.88-.062-1.429q-.08-1.615-.081-2.349,0-.46.041-1.276t.041-3.665q0-1.248-.108-3.665l-1.574-.027-.343.027a37.107,37.107,0,0,1-.95,3.991,2.791,2.791,0,0,1-.869,1.181,6.714,6.714,0,0,1-2.558.528q-2.063.191-6.923.19a9.841,9.841,0,0,1-1.168-.081v-3.42l-.055-4.561q0-4.669.081-5.348,2.605-.108,5.918-.108,2.9,0,5.429.217,1.384.11,1.656.136a7.371,7.371,0,0,1,1.737.217,12.5,12.5,0,0,1,1.74,2.5l1.086,1.937q.408,1.059.652,1.6c.474.037.783.055.927.055l1.113-.055c.018-.217.027-.38.027-.489l-.055-1.113V2.965A2.108,2.108,0,0,0,300.05,1.5a42.882,42.882,0,0,0-4.886-.412l-4.913.055q-4.886,0-10.94.244-4.045.164-5.022.163a36.264,36.264,0,0,1-4.968-.3q-1.143-.162-2.687-.244L266.5,3.17q.68.082,1.194.108a17.878,17.878,0,0,1,2.986.38q.516.108.814.163a1.332,1.332,0,0,1,.814.38,5.07,5.07,0,0,1,.055.543L272.6,8.11l-.033,3.069.136,4.344-.024,3.071.081,10.234-.027.841q.028,1.114.027,1.574a5.66,5.66,0,0,1-.278,1.9c.063.137.133.269.191.408.087.207-.041.273-.465.493-.09.046-.178.092-.247.13l-.319.174-.033-.826a13.087,13.087,0,0,1-3.06.573,17.134,17.134,0,0,0-2.059.3v1.873l3.284-.108h1.14q4.751-.272,8.008-.272,6.547,0,11.18.19,6.6.272,8.121.271,1.032,0,2.792-.081l.492-3.1,1-5.13.163-.814c.036-.307.082-.687.136-1.14-.4-.018-.7-.027-.9-.027q-.544,0-1.385.081m-27.159-23.5-.211.223-.053-.323-.194-.073.13-.139-.885-.618.841.072a.589.589,0,0,0,.074,0c.114,0,.281-.005.366.139a.5.5,0,0,1,.052.141l.053.065.188.132-.025.026.975.37-.75.663-.55-.672Zm.969,21.678a.743.743,0,0,0-.079.064l-.169.161-.155-.174c-.022-.024-.047-.047-.072-.07a.4.4,0,0,1,.031-.725.816.816,0,0,0,.077-.063l.169-.159.156.172a.576.576,0,0,0,.072.069.4.4,0,0,1-.029.725m1.1-6.153a.337.337,0,0,1-.229.241,1.776,1.776,0,0,1-.335.028c-.069,0-.136,0-.2,0l-.488-.005.448-1.335.248.177c.048.035.1.067.147.1a1.558,1.558,0,0,1,.391.315.54.54,0,0,1,.019.485m.105,8.872.635-.9.307,1.063Z" transform="translate(-104.525 -0.186)" fill="#070203"/>
        <path id="パス_71897" data-name="パス 71897" d="M294.043,24.451v-.262c-.032.086-.064.174-.1.262Z" transform="translate(-103.713 0.5)" fill="#070203"/>
      </g>
      <g id="グループ_6729" data-name="グループ 6729" transform="translate(0)">
        <path id="パス_71852" data-name="パス 71852" d="M10.947.731A11.24,11.24,0,0,0,5.474,2.123c-.127.07-.248.148-.372.223l.333.534-1.495.432-.008-.127a9.792,9.792,0,0,0-2.472,3.1c-.108.2-.208.413-.3.623.048-.013.1-.03.146-.039.158-.025.269.123.356.261.022.035.044.071.064.1l.168.221-.263.092c-.056.019-.112.041-.168.062a2.368,2.368,0,0,1-.512.152l-.038,0a.232.232,0,0,1-.1-.022A12.715,12.715,0,0,0,0,12.306,16.269,16.269,0,0,0,.52,16.374a8.53,8.53,0,0,0,1.241,2.716,10.273,10.273,0,0,0,2.416,2.335,16.085,16.085,0,0,0,3.194,1.392,6.908,6.908,0,0,0,1.611.109,10.736,10.736,0,0,0,3.794-.655,1.269,1.269,0,0,0,.82-1.338,1.356,1.356,0,0,0-.273-.914.792.792,0,0,0-.6-.314l-.409.082a5.009,5.009,0,0,1-1.42.219,4.835,4.835,0,0,1-2.13-.519,2.949,2.949,0,0,1-.929-1.062,7.323,7.323,0,0,1-.468-.933.45.45,0,0,1-.287.144A.286.286,0,0,1,7,17.626a2.074,2.074,0,0,1-.621-.343c-.07-.049-.139-.1-.208-.142l-.322-.2.35-.151c.06-.026.12-.059.18-.093a1.081,1.081,0,0,1,.553-.178.584.584,0,0,1,.1.019,7.074,7.074,0,0,1-.182-.868c-.09-.642-.156-1.287-.209-1.932a2.218,2.218,0,0,1-.623.129.825.825,0,0,1-.176-.018,1.077,1.077,0,0,1-.565-.491,2.713,2.713,0,0,0-.172-.221l-.2-.224.286-.1c.091-.032.183-.076.276-.118a1.375,1.375,0,0,1,.771-.2.759.759,0,0,1,.336.147c-.03-.611-.05-1.221-.047-1.832,0-.06,0-.115,0-.175-.108-.053-.212-.113-.312-.173-.059-.036-.12-.072-.18-.107l-.246-.137L6,10.026a1.674,1.674,0,0,0,.133-.139.878.878,0,0,1,.435-.315A9.791,9.791,0,0,1,8.188,4.337a3.608,3.608,0,0,1,2.972-1.665A3.735,3.735,0,0,1,14.328,4.61Q16.021,7.2,16.02,14.164a29.249,29.249,0,0,1-.163,3.358q-.218,1.883-.246,2.375a22.869,22.869,0,0,1-.641,4.027,15.081,15.081,0,0,1-.907,2.715,1.59,1.59,0,0,1,.376-.161.455.455,0,0,1,.352.119.554.554,0,0,0,.069.048l.327.189-.914.454-.406-.232a15.1,15.1,0,0,1-.879,1.619,14.074,14.074,0,0,1-3.439,3.74,20.159,20.159,0,0,1-2.461,1.542,1.67,1.67,0,0,1-.195.21c-.043.042-.088.084-.125.127l-.212.247-.113-.265c-.581.283-1.171.548-1.778.774a5.644,5.644,0,0,0-1.582.737.992.992,0,0,0-.273.737,1.588,1.588,0,0,0,.437,1.01q.682.054,1.04.054A15.919,15.919,0,0,0,9.337,36.5a19.015,19.015,0,0,0,5.869-3.426,19.352,19.352,0,0,0,4.052-4.613c-.016-.033-.033-.067-.05-.1l-.15-.24.275-.064c.059-.014.121-.035.183-.056l.047-.016c.021-.035.045-.067.066-.1a28.448,28.448,0,0,0,1.993-3.892,24.479,24.479,0,0,0,1.42-7.862q0-7.481-3.454-11.439A10.988,10.988,0,0,0,10.947.731M1.706,9.449,1.65,10.2l-.185,0,0-.2-.041.2H1.37c-.1,0-.215-.018-.247-.161a3,3,0,0,1-.029-.32l-.017-.268Zm-.024,7.287c-.025,0-.052-.007-.079-.011a.583.583,0,0,1-.3-.094.381.381,0,0,1-.125-.314c0-.023,0-.047,0-.067l-.031-.179.674-.2.156.914Zm-.066-2.175c-.08.062-.161.125-.226.187l-.146.141L1.1,14.742c-.065-.068-.137-.133-.209-.2A1.607,1.607,0,0,1,.4,13.929c-.072-.2.069-.383.3-.682.105-.134.231-.294.363-.489L1.24,12.5l.166.258c.106.165.212.306.305.431a1.361,1.361,0,0,1,.374.756c0,.25-.238.434-.469.612M7.522,3.8l-.194-.171c-.025-.022-.056-.046-.088-.069-.13-.1-.276-.205-.223-.375a2.455,2.455,0,0,1,.21-.466l.189-.367.609.471Zm3.286,28.947.543-1.008.31,1.09ZM20.837,16.718l.328.626a.582.582,0,0,0,.034.055.483.483,0,0,1,.1.29.442.442,0,0,1-.145.269c-.014.015-.029.031-.041.047l-.414.545Z" transform="translate(0 -0.213)" fill="#070203"/>
        <path id="パス_71856" data-name="パス 71856" d="M83.911,18.356l.731.35a6.274,6.274,0,0,0,1.434-1.284,9.081,9.081,0,0,0,1.693-3.167,14.3,14.3,0,0,0,.6-4.34,10.327,10.327,0,0,0-2.088-6.852A6.317,6.317,0,0,0,81.3.578a5.769,5.769,0,0,0-2.307.464,7.658,7.658,0,0,0-2.143,1.447A7.866,7.866,0,0,0,75.4,4.564a18.807,18.807,0,0,0-.955,2.948,10.417,10.417,0,0,0-.273,2.648v0c-.013.339-.006.677.011,1.015.13.008.265.015.4.015h.529l-.395.352c-.167.149-.317.285-.475.427a12.032,12.032,0,0,0,1.139,3.922,7.554,7.554,0,0,0,2.907,3.194,7.887,7.887,0,0,0,3.549.628,5.154,5.154,0,0,0,1.79-.444ZM87.69,7.288l.273.95-.844-.146ZM77.546,6.32c.064-.027.13-.053.183-.081l.15-.08.621.8-1.028.626-.1-.2c-.025-.052-.056-.106-.087-.159a.923.923,0,0,1-.178-.534c.02-.2.222-.279.435-.366m-1.49,10.216L76.6,15.7l.332.944Zm1.74-7.3.022-.116-.793.311.8-.734s.027-.025.055-.052l-.013-.049.056-.028.057-.3.422.442.122.129-.193.076-.146.422Zm1.18,8.778a.733.733,0,0,0-.071.03.6.6,0,0,1-.23.065.243.243,0,0,1-.144-.045.488.488,0,0,1-.168-.294c-.007-.025-.013-.051-.022-.074l-.075-.2.2-.067c.022-.007.047-.019.073-.03a.345.345,0,0,1,.377-.015.535.535,0,0,1,.162.288c.008.025.015.05.024.073l.079.2Zm4.594-4.878c-.045.639-.11,1.277-.2,1.912a4.546,4.546,0,0,1-.887,2.525,1.922,1.922,0,0,1-1.351.587,1.51,1.51,0,0,1-.9-.273l-.873-1.12q-.327-.6-.354-4.75c0-.148,0-.348-.009-.575l-.124.08-.076-.576c-.067-.457-.082-.566.111-.61l.054-.009c-.011-.282-.023-.59-.038-.929v0q.055-3.6.163-4.286a4.446,4.446,0,0,1,.887-2.347,1.877,1.877,0,0,1,1.351-.573A1.688,1.688,0,0,1,82.8,3.01a8.153,8.153,0,0,1,.792,4.231V9.2l.03.994a.906.906,0,0,1,.166-.132c.031-.021.063-.042.086-.061l.2-.159.408.895-.548.516-.188-.393c-.04-.08-.08-.163-.116-.248l.013.418c0,.385-.023.77-.038,1.155l.242.149,0,0,.286.177-.185.108v.028c.205.414.415.839.6,1.272.075.188-.03.242-.425.446l-.214.113-.286.156Z" transform="translate(-21.679 -0.169)" fill="#070203"/>
        <path id="パス_71857" data-name="パス 71857" d="M41.209,21.432A16.067,16.067,0,0,0,44.4,22.824a6.9,6.9,0,0,0,1.611.109,10.727,10.727,0,0,0,3.795-.655,1.267,1.267,0,0,0,.819-1.338,1.357,1.357,0,0,0-.273-.914.791.791,0,0,0-.6-.314l-.41.082a4.99,4.99,0,0,1-.989.184,3.053,3.053,0,0,1-1.667.919.978.978,0,0,1-.112-.006c-.817-.1-1.507-1.033-2.116-1.858l-.168-.227c-.127-.17-.018-.369.343-.8a7.252,7.252,0,0,1-.752-2.331,33.924,33.924,0,0,1-.328-4.859,10.784,10.784,0,0,1,1.665-6.47,3.57,3.57,0,0,1,.534-.65l-.411-.253.539.139a3.608,3.608,0,0,1,1.9-.868c-.174-.413-.348-.837-.485-1.27-.064-.2.077-.393.213-.58.028-.039.052-.076.078-.113a11.181,11.181,0,0,0-1.394.13c0,.022-.01.044-.013.066l-.068.374-.272-.265c-.033-.033-.071-.064-.106-.1a11.262,11.262,0,0,0-3.227,1.173,9.8,9.8,0,0,0-4.013,4.163,12.7,12.7,0,0,0-1.446,5.369l.451.274-.46.128c0,.084-.006.166-.006.249a16.269,16.269,0,0,0,.519,4.068,8.493,8.493,0,0,0,.3.919,1.1,1.1,0,0,1,.427.233c.051.04.1.08.153.113l.224.142-.2.178a1.774,1.774,0,0,0-.132.137l-.076.081a8.483,8.483,0,0,0,.541.913,10.246,10.246,0,0,0,2.416,2.335M39.961,5l.217.2a.182.182,0,0,1,.213.051,3.98,3.98,0,0,1,.3.388l.048.069.061.055,0,.024.156.22-.586.059h0l-.091.009-.027-.1-.6-.438.331-.221c.024-.017.046-.031.069-.046Z" transform="translate(-10.825 -0.219)" fill="#070203"/>
        <path id="パス_71862" data-name="パス 71862" d="M107.434,6.945l-.014.181L107.1,6.71c-.038-.05-.074-.094-.113-.141l-.613-.438,1,.107.113.013-.008.113.123.149c.151.108.3.219.447.328L112.456.081l-.273.028L109.7,0l-.354.082q-5.167,8.059-9.337,14.517l-.059.233.131.248-.6.341Q89.316,31.148,85.131,37.263l.627-.082,1.665.082a5.477,5.477,0,0,0,.792,0l10.9-16.713-.461-.336.33-.22.069-.046-.078-.272.217.2a.182.182,0,0,1,.213.051c.023.026.041.056.064.083l5.071-7.778a1.008,1.008,0,0,1-.4-.427c-.044-.069-.086-.139-.131-.2l-.184-.233.284-.086c.086-.026.171-.054.257-.084a3.114,3.114,0,0,1,.759-.187.229.229,0,0,1,.167.057l2.451-3.761Zm-16.445,25.7a.605.605,0,0,0-.04.046l-.413.538.135-1.824.329.625c.009.018.022.037.033.055a.482.482,0,0,1,.1.289.443.443,0,0,1-.147.271" transform="translate(-24.884)" fill="#070203"/>
        <path id="パス_71863" data-name="パス 71863" d="M60.512,14.27c-.143-.108-.287-.218-.408-.3l-.224-.147.2-.176c.258-.222.512-.452.766-.682l.183-.164a14.754,14.754,0,0,0-3.256-8.112l-.02-.021c-.341-.052-.687-.118-1.042-.205-.271-.067-.429-.359-.582-.64-.05-.091-.1-.179-.151-.259l-.11-.049.025-.077-.366-.519.254.115-.115-.245.035,0a11.014,11.014,0,0,0-1.627-.967.83.83,0,0,1-.133.444,1.8,1.8,0,0,0-.081.17l-.074.19L53.6,2.55c-.055-.021-.121-.039-.188-.057-.213-.058-.434-.118-.491-.313a.874.874,0,0,1,.1-.573c.026-.064.053-.127.072-.19v0A10.983,10.983,0,0,0,49.189.735l.658.92-.136,1.053a3.734,3.734,0,0,1,2.809,1.9q1.693,2.592,1.693,9.554a29.41,29.41,0,0,1-.163,3.358q-.219,1.883-.246,2.375a22.99,22.99,0,0,1-.641,4.027,15.17,15.17,0,0,1-1.982,4.75,14.075,14.075,0,0,1-3.439,3.74q-.573.42-1.173.8l.181.162c.024.021.057.045.088.069.139.1.281.21.223.379a2.956,2.956,0,0,1-.238.489l-.225.413-.191-.226a.9.9,0,0,0-.078-.079c-.108-.1-.232-.224-.184-.385a2.252,2.252,0,0,1,.219-.472l.179-.335a20.161,20.161,0,0,1-2.735,1.43l.108,1.2-1.175,1.112-.134-.189c-.039-.054-.091-.12-.144-.187-.234-.3-.34-.437-.2-.585.311-.333.651-.643.98-.943l.349-.32c-.243.1-.484.209-.731.3a5.633,5.633,0,0,0-1.581.737.994.994,0,0,0-.273.737,1.589,1.589,0,0,0,.435,1.01q.682.054,1.037.057a15.887,15.887,0,0,0,3.95-.709c-.023-.05-.047-.1-.074-.146l-.139-.229.259-.071c.059-.016.122-.041.184-.064a.789.789,0,0,1,.581-.073.509.509,0,0,1,.229.221l.061-.021A19.024,19.024,0,0,0,53.4,33.073a19.34,19.34,0,0,0,3.946-4.449,1.6,1.6,0,0,1,.3-.478l.05-.066c.04-.066.086-.127.125-.193a28.609,28.609,0,0,0,1.993-3.892,24.5,24.5,0,0,0,1.307-5.853l-.241.069-.146-2.3-.122-.2.164-.168h0l.287-.3h0l.032-.033.028.444.021.143.084.134c0-.419-.018-.826-.037-1.229a3.062,3.062,0,0,1-.676-.442M51.291,33.635c-.043.063-.086.126-.117.182l-.108.2-1.235-.859.744-.944.16.143c.067.059.135.115.2.17a2.226,2.226,0,0,1,.518.525c.11.174-.019.364-.168.586m3.525-13.318.317.856-.845-.108Zm.147,1.142-.42,1.012-.414-1.026Zm.27,2.608-.167.34-.817-.657.294-.239a1.545,1.545,0,0,1,.335-.237.313.313,0,0,1,.326.079c.144.111.205.219.185.329a1.413,1.413,0,0,1-.156.386m.614-16.048-.2.088L55.206,9.3l.058-1.025-.139.061.16-.42.01-.178-.333-1.458.427.088c.193.033.36.062.36.247,0,.338-.024.672-.043,1.007l.051,0,.87-.377.294.753L56.569,8c-.239,0-.479.01-.722.018m1.291,2.5c-.111,0-.183-.106-.259-.217l-.182-.256.534-.321.716.277-.369.265a3.722,3.722,0,0,1-.338.224.24.24,0,0,1-.1.028M58.587,25.1l-.185,0,0-.2-.041.2h-.05c-.1,0-.214-.018-.248-.156a3.225,3.225,0,0,1-.03-.323l-.016-.269.628-.007ZM58.4,22.5a2.347,2.347,0,0,1-.515.154.229.229,0,0,1-.038,0c-.146,0-.238-.128-.321-.242a.872.872,0,0,0-.067-.088l-.2-.222.451-.168a2.881,2.881,0,0,1,.525-.168c.162-.037.268.122.354.259a1.075,1.075,0,0,0,.066.1l.168.222Zm.173-2.18-.074-.006a.54.54,0,0,1-.3-.08.363.363,0,0,1-.122-.318.607.607,0,0,0,0-.064l-.022-.17.667-.2.121.874Z" transform="translate(-11.985 -0.214)" fill="#070203"/>
        <path id="パス_71865" data-name="パス 71865" d="M128.522,30.752l-.895-2.091.021-.079a7.66,7.66,0,0,0-.724-1.03,6.338,6.338,0,0,0-3.078-2.156l-.151.379-.218-.205c-.021-.02-.05-.041-.078-.062a.459.459,0,0,1-.212-.287,6.327,6.327,0,0,0-1.232-.14,5.918,5.918,0,0,0-2.307.45,7.4,7.4,0,0,0-2.143,1.433,7.861,7.861,0,0,0-1.447,2.075q-.306.737-.548,1.5a.272.272,0,0,1,.042-.008h.011a.456.456,0,0,1,.323.227c.021.026.04.052.061.074l.143.15-.526.481-.137-.12.134-.151h0l-.166.123-.079-.07c-.071.257-.153.511-.213.771a10.126,10.126,0,0,0-.273,2.618v0a12.172,12.172,0,0,0,1.2,5.733c.05.1.117.2.171.3l.925.5-.279.186c-.05.034-.1.077-.155.115a7.4,7.4,0,0,0,2.258,2.09,7.81,7.81,0,0,0,3.522.628,5.178,5.178,0,0,0,2.375-.732A5.971,5.971,0,0,0,126.7,41.9a8.833,8.833,0,0,0,1.72-3.167,14.3,14.3,0,0,0,.6-4.34,13.443,13.443,0,0,0-.468-3.672Zm-11.577,8.989.512-.788.355.87Zm1.323-9.615h-.7v.156l-.257-.156h0l-.849-.515.561.014.021-.5c.016-.121.052-.142.231-.242l.3-.168,0,.924,1.544.04ZM124,39.515a4.624,4.624,0,0,1-.873,2.525,1.862,1.862,0,0,1-.315.263c.022,0,.043,0,.064,0l.144-.009.279.671-1.046.134.046-.269a.859.859,0,0,0,.008-.088.8.8,0,0,1,.045-.22,1.84,1.84,0,0,1-.562.1,1.5,1.5,0,0,1-.355-.048l.226.609-.845-.108.4-.567a1.531,1.531,0,0,1-.326-.159l-.873-1.12q-.353-.6-.354-4.75,0-.708-.082-2.618.027-3.6.134-4.282a4.361,4.361,0,0,1,.694-2.035l-.824-.1.56-.807.311.843c.054-.081.1-.166.161-.243a1.926,1.926,0,0,1,1.365-.573,1.69,1.69,0,0,1,1.474.819,8.153,8.153,0,0,1,.792,4.231v1.96l.028,1.829A28.72,28.72,0,0,1,124,39.515" transform="translate(-33.562 -7.331)" fill="#070203"/>
      </g>
    </g>
  </g>
</svg>
