<svg xmlns="http://www.w3.org/2000/svg" xmlns:xlink="http://www.w3.org/1999/xlink" width="313" height="96" viewBox="0 0 313 96">
  <defs>
    <clipPath id="clip-path">
      <rect id="長方形_10228" data-name="長方形 10228" width="313" height="96" transform="translate(-7603 1082)" fill="#fff"/>
    </clipPath>
    <clipPath id="clip-path-2">
      <rect id="長方形_10227" data-name="長方形 10227" width="375" height="117" transform="translate(0 5790)" fill="#fff"/>
    </clipPath>
  </defs>
  <g id="マスクグループ_6754" data-name="マスクグループ 6754" transform="translate(7603 -1082)" clip-path="url(#clip-path)">
    <g id="マスクグループ_6753" data-name="マスクグループ 6753" transform="translate(-7638 -4717.254)" clip-path="url(#clip-path-2)">
      <g id="グループ_7060" data-name="グループ 7060" transform="translate(-87.434 5799.281)">
        <g id="グループ_7058" data-name="グループ 7058" transform="translate(124.323)">
          <path id="パス_72481" data-name="パス 72481" d="M10.947.731A11.24,11.24,0,0,0,5.474,2.123c-.127.07-.248.148-.372.223l.333.534-1.495.432-.008-.127a9.792,9.792,0,0,0-2.472,3.1c-.108.2-.208.413-.3.623.048-.013.1-.03.146-.039.158-.025.269.123.356.261.022.035.044.071.064.1l.168.221-.263.092c-.056.019-.112.041-.168.062a2.368,2.368,0,0,1-.512.152l-.038,0a.232.232,0,0,1-.1-.022A12.715,12.715,0,0,0,0,12.306,16.269,16.269,0,0,0,.52,16.374a8.53,8.53,0,0,0,1.241,2.716,10.273,10.273,0,0,0,2.416,2.335,16.085,16.085,0,0,0,3.194,1.392,6.908,6.908,0,0,0,1.611.109,10.736,10.736,0,0,0,3.794-.655,1.269,1.269,0,0,0,.82-1.338,1.356,1.356,0,0,0-.273-.914.792.792,0,0,0-.6-.314l-.409.082a5.009,5.009,0,0,1-1.42.219,4.835,4.835,0,0,1-2.13-.519,2.949,2.949,0,0,1-.929-1.062,7.323,7.323,0,0,1-.468-.933.45.45,0,0,1-.287.144A.286.286,0,0,1,7,17.626a2.074,2.074,0,0,1-.621-.343c-.07-.049-.139-.1-.208-.142l-.322-.2.35-.151c.06-.026.12-.059.18-.093a1.081,1.081,0,0,1,.553-.178.584.584,0,0,1,.1.019,7.074,7.074,0,0,1-.182-.868c-.09-.642-.156-1.287-.209-1.932a2.218,2.218,0,0,1-.623.129.825.825,0,0,1-.176-.018,1.077,1.077,0,0,1-.565-.491,2.713,2.713,0,0,0-.172-.221l-.2-.224.286-.1c.091-.032.183-.076.276-.118a1.375,1.375,0,0,1,.771-.2.759.759,0,0,1,.336.147c-.03-.611-.05-1.221-.047-1.832,0-.06,0-.115,0-.175-.108-.053-.212-.113-.312-.173-.059-.036-.12-.072-.18-.107l-.246-.137L6,10.026a1.674,1.674,0,0,0,.133-.139.878.878,0,0,1,.435-.315A9.791,9.791,0,0,1,8.188,4.337a3.608,3.608,0,0,1,2.972-1.665A3.735,3.735,0,0,1,14.328,4.61Q16.021,7.2,16.02,14.164a29.249,29.249,0,0,1-.163,3.358q-.218,1.883-.246,2.375a22.869,22.869,0,0,1-.641,4.027,15.081,15.081,0,0,1-.907,2.715,1.59,1.59,0,0,1,.376-.161.455.455,0,0,1,.352.119.554.554,0,0,0,.069.048l.327.189-.914.454-.406-.232a15.1,15.1,0,0,1-.879,1.619,14.074,14.074,0,0,1-3.439,3.74,20.159,20.159,0,0,1-2.461,1.542,1.67,1.67,0,0,1-.195.21c-.043.042-.088.084-.125.127l-.212.247-.113-.265c-.581.283-1.171.548-1.778.774a5.644,5.644,0,0,0-1.582.737.992.992,0,0,0-.273.737,1.588,1.588,0,0,0,.437,1.01q.682.054,1.04.054A15.919,15.919,0,0,0,9.337,36.5a19.015,19.015,0,0,0,5.869-3.426,19.352,19.352,0,0,0,4.052-4.613c-.016-.033-.033-.067-.05-.1l-.15-.24.275-.064c.059-.014.121-.035.183-.056l.047-.016c.021-.035.045-.067.066-.1a28.448,28.448,0,0,0,1.993-3.892,24.479,24.479,0,0,0,1.42-7.862q0-7.481-3.454-11.439A10.988,10.988,0,0,0,10.947.731M1.706,9.449,1.65,10.2l-.185,0,0-.2-.041.2H1.37c-.1,0-.215-.018-.247-.161a3,3,0,0,1-.029-.32l-.017-.268Zm-.024,7.287c-.025,0-.052-.007-.079-.011a.583.583,0,0,1-.3-.094.381.381,0,0,1-.125-.314c0-.023,0-.047,0-.067l-.031-.179.674-.2.156.914Zm-.066-2.175c-.08.062-.161.125-.226.187l-.146.141L1.1,14.742c-.065-.068-.137-.133-.209-.2A1.607,1.607,0,0,1,.4,13.929c-.072-.2.069-.383.3-.682.105-.134.231-.294.363-.489L1.24,12.5l.166.258c.106.165.212.306.305.431a1.361,1.361,0,0,1,.374.756c0,.25-.238.434-.469.612M7.522,3.8l-.194-.171c-.025-.022-.056-.046-.088-.069-.13-.1-.276-.205-.223-.375a2.455,2.455,0,0,1,.21-.466l.189-.367.609.471Zm3.286,28.947.543-1.008.31,1.09ZM20.837,16.718l.328.626a.582.582,0,0,0,.034.055.483.483,0,0,1,.1.29.442.442,0,0,1-.145.269c-.014.015-.029.031-.041.047l-.414.545Z" transform="translate(0 -0.213)" fill="#070203"/>
          <path id="パス_72482" data-name="パス 72482" d="M83.911,18.356l.731.35a6.274,6.274,0,0,0,1.434-1.284,9.081,9.081,0,0,0,1.693-3.167,14.3,14.3,0,0,0,.6-4.34,10.327,10.327,0,0,0-2.088-6.852A6.317,6.317,0,0,0,81.3.578a5.769,5.769,0,0,0-2.307.464,7.658,7.658,0,0,0-2.143,1.447A7.866,7.866,0,0,0,75.4,4.564a18.807,18.807,0,0,0-.955,2.948,10.417,10.417,0,0,0-.273,2.648v0c-.013.339-.006.677.011,1.015.13.008.265.015.4.015h.529l-.395.352c-.167.149-.317.285-.475.427a12.032,12.032,0,0,0,1.139,3.922,7.554,7.554,0,0,0,2.907,3.194,7.887,7.887,0,0,0,3.549.628,5.154,5.154,0,0,0,1.79-.444ZM87.69,7.288l.273.95-.844-.146ZM77.546,6.32c.064-.027.13-.053.183-.081l.15-.08.621.8-1.028.626-.1-.2c-.025-.052-.056-.106-.087-.159a.923.923,0,0,1-.178-.534c.02-.2.222-.279.435-.366m-1.49,10.216L76.6,15.7l.332.944Zm1.74-7.3.022-.116-.793.311.8-.734s.027-.025.055-.052l-.013-.049.056-.028.057-.3.422.442.122.129-.193.076-.146.422Zm1.18,8.778a.733.733,0,0,0-.071.03.6.6,0,0,1-.23.065.243.243,0,0,1-.144-.045.488.488,0,0,1-.168-.294c-.007-.025-.013-.051-.022-.074l-.075-.2.2-.067c.022-.007.047-.019.073-.03a.345.345,0,0,1,.377-.015.535.535,0,0,1,.162.288c.008.025.015.05.024.073l.079.2Zm4.594-4.878c-.045.639-.11,1.277-.2,1.912a4.546,4.546,0,0,1-.887,2.525,1.922,1.922,0,0,1-1.351.587,1.51,1.51,0,0,1-.9-.273l-.873-1.12q-.327-.6-.354-4.75c0-.148,0-.348-.009-.575l-.124.08-.076-.576c-.067-.457-.082-.566.111-.61l.054-.009c-.011-.282-.023-.59-.038-.929v0q.055-3.6.163-4.286a4.446,4.446,0,0,1,.887-2.347,1.877,1.877,0,0,1,1.351-.573A1.688,1.688,0,0,1,82.8,3.01a8.153,8.153,0,0,1,.792,4.231V9.2l.03.994a.906.906,0,0,1,.166-.132c.031-.021.063-.042.086-.061l.2-.159.408.895-.548.516-.188-.393c-.04-.08-.08-.163-.116-.248l.013.418c0,.385-.023.77-.038,1.155l.242.149,0,0,.286.177-.185.108v.028c.205.414.415.839.6,1.272.075.188-.03.242-.425.446l-.214.113-.286.156Z" transform="translate(-21.679 -0.169)" fill="#070203"/>
          <path id="パス_72483" data-name="パス 72483" d="M41.209,21.432A16.067,16.067,0,0,0,44.4,22.824a6.9,6.9,0,0,0,1.611.109,10.727,10.727,0,0,0,3.795-.655,1.267,1.267,0,0,0,.819-1.338,1.357,1.357,0,0,0-.273-.914.791.791,0,0,0-.6-.314l-.41.082a4.99,4.99,0,0,1-.989.184,3.053,3.053,0,0,1-1.667.919.978.978,0,0,1-.112-.006c-.817-.1-1.507-1.033-2.116-1.858l-.168-.227c-.127-.17-.018-.369.343-.8a7.252,7.252,0,0,1-.752-2.331,33.924,33.924,0,0,1-.328-4.859,10.784,10.784,0,0,1,1.665-6.47,3.57,3.57,0,0,1,.534-.65l-.411-.253.539.139a3.608,3.608,0,0,1,1.9-.868c-.174-.413-.348-.837-.485-1.27-.064-.2.077-.393.213-.58.028-.039.052-.076.078-.113a11.181,11.181,0,0,0-1.394.13c0,.022-.01.044-.013.066l-.068.374-.272-.265c-.033-.033-.071-.064-.106-.1a11.262,11.262,0,0,0-3.227,1.173,9.8,9.8,0,0,0-4.013,4.163,12.7,12.7,0,0,0-1.446,5.369l.451.274-.46.128c0,.084-.006.166-.006.249a16.269,16.269,0,0,0,.519,4.068,8.493,8.493,0,0,0,.3.919,1.1,1.1,0,0,1,.427.233c.051.04.1.08.153.113l.224.142-.2.178a1.774,1.774,0,0,0-.132.137l-.076.081a8.483,8.483,0,0,0,.541.913,10.246,10.246,0,0,0,2.416,2.335M39.961,5l.217.2a.182.182,0,0,1,.213.051,3.98,3.98,0,0,1,.3.388l.048.069.061.055,0,.024.156.22-.586.059h0l-.091.009-.027-.1-.6-.438.331-.221c.024-.017.046-.031.069-.046Z" transform="translate(-10.825 -0.219)" fill="#070203"/>
          <path id="パス_72484" data-name="パス 72484" d="M107.434,6.945l-.014.181L107.1,6.71c-.038-.05-.074-.094-.113-.141l-.613-.438,1,.107.113.013-.008.113.123.149c.151.108.3.219.447.328L112.456.081l-.273.028L109.7,0l-.354.082q-5.167,8.059-9.337,14.517l-.059.233.131.248-.6.341Q89.316,31.148,85.131,37.263l.627-.082,1.665.082a5.477,5.477,0,0,0,.792,0l10.9-16.713-.461-.336.33-.22.069-.046-.078-.272.217.2a.182.182,0,0,1,.213.051c.023.026.041.056.064.083l5.071-7.778a1.008,1.008,0,0,1-.4-.427c-.044-.069-.086-.139-.131-.2l-.184-.233.284-.086c.086-.026.171-.054.257-.084a3.114,3.114,0,0,1,.759-.187.229.229,0,0,1,.167.057l2.451-3.761Zm-16.445,25.7a.605.605,0,0,0-.04.046l-.413.538.135-1.824.329.625c.009.018.022.037.033.055a.482.482,0,0,1,.1.289.443.443,0,0,1-.147.271" transform="translate(-24.884)" fill="#070203"/>
          <path id="パス_72485" data-name="パス 72485" d="M60.512,14.27c-.143-.108-.287-.218-.408-.3l-.224-.147.2-.176c.258-.222.512-.452.766-.682l.183-.164a14.754,14.754,0,0,0-3.256-8.112l-.02-.021c-.341-.052-.687-.118-1.042-.205-.271-.067-.429-.359-.582-.64-.05-.091-.1-.179-.151-.259l-.11-.049.025-.077-.366-.519.254.115-.115-.245.035,0a11.014,11.014,0,0,0-1.627-.967.83.83,0,0,1-.133.444,1.8,1.8,0,0,0-.081.17l-.074.19L53.6,2.55c-.055-.021-.121-.039-.188-.057-.213-.058-.434-.118-.491-.313a.874.874,0,0,1,.1-.573c.026-.064.053-.127.072-.19v0A10.983,10.983,0,0,0,49.189.735l.658.92-.136,1.053a3.734,3.734,0,0,1,2.809,1.9q1.693,2.592,1.693,9.554a29.41,29.41,0,0,1-.163,3.358q-.219,1.883-.246,2.375a22.99,22.99,0,0,1-.641,4.027,15.17,15.17,0,0,1-1.982,4.75,14.075,14.075,0,0,1-3.439,3.74q-.573.42-1.173.8l.181.162c.024.021.057.045.088.069.139.1.281.21.223.379a2.956,2.956,0,0,1-.238.489l-.225.413-.191-.226a.9.9,0,0,0-.078-.079c-.108-.1-.232-.224-.184-.385a2.252,2.252,0,0,1,.219-.472l.179-.335a20.161,20.161,0,0,1-2.735,1.43l.108,1.2-1.175,1.112-.134-.189c-.039-.054-.091-.12-.144-.187-.234-.3-.34-.437-.2-.585.311-.333.651-.643.98-.943l.349-.32c-.243.1-.484.209-.731.3a5.633,5.633,0,0,0-1.581.737.994.994,0,0,0-.273.737,1.589,1.589,0,0,0,.435,1.01q.682.054,1.037.057a15.887,15.887,0,0,0,3.95-.709c-.023-.05-.047-.1-.074-.146l-.139-.229.259-.071c.059-.016.122-.041.184-.064a.789.789,0,0,1,.581-.073.509.509,0,0,1,.229.221l.061-.021A19.024,19.024,0,0,0,53.4,33.073a19.34,19.34,0,0,0,3.946-4.449,1.6,1.6,0,0,1,.3-.478l.05-.066c.04-.066.086-.127.125-.193a28.609,28.609,0,0,0,1.993-3.892,24.5,24.5,0,0,0,1.307-5.853l-.241.069-.146-2.3-.122-.2.164-.168h0l.287-.3h0l.032-.033.028.444.021.143.084.134c0-.419-.018-.826-.037-1.229a3.062,3.062,0,0,1-.676-.442M51.291,33.635c-.043.063-.086.126-.117.182l-.108.2-1.235-.859.744-.944.16.143c.067.059.135.115.2.17a2.226,2.226,0,0,1,.518.525c.11.174-.019.364-.168.586m3.525-13.318.317.856-.845-.108Zm.147,1.142-.42,1.012-.414-1.026Zm.27,2.608-.167.34-.817-.657.294-.239a1.545,1.545,0,0,1,.335-.237.313.313,0,0,1,.326.079c.144.111.205.219.185.329a1.413,1.413,0,0,1-.156.386m.614-16.048-.2.088L55.206,9.3l.058-1.025-.139.061.16-.42.01-.178-.333-1.458.427.088c.193.033.36.062.36.247,0,.338-.024.672-.043,1.007l.051,0,.87-.377.294.753L56.569,8c-.239,0-.479.01-.722.018m1.291,2.5c-.111,0-.183-.106-.259-.217l-.182-.256.534-.321.716.277-.369.265a3.722,3.722,0,0,1-.338.224.24.24,0,0,1-.1.028M58.587,25.1l-.185,0,0-.2-.041.2h-.05c-.1,0-.214-.018-.248-.156a3.225,3.225,0,0,1-.03-.323l-.016-.269.628-.007ZM58.4,22.5a2.347,2.347,0,0,1-.515.154.229.229,0,0,1-.038,0c-.146,0-.238-.128-.321-.242a.872.872,0,0,0-.067-.088l-.2-.222.451-.168a2.881,2.881,0,0,1,.525-.168c.162-.037.268.122.354.259a1.075,1.075,0,0,0,.066.1l.168.222Zm.173-2.18-.074-.006a.54.54,0,0,1-.3-.08.363.363,0,0,1-.122-.318.607.607,0,0,0,0-.064l-.022-.17.667-.2.121.874Z" transform="translate(-11.985 -0.214)" fill="#070203"/>
          <path id="パス_72486" data-name="パス 72486" d="M128.522,30.752l-.895-2.091.021-.079a7.66,7.66,0,0,0-.724-1.03,6.338,6.338,0,0,0-3.078-2.156l-.151.379-.218-.205c-.021-.02-.05-.041-.078-.062a.459.459,0,0,1-.212-.287,6.327,6.327,0,0,0-1.232-.14,5.918,5.918,0,0,0-2.307.45,7.4,7.4,0,0,0-2.143,1.433,7.861,7.861,0,0,0-1.447,2.075q-.306.737-.548,1.5a.272.272,0,0,1,.042-.008h.011a.456.456,0,0,1,.323.227c.021.026.04.052.061.074l.143.15-.526.481-.137-.12.134-.151h0l-.166.123-.079-.07c-.071.257-.153.511-.213.771a10.126,10.126,0,0,0-.273,2.618v0a12.172,12.172,0,0,0,1.2,5.733c.05.1.117.2.171.3l.925.5-.279.186c-.05.034-.1.077-.155.115a7.4,7.4,0,0,0,2.258,2.09,7.81,7.81,0,0,0,3.522.628,5.178,5.178,0,0,0,2.375-.732A5.971,5.971,0,0,0,126.7,41.9a8.833,8.833,0,0,0,1.72-3.167,14.3,14.3,0,0,0,.6-4.34,13.443,13.443,0,0,0-.468-3.672Zm-11.577,8.989.512-.788.355.87Zm1.323-9.615h-.7v.156l-.257-.156h0l-.849-.515.561.014.021-.5c.016-.121.052-.142.231-.242l.3-.168,0,.924,1.544.04ZM124,39.515a4.624,4.624,0,0,1-.873,2.525,1.862,1.862,0,0,1-.315.263c.022,0,.043,0,.064,0l.144-.009.279.671-1.046.134.046-.269a.859.859,0,0,0,.008-.088.8.8,0,0,1,.045-.22,1.84,1.84,0,0,1-.562.1,1.5,1.5,0,0,1-.355-.048l.226.609-.845-.108.4-.567a1.531,1.531,0,0,1-.326-.159l-.873-1.12q-.353-.6-.354-4.75,0-.708-.082-2.618.027-3.6.134-4.282a4.361,4.361,0,0,1,.694-2.035l-.824-.1.56-.807.311.843c.054-.081.1-.166.161-.243a1.926,1.926,0,0,1,1.365-.573,1.69,1.69,0,0,1,1.474.819,8.153,8.153,0,0,1,.792,4.231v1.96l.028,1.829A28.72,28.72,0,0,1,124,39.515" transform="translate(-33.562 -7.331)" fill="#070203"/>
        </g>
        <g id="グループ_7059" data-name="グループ 7059" transform="translate(0 58.688)">
          <path id="パス_72487" data-name="パス 72487" d="M532.453,1.32c-.838.052-1.591.093-2.266.127l.362.478-.565.344-.677-.314.609-.5c-1.1.052-1.982.079-2.623.079q-.356,0-1.8-.054l-7.807-.328.082,2.4q.476.065.955.082a10.65,10.65,0,0,1,3.63.655,6.124,6.124,0,0,1,.191.873l.028,1.174.094,2.151.013,0,.452-1.183-.065-.079.13-.091.1-.267.052.064.861-2.655,1.8.9h0l.212.109.25.129-1.6,1.558.493-.856-1.718,1.2v0l.01.014-.049.106-.1.32-.029-.034-.307.666.735-.142L523.4,9.688l-.724-.892.029.662-.082,1.474.055,3.631q0,.163-.191,5.569l.028,1.474-.055,6.224.028,3.221A4.706,4.706,0,0,1,522,33.4a12.156,12.156,0,0,1-2.648.9q-1.257.3-1.8.464v1.965h0q.546-.028,2.347-.191,2.757-.274,4.2-.273l4.834.055q3.248.327,3.631.382a5.643,5.643,0,0,0,.708.082q.136,0,1.01-.054a4.015,4.015,0,0,1,.546-.028q.028-.628.028-.929a10.743,10.743,0,0,0-.109-1.365q-1.42-.191-1.665-.219a28.089,28.089,0,0,1-3.03-.491,2.635,2.635,0,0,1-.109-.628l.028-1.038-.055-5.46L530,22.916l-.028-7.207q0-2.484.082-7.1a17.763,17.763,0,0,1-.082-1.911,9.638,9.638,0,0,1,.164-2.047,18.067,18.067,0,0,1,2.307-.7q1.405-.342,2.5-.723.054-.739.055-1.2,0-.355-.028-.873-.519.027-2.512.163M525.88,15.727c-.061.05-.126.088-.19.132l.081.568-.369-.351-.03,0-.22.14-.05-.474v-.013l-.058-.546.241.229.141-.171.141-.265.011.08.059-.071.2.335c.1.15.185.292.046.413m.932,6.8-.745-.614,1.032-.163Zm1.755,1.205.249-.68.149.007.062,0a.384.384,0,0,1,.321.088.61.61,0,0,1,.127.28c.006.025.013.051.021.075l.093.28Z" transform="translate(-264.321 -0.633)" fill="#070203"/>
          <path id="パス_72488" data-name="パス 72488" d="M328.043,1.547a48.672,48.672,0,0,1-5,.245l-5.214-.219h-2.156l-.054,2.076.354.081,2.566-.054a2.765,2.765,0,0,1,1.965.849,3.5,3.5,0,0,1,.6,2.154l.109,1.447q.622,7.277.7,13.264l.177.152c.016.014.037.029.059.045.1.07.229.166.18.325-.079.247-.169.487-.26.726l0,.007,0,.03.083.149-.1.074-.034.347-.084-.086a21.972,21.972,0,0,1-.519,5.441,10.654,10.654,0,0,1-.75,1.777c.05.031.093.06.147.092.381.23.574.345.5.55-.367,1.054-.779,2.11-1.18,3.13l-.354.9-1.008-.809.905-2.376a6.57,6.57,0,0,1-1.279,1.113c-.059.044-.123.081-.183.122a.85.85,0,0,1,.063.13c.063.183-.116.406-.137.43a.27.27,0,0,1-.206.114.178.178,0,0,1-.034,0,2.3,2.3,0,0,1-.456-.134l-.076-.027a7.985,7.985,0,0,1-1.5.609,16.98,16.98,0,0,1-2.1.465l.374.7-1.2.7-.1-.182c-.031-.056-.074-.122-.117-.19-.168-.261-.28-.435-.144-.585a2.659,2.659,0,0,1,.4-.347,16.835,16.835,0,0,1-2,.113,10.017,10.017,0,0,1-4.5-1.148,6.039,6.039,0,0,1-2.457-2.265,10.458,10.458,0,0,1-1.311-4.941l-.354-6.852.109-4.723-.164-2.184.054-2.566-.028-.983q-.028-.546-.028-1.42,0-2.866.328-3.248a2.567,2.567,0,0,1,2.02-.6,22.348,22.348,0,0,0,3.166-.217V3.539l-.055-1.611.028-.328q-.57.028-2.2.054t-3.713.123q-2.089.1-4.272.1-.628,0-4.231-.191-1.5-.082-2.866-.082-.519,0-1.01.028l.082,2.156h0a6.679,6.679,0,0,0,1.146.085q3.139.106,3.74.955.436.6.437,5.214l-.028,13.022c-.017.747,0,1.493.038,2.238l.01-.017.263,1.126-.2-.039c.07.83.166,1.657.3,2.48A10.416,10.416,0,0,0,297.4,33.64a10.688,10.688,0,0,0,4.572,2.972,20.749,20.749,0,0,0,6.189,1.127l.069-.217.483.224c.174,0,.347,0,.521,0a23.5,23.5,0,0,0,3.914-.278l-.256-.171.878-.346-.045.425c.674-.12,1.345-.258,2.007-.437a14.46,14.46,0,0,0,4.642-2.185,11.006,11.006,0,0,0,2.866-3.016,9.538,9.538,0,0,0,1.038-2.972,46.028,46.028,0,0,0,.382-7.453l-.116-2.351-.088-.035v.335l-.4.011-.024-.442-1.075,0,1.306-.425h0l.192-.063v.086h.064l-.131-2.656q-.055-2.02-.137-3.986-.028-.573-.041-1.12t-.013-1.5a23.138,23.138,0,0,0-.082-2.375q-.083-.928-.082-1.42a1.257,1.257,0,0,1,.382-1.01,7.4,7.4,0,0,1,2.02-.41,8.981,8.981,0,0,0,2.129-.354,3.165,3.165,0,0,0,.109-.737,8.339,8.339,0,0,0-.163-1.255ZM297.266,20.974l-.222-.85,1.026.131Zm3.2-.428-.21,0h-.006l-.334,0h-.064l-.241,0,.495-.359.037-.051a4.085,4.085,0,0,1,.285-.375c.088-.1.188-.079.293-.018l.04-.029-.011.045c.032.021.064.042.1.065l.338.226Zm9.646,15.979.055-.318c0-.028.007-.057.011-.088a.707.707,0,0,1,.082-.314.413.413,0,0,1,.288-.163c.023-.006.046-.01.066-.016l.171-.061.321.673Zm12.909-12.172a2.346,2.346,0,0,1,.214-.435l.184-.328.631.425-.527.933-.187-.157c-.024-.021-.057-.044-.089-.067-.138-.1-.28-.2-.226-.372" transform="translate(37.378 -58.747)" fill="#070203"/>
          <path id="パス_72489" data-name="パス 72489" d="M258.533,2.592A21.437,21.437,0,0,0,248.678.462a24.2,24.2,0,0,0-6.033.7,19.178,19.178,0,0,0-2.048.68c-.144.163-.253.257-.364.257a.242.242,0,0,1-.1-.023c-.021-.008-.039-.022-.059-.031a19.22,19.22,0,0,0-2.726,1.41A17.648,17.648,0,0,0,233.036,7.1a15.957,15.957,0,0,0-2.675,4.5,18.864,18.864,0,0,0-1.312,6.8,18.8,18.8,0,0,0,.57,4.916c.1.413.2.821.322,1.227l.057-.123,0-.113-.018-.044.02-.05v-.076l.25-.145.358-.208.167-.1-.255.559-.13.682-.018.943c.238.669.5,1.33.8,1.975a17.889,17.889,0,0,0,3.057,4.013c.388.366.79.715,1.2,1.052l.287-.337.82.876-.151.138-.037.035.065.051c.092-.1.184-.192.254-.282l.146-.19,1.419,1.55-.088.068c.251.151.5.3.759.446l.068-.216.223.144c.05.033.109.062.166.091a.938.938,0,0,1,.4.312c.382.13.9.3,1.563.521a15.431,15.431,0,0,0,2.679.6,29.588,29.588,0,0,0,4.34.3q9.364,0,14.618-5.514a18.5,18.5,0,0,0,4.183-6.711c-.026-.054-.051-.108-.08-.156l-.139-.229.259-.07c.042-.011.086-.03.131-.047a18.488,18.488,0,0,0,.907-6.029,17.73,17.73,0,0,0-3.114-9.908,16.908,16.908,0,0,0-6.582-5.76m5.164,12.9a1.982,1.982,0,0,1,.193-.367l.3-.5.259.835-.282.635-.207-.185c-.021-.018-.047-.038-.073-.058-.112-.086-.251-.192-.19-.355M239.3,4.716l.324.275.538-.9-.18,1.225.042.044-.064.107-.016.109-.29.039-.027,0-.2.027h0l-.215.029.179-.3Zm-6.381,7.672a2.1,2.1,0,0,1,.083-.43.527.527,0,0,1,.223-.252c.023-.016.046-.033.065-.05l.225-.2.33.947-1.008.533ZM231.66,22.736a1.483,1.483,0,0,0-.11.1.716.716,0,0,1-.425.255H231.1c-.189,0-.322-.185-.441-.349l-.142-.188.088-.142c.062-.093.218-.311.408-.26a2.551,2.551,0,0,1,.456.174l.449.195Zm-1.2-8.848.254-.718h.144a.754.754,0,0,0,.077-.006.426.426,0,0,1,.347.07.585.585,0,0,1,.151.307.711.711,0,0,0,.024.083l.094.271Zm1.614-1.672-.629-.033-.137.212-.1-.109-.408.606-.547-.976.326-.018.247-.012-.143-.149.393.02.077-.115.1.1.459-.706.575.776.026.008.135.006.13.752.069.4-.228-.31Zm.742,5.415-.093-.737-.169-.209.147-.034v-.006l.067-.013.614-1.607.221.26c.088.1.093.108.106.148l.024.075-.464,1.027.725-.139-.506,1.441-.508-.627Zm.452,5.227-.135-.6-.08-.013.351-1.525.489.319Zm.9-.019.334-.478c.049-.07.09-.128.137-.187l.061-.074h.1c.1,0,.138.047.251.172l.214.237Zm1.79,1.04a2.217,2.217,0,0,1-.188.13l.079.552-.361-.338-.031,0-.219.141-.05-.469,0-.02-.057-.546.241.229.146-.177.132-.247.011.074.063-.076.2.335c.093.146.188.3.039.417m.234-3.838-.142.011-1.973.027-.193-.44.305,0c.549,0,1.1,0,1.655,0h.495Zm-1.258-4.887.757-1.3c.079-.134.159-.27.246-.4l.059-.093h.11c.052,0,.084.013.2.075l.251.127Zm-.445-3.386,1.02-.452.032.822ZM237.053,4.5l0,.011-.006,0-.082.1-.073-.04-.189.08c-.079.07-.159.139-.243.2a.259.259,0,0,1-.161.051.564.564,0,0,1-.132-.019l-.743-.08.64-.315.418-.185.063-.057.115-.1.682-.664.3.27Zm1.212,27.215-.142-.294c-.025-.051-.056-.1-.087-.153a.906.906,0,0,1-.18-.5,1.137,1.137,0,0,1,.2-.511c.033-.055.065-.11.093-.166l.1-.2.965.6Zm20.894-2.6.1-.241-1.379-.459c-.011.026-.022.055-.034.081a9.742,9.742,0,0,1-4.054,4.681,11.244,11.244,0,0,1-5.473,1.379,8.78,8.78,0,0,1-3.114-.587,7.906,7.906,0,0,1-2.375-1.3,11.03,11.03,0,0,1-1.175-1.117l-.113.268-.766-.671.188-.151a.6.6,0,0,0,.063-.059c.018-.018.039-.038.061-.058a10.981,10.981,0,0,1-.687-.972,29.971,29.971,0,0,1-1.665-4.286,15.209,15.209,0,0,1-.573-2.948q-.108-.792-.163-1.12a20.5,20.5,0,0,1-.191-3.358,28.089,28.089,0,0,1,.655-6.538,14.928,14.928,0,0,1,2.212-4.954,8.857,8.857,0,0,1,2.76-2.443,7.969,7.969,0,0,1,4.2-1.105,10.9,10.9,0,0,1,7.167,2.347,11.883,11.883,0,0,1,2.649,3.355l.241.069-.127.155a11.848,11.848,0,0,1,1.1,3.246,11.057,11.057,0,0,0,.271,1.119l.088.333c.042-.012.086-.023.12-.037l.2-.078.326,1.065-.524.207q.225,3.059.225,4.953a21.909,21.909,0,0,1-1.219,7.859.185.185,0,0,1,.072.013c.426.214.84.439,1.255.665l.06.033.441-.276-.176.419.144.078-.1.065.486.343Zm2.418-7.637a2.917,2.917,0,0,1-.786.9c-.117.1-.234.207-.342.314l-.158.158-.142-.173c-.081-.1-.185-.2-.292-.307-.294-.293-.573-.57-.5-.851a2.869,2.869,0,0,1,.7-1.062c.161-.186.343-.4.541-.654l.2-.263.139.3c.122.265.251.493.36.689.236.42.391.7.277.943m1.278-15.746.043.309a.537.537,0,0,0,.013.069.537.537,0,0,1,.005.3.424.424,0,0,1-.212.222c-.018.011-.035.022-.051.033l-.161.122-.425-.561Zm-.322,13.152c.077-.078.154-.159.23-.241a5.3,5.3,0,0,1,.716-.673c.053-.036.192-.139.648.174.094.065.252.173.207.338a8.117,8.117,0,0,1-.375,1.011l-.274.662-1.3-1.117Zm.928,5.982-.135-.189c-.039-.054-.091-.12-.142-.186-.235-.3-.342-.438-.2-.587.316-.338.662-.654,1-.958l.539-.494.12,1.3Zm4.317-3.144a2.957,2.957,0,0,1-.238.487l-.225.41-.191-.225c-.021-.024-.049-.051-.076-.077-.108-.105-.233-.224-.185-.386a2.276,2.276,0,0,1,.219-.471c.027-.045.052-.089.074-.133l.12-.229.193.172c.023.021.055.045.087.068.14.105.284.213.223.384m-2.312-5.342c.289-.483.624-.942.948-1.386l.491-.682.67,1.34-1.5,1.741-.151-.2c-.047-.061-.113-.132-.178-.2-.236-.26-.392-.431-.283-.614" transform="translate(55.048 -58.429)" fill="#070203"/>
          <path id="パス_72490" data-name="パス 72490" d="M373.1,18.341a11.793,11.793,0,0,0-3.59-2.375,30.447,30.447,0,0,0-4.028-1.583q-4.968-1.474-6.5-3.085a4.819,4.819,0,0,1-1.154-1.624L357.4,9.8l-.145-2.3-.122-.2.414-.426A4.486,4.486,0,0,1,359,4.459a6.14,6.14,0,0,1,2.515-1.252,11.313,11.313,0,0,1-.807-1.732l-.029-.079.038-.1a3.692,3.692,0,0,1,1.2-.775A11.226,11.226,0,0,0,355.218,3.4a9.9,9.9,0,0,0-3.113,7.371,10.38,10.38,0,0,0,1.117,4.491,9.6,9.6,0,0,0,3.057,3.726,30.584,30.584,0,0,0,6.961,3.167q5.023,1.778,6.17,2.839a4.759,4.759,0,0,1,.805,6.812,5.974,5.974,0,0,1-2.852,2.061,9.825,9.825,0,0,1-3.249.628,9.136,9.136,0,0,1-3.085-.505,7.852,7.852,0,0,1-2.443-1.365,9.051,9.051,0,0,1-1.87-2.252q-.382-.627-1.692-3.658l-2.3.05-.209.95v.092q0,.737.055,2.512c.042,1.059.074,1.885.1,2.5l.706.248-.668.884c0,.048,0,.088,0,.111v.3a1.044,1.044,0,0,0,.246.519,5.429,5.429,0,0,0,1.72.682l3.159.921c.027-.04.054-.079.079-.12l.176-.285.171.289a1.774,1.774,0,0,0,.109.159l.06.084a23.05,23.05,0,0,0,4.081.452,18.839,18.839,0,0,0,4.736-.49,12.563,12.563,0,0,0,3.568-1.594,15.788,15.788,0,0,0,2.538-1.924,7.538,7.538,0,0,0,1.665-2.484,13.953,13.953,0,0,0,.955-5.05,10.8,10.8,0,0,0-.614-3.917,10.18,10.18,0,0,0-2.251-3.263m-17.995-1.655-.185,0,0-.2-.042.2h-.044c-.095,0-.239-.018-.258-.182-.013-.088-.02-.184-.025-.28l-.02-.285.631-.007Zm-.023-2.657c-.055.019-.11.04-.166.062a2.342,2.342,0,0,1-.512.154l-.038,0c-.146,0-.238-.129-.321-.243a.991.991,0,0,0-.066-.088l-.2-.222.452-.168a2.775,2.775,0,0,1,.524-.166c.166-.038.268.124.355.261.022.035.043.07.064.1l.165.22Zm.011-2.12a.62.62,0,0,0-.074-.006.553.553,0,0,1-.3-.081.361.361,0,0,1-.122-.316.455.455,0,0,0,0-.064l-.024-.173.667-.2.118.831Zm4.36,4.6c.044-.04.087-.088.131-.137a.814.814,0,0,1,.476-.328.791.791,0,0,1,.52.243c.051.042.1.084.151.117l.173.114-.117.169c-.035.051-.073.115-.111.178-.125.208-.219.366-.367.366a.234.234,0,0,1-.067-.01,2.317,2.317,0,0,1-.573-.28c-.06-.035-.119-.072-.179-.106l-.245-.137Zm1.159,3.562c-.177.042-.335.091-.477.134a2.325,2.325,0,0,1-.663.141.805.805,0,0,1-.175-.018,1.07,1.07,0,0,1-.565-.49,2.649,2.649,0,0,0-.174-.222l-.205-.225.287-.1c.091-.033.184-.076.277-.118a1.349,1.349,0,0,1,.771-.2,1.316,1.316,0,0,1,.664.434c.1.1.212.2.342.309l.317.258Zm7.563,3.14a.363.363,0,0,1-.2.071.255.255,0,0,1-.077-.012,2.206,2.206,0,0,1-.466-.234l-.552-.316.447-.139.161-.054a2.245,2.245,0,0,1,.5-.132.324.324,0,0,1,.258.114.543.543,0,0,1,.172.369.526.526,0,0,1-.243.332m1.059,12.076-.642-.355.1-.176c.008-.016.016-.036.024-.055a.425.425,0,0,1,.19-.241.632.632,0,0,1,.3-.047.459.459,0,0,0,.076,0l.321-.021Zm5.376-10.846a.513.513,0,0,0-.041.047l-.41.539.13-1.8.33.6c.01.018.021.037.034.055a.493.493,0,0,1,.1.287.438.438,0,0,1-.145.272" transform="translate(19.078 -58.449)" fill="#070203"/>
          <path id="パス_72491" data-name="パス 72491" d="M497.639,26.441a16.53,16.53,0,0,1-1.324,3.167,7.866,7.866,0,0,1-1.515,1.774,5.916,5.916,0,0,1-2.457,1.529,19.035,19.035,0,0,1-6.906,1.01l-1.72-.054-.422.007.124.076c.149.092.3.185.444.259l.367.184-2.258,1.095-1.587-1.058.293-.16c.147-.08.292-.178.437-.276l.2-.132-1.8-.076a1.47,1.47,0,0,1-.273-1.062l.109-12.94q0-1.092.028-1.774.083-1.829.082-3.248,0-1.229-.082-2.866-.054-1.037-.055-1.474,0-.355.028-.708.083-1.365.082-1.5l-.028-.3V7.42l.082-1.72.028-.764a2.771,2.771,0,0,1,.163-.328q.328-.165.464-.219l3.387-.791a2.492,2.492,0,0,0,1.2-.328,1.367,1.367,0,0,0,.3-.955,1.961,1.961,0,0,0-.218-1.092.672.672,0,0,0-.574-.219q-.136,0-1.01.082-2.948.245-4.832.246L475.5,1.278l-3.9.028q-4.094-.219-4.75-.219a1.05,1.05,0,0,0-.519.137q-.028.436-.028.655c0,.126.005.279.013.458l.234,0a.387.387,0,0,0,.061-.006.344.344,0,0,1,.335.086.553.553,0,0,1,.071.114l.341.157-.2.2-.095.1h0a.211.211,0,0,1-.035.031l-.207.138-.093-.231c-.012-.033-.023-.066-.035-.1l-.36-.165c.006.1.013.2.022.314a3.462,3.462,0,0,0,1.338.573,7.2,7.2,0,0,1,.827.237c.084-.115.171-.229.265-.364l.18-.258.16.271c.1.162.2.316.3.451s.154.229.208.325l.331.131a3.613,3.613,0,0,1,1.57.723,14.772,14.772,0,0,1,.369,3.153v.382l-.028,2.761-.109,6.086.055,2.839-.028,2.675V25.22l-.151,3.272.05.024-.045.093.212.437-.226-.11,0,.236.587.016-.526.258.006.011-.062.032.043,2.773a4.642,4.642,0,0,1-.163,1.092,2.273,2.273,0,0,1-1.42.354q-.273,0-1.815.232a19.328,19.328,0,0,0-2.388.478,5.2,5.2,0,0,0-.166.954l.39-.06-.289.777-.122-.1c0,.031,0,.062,0,.094a2.971,2.971,0,0,0,.054.519q.356.028.519.028h.41q2.812-.219,6.033-.3l5.569-.163q4.471,0,9.142.163l5.214.185,1.386.1.54-.813.277.87c.6.041.958.062,1.045.062l1.42-.028h1.01a6.616,6.616,0,0,0,.792-.109,11.183,11.183,0,0,0,.382-2.4q.492-4.915.491-6.88V26.55a11.166,11.166,0,0,0-1.474-.109Zm-24.958.512.56-.81.337.924Zm.563,5.969-.113-.228c-.04-.079-.084-.158-.13-.236a2.008,2.008,0,0,1-.282-.681c-.041-.282.416-.609.421-.612a.282.282,0,0,1,.3-.05,1.88,1.88,0,0,1,.206.144l-.716-.679.99-1.125.117.319c.021.058.05.117.077.175a1.117,1.117,0,0,1,.145.525,1.353,1.353,0,0,1-.19.541c-.033.062-.064.122-.091.184l-.1.244c.052.047.1.091.16.142s.145.134.226.206l.18.157Zm1.582-15.749c-.024.008-.052.021-.079.033a.621.621,0,0,1-.242.07.247.247,0,0,1-.144-.045.528.528,0,0,1-.18-.307c-.008-.028-.016-.056-.026-.081l-.081-.2.205-.067a.776.776,0,0,0,.08-.033.375.375,0,0,1,.386-.024.527.527,0,0,1,.18.306.683.683,0,0,0,.026.081l.081.2Zm1.691.694.58-.766.255.927Zm.284-8.182a.45.45,0,0,1-.225-.055,2.7,2.7,0,0,1-.97-1.071c-.083-.152.035-.311.163-.461.222-.258.534-.552.757-.47a2.428,2.428,0,0,1,.824.671c.18.185.405.417.7.7l.258.247-.345.094c-.211.057-.4.126-.56.185a1.985,1.985,0,0,1-.607.159m2,3.5c-.041.055-.082.109-.115.163l-.131.215-.182-.176c-.045-.044-.1-.091-.161-.137-.2-.166-.378-.308-.318-.5a2.312,2.312,0,0,1,.346-.623c.047-.069.1-.138.14-.208l.183-.289.164.3c.032.057.072.113.11.17a.925.925,0,0,1,.224.545,1.029,1.029,0,0,1-.26.54" transform="translate(-249.167 -0.588)" fill="#070203"/>
          <path id="パス_72492" data-name="パス 72492" d="M202.143,2.449l.149-.188.691.771c.086.094.168.191.253.286.26-.055.531-.113.827-.173q.108-.877.137-1.938-1.119-.082-1.911-.082a9.274,9.274,0,0,0-2.02.219l-.955.054-3.549.109q-.355.028-.955.028a40.314,40.314,0,0,1-5.16-.328L187,1.178q-.137,0-.737.028a7.708,7.708,0,0,0-.219,1.557,7.751,7.751,0,0,0,.983.273,16.842,16.842,0,0,1,3.822,1.229.817.817,0,0,1,.382.354l.191,1.911.163,4.641-.054,1.229q-.017,2.232-.045,3.44c.143.049.285.1.424.154s.287.112.432.16l.229.077-.117.212c-.03.056-.063.127-.1.2-.113.248-.2.447-.384.447l-.031,0a4.991,4.991,0,0,1-.621-.11,10.832,10.832,0,0,1-1.839.173l-4.777.137-1.789-.01c.04.039.071.071.115.113l.258.248-.345.094c-.212.057-.4.125-.561.185a1.964,1.964,0,0,1-.607.159.454.454,0,0,1-.224-.054,2.365,2.365,0,0,1-.775-.756l-.987-.006h-1.965l-4.04-.082a10.851,10.851,0,0,1-1.283-.163q-.083-1.529-.082-1.938,0-.465.028-.9.054-.737.054-.873,0-.246-.028-.737l.028-3.468q0-.219-.028-.519V8.355l.054-.929.018-.765-.779-.1.574-.834.213.582,0-.088-.028-.437-.082-1.01a.86.86,0,0,1,.6-.792l2.173-.346a1.777,1.777,0,0,1,.373-.754,2.3,2.3,0,0,1,1.289-.491l.086-.014c.169-.037.362.159.562.567a.256.256,0,0,1-.016.326l0,0,.342-.054a6.443,6.443,0,0,0,.109-1.062q0-.245-.028-.819a10.924,10.924,0,0,0-1.693-.109,5.426,5.426,0,0,0-1.255.137q-3.495.273-4.395.273-.575,0-1.324-.041t-1.486-.041q-1.611-.029-4.941-.382-.382.028-1.365.028a8.246,8.246,0,0,0-1.529.109,3.511,3.511,0,0,0-.163.9q0,.218.082,1.01a5.242,5.242,0,0,0,1.12.219l.41.109a20.814,20.814,0,0,1,2.265.273q.273.054.532.082a1.917,1.917,0,0,1,.478.109,3.286,3.286,0,0,1,.219.655,33.053,33.053,0,0,1,.246,3.713V9.558l.028,2.375-.054,2.293.054.792c0,.945,0,1.766-.008,2.488l.1.04a.7.7,0,0,0,.068.022.419.419,0,0,1,.287.185.445.445,0,0,1,0,.335.474.474,0,0,0-.017.071l-.023.132-.425.1c-.013,1.083-.035,1.84-.064,2.248l-.028.655q0,1.829.109,5.514l-.354,6.825a13.809,13.809,0,0,1-1.5.436l-3.413.6a13.571,13.571,0,0,0-.163,1.938,45.874,45.874,0,0,0,5.3-.215q.191-.028,1.338-.082l.573-.028c.961,0,1.781.018,2.492.049a1.447,1.447,0,0,1-.392-.389c-.063-.079-.127-.159-.185-.219l-.153-.156.167-.14c.07-.059.138-.123.205-.188a1.946,1.946,0,0,1,.6-.442c.187-.072.367.016.643.148.134.064.3.142.5.222l.335.133-.288.217c-.193.145-.35.277-.483.388a2.039,2.039,0,0,1-.681.441c.388.02.75.044,1.057.074l3.849.163a3.633,3.633,0,0,0,.464.028l.19.007.543-1.3.638,1.315c.406,0,.867-.01,1.413-.025a6.2,6.2,0,0,0,.109-.983c0-.085-.018-.169-.025-.254l-.287-.038.248-.357c-.008-.067-.009-.134-.019-.2a1.8,1.8,0,0,0-.6-.246,2.842,2.842,0,0,1-.464-.137l-4.013-.628-.273-.163a13,13,0,0,1-.082-1.447V27.245l-.122.033c-.093.025-.185.059-.275.091a1.627,1.627,0,0,1-.547.134.631.631,0,0,1-.149-.017.618.618,0,0,1-.35-.275l-1.32.811-.1-.207c-.021-.044-.046-.093-.073-.144a2.388,2.388,0,0,1-.251-.638.3.3,0,0,1,.117-.267c.079-.072.428-.322.66-.255a1.511,1.511,0,0,1,.561.36c.06.053.119.105.18.151l.187.143c-.03-.045-.059-.092-.088-.139-.043-.069-.086-.138-.13-.2l-.183-.233.283-.086c.086-.025.171-.054.256-.083a3.157,3.157,0,0,1,.759-.187c.2-.021.284.162.418.432.047.095.1.2.161.306h0V23.7c0-.139-.018-.444-.051-.9l-.538.12.055-.3a.767.767,0,0,0,.01-.082.7.7,0,0,1,.081-.3.377.377,0,0,1,.292-.149c.021,0,.041-.006.059-.011l.054-.015.092-1.722a4.235,4.235,0,0,1,1.174-.191h.764q.495,0,1.2-.028a4.074,4.074,0,0,1,.437-.028l.191.028.246.028,6.883.074.13-.205.113.207,1.388.015c.211-.173.342-.265.481-.144a1.864,1.864,0,0,1,.149.151l3.525.038q1.174.027,2.184.109a31.189,31.189,0,0,0,.163,3.468l-.02,1.64.188-.389.355,1.008-.551-.04v.1c0,.3,0,.6,0,.9.093.083.193.171.312.268l.33.272-.419.083c-.08.016-.153.034-.225.052q-.021,1.831-.148,3.658l.145.163.081.052a3.181,3.181,0,0,1,.349.241.2.2,0,0,1,.051.248l.059.067-.082-.009c-.017.034-.037.068-.057.1l-.192.355-.41-.5c-.038.464-.075.926-.122,1.389q-.522.163-.849.246l-2.212.354-2.1.491a10.948,10.948,0,0,0-.137,1.774,3.316,3.316,0,0,0,.929.163q3.549-.353,5.788-.354,4.968,0,7.207.246,1.692.163,3,.163.191,0,1.283-.028l-.082-1.911a21.235,21.235,0,0,0-2.2-.727l-.095.055c-.035.021-.069.044-.1.066a.6.6,0,0,1-.33.139h0a.484.484,0,0,1-.317-.162.728.728,0,0,0-.064-.054l-.5-.366h.059c-.113-.023-.224-.05-.337-.071q-.488-.109-1.062-.273c.024-.578.04-1.093.048-1.555l-.084.173-.389-.932.477.028-.052-3.12V24q-.11-3.71-.082-4.914l.054-3.468L199.014,13V9.529q0-.137-.028-1.365V7.481q0-.3.054-.873l.028-.354-.028-.708V5.082l.163-.546a9.034,9.034,0,0,1,1.57-.641c.2-.061.5-.138.887-.229-.045-.057-.1-.119-.139-.173-.139-.173,0-.331.371-.752.091-.1.182-.207.25-.292m-39.7,32.577.532-.825.368.909ZM164.67,2.442l-.333-.951.871.1Zm1.523,4.28-.963-.4.97-.394Zm.155,16.709a.4.4,0,0,1,.036-.337.671.671,0,0,0,.026-.064l.076-.241.219.128a.416.416,0,0,0,.064.03.355.355,0,0,1,.214.556c-.009.023-.02.046-.027.067l-.08.251-.222-.142a.662.662,0,0,0-.063-.035.477.477,0,0,1-.244-.215m1.085,9.9c-.008.017-.015.038-.023.058-.035.1-.09.243-.249.251h-.018a.707.707,0,0,1-.255-.059l-.29-.094.1-.211c.008-.017.015-.036.023-.056.035-.095.089-.238.244-.248a.573.573,0,0,1,.276.057l.292.092Zm1.76-10.844c-.054.067-.108.137-.16.206a2.619,2.619,0,0,1-.516.558.218.218,0,0,1-.134.045.844.844,0,0,1-.432-.192c-.2-.138-.327-.262-.285-.417a2.087,2.087,0,0,1,.319-.617c.041-.062.084-.124.12-.185l.1-.157,1.153.563Zm1.858-13.759c0-.026.008-.054.01-.081a.6.6,0,0,1,.1-.316c.112-.139.289-.1.4-.115l.164-.018.22.7-.914.1Zm1.091,2.542h0l-.095.1,0,0-.219.224-.114-.284c-.013-.033-.024-.067-.035-.1l-1.045-.482.9-.008a.547.547,0,0,0,.062-.006.34.34,0,0,1,.331.084.581.581,0,0,1,.072.116l.341.157Zm14.949,7.792a.676.676,0,0,0-.07.057l-.152.144-.139-.156c-.019-.021-.042-.042-.065-.062a.357.357,0,0,1,.028-.648c.025-.019.05-.038.07-.056l.151-.142.139.154a.688.688,0,0,0,.065.062.357.357,0,0,1-.026.649m1.643,15.885c-.069.09-.135.181-.2.274a8.1,8.1,0,0,1-.654.811.221.221,0,0,1-.166.071,1.061,1.061,0,0,1-.42-.159c-.068-.035-.135-.071-.193-.1l-.2-.085.754-1.489,1.245.454ZM194.372,7.8c-.11.047-.214.105-.309.157a1.172,1.172,0,0,1-.509.194.382.382,0,0,1-.142-.028,1.675,1.675,0,0,1-.581-.49c-.063-.071-.125-.142-.19-.207l-.151-.149.981-.9,1.155,1.313Zm1.057,2.149.224-.231,0-.054-.783-1.035.8-.438-.132-.142L195.74,8l.016-.327.241.262.52-.649.764.8-.958.206.01.011-.193.1-.017.021-.056,1.107.015.02.081.078.979.123-.545.855-.178-.171-.439-.422-.053-.006-.306.321.018-.358Zm.228,22.76.559-.768.311.9ZM197.026,11.7c-.04.032-.081.064-.113.093l-.154.144-.137-.16c-.018-.019-.04-.04-.062-.061a.393.393,0,0,1-.179-.338,1.61,1.61,0,0,1,.143-.413l.183-.431.214.253c.029.035.062.069.1.1a1,1,0,0,1,.267.389c.052.176-.1.3-.258.42" transform="translate(75.308 -58.624)" fill="#070203"/>
          <path id="パス_72493" data-name="パス 72493" d="M372.058,4.4c-.021-.6-.023-1.2-.017-1.785,0-.165,0-.33,0-.495l-1.546,1-.076-.556c-.069-.468-.086-.594.12-.63.389-.083.8-.146,1.19-.206l.234-.037.125-.081.359-.723v.491l.307-.2-.263.528a1.676,1.676,0,0,1,1.338.987,3.2,3.2,0,0,1-.007,1.579,4.1,4.1,0,0,0-.089,1.09c.018.142-.1.24-.2.31a1.619,1.619,0,0,1-.164.1,17.39,17.39,0,0,1,1.956,4.317l.328.054,1.963.133.273-.082A5.684,5.684,0,0,0,378,9.132a40.439,40.439,0,0,0-.327-4.368,18.292,18.292,0,0,0-.491-2.812h0A29.247,29.247,0,0,0,373.067.806,23.923,23.923,0,0,0,370.15.417a4.054,4.054,0,0,1-.77.816c-.627.55-1.138,1-.678,1.822A6.522,6.522,0,0,1,372.058,4.4M375,4.018l.009-.01-.253-.51.725.443h0l.049.03.042.025.2.12-.187.11v.027c.205.414.415.84.6,1.272.084.183-.037.246-.435.451l-.49.26-.069-1.779-.528.309.318-.619.047-.091Z" transform="translate(14.278 -58.417)" fill="#070203"/>
          <path id="パス_72494" data-name="パス 72494" d="M631.239,26.667q-.542,0-1.392.082a13.864,13.864,0,0,1-2.306,4.214l.08.343-.318-.062c-.179.214-.349.435-.541.638a6.4,6.4,0,0,1-3.221,1.829c-.142.028-.285.046-.426.072l.1.159-.321-.122-.076.013-.015.036-.179.757.024.049-.052.067-.072.3-.093-.089-.48.623.142-.951-.023-.023.042-.1.055-.367.067.065.115-.287a30.889,30.889,0,0,1-5.25.372q-5.732,0-6.852-.573a1.446,1.446,0,0,1-.215-.165l-.118.282.142.077-.1.066.483.351-1.166.012.1-.238-1.61-.536.21-.327c.117-.19.2-.328.374-.241.413.207.819.427,1.224.647l.085.046.309-.2a1.443,1.443,0,0,1-.448-1.2l.048-5.164a.484.484,0,0,1-.093-.384,1.326,1.326,0,0,1,.1-.258v-.091q-.109-2.157-.109-5.405c0-.146.009-.452.027-.915l-.65.258-.071-.2c-.021-.061-.048-.122-.076-.184a1.05,1.05,0,0,1-.136-.586c.033-.2.262-.265.5-.333.072-.02.143-.04.2-.062l.2-.078.326,1.064-.255.1q2.074-.214,6.154-.215a21.608,21.608,0,0,1,4.04.191,1.98,1.98,0,0,1,1.092.737,11.029,11.029,0,0,1,.983,3.167q.3,1.365.41,1.8h1.938v-.6q0-.792-.082-2.416t-.082-2.362q0-.463.041-1.283t.041-3.686q0-1.256-.109-3.686l-1.583-.028-.354.028a37.486,37.486,0,0,1-.955,4.013,2.817,2.817,0,0,1-.873,1.188,6.775,6.775,0,0,1-2.566.532q-2.077.191-6.961.191a10.015,10.015,0,0,1-1.174-.082V14.108l-.055-4.586q0-4.7.082-5.379,2.621-.108,5.951-.109,2.921,0,5.46.219,1.392.109,1.665.137a7.341,7.341,0,0,1,1.747.219,12.577,12.577,0,0,1,1.747,2.512l1.09,1.938q.41,1.066.655,1.611.71.055.929.054l1.12-.054c.018-.218.028-.382.028-.491l-.054-1.12V3.435a2.125,2.125,0,0,0-.491-1.474,42.922,42.922,0,0,0-4.914-.41l-4.941.054q-4.915,0-11,.246-4.067.163-5.05.163a36.617,36.617,0,0,1-5-.3q-1.145-.163-2.7-.246l-.14,2.18q.685.082,1.2.109a17.866,17.866,0,0,1,3,.382q.519.109.819.163a1.334,1.334,0,0,1,.819.382,5.254,5.254,0,0,1,.055.546l.246,3.385-.028,3.085.137,4.368-.028,3.085.082,10.291-.028.849c0,.153.007.291.01.425a3.09,3.09,0,0,1,.466.4,4.237,4.237,0,0,0,.314.294l.255.2-.294.138c-.11.052-.219.111-.328.171-.13.071-.263.143-.4.205a5.683,5.683,0,0,1-.2,1.4l1.7,1.625-.213.139c-.073.048-.153.114-.234.179a1.07,1.07,0,0,1-.568.317.316.316,0,0,1-.118-.023,4.719,4.719,0,0,1-1.419-.943c-.156-.146-.053-.338.2-.77a13.187,13.187,0,0,1-3.381.684,17.1,17.1,0,0,0-2.075.3v1.887l3.3-.109h1.146q4.777-.273,8.053-.273,6.576,0,11.247.191,6.635.274,8.163.273,1.038,0,2.812-.082l.491-3.114,1.01-5.16.163-.819q.054-.464.137-1.146-.6-.028-.9-.028M598.311,36.2l.105-.873.784.538Zm4.923-14.272c-.059.017-.12.042-.181.067a1.167,1.167,0,0,1-.423.112.45.45,0,0,1-.151-.025.763.763,0,0,1-.371-.44,1.629,1.629,0,0,0-.089-.169l-.149-.239.275-.064c.059-.015.12-.036.181-.057a.9.9,0,0,1,.565-.065.739.739,0,0,1,.369.418c.029.055.057.11.087.158l.149.229Zm1.96,1.121a.82.82,0,0,1-.188.08l-.007,0-.317.1h0l-.28.092.3-.41-.5-.219.585-.1.083-.5,1.135.606Zm2.274-5.551a1.25,1.25,0,0,1-.512-.15c-.06-.028-.12-.055-.18-.077l-.384-.141.345-.219c.062-.04.122-.086.183-.13a1.342,1.342,0,0,1,.562-.3.7.7,0,0,1,.525.24,1.849,1.849,0,0,0,.148.117l.274.184-.289.16a1.765,1.765,0,0,0-.154.1.982.982,0,0,1-.492.214Z" transform="translate(-287.14 -0.725)" fill="#070203"/>
          <path id="パス_72495" data-name="パス 72495" d="M424.1,26.748a13.89,13.89,0,0,1-3.077,5.124l.328.693a.631.631,0,0,0,.034.057.4.4,0,0,1,.085.319c-.01.038-.028.076-.04.114l1.139-.661-1.173,1.14-.1.1-.016.228-.321-.166,0,0-.329-.169.26-.151.03-.08.1-1.417-.006.008a6.407,6.407,0,0,1-3.221,1.829c-.326.064-.655.113-.982.166l-.122.091.432.454-.671-.163c-.038-.01-.078-.017-.117-.025l-.328.244.071-.482a30.923,30.923,0,0,1-4.725.289q-5.732,0-6.852-.573a1.45,1.45,0,0,1-.737-1.42l.026-3.192a6.048,6.048,0,0,1-1.565-1.662l-.17-.229c-.159-.21.04-.458.635-1.145.159-.185.318-.367.436-.521l.106-.137.552.3c-.052-1.314-.08-2.875-.08-4.715q0-.221.028-.929,2.074-.219,6.2-.219a21.611,21.611,0,0,1,4.04.191,1.974,1.974,0,0,1,.8.429l.006,0A1.891,1.891,0,0,1,416,20.335c.24.022.512.046.8.046h.53l-.4.353c-.325.291-.631.568-.924.832l-.456.411a11.093,11.093,0,0,1,.491,1.96q.3,1.365.41,1.8h1.938v-.6q0-.792-.082-2.416t-.082-2.362q0-.463.041-1.283t.041-3.686q0-1.256-.109-3.686l-1.584-.028-.354.028c-.1.576-.229,1.147-.359,1.717.057.132.115.264.161.4.074.219-.1.435-.445.731-.1.389-.2.78-.311,1.165a2.828,2.828,0,0,1-.873,1.188,6.778,6.778,0,0,1-2.566.532q-2.079.191-6.961.191a10.017,10.017,0,0,1-1.174-.082V14.108l-.055-4.586q0-4.7.083-5.379,2.62-.108,5.951-.109,2.921,0,5.46.219,1.392.109,1.665.137a7.386,7.386,0,0,1,1.747.219,12.6,12.6,0,0,1,1.747,2.512l1.092,1.938q.41,1.066.655,1.611.71.055.929.054l1.12-.054c.018-.218.028-.382.028-.491l-.054-1.12V8.541a2.833,2.833,0,0,1-.426.694c-.079.1-.158.207-.226.312l-.154.235-.173-.219a3.127,3.127,0,0,0-.223-.239c-.218-.219-.443-.444-.431-.715a2.325,2.325,0,0,1,.359-.961c.088-.163.185-.345.282-.553l.159-.343.2.323c.122.2.245.368.351.513a2.92,2.92,0,0,1,.285.444V5.319a1.817,1.817,0,0,1-.347.328.224.224,0,0,1-.127.038A.485.485,0,0,1,423.4,5.6c-.023-.013-.557-.331-.531-.633a1.637,1.637,0,0,1,.316-.723c.052-.081.1-.162.148-.243l.1-.18.673.372V3.434a2.125,2.125,0,0,0-.491-1.474,42.951,42.951,0,0,0-4.914-.41l-1.584.018-.042.052-.035-.051-3.28.036q-4.915,0-11,.246-4.068.163-5.05.163a36.61,36.61,0,0,1-5-.3c-.241-.034-.5-.064-.766-.093l.089.04-.145.2c-.03.042-.059.094-.09.146-.1.176-.205.36-.4.367h-.018a1.073,1.073,0,0,1-.507-.178c-.055-.03-.11-.062-.166-.087l-.233-.105.376-.483c-.272-.02-.553-.038-.846-.054l-.141,2.185q.684.082,1.2.109a17.876,17.876,0,0,1,3,.382q.518.109.819.163a1.336,1.336,0,0,1,.819.382,5.221,5.221,0,0,1,.055.546l.246,3.385-.028,3.085.138,4.364-.008.858c.282.175.425.289.365.465-.12.345-.25.688-.378,1.032l-.006.73.082,10.291-.028.849q.028,1.119.028,1.583a5.691,5.691,0,0,1-.3,1.993,13.157,13.157,0,0,1-3.93.875,17.055,17.055,0,0,0-2.075.3V36.93l3.3-.109h1.146q.592-.034,1.162-.063l.2-.134.05.121q3.861-.2,6.645-.2,6.576,0,11.247.191,6.635.274,8.163.273,1.037,0,2.812-.082l.491-3.114,1.01-5.16.163-.819q.054-.464.137-1.146-.6-.028-.9-.028-.543,0-1.393.082M416.208,3.484c.045-.027.095-.064.144-.1.167-.124.338-.255.515-.17a.834.834,0,0,1,.342.409c.026.051.052.1.081.145l.11.173-.173.108c-.042.025-.087.061-.134.1a.736.736,0,0,1-.383.194.232.232,0,0,1-.124-.035,1.071,1.071,0,0,1-.343-.384c-.031-.048-.061-.1-.094-.142l-.132-.18Zm-18.539,9.2-.289-.319a.6.6,0,0,1-.094.1.234.234,0,0,1-.15.05.546.546,0,0,1-.184-.042c-.019-.007-.039-.015-.055-.019l-.813-.2.813-.2L397.14,12l.009-.015-.127-2.063-.16.136.089-.545c.01-.058.021-.117.035-.181l-.012-.189.395.024h0l.06,0,.124.007h0l.322.019-.313.265.078,2.425.547-.12-.536.457Zm3.077-1.439-1.389.2.031-.8.449.065-.793-.486,1.323.321a.579.579,0,0,1,.252.088.881.881,0,0,1,.168.168l.03.037,1.006.616Zm19.593,25.68-.962-.416.99-.391Z" transform="translate(8.041 -58.724)" fill="#070203"/>
          <path id="パス_72496" data-name="パス 72496" d="M578.445,1.239q-.464.028-1,.082t-.86.054l-4.883.163h-1.146l-.546.028-1.337-.028-.519.028q-3.467.163-6.661.163-6.361,0-9.637-.328l-3.6-.137V3.177l.655.163q1.038.328,1.583.437a6.805,6.805,0,0,1,2.648.764l.275,7.647a2.775,2.775,0,0,1,.938.243c.161.062.338.129.537.193l.3.1-.21.231c-.154.171-.3.345-.417.495-.28.343-.423.519-.582.519a.247.247,0,0,1-.1-.022,3.614,3.614,0,0,1-.413-.221l-.055,4.605.109,3.9-.028,2.648.109,6.306v.163a9.2,9.2,0,0,1-.1,1.316l.3.277-.418.345c-.022.1-.031.2-.056.3l-.519.328c-.086.022-.173.041-.26.062l-.687.568-.128-.161c-.045-.057-.105-.115-.159-.173-.517.118-1.034.231-1.551.332q-1.392.273-1.993.41l-.055,1.965q.653.028,2.43.028.191,0,2.347-.246a23.956,23.956,0,0,1,2.866-.163q5.461,0,6.115.028l3.879.19.853-.028.519.028a8.209,8.209,0,0,0,.082-1.037,7.623,7.623,0,0,0-.109-1.092l-.737-.163a10.023,10.023,0,0,0-2.156-.354l-.546-.054a4.775,4.775,0,0,1-2.047-.655,5.112,5.112,0,0,1-.491-2.785l-.06-3.6-.088.225-.868-.607.91-2.414-.031-1.8a16.345,16.345,0,0,1,.191-2.648,16.825,16.825,0,0,1,2.347-.191q6.934,0,8.244.655.738.355,1.365,2.512a11.782,11.782,0,0,0,.546,1.5,8.048,8.048,0,0,0,1.062.163,4.25,4.25,0,0,0,.819-.109q.028-.573.028-.819,0-3.767-.028-4.04l-.055-.6q.082-1.011.109-2.4l.164-4.368q-.9-.082-1.2-.082c-.091,0-.264.009-.519.028q-.6.028-.737.028a12.566,12.566,0,0,1-.425,3.263,2.5,2.5,0,0,1-.942,1.105,5.521,5.521,0,0,1-1.911.437l-.115.012.239.689-1.011.534.063-.4c.008-.052.015-.105.021-.159a2.159,2.159,0,0,1,.082-.424.419.419,0,0,1,.15-.193,25.678,25.678,0,0,1-2.788.185h-3.276l-1.938-.028a1.131,1.131,0,0,1-.41-.191,17.925,17.925,0,0,1-.191-3.495l.082-3.713-.082-3.248a3.252,3.252,0,0,1,.354-1.611,5.478,5.478,0,0,1,.873-.273,24.591,24.591,0,0,1,3.795-.273l3.767-.109q3.686,0,4.49.505t1.952,3.263a5.929,5.929,0,0,0,.628,1.229,1.425,1.425,0,0,0,.873.246,11.783,11.783,0,0,0,1.447-.137,3.717,3.717,0,0,0,.163-1.255l-.41-5.132a12.5,12.5,0,0,0-.219-1.638M555.112,9.872a2.835,2.835,0,0,0-.6-.735c-.115-.112-.229-.224-.333-.342l-.206-.231,2.132-.694.04.23c.027.156.064.312.1.468a3.667,3.667,0,0,1,.144,1.138,5.335,5.335,0,0,1-.323,1.258c-.024.071-.047.142-.071.212l.46-.063.066.4-.129.025-.418.084.3,1.256-.791-1.432h0l-.1-.183.091-.013c-.018-.087-.035-.175-.052-.263a4.628,4.628,0,0,0-.31-1.115m.234,10.488a1.419,1.419,0,0,1-.432-.1c-.043-.015-.088-.03-.131-.044l-.226-.07.505-1.026.3.288a1.867,1.867,0,0,1,.328.364.348.348,0,0,1-.041.356c-.089.159-.186.236-.3.236Zm.337,12.489-.129-.321a.466.466,0,0,0-.033-.067.515.515,0,0,1-.08-.314.506.506,0,0,1,.164-.276c.018-.019.036-.037.051-.056l.219-.281.282.728Zm.863-10.52-.93-.421.943-.381Zm15.148-5.865.032.824-1.05-.371Z" transform="translate(-273.217 -0.657)" fill="#070203"/>
          <path id="パス_72497" data-name="パス 72497" d="M235.052,31.067l.013,0h-.013Z" transform="translate(-181.748 -9.375)" fill="#070203"/>
        </g>
      </g>
    </g>
  </g>
</svg>
