<svg xmlns="http://www.w3.org/2000/svg" xmlns:xlink="http://www.w3.org/1999/xlink" width="272.353" height="85.832" viewBox="0 0 272.353 85.832">
  <defs>
    <clipPath id="clip-path">
      <rect id="長方形_8757" data-name="長方形 8757" width="272.353" height="85.833" fill="none"/>
    </clipPath>
  </defs>
  <g id="グループ_6738" data-name="グループ 6738" transform="translate(5 4.983)">
    <g id="グループ_6690" data-name="グループ 6690" transform="translate(-5 -4.983)" clip-path="url(#clip-path)">
      <path id="パス_71899" data-name="パス 71899" d="M54.121,15.726a6.533,6.533,0,0,0,2.94.52,4.266,4.266,0,0,0,1.945-.611,5.2,5.2,0,0,0,1.559-1.287,7.5,7.5,0,0,0,1.4-2.624,11.837,11.837,0,0,0,.5-3.6,8.557,8.557,0,0,0-1.731-5.676c-.074-.1-.156-.185-.236-.276l-.136.072-.2.1L59.9,2.5l-.036-.938A5.221,5.221,0,0,0,58.554.791a3.33,3.33,0,0,0-.065.891c.016.132-.091.224-.187.29a1.01,1.01,0,0,1-.479.189.259.259,0,0,1-.125-.028c-.272-.142-.729-.432-.752-.773-.022-.314-.029-.63-.034-.945-.1-.007-.2-.019-.3-.02A4.779,4.779,0,0,0,54.7.779a6.344,6.344,0,0,0-1.775,1.2,6.511,6.511,0,0,0-1.2,1.715c-.189.453-.35.916-.5,1.383l.324.251-.469.911-.143-.128c0,.009-.005.016-.007.025A8.664,8.664,0,0,0,50.7,8.332h0a10,10,0,0,0,1.009,4.747,6.255,6.255,0,0,0,2.409,2.646m6.042-9.767.73.348-1.013.588ZM53.989,9.168c.272-.2.491-.37.687-.52-.01-.283-.022-.589-.037-.949h0q.045-2.985.136-3.552A3.689,3.689,0,0,1,55.508,2.2a1.557,1.557,0,0,1,1.12-.475,1.4,1.4,0,0,1,1.22.678,6.758,6.758,0,0,1,.657,3.505V7.54l.045,1.516a23.81,23.81,0,0,1-.227,3.324,3.754,3.754,0,0,1-.735,2.092,1.588,1.588,0,0,1-1.118.486,1.25,1.25,0,0,1-.747-.226L55,13.8a14.505,14.505,0,0,1-.294-3.935V9.832c-.2-.11-.43-.232-.68-.34l-.3-.13Zm-.627-5.68.31.878-.82-.1Zm-.678,7.164.272.766-1.186-.427Z" transform="translate(-0.177 6.958)" fill="#070203"/>
      <path id="パス_71900" data-name="パス 71900" d="M250.457,30.583a1.357,1.357,0,0,1-.42-.537c-.045-.085-.093-.166-.141-.239l-.1-.045.024-.072-.339-.479.237.1-.106-.228L250.45,29l-.139.408.025-.009a2.222,2.222,0,0,1,.761-.193c.591.007,1.187.061,1.763.113q.351.032.7.06l.243.018-.08.232c-.045.127-.088.289-.133.451a10.4,10.4,0,0,0,2.571-1.2,13.114,13.114,0,0,0,2.1-1.6,6.194,6.194,0,0,0,.572-.664.483.483,0,0,1-.025-.125.915.915,0,0,1,.253-.492c.04-.051.082-.1.115-.152l.177-.269.063.12c.08-.155.158-.313.225-.475a11.6,11.6,0,0,0,.792-4.185,8.959,8.959,0,0,0-.071-1.34l-.829-.655-.124-.01v-.039l-1.268-.444,1.331.126v0c.127-.335.257-.669.388-1a8.416,8.416,0,0,0-1.8-2.579,9.775,9.775,0,0,0-2.974-1.968,25.181,25.181,0,0,0-3.336-1.311l-.1-.033-.012.023-.05-.042a26.535,26.535,0,0,1-2.58-.907l-1.353.972.005-.374c.007-.412.015-.822.023-1.233-.072-.039-.133-.081-.2-.12l-2.638.412.155-.322c.072-.15.137-.305.2-.46a4.552,4.552,0,0,1,.539-1.028c.025-.033.047-.059.071-.091a3.986,3.986,0,0,1-.726-2.134,3.713,3.713,0,0,1,1.3-2.883A5.072,5.072,0,0,1,249.9,2.428a5.4,5.4,0,0,1,4.048,1.809,11.665,11.665,0,0,1,1.99,4.047l.271.045,1.63.114.226-.069a4.746,4.746,0,0,0,.09-.882,33.563,33.563,0,0,0-.271-3.618,15.079,15.079,0,0,0-.407-2.329l0,0a24.425,24.425,0,0,0-3.414-.95,19.823,19.823,0,0,0-3.211-.384q-5.02,0-7.6,2.51a8.2,8.2,0,0,0-2.578,6.107,8.594,8.594,0,0,0,.927,3.719,7.949,7.949,0,0,0,2.533,3.088,25.161,25.161,0,0,0,4.125,2.046l.393-1.029.2.134c.069.048.16.1.25.157.355.214.533.322.467.512s-.149.407-.223.611c.186.063.369.135.557.192q4.161,1.47,5.111,2.352a3.948,3.948,0,0,1,.671,5.641,4.958,4.958,0,0,1-1.022,1.005l.014.034-.515.565-.091-.227a5.062,5.062,0,0,1-.748.33,8.141,8.141,0,0,1-2.691.52,7.57,7.57,0,0,1-2.555-.419,6.485,6.485,0,0,1-2.024-1.13,7.46,7.46,0,0,1-1.549-1.865q-.316-.52-1.4-3.03l-1.109.024-.209.123-.064-.117-.7.015v.858q0,.614.044,2.085c0,.107.008.2.012.3l.731-.544.061.286c.021.1.047.193.074.289a2.449,2.449,0,0,1,.123.724,4.964,4.964,0,0,1-.139.913c-.026.123-.052.245-.075.369l-.063.349-.254-.248c-.087-.086-.181-.167-.276-.249-.038-.033-.074-.069-.112-.1.021.58.033.921.033,1.01v.249a.864.864,0,0,0,.2.429,4.464,4.464,0,0,0,1.425.564l.78.228c-.056-.134-.111-.268-.167-.4-.187-.442-.38-.9-.527-1.366-.059-.188.072-.366.2-.539a1.839,1.839,0,0,0,.115-.167l.146-.257.835,1.166-.215,1.676,1.55.453a19.129,19.129,0,0,0,3.774.451c.388.009.775,0,1.162-.021m6.549-25.657.068-.01a.524.524,0,0,1,.285.01.4.4,0,0,1,.2.222c.009.019.017.037.027.053l.1.166-.56.322-.412-.74Zm-4.258,13.525c-.027.079-.057.158-.079.236l-.061.206-.2-.087c-.052-.023-.118-.044-.184-.066-.228-.075-.425-.141-.445-.328a2.761,2.761,0,0,1,.055-.74c.015-.1.033-.2.046-.305l.036-.286.247.148c.093.055.191.1.281.147.243.118.434.212.446.4a1.7,1.7,0,0,1-.145.672m2.805,9.36.145.1.4.364-.152.14a.8.8,0,0,0-.062.067.432.432,0,0,1-.309.193h-.008a.429.429,0,0,1-.305-.213c-.02-.024-.039-.049-.057-.069l-.133-.139Zm-13.083-4.028-.731-.489.817-.322Zm2.987,6.024.366-.818.825.336Z" transform="translate(-27.215 6.984)" fill="#070203"/>
      <path id="パス_71901" data-name="パス 71901" d="M405.628,5.262h-.008l.016.015-.009-.015" transform="translate(-50.689 6.265)" fill="#070203"/>
      <path id="パス_71902" data-name="パス 71902" d="M414.062,30.157l1.176.159.452-.022h.611c.015-.211.022-.384.022-.52a2.086,2.086,0,0,0-.135-.678c-.089-.059-.185-.1-.277-.159-.007.024-.013.05-.019.071l-.066.25-.572-.182.14-.431a7.3,7.3,0,0,0-.766-.322,5.447,5.447,0,0,1-1.247-.576l-.21.061.03-.173c-.1-.063-.2-.114-.294-.184a17.539,17.539,0,0,1-1.775-2.725l-3.618-5.857q-.589-.949-1.538-2.306a13.1,13.1,0,0,1-.724-1.108,9.023,9.023,0,0,0,4.557-2.816,6.514,6.514,0,0,0,1.481-4.149,7.014,7.014,0,0,0-2.736-5.416A10.908,10.908,0,0,0,401.176.711a54.727,54.727,0,0,0-5.586.271l-2.83.136-1.2.068q-.135,0-1.764-.136-1.584.022-2.1.022a13.217,13.217,0,0,0-2.081.181l-.09.249.045,1.357c.4.074,1.19.148,2.366.221l.006-.3.288.2c.051.035.118.074.185.114s.124.073.175.107l.756.154q.113,1.312.113,6.016,0,2.148-.068,4.613l-.045,1.221.045,2.1-.09,2.714.022,5.043q0,1.854-.045,2.171a5.715,5.715,0,0,1-.136.656,9.58,9.58,0,0,1-2.081.486,5.165,5.165,0,0,0-1.741.464,5.047,5.047,0,0,0-.069.7c0,.105.015.347.046.724h.973a23.75,23.75,0,0,0,2.6-.159l3.121-.2c.165-.015.444-.022.837-.022q.9,0,5.767.429l.927-.045q.113,0,.543.022a11.613,11.613,0,0,0,.09-1.673c-.287-.108-.579-.193-.87-.286.045.025.089.056.134.078l.341.171-2.1,1.018-1.477-.983.273-.15c.136-.074.271-.165.407-.256a3.791,3.791,0,0,1,.63-.362c-.124-.027-.244-.063-.366-.087a5.145,5.145,0,0,1-1.651-.588l.113-4.252-.09-5.021c0-.323.024-.645.042-.967-.027-.066-.049-.124-.076-.191l-.483-1.222.5.326c.328.215.561.353.725.45l.031.019c.377-.013.673-.02.871-.02a4.226,4.226,0,0,1,2.329.475,8.729,8.729,0,0,1,1.583,2.51q2.419,4.794,3.414,6.988.383.838,1.332,2.531l.772,1.492c.241-.031.565-.068.973-.113q1.334-.158,1.583-.159l.209,0,.087-.129.041.13,1.925.019a11.741,11.741,0,0,1,1.786.118ZM406.178,5.149a.27.27,0,0,1,.28-.048,3.02,3.02,0,0,1,.554.438c.066.061.135.125.209.19l.166.147-1.111.907-.1-.212c-.037-.072-.078-.145-.119-.217a1.9,1.9,0,0,1-.265-.637c-.04-.265.386-.565.389-.569M391.153,9.5c-.043.027-.088.063-.134.1a.717.717,0,0,1-.4.2.284.284,0,0,1-.08-.011.8.8,0,0,1-.395-.342c-.035-.045-.07-.093-.106-.134l-.15-.165.188-.12a1.483,1.483,0,0,0,.141-.106.682.682,0,0,1,.495-.213c.184.034.3.213.393.37.032.051.064.1.1.147l.128.166Zm2.365-7.458c.045-.069.2-.285.38-.246a2.486,2.486,0,0,1,.43.163l.413.182-.24.2c-.034.028-.068.061-.1.1a.668.668,0,0,1-.395.238h-.02c-.178,0-.3-.171-.412-.323l-.134-.176Zm.634,12.107c-.039.059-.081.118-.108.17l-.1.184-1.148-.8.691-.878.149.133c.062.054.126.106.19.158a2.107,2.107,0,0,1,.483.489c.1.162-.018.339-.157.545M392.953,3.9l0-.1-.016-.04.018-.046,0-.071.2-.116.011-.007.361-.213h0l.154-.09-.237.516-.125.642-.026,1.339-.991-.39Zm2.221,16.942-.355-.135-.028.071c-.059.249-.118.5-.176.745v.042l-.015.02-.065.282-.087-.083h0l-.448.573.132-.877-.021-.021.039-.1.051-.34.062.059.169-.42c.007-.032.015-.063.022-.094l-1.913-.723.047-.148c-.021-.225-.042-.449-.064-.67l-.1-.728-.045-.09.063-.067V18.1l.063-.027.865-1.079.495.895-1.035.452.013.13c.017.173.035.347.051.521l.072.537,1.84.744.109.172,0,.006Zm7.355-7.968q-1.606,1.379-5.45,1.379-.5,0-1.583-.045v-.639q.022-1.652.068-2.691l-.022-2.465.045-1.854-.022-3.053.022-.429a12.2,12.2,0,0,1,1.787-.113c.122-.005.244,0,.365,0l-.009-.078.081.077c.085,0,.17,0,.255,0l.019-.023.13-.246.011.075.055-.067.166.28a10.771,10.771,0,0,1,2.114.328,5.234,5.234,0,0,1,1.974,1.137l.212-.228,0-.005.262-.282.034.211.629-.043.039.374-.6.086.128.781a4.7,4.7,0,0,1,.495,1.169,8.874,8.874,0,0,1,.4,2.68,4.618,4.618,0,0,1-1.606,3.688m1.665.059-.195,0h-.007l-.3,0h-.072l-.23,0,.467-.333.042-.059a3.672,3.672,0,0,1,.258-.339c.083-.1.179-.072.277-.015l.034-.025-.009.039.083.056.32.213Zm2.915,12.775-1.549,1.046,1.22-1.447.264.06h0l.46.1Zm4.007,3.955.3-.931.714.336Z" transform="translate(-289.579 52.565)" fill="#070203"/>
      <path id="パス_71903" data-name="パス 71903" d="M34.381.5a9.323,9.323,0,0,0-4.535,1.154A8.121,8.121,0,0,0,26.522,5.1a10.538,10.538,0,0,0-1.21,4.987,13.535,13.535,0,0,0,.429,3.37A7.081,7.081,0,0,0,26.77,15.71a8.515,8.515,0,0,0,2,1.933A13.305,13.305,0,0,0,31.417,18.8a5.707,5.707,0,0,0,1.335.09,8.887,8.887,0,0,0,3.143-.543,1.05,1.05,0,0,0,.686-1.114,1.123,1.123,0,0,0-.226-.757.652.652,0,0,0-.5-.257l-.343.068a4.137,4.137,0,0,1-1.176.181,4.006,4.006,0,0,1-1.764-.429,2.435,2.435,0,0,1-.772-.882,6.008,6.008,0,0,1-.814-2.284,28.21,28.21,0,0,1-.271-4.025,8.986,8.986,0,0,1,.016-1.29,11.244,11.244,0,0,1-.8-1l-.155-.211c-.148-.2.037-.427.592-1.067.148-.171.3-.34.4-.484l.1-.127.485.264A8.9,8.9,0,0,1,32.1,3.485a2.972,2.972,0,0,1,1.378-1.13L33.243,2l1-.557.07.22c.017.054.039.108.062.163a1.691,1.691,0,0,1,.093.3c.033,0,.063-.013.1-.014a3.092,3.092,0,0,1,2.624,1.606A9.922,9.922,0,0,1,38.4,7.889l.094-.134.3.8-.331-.042c.009.1.021.2.028.305l.144,0-.122.294c.03.442.05.908.063,1.394a.3.3,0,0,1,.284.074c.134.1.19.2.172.306a1.309,1.309,0,0,1-.145.359l-.154.316-.142-.113c0,.062,0,.117,0,.179a24.1,24.1,0,0,1-.136,2.781q-.18,1.561-.2,1.968a18.911,18.911,0,0,1-.532,3.336,12.556,12.556,0,0,1-.806,2.368c.138.086.257.158.348.211.274.164.387.231.44.371.244.656.468,1.329.686,1.98l.29.86-.2.045c-.063.015-.144.036-.224.057a1.8,1.8,0,0,1-.392.081.18.18,0,0,1-.186-.118c-.343-.8-.668-1.618-1.114-2.748-.15.28-.306.557-.477.827a11.617,11.617,0,0,1-1.648,2.04l1.441.583.059.1,0,0,.044.071.251.4-.349-.132-.028.072-.158.666.042.04-.074.1-.068.287-.088-.086-.445.575.134-.876-.023-.023.043-.105.05-.328.059.057.168-.417.022-.1-1.429-.54c-.274.25-.557.49-.855.714a16.585,16.585,0,0,1-4.048,2.182,4.7,4.7,0,0,0-1.311.611.825.825,0,0,0-.226.611,1.32,1.32,0,0,0,.362.837h0q.566.045.859.045a13.189,13.189,0,0,0,4.184-.9,15.746,15.746,0,0,0,4.863-2.837,16.034,16.034,0,0,0,3.663-4.3,23.522,23.522,0,0,0,1.651-3.222A20.273,20.273,0,0,0,44.4,13.255q0-6.2-2.86-9.476A9.1,9.1,0,0,0,34.381.5m5.176,23.741.533-.9.244,1.046ZM41.191,9.264a2.6,2.6,0,0,1,.489-.156c.15-.034.25.114.328.241.021.033.041.066.062.092l.156.206-.4.142a2.148,2.148,0,0,1-.479.143.168.168,0,0,1-.035,0c-.136,0-.221-.12-.3-.226a.894.894,0,0,0-.062-.082l-.184-.207Zm.862,2.244-.051.7-.172,0,0-.189-.039.19h-.046c-.09,0-.2-.015-.23-.144a2.962,2.962,0,0,1-.028-.3l-.015-.25Zm-.1,6.771a.542.542,0,0,1-.282-.087.359.359,0,0,1-.117-.292c0-.021,0-.044-.005-.063l-.028-.166.627-.179.145.848-.266-.051c-.024,0-.049-.006-.074-.009m.315,1.054-.206-.789.957.119Zm-.3-3.069a2.56,2.56,0,0,0-.212.175l-.136.13-.13-.136c-.06-.063-.128-.124-.195-.184a1.49,1.49,0,0,1-.457-.573c-.068-.189.064-.358.282-.636.1-.124.214-.274.336-.455l.16-.236.154.24c.1.153.2.284.284.4a1.281,1.281,0,0,1,.349.705c0,.232-.22.4-.436.569m.267-8.47-.246-.034-.069-.005a.508.508,0,0,1-.28-.075.338.338,0,0,1-.114-.3c0-.021,0-.041,0-.06l-.02-.158.62-.186Z" transform="translate(3.436 6.943)" fill="#070203"/>
      <path id="パス_71904" data-name="パス 71904" d="M64.654,21.669l.155-.323c.072-.149.137-.3.2-.46a4.588,4.588,0,0,1,.539-1.028c.316-.412.54-.721.845-.686.331.025.581.408,1.117,1.372l0-.084.041.054L75.484,8.353l-.079-.1c-.058-.074-.117-.148-.172-.2l-.142-.146.032-.026-.512-.126.75-.182.149-.036c.027-.026.056-.05.083-.075l-.116-1.881-.148.125.082-.5c.009-.054.02-.108.033-.169l-.011-.176.37.022h0l.074,0,.1.006.3.018-.291.245.066,2.026a.41.41,0,0,1,.2,0L80.887.067l-.226.022L78.632,0l.075.127L78.47.191c-.087.024-.172.056-.256.086l-.051.017Q75.5,4.452,73.149,8.1l.089.125-.181.018q-1.8,2.793-3.405,5.277l.375.228-.637.178q-7.453,11.523-10.805,16.45l.776.347-.077.107.864.042a4.655,4.655,0,0,0,.656,0L67.046,21.3ZM74.337,9.156l-.127.83-.734-.538Z" transform="translate(-1.299 7.014)" fill="#070203"/>
      <path id="パス_71905" data-name="パス 71905" d="M337.373,15.092a9.771,9.771,0,0,0-2.974-1.968,25.3,25.3,0,0,0-2.717-1.094l.72.34-1.016.586.285-.93c-.2-.069-.4-.149-.606-.214q-4.116-1.221-5.382-2.555A4,4,0,0,1,324.4,6.476a3.714,3.714,0,0,1,1.3-2.884c.051-.042.111-.071.163-.111l-.594.236.74-.684.061-.057-.009-.041.04-.021.052-.275.311.322,0,0,.069.071a5.071,5.071,0,0,1,2.68-.606,5.4,5.4,0,0,1,4.048,1.809,11.675,11.675,0,0,1,1.99,4.048l.271.045,1.63.113.226-.068a4.756,4.756,0,0,0,.09-.882,33.371,33.371,0,0,0-.271-3.619,15.1,15.1,0,0,0-.407-2.329l0,0a24.221,24.221,0,0,0-3.413-.951,19.812,19.812,0,0,0-3.211-.384,14.424,14.424,0,0,0-4.059.53l.527.678L325.676,2l-.089-.19a1.519,1.519,0,0,0-.081-.15.853.853,0,0,1-.164-.5.312.312,0,0,1,.182-.235,8.075,8.075,0,0,0-2.954,1.792A8.193,8.193,0,0,0,320.492,5.9c.2-.16.4-.327.617-.471a1.759,1.759,0,0,1,1.142-.113c.224.021.477.044.743.044h.493l-.369.328c-.3.27-.588.527-.86.774-.81.731-1.518,1.362-2.251,1.944-.005.141-.018.28-.015.422a8.573,8.573,0,0,0,.224,1.757,3.117,3.117,0,0,1,.208-.352c.042-.062.084-.124.122-.186l.164-.267.16.269a1.689,1.689,0,0,0,.1.149.843.843,0,0,1,.217.485.872.872,0,0,1-.226.485c-.037.05-.075.1-.1.148l-.118.193-.168-.153c-.04-.036-.093-.075-.144-.115l-.033-.027a8.613,8.613,0,0,0,.527,1.332,7.944,7.944,0,0,0,2.533,3.088,25.2,25.2,0,0,0,5.767,2.624q4.162,1.47,5.111,2.352A3.944,3.944,0,0,1,335,26.251a4.953,4.953,0,0,1-2.363,1.708,8.133,8.133,0,0,1-2.691.52,7.553,7.553,0,0,1-1.877-.22l-.106.042-.027-.076c-.184-.049-.365-.1-.546-.164a6.5,6.5,0,0,1-2.024-1.13,7.5,7.5,0,0,1-1.549-1.865q-.315-.52-1.4-3.028l-2.081.045v.858q0,.611.045,2.081.113,2.85.113,3.1v.249a.864.864,0,0,0,.2.429,4.5,4.5,0,0,0,.8.379l-.02-.033.255-.059c.056-.014.112-.033.17-.052a.831.831,0,0,1,.524-.062.685.685,0,0,1,.345.392,1.655,1.655,0,0,0,.081.146l.054.084,1.357.4.006-.036.158.083.406.118a19.137,19.137,0,0,0,3.774.452,15.609,15.609,0,0,0,3.924-.407,10.393,10.393,0,0,0,2.942-1.321,13.075,13.075,0,0,0,2.1-1.594,6.246,6.246,0,0,0,1.379-2.058,11.559,11.559,0,0,0,.792-4.184,8.971,8.971,0,0,0-.509-3.245,8.456,8.456,0,0,0-1.865-2.7M326.6,11.162a.558.558,0,0,0,.069-.029.326.326,0,0,1,.349-.014.5.5,0,0,1,.152.267.619.619,0,0,0,.022.07l.075.187-.193.062c-.021.007-.045.018-.069.028a.543.543,0,0,1-.212.059.224.224,0,0,1-.133-.042.45.45,0,0,1-.156-.274c-.007-.024-.014-.048-.021-.069l-.069-.183Zm-2.244-.829.513-.776.31.876Zm3.982,4.509a2.686,2.686,0,0,1-1.075,1.353.408.408,0,0,1-.194.045,2.09,2.09,0,0,1-.834-.329c-.207-.112-.444-.239-.7-.353l-.3-.13.26-.193c.327-.243.59-.445.81-.614a6.247,6.247,0,0,1,1.155-.78c.135-.064.276.033.454.211.245.244.518.578.424.79m-7.126,11.926a2.192,2.192,0,0,1-.38.044h-.04c-.137,0-.2-.137-.217-.188-.076-.177-.077-.309,0-.392a1.683,1.683,0,0,1,.323-.258q.058-.037.113-.077l.2-.144.357.961Zm15.2-8.96-.1.136c-.005.042-.008.085-.015.127l-.064.458-.207-.193-1.654.136.215.122-.266.027.243.379-.821.55-.089-.43a2.58,2.58,0,0,1-.067-.424l-.42.044.37-.332.033-.121a.168.168,0,0,1,.161-.131v-.009l.078-.007.372-.031,1.68-.227.089-.25,0-.009c.011-.479.02-.958.028-1.437l.015-.811.288.2c.051.035.117.075.184.113.257.152.428.253.375.437-.148.531-.334,1.058-.516,1.57,0,.042,0,.084,0,.127Zm2.981,4.176-.177.11c-.043.027-.088.063-.133.1a.715.715,0,0,1-.4.2.294.294,0,0,1-.081-.011.817.817,0,0,1-.395-.34,1.544,1.544,0,0,0-.106-.135l-.15-.166.19-.119a1.58,1.58,0,0,0,.142-.105.644.644,0,0,1,.492-.213c.185.035.3.213.394.369a1.694,1.694,0,0,0,.1.148Z" transform="translate(-280.292 52.637)" fill="#070203"/>
      <path id="パス_71906" data-name="パス 71906" d="M275.833,29.772a3.069,3.069,0,0,1-.47-.232l-.132-.021-.145-.027-.179.077-.041-.4v-.006l-.05-.491.36.325.03.017.051-.028a1.326,1.326,0,0,1,.725-.237,4.089,4.089,0,0,1,1.036.3c.133.051.267.1.4.149l.214.072-.109.2c-.029.052-.058.119-.088.185-.1.229-.184.395-.335.411.577,0,1.138,0,1.688.005l.247-.69-.636-.536.743.24.029-.082.011.009.134-1.079a2.689,2.689,0,0,1-.7-.208A1.2,1.2,0,0,1,278,26.544l.045-4.889q-.089-1.786-.09-4.478,0-.183.023-.772,1.718-.18,5.132-.181a17.966,17.966,0,0,1,3.346.159,1.644,1.644,0,0,1,.9.611,9.125,9.125,0,0,1,.814,2.624q.253,1.131.344,1.492h1.6v-.5q0-.655-.067-2t-.069-1.956q0-.383.034-1.063t.035-3.053q0-1.04-.09-3.053l-1.312-.022-.294.022c-.075.419-.168.835-.261,1.25l.789-.311-.086.811-.708-.474c-.155.689-.324,1.374-.525,2.05a2.333,2.333,0,0,1-.724.984,5.615,5.615,0,0,1-2.126.441q-1.72.16-5.768.159a8.213,8.213,0,0,1-.973-.068V11.477l-.045-3.8q0-3.889.069-4.455,2.17-.09,4.93-.089,2.419,0,4.522.18,1.153.091,1.378.113a6.135,6.135,0,0,1,1.447.181,10.43,10.43,0,0,1,1.447,2.081l.577,1.024.335-.448.147.222q.045.066.09.126a1.312,1.312,0,0,1,.205.353c.058.172-.108.378-.127.4a.253.253,0,0,1-.192.105l-.032,0c-.011,0-.022-.008-.033-.009.2.5.356.9.478,1.168.395.031.652.045.772.045l.518-.025-.925-.743,1.311-3.44V2.634a1.761,1.761,0,0,0-.408-1.221,35.525,35.525,0,0,0-4.071-.343l-4.093.045q-4.071,0-9.114.2-3.369.135-4.183.135a30.193,30.193,0,0,1-4.138-.249q-.952-.135-2.239-.2l-.041.672.3-.112a2.585,2.585,0,0,1,.487-.155c.154-.034.25.116.33.244.021.033.04.065.059.091l.154.2-.243.085c-.051.018-.1.038-.155.057a2.213,2.213,0,0,1-.477.143l-.034,0c-.136,0-.222-.119-.3-.226-.021-.029-.042-.059-.062-.082l-.075-.085-.059.973q.566.068.994.09a14.9,14.9,0,0,1,2.488.316q.43.09.678.136a1.108,1.108,0,0,1,.678.316,4.021,4.021,0,0,1,.045.452l.185,2.557a.788.788,0,0,1,.379-.041,1.222,1.222,0,0,1,.618.4c.094.089.2.189.318.287l.3.24-.371.088c-.165.039-.311.085-.444.125a2.171,2.171,0,0,1-.617.131.746.746,0,0,1-.163-.017l-.005,0-.014,1.587.04,1.287.312-.136c.056-.024.112-.055.168-.086a1.03,1.03,0,0,1,.514-.166.988.988,0,0,1,.492.23c.052.037.1.075.156.105l.226.133-.2.172c-.041.035-.086.083-.13.13-.133.14-.261.274-.41.274a.263.263,0,0,1-.071-.009,1.925,1.925,0,0,1-.579-.318c-.064-.045-.128-.091-.193-.132l-.286-.182.072,2.317v.069a.193.193,0,0,1,.111.08.416.416,0,0,1,.044.118l.044.054.157.11-.021.021.812.308-.624.552-.458-.56-.01,0-.062.065-.015,1.743.067,8.525-.022.7q.022.928.022,1.311a4.7,4.7,0,0,1-.249,1.652,10.925,10.925,0,0,1-3.258.723,14.244,14.244,0,0,0-1.715.249v1.56l2.735-.09h.954q3.957-.226,6.67-.226h.172a5.339,5.339,0,0,1-1.188-.289M272.96,4.508c-.033.047-.068.106-.1.166-.117.194-.2.341-.341.341a.212.212,0,0,1-.063-.01,2.123,2.123,0,0,1-.533-.26c-.056-.033-.111-.067-.167-.1l-.227-.128.193-.176a1.755,1.755,0,0,0,.122-.128.759.759,0,0,1,.443-.305.743.743,0,0,1,.485.226,1.564,1.564,0,0,0,.141.109l.16.106Zm.482,22.273a.28.28,0,0,1-.19.2,1.479,1.479,0,0,1-.279.023c-.057,0-.113,0-.168,0l-.407,0,.373-1.112.207.148c.04.029.081.056.123.082a1.265,1.265,0,0,1,.326.263.451.451,0,0,1,.015.4" transform="translate(-30.888 6.871)" fill="#070203"/>
      <path id="パス_71907" data-name="パス 71907" d="M188.392,16.459c-.151-.143-.045-.325.212-.762.081-.137.168-.286.243-.431l.116-.221.057.054c0-.014,0-.028,0-.042,0-.327-.02-.653-.044-.978a8.705,8.705,0,0,1-1.777.239q-.107,0-.214-.005a4.514,4.514,0,0,1-1.195-.285c-.164-.055-.328-.111-.493-.156l-.571-.16,2.1-.745.008-.085-.248-1.16.365.038c.163.015.316.029.316.2-.011.289-.028.574-.052.865l.893-.316-.232.179a4.915,4.915,0,0,1,.895-.171,14.686,14.686,0,0,0-2.332-5.669,14.018,14.018,0,0,0-5.45-4.771A17.768,17.768,0,0,0,172.825.316c-.075,0-.149.005-.224.005l.041.118-.937.5.076-.512c0-.028.013-.058.016-.087-.127.005-.255.009-.382.017l.045.264.063.359-.212-.288-.227-.307c-.334.026-.667.056-1,.1l-.278.413-.193-.344c-.6.09-1.2.2-1.787.343a15.944,15.944,0,0,0-4.387,1.9,14.626,14.626,0,0,0-3.574,3.019,13.225,13.225,0,0,0-2.216,3.732,15.6,15.6,0,0,0-1.021,4.378l.916.84-.97.8a15.565,15.565,0,0,0,.473,3.679A19.155,19.155,0,0,0,158.334,23a14.779,14.779,0,0,0,2.533,3.324,19.04,19.04,0,0,0,3.956,2.872q.207.091,1.922.656a12.722,12.722,0,0,0,2.216.5,24.357,24.357,0,0,0,3.6.249q7.756,0,12.11-4.568a15.326,15.326,0,0,0,4.264-9.137,4.626,4.626,0,0,1-.539-.431m-6.247-9.284.292,1.015-.793-.076Zm-2.214-3.8c.03-.034.062-.08.093-.123.108-.153.231-.3.395-.292a.99.99,0,0,1,.456.216c.045.033.09.064.136.092l.313.19-.335.145c-.05.021-.1.045-.148.068a2.067,2.067,0,0,1-.445.169.267.267,0,0,1-.057.006.5.5,0,0,1-.288-.133.847.847,0,0,0-.073-.052l-.195-.116Zm-10.2-2.229h.135a.713.713,0,0,0,.071-.005.394.394,0,0,1,.323.065.542.542,0,0,1,.142.286.678.678,0,0,0,.021.077l.088.252-1.017-.007Zm-5.156,4.306.2.171c.051.043.119.091.186.14.25.18.416.3.353.48-.282.807-.6,1.612-.909,2.391l-.32.814-.808-.564Zm-1.367,14.1.326.837-.8-.07ZM161.152,8.167l.748.527-.891.251ZM159.1,18.4l-.363-.867.758.044Zm2.5,1.958c-.033.02-.065.041-.094.062a.547.547,0,0,1-.307.129h0a.448.448,0,0,1-.3-.151.769.769,0,0,0-.059-.051l-.466-.341h1.83Zm-1.482-2.934,0,0-.052.045h-.014l-.094.069-.186-.227h0l-.22-.269-.107-.13.473.089.16-.019,1.512-1.124,0-.005c.017-.035.032-.071.046-.107l-.055-.266.452.143h0l.393.124-.328.2-.031.023.395,1.891Zm4.032,8.5,0,0-.077.1-.068-.036-.176.075c-.073.065-.148.129-.226.188a.242.242,0,0,1-.15.048.5.5,0,0,1-.122-.018l-.688-.075.592-.292c.13-.057.258-.116.389-.172l.061-.055.1-.088.641-.624.28.251-.545.69Zm12.98,2.746c-.024.047-.046.1-.069.16-.075.188-.154.382-.336.413a.433.433,0,0,1-.08.008,1.023,1.023,0,0,1-.437-.141,1.664,1.664,0,0,0-.16-.074l-.213-.083.123-.194c.03-.047.057-.1.084-.154a.821.821,0,0,1,.339-.412c.166-.079.342.029.512.132.051.032.1.063.151.087l.177.083Zm3.293-5.126a8.065,8.065,0,0,1-3.359,3.878,9.307,9.307,0,0,1-4.532,1.142,7.3,7.3,0,0,1-1.119-.1l-.091.091c-.136.145-.256.273-.4.273a.291.291,0,0,1-.06-.006,2.76,2.76,0,0,1-.664-.276c-.078-.041-.156-.081-.233-.119l-.224-.1.161-.188c.015-.017.031-.042.046-.062A6.544,6.544,0,0,1,167.986,27a9.122,9.122,0,0,1-1.009-.959l-.093.633.044.045-.064.1-.015.1-.288.039h-.007l-.187.026h0l-.2.027.167-.28-.082-.615.3.254.288-.48a9.094,9.094,0,0,1-.865-1.167,24.8,24.8,0,0,1-1.379-3.551,12.576,12.576,0,0,1-.475-2.443q-.09-.656-.136-.927a16.85,16.85,0,0,1-.159-2.781c-.01-.6.011-1.205.047-1.806a.142.142,0,0,1,.007-.1q.05-.774.152-1.545l.005-.26.015-.811.129.088c.058-.33.116-.66.188-.987a12.353,12.353,0,0,1,1.832-4.1,7.339,7.339,0,0,1,2.284-2.024,6.607,6.607,0,0,1,3.483-.916l0,0c.14-.005.278,0,.417,0l.679-2.1,1.676.835,0,0,.2.1.049.025.4-.235.16-.1.5.816-1.319.983A9.028,9.028,0,0,1,177.908,4.5a9.842,9.842,0,0,1,2.269,2.926l.179-.224.257.675-.142.177a9.84,9.84,0,0,1,.636,2.1,9.076,9.076,0,0,0,.224.928l.113.429q.248,3.1.249,4.908a17.069,17.069,0,0,1-1.267,7.124m2.215-5.882-.125.066a.452.452,0,0,0-.055.018.821.821,0,0,1-.118.027l.239.314-.507.413-.118-.155c-.014-.017-.031-.035-.048-.053a.314.314,0,0,1,.065-.562c.021-.014.042-.027.059-.04l.033-.028a.746.746,0,0,1-.083-.153c-.008-.02-.015-.04-.025-.059l-.108-.215.918-.2Zm1.013,2.375-.139-.292a1.765,1.765,0,0,0-.1-.169.962.962,0,0,1-.187-.524.918.918,0,0,1,.253-.491c.041-.051.082-.1.116-.153l.177-.269.51.985Zm.559-9.5-1.072-1.221.929.588-.01-.151.3.3.063-.011.031.106.054.054c.265.267.531.533.784.811.122.139.029.232-.155.421l-.246.253Zm1.8,7.2.1-.812.731.5Zm.969-1.769-.147-.257a.553.553,0,0,0-.039-.06.466.466,0,0,1-.114-.29.439.439,0,0,1,.148-.274.661.661,0,0,0,.046-.053l.167-.222.349.577Z" transform="translate(-15.245 6.97)" fill="#070203"/>
      <path id="パス_71908" data-name="パス 71908" d="M148.153,28.558a17.715,17.715,0,0,0-3.211-.926q-.407-.091-.882-.226.045-1.063.045-1.809l-.045-2.668v-.557a1.2,1.2,0,0,1-.343-.136c-.063-.033-.126-.066-.179-.089l-.184-.079.7-1.386.005,0v-.961q-.09-3.076-.068-4.071l.045-2.872-.022-2.171V7.734q0-.112-.022-1.13V6.04c0-.166.015-.407.045-.724l.022-.294-.022-.588V4.049l.136-.453a7.481,7.481,0,0,1,1.3-.531q.643-.193,2.725-.622.09-.724.113-1.606Q147.385.77,146.729.77a7.622,7.622,0,0,0-1.673.181l-.633.036.006.005a.452.452,0,0,1,.015.407.279.279,0,0,1-.19.2,1.43,1.43,0,0,1-.28.024c-.057,0-.113,0-.167,0l-.406,0,.2-.6-2.276.069q-.295.023-.792.023a33.425,33.425,0,0,1-4.274-.272L134.065.815c-.075,0-.28.007-.611.021a6.4,6.4,0,0,0-.181,1.287,6.505,6.505,0,0,0,.814.227,13.93,13.93,0,0,1,3.166,1.018.671.671,0,0,1,.316.294l.047.475c.006-.007.01-.014.017-.021.206-.24.5-.508.7-.432a2.241,2.241,0,0,1,.766.624c.168.172.377.387.654.653l.241.23-.322.087c-.2.053-.371.117-.522.172a1.8,1.8,0,0,1-.564.148.418.418,0,0,1-.208-.051,2.14,2.14,0,0,1-.689-.66l.036.357.136,3.844-.045,1.018q-.023,3-.068,3.773a8.892,8.892,0,0,1-1.63.159l-3.957.114-2.272-.013-.093.025c-.087.024-.172.056-.255.086a1.519,1.519,0,0,1-.509.124.583.583,0,0,1-.138-.015.545.545,0,0,1-.3-.226h-.07l-1.181.726-.089-.193c-.019-.04-.042-.086-.067-.135a2.963,2.963,0,0,1-.173-.4h-.549l-1.188-.023,1.648,2.437,8.947.1q.971.022,1.809.09a25.916,25.916,0,0,0,.136,2.872l-.022,1.922c.021,1.632-.055,3.263-.184,4.891a.453.453,0,0,1-.018.324l-.006.009c-.025.286-.033.573-.063.859-.282.088-.512.155-.692.2-.075.091-.149.185-.226.274-.138.161-.276.322-.407.487l-.166.208-.141-.228c-.081-.129-.19-.268-.3-.409-.032-.04-.059-.079-.09-.118l-.511.082-1.741.407a9.082,9.082,0,0,0-.113,1.471,2.78,2.78,0,0,0,.772.136q2.94-.295,4.794-.294l.75,0-.148-.195.75-.408-.123-.132.18-.039.015-.3.225.244.485-.6.709.74-.891.192.009.01-.179.1-.016.021-.02.389c1.857.024,3.268.088,4.224.193q1.4.135,2.487.136.157,0,1.063-.023ZM131.489,15.087a.6.6,0,0,1-.192.045.177.177,0,0,1-.16-.091.984.984,0,0,1-.1-.248l-.081-.262.622-.15.148.63Zm7.349,13.773a3.208,3.208,0,0,0-.287.148,1.1,1.1,0,0,1-.474.18.358.358,0,0,1-.132-.026,1.553,1.553,0,0,1-.54-.456c-.057-.067-.116-.133-.177-.193l-.141-.139.913-.84,1.076,1.223Zm-.512-15.644.539-.714.238.864ZM143.16,5.9c.022-.018.045-.035.064-.052l.141-.132.13.143a.651.651,0,0,0,.06.057.409.409,0,0,1,.181.312.412.412,0,0,1-.205.291.741.741,0,0,0-.066.053l-.141.135-.13-.146c-.018-.019-.039-.039-.061-.058a.415.415,0,0,1-.18-.31.41.41,0,0,1,.207-.293m-3.11,3.144c-.043-.04-.1-.086-.152-.13-.188-.153-.35-.285-.294-.462a2.188,2.188,0,0,1,.321-.581c.045-.064.09-.129.131-.194l.171-.269.153.28c.029.052.066.105.1.158a.863.863,0,0,1,.209.508.973.973,0,0,1-.243.5c-.038.051-.076.1-.107.151l-.122.2Zm.368,11.914-.036-.32c-.006-.052-.015-.105-.022-.158a1.8,1.8,0,0,1-.03-.448.478.478,0,0,1,.209-.3.7.7,0,0,0,.07-.061l.16-.164.546.8ZM142.34,8.445a1,1,0,0,1-.394.112.426.426,0,0,1-.112-.015c-.172-.045-.273-.212-.361-.359a1.279,1.279,0,0,0-.089-.138l-.112-.15.149-.113c.044-.033.1-.077.149-.121.232-.192.359-.3.5-.178a2.9,2.9,0,0,1,.4.456l.282.358-.259.084a1.672,1.672,0,0,0-.158.063m.777.979-.558-.835.961-.59.085.2c.023.055.053.111.082.166a.954.954,0,0,1,.156.531c-.021.187-.218.275-.41.359a1.723,1.723,0,0,0-.164.079Zm2.027,19.644.489-.757.324.842Z" transform="translate(-10.791 6.904)" fill="#070203"/>
      <path id="パス_71909" data-name="パス 71909" d="M229.817,1.057a40.156,40.156,0,0,1-4.137.2l-4.319-.181h-1.787l-.046,1.715.294.068,2.126-.045a2.286,2.286,0,0,1,1.63.7,2.894,2.894,0,0,1,.5,1.787l.091,1.2c.015.184.026.357.041.539a.344.344,0,0,1,.114.042l.037-.027-.009.043.09.06.313.21-.493.336c.324,4.081.495,7.8.495,11.122a18.151,18.151,0,0,1-.429,4.636A8.885,8.885,0,0,1,223.2,25.8a5.454,5.454,0,0,1-1.373,1.3,6.667,6.667,0,0,1-2.092,1.029c-.372.109-.75.2-1.129.276l.552.2-.339.454a7.094,7.094,0,0,1-.612.76.205.205,0,0,1-.154.067,1,1,0,0,1-.389-.148c-.063-.033-.127-.067-.18-.09l-.184-.078.518-1.027a13.928,13.928,0,0,1-2.131.149,8.3,8.3,0,0,1-3.735-.949,5.01,5.01,0,0,1-2.036-1.877,8.679,8.679,0,0,1-1.086-4.093l-.293-5.676.09-3.913-.136-1.809.046-2.126-.023-.814q-.022-.452-.022-1.176c0-.409.007-.771.019-1.088l-.123-.158c-.045-.057-.105-.124-.166-.19-.219-.242-.365-.4-.263-.572.269-.449.581-.877.883-1.29l.457-.635.393.786a2.127,2.127,0,0,1,.745-.042,18.529,18.529,0,0,0,2.624-.181V2.707l-.045-1.335.021-.271q-.475.023-1.82.045t-3.076.1q-1.729.078-3.539.079-.52,0-3.5-.159-1.245-.068-2.375-.068-.43,0-.838.022l.069,1.787,0,0a5.6,5.6,0,0,0,.95.068q2.6.091,3.1.792.363.5.363,4.319l0,.712a3.88,3.88,0,0,1,.558-.751c.149-.173.319-.371.5-.609l.19-.244.13.281c.114.246.234.46.335.642.219.391.364.649.257.877a2.718,2.718,0,0,1-.731.841c-.109.1-.219.191-.318.292l-.148.147-.131-.16c-.075-.092-.172-.189-.271-.286a2.777,2.777,0,0,1-.377-.43l-.012,6.048.04.021.056.03.411-.256-.164.39.133.072-.1.061.452.319-.833.015-.006,2.775a25.725,25.725,0,0,0,.344,4.794,8.628,8.628,0,0,0,1.747,3.969,8.863,8.863,0,0,0,3.788,2.465,17.209,17.209,0,0,0,6.017.938,19.445,19.445,0,0,0,5.381-.667,11.965,11.965,0,0,0,3.848-1.8,9.132,9.132,0,0,0,2.376-2.5,7.914,7.914,0,0,0,.858-2.465,38.02,38.02,0,0,0,.316-6.175l-.226-4.591q-.046-1.672-.114-3.3c-.015-.316-.027-.626-.034-.927s-.011-.716-.011-1.244a19.319,19.319,0,0,0-.067-1.968q-.068-.768-.068-1.176a1.041,1.041,0,0,1,.316-.837,6.1,6.1,0,0,1,1.673-.343,7.406,7.406,0,0,0,1.763-.294,2.533,2.533,0,0,0,.09-.611A6.754,6.754,0,0,0,230.2,1.1ZM201.679,3.068l-.065-.185c-.02-.057-.045-.115-.071-.172a.989.989,0,0,1-.124-.544c.03-.187.243-.246.468-.309.066-.019.133-.037.186-.057l.188-.072.3.991Zm4.628.353a1.846,1.846,0,0,1,.18-.341l.279-.47.241.777-.262.592-.193-.173c-.02-.017-.044-.035-.068-.054-.1-.08-.234-.178-.178-.33m-1.083,3.16c.072-.073.142-.149.214-.225a4.923,4.923,0,0,1,.667-.626c.049-.033.178-.129.6.163.088.06.235.16.193.314a7.356,7.356,0,0,1-.349.941l-.255.618-1.215-1.04Zm.864,5.567-.125-.176c-.036-.05-.084-.111-.133-.173-.218-.28-.318-.407-.19-.545.3-.316.617-.609.929-.892l.5-.459.111,1.21Z" transform="translate(-21.123 6.863)" fill="#070203"/>
      <path id="パス_71910" data-name="パス 71910" d="M357.522,18.366a1.99,1.99,0,0,1,.131-.321v0l-.414,0,0,.353.289.008c0-.014-.009-.024,0-.039" transform="translate(-43.803 4.446)" fill="#070203"/>
      <path id="パス_71911" data-name="パス 71911" d="M89.7,26.567l.455.035a11.862,11.862,0,0,0,.1-1.754,8.477,8.477,0,0,0-1.741-5.661A5.256,5.256,0,0,0,84.4,17.141a4.914,4.914,0,0,0-1.911.373A6.155,6.155,0,0,0,80.71,18.7a6.518,6.518,0,0,0-.931,1.257l.137.087-.248.1c-.05.091-.112.175-.158.269a15.539,15.539,0,0,0-.792,2.465,8.371,8.371,0,0,0-.226,2.171h0a10.069,10.069,0,0,0,.995,4.75,6.121,6.121,0,0,0,2.1,2.42l.534.051c.177-.468.353-.937.541-1.4.064-.15.179-.128.343-.071l-.216-.278a13.2,13.2,0,0,1-.294-3.935q0-.587-.069-2.171h0c0-.117,0-.22,0-.332a1.846,1.846,0,0,1-1.016.437.857.857,0,0,1-.1-.006c-.757-.088-1.4-.957-1.965-1.724l-.16-.216c-.147-.2.039-.428.594-1.07.148-.17.294-.34.4-.482l.1-.126,2.187,1.187c.02-.618.045-1.027.075-1.22a3.611,3.611,0,0,1,.746-1.945,1.6,1.6,0,0,1,1.13-.475,1.4,1.4,0,0,1,1.222.678,6.767,6.767,0,0,1,.656,3.505v1.63l.022,1.516a23.881,23.881,0,0,1-.2,3.022l.025.073-.035.027c-.009.068-.012.136-.021.2a3.828,3.828,0,0,1-.723,2.092,1.553,1.553,0,0,1-1.108.486,1.246,1.246,0,0,1-.746-.226l-.231-.3-.753,1.2,1.732.607c.189.006.377.012.567,0a4.261,4.261,0,0,0,.521-.063c-.023-.033-.046-.064-.07-.1a1.318,1.318,0,0,1-.208-.348c-.052-.147.076-.306.158-.389a.254.254,0,0,1,.256-.087,1.636,1.636,0,0,1,.356.189l.283.173-.367.457a4.305,4.305,0,0,0,1.039-.45,4.962,4.962,0,0,0,1.538-1.287,7.318,7.318,0,0,0,1.425-2.624,11.834,11.834,0,0,0,.353-1.587Zm-8.03,0-.468.783-.371-.835ZM87.9,23.989l.3.8-.786-.1Zm.208,6.184a1.7,1.7,0,0,0-.072.159l-.072.195-.188-.091a1.569,1.569,0,0,0-.159-.065.773.773,0,0,1-.438-.29c-.09-.161.006-.344.1-.521a1.581,1.581,0,0,0,.075-.154l.071-.178.177.074a1.59,1.59,0,0,0,.167.056c.192.058.391.118.45.3a.706.706,0,0,1-.111.521m.184-2.7c-.019.036-.038.071-.055.106l-.1.214-.762-.611.274-.221a1.431,1.431,0,0,1,.312-.221.292.292,0,0,1,.3.069c.138.1.195.207.175.31a1.286,1.286,0,0,1-.142.354m.5-3.02c0-.026.005-.053.008-.082a.461.461,0,0,1,.109-.325.44.44,0,0,1,.339-.084c.03,0,.057,0,.082,0l.134-.009.259.624-.973.125Z" transform="translate(-4.132 4.574)" fill="#070203"/>
      <path id="パス_71912" data-name="パス 71912" d="M123.727,28.455a2.391,2.391,0,0,1-.385-.113l-3.324-.52-.226-.136a10.8,10.8,0,0,1-.068-1.2V25.44a3.672,3.672,0,0,1-.6.182l-.057.014.277.462-.517-.207a1.325,1.325,0,0,0-.142-.051.19.19,0,0,1-.124-.223l-.009,0,.017-.057c.007-.029.014-.058.023-.093l.115-.428.007.01a1.714,1.714,0,0,1,.361-.75,1.372,1.372,0,0,1,.651-.341V19.475c0-.121-.015-.384-.045-.792v-.294l.083-1.7a3.49,3.49,0,0,1,.972-.159h.633c.106,0,.23,0,.354,0l-1.178-2.249,1.148-.194-.865-.017a8.983,8.983,0,0,1-1.062-.136q-.069-1.263-.069-1.606c0-.256.009-.505.022-.746q.046-.611.046-.724c0-.136-.009-.34-.023-.611l.023-2.872c0-.12-.009-.263-.023-.429V6.767l.046-.772L119.81,5l-.022-.362-.069-.837a.714.714,0,0,1,.5-.656l3.98-.633a5.251,5.251,0,0,0,.091-.882c0-.136-.009-.362-.022-.678a9.145,9.145,0,0,0-1.4-.09,4.464,4.464,0,0,0-1.039.113q-2.895.226-3.642.226-.475,0-1.1-.034c-.415-.023-.825-.034-1.232-.034q-1.333-.022-4.092-.316c-.212.015-.588.022-1.131.022a6.8,6.8,0,0,0-1.266.09,2.835,2.835,0,0,0-.136.746q0,.181.068.837a4.366,4.366,0,0,0,.928.181l.343.09c.432.028.862.079,1.291.14l1.152-.857,0-.005c.016-.035.032-.071.046-.107L113,1.685l.654.209.2.064-.366.22.395,1.891-.4-.075a27.346,27.346,0,0,1,.177,2.791v.973l.021,1.968-.045,1.9.045.656q0,3.732-.067,4.659l-.023.543q0,1.514.09,4.568l-.293,5.654a11.352,11.352,0,0,1-1.244.362l-2.829.5a11.3,11.3,0,0,0-.136,1.606h.005a38.04,38.04,0,0,0,4.388-.178q.158-.022,1.108-.068l.124-.006.033-.18a.536.536,0,0,0,.01-.075.551.551,0,0,1,.093-.293.362.362,0,0,1,.309-.1h0c.024,0,.045,0,.068,0l.153-.018.2.65-.1.01c1.148.007,2.071.043,2.742.11l3.189.136a3,3,0,0,0,.384.022q.43.022.927.022c.376,0,.836-.008,1.378-.022a5.092,5.092,0,0,0,.09-.814,6.844,6.844,0,0,0-.068-.7,1.5,1.5,0,0,0-.5-.2m-8.47-20.826h-.019a.725.725,0,0,1-.266-.063l-.278-.089.088-.193c.007-.02.015-.044.025-.068.038-.1.087-.249.24-.256a.831.831,0,0,1,.285.062c.025.009.05.019.075.027l.207.063-.09.2a.388.388,0,0,0-.024.068c-.038.1-.09.248-.243.253m.254,20.093.533-.777.325.883Zm2.785-6.337.495-.768.343.847Z" transform="translate(-8.5 6.898)" fill="#070203"/>
      <path id="パス_71913" data-name="パス 71913" d="M375.815,23.525l.135-.678q.046-.385.114-.949-.5-.022-.747-.022-.452,0-1.154.068a11.493,11.493,0,0,1-2.555,4.252,5.309,5.309,0,0,1-2.667,1.516,25.71,25.71,0,0,1-5.34.482q-4.75,0-5.677-.475a1.2,1.2,0,0,1-.611-1.176l.045-4.889q-.09-1.787-.09-4.478,0-.184.023-.772c.374-.039.814-.072,1.308-.1l.039-.044.015.041c1.012-.053,2.265-.08,3.771-.08a17.818,17.818,0,0,1,3.346.159,1.642,1.642,0,0,1,.9.611,9.167,9.167,0,0,1,.814,2.624c.087.389.159.708.217.96.062.037.124.078.187.109l.34.172-.414.2c0,.015.009.038.013.051h1.6v-.5q0-.655-.068-2t-.068-1.956q0-.385.034-1.063t.034-3.053q0-1.041-.09-3.053l-1.311-.022-.294.022a31.117,31.117,0,0,1-.793,3.324,2.33,2.33,0,0,1-.729.988,5.631,5.631,0,0,1-2.126.441q-1.72.158-5.767.159a8.4,8.4,0,0,1-.973-.068V11.477l-.045-3.8q0-3.889.068-4.455,2.17-.09,4.93-.09,2.419,0,4.523.181c.768.06,1.228.1,1.379.113a6.058,6.058,0,0,1,1.447.181,10.5,10.5,0,0,1,.841,1.084l.135-.279.328.941-.063-.005c.066.115.144.222.207.34l.9,1.606q.34.883.544,1.335.59.045.771.045l.927-.045c.015-.182.023-.317.023-.407l-.045-.927V2.742l-.128.048c-.225.083-.425.162-.607.234a6.548,6.548,0,0,1-1.188.388.272.272,0,0,1-.046,0c-.183,0-.3-.214-.466-.528-.053-.1-.105-.195-.154-.27l-.115-.178.192-.093c.124-.06.247-.124.371-.188a5.115,5.115,0,0,1,1.021-.44c.193-.056.355.1.618.356.118.113.259.251.43.395l.067.057a1.748,1.748,0,0,0-.4-1.112,35.349,35.349,0,0,0-4.071-.343l-4.093.045c-.777,0-1.588.007-2.419.018a1.637,1.637,0,0,0-.1.136l-.123.2-.169-.163c-.042-.041-.1-.085-.151-.129l-.04-.034c-1.908.031-3.936.087-6.116.175-.724.029-1.35.053-1.9.073.271.194.541.388.805.59.142.106.064.246-.033.423l-.055.105-.129.259-.858-1.034-.07.08,0,.025-.009-.012-.563.634-.124-.248c-.026-.051-.062-.1-.1-.159-.111-.17-.226-.346-.164-.525a.893.893,0,0,1,.051-.1c-.476.015-.826.021-1.039.021a30.476,30.476,0,0,1-4.138-.249q-.952-.136-2.238-.2l-.108,1.81c.376.045.708.075.994.09.073,0,.145.014.217.018a.269.269,0,0,1-.063-.075.372.372,0,0,1,.035-.31c.009-.02.017-.04.023-.059l.069-.225.2.117a.388.388,0,0,0,.06.028.4.4,0,0,1,.242.2.408.408,0,0,1-.041.315c-.007.017-.014.033-.019.048a14.672,14.672,0,0,1,1.76.256c.286.06.512.105.678.136a1.1,1.1,0,0,1,.678.316c.022.149.038.3.045.452l.2,2.8-.022,2.555.113,3.619-.006.61c.048.021.092.04.145.062l.312.124-.268.2c-.07.053-.132.1-.193.151l-.013,1.407.049,6.112.367-.057-.269.723-.093-.077.015,1.824-.023.7q.023.928.023,1.311a4.732,4.732,0,0,1-.249,1.651,10.943,10.943,0,0,1-3.259.724,13.942,13.942,0,0,0-1.715.249v1.56l2.735-.09h.949q3.959-.226,6.671-.226,5.452,0,9.318.157c1.151.047,2.146.087,3.018.119-.172-.208-.333-.407-.48-.593-.129-.163,0-.311.349-.707.083-.094.166-.19.229-.268l.139-.173.655.73q.48.533.949,1.074c.564.018,1.027.031,1.381.037l.009-.019v0l.114-.457.227.429c.01.018.02.037.029.055l.144,0q.858,0,2.329-.068l.407-2.578ZM372.594,7.038l.094-1.307.306.632a.527.527,0,0,0,.033.053.379.379,0,0,1,.081.3c-.009.035-.026.069-.037.1l1.042-.609-1.075,1.058-.09.088-.015.207-.456-.224-.16-.08.247-.143Zm-20.449-4.95a.762.762,0,0,0,.009-.077.647.647,0,0,1,.075-.274A.346.346,0,0,1,352.5,1.6a.479.479,0,0,0,.057-.01l.174-.048.211.638-.847.191Zm.127,4.426a1.538,1.538,0,0,1-.509.124.679.679,0,0,1-.137-.015c-.2-.048-.325-.242-.442-.431a1.986,1.986,0,0,0-.121-.181l-.17-.218.265-.078c.081-.024.162-.051.243-.079a2.867,2.867,0,0,1,.7-.172c.164-.031.262.15.386.4.046.09.1.19.153.287l.124.213-.238.064c-.087.024-.173.056-.256.087m.468,17.044.235-.635.137.007a.443.443,0,0,0,.058,0,.341.341,0,0,1,.3.081.565.565,0,0,1,.12.262c.006.023.012.047.019.069l.087.26Zm1.005-5.891-.127-.111.124-.142-.152.118-.38-.335.155-.141c.02-.019.04-.042.061-.065a.432.432,0,0,1,.306-.19h.01a.426.426,0,0,1,.3.212.675.675,0,0,0,.056.069l.133.14Zm.748-.292c-.029-.054-.057-.109-.091-.161-.079-.123.01-.219.081-.3l.261-.282.274,1.74Zm2.078-1.112-.264.138-.009-.017-.083.041h-.607v.145l-.239-.145h0l-.789-.479.521.014.006-.131-.183.1.843-2.016.687,1.418.111.053-.043.087.2.407-.314-.152v.267l.654.017-.49.241Z" transform="translate(-283.966 52.524)" fill="#070203"/>
      <path id="パス_71914" data-name="パス 71914" d="M447.958,1.068q-1.832,0-3.754-.181T441.874.706a10.056,10.056,0,0,0-.09,1.04,2.658,2.658,0,0,0,.135.678,8.477,8.477,0,0,0,.927.147,5.232,5.232,0,0,1,.837.147,4.271,4.271,0,0,1,2.144.633.915.915,0,0,1,.429.746,5.052,5.052,0,0,1-.4,1.7q-.395,1.041-.984,3.053-.181.606-.294.949l-.633,1.583-.352.973a4.844,4.844,0,0,1,.955-.407c.2-.053.354.1.616.353.118.115.26.253.432.4l.184.155.579-1.5a.172.172,0,0,1-.1-.076,1.024,1.024,0,0,1-.1-.253l-.077-.256.551-.134.026-.066a54.124,54.124,0,0,1,2.624-6.132,2.286,2.286,0,0,1,.611-.746,19.167,19.167,0,0,1,3.414-1.448q.022-.543.022-.814V.7Q452.5.725,451.169.9a25.919,25.919,0,0,1-3.211.172" transform="translate(-297.625 52.566)" fill="#070203"/>
      <path id="パス_71915" data-name="パス 71915" d="M490.646,4.4c-.154.354-.315.7-.478,1.041l-.233.675.082.013c.063-.085.118-.178.183-.262a6.844,6.844,0,0,1,1.545-1.483Z" transform="translate(-304.478 52.042)" fill="#070203"/>
      <path id="パス_71916" data-name="パス 71916" d="M263.414,21.9c-.035-.16-.072-.321-.116-.479l-.225.359Z" transform="translate(-30.402 3.965)" fill="#070203"/>
      <path id="パス_71917" data-name="パス 71917" d="M505.026,28.511a1.98,1.98,0,0,1,.148-.363l.219-.732.2-.678c.176-.977.306-1.7.4-2.191a1.546,1.546,0,0,1-.4-.612c-.064-.2.123-.375.34-.576.067-.062.134-.124.185-.181l.135-.154.019.02c.053-.321.1-.642.133-.965a13.52,13.52,0,0,0-2.193.181,17.235,17.235,0,0,1-4.444,4.625,8.528,8.528,0,0,1-4.8,1.549,9.2,9.2,0,0,1-4.25-1.018,6.7,6.7,0,0,1-2.487-2.013,14.193,14.193,0,0,1-2.058-4.318,20.931,20.931,0,0,1-.5-5.474,17.306,17.306,0,0,1,2.3-9.455l-.072-.314-.076-.011.327-1.419.058.038.255-.476.217-.407-.047-.167h.137l.165-.31.088.31c.491,0,.981,0,1.473,0l.042-.084.128.084h.09a6.827,6.827,0,0,1,3.487-.864A10.061,10.061,0,0,1,499.4,3.886a15,15,0,0,1,4.478,4.422h2.058a11.953,11.953,0,0,0-.429-3.077q-.907-3.188-1.2-3.867a32.809,32.809,0,0,0-4.624-.847A46.623,46.623,0,0,0,494.4.234,15.471,15.471,0,0,0,483.06,4.621a14.976,14.976,0,0,0-4.443,11.127,16.51,16.51,0,0,0,.713,5.021,13.314,13.314,0,0,0,2.182,4.139,15.511,15.511,0,0,0,4.048,3.527,12.575,12.575,0,0,0,4.24,1.651,25.463,25.463,0,0,0,5.258.52,30.1,30.1,0,0,0,6.14-.531,9.621,9.621,0,0,0,3.828-1.564m.032-4.279.346.847L504.564,25Zm-26.4-7.681.469-.77.326.841Zm7.685,9.065a2.214,2.214,0,0,1-.382.045h-.035c-.144-.006-.2-.149-.225-.2-.105-.259-.021-.349.007-.378a1.66,1.66,0,0,1,.322-.257l.311-.22.358.961Z" transform="translate(-302.866 52.634)" fill="#070203"/>
      <path id="パス_71918" data-name="パス 71918" d="M547.255,25.666l-.13-.312c-.116,0-.215-.006-.294-.006q-.453,0-1.154.068a11.509,11.509,0,0,1-2.555,4.252,5.309,5.309,0,0,1-2.668,1.516c-.4.078-.8.144-1.208.2l.232.258c.413.457.824.915,1.221,1.383.212.251.4.521.581.783.01.016.022.031.033.047,1.187.04,2.006.061,2.442.061q.859,0,2.33-.069l.407-2.577L547.328,27l.136-.678q.046-.383.113-.949l-.178-.008Z" transform="translate(-311.496 49.059)" fill="#070203"/>
      <path id="パス_71919" data-name="パス 71919" d="M298.749,26.31c.03-.256.068-.572.113-.949-.332-.015-.58-.022-.746-.022q-.453,0-1.154.068a11.43,11.43,0,0,1-.643,1.5l.948-.642.088.214c.1.248.214.478.318.694a3.9,3.9,0,0,1,.482,1.412c.019.332-.3.629-.6.915a4.392,4.392,0,0,0-.334.337l-.123.145-1.732-1.5a11.541,11.541,0,0,1-.956,1.17,5.311,5.311,0,0,1-2.672,1.527,25.68,25.68,0,0,1-5.337.475,41.383,41.383,0,0,1-4.221-.163c.087.234.172.47.27.7s.208.431.329.652c.008.013.015.027.022.04l.707.186-.41.207-.035.075a.16.16,0,0,1-.154.1.34.34,0,0,1-.062-.015l0,.013-1.244-.4-.019.154-.076-.065-.18.392q3.952.027,6.954.149,5.5.226,6.762.226.859,0,2.329-.068l.408-2.579.837-4.274Z" transform="translate(-32.999 3.408)" fill="#070203"/>
      <path id="パス_71920" data-name="パス 71920" d="M531.6,30.02l.067.148c.585.017,1.152.036,1.691.058.961.039,1.818.074,2.586.1-.568-.614-1.075-1.23-1.479-1.738-.11-.139-.021-.276.22-.557a25.606,25.606,0,0,1-3.2.158q-4.75,0-5.676-.475a1.2,1.2,0,0,1-.611-1.176l.046-4.889q-.09-1.786-.09-4.478c0-.123.007-.38.022-.772q1.719-.181,5.133-.181a17.878,17.878,0,0,1,3.345.159,1.642,1.642,0,0,1,.9.611,9.171,9.171,0,0,1,.814,2.624q.252,1.131.343,1.492h1.606v-.5q0-.655-.068-2t-.068-1.956c0-.256.011-.611.034-1.063s.034-1.47.034-3.053q0-1.041-.09-3.053l-1.311-.022-.294.022a31.336,31.336,0,0,1-.792,3.324,2.339,2.339,0,0,1-.724.984,5.608,5.608,0,0,1-2.126.441q-1.719.158-5.767.159a8.2,8.2,0,0,1-.972-.068V11.474l-.033-2.7a.493.493,0,0,1-.084.015.344.344,0,0,1-.161-.037.858.858,0,0,1-.334-.431c-.027-.056-.054-.112-.084-.162l-.13-.214.241-.065a1.721,1.721,0,0,0,.172-.061,1.16,1.16,0,0,1,.368-.1V7.674c0-.866,0-1.6.008-2.216a2.763,2.763,0,0,1-.218.447l-.212.389-.178-.213c-.02-.023-.046-.048-.072-.073-.1-.1-.215-.208-.171-.359a2.082,2.082,0,0,1,.2-.433c.024-.044.049-.086.07-.127l.111-.214.18.16c.022.019.051.04.081.063a.545.545,0,0,1,.208.228c.01-1.158.03-1.865.059-2.106q2.171-.09,4.93-.09,2.42,0,4.523.181,1.153.091,1.379.113a6.051,6.051,0,0,1,1.447.181,10.443,10.443,0,0,1,1.447,2.081l.9,1.606q.34.883.543,1.335.591.045.772.045l.927-.045c.015-.181.022-.317.022-.407l-.045-.927V2.632a1.76,1.76,0,0,0-.407-1.221,35.544,35.544,0,0,0-4.07-.343l-4.093.045q-4.071,0-9.114.2-3.371.135-4.184.136a30.2,30.2,0,0,1-4.138-.249q-.952-.135-2.239-.2l-.021.356.3.16-.318.135-.07,1.16q.566.068.995.09a14.817,14.817,0,0,1,2.487.316q.43.09.678.136a1.1,1.1,0,0,1,.63.283l.161-.208.129.281c.114.246.233.459.335.641.219.392.364.649.258.877A2.49,2.49,0,0,1,518.71,6l.067.925-.022,2.555.113,3.619-.022,2.555.068,8.525-.022.7q.022.928.022,1.311a4.7,4.7,0,0,1-.249,1.651,10.937,10.937,0,0,1-3.259.724,14.272,14.272,0,0,0-1.715.249v1.568l2.736-.09h.942l.66-.034-.048-.051,2.156-.41-.879.4q2.742-.127,4.781-.128,4.065,0,7.249.088Zm7.219-26.339a3.683,3.683,0,0,1,.262-.344c.083-.1.179-.073.277-.015l.044-.031-.013.051c.025.016.051.033.076.051l.323.214-.672.454-.2,0h-.006l-.323,0h-.046l-.225,0,.456-.328Zm-17.7,4.7-.126-.178c-.036-.051-.088-.116-.136-.18-.214-.275-.312-.4-.185-.538.291-.31.609-.6.916-.88l.516-.474.11,1.213Z" transform="translate(-307.859 52.524)" fill="#070203"/>
      <path id="パス_71921" data-name="パス 71921" d="M299.12,9.752l.392-.019c.015-.182.022-.317.022-.407l-.027-.563c-.018.045-.035.091-.053.136Z" transform="translate(-35.532 5.767)" fill="#070203"/>
      <path id="パス_71922" data-name="パス 71922" d="M437.43,25.726c.244-.61.446-1.116.606-1.525l-1.187-.416,1.3.124c.187-.478.3-.779.34-.9.009-.023.016-.044.026-.067a5.039,5.039,0,0,1,.088-1.755c.052-.231.374-.407.634-.512.032-.013.1-.038.179-.065.033-.084.069-.178.1-.26.112-.277.215-.543.321-.81a2.119,2.119,0,0,1-.288-.59.779.779,0,0,1,.106-.511,1.585,1.585,0,0,0,.068-.163l.121-.359.4.581c.056-.148.116-.3.17-.443l1.977-5.114-.2.076c-.224.083-.422.161-.6.233a6.509,6.509,0,0,1-1.192.389.217.217,0,0,1-.046,0c-.163,0-.274-.175-.414-.433L437.9,18.846l-1.311,3.211q-.611-1.514-1.357-3.211l-2.578-5.832c-.243-.522-.467-1.017-.682-1.5l-.022.217-.689-.28c-.011.016-.024.033-.033.048l-.023.038,0,.2-.376.011-.017-.32-.028-.024-.081-.068-.868,0,.672-.224a.229.229,0,0,1-.018-.169,2.168,2.168,0,0,1,.323-.582c.044-.063.088-.128.13-.191l.171-.269.153.28c.029.052.065.1.1.158a.863.863,0,0,1,.208.508.539.539,0,0,1-.037.118h.188q-.791-1.79-1.309-3.149c-.134.042-.268.085-.378.124a1.823,1.823,0,0,1-.566.149.417.417,0,0,1-.208-.051,2.515,2.515,0,0,1-.9-1c-.077-.141.033-.288.153-.428.207-.241.5-.518.706-.437a2.249,2.249,0,0,1,.767.624l.094.1c-.016-.048-.036-.1-.051-.147l-.746-1.968a2.765,2.765,0,0,1-.046-.5.8.8,0,0,1,.249-.588,3.426,3.426,0,0,1,1.47-.724q.383-.09,2.646-.384,0-.2-.045-1.854h-1.651q-.746.113-2.239.226-2.082.135-2.759.136a67.438,67.438,0,0,1-7.3-.316q-.25-.023-1.425-.045V2.682l.981.111a6.205,6.205,0,0,1,1.968.384,2.431,2.431,0,0,1,.858.814q.176.3,2.144,4.5l2.555,6.175.086.194.392-.062-.3.276.111.251.836.687-.4.288,2.945,6.608.088-.085.087.141c0-.02,0-.039.008-.058.015-.1.033-.2.046-.305l.036-.286.247.148c.093.055.191.1.281.147.242.118.434.211.445.4a1.707,1.707,0,0,1-.145.675c-.028.079-.057.156-.079.234l-.061.206-.2-.087c-.053-.023-.118-.044-.184-.066l-.115-.039.143.32q1.674,4.208,1.923,4.909t.5,1.379q.772.045,1.2.045.225,0,1.13-.045.5-1.221,1.492-4.41Zm-10-11.07-.142-.132a.526.526,0,0,0-.05-.048.382.382,0,0,1-.159-.289.375.375,0,0,1,.191-.268c.02-.015.039-.029.054-.043l.144-.133.421.491Zm1.5.792-.4-.4-.11-.11.18-.079.018-.047.116-1.177.274.236c.015.013.035.027.055.041.09.066.214.155.169.3-.07.221-.152.436-.232.651l-.012.031,0,.028.077.138s-.013.008-.03.021l.289.483.43-.57.238.864-.555-.108.3.494Zm1.4,1.593-.173-.149c-.024-.02-.055-.043-.086-.065-.128-.093-.259-.189-.2-.347a2.242,2.242,0,0,1,.2-.4l.172-.305.588.4Z" transform="translate(-294.266 52.561)" fill="#070203"/>
      <path id="パス_71923" data-name="パス 71923" d="M466.372,29.916q2.691.271,3.008.316a4.526,4.526,0,0,0,.588.068c.076,0,.354-.015.837-.045a3.462,3.462,0,0,1,.452-.022q.022-.522.022-.772a8.9,8.9,0,0,0-.09-1.13q-1.176-.158-1.379-.181a23.187,23.187,0,0,1-2.51-.407,2.176,2.176,0,0,1-.09-.52l.022-.858-.021-2.017a1.512,1.512,0,0,1-.666-.752c-.073-.253.169-.508.425-.779.081-.085.157-.168.222-.249l-.007-.726.007-.31-.593.245.075-.86.524.332.055-2.437-.022-5.97q0-2.057.068-5.879a14.766,14.766,0,0,1-.068-1.583c0-.115.007-.229.009-.344l-2.071,1.544-.049-.308c-.015-.1-.044-.21-.073-.324-.09-.359-.161-.643.021-.779A19.389,19.389,0,0,1,466.754,4.1c.194-.114.388-.229.579-.345l.028-.017c0-.017,0-.034.007-.051a14.982,14.982,0,0,1,1.911-.576q1.164-.284,2.07-.6.045-.61.046-.995,0-.295-.022-.724-.43.023-2.081.136-2.94.181-4.274.181-.292,0-1.492-.045L457.057.787l.068,1.99a7.637,7.637,0,0,0,.792.068,8.844,8.844,0,0,1,3.008.543,5.119,5.119,0,0,1,.159.724l.022.973.113,2.578-.068,1.221.046,3.008q0,.136-.159,4.613l.022,1.221-.042,4.715.27-.057-.1.307c-.019.062-.04.142-.061.221a2.05,2.05,0,0,1-.114.359l.02,2.281a3.9,3.9,0,0,1-.407,1.945,10.032,10.032,0,0,1-2.194.746q-1.041.25-1.492.384v1.63q.453-.023,1.943-.159,2.282-.226,3.483-.226Zm-1.258-3.842c-.051.063-.1.127-.149.192a2.394,2.394,0,0,1-.481.519.2.2,0,0,1-.123.041.781.781,0,0,1-.4-.176c-.189-.13-.308-.246-.269-.391a1.983,1.983,0,0,1,.3-.574c.04-.058.078-.115.112-.173l.09-.147,1.073.525Zm.188-11-.177.328-.5-.617-.009-.568,0-.155.312.353.078.05a2.841,2.841,0,0,1,.329.228.186.186,0,0,1,.045.233l.051.059-.071-.009c-.016.033-.035.064-.054.1m-1.82-5.135a1.8,1.8,0,0,0,.181-.092.68.68,0,0,1,.566-.134,2.2,2.2,0,0,1,.623.449c.106.1.227.2.372.323l.307.253-.389.077c-.184.036-.342.081-.481.119a2.1,2.1,0,0,1-.522.1.584.584,0,0,1-.22-.04.947.947,0,0,1-.417-.556c-.036-.081-.071-.163-.111-.233l-.106-.187Z" transform="translate(-299.783 52.554)" fill="#070203"/>
      <path id="パス_71924" data-name="パス 71924" d="M18.983,13.276a.246.246,0,0,1,.1-.155q-.032-6.1-2.857-9.342A9.1,9.1,0,0,0,9.069.5,9.333,9.333,0,0,0,4.535,1.653,8.112,8.112,0,0,0,1.7,4.286a1.77,1.77,0,0,1,.271.162c.051.037.1.075.154.1l.226.134-.2.171a1.6,1.6,0,0,0-.132.132c-.133.14-.26.272-.409.272a.294.294,0,0,1-.07-.009A1.351,1.351,0,0,1,1.213,5.1l0,0A10.527,10.527,0,0,0,0,10.089a13.451,13.451,0,0,0,.429,3.37,7.052,7.052,0,0,0,1.028,2.251,8.5,8.5,0,0,0,2,1.933,13.315,13.315,0,0,0,2.036.926l.1-.178.068.239c.15.053.294.119.446.166a5.714,5.714,0,0,0,1.335.09,8.866,8.866,0,0,0,3.143-.543,1.049,1.049,0,0,0,.685-1.114,1.12,1.12,0,0,0-.226-.757.652.652,0,0,0-.5-.257l-.343.068a4.137,4.137,0,0,1-1.176.181,4,4,0,0,1-1.763-.429,2.429,2.429,0,0,1-.773-.882,6.036,6.036,0,0,1-.814-2.284,28.085,28.085,0,0,1-.27-4.025,8.938,8.938,0,0,1,1.378-5.36A2.994,2.994,0,0,1,9.248,2.1,3.1,3.1,0,0,1,11.873,3.71q1.4,2.148,1.4,7.916a24.1,24.1,0,0,1-.136,2.781c-.022.2-.041.365-.06.533l.111-.033a.831.831,0,0,1,.524-.062.686.686,0,0,1,.344.39c.027.051.052.1.081.147l.14.214-.244.069a1.719,1.719,0,0,0-.17.063,1.112,1.112,0,0,1-.393.1.421.421,0,0,1-.141-.023.619.619,0,0,1-.309-.347c-.046.436-.076.75-.086.913A18.911,18.911,0,0,1,12.4,19.71a12.555,12.555,0,0,1-1.639,3.935c-.028.045-.062.085-.09.129-.006.091-.009.177-.016.27l.892-.317-.231.179a4.382,4.382,0,0,1,1.094-.192h.009c.3,0,.557.257.807.507a3.7,3.7,0,0,0,.293.273l.237.189-.273.13c-.1.048-.2.1-.3.159a2.849,2.849,0,0,1-.763.323,8.705,8.705,0,0,1-1.777.239c-.071,0-.143,0-.214-.005a3.705,3.705,0,0,1-.945-.207,11.69,11.69,0,0,1-1.568,1.422,16.616,16.616,0,0,1-4.048,2.182,4.678,4.678,0,0,0-1.311.611.823.823,0,0,0-.226.611,1.313,1.313,0,0,0,.361.837c.377.031.663.045.859.045a13.184,13.184,0,0,0,4.182-.9,15.716,15.716,0,0,0,4.234-2.347c-.042-.037-.089-.065-.13-.1-.151-.143-.045-.323.209-.758.081-.138.169-.289.245-.434l.115-.222.646.616a16.007,16.007,0,0,0,3.206-3.886,23.523,23.523,0,0,0,1.651-3.222A20.264,20.264,0,0,0,19.062,13.7a.79.79,0,0,1-.079-.424M4.432,14.823c-.049.021-.1.044-.145.067a2.066,2.066,0,0,1-.449.171.254.254,0,0,1-.057.006.488.488,0,0,1-.287-.133c-.026-.019-.051-.038-.074-.052l-.2-.116.15-.171c.03-.034.062-.079.093-.123.108-.152.232-.3.4-.291a.985.985,0,0,1,.456.216c.045.032.089.063.136.092l.311.188ZM5.522,29.71,5.4,29.555a.652.652,0,0,0-.048-.052.315.315,0,0,1,.066-.564.425.425,0,0,0,.057-.04l.15-.122.4.52Zm3.93-.762.1-.811.731.5Zm.971-1.769-.147-.256c-.012-.02-.026-.039-.039-.059a.472.472,0,0,1-.115-.289.445.445,0,0,1,.147-.276c.016-.017.033-.035.047-.052l.167-.223.349.578ZM14.717,5.56a.447.447,0,0,0-.039.043l-.385.508.127-1.705.305.582a.418.418,0,0,0,.032.051.452.452,0,0,1,.1.27.413.413,0,0,1-.136.25m1.142,11.148a.753.753,0,0,1-.184.078l-.294.1-.254.082.271-.376-.478-.2.558-.1.077-.463,1.058.56ZM18.6,11.252c-.048.027-.1.059-.142.09a.911.911,0,0,1-.46.2h-.023A1.176,1.176,0,0,1,17.5,11.4c-.056-.027-.111-.052-.167-.073l-.358-.131.321-.2c.057-.037.114-.079.171-.121a1.225,1.225,0,0,1,.524-.274c.183-.036.345.1.486.221a1.5,1.5,0,0,0,.138.109l.257.171Z" transform="translate(7.038 6.943)" fill="#070203"/>
    </g>
  </g>
</svg>
