<svg xmlns="http://www.w3.org/2000/svg" xmlns:xlink="http://www.w3.org/1999/xlink" width="525.032" height="212.094" viewBox="0 0 525.032 212.094">
  <defs>
    <clipPath id="clip-path">
      <rect id="長方形_8761" data-name="長方形 8761" width="525.032" height="212.094" fill="none"/>
    </clipPath>
  </defs>
  <g id="グループ_6697" data-name="グループ 6697" clip-path="url(#clip-path)">
    <path id="パス_71991" data-name="パス 71991" d="M256.2,61.023l-.064-.053Z" transform="translate(-75.205 -17.902)" fill="#1a1311"/>
    <path id="パス_71992" data-name="パス 71992" d="M226.946,15.208A32.584,32.584,0,0,0,214.273,4.1,41.262,41.262,0,0,0,195.289,0a46.6,46.6,0,0,0-11.622,1.341,37.057,37.057,0,0,0-10.2,4.421,34.027,34.027,0,0,0-8.309,7.025,31.369,31.369,0,0,0-2.516,3.456c.079.064.157.149.237.21a9.946,9.946,0,0,1-.769.663,30.712,30.712,0,0,0-2.1,4.354,36.357,36.357,0,0,0-2.525,13.1,36.228,36.228,0,0,0,1.1,9.472,44.724,44.724,0,0,0,3,8.735c.332.593.687,1.167,1.05,1.732.357-.208.717-.413,1.075-.621.048.191.177.523.13.55-.3.176-.606.348-.916.51A35.982,35.982,0,0,0,165.185,58h0c.516-.269,1.212-.8,1.572-.637a4.056,4.056,0,0,1,.576.323l.148-.071.065-.068c-.018.021-.036.042-.049.06l0,0-.078.069-.062.028c.578.386,1.1.9,1.658,1.334-.627.368-1.23.817-1.869,1.144.109.111.21.23.321.339a44.3,44.3,0,0,0,9.2,6.683c.3.134,1.7.612,4.163,1.425l.03-.1.109.034,3.308-2.253h0l.034-.02-.031.021,1.347.675-1.843,1.733.093-.035-.009.771c.765.162,1.567.309,2.426.432a57.008,57.008,0,0,0,8.36.579q18.037,0,28.159-10.63A35.691,35.691,0,0,0,232.941,34.31a34.209,34.209,0,0,0-6-19.1m-4.312,8.842c.057,0,.107.109.161.17-.075.041-.156.122-.223.111s-.122-.112-.181-.174c.081-.039.164-.112.242-.107m-1.314-10.267.034-.113,0,0,.045-.011.853-.506c.028.1.057.194.085.292-.312.073-.623.145-.938.215l-.03.018-.054.1-.48,1.594-.285-.149Zm-2.551-2.763c.031.079.063.158.095.237-.049-.045-.1-.09-.153-.131,0,0,.059-.106.059-.106M213.928,8.1l.9.112c-.175.249-.349.5-.523.747l-.374-.86-.1-.012-.392-.273.456.21.032.076m.191,5.889-.67.388c-.014-.185-.1-.405-.023-.545s.3-.2.461-.3l.233.453m-.457-8.012c-.012.085-.024.172-.035.257-.065.017-.17.064-.186.044a.874.874,0,0,1-.093-.237l.314-.064m-2.577,3.67c.009.134.018.271.025.407l.092.071.055.066.448-.063q-.064.223-.128.445l-.32-.382-.141.02.085-.085s-.085.085-.082.081c0-.051-.006-.1-.01-.151l-.36-.278.335-.129m-13.7-8.036a3.647,3.647,0,0,1,.523.2,3.61,3.61,0,0,1-.546.12c-.057,0-.124-.111-.186-.172.07-.052.153-.157.209-.144M182.441,2.784c.052-.121.1-.246.146-.369s.064-.273.1-.409l.1-.086.059.178c-.036-.018-.071-.038-.107-.058-.049.126-.1.25-.15.375a3.511,3.511,0,0,1-.15.5,7.8,7.8,0,0,1-.443.829c.149-.319.306-.636.446-.959M182.1,6.268a2.11,2.11,0,0,1,.466.325h.025l.73-.42c.039.134.078.268.117.4l-.847.018-.016.009-.01-.008c-.413-.016-.959-.2-1.2,0a5.269,5.269,0,0,0-.911,1.377l-.194-2.312c.614.2,1.233.391,1.839.612m-6.138,1.32.193.128-.221.071Zm-1.2,3.6c.044.09.124.182.119.268s-.1.157-.157.235c-.044-.085-.128-.174-.12-.256s.1-.165.158-.247m.073,6.17a4.66,4.66,0,0,1,.911.229l-1.193.311-.626-.408a4.32,4.32,0,0,1,.908-.132m-.668,3.314a2.581,2.581,0,0,1,.117.267,3.127,3.127,0,0,1-.484.185c-.03.007-.1-.16-.15-.247.171-.072.341-.15.518-.2m-.75,6.533c.1-.244.384-.413.59-.615.118.208.367.451.324.618-.063.246-.334.439-.658.82-.133-.392-.324-.662-.256-.824m-4.125.977c-.15.034-.424-.48-.64-.742a19.868,19.868,0,0,1,2.073-.923c.225-.073.567.215,1.583.648a31.312,31.312,0,0,1-3.016,1.016m.426,3.311-.269.141a2.632,2.632,0,0,1-.155-.49c-.006-.043.155-.109.239-.165q.093.257.186.515m2.555-13.463.181,0-.092.23Zm-.312-5.105c.114-.009.244.2.374.324l-.415.447-.494-.5a1.574,1.574,0,0,1,.535-.273m-.7,7.423h0l0-.006.143,0q-.191.412-.383.824.1-.331.191-.662l-.006.006c.015-.053.03-.106.049-.165m-1.334-9.523a2.545,2.545,0,0,1,.455.23,2.589,2.589,0,0,1-.474.186c-.044.008-.17-.143-.167-.216s.143-.213.186-.2m-1.3,2.05h0l.008,0c.011-.009.085-.1.085-.1l.011.047c0,.02-.006.04-.01.06l2.1.118.139-.083-.057-.073c.033.007.065.015.11.028l0,.01.009,0,.006.134h0l-.212-.011a9.444,9.444,0,0,0-1.019.651c-.5.389-.947.834-1.418,1.255q.167-1.012.336-2.024l-.091,0h0m-.27,6.181.022-.018c-.04-.2-.15-.451-.069-.568.228-.331.487-.64.747-.948l0,0-.514-.636a6.756,6.756,0,0,1,1.11-.433c.132-.029.326.227.492.353l-.547.36a1.628,1.628,0,0,1,.22.208c-.349.459-.715.906-1.093,1.342a3.071,3.071,0,0,1-.343.319c0,.01,0,.021.007.03h0l0,0v0l-.119.055c.011-.033.02-.066.03-.1-.04-.017-.081-.035-.121-.051l.153-.052c-.011.035-.021.069-.032.1.019.008.039.016.058.025m-.353,3.66c.1,0,.2.2.31.325a1.436,1.436,0,0,1-.506.208c-.1,0-.2-.206-.3-.319a1.368,1.368,0,0,1,.5-.215m-1.839,7.3c.02-.154.046-.3.071-.453l.019.535-.276.068.191-.146.085.078-.09-.082m.353,1.245.28.432c-.131.16-.266.317-.4.475a2.117,2.117,0,0,1-.35-.587c-.016-.065.3-.211.468-.319m-.007-4.406-.011-.212.064-.05.208-.025-.215.059c-.016.076-.031.152-.046.227m-1.462-4.887c.411.123.725.566,1.626,1.339-1,0-1.363.105-1.6-.023a7.183,7.183,0,0,1-1.1-.9c.362-.153.781-.5,1.071-.413m.288,12.3c.016.018-.121.237-.162.229a3.163,3.163,0,0,1-.526-.183c.1-.124.208-.343.314-.344.127,0,.265.176.374.3m-1.945-13.573c.023.017.044.037.066.057l.046-.089a12.722,12.722,0,0,1,.1-1.283c.008-.049.386-.041.591-.059l-.692,1.342c0,.041,0,.082-.007.122h0v.008l-.1.083Zm.139,6.379c.138-.056.456.328.836.62-.687.244-1.221.468-1.776.6-.129.032-.33-.235-.5-.364a9.682,9.682,0,0,1,1.438-.86m.036,4.179.075.19,0-.006c-.05,0-.1,0-.148,0a.5.5,0,0,1-.152.1c-.039.015-.117-.074-.177-.115.108,0,.218.006.328.011.028-.026.057-.053.085-.076Zm-2.653-10.3.3.4a1.722,1.722,0,0,1-.372-.187c-.022-.02.048-.141.076-.215m-.568,7.034.174.4.11.018-.025.024.025-.024.211.16-.283-.09.018-.017-.018.017c-.013-.029-.026-.058-.039-.088l-.434-.071.259-.328m.006,3.868s-.032.131-.032.131l-.131-.206c.053.026.106.052.163.075m-.678,15.581a.5.5,0,0,1,.006-.072l1.172.12c-.392-.013-.783-.028-1.178-.048m.772-13.724a4.28,4.28,0,0,1-.636-.54l.561-.5.518.684c-.186.153-.393.385-.443.355m.592,1.2c.078-.015.157-.029.236-.047a.325.325,0,0,1,.017.032l-.253.015m.253-.015-.017-.035,1.886-1.005c.087.278.336.68.233.815-.478.631-1.052,1.187-1.592,1.771q-.254-.773-.51-1.546m.942,6.128.015-.395q.369.039.747.088l.084-.034.057.05-.141-.016-.762.307m1.514,1.92-.55.052c-.006-.093-.014-.184-.021-.276l.573-.035c0,.086,0,.172,0,.259M163.7,38.5l-1.222-.47,1.406-.785c.008-.048.014-.1.022-.145l.1.078s-.1-.078-.093-.077c.06-.053.119-.107.179-.16l.326-.9.329.315c-.218.2-.437.39-.656.585-.029.078-.057.158-.086.237l-.119.066q-.092.627-.184,1.255m1.167,12.126c-.1.059-.336-.108-.511-.173.087-.182.131-.448.274-.52.119-.061.353.105.536.172-.095.182-.149.432-.3.521m.249-13.345-.013-.144c.029.018.057.04.085.059l.21-.247-.138.31Zm.242,12.7c-.046-.072-.144-.165-.126-.213.028-.074.136-.119.21-.175l.239.09-.324.3m.428,6.212.028-.138.233.361-.261-.223m.834-15.858-.795-.607c.381-.479.754-.964,1.164-1.416a2.047,2.047,0,0,1,.528.388c-.244.523-.545,1.018-.9,1.635m1.567-10.517a1.583,1.583,0,0,1-.489.28c-.067-.184-.131-.36-.194-.535a1.641,1.641,0,0,1,.533-.143c.064,0,.2.341.15.4m.131-6.1c-.03.028-.062.057-.092.086l-.017.292c-.028-.058-.093-.132-.076-.17a.414.414,0,0,1,.093-.123l.008-.155.083.069-.077-.064h.128c.148-.186.3-.369.454-.552l0,0-.2-.081c.049.009.1.018.153.023,0,0,.014.013.025.027l-.021-.031.047.064v0c.13.188.261.376.394.561h.165q.074.3.15.607l-.245-.524-.006.006c-.022-.03-.042-.06-.064-.09-.281,0-.563,0-.848-.009-.016.022-.035.042-.051.064m.271,20.97a1.673,1.673,0,0,1-.2-.3.67.67,0,0,1,.28-.032c.064.021.1.131.144.2-.078.047-.212.146-.226.131m.351-3.177a3.707,3.707,0,0,1,.587-1.021l.7.817-.754.864c-.191-.223-.571-.487-.533-.659m.2,2.183c.425-.566.913-1.083,1.382-1.616l.708.953-1.815,1.267c-.1-.207-.338-.519-.274-.6m1.023,13.048c-.089-2.48-.087-2.539,1.435-1.979l0-.007-.118-.054c.054-.011.108-.023.17-.03l0,.008,0,0,.049.129-.113-.041-1.435,1.979m1.443-12.709c.088-.047.18-.134.264-.128s.173.1.259.161c-.094.046-.189.13-.28.126s-.162-.1-.242-.16m.221,15.748.283.049.024,0v0h.006l.018.142-.331-.2m.215-14.467.11-.142.04.175Zm.49,16.593-.285-.111c.07-.057.17-.177.2-.16a2.633,2.633,0,0,1,.388.27h-.308m.412-3.312-.045-.18.157.032Zm.526-4.045-.295-.3.236-.2.179.246-.121.259m1.1,9.7c-.135.05-.339-.086-.513-.14a1.867,1.867,0,0,1,.419-.538c.085-.052.322.148.5.239-.139.16-.244.379-.408.439m-.882-13.318a6.5,6.5,0,0,1,1.357-.649c.208-.049.51.3.77.467l-1.154.976-.973-.794m1.6,3.389a5.106,5.106,0,0,1,.749-.6c.114.238.315.547.271.588a4.865,4.865,0,0,1-.786.509c-.085-.172-.282-.444-.235-.5m.874,4.765a1.484,1.484,0,0,1-.194-.083c.044-.159.1-.314.161-.47a2.078,2.078,0,0,1,.213.093c-.049.157-.116.309-.179.461m5.465,4.068-.069-.1-1.089-.177.525-.657.564.834.118.019-.049.083s.049-.083.046-.076c.065.155.132.3.2.453l-.245-.377m12.648,6.354a3.606,3.606,0,0,1-.05-.895c.024-.13.281-.217.432-.323a3.067,3.067,0,0,1,.157.827c-.008.119-.289.218-.539.391m4.174.177c-.011.049-.023.1-.036.147-.017-.04-.035-.079-.052-.119l-.081.027.042-.113.1,0,.05-.041c0,.013-.006.026-.009.039l.219-.011-.235.076m3.882-.364-.2-.588L202,68.627l.068-.068-.068.068-.383-.258.451.19.064.184.433.381-.229.207m2.728-1.115a2.361,2.361,0,0,1-.376-.651c-.03-.138.161-.326.254-.491l.8.543-.682.6m3.381-3.615c-.169-.007-.331-.189-.5-.295.185-.085.372-.237.555-.233.164,0,.324.179.5.285-.191.09-.376.249-.557.242m7.748-4.233a6.238,6.238,0,0,1-.612-1.62c-.016-.23.492-.5.761-.745a10.118,10.118,0,0,1,.263,1.484c.009.242-.221.494-.413.881m-2.607-4.213c-.214.056-.567-.422-.857-.654a4.154,4.154,0,0,1,.548-.632c.377-.292.792-.535,1.192-.8-.427-.2-.846-.422-1.284-.592-.081.186-.152.383-.236.564q-2.942,6.367-7.8,9.024a21.609,21.609,0,0,1-10.536,2.658,16.843,16.843,0,0,1-5.992-1.132,15.2,15.2,0,0,1-4.572-2.5,21.325,21.325,0,0,1-4.678-5.315,13.309,13.309,0,0,1-.687-1.418l-.186-.029,0,.008c-.259.168-.52.329-.781.492l-.261.2,0-.038,0,.037c.016.408.031.816.048,1.226l0,.009-.044.035c-.081.019-.163.036-.246.053l.232-.36c0,.019.008.038.011.057q0-.529-.007-1.057l.265-.167.756-.593.168.028c-.622-1.454-1.444-3.691-2.478-6.75-.119-.335-.232-.731-.342-1.177-.08.174-.158.35-.238.523l.106.243s-.114-.174-.121-.186a.108.108,0,0,1,0-.025.116.116,0,0,0-.006.013l.011-.067q.114-.286.23-.572a39.856,39.856,0,0,1-.745-4.435c-.141-1.016-.246-1.737-.316-2.157-.052-.28-.1-.609-.14-.97a6.089,6.089,0,0,1-1.2-.309c-.552-.193-1.452.892-2.258,1.057a7.587,7.587,0,0,1-2.317-.161c-.035.011-.063.028-.1.038l-.067-.061c.055.006.111.016.166.023,3.064-1.022,1.737-4.628,3.634-6.348.081-.073-.045-.417-.126-.616-.191-.47-.4-.934-.605-1.4l-.22.192q-.163-.4-.328-.793c.523-.093,1.045-.187,1.565-.292l.117-.1c0-.008,0-.018,0-.023.1-.468.215-.918.326-1.368l0,0h0v-.006l.124-.019c-.011.037-.022.072-.033.109.025.02.049.043.074.064l-.131.131c-.117.4-.233.805-.353,1.2l-.124.023-.927.813a13.611,13.611,0,0,1,1.314,1.287c0-.015-.008-.029,0-.035.413-.627.848-1.243,1.305-1.884a48.866,48.866,0,0,1,1.2-9.618,28.762,28.762,0,0,1,4.257-9.552A17.063,17.063,0,0,1,185.2,7.34a15.327,15.327,0,0,1,8.094-2.13q8.3,0,13.795,4.526a21.377,21.377,0,0,1,6.531,9.966c.123.049.3.121.415.168l-.264.285c.28.879.54,1.782.756,2.737a20.783,20.783,0,0,0,.525,2.158l.263,1q.577,7.209.578,11.419A43,43,0,0,1,213.7,52.214a2.94,2.94,0,0,1,1.205.311c.83.462,1.241,1.678,1.837,2.561-1.048.37-2.082.79-3.154,1.069m3.849-40-.064.04-.66,1.465-.754-.583,1.415-.882.041-.093.023.052s-.023-.052-.013-.035l.061.033.863-.029q-.06.219-.119.439c-.244-.131-.49-.265-.743-.41l-.048,0m1.179,7.365a3.225,3.225,0,0,1-.8-.235c.1-.247.2-.5.366-.9a3.546,3.546,0,0,1,.687.663c.05.09-.171.475-.256.471m.505,35.627.023-.177.2.11Zm.533-19.931c-.124-.191-.386-.421-.346-.567a12.443,12.443,0,0,1,.668-1.555c.353.5.719.854.659.955a8.384,8.384,0,0,1-.98,1.167m1.184-21.982-.232-.065c.025-.088.025-.21.083-.251s.165.026.251.044l-.1.273m.6,28.667-.136-.2.3-.156c.021.086.078.184.054.255-.018.052-.141.069-.217.1m1.3-14.378-.057-.191.17.028Zm.006-3.633c-.232-.456-.5-.76-.428-.882a3.843,3.843,0,0,1,.742-.773c.178.213.546.5.5.627a4.623,4.623,0,0,1-.812,1.028m1.291-11.621a1.964,1.964,0,0,1,.257.409.383.383,0,0,1-.1.261,3.1,3.1,0,0,1-.463-.148l.31-.522m.41,12.737-.313.1.073.064c-.062-.011-.124-.02-.189-.027l-.011,0,.008-.146.432,0,.874-.28.089.291-.963-.011m1.589,9.821c-.168-.086-.414-.135-.478-.271-.054-.114.1-.329.164-.5.155.084.391.137.441.263s-.076.335-.126.507m1.2,4.29-.167.23-.339,1.194-.39-.2.729-.995.085-.3-.006,0c.023-.1.049-.206.073-.309q-.021-.512-.043-1.024l.272.057c-.078.321-.154.644-.229.966,0,.128.011.256.016.383m.747-10.926.072-.2.172.148Zm2.74,2.5,1.056-1.491-.013-.007a1.356,1.356,0,0,1-.095-.156l.191.208-1.1,1.418Z" transform="translate(-46.239 0)" fill="#1a1311"/>
    <path id="パス_71993" data-name="パス 71993" d="M190.865,97.222a25.228,25.228,0,0,0,2.66.713l-.018-.006-2.811-.872-.109.074.277.091" transform="translate(-55.96 -28.498)" fill="#1a1311"/>
    <path id="パス_71994" data-name="パス 71994" d="M180.844,46.957c-.284.158-.567.318-.853.471-.016.008-.113-.092-.208-.208a1.551,1.551,0,0,1,.147.35c.235.888-.264,1.969-.444,2.966a8.051,8.051,0,0,1,1.367-.635c-.012-.594-.02-1.226-.02-1.908,0-.352.007-.692.011-1.036" transform="translate(-52.7 -13.787)" fill="#1a1311"/>
    <path id="パス_71995" data-name="パス 71995" d="M133.015,2.441q-2.683.158-4.368.421l-.894.052h-2.526q-.842-.157-1.315-.211l-10.788-.579q.21,3.209.316,3.894.631.158,1.631.316t2.105.368a12.341,12.341,0,0,1,2.21.211,3.984,3.984,0,0,1,1.316.632,4.309,4.309,0,0,1,.158.894,4.828,4.828,0,0,1-1.051,2.263l-.715,1.271a1.761,1.761,0,0,0,.177.057c-.093.17-.154.437-.289.481a.357.357,0,0,1-.188-.006l-1.324,2.352.846,1.065-1.226,1.442c-.149-.316-.344-.627-.5-.942l-1.253,2.226-.211.263c-.2.311-.4.605-.593.906l.035-.011c.058-.019.212.254.321.391l-.812.316q-3.221,4.885-5.436,7.822a.355.355,0,0,1,.266-.018c.137.086.176.328.257.5-.187.037-.415.155-.55.088-.086-.044-.125-.183-.164-.322-.107.142-.22.292-.324.427l-5.472,7.682a25.052,25.052,0,0,1-1.789-2.578c-.043-.069-.1-.158-.17-.263l-.446.562c-.209-.2-.55-.373-.588-.6-.035-.2.268-.458.479-.775l.028.02c-.138-.2-.287-.426-.461-.68q-.474-.683-.947-1.421-.316-.474-.579-.948-2.579-4.314-3-4.892-1.473-2.21-2.946-4.736A85.512,85.512,0,0,1,84.866,8.756l.105-.684.316-.211q2.21-.315,3.526-.578l2.368-.422q.828-.128,1.54-.309a1,1,0,0,1,.458-.254.777.777,0,0,1,.318.03c.2-.065.395-.132.579-.2l.053-2.737a3.231,3.231,0,0,0-.263-1.052l-.421-.053a5.34,5.34,0,0,0-.842.105,57.4,57.4,0,0,1-5.826.525c-.157.328-.357.677-.573,1.071.019.069.028.186,0,.216a2.433,2.433,0,0,1-.422.277c-.012-.2-.024-.389-.035-.579h.048a9.058,9.058,0,0,1-.709-.946c-.248,0-.494.013-.742.013-.189,0-.394,0-.593,0L83.7,3.1c-.1-.049-.226-.089-.328-.137-1.222-.017-2.627-.066-4.2-.143l-.13.243c-.07-.072-.211-.167-.2-.211.006-.016.015-.031.021-.047q-1.755-.091-3.786-.23l.057.624-.817-.211.191-.453-.538-.038q-3.526-.263-4.315-.368l-.526.052a13.657,13.657,0,0,1-1.842-.211l-.526-.105a30.482,30.482,0,0,0-6.578.421q-.052,1-.105,1.5c-.035.333-.053.605-.053.816a1.781,1.781,0,0,0,.263.842q4.263.9,4.789,1.105A5.7,5.7,0,0,1,66.922,7.7q3,3.895,3.263,4.315l1.351,2.173c.355.172.725.405,1.072.546-.136.175-.268.354-.4.532l2.65,4.263a1.161,1.161,0,0,1,.547.558.516.516,0,0,1-.009.275L83.31,32.4c.026-.011.047-.024.075-.035.866-.357,1.764-.64,2.647-.956a8.077,8.077,0,0,1,.78,2.69,17.341,17.341,0,0,1-.486,2.723c.248.319.523.668.855,1.084.393.489.741.964,1.067,1.434a.275.275,0,0,1,.1-.04c.518-.039,1.081.5,1.624.8l-.658.947a11.706,11.706,0,0,1,1.062,2.585,4.01,4.01,0,0,1,.784.465l.017-.018c-.013-.016.018.049.007.035l-.024-.016c-.186.2-.377.4-.565.6a6.75,6.75,0,0,1,.054.843v1.21q0,.474.1,3.394t.105,10.972q0,.581-.052,3a7.423,7.423,0,0,1-1.21.526l-9.682,2q-.054,1.158-.053,1.736t.053,1.685l.649.009-.671-.538a9.952,9.952,0,0,1,2.023-.812c.343-.061.778.387,1.17.6l-.957.768,1.416.02a23.327,23.327,0,0,0,3.119-.295c.083-.256.17-.514.234-.768l1.825.478c.143-.015.274-.025.4-.034-.01-.03-.02-.061-.031-.092.028.03.059.059.089.088a5.668,5.668,0,0,1,.681-.01h4.149l.042-.01.2-.146L94.2,69.24a.953.953,0,0,0,.127.03l.006,0-.03.143-.249.061-.015.01h.191l1.628-.058-.42-.291a2.445,2.445,0,0,1,.34-.339c.029-.021.227.1.228.155a2.21,2.21,0,0,1-.081.472l4.147-.149,3.894.263,4.3.362q.154-.286.306-.573l-.086.025q.006-.7.011-1.409l.067,0q.028-1.006.056-2.01l-.073.081,0-.006-.006.007-.211-.093.282.01c.164-.193.33-.387.5-.582a23.071,23.071,0,0,1-2.73-.447,1.159,1.159,0,0,1-.579-.579l-.006-.414c-.071.044-.141.085-.215.136-.466.32-1.413-.013-2.12-.148-.1-.018-.088-.617-.127-.947,2,.384,1.568-1.666,2.409-2.443l-.135-8.639c-.153-.071-.273-.266-.41-.4.131-.044.269-.119.4-.162l-.008-.453a24.82,24.82,0,0,1,.158-2.842V46.749l.052-4.579V40.539a6.952,6.952,0,0,1,.79-1.842q1.442-2.46,5.73-8.384a15.569,15.569,0,0,1-1.72,1.081c-.114.058-.588-.59-.9-.911a12.063,12.063,0,0,1,1.887-1.539c.214-.117.663.194,1.343.523q.761-1.046,1.6-2.188l.928-1.392c-.1.1-.2.195-.3.295v0h0a16.15,16.15,0,0,1-2.263,1.421c-.208.09-.534-.092-.857-.265-.008.035-.014.072-.021.107l-.613-.333-.485-.222-.114.04a.452.452,0,0,1-.13.131c-.062.035-.16,0-.242,0l.372-.134c.024-.032.047-.064.072-.1,0-.008.042.056.042.056l-.041-.064.526.285.534.244-.007-.008c0-.02.008-.04.013-.061a3.137,3.137,0,0,0-.29-.138l.395-.361c.044-.211.083-.426.132-.631l.018.022-.018-.022c.05,0,.1,0,.153,0a5.059,5.059,0,0,1,.632-.507,4.791,4.791,0,0,1,.763-.31c-.075.186-.124.452-.206.618l1.635.221,0,0c-.713-1.945.684-2.193,1.851-2.626l2.488-3.733-.155-.287c.088-.036.184-.115.261-.1a.662.662,0,0,1,.121.045l1.644-2.465c.237-.406.466-.783.694-1.163-.48.085-1.021.079-1.48.181-.134.03-.377-.432-.569-.666.829-.492,1.642-1.019,2.5-1.456a1.43,1.43,0,0,1,.76-.01,22.756,22.756,0,0,1,4.458-5.511c-.153-.042-.313-.1-.461-.134.2-.361.395-.723,1.107-2.022a5.552,5.552,0,0,1,.268,1.438,1.138,1.138,0,0,1-.066.214A19.457,19.457,0,0,1,133.8,6.44l.684-.21.053-3.947q-.737.106-1.526.158m-19.35.408-.041-.062c-.13.008-.26.017-.391.027l.133-.422.258.4c.043,0,.087-.007.129-.008,0,0-.088.071-.088.071l.088-.066a5.543,5.543,0,0,1,.372-.456c.02-.021.145.061.222.095l-.682.427M87.622,6.323l-.045.191-.2-.13Zm-21.064-3.2c-.133-.141-.4-.317-.372-.416a2.087,2.087,0,0,1,.407-.6c.092.191.184.381.274.574l-.309.442m.7,1.568c.073.025.119.132.177.2-.031.077-.061.154-.092.231l-.3-.312c.072-.045.162-.14.212-.123m.1,1.976-.141-.425.282-.018c.028.088.1.191.075.261s-.14.122-.215.182m2.5-3.511-.217-.131.237-.089Zm7.661,14.373h-.141l-.719.26.081-.757.586.372.208-.022-.1.092ZM76.377,3.618c.1-.074.584.384,1.125.761-.492.432-.766.863-1.064.88-.327.019-.676-.343-1.016-.54a5.414,5.414,0,0,1,.954-1.1m.416,8.638c-.054.124-.316.158-.487.231-.043-.151-.166-.354-.109-.441.1-.146.3-.218.464-.321.053.18.191.4.133.531m-.636-3.265c-.073-.027-.146-.054-.223-.074,0,.007.011-.12.011-.12l.212.194m-1.3,4.5c.12-.473.655-.841,1.012-1.253l1.413,1.546a8.885,8.885,0,0,1-1.832.875,1.676,1.676,0,0,1-.594-1.167m1.728,4.325.49.325c-.114.1-.225.285-.34.287a1.55,1.55,0,0,1-.529-.184l.38-.428m.522,2.731c-.112.055-.425-.3-.646-.461a9.33,9.33,0,0,1,1.226-.872c.163-.083.472.119.969.268a12.9,12.9,0,0,1-1.549,1.066m5.471,45.97c-.018.007-.1-.146-.147-.224a2.86,2.86,0,0,1,.444-.211c.034-.01.114.133.173.2a4.19,4.19,0,0,1-.47.23M88,66.286l-.209-.13.251-.074ZM89.98,28.681a3.434,3.434,0,0,1-.778.522c-.144.047-.366-.146-.552-.232a3.376,3.376,0,0,1,.68-.553c.116-.054.344.131.651.263M89.423,22.3c-.073.184-.148.367-.221.55-.161-.076-.437-.129-.457-.231-.033-.171.1-.374.159-.564l.519.245m-4.8-9.552a2.844,2.844,0,0,1,.453.251c-.083.1-.193.256-.209.247a4.668,4.668,0,0,1-.454-.321c.071-.064.167-.194.21-.178m-3.95,7.527.2-.091.009.162Zm.995-15.129.84,1.158q0,.748,0,1.5l-.019.023q0-.766-.006-1.533l.02.011-.02-.011-1.407-.527Zm.417,21.841-.215-.121.231-.087Zm.723-15.568,1.149.909-.487.8A8.705,8.705,0,0,1,82.4,12.117c-.061-.078.262-.457.408-.7m3.627,16.995c-.078-.186-.224-.377-.211-.556.011-.153.2-.294.318-.439.142.134.424.349.4.389a3.833,3.833,0,0,1-.508.606M85.6,21.966l0,0,.191-.1s-.127.157-.127.163l-.013-.008.013.015-.081-.063.012-.012L83.372,19.54l-.017-.008h0l0-.016-.86-1.966,1.47-.227q-.3,1.1-.61,2.193l.008.016,4,.232a1.69,1.69,0,0,1,1.41-.053h0l.009,0,.04.135-1.462-.085c-.79.449-1.059,1.633-1.764,2.2m2.9,12.179c-.116-.208-.381-.53-.324-.606a5.87,5.87,0,0,1,1.084-1.086c.07-.054.411.247.858.532L88.5,34.145m1.881-1.3-.04-.045-.194-.175c.061.053.126.11.194.175l.062-.093Zm.453,1.813-.05-.165.155.028Zm.259,7.231.02-.225.244.131Zm.146,9.225c-.162-.244-.416-.475-.457-.738-.035-.218.182-.476.415-1.007.212.541.392.789.379,1.026a2.154,2.154,0,0,1-.336.72m13.245,13.959.406.7.13.038-.072.062-.058-.1-.7-.206.294-.5m.267-30.521.327.951-.75.565a2.8,2.8,0,0,1-.219-1.009c.031-.2.416-.339.642-.506m-5.4-2.131a.7.7,0,0,1,.482.334c.047.11-.149.322-.236.489l-.754-.516c.221-.142.381-.327.509-.307m-1.5,3.219c.736.417,1.462.853,2.189,1.285l-.08.107a.306.306,0,0,1,.189-.008,17.115,17.115,0,0,1,2.429,1.327c0-.008.007-.012.01-.02h0l.138-.083-.066.154-.083-.05c-.793,1.848-2.1-1.037-2.946.3l-.675-.985c.17-.1.357-.243.539-.374-.689-.44-1.368-.9-2.11-1.407.285-.155.416-.273.465-.246m4.486,17.248c-1.413.663-2.222,1.089-3.073,1.394-.139.049-.709-.579-.672-.64a5.07,5.07,0,0,1,1.45-1.858c.326-.181,1.137.516,2.3,1.1m-1.995-11.133.078-.174s.02.04.035.073l.108-.1-.1.15Zm1.863-1.893-.174.071.017-.174Zm-6.793-1.637a.822.822,0,0,1,.561-.107c.076.016.1.3.164.531h-.856c.04-.147.037-.364.131-.425m.227,4.017c-.033.016-.176-.2-.268-.309a1.585,1.585,0,0,1,.429-.326c.069-.022.209.177.321.279a2.778,2.778,0,0,1-.482.355m.231,1.842a4.272,4.272,0,0,1-.3.429c-.067-.064-.2-.161-.19-.185a3.442,3.442,0,0,1,.283-.425c.073.063.215.165.206.182m-1.524-7.17c.059-.14.3-.2.462-.3.033.188.067.376.1.564l-.473.29c-.037-.188-.151-.408-.09-.555m.09,7.048a8.132,8.132,0,0,1-1.225.269c-.1.008-.227-.305-.341-.471a11.614,11.614,0,0,1,1.2-.429c.05-.013.19.317.37.632M92.905,28.347l-.179-.324A.664.664,0,0,1,93,28c.063.026.093.135.136.208l-.232.135m.474,14.746c.017-.044.031-.09.049-.133l.105-.1s-.029.188-.032.185l-.123.052a.377.377,0,0,1-.064.116c-.028.031-.127,0-.194-.006l.258-.109m-.587,6.6.211.088-.309.122.1-.21m.343-25.8c.141-.006.288.155.433.242l-.474.283-.444-.278c.161-.089.32-.241.485-.247m.008,43.368-.061-.069-.008.016-.006-.032-.1-.107L93.028,67l.217-.138c-.034.136-.069.273-.1.408m-.436-4.191c-.1-.42-.414-1.049-.266-1.187a5.035,5.035,0,0,1,1.736-1.026c.221-.078.614.331.928.518l-2.4,1.7m1.885-6.661-.048.035q-.014,1.045-.028,2.1l-.02-.01.02.011.685.352-.955.352.25-.715c.01-.686.02-1.372.029-2.065l0-.013-.006,0a.454.454,0,0,0,.022-.045l.047-.006.847-.627c.028.17.054.339.081.508-.309.038-.618.077-.927.119M94.5,52.9l.222.077-.082.176L94.5,52.9m-.282-3.182,2.818-.557-.075-.047h0l-.018-.011a.875.875,0,0,1-.006-.112l-.142-.245c.046.022.126.038.131.068a1.2,1.2,0,0,1,.011.177l.087.15,3.128,1.336c-1.2-.007-2.415.073-3.605-.052a12.29,12.29,0,0,1-2.33-.708m5.52,13.536-.188-.206c.087-.045.181-.134.26-.124s.135.126.2.2l-.274.134m-1.161-2.618a3.422,3.422,0,0,1-1.026-.469c.228-.281.482-.814.677-.793a8.956,8.956,0,0,1,1.981.812,6.386,6.386,0,0,1-1.632.451m2.344.252-.063-.208.172.021Zm1.192-1.142,1.369-.651a.189.189,0,0,1,.045.025c0-.029,0-.057,0-.085l.076.133-.071-.047.1,1.818-1.516-1.192m.863-5.277c0-.035,0-.071.011-.115a.941.941,0,0,1,.154,0l-.165.117m.343-4.361c-.343.082-.812-.359-1.223-.564l1.575-1.39,1.415,1.016a7.426,7.426,0,0,1-1.766.938m1.966-6.362-.282.112c.006-.134.012-.267.018-.4.093.006.213-.019.269.03s0,.169,0,.259m2.424-9.308a1.406,1.406,0,0,1-.2-.142l.357-.248.141.025h0a4.528,4.528,0,0,1-.3.364m4.837-10.529-.462-.225c.168.057.336.114.506.174a.378.378,0,0,1-.044.051l.047-.048c.162-.187.317-.38.493-.554.016-.016.155.091.237.141l-.776.461M120.6,10.985l.007-.175.2.1Zm-1.4-6.008s-.028.051-.028.051l-.088-.146s.112.095.116.1m.971,1.312c-.375-.325-1.118-.844-1.066-.944a22.647,22.647,0,0,1,1.547-2.327l.717,1.132-1.2,2.138m2.915-.853s0-.135,0-.135l.2.168c-.065-.013-.131-.025-.2-.033m7.422-.595c.013,0-.173.2-.173.2l-.024-.021-.064.059c-.254.248-.506.5-.756.742a.132.132,0,0,0,.02-.055c.248-.24.492-.463.736-.687l.062-.061-.184-.162-.007-.008c-.012-.1-.023-.206-.035-.308L128.8,3.728l1.123-.588q.082.7.162,1.4l.438.278s-.026.023-.013.018" transform="translate(-17.625 -0.547)" fill="#1a1311"/>
    <path id="パス_71996" data-name="パス 71996" d="M128.645,95.4l.066.045q0,.641.008,1.282L130,95.5l-1.286-.089v.04Z" transform="translate(-37.772 -28.012)" fill="#1a1311"/>
    <path id="パス_71997" data-name="パス 71997" d="M133.951,36.356c-.025.146-.057.283-.085.426l.555-.507c-.131,0-.262-.008-.392-.011-.03.026-.059.053-.089.078l.011.014" transform="translate(-39.305 -10.648)" fill="#1a1311"/>
    <path id="パス_71998" data-name="パス 71998" d="M136.787,96.634q.052-1,.053-1.474a10.25,10.25,0,0,0,.105-1.263,1.15,1.15,0,0,0-.422-1.053,14.451,14.451,0,0,0-3.538-.659,3.72,3.72,0,0,1,.132.66l.547.021c-.172.016-.343.032-.514.059a.723.723,0,0,1-.033-.08l.034.09c-.4.3-1.185.755-1.134.887a27.322,27.322,0,0,0,1.325,2.751Zm-2.945-2.211a1.148,1.148,0,0,1,.267.028c.008-.025,0-.056.018-.076a6.012,6.012,0,0,1,1.16-1.051c.191.312.6.687.531.922a7.9,7.9,0,0,1-.855,1.583l-.713-.441c-.023-.153-.078-.328-.119-.494-.011.023-.022.046-.033.069a2.242,2.242,0,0,1-.369-.3c-.026-.031.067-.24.111-.242" transform="translate(-38.762 -27.067)" fill="#1a1311"/>
    <path id="パス_71999" data-name="パス 71999" d="M230.371,200.565l-1.105-.158-5.21.316-7.893-.316-.842.105a2.519,2.519,0,0,0-.368,1.1c0,.282.052,1,.158,2.158a6.9,6.9,0,0,0,1.974.815q1.131.29,2.92.869l.158.894a3.468,3.468,0,0,1-.105.842l-1.474,4.421-9.261,23.627-6.631,17.365q-.369-.947-1.262-2.946l-5.737-13.524-3.367-7.788-.211-.474q5.136-10.649,7.929-16.012l0-.012h.008c.713-1.368,1.317-2.489,1.8-3.343a7.364,7.364,0,0,1,2.105-2.421,35.139,35.139,0,0,1,6.788-2.368l.105-.263.158-2.369-.105-.421q-.947,0-1.79.027t-1.947.026q-1.316,0-6.1-.158-8.1-.263-9.841-.263a14.092,14.092,0,0,0-.158,1.736q0,.527.105,1.526a31.179,31.179,0,0,1,4.473,1.368,4.326,4.326,0,0,1,1.158.947v.316a3.2,3.2,0,0,1-.158.894,68.456,68.456,0,0,1-3.315,7.736l-3.684,7.63q-1.421-3.1-4.052-9.84-.789-2.052-1.263-3.052a9.138,9.138,0,0,1-1.1-3.841,1.422,1.422,0,0,1,.552-1.105,3.409,3.409,0,0,1,1.921-.579,17.809,17.809,0,0,0,2.842-.473,2.434,2.434,0,0,0,.211-.842v-.632l-.053-1.789a3.94,3.94,0,0,1-.736-.052l-9.1.526-7.368.1-.21,0c.035.041.069.092.1.129-.071.064-.145.178-.213.175s-.13-.125-.195-.195c.036-.032.073-.077.109-.113-.939-.025-2.624-.128-5.066-.309q-2.948-.157-4.63-.158l-.211,3.158a24.169,24.169,0,0,1,5.29,1.657,4.19,4.19,0,0,1,1.639,1.684q.53,1.026.846,1.553.37,1,.9,2.1.952,2.022,2.107,4.711l.412-.324-.154-.255c.235-.059.469-.12.7-.176l.028-.023.01.014c.121-.028.241-.059.363-.08.087-.016.2.113.326.191l-.417.263c.109.15.2.279.172.3a12.829,12.829,0,0,1-1.067.965c.4.941.814,1.932,1.249,2.986l7.693,18.523q-3.881,8.088-6.363,12.981a.341.341,0,0,1,.03.236c-.029.073-.124.119-.232.161-.682,1.341-1.284,2.5-1.8,3.461l-1.96-4.569-.284.169.213.195-.648.69a6.009,6.009,0,0,1-.718-1c-.051-.108.252-.383.393-.581l.509.465.121-.261.379.242-2.216-5.17-.7.212.465-.769-1.773-4.136a14.635,14.635,0,0,1-2.8.263c-.1.006-.343-.377-.3-.444a2.643,2.643,0,0,1,.617-.665q.8-.629,1.591-1.244l-3.2-7.458-.227.47-.533-.574-.211.069a1.475,1.475,0,0,0,.119-.128.934.934,0,0,1,.091.059l-.093-.065.831.117-1.791-4.175q-.694,1.174-1.391,2.348c-.013.034-.025.067-.039.1l0,0,2.729.823-.964,1.675.018.026a.085.085,0,0,1,.016.016l0,0,0,0-.1.068-.02-.177s.048.037.084.066l0-.007-1.765-2.5-.025-.007.022,0-.018,0c.02-.032.039-.064.057-.1q.57-1.467,1.139-2.936l-1.247-2.91q-4.145-9.914-5.046-12.507c-1.443.817-2.662,1.623-2.479,3.622.016.178-.646.419-.993.63-.148-.331-.438-.67-.421-.992.078-1.545-.23-2.26-1.757-1.024-.15.121-.466.035-.7.045.064-.2.064-.519.2-.6,1.07-.617,2.162-1.2,3.257-1.771.713-.374,1.442-.716,2.163-1.072l-2.079-1.024q-.217.4-.437.8l-2.073-1.305a6.9,6.9,0,0,1,2.243-1.052,5.165,5.165,0,0,1,1.755.266,2.348,2.348,0,0,1-.049-.434q0-.735,2.105-1.895.947-.474,1.947-1.1l.421-2.421a.964.964,0,0,0-.473-.579l-6.841.316c-.615.038-1.192.067-1.75.092l-.016.015-.012-.013c-.961.042-1.847.065-2.641.065q-.527,0-2.316-.049-4.369-.14-8.735-.425a2.44,2.44,0,0,0-1,.316l.263,3.262q.789.316,1.21.474a5.052,5.052,0,0,1,1.579.895q1.157,1.158,3.843,7.209l4.494,10.519c.484-.408.781-.786,1.077-.793.26-.006.531.5.8.778-.288.273-.543.693-.878.771-.208.049-.5-.239-.9-.529l3.265,7.644c.161-.063.321-.126.483-.186.338,1,1.251,2.364.9,2.917-.04.064-.09.121-.135.182l7.894,18.478c.521,1.13,1.014,2.214,1.486,3.261a5.708,5.708,0,0,1,1.235-.45c.166-.025.57.378.543.435a2.466,2.466,0,0,1-.641.874c-.069.054-.3-.09-.931-.4q.521,1.16,1,2.253c.035,0,.064,0,.07.009a3.018,3.018,0,0,1,.2.477l-.051.006c.261.6.515,1.178.757,1.742l1.011-2.1-.008-.007.011,0h-.009l.017-.037c.155-.773.309-1.548.487-2.316,0-.006.339.066.52.1q-.072.157-.143.315c.042-.071.088-.14.128-.211l.237.514-.378.21c-.037-.082-.114-.177-.109-.245q-.371.816-.742,1.632c0,.013,0,.025-.008.039l0,0c1.654,1.238,2.638,3.659,5.357,3.048.025-.006.237.427.175.5-.193.236-.5.591-.718.56-1.782-.254-3.557-.557-5.332-.856q2.064,4.869,3.121,8.017a1.556,1.556,0,0,1,.283.311l-.082.1,5.3-.052q2.536-5.788,8.005-16.077t5.576-10.551c.175.316.316.562.421.737q.9,1.632,2.316,5l5.844,13.471q.263.9,1.789,4.315a19.615,19.615,0,0,1,1.159,3.21l5.253-.052q6.027-15.614,10.187-25.927l-.642-.478a15.1,15.1,0,0,1,1.339-1.243q2.048-5.049,3.61-8.714,4.867-11.418,9.444-23.732a13.341,13.341,0,0,1,1.632-3.526,9.144,9.144,0,0,1,2.95-2,2.081,2.081,0,0,0,1.053-.631,2.813,2.813,0,0,0,.368-1.526,10.379,10.379,0,0,0-.158-1.684m-37.688,1.246-.047-.225.174.041Zm4.029,2.627a.9.9,0,0,1-.259-.091q.135-.155.27-.307c.085.109.17.217.254.326a.89.89,0,0,1-.265.073m-12.586-.251-.038.2-.237-.137Zm-9.441.8c-.064.014-.314-.379-.274-.434a3.138,3.138,0,0,1,.591-.505c.09.164.182.328.343.617a2.7,2.7,0,0,1-.66.322m2.9,16.261-.076-.216.2.024Zm.605-14.582,0,.006-.051-.037.169-.1-.045.052.066-.025s-.129.1-.134.1m-28.856-3.658-.122.238-.105-.242ZM137.9,205.654c-.591-.713-1.072-1.157-1.014-1.245.494-.745,1.085-1.425,1.647-2.124.178.171.54.405.506.5-.282.831-.636,1.637-1.139,2.864m2.237.8a5.415,5.415,0,0,1-.385-.8,13.163,13.163,0,0,1,1.773-1.084c.081-.04.372.341.564.527l-1.952,1.353m1.9,2.637c-.036-.083-.105-.167-.1-.247s.092-.141.143-.211c.037.08.073.16.111.239l-.155.218m4.625-3.12,1.033.248.236-.013-.037-.045s.114.032.151.04h.023L148,206.3l-.307-.073-1.053.058c.007-.1.013-.2.02-.306m-1.21,6-.366-.625,1.045-.6.321.591-1,.637m1.969,7.271c-.035.07-.064.138-.1.207-.039.294-.079.588-.118.882l-.247-.1c.118-.259.24-.52.365-.782.008-.06.016-.121.024-.181l-.15-.214c-.219-.162-.439-.322-.651-.494-.017-.014.08-.168.124-.257l.527.752c.08.059.158.121.238.181l-.088.033s.088-.033.073-.026m.461-3.6q-.073.461-.146.921l-.283-.081q.218-.421.429-.841c.011-.076.024-.152.036-.228l-.011,0c-.526-.257-1.042-.52-1.558-.783.008.032.016.063.024.095-.061-.059-.123-.117-.189-.177h0l.142-.018c.565.287,1.13.576,1.684.866-.04.081-.085.163-.125.244m.916,9.258-.287-.252c.081-.039.161-.107.241-.106s.135.083.2.129Zm11.044,1.966c-.035.078-.071.225-.1.225-.5-.013-1-.044-1.5-.071l.006-.015,1.594-.138m-1.594.138-.007.016q.018.693.037,1.387l-.814-.184Zm-1.029,2.2c.123-.069.365.076.557.128-.113.181-.195.413-.358.518-.1.064-.325-.069-.494-.113.094-.186.145-.449.3-.533m-.648-1.96h0l0-.007.114-.045,0,.106c.028.013.056.028.084.04l-.094.179c0-.073.006-.145.01-.218l-.01,0a2.4,2.4,0,0,1-.048.328,1.141,1.141,0,0,1-.236-.011l.181-.365m-.463-6.925a.751.751,0,0,1,.249.069c-.028.065-.054.183-.085.184a.765.765,0,0,1-.249-.071c.028-.064.054-.181.086-.182m.054,11.7.069-.069-.062.073,1.207.425-.975,1.121-.846-.9-.083.035.078-.078-.131-1.161.744.552m.149,1.5-.393.3-.029.054c-.093-.007-.238.018-.266-.028a.4.4,0,0,1,0-.275c.226-.033.456-.04.684-.054m-2.205,7.689-.334-.2c.073-.064.14-.165.222-.178s.16.074.242.117l-.129.257m-1.572-8.488-.018.035.147.162c-.064-.023-.129-.044-.2-.061h0l0,.007.024-.138.048,0q.835-1.621,1.671-3.243c-.015-.056-.03-.112-.045-.167l-.009-.008.006,0,0-.007.146,0c0,.051-.006.1-.01.152-.016-.014-.03-.03-.045-.045l-.041.081c.417,1.555,1.093,3.237-1.671,3.243m2.652-4.84c-.061-.006-.112-.115-.166-.179.066-.052.136-.15.2-.144s.11.114.165.179c-.066.052-.136.15-.2.145m.562,20.162.107-.175.049.211Zm3.653-8.671c-.562.627-1.209,1.178-1.856,1.783a18.783,18.783,0,0,1-2.015-1.2c-.164-.126-.153-.648-.037-.9.057-.126.543-.105.825-.069.393.049.8.311,1.156.239a10.934,10.934,0,0,0,1.771-.675c.06.282.269.7.156.824m1.221-5.621,0,.008-.006,0q-1.063,1.446-2.126,2.893c.5-.783.975-1.577,1.5-2.342a3.219,3.219,0,0,1,.63-.551l.006-.008q-.293-1.009-.586-2.019c.1-.007.3-.029.3-.021.107.677.2,1.356.292,2.034h0m1.259,2.041c-.2-.22-.612-.512-.567-.648a15.993,15.993,0,0,1,.956-1.935,11.179,11.179,0,0,1,.932,1.249c-.413.469-.873.9-1.322,1.334m1.755,7.705c-.071.073-.379-.088-.578-.143.1-.259.206-.519.305-.771l.645.2a2.577,2.577,0,0,1-.372.716m1.956,16.767-.2-.1.208-.093Zm.4-3.954a1.927,1.927,0,0,1-.171-.224c.134-.134.284-.251.43-.372.055.088.172.234.153.253a3.648,3.648,0,0,1-.413.343m.331-6.04c-.054-.063-.155-.128-.152-.188s.11-.113.172-.17c.054.063.109.126.164.188l-.184.17m-1.384,13.95c.04-.175.08-.35.119-.526l-.012-.146.185.172-.067-.008.3.409-.522.1m3.911-6.86c-.191-.033-.321-.437-.478-.677.188-.088.388-.263.562-.24a4.229,4.229,0,0,1,.954.425c-.513.261-.8.531-1.038.492m3.091-1.932a2.48,2.48,0,0,1-.866.2c-.21-.028-.386-.307-.577-.473l.1-.058a.524.524,0,0,1-.058,0,4.113,4.113,0,0,1-1.147-.627c.391-.33.754-.861,1.183-.922.3-.043.7.548,1.416,1.171-.189.053-.354.109-.5.16l.449.55m2.254-1.95a1.19,1.19,0,0,1-.066-.317c0-.029.112-.047.172-.07-.029.107-.058.213-.106.387m2.273-3.62c-.028.037-.06.071-.09.105,0,.092,0,.184,0,.276-.032-.054-.1-.127-.086-.158a.562.562,0,0,1,.085-.118c0-.061,0-.122,0-.183l.162-.016a.481.481,0,0,1,.118-.107c.03-.018.109.051.166.08l-.284.027c-.025.03-.051.06-.077.088l-.041-.035.047.04m.31-1.537c-.059-.066-.182-.163-.167-.194a3.508,3.508,0,0,1,.285-.439c.052.068.162.161.146.2a3.309,3.309,0,0,1-.263.434m4.539-44.521a4.323,4.323,0,0,1-.527-.132c.037-.083.088-.239.111-.235a4.844,4.844,0,0,1,.538.146c-.042.078-.092.225-.121.221m2.144,20.054.018-.018-.021.019q-.339.887-.679,1.772l-.736-.49,1.415-1.283,0-.008.092-.078c.008.066.016.133.023.2-.038-.036-.076-.072-.114-.114m2.473,1.558c-.2-.046-.391-.374-.474-.617-.037-.105.232-.453.316-.437a6.93,6.93,0,0,1,1.3.687c-.609.213-.906.421-1.143.367m2.928,22.259c-.035-.038-.07-.076-.1-.121a1.133,1.133,0,0,1,.107-.08Zm.425,4.626c-.042-.088-.131-.191-.11-.26s.151-.111.233-.165l.254.144-.377.28m1.977-5.445.105-.15.051.176Zm2.195,8.5-.1.151-.065-.17Zm-1.1-3.307.027-.259.246-.164.135.223-.408.2m1.052,5.4-.31-.331c.08-.047.17-.145.235-.13s.124.135.185.209l-.11.251m1.091,2.123.136-.249.1.265Zm.833,7.924-.309.258q-.071-.2-.143-.393l.335.008-.078-.085c.064.032.129.063.2.089h.021Zm.12-11.889c-.081-.164-.272-.406-.222-.476a4.342,4.342,0,0,1,.656-.631c.066.184.134.368.24.663l-.674.444m3.961-3.507.206-.087v.166Zm2.566,12.059c-.287-.208-.815-.422-.81-.622.009-.36.338-.712.622-1.227.285.336.618.555.6.741a4.366,4.366,0,0,1-.413,1.108m1.989-7.69a1.771,1.771,0,0,1-.25-.3c-.013-.025.116-.128.179-.195l.157.234c-.028.086-.056.173-.085.259m5.9-19.8.028.1-.078-.063-.079.063-.018-.141c.03-.014.059-.026.09-.04.006-.018.014-.037.021-.056,0,.013.008.027.011.041a2.321,2.321,0,0,0,.372-.189c.076-.051.147-.108.22-.164l-.566.446m2.716,1.2-.394.207q-.183-.588-.367-1.175h0v-.011l.015-.008.983-1.333.358.663-1.341.67-.01.014.759.973m1.645-7.392-.649-.617c-.012-.117-.023-.234-.035-.351l-.2-1.071-.123-.041.108-.038c-.006-.029-.011-.057-.016-.085l.115.05.013.129.016.023-.014,0q.052.519.1,1.038c.022.117.045.235.066.352h-.031l.03,0,.757.328-.137.286m3.271-5.872.068-.158-.025-.022-1.618.716q.323-.773.648-1.546l.97.831.039-.016.03.076Zm1.76-2.682-.258-.117.269-.109Z" transform="translate(-39.211 -58.797)" fill="#1a1311"/>
    <path id="パス_72000" data-name="パス 72000" d="M523.68,198.925l.286.312a12.98,12.98,0,0,0-1.457-.1,4.737,4.737,0,0,0-.99.246h-.038l-2.862-.029c.073.087.147.172.22.259.138.122.278.244.415.368l-.048.064-.117.152.113-.156-.363-.427c-.1-.087-.194-.174-.293-.26h-.008a.37.37,0,0,0,.021-.07c.971.035,1.947.067,2.922.1h.038a2.105,2.105,0,0,1-.28-.627c-9.417.029-16.188,6.822-16.188,18.8,0,8.74,3.458,14.462,8.855,17.044l.025-.018.031-.062a.933.933,0,0,1-.078-.086l.081.08c.206-.4.408-.809.608-1.216a2.319,2.319,0,0,1-.189.866,1.733,1.733,0,0,1-.393.375l.051.049-.055.048a15.356,15.356,0,0,0,2.8,1c.04-.139.084-.3.125-.486.154.238.286.431.408.61a18.677,18.677,0,0,0,3.976.428c9.448,0,16.159-6.357,16.159-18.631,0-10.968-5.607-17.572-13.777-18.637m-17.334,12.451-.333.086.268-.168-.088-.114c.058.02.117.041.179.057l.006,0Zm1.59,9.34-1.357-1.66a14.053,14.053,0,0,1,1.766-1c.122-.05.718.542.668.674a16.112,16.112,0,0,1-1.077,1.985m1.552,1.185c-.012-.114-.023-.229-.035-.344l-.121.057c.037-.048.076-.1.111-.15v-.008l.1.061-.053.385m17.363-14.72.233.027-.259.266c.009-.1.017-.2.026-.293m.089.879-.075.037.148.131-.213-.105-.057-.134.2.071m-1.632-5.181.274.525-.431.374-.387-.6.544-.3m-.176,2.861c.3.365.734.693.855,1.111.074.256-.33.651-.519.983l-1.146-.939c.361-.514.586-.835.81-1.155m-2.718-.8.145,0c0,.057,0,.114,0,.17-.018-.018-.035-.038-.053-.056-.054.116-.107.232-.161.348l-.422-.346.491-.113m-1.969-1.825.327.448a1.524,1.524,0,0,1-.39.186c-.047.008-.193-.174-.175-.235a1.65,1.65,0,0,1,.238-.4m-2.983-2.341c.23.276.475.439.466.588a2.991,2.991,0,0,1-.284.813c-.149-.152-.41-.3-.423-.458a3.3,3.3,0,0,1,.242-.942m-1.536,32.769a2.323,2.323,0,0,1-.2-.42c-.011-.041.16-.184.179-.172a3.032,3.032,0,0,1,.36.3l-.344.3m.651-7.458.024-.233.259.133Zm8.156,4.1-.09-.244.244-.078c.024.078.085.173.061.231s-.14.062-.215.091m-3.435-1.856c-3,0-6.181-1.943-6.181-10.772s3.179-10.949,6.181-10.949c3.09,0,6.092,2.207,6.092,10.949,0,.992-.042,1.892-.115,2.717l.244-.167.052.082s-.052-.082-.054-.088l.054.088-.3.132c-.6,6.547-3.39,8.008-5.973,8.008m7.322-21.579a1.985,1.985,0,0,1-.542-.394c.169-.088.338-.176.509-.261.136.1.272.191.407.285-.127.131-.3.394-.374.369m.23,11.312.244-.1,0,.195Zm1.884-1.635c-.052.022-.231-.1-.225-.131a2.876,2.876,0,0,1,.159-.463l.447.332a2,2,0,0,1-.381.263m.476-3.708c-.007,0,.088-.023.088-.023l-.1.022-.052.143-.01-.167-.266-.05s.177,0,.182,0a.71.71,0,0,1,.084.054l-.08-.057.237.059.183-.018s-.264.04-.271.04m1.257,2.718-.085-.014-.576.185c.025-.088.055-.254.076-.253a4.64,4.64,0,0,1,.5.068l.16-.052,0,0,0,0,.011,0Zm2.164-4.715-.018.212-.2-.123Zm-1.413-5.746a3.121,3.121,0,0,1-.187-.555c-.01-.057.145-.141.223-.213.07.186.138.372.207.558l-.244.209m.623,10.127a3.938,3.938,0,0,1,.171-.5l.523.2a4.7,4.7,0,0,1-.465.411c-.037.025-.235-.093-.23-.114m.841,3.565-.006.008.049-.02-.143.143-.066-.059Zm-.118,4.706.018-.159.142.1Z" transform="translate(-148.291 -58.358)" fill="#1a1311"/>
    <path id="パス_72001" data-name="パス 72001" d="M539.554,8.152a21.126,21.126,0,0,0-15.591-7.6c-.386.218-.853.416-1.2.644.08-.218.2-.443.307-.665-.056,0-.112,0-.168,0a21.672,21.672,0,0,0-9.288,2.045c.028.023.056.049.084.074l.308.028c-.064.019-.139.069-.189.052a.4.4,0,0,1-.119-.079l-.146-.013.008-.01,0-.023c-.4.191-.806.393-1.2.61a18.336,18.336,0,0,0-1.628,1.016c.112.05.261.173.382.239l-.5.62-.59-.321c.04-.039.078-.081.116-.124a19.4,19.4,0,0,0-5.515,6.593,24.506,24.506,0,0,0-2.815,11.6c0,.213.016.427.02.64a1.308,1.308,0,0,1,.182-.048c.05-.008.125.148.189.23-.12.04-.24.083-.362.118.029.957.09,1.913.208,2.866.081-.041.165-.078.245-.121l.22.51c-.13.041-.261.106-.391.133a31.793,31.793,0,0,0,.688,3.513,16.432,16.432,0,0,0,2.4,5.236,19.8,19.8,0,0,0,4.668,4.5,14.089,14.089,0,0,0,2.568,1.3c.615-.3,1.229-.6,1.837-.9l.031-.017c0-.015.009-.03.014-.045q.087-.77.172-1.542l.3.061c-.154.494-.308.988-.468,1.481,0,.015,0,.029,0,.044s-.016,0-.01,0l-.03.016q-.867.472-1.724.945c.947.4,2.1.84,3.487,1.341a13.3,13.3,0,0,0,3.11.21,20.731,20.731,0,0,0,7.329-1.264,2.441,2.441,0,0,0,1.582-2.578,2.6,2.6,0,0,0-.529-1.762,1.533,1.533,0,0,0-1.162-.605l-.793.158a9.7,9.7,0,0,1-2.746.421,9.216,9.216,0,0,1-3.682-.813c-.567,1.425-1.146,2.846-1.724,4.267-.126-.112-.383-.27-.361-.331.475-1.381.977-2.758,1.508-4.221a6.045,6.045,0,0,1-1.658-1.955,13.923,13.923,0,0,1-1.9-5.314c-.16-1.1-.279-2.246-.377-3.411l-.042-.02.018-.01-.165-.1-2.582-.535c.165-.249.453-.725.474-.713.715.393,1.411.821,2.108,1.248l.18.037c-.008-.1-.018-.191-.027-.287-.069-.03-.186-.119-.187-.17a1.951,1.951,0,0,1,.1-.478l.03.018q-.165-2.39-.168-4.945,0-8.1,3.22-12.472c.056-.075.115-.138.17-.211a.977.977,0,0,1-.171-.481c.008-.107.334-.191.517-.286l.081.241a6.694,6.694,0,0,1,5.155-2.472q3.641,0,6.122,3.736,3.271,5,3.272,18.417c0,.906-.018,1.746-.046,2.556l1.481.276.042-.011c0,.27-.008.539-.012.809l-.061-.013q-.131.733-.261,1.466l-1.276-.728c-.049.749-.107,1.466-.184,2.117q-.421,3.63-.475,4.578a44,44,0,0,1-1.239,7.762,29.186,29.186,0,0,1-3.823,9.156,27.1,27.1,0,0,1-6.343,6.962c.2.105.374.219.411.367a14.1,14.1,0,0,1,.3,2.178l.048,0-.046.023c.014.154.028.309.045.461l-1.563-1.469-.062.016c0-.256.006-.514.009-.771h0l.057.017c.017-.085.034-.17.052-.256a39.182,39.182,0,0,1-8.99,4.755,11.011,11.011,0,0,0-3.059,1.421,1.916,1.916,0,0,0-.527,1.421,3.061,3.061,0,0,0,.841,1.947q1.315.1,2,.105c.414,0,.853-.025,1.305-.064a.059.059,0,0,0,.007-.013l.014.011c.123-.011.254-.028.379-.041q-.047-.688-.084-1.377l-.393.558-.545-.625,1.37-.547.112-.158c.031,0,.055-.008.085-.011a5.421,5.421,0,0,0,.064-.871c-.033-.564-.118-1.125-.181-1.688.224.162.619.3.641.49.089.745,1.283,1.875-.524,2.069,0,.031-.008.062-.011.093l-.074-.083.074.084-.186.074q-.148.212-.3.423.9.646,1.8,1.3a41.736,41.736,0,0,0,6.183-1.727,36.362,36.362,0,0,0,10.83-6.215,6.893,6.893,0,0,1-.514-.892c-.028-.061.484-.457.509-.435a8.4,8.4,0,0,1,.7.754,37.167,37.167,0,0,0,8.314-9.814,54.987,54.987,0,0,0,3.842-7.5A47.2,47.2,0,0,0,546.211,30.2q0-14.418-6.657-22.049M508.181,20.411l.1.153s-.173-.071-.173-.076.076-.076.076-.076m-2.327,3.754c.23.031.429.283.884.612-.55.138-.85.316-1.044.237-.257-.107-.432-.415-.643-.636a2.186,2.186,0,0,1,.8-.212M504.625,25.6h0l-.051-.025a.6.6,0,0,1,.069.039c.118.162.218.309.316.456l-.386-.494.052.025,1.458.167c-.047.155-.1.31-.143.465l-1.315-.632m2.512,6.781a.786.786,0,0,1-.5-.232c-.081-.113,0-.34.011-.517l.8.393c-.138.169-.235.366-.3.357m2,.389c.037.021.071.046.107.069l.179-.133-.126.179-.147.025q-.006-.071-.013-.14m.3,3.552a.625.625,0,0,1-.249.055c.018-.116.036-.232.054-.348l.234.083c-.011.073,0,.179-.039.21m-2.547-8.659c-.063.055-.47-.283-.875-.538l2.45-2.956,1.122.965c-.891.852-1.771,1.717-2.7,2.529m9.028,11.811.125.26-.23.008Zm-2.822-6.31c-.046.036-.425-.349-.649-.539l1.722-1.413c.118.237.366.571.307.64a10.315,10.315,0,0,1-1.38,1.312m-.474-6.269c.662.2,1.3.474,1.953.721l-1.648.186-.844-.684c.182-.081.4-.267.538-.223m.028-9.507c-.164.036-.371-.129-.559-.2a4.39,4.39,0,0,1,.826-.788c.132-.076.447.165,1.1.437a10.2,10.2,0,0,1-1.366.554m2.753-9.88c-.054-.064-.154-.13-.15-.191s.111-.114.172-.17l.162.191-.185.169m-.266,59.034c-.03,0-.1-.193-.074-.233a1.842,1.842,0,0,1,.323-.278c.074.153.148.306.221.46a2.9,2.9,0,0,1-.47.051m2.9.027a1.838,1.838,0,0,1-.177-.6,4.284,4.284,0,0,1,.212-.823c.03.186.06.372.1.592-.04.256-.086.545-.13.834m7.317-5.052c-.047-.295-.11-.588-.137-.885s-.023-.6-.031-.895h-.013a5.046,5.046,0,0,1-.568.289c-.378.139-.765.251-1.148.374l-.134-.523c.414-.034.828-.069,1.242-.1.2-.016.405-.027.607-.04l.014-.007.023,0c.044.29.072.585.138.87s.176.574.266.861l-.26.05m1.043-4.631a3.366,3.366,0,0,1-.655-.463l.469-.547a4.733,4.733,0,0,1,.549.648c.023.039-.3.389-.363.362m3.44-.652c-.059-.174-.2-.377-.151-.511.043-.117.371-.256.449-.2.134.091.172.324.256.506l-.553.208m.691-1.895.539-.239c.073.191.146.382.22.575-.181.064-.406.22-.512.161-.133-.074-.168-.324-.247-.5m.606,5.344-.3-.7c.177-.054.413-.2.516-.137.127.079.144.336.209.516l-.428.32m.6-19.785.132-.215.076.249Zm8.749-10.2-.247-.081.234-.112Zm-2.146-13.274c.03,0,.058.045.086.069a2.062,2.062,0,0,1-.285.035c-.03,0-.059-.061-.088-.094.1,0,.192-.015.287-.01m-.492,14.862.819.018-.2.489-.55-.324.012.03c-.031-.028-.065-.054-.1-.08l-.057-.034Zm-1.856-9.08c.149.65.313,1.288.476,1.926l.006.126-.172-.179s.112.04.14.048c-.152-.646-.3-1.291-.471-1.924v0c-2.317.41-1.225-1.466-1.459-2.45.492.812.983,1.625,1.459,2.45l.037,0s-.051.02-.036.007c-.016.013.036-.007.021,0M535.222,44.8h0v0l-.087.068-.03-.153.072.048.03-.072q-.067-.491-.133-.98l.565-.076-.432,1.056c.005.035.009.069.014.1h0m-.651-13.066-.014.007-.256-.154.257.142c0-.014,0-.028.006-.042l-.144-1.065c.1.016.289.043.289.048-.039.34-.092.679-.145,1.017ZM530.489,6.764l-.061-.191.172.023Zm2.039,9.865-.013-.01q0-.814.007-1.63h0l.006-.006h0l.231-.093-.17.328-.061-.2q0,.665,0,1.332v0c.1,0,.245-.028.283.021a3.035,3.035,0,0,1,.25.486l-.533-.221m1.577-7.978c-.03-.027-.059-.049-.09-.074a5.514,5.514,0,0,1-.707.47c-.081-.16-.268-.416-.225-.463a4.427,4.427,0,0,1,.685-.531c.177-.4.37-.792.562-1.185.129.105.388.254.369.309-.161.479-.372.941-.6,1.475m-.562,39.312c.081.023.226.037.23.07a.772.772,0,0,1-.063.276c-.074-.026-.2-.039-.211-.083a.631.631,0,0,1,.043-.263m-1.173-9.846c-.018.023-.145-.04-.223-.064l.1-.275c.073.025.208.053.207.074a.487.487,0,0,1-.089.266m.561,19.73-.4-.545a25.725,25.725,0,0,1,2.413-1.4c.163-.075.579.4.879.621l-2.892,1.32m3.107-17.124-.11-.068.059-.173.028.129.088-.045s-.061.122-.066.145Zm2.65,12.463c-.827-.3-1.658-.59-2.472-.921-.049-.02.032-.362.054-.554l2.637.929-.218.546m1.2-14.757-.026.008a3.237,3.237,0,0,0-.523.3c-.631.51-1.247,1.037-1.869,1.558-.1-.367-.3-1.046-.271-1.056.874-.307,1.77-.547,2.663-.8l.023-.013q-.145-.406-.291-.811c.068.081.167.153.2.245a4.434,4.434,0,0,1,.1.562h0Zm-.2-18.355c-.023-.052.11-.241.137-.234a3.048,3.048,0,0,1,.462.193l-.318.443a2.179,2.179,0,0,1-.281-.4m.846,27.237c-.023.063-.136.093-.209.138-.044-.078-.14-.213-.126-.226a1.828,1.828,0,0,1,.306-.191c.013.094.058.2.029.279m.493-35.239c.054-.12.312-.148.48-.218l.193.514-.518.207c-.06-.172-.21-.384-.155-.5m.785,13.674c-.052.042-.278-.134-.424-.21.157-.25.316-.5.468-.742l.6.273a6.011,6.011,0,0,1-.648.679m2.4,6.474a2.154,2.154,0,0,1,.1-.432l.552.307a1.841,1.841,0,0,1-.395.223c-.076.02-.258-.066-.256-.1" transform="translate(-147.336 -0.153)" fill="#1a1311"/>
    <path id="パス_72002" data-name="パス 72002" d="M619.95,19.494l-.154-.125c.05,0,.1.007.15.01-.041-7.791-2.929-13.354-7.553-16.277-.017.3-.033.6-.045.907.011.079.021.16.033.239l-.052.015L611.6,5.379l.252-.077c-.056.042-.112.084-.165.131,0,0-.087-.054-.087-.054l.09.059-1.226-.653,1.861-.522.022-.034.03.019a.218.218,0,0,1-.043-.036c0-.069.007-.135.01-.2-.049-.341-.1-.682-.14-1.024A15.956,15.956,0,0,0,603.793.737c-9.448,0-16.247,6.8-16.247,18.807a22.642,22.642,0,0,0,2.4,10.8l.072.053-.038.012c2.783,5.129,7.746,7.767,13.815,7.767a18.378,18.378,0,0,0,4.43-.535c.054-.1.1-.186.16-.292l.135.223c6.88-1.838,11.434-7.922,11.434-18.027,0-.017,0-.033,0-.051M588.1,16.837c-.033,0-.112-.215-.081-.249a2.339,2.339,0,0,1,.382-.29c.059.16.119.32.178.481a2.654,2.654,0,0,1-.479.058m2.273,3.114c-.052.041-.149.026-.227.035.018-.108.035-.217.052-.325l.215.083c-.011.071,0,.173-.04.206M607.909,5.531a3.316,3.316,0,0,1,.495.2c-.122.1-.24.265-.369.275-.095.007-.21-.185-.3-.3-.008-.009.13-.182.174-.172m-.67,1.666h0V7.19l.111-.064-.042.218c-.01-.02-.019-.041-.03-.061l-.042.093-.027,1.4-.519-.2.547-1.2c0-.058,0-.115,0-.173l0,0M603.01,3.483c.019-.057.119-.084.184-.125-.053.126-.105.252-.159.377a.6.6,0,0,1-.025-.252m-1.995,1.277c.074.071.223.163.21.211a3.027,3.027,0,0,1-.23.511c-.078-.069-.232-.159-.22-.2a3.556,3.556,0,0,1,.241-.522M599.762,4.4l.174.122-.206.058Zm.267.6-.049.276c-.078.014-.19.067-.227.035-.059-.052-.069-.16-.1-.245l.376-.066M598.442,7.56l.254.114-.34.265c-.049-.073-.153-.17-.133-.215.031-.073.142-.112.219-.165m-2.193,21.513.3.514c-.165.088-.346.263-.47.23-.148-.04-.246-.261-.365-.4l.535-.34m-1.32-22.351q.188.459.378.916l.177.116-.111.045c.03.073.059.146.09.218l.172.1-.093.1-.08-.194-1.1-.628.567-.667m-.718,5.412c.307.34.595.526.642.761.028.132-.351.5-.526.483a.815.815,0,0,1-.569-.509c-.043-.162.24-.41.453-.735m.213,16.19-.175.062.023-.17Zm-.98-18.644c.033.07.108.15.093.207a3.229,3.229,0,0,1-.137.39c0,.041-.006.082-.009.123l.129-.075s-.121.12-.126.124h-.006v.006l-.047-.024c.019-.051.04-.1.06-.153Zm-.891,3.472-.21-.092.216-.085Zm.772,15.927a3.31,3.31,0,0,1,.72-.858l.882,1.146a3.548,3.548,0,0,1-1.179.391.824.824,0,0,1-.422-.68m1.346,5.193c-.117,0-.232-.278-.346-.514-.036.1-.071.2-.1.3-.181-.174-.509-.347-.511-.523a9.117,9.117,0,0,1,.4-1.721c.307.716.484.925.457,1.105a3.657,3.657,0,0,1-.163.62,5.436,5.436,0,0,1,1.16-.249c.215-.01.441.26,1.052.656a12.123,12.123,0,0,1-1.94.323m1.805-10.51c-.06-.073-.184-.164-.169-.218a2.791,2.791,0,0,1,.216-.473l.193.212c-.079.16-.16.32-.24.48m.925,8.678-.219.052c.011-.131.021-.263.031-.395.076.031.191.042.22.1s-.018.161-.032.244m1.63,1.9a.782.782,0,0,1-.275.067q.026-.191.053-.38l.259.1c-.01.075.005.188-.037.216m8.991-5.087a.194.194,0,0,1-.011-.062c0-.011.088-.093.088-.093-.026.052-.052.1-.077.155m-4.23,1.061a5.452,5.452,0,0,1-2.234-.442c-.076.032-.159.074-.2.049s-.068-.112-.088-.189c-2.03-1.074-3.662-3.864-3.662-10.19a25.851,25.851,0,0,1,.345-4.446,1.431,1.431,0,0,1-.3-.329c.157-.23.327-.45.5-.668.747-3.107,2.174-4.59,3.755-5.179l-1.269.1-.257.035-.054.048.131.074-.241.025.11-.1-.083-.047c-.005,0,.137,0,.137,0l-.142,0,.4-.032,1.6-.215.124-.035.125-.353c.014-.6.025-1.207.036-1.81.16.109.473.261.456.321-.141.5-.316,1-.492,1.489,0,.049,0,.1,0,.148a1.381,1.381,0,0,1-.023.177,5.609,5.609,0,0,1,1.327-.155c3.09,0,6.093,2.207,6.093,10.949,0,8.918-3.179,10.772-6.093,10.772m6.533-27.011c-.078.136-.329.172-.5.251-.044-.15-.17-.357-.114-.436a1.631,1.631,0,0,1,.487-.334c.053.179.195.408.131.519m2.745,9.038-.061.163-.156-.129Zm-1.034-5.83a1.319,1.319,0,0,1,.122.213,2.4,2.4,0,0,1-.242.164c.005.034.01.067.014.1l-.068-.064c-.027.017-.052.037-.078.054l-.016-.142.268-.324m-.684,15.42c-.01.123-.02.246-.029.369h.02l-.022.02-.011.138h-.132l-.465-.1.639-.423m.25,10.257a2.174,2.174,0,0,1-.778-.867c-.038-.07.468-.605.59-.561.294.107.509.43,1.272,1.16-.54.147-.9.369-1.084.268m1.568-10.144a2.219,2.219,0,0,1-.5-.6c-.052-.139.134-.367.213-.555l.732.487-.447.664m.1-6.942a1.751,1.751,0,0,1-.37-.514c.2-.048.443-.185.583-.115s.177.347.259.533c-.161.038-.379.16-.472.1" transform="translate(-172.513 -0.216)" fill="#1a1311"/>
    <path id="パス_72003" data-name="パス 72003" d="M605.767,70.046c-.051-.078.146-.317.23-.482l.414.279,5.617-7.792a.278.278,0,0,1-.2.033,3.285,3.285,0,0,1-.892-.737l.707-.563.778.714L655.407,1.863H644.193L631.528,19.374c.49.545.984,1.086,1.458,1.644.28.331.514.7.768,1.053.177-.425.355-.85.533-1.281l0,0h0s.041-.1.042-.1c.042.076.084.158.126.239l-.164-.134c-.16.434-.321.872-.474,1.317a.433.433,0,0,1-.059-.032l.068.041c-.321.042-.793.24-.937.1A23.1,23.1,0,0,1,631,20.1l-2.009,2.777,1.085.978c-.013.035-.026.069-.04.1.033.018.067.038.1.055l-.131.027c.01-.028.021-.054.031-.082-.028-.014-.056-.028-.083-.045a1.018,1.018,0,0,1,.122-.059l-.121.052-.465,1.33-1.214-1.37L601.438,60.976l.638.025-.67.023c.044.052.087.106.131.159l-.241-.009-3.879,5.363c.074.033.148.066.223.1l.009,0v0h0v0c.025.3.042.6.076.9.054.475.12.948.182,1.421a2.343,2.343,0,0,1-.545-.072,6.963,6.963,0,0,1-.014-1.377,4.079,4.079,0,0,1,.3-.878l-.008,0c-.114.02-.228.043-.341.066l-1.363,1.884a.536.536,0,0,1,.054.2,5.944,5.944,0,0,1-.276,1.4c-.2-.107-.511-.206-.715-.313l-1.578,2.182h7.6c0-.009.01-.018.013-.027l.045.027h3.734l1.231-1.708a1.6,1.6,0,0,1-.277-.306m41.8-62.3c.037-.039.437.268.674.418l-.781,1.2c-.2-.213-.6-.486-.559-.627a2.645,2.645,0,0,1,.666-.993m-6.108,8.248c.067,0,.126.124.189.194-.071.061-.146.172-.212.167s-.126-.124-.188-.193c.071-.06.145-.172.211-.167m-1.6-2.71.064.2-.18-.026Zm-.535,1.365c.078.036.191.053.226.114s-.024.157-.041.238l-.356-.171.171-.181m-1.02,3.467c.023.082.081.174.059.242-.015.048-.137.062-.211.091-.03-.085-.061-.17-.092-.255l.244-.078m-2.167,3.551.267.088,1.512-.305q0,.4-.006.8l-1.506-.494-.133.027.064.054c-.062-.011-.125-.021-.19-.028l-.015,0Zm-3.35,2.981a4.529,4.529,0,0,1,.55.785c-.309,0-.578.08-.682-.018a2.355,2.355,0,0,1-.369-.675c.172-.037.429-.162.5-.093m-1.618-1.231c.25.273.615.509.717.83.094.3-.093.682-.231,1.435-.468-.664-.818-.959-.874-1.3-.047-.292.245-.639.388-.962m-1.134,3.539c.178.11.5.213.506.334a3.293,3.293,0,0,1-.192.9c-.2-.153-.47-.262-.476-.385a3.386,3.386,0,0,1,.162-.85M627.656,25.3l.094.184-.158-.117Zm.062,11.167-.053.218-.213-.152Zm-2.492-2.638a2.864,2.864,0,0,1,.158.53c.006.059-.139.136-.215.2a3.294,3.294,0,0,1-.172-.547c-.008-.049.148-.124.229-.187m-.032,8.227.187.23c-.086.147-.172.292-.26.439-.072-.067-.217-.165-.2-.2a3.454,3.454,0,0,1,.276-.472m-9.3,3.022-.126.187-.073-.215Zm-5.034,5.253a1.547,1.547,0,0,1,.183.541,1.888,1.888,0,0,1-.231.573l-.509-.482.557-.632m-2.511,7.916a2.068,2.068,0,0,1-.343-.293c-.026-.032.061-.226.109-.232a1.752,1.752,0,0,1,.424.047c-.063.159-.126.318-.19.478m-.03-2.838.071.074-.189.078.026-.037-.242.061c-.018-.087-.037-.173-.056-.26l.39.084m-.992.683c.047-.011.134.141.2.218l-.526.218c-.074-.072-.146-.146-.218-.219a3.509,3.509,0,0,1,.541-.218m-.846.541s.112.128.121.131h.006l-.061.1-.158-.077.132-.013Zm.2,1.555.745,1.086c-.386.131-.709.312-.769.247a1.409,1.409,0,0,1-.4-.775c-.013-.174.273-.371.424-.558m-.73,10.269a3.408,3.408,0,0,1,.651-.583c.052.162.1.324.165.511-.217.2-.44.4-.663.605-.058-.182-.219-.436-.153-.533m-4.2,1.6c-.155-.057-.222-.436-.254-.681a.676.676,0,0,1,.488-.191,3.977,3.977,0,0,1,.764.66c-.482.119-.785.29-1,.213m2.532-.41-.6-.126.863-3.019c-.108,1.309-.184,2.227-.259,3.146m.5-6.927-.273.564c-.087.227-.172.456-.259.68l-.074.037-.126.346-.217-.177c.114-.056.23-.112.343-.17l.033-.088.02.024-.021-.026c.1-.21.2-.418.3-.627.073-.194.15-.385.221-.581a.335.335,0,0,1,.05.016l-.057-.02.68-.446.1.492-.723-.024m.71,7.849a1.721,1.721,0,0,1-.247-.272c-.012-.019.111-.122.172-.187l.158.215-.082.244" transform="translate(-174.239 -0.547)" fill="#1a1311"/>
    <path id="パス_72004" data-name="パス 72004" d="M668.679,55l-.388-.853.485-.143a15.316,15.316,0,0,0-11.445-4.639c-6.177,0-11.162,2.889-13.885,8.234l.04,0-.054.047h.006l.148-.109a.609.609,0,0,1,.144-.108l1.388-1.032,0-.014-.09.055c.023-.052.047-.1.068-.158v-.009l.138.044-.111.083q.169.814.339,1.628l-1.295-.242-.4.273a2.008,2.008,0,0,1-.228-.392l-.094-.018c-.008.007-.018.014-.028.021a22.631,22.631,0,0,0-2.217,9.771c.054.1.107.191.16.287l-.175.166c0,.067-.007.129-.007.2,0,12.273,6.8,18.631,16.159,18.631,8.079,0,14.2-4.664,15.816-13.684a.2.2,0,0,1-.04-.15,1.271,1.271,0,0,1,.123-.279,27.987,27.987,0,0,0,.294-2.992c-.053.055-.1.109-.156.167l-.835-1.027c.234-.167.547-.523.688-.465a1.346,1.346,0,0,1,.342.224c0-.144.015-.278.015-.425,0-5.841-1.619-10.416-4.358-13.588-.18.168-.361.335-.54.5m-26.841,16.68-.148-.107.173-.058Zm19.955-13.569c.071,0,.143.115.215.179-.038.092-.077.184-.116.275l-.327-.286c.076-.061.153-.169.228-.168m-.54-5.433c.126.054.165.314.246.494-.189.045-.4.16-.555.11-.107-.034-.144-.3-.213-.455.178-.058.393-.2.523-.149M645.987,69.707c-.073-.008-.137-.1-.2-.154l.456.057c-.085.037-.171.107-.251.1m3.422-6.993c-.04-.035.093-.259.148-.4l1.015.683c-.152.074-.342.247-.447.2a2.46,2.46,0,0,1-.716-.487m1.161,20.873a3.077,3.077,0,0,1-.124-.735c0-.064.4-.2.442-.151a3.428,3.428,0,0,1,.361.666l-.679.22m5.71,1.065a3.213,3.213,0,0,1-.969-.35c.252-.3.458-.744.772-.841.262-.082.652.246,1.5.62-.753.346-1.033.579-1.3.572m3.587-.064-.016.006-.131.054-.05-.073c-.023-.081-.046-.162-.069-.242l.352.218-.088.037h0m3.781-11.324a4.339,4.339,0,0,1-.9,1c-1.137,3.665-3.364,4.59-5.417,4.59-3,0-6.093-1.854-6.093-10.772,0-8.83,3.179-10.861,6.093-10.861a5.607,5.607,0,0,1,1.779.277c.013-.026.03-.052.042-.078l.412.255c2.19.991,3.948,3.814,3.948,10.406a25.959,25.959,0,0,1-.313,4.258c.047-.056.095-.112.143-.167.116.372.436.858.306,1.092m.6,3.553c-.068-.014-.118-.113-.177-.175.083-.033.17-.1.243-.087s.11.112.164.172c-.078.034-.162.1-.23.09m.21-18.879c-.07.017-.165.07-.206.042-.06-.04-.079-.137-.116-.211l.372-.083c-.017.084-.033.167-.05.251m2.159-.752.026-.167.16.11Zm3.8,18.9c-.02-.083-.077-.186-.048-.247s.143-.1.22-.15c.018.09.035.179.053.269l-.225.127m1-3.8q-.113.564-.226,1.126l.224-.088s-.178.117-.185.12-.039-.032-.039-.032l.033.035-.94.7c0-.42-.151-.933.038-1.236s.716-.425,1.095-.625m-1.365-8.8c.133.109.149.36.214.549l-.388.332-.348-.739c.18-.055.441-.208.522-.142" transform="translate(-188.259 -14.493)" fill="#1a1311"/>
    <path id="パス_72005" data-name="パス 72005" d="M522.372,147.522c-.6.935-1.084,1.7-1.57,2.456-.363-.329-1.082-.879-1.036-.954a13.149,13.149,0,0,1,1.293-1.709H484.07l.351.468c-.1-.055-.244-.088-.278-.17a1.521,1.521,0,0,1-.085-.3H441.769l-.251.061c0-.021,0-.041-.007-.061H430.552l.318.343a2.884,2.884,0,0,1-.469.214c-.043.012-.2-.16-.182-.189a2.383,2.383,0,0,1,.25-.368H78.714c-.129.179-.278.386-.42.61l-.36-.61H68.359c-.129.2-.26.4-.384.606a4.343,4.343,0,0,1-.694-.478c.02-.043.045-.085.065-.129H47.181l-.78.257-.016.01c0,.063.008.126.013.189q.121.64.242,1.278l-.15.008-.03-.18.018.017-.081-1.123c-.011-.058-.022-.116-.033-.174l.006-.006-.006,0,.019-.018.016,0c.076-.049.153-.1.228-.148l.163-.109H29.09l-.174.359-.533-.359H18.725l-.262.247,0-.007c-.045-.01-.088-.017-.132-.025a.506.506,0,0,1-.124.065c-.023.007-.072-.071-.109-.109.077.013.155.029.233.044.028-.019.056-.038.084-.056l.167-.159h-5.1l.026.093-.2-.023.036-.071H5.015c.237.04.4.3.4,1.04,0,.491-.821.988-1.263,1.483q-.462-1-.923-1.994a.439.439,0,0,1-.114-.105l-.182.114a1.854,1.854,0,0,0,.126-.188l-.006-.008.113.051.064.137c.423.256,1.139-.455,1.637-.528H0v2.958H11.331c.049-.166.1-.332.145-.5l-.029-.093H11.5l.114.181-.126-.138c-.006.018-.01.035-.015.052.052.167.1.333.155.5H28.382c-.028-.045-.049-.084-.042-.09a1.74,1.74,0,0,1,.281-.172c.01.085.048.182.02.253,0,0-.008.006-.011.009h1.781c-.046-.171-.091-.342-.138-.513l-.143-.029,1.642-1.065-.189-.152c.061.01.121.02.184.024,0-.006,0,.128,0,.128l0-.134a8.119,8.119,0,0,1,.661,1.741H54.318a3.4,3.4,0,0,1,.74-1,4.32,4.32,0,0,1,.641.44l-.391.559H165.144c.138-.15.28-.368.406-.36a2.794,2.794,0,0,1,.808.331c-.008.009-.015.019-.023.028H316.8l-.136-1.436,0,0c-.154.129-.309.256-.463.383q.231-.195.464-.388v.01l.738,1.436h15.9l0-.018.045.018H466.3c.106-.209.242-.414.352-.622l1.016.622h42.792c-.1-.124-.158-.233-.128-.3a11.493,11.493,0,0,1,1.037-1.68l.628.558-.807,1.426h13.836v-2.958h-2.948c.1.073.2.145.289.207M7.35,149.278c-.083-.042-.127-.158-.187-.243l.413-.2c0,.1,0,.209,0,.314-.076.046-.186.148-.23.126m22.787.456c-.006,0,.137.026.137.026l-.166.1a1.164,1.164,0,0,0,.029-.131m14.224-1.184c-.046-.038-.093-.076-.144-.113l-.016,0,.062-.108.2.19-.132-.042.033.078m80.042.417a.781.781,0,0,1-.066-.282c.006-.038.143-.058.222-.086l.076.283-.232.085m14.038,1.233c-.076-.029-.216-.058-.216-.086a.933.933,0,0,1,.085-.272l.232.085c-.034.091-.068.182-.1.273m5.166.031c-.266-.621-.595-1.034-.5-1.238a1.357,1.357,0,0,1,.927-.539c.135-.023.545.5.492.649-.115.329-.451.581-.923,1.127m7.284-1.149-.323-.27c.085-.049.171-.134.256-.134.064,0,.129.109.192.17ZM297.1,147.839c-.023,0-.042-.119-.062-.184a.931.931,0,0,1,.252-.056c.023,0,.042.119.064.184a.916.916,0,0,1-.254.057m134.581,1.2-.318.012.149-.165.013-.006.814.1-.807-.09.148.152m46.153-.485a1.412,1.412,0,0,1-.226-.351c-.017-.059.1-.158.162-.239l.124.285-.059.305m4.008,1.31c-.12-.032-.181-.289-.268-.446l.5-.257c.088.166.177.331.264.5-.167.077-.357.242-.493.206m4.361-2.043.034-.174.153.119Zm3.432.3c-.075-.057-.218-.128-.21-.17a2.728,2.728,0,0,1,.172-.468c.078.05.232.119.225.147a3.63,3.63,0,0,1-.187.491m10.548.741a6.974,6.974,0,0,1-1.188-.834c.554-.255.928-.526,1.018-.451a5.869,5.869,0,0,1,.8.985c-.215.109-.487.359-.634.3" transform="translate(0 -43.254)" fill="#1a1311"/>
    <path id="パス_72006" data-name="パス 72006" d="M443.109,267.05a.811.811,0,0,1-.072-.094l.066.095h.006" transform="translate(-130.083 -78.383)" fill="#1a1311"/>
    <path id="パス_72007" data-name="パス 72007" d="M453.608,263.458c.069.281.171.555.258.832l-.26.05c-.047-.295-.109-.588-.137-.884,0-.007,0-.014,0-.02-.492-.078-.891-.137-1.181-.173-.162-.024-.311-.049-.464-.074l-.114.036c0-.018-.01-.037-.014-.056a7.535,7.535,0,0,1-3.354-1.064,2.969,2.969,0,0,1-.737-2.263v-3l.292-28.083c-.033.011-.071.02-.1.031a.828.828,0,0,1-.061-.232c0-.022.1-.043.163-.064l.074-7.173-.053-5,.106-7.946q.052-4.894.1-5.631.052-1.368.053-1.632a22.374,22.374,0,0,0-.211-2.473l-3.315-.053-1.684-.052q-3.315.107-3.579.105a50.315,50.315,0,0,1-3.845,4.382c.057.134.114.269.17.4l.071-.039a.98.98,0,0,0-.036.12l0,.008-.117-.029-.021-.006-.135-.393c-.083.08-.167.163-.247.237a74.3,74.3,0,0,1-7.156,5.789,84.734,84.734,0,0,1-7.577,4.262,21.435,21.435,0,0,0,2.157,3.788q4.21-1.84,4.737-2.157a89.885,89.885,0,0,0,8.525-5.578q.052,2.578.052,4.367,0,1.844-.052,2.947l-.158,1.632.158,3.578-.106,1.316q-.052.789-.052,1.579c0,.36.052,1.4.154,3.117l.8-.971,1.122.965c-.641.613-1.282,1.226-1.933,1.827l-.148,2.114c.054,1.218.094,2.181.12,2.9.2-.276.4-.6.571-.584.388.04.743.407,1.413.826-.732.365-1.012.627-1.193.57a2.747,2.747,0,0,1-.78-.486c.018.5.027.856.027,1.041q0,1.105-.106,2.525-.1,2.737-.1,3.158l.052,2.052.037,5.639.283-.2c.006-.059.011-.118.016-.176l.1.093-.116.083c-.018.194-.036.388-.055.583l.077.049.1.186.745.38-.343.383-.4-.763-.191-.1.093-.089-.09.085c0-.046.008-.09.013-.135l-.227-.145.013,2.123-.21,3.894.052,3.579a2.559,2.559,0,0,1-.868,2.025q-.868.764-4.71,1.553-2.789.579-4.893,1.157c-.07.759-.1,1.329-.105,1.714l.312-.138.487-.224h.023l.4.3-.411-.294-.494.219-.312.143v.017q0,.633.106,1.789,1.631-.158,2.157-.158l1.057.042c-.158-.117-.314-.235-.473-.351l-.018-.008h0l0-.006.089-1.112c.047.072.143.153.131.215-.057.3-.142.6-.216.9l.018.014.874.367,1.172.047,1.421-.105,1.527.105h.947c.386,0,.876-.017,1.474-.053q8.05-.262,9.314-.263c.162,0,.358,0,.586.009.531-.276,1.062-.554,1.6-.827.19-.059.384-.114.575-.171.264-.1.528-.206.791-.309l.02-.014-.231-.218-.062.016c0-.256.006-.514.01-.771l.057.017.227-1.122c.343.218.913.376.985.663a19.971,19.971,0,0,1,.346,2.667l-1.262-1.186-.09-.051s.09.052.083.049c-.3.085-.583.173-.874.261-.185.072-.369.145-.556.217,0,0-.013-.031-.017-.041l.014.036a6.009,6.009,0,0,1-.141.846c.479.023,1.019.053,1.628.089q4.419.211,6.735.21h2.263c.047-.87.078-1.531.094-1.991a.8.8,0,0,1-.1-.278c0-.033.045-.07.107-.108,0-.054,0-.105,0-.148a5.131,5.131,0,0,0-.106-1q-2.352-.424-3.73-.646m-19.779-53.179c-.1-.132-.279-.268-.271-.394.01-.174.162-.34.254-.51q.121.18.24.362l-.223.542m.322-.781-.15-.109.177-.053Zm3.115,15.143-.008.1-.059-.081-.1.021.017-.134q.129-.173.26-.344.1.189.2.377l-.313.066m-9.805,40.205.107-.054.033.1.023.143s-.02-.08-.035-.147Zm6.312,1.132a3.181,3.181,0,0,1-.159-.532c-.007-.051.141-.122.218-.184a3,3,0,0,1,.155.528c.006.053-.138.125-.214.189m1.909,1.033q-.164-1.176-.328-2.352a4.608,4.608,0,0,1,.592-.011c.1.772.173,1.548.247,2.325l-.511.038m1.031-7.071c-.132.581-.347,1.143-.529,1.713-.143-.255-.432-.529-.4-.761a21.062,21.062,0,0,1,.665-2.416,6.133,6.133,0,0,1,.266,1.464m9.013-24.213.093.068-.079.153-.007-.121-.126.046s.117-.129.119-.139Zm-.98-11.946c-.172-.244-.54-.579-.478-.717a7.137,7.137,0,0,1,.866-1.218l.644,1.046-1.033.889m-.5-2.946-.781-.237c.461-1.451.915-2.9,1.4-4.345.024-.072.34-.046.521-.065l-1.144,4.647m.107-14.857.07-.077.1-.144q.048-.577.095-1.155l.49.323-.585.832-.019.232,0,0-.15-.008-.33.362c-.044-.129-.088-.256-.133-.385l.463.023m-.584,7.526a1.729,1.729,0,0,1-.292-.03,1.566,1.566,0,0,1-.254-.115.8.8,0,0,1,.288-.031.955.955,0,0,1,.257.177m-3.038,31.113c-.041.016-.085.028-.128.041l-.114.25c0-.066-.035-.167-.006-.191a.378.378,0,0,1,.119-.059l.052-.112c.625-.3,1.25-.61,1.869-.914l.031-.018c0-.015.01-.03.014-.045q.087-.77.172-1.541l.3.06c-.153.494-.307.988-.468,1.481l0,.043s-.017,0-.011,0l-.03.015c-.6.327-1.2.656-1.793.983l-.076-.069.076.071m.45-13.99-.843-.684c.182-.081.4-.267.538-.223.662.2,1.3.474,1.953.721l-1.648.186m1.548,4.05a10.311,10.311,0,0,1-1.379,1.312c-.046.037-.425-.349-.649-.539l1.721-1.413c.118.237.366.571.307.64m-2.077,7.989a2.472,2.472,0,0,0,.768.192c.078-.019.155-.033.233-.049l-.081-.07c.065.017.129.034.2.047l.016,0-.008.133c-.117-.024-.237-.041-.356-.058a1.587,1.587,0,0,1-.815.062,4.114,4.114,0,0,1-1.139-.814c-.025-.02.057-.174.09-.266a7.283,7.283,0,0,0,1.1.826m2.325-1.32a.939.939,0,0,1,.109-.244c.014-.018.128.043.195.068l-.083.253-.221-.077m.071-41.607.263.4-.294-.257Zm-1.189,5.646c.031.025.06.053.09.08l.307.028c-.064.019-.138.069-.189.051a.383.383,0,0,1-.118-.078l-.147-.013.008-.01c-.035-.214-.078-.42-.121-.625l.17.568m.223,22.566c0,.029-.157.073-.241.11a4.5,4.5,0,0,1-.119-.557c0-.028.162-.072.249-.108a4.58,4.58,0,0,1,.112.555m-1.494-.611c.715.393,1.411.821,2.107,1.248l.254.052h.009l.05.136-.165-.08.018-.01-.166-.1-2.581-.535c.164-.249.453-.725.474-.713m-1.275,8.848c-.054.008-.135-.153-.2-.236a3.659,3.659,0,0,1,.578-.2c.049-.008.129.158.2.244a3.361,3.361,0,0,1-.569.188m-.975-20.147a.52.52,0,0,1,.143.048l.167-.011-.006.01c0,.414,0,.82,0,1.216-.006-.009-.054-.081-.063-.09,0-.362.016-.714.028-1.067-.042-.018-.083-.04-.124-.059l-.334.022c.064-.025.131-.078.191-.07m.285,15.713,1.165.658a5,5,0,0,1-1.228.286c-.2,0-.4-.347-.605-.537l.668-.407m-.947,3.776-.126.179-.147.024-.013-.139c.037.021.071.046.107.069l.179-.133m-.589,20.318.016-.018-.067.025.158-.149.069.065Zm1.587-2.525-.094-.19.174-.006Zm1.8,12.567a1.112,1.112,0,0,1-.4.268l.086.143c-.057-.033-.113-.066-.174-.1l-.006,0,.048-.126a.783.783,0,0,1,.646-.8,2.007,2.007,0,0,1-.2.6m1.052-7.778c.129.22.385.624.372.633-.5.341-1.022.648-1.542.957l-.022.029.144.134-.164-.1v-.01l0,.006.013-.041.032-.019,1.17-1.59m-.78-6.015.357.119a1,1,0,0,1-.3.057c-.028,0-.039-.114-.057-.176m-.358,11.515.132.258-.3-.018.165-.239m.99-3.588.2.069-.192.084Zm.75,2.394c-.237-.019-.455-.265-.681-.412.148-.126.3-.357.443-.355a4.549,4.549,0,0,1,1.021.288c-.372.242-.588.5-.783.48m.273-3.281.463-.045-.2.3.023.016-.054.031c-.027.09-.029.211-.089.258s-.171,0-.261,0c.02-.173.042-.346.062-.52l.056.039c0-.027,0-.054,0-.078m.261-3.1-.121.039.159-.448.23.143-.267.266m.576,4.506.127-.244.081.261ZM444,247.386c-1.574,1.1-3.165,2.186-4.789,3.212-.136.085-.728-.223-.828-.463-.557-1.344-.547-1.384-2.176-1,0,.04-.008.079-.011.118l-.1-.092.111-.026.21-2.265.2,0c-.04.032-.08.065-.126.1.7-.057,1.394-.11,2.091-.167l.028-.012,0,.01c1.733-.143,3.464-.289,5.2-.418a3.973,3.973,0,0,1,.9.142,4.067,4.067,0,0,1-.708.872m.725-15.364-.489-.3a10.233,10.233,0,0,1,.671-.979c.03-.035.339.163.519.254l-.7,1.025m1.03,22.766a1.63,1.63,0,0,1-.254-.328c-.018-.04.1-.143.162-.218l.149.252c-.019.1-.037.2-.057.293m-.033-4.219-.268-.282c.071-.042.148-.124.211-.113s.109.113.163.175Zm.4-17.686-.319-.3c.083-.05.166-.138.25-.138.064,0,.129.108.194.168l-.125.268m-.339-4.676.184-.011-.08.216Zm.3-17.977c-.093-.211-.26-.427-.245-.629.008-.107.334-.191.516-.286l.193.574-.464.342m.384-2.559a.8.8,0,0,1-.27-.072c.028-.076.051-.211.085-.213a.782.782,0,0,1,.269.073c-.028.075-.051.211-.084.213m.562,46.161.056-.119.033.144h.006a1.151,1.151,0,0,1,.087.091l-.182-.118m.312-17.078-.083-.081.083.082c-.05.009-.1.015-.153.024l-.133.2c.012-.061.006-.155.04-.174a.311.311,0,0,1,.093-.027l.07-.106.061-.214q-.055-.75-.111-1.5l.545-.037-.434,1.536c.007.1.014.2.022.3" transform="translate(-123.467 -58.293)" fill="#1a1311"/>
    <path id="パス_72008" data-name="パス 72008" d="M341.748,248.522q-1.053,0-2.684.158a26.765,26.765,0,0,1-5.946,9.893c-.187.191-.38.372-.574.549l.01.167-.136-.049a12.163,12.163,0,0,1-5.51,2.859c-.167.037-.343.068-.513.1-.1.126-.227.226-.316.224a.648.648,0,0,1-.28-.106c-1.073.2-2.217.36-3.424.492-.117.3-.239.612-.371.954-.247-.348-.48-.629-.653-.85q-2.876.26-6.223.283c-.445.369-.945.731-1.863,1.41.181-.652.177-.817.258-.9.17-.174.35-.338.526-.506q-10.647-.022-12.767-1.1a2.8,2.8,0,0,1-1.421-2.737l0-.5a1.562,1.562,0,0,1-.163-.319c-.021-.064.085-.169.133-.255l.035.03.1-10.321q-.211-4.157-.211-10.419v-1.79q4.007-.42,11.971-.42,6.75,0,7.806.368a3.825,3.825,0,0,1,2.109,1.421q.843,1.211,1.9,6.1.58,2.631.791,3.473h3.736v-1.158q0-1.526-.158-4.657t-.158-4.551q0-.9.079-2.474c.018-.376.034-.927.046-1.639l-.134.036.022-.158.114.061q.031-1.916.031-5.4,0-2.42-.21-7.1l-3.052-.054-.684.054q-.466,2.237-.829,3.843c.322-.1.645-.2.966-.3.076.3.291.663.192.883-.126.28-.493.467-.783.653-.255.164-.516.316-.774.475-.2.826-.369,1.446-.5,1.85l.007-.012.065.225-.138-.018c-.018.05-.036.1-.052.138a5.429,5.429,0,0,1-1.688,2.289,2.532,2.532,0,0,1-.516.252c-.018.146-.035.293-.052.44.03.049.064.087.093.138l-.1-.065c0-.025.006-.049.008-.073a4.105,4.105,0,0,0-.229-.342,21.671,21.671,0,0,1-4.16.675q-4.008.37-13.448.369l-.129,0-.224.236c-.027-.078-.076-.208-.083-.242-.537-.018-1.146-.066-1.832-.149V225.88l-.032-.006.032-.047v-1.51l-.047-7.945c-.039.1-.078.208-.115.312-.629-.269-1.27-.516-1.884-.816a9.557,9.557,0,0,1-1.041-.651l-.03.049a7.013,7.013,0,0,1-1.413.689,2.8,2.8,0,0,1-1.1-.206c.1-.278.127-.661.326-.817,1.075-.835,2.193-1.615,3.3-2.412a11.95,11.95,0,0,0,1.832-1.335c.045-.049.09-.094.136-.141.021-3.319.07-5.3.146-5.936l.086,0a.126.126,0,0,1,.006-.037c.265-.5.567-.988.966-1.666,0,.474.1.816-.022,1.029a3.649,3.649,0,0,1-.521.657q4.863-.189,10.957-.191c.367,0,.72.008,1.082.011-.04-.054-.084-.105-.125-.159.086-.035.222-.123.25-.1a1.464,1.464,0,0,1,.2.259c3.221.031,6.267.163,9.114.408q2.684.211,3.211.263a14.173,14.173,0,0,1,3.367.42,24.327,24.327,0,0,1,3.368,4.842l2.1,3.736q.789,2.052,1.263,3.1,1.367.106,1.789.106l2.158-.106c.034-.42.052-.737.052-.947l-.105-2.158V203.74a4.091,4.091,0,0,0-.947-2.841,82.564,82.564,0,0,0-9.472-.79l-9.524.105q-6.1,0-13.138.2l.011.061-.237-.031.023-.025q-3.8.107-7.867.271-7.842.316-9.735.315a70.528,70.528,0,0,1-9.629-.579q-2.21-.316-5.21-.473l-.264,4.209q1.315.158,2.316.211a34.461,34.461,0,0,1,5.789.737q1,.211,1.578.316a2.573,2.573,0,0,1,1.579.737,10.085,10.085,0,0,1,.105,1.052l.474,6.526-.053,5.946.263,8.419-.053,5.946.026,3.283,2.782,2.188c-.239.291-.453.8-.725.832a11.15,11.15,0,0,1-2.033-.053l.107,13.588-.052,1.632q.052,2.157.052,3.052a10.945,10.945,0,0,1-.579,3.842q-2.105,1.053-7.577,1.684a32.688,32.688,0,0,0-4,.579v3.631l6.372-.211h2.212c1.871-.107,3.642-.195,5.335-.269.255-.312.514-.62.793-.91.088-.092.635.257,1.4.587l-.263.243c3.076-.117,5.84-.177,8.272-.177q11.129,0,19.424.283c-.068-.132-.118-.239-.1-.25a5.688,5.688,0,0,1,.8-.434l-.267-.268c.078-.054.163-.158.235-.149s.122.133.182.208l-.089.179.195-.095.244.611-.355.229c.481.018.968.035,1.434.054q12.8.527,15.747.526,2,0,5.424-.158l.934-6,.652-3.383c-.429-.213-.916-.463-1.543-.779.8-.427,1.227-.8,1.364-.708s.277.19.41.293l.516-2.676-1.426-.321.331-.773,1.172.7.441-2.293.311-1.579q.1-.894.259-2.21-1.158-.052-1.736-.052m-15.656-6.338-.111.411,0-.006c-.093,0-.182.009-.271.016l.213-.1.173-.321q.18-.663.359-1.327l.312.086-.67,1.24m.522-14.811.885.812-.592.875.89.745q-.107.224-.215.446a10.731,10.731,0,0,1-.9-.783c-.018-.019,0-.068.018-.126-.138-.279-.376-.557-.379-.838a4.343,4.343,0,0,1,.292-1.131m-.388,7.35c.071.348-.221.769-.365,1.18l-1.5-1.14c.319-.208.632-.569.958-.581s.858.295.908.541m-2.065-7.565.1,0c0-.047,0-.095-.007-.142.114,0,.23-.013.344-.018l.839-.245a.83.83,0,0,1-.03.2c-.269.02-.54.031-.81.044l-.28.081.009.009c-.009.025-.018.048-.026.072h.008l-.015.018c-.01.026-.019.053-.029.08.007.155.015.31.023.465-.051-.042-.153-.1-.146-.124.035-.114.081-.227.124-.341l0-.045-.416.471-.212-.488.526-.044m-5.76,6.015-.091.263-.2-.089.295-.174m16.466-26.98.136-.364.254.222-.39.142-.039.1-.081-.061.119-.044m-1.293.9a.445.445,0,0,1,.107-.032l.113-.111s.079.074.076.075-.076-.075-.073-.076c.319-.239.635-.478.951-.716,0,0,.081.061.076.059-.321.244-.639.489-.954.733-.064.013-.127.023-.189.036l-.22.215c.037-.063.059-.155.114-.183m-2.14-2.658.31.328a3.333,3.333,0,0,1-.518.195c-.042.009-.179-.2-.17-.211a4.243,4.243,0,0,1,.378-.312m-32.994,1.817a2.726,2.726,0,0,1,.353.333c.017.022-.109.225-.172.227a2.841,2.841,0,0,1-.542-.088c.119-.158.239-.314.36-.472m-19.57-4.2c-.074.07-.366-.093-.557-.149l.623-.99.721.179a8.366,8.366,0,0,1-.787.959m8.352,64.339-.249-.058a1.528,1.528,0,0,1,.313-.208c.035-.014.12.1.182.158l-.246.108m.5-18.822c.008-.021.016-.043.025-.065a.186.186,0,0,1-.02,0c0-.011.059-.1.059-.1l-.057.09a1.68,1.68,0,0,1-.143.293c-.422.557-.845,1.115-1.3,1.649-.023.028-.3-.16-.461-.247.509-.449,1.021-.9,1.526-1.349.152-.136.287-.29.429-.436l-.038.1a.347.347,0,0,0,.075-.008l-.1.073m9.042-27.854a.049.049,0,0,1,.016-.007l0-.008.047-.007c0,.04-.008.078-.012.118q.226.706.452,1.412l-.6.069.153-1.481-.025-.08a1.712,1.712,0,0,1-.137.14c-.018.016-.06,0-.091,0,.064-.049.126-.1.2-.16m-3.511-6.86c-.144-.04-.234-.276-.347-.425a3.729,3.729,0,0,1,.855-.1c.114.011.2.271.4.547a3.75,3.75,0,0,1-.9-.02m-.04.606a3.285,3.285,0,0,1-.675.439c-.078.028-.258-.221-.391-.344l.57-.5.5.4m4.529-6.866-.17.077-.033-.131Zm-1.054,2.277c.01.061.021.119.032.179a.485.485,0,0,1,.071.076c.02.03-.02.1-.032.153-.014-.076-.026-.153-.04-.229-.037-.034-.078-.066-.116-.1l.084-.078m-4.408-.968c.939-1.028,1.945-1.994,2.931-2.979.007-.035.013-.071.02-.105,0-.019,0-.035.007-.057h0v-.008l.146,0-.177.176a36.12,36.12,0,0,1-.829,3.895,1.892,1.892,0,0,1-1.332.92c-.435.075-.951-.313-1.43-.5a5.315,5.315,0,0,1,.66-1.34m-.2,19.95-.143.227-.059-.268Zm-2.674-22.01c.126-.086.537.244,1.238.593a14.962,14.962,0,0,1-1.917,1.473c-.121.065-.564-.468-.858-.725a15.116,15.116,0,0,1,1.538-1.34m-2-1.992.152-.164-.076-.115a1.189,1.189,0,0,0,.143.042l0,0-.029.144-.195.1-.55.6-.174-.232Zm-2.936,1.654-.214-.143.244-.08Zm.373-.821.129-.2.076.225Zm.1,8.026.117-.174.076.2Zm.948,9.158a2.227,2.227,0,0,1-.206-.643c0-.061.328-.133.506-.2.046.15.092.3.139.454-.146.132-.292.261-.439.391m.314-6.517a2.66,2.66,0,0,1,.763-.321c.042.182.084.363.143.617l-.772.31c-.051-.21-.206-.546-.133-.607m.314,20.138-.15.02c0-.052-.011-.1-.017-.157.04.028.078.058.117.088l.216-.147-.166.195m.689-4.071-.083-.09.078.084c-.162.057-.319.118-.477.18l.4-.264.186-.042Zm.846,19.459c.036-.1.346-.105.533-.153.04.178.081.356.122.544l-.542.2c-.047-.2-.17-.427-.113-.591m-.108-15.928.112-.143.042.177Zm1.2,30.569-.229.05c-.014-.088-.028-.175-.042-.263l.392-.031Zm-.032-5.862c-.182-.064-.514-.116-.519-.191a4.453,4.453,0,0,1,.111-.928c.261.13.6.215.6.317a2.725,2.725,0,0,1-.2.8m-2.2-45.773a4.564,4.564,0,0,1,1.074-.8,3.886,3.886,0,0,1,1.276-.039c.29,0,.581.011.871.018v0l.088,0-.1,0c-.013,0-.141-.041-.141-.041l.242.046h-.089c-.157.145-.3.384-.473.416-.911.164-1.83.274-2.747.4m3.9,12.348-.06.078,0,0h0c-.006-.026-.014-.051-.02-.076-.117.013-.234.028-.351.045l.25-.405c.033.12.067.24.1.36h0c-.02-.1-.044-.2-.065-.3a1.6,1.6,0,0,0-.136-.231c-.232-.313-.489-.607-.737-.908a5.156,5.156,0,0,1,.5-.134c.13.352.23.715.327,1.079.017.064.028.13.043.195.048.1.093.194.143.29h0l0,0v0m1.568,21.3s.088-.194.094-.2a.652.652,0,0,1,.068.072l-.063-.073c-.343-.333-1.013-.723-.968-.992a16.487,16.487,0,0,1,.763-2.565c-.006-.083-.012-.167-.018-.249l-.03.023a1.02,1.02,0,0,1,.018-.122h.005v-.007h.147c-.038.119-.08.237-.121.355q.133,1.815.268,3.63Zm1.758-4.043-.176.006-1.126.31c.04-.091.073-.257.121-.261.334-.03.67-.038,1.005-.049l.158-.043-.072-.148s.109.122.113.129l0,.008.007,0Zm-.722-17.428c-.115.036-.362-.347-.548-.539.207-.191.388-.468.631-.545.16-.05.41.187.742.357-.379.356-.569.646-.825.726m1.046-7.734c-.066.148-.275.232-.421.343-.034-.169-.14-.37-.083-.5.068-.153.276-.243.43-.364.032.184.132.386.073.519m.71,10.6c-.184-.14-.547-.358-.526-.406a3.846,3.846,0,0,1,.63-1c.056-.062.4.129.751.257l-.855,1.151m3.341,33.444.024-.184.165.115Zm.086-3.209a2.612,2.612,0,0,1-.217-.506c-.013-.063.129-.159.2-.239.088.179.176.357.263.535l-.247.21m.569-34.782-.021-.026c-.4.187-.8.374-1.211.551,0,.011,0,.023,0,.034l-.03-.011c-.438-.048-.862-.088-1.285-.128l-.117-.4-.63-1.055.29-.1q.171.58.34,1.158l.2.336.008-.006c.4.065.8.136,1.177.2l.048-.022q.042-.979.085-1.957l1.125,1.406,0,0-.075-.128.115.105,0,.006.006,0Zm2.186,38.1-.155-.123.191-.117Zm7.008,2.765c-.089.009-.188-.076-.283-.121l.312-.329.159.243c-.062.073-.119.2-.188.206m6.7-.183-.215-.132.232-.1Zm16.776-1.146c-.1,0-.212.163-.32.307,0,.009,0,.019,0,.029v0h0v.006l-.092.072c.006-.076.014-.153.021-.228.02.04.041.082.061.126l.008-.01c0-.418-.116-.91.068-1.222.553-.942,1.236-1.807,1.868-2.7l.37.492c-1.055.784.441,3.192-1.986,3.125m4.379-4.981-1.274.064c.427-.042.855-.083,1.284-.119a.483.483,0,0,1-.01.055" transform="translate(-80.18 -58.709)" fill="#1a1311"/>
    <path id="パス_72009" data-name="パス 72009" d="M484.622,64.9l-.354.132q-.067-.184-.132-.368l-.5.13.463.711c.172-.2.348-.4.523-.605" transform="translate(-142.004 -18.986)" fill="#1a1311"/>
    <path id="パス_72010" data-name="パス 72010" d="M457.768,61.347c-.029-.251.59-.848.774-.8.444.121,1.074.47,1.161.838.09.384.167.771.237,1.161.807-.691,1.579-1.4,2.31-2.122l-2.056.566c-.019-.2-.037-.4-.057-.6l2.243-.1a35.716,35.716,0,0,0,5.737-7.436,54.961,54.961,0,0,0,3.843-7.5c.351-1.033.658-2.052.942-3.062a1.992,1.992,0,0,0-.183-.087l.341-.474A44.351,44.351,0,0,0,474.7,30.2q0-14.417-6.657-22.049a24.277,24.277,0,0,0-3.424-3.246c-.028.08-.055.161-.083.239l-.688-.187c.081-.148.154-.3.236-.448A20.607,20.607,0,0,0,453.74.634a.77.77,0,0,1,.145.134c.035.045-.028.244-.058.248a2.055,2.055,0,0,1-.418-.035l.1-.364c-.7-.06-1.4-.1-2.123-.1a21.937,21.937,0,0,0-6.045.841c.138.14.286.288.462.445-.672.367-1.1.794-1.416.721a1.348,1.348,0,0,1-.7-.622,22.329,22.329,0,0,0-2.851,1.3,18.9,18.9,0,0,0-7.736,8.025,24.5,24.5,0,0,0-2.815,11.6,31.092,31.092,0,0,0,.478,5.361c.206-.169.414-.338.617-.506l.038-.008a3.5,3.5,0,0,1,.259-1.366c.231-.368.77-.543,1.173-.8.052.585.327,1.3.085,1.714-.2.334-.977.324-1.517.454,0,.027,0,.056-.008.083l-.03-.075s.03.075.03.078c-.218.153-.429.3-.642.456.143.819.309,1.637.518,2.452.074.278.167.543.253.812.208-.2.422-.4.632-.6.149.191.465.477.419.56a8.382,8.382,0,0,1-.714,1.009,15.775,15.775,0,0,0,1.809,3.451,19.782,19.782,0,0,0,4.667,4.5,30.935,30.935,0,0,0,6.169,2.684,13.292,13.292,0,0,0,3.11.211,20.751,20.751,0,0,0,7.33-1.264,2.442,2.442,0,0,0,1.582-2.578,2.611,2.611,0,0,0-.528-1.763,1.535,1.535,0,0,0-1.162-.6l-.22.044c-.048.083-.1.168-.141.249l-.272-.166-.16.032a9.691,9.691,0,0,1-2.746.42,9.362,9.362,0,0,1-4.121-1,5.656,5.656,0,0,1-1.8-2.053,13.935,13.935,0,0,1-1.9-5.314,65.314,65.314,0,0,1-.634-9.367q0-8.1,3.22-12.472a6.985,6.985,0,0,1,5.752-3.209q3.64,0,6.122,3.736a13.16,13.16,0,0,1,1.262,2.574l0-.114.282.1-.242.108q1.971,5.342,1.974,15.748a56.329,56.329,0,0,1-.317,6.473q-.42,3.63-.475,4.577a44.017,44.017,0,0,1-1.239,7.762,29.191,29.191,0,0,1-3.823,9.156,27.1,27.1,0,0,1-6.643,7.209,38.654,38.654,0,0,1-9.439,5.077,10.994,10.994,0,0,0-3.059,1.421,1.917,1.917,0,0,0-.527,1.421,3.065,3.065,0,0,0,.842,1.947c.549.043,1.005.072,1.389.088.075-.107.149-.213.22-.321l.4.338a30.691,30.691,0,0,0,9.722-2.105,35.2,35.2,0,0,0,8.7-4.579,5.31,5.31,0,0,0,.793-3.53M433.071,13.6a.94.94,0,0,1,.081-.271c.067.03.191.059.191.091a.925.925,0,0,1-.076.269c-.069-.03-.2-.06-.2-.09m1.366,2.337-.011.013-.048-.01-1.112.05.023-.288,1.089.238.044,0-.245-.812c.078.085.2.159.223.258a2.914,2.914,0,0,1,.037.549l0,0Zm.348-5.229a1.841,1.841,0,0,1-.511-1c-.031-.161.287-.389.6-.773l.769,1.611c-.295.065-.721.28-.855.162m.91,3.308a5.4,5.4,0,0,1-.531-1.054c-.051-.188.159-.446.251-.673.234.336.468.671.788,1.13l-.509.6m4.786,4.179c-.066.125-.131.25-.2.377a.715.715,0,0,1-.084-.03l.288-.347m-1.463,4.241-.209-.139.235-.09Zm1.243,8.942.093.23-.216-.014Zm.066,1.729a2.179,2.179,0,0,1-.174-.449c-.01-.063.114-.147.178-.221l.326.3-.33.369m9.866,7.632.121-.048.008.122c.025.013.051.028.076.04l-.072.019c.017.238.035.475.052.713q-.091-.419-.183-.838h0l0,0ZM445.8,35.451l-.028.182-.175-.12Zm-4.374-4.828.47.134-.523-.062.054-.072m.39,4.526-.249.167q-.087-.246-.175-.492l.505.016-.081.309m.307-12.839c-.006-.095-.01-.189-.015-.285-.028-.026-.057-.052-.084-.078l.077-.058c0,.046,0,.09.007.136a.461.461,0,0,1,.1.121c.016.03-.056.107-.088.164m.368-4.935.076.093-.076-.093m.085-.422c-.082.025-.242-.206-.379-.333.129-.123.247-.327.386-.342.119-.013.26.191.392.3-.131.134-.243.327-.4.375m1.56-9.71.1-.15.066.168Zm3.3-2.3c-.345-.191-.7-.371-1.02-.592a1.84,1.84,0,0,1,.219-.472c.37.128.727.293,1.092.454l-.291.61m16.034,51.745-.155-.1.177-.057Zm9.286-37.275.22.472-.319.306a3.694,3.694,0,0,1-.069-.559c0-.074.109-.146.169-.218m-.805,3.174.138.26-.246.432c-.046-.088-.147-.192-.127-.259a2.229,2.229,0,0,1,.235-.433m-1.3-9.162.383-.178-.306.247.113.1c-.064-.013-.129-.027-.195-.035l-.006,0Zm.358,19.424-.023.157-.178-.1Zm-.353-9.776.11-.155.054.182Zm.47,14.553-.947.689c-.153-.218-.438-.466-.444-.651-.083.006-.167.016-.249.017-.1,0-.2-.21-.3-.324.294-.022.587-.049.879-.062.121-.074.254-.149.374-.237l.682.567M468,33.468l-1.155-.793a4.246,4.246,0,0,1,1.464-.384c.415.045.788.472,1.179.73L468,33.468m.069,3.993c-.083-.081-.2-.148-.239-.246-.03-.079.037-.2.061-.3l.159.236.019.305m.474-12.375-.141-.006-.064-.114-.007,0h0l-.125-.223.209.217.147-.009-.088.071.065.067m.752-3.718a2.6,2.6,0,0,1,.331.275c.016.018-.082.14-.127.213l-.36-.243.156-.246m-.9-9.889.087.018h0l.093.174-.175-.093c0-.037,0-.065-.006-.1l-1.642-.346c-.011,0-.023.011-.035.014l-.054-.033a.881.881,0,0,1,.073.05c0,.046,0,.088.01.133.092.2.186.392.268.593a1.553,1.553,0,0,1-.215.127c-.012-.235-.03-.475-.053-.72-.029-.06-.055-.122-.083-.183l.088.019c.637-.235,1.572-1.628,1.642.346m-1.519,14.436a2.408,2.408,0,0,1,.262.769c0,.141-.278.281-.429.422l-.655-.731.822-.46m-1.328,2.4c.21.485.408.942.6,1.4a2.384,2.384,0,0,1-.494.086,6.658,6.658,0,0,1-.333-1.137c-.019-.1.141-.229.222-.348m-.7,10.936.047.138.066-.049s-.043.117-.043.117l-.023-.067-.118.09c.024-.076.047-.153.071-.228m-.049,2.905c.15.223.431.454.417.667-.016.244-.29.471-.509.785-.266-.285-.662-.6-.618-.683a3.628,3.628,0,0,1,.709-.769m.415,3.159-.01.208-.223-.114Zm.855.547c.458-.174.712-.885,1.044-1.391-.012,0-.023-.006-.035-.011h0l.02-.09-1.378-.683,1.791-1.125q-.206.9-.413,1.808l.06.03c-.016.023-.03.048-.046.071,1.291.514,2.053.064,2.481-1.261.078-.239.723-.3,1.106-.435q-.42.551-.835,1.1l0,.012c.354.675,1.135,1.76.968,1.934a17.124,17.124,0,0,1-3.3,2.6,1.835,1.835,0,0,1-1.551-.2,30.38,30.38,0,0,1-2.616-2,11.211,11.211,0,0,0,2.705-.365M463.2,43.58c-.142-.088-.179-.345-.261-.53.183-.067.437-.24.533-.177.146.1.182.359.266.553-.191.062-.434.219-.538.154M463.641,41c0,.027-.131.069-.2.1a4.26,4.26,0,0,1-.1-.51c0-.03.124-.073.191-.109a4.715,4.715,0,0,1,.111.515M463.4,14.328l.082.238-.229-.034Zm-.637,25.151-.12.057,0-.129c-.037-.02-.073-.042-.112-.061l.115-.033c0-.088.006-.177.009-.266l.5.145-.4.287m-.215-20.665.22.1-.3.28c-.042-.073-.129-.158-.113-.215s.125-.113.194-.168m-.279,13.372.059.207-.188-.035Zm-.044,2.357.131.277-.206.181c-.046-.083-.141-.174-.126-.244s.129-.143.2-.213m0,11.385c.065.143.131.285.195.429l-.206.194a3.345,3.345,0,0,1-.207-.464c-.009-.029.141-.105.218-.16m-3.04,7.889.261.084c-.008.071.009.182-.028.2a.835.835,0,0,1-.271.057l.038-.344M438.547,67.75l-.11-.226h.211Zm7.087,1.386.126-.195.075.22Zm2.53-5.386-.481-.6c.184-.07.375-.207.549-.187.114.013.2.252.3.391l-.369.4m.753-.254c-.019.018-.116-.041-.177-.065l.162-.355c.042.069.083.138.126.207a.752.752,0,0,1-.11.213M451.31,60.1c-.085-.16-.283-.4-.238-.463a3.982,3.982,0,0,1,.634-.569l.264.664-.66.368m5.424-4.3c.114.009.208.275.31.427q-.191.217-.382.432l-.492-.631c.189-.085.383-.243.564-.228" transform="translate(-126.338 -0.153)" fill="#1a1311"/>
    <path id="パス_72011" data-name="パス 72011" d="M573.3,200.12c0-.01-.006-.02-.009-.03l-.547-.213H562.261L539,232.039c.152.071.316.147.511.222-.525.3-.763.545-.985.533-.021,0-.042-.007-.064-.01L512.842,268.2a15.3,15.3,0,0,1,1.572.486l.052-.108,0,.083,2.48-1.136q.025,1.245.05,2.491l.119-.122-.164.176h5.927l9.878-13.706c-.124-.039-.248-.078-.369-.1.1-.278.127-.661.326-.816.5-.389,1.012-.764,1.524-1.137l1.2-1.666c0-.02-.01-.04-.013-.059-.013-.082.132-.188.265-.291l17.352-24.074c-.133.144-.289.291-.4.433a5.037,5.037,0,0,1-1.129-.97,3.592,3.592,0,0,0-.438-.587,8.923,8.923,0,0,0-.52.875l-.018.014c-.291-.042-.587-.064-.872-.129s-.555-.171-.831-.259c.033-.1.071-.287.1-.285a2.6,2.6,0,0,1,.874.109,3.649,3.649,0,0,1,.73.536c.016-.831.123-1.283.538-.862.013-.017.022-.037.035-.054.529-.661,1.093-1.294,1.642-1.938a22.857,22.857,0,0,1,.542,2.649.337.337,0,0,1-.037.166l17.153-23.8h0Zm-50.971,57.914-.025.183-.163-.115Zm-3.177,1.582a.7.7,0,0,1,.188.014l-.042-.117c.045.046.09.092.141.134l.011,0-.066.106-.288.049c.018-.066.033-.186.057-.188m-3.666,5.536a.642.642,0,0,1-.258.043c.022-.12.044-.24.065-.36l.24.1c-.013.075,0,.186-.046.217m1.075.382a11.792,11.792,0,0,1,1.29-1.131c.148-.1.5.1,1.13.258a18.931,18.931,0,0,1-1.759,1.185c-.13.068-.435-.2-.66-.312m3.124.1.952,2.044h-.658c-.066-.186-.13-.372-.2-.558l-.462.558H518l1.666-2.039a31.061,31.061,0,0,1,.992-3.584c.03-.078.162-.115.339-.136l-.185-.32a.752.752,0,0,1,.306-.038c.067.021.1.143.153.219l-.22.132c.336-.03.814,0,1.145-.037a11.134,11.134,0,0,0-.7.882c-.617.951-1.212,1.917-1.815,2.878l-.013,0Zm2.658,3.985c-.263-.251-.759-.523-.739-.749a5.924,5.924,0,0,1,.727-1.594c.444.531.906.882.848,1.055a5.784,5.784,0,0,1-.836,1.288m1.813-7.228a2.251,2.251,0,0,1-.206-.644c0-.061.328-.134.507-.2.046.15.092.3.139.454-.146.131-.292.261-.439.391m2.571-.889.109-.043,0,0c-1.9.41-2.883-.16-2.414-2.294l0,0h0l-.008,0-1.055.593a3.966,3.966,0,0,1,.492-.383,3.725,3.725,0,0,1,.563-.211l.008,0,.006,0v.007l2.414,2.294.028,0,.016-.006,0,0h0l.059.111-.213-.055m-.3-5.94-.584-.285a3.155,3.155,0,0,1,.588-.624c.092-.059.343.128.521.2l-.525.706m1.5-1.559c-.911.164-1.831.274-2.748.4a4.535,4.535,0,0,1,1.074-.8,3.885,3.885,0,0,1,1.276-.04c.29,0,.581.011.871.018h0l.088,0s-.088,0-.1-.006-.141-.041-.141-.041l.242.047-.09,0c-.157.145-.3.385-.472.417m1.875-.852q.333-.495.665-.99l-.006,0c-.28.121-.567.344-.839.327a3.058,3.058,0,0,1-1.1-.386c-.052-.026.039-.342.065-.523a8.372,8.372,0,0,1,1.11.181,4.106,4.106,0,0,1,.765.4l.011-.006h0l.007.016q-.159.575-.319,1.151l-.359-.167m1,1.27c-.078.029-.258-.221-.391-.343l.57-.5.5.4a3.24,3.24,0,0,1-.675.439m1.845-5.08a1.888,1.888,0,0,1-1.331.92c-.436.076-.952-.313-1.431-.5a5.319,5.319,0,0,1,.66-1.341c.94-1.028,1.945-1.993,2.932-2.979.006-.035.013-.07.02-.105a.473.473,0,0,1,.006-.057h0v-.008l.145-.006-.177.176a36.055,36.055,0,0,1-.829,3.9m2.5.367c-.024.012-.105-.095-.166-.159l0,.023a.4.4,0,0,1,.071.076c.02.03-.019.1-.031.153-.014-.076-.027-.153-.04-.228-.037-.035-.078-.066-.116-.1l.084-.079c.008.046.016.09.024.136l.432-.336.165.244a3.626,3.626,0,0,1-.427.271m1.744-2.373a2.725,2.725,0,0,1-.542-.088c.12-.157.24-.314.36-.471a2.676,2.676,0,0,1,.353.333c.018.021-.109.225-.171.226m.579-2.936c-.054-.065-.155-.133-.151-.195s.113-.114.176-.172c.055.065.157.133.152.194s-.113.115-.177.172m.745-1.827c0,.036,0,.072-.007.108l-.053-.079-.087.041.021-.138.261-.622.355.457-.49.234m3.141-3.535c-.081.07-.165.137-.247.207l-.09-.084.09.085-.114.088-.066.466-.3-.18.369-.285c.009-.058.017-.116.025-.174l.336-.123c.367-.318.732-.637,1.115-.936a5.119,5.119,0,0,1,.372.391l-1.486.545m.378-4.923c-.056.013-.189-.315-.356-.6a9.747,9.747,0,0,1,1.242-.288c.074-.008.187.326.283.5a10.5,10.5,0,0,1-1.168.39m5.395-3.972-.068-.289c.042-.09.083-.181.126-.271l.359.308-.417.252m1.481-9.479.057.2-.156-.025Zm.018.416.107-.161.063.183Zm2.971-2.426s-.141-.1-.157-.109h-.011l.071-.1.143.1-.1,0Zm1,2.071c-.037-.008-.048-.132-.071-.2.076-.021.16-.071.225-.052.041.012.052.126.077.194-.078.024-.161.076-.23.061m1.891,2.026c-.055-.066-.157-.137-.152-.2s.119-.112.185-.167l.165.2-.2.166m7.365-15.322c-.142,0-.424-.319-.393-.415.078-.247.306-.636.456-.628.28.015.549.27,1.1.584a4.539,4.539,0,0,1-1.166.459m3.713,2.362-.336-.607c.182-.061.381-.194.539-.156.107.026.156.292.23.452l-.434.311m3.773-7.257-1.133-.943c.2-.21.5-.632.574-.6a9.223,9.223,0,0,1,1.2.84l-.645.7" transform="translate(-150.579 -58.688)" fill="#1a1311"/>
    <path id="パス_72012" data-name="パス 72012" d="M515.17,298.549h0q-.014-.645-.028-1.29.014.644.028,1.29" transform="translate(-151.254 -87.28)" fill="#1a1311"/>
    <path id="パス_72013" data-name="パス 72013" d="M515,299.15h0l-.107-.1c-.112.046-.224.1-.336.146h.9l-.458-.119c0,.025,0,.051,0,.076" transform="translate(-151.082 -87.805)" fill="#1a1311"/>
    <path id="パス_72014" data-name="パス 72014" d="M572.19,298.444a15.762,15.762,0,0,0,3.017.9,2.889,2.889,0,0,0-3.017-.9" transform="translate(-168.004 -87.6)" fill="#1a1311"/>
    <path id="パス_72015" data-name="パス 72015" d="M581.885,280.44c.956-.622,1.293-.378,1.764.73a1.765,1.765,0,0,0,.706.724c4.161-2.974,6.728-8.267,6.728-15.8,0-12.009-6.8-18.719-16.247-18.719s-16.159,6.711-16.159,18.719c0,8.826,3.526,14.573,8.981,17.117l-.9-4.523h-.1q.012-.713.023-1.426l.086.048,1.726-1.755-.479,3.043.066.066h-.061c.189.6.415,1.182.565,1.786l.325-.254-.309.319c.016.067.036.134.049.2.285,1.412.773,1.466,1.909.621a4.189,4.189,0,0,1,1.514-.616c.2-.258.563-.4,1.236-.326l.014-.008a9.5,9.5,0,0,1-.459-1.68,25.5,25.5,0,0,1,2.953-1.021c.076.3.292.662.192.883-.126.279-.493.466-.782.652-.627.4-1.271.779-1.9,1.166l0,.012c-.4.128-.834.218-1.254.322-.325.423-.2,1.163-.246,1.793-.047.646-.127,1.29-.2,1.935a18.825,18.825,0,0,0,3.2.273,17.691,17.691,0,0,0,5.978-1c-.7-1.57-.253-2.429,1.071-3.289m-6.313,1.714c-.071-.163-.142-.326-.213-.488l.526-.045.148.008-.461.525m10.842-2.3-.054-.213.256.034Zm-.6-2.129c-.136.034-.333-.172-.5-.269a3.592,3.592,0,0,1,.568-.666c.069-.052.336.162.9.457a5.083,5.083,0,0,1-.966.478m1.472-3.975.186.009c.313-.073.625-.148.94-.21a2.645,2.645,0,0,1,.078.259l-1.017-.049-.178.04.027.158c-.025-.046-.052-.093-.083-.141l0,0-.01,0Zm-3.817-14.518a3.33,3.33,0,0,1-.518.194c-.042.009-.179-.2-.17-.21a4.028,4.028,0,0,1,.378-.313l.31.329m-1.537-1.752c.222-.464.492-.9.744-1.354.087.171.291.4.241.5-.223.456-.52.875-.844,1.394-.071-.256-.19-.439-.141-.542m-2.6-7.886.707.23a4.255,4.255,0,0,1-.319.785c-.025.04-.522-.1-.528-.179a3.251,3.251,0,0,1,.14-.835m.763,3.169-.2.155-.162-.2c.067-.052.14-.15.2-.143s.109.118.164.184m-1.512,1.63a6.181,6.181,0,0,1,.329.86c.012.052-.232.163-.358.247a1.9,1.9,0,0,1-.3-.558c-.02-.121.156-.274.331-.548m-14.32,4.724a2.337,2.337,0,0,1,.28.372,1.3,1.3,0,0,1-.206.133c-.118-.127-.218-.27-.324-.408.086-.036.221-.124.25-.1m-1.108,12.725a12.48,12.48,0,0,1,1.272.466l.147-.018.01-.019c.006-.018.117-.158.117-.158l-.164.239-.109-.044-1.582.206a4.119,4.119,0,0,1,.309-.672m-.312-1.015.17-.378.2.153c-.043.079-.068.185-.134.23s-.157,0-.238,0m.795-5.683,0,.256-.133-.13Zm-.47-3.372s.027.06.036.076c.037,1.114.064,2.212.091,3.309l-.015.044-.91-.206q.453.076.908.155l-.11-3.38m.535,14.121a3.467,3.467,0,0,1-.87.186c.13-.366.173-.976.4-1.059,1.947-.692,3.927-1.288,5.9-1.912l.012-.006q-.137-1.163-.272-2.327s.081-.037.086-.037-.086.037-.092.039c-.343-.17-.68-.341-1.019-.511-.07-.029-.134-.059-.2-.088,0,0-.011-.006-.016-.009l-.006.011-.042-.049L567.7,270l-.073.155.216.109c.379.156.751.314,1.111.472.069.787.132,1.575.194,2.364h0l-.021.006c-1.808.932-3.612,1.871-5.43,2.785m2.041-5.6a.886.886,0,0,1,.432-.43c.075-.035.255.151.494.305l-.65.546c-.1-.143-.312-.329-.276-.421m4.589,7.836c-.062-.067-.187-.148-.175-.2a2.284,2.284,0,0,1,.186-.437l.214.175-.225.461m8.1,5.691c-.137-.283-.384-.567-.385-.85a4.346,4.346,0,0,1,.291-1.132l.885.813-.791,1.169m1.5-9.361c-.134-.107-.321-.211-.468-.316a5.028,5.028,0,0,1-4.63,2.727c-2.711,0-5.493-1.513-6.008-8.372l-.666-.015h0l-.028-.024-.014-.4.261.086-.2.312.649.011c-.054-.73-.083-1.519-.083-2.373v0c-.152.018-.3.03-.455.051a7.7,7.7,0,0,0-1.965.879l.006.006.075.059-.011-.007c-.07.07-.138.142-.208.212l-1.237,2.424-.712-.441q.97-.994,1.949-1.983l.133-.261c-1.913-1.236-2.429-2.58-.274-4.13-.019-.027-.038-.052-.057-.08l.09.054-.034.026a3.761,3.761,0,0,0,2.727,1.955c.29-7.77,3.294-9.62,6.064-9.62,3.09,0,6.181,2.119,6.181,10.861a19.444,19.444,0,0,1-.991,6.849.9.9,0,0,1,.148.423,5.96,5.96,0,0,1-.239,1.089m.439,1.079c.289.09.579.181.87.266l.084-.022c0-.008.011-.016.011-.023.131-.139.263-.268.394-.4l.557-.6c.008,0-.017.045-.017.045l.025-.048c.956-3.394,1.749-3.753,4.075-1.846.977.8.978.8-.694,1.589.025.03.052.059.076.085l-.081-.083.084.086c-.049.055-.1.108-.151.162-.045.164-.09.328-.135.492-.039-.073-.13-.186-.109-.214a3.241,3.241,0,0,1,.244-.278c.022-.083.045-.165.067-.248l.005,0c-.241-.278-.521-.706-.678-.665-.363.1-.72.215-1.074.343,0,.065.009.13.013.195l.012,0-.008.035c-.037.174-.074.349-.111.523.034-.174.069-.35.109-.533l0-.029-.241-.114c-.477.177-.949.367-1.426.545-.18.18-.359.368-.54.552l-.393.422-.005,0-.035.037h0l-.057-.017-.9.237c.01-.167.02-.336.029-.5" transform="translate(-164.037 -72.634)" fill="#1a1311"/>
    <path id="パス_72016" data-name="パス 72016" d="M571.405,291.112l-.033-.013c0-.012,0-.025.006-.037l-1.247-1.252q-.009.657-.017,1.314c0,.009,0,.018.006.026l1.263-.021c0-.01-.007-.019-.01-.029Z" transform="translate(-167.395 -85.093)" fill="#1a1311"/>
    <path id="パス_72017" data-name="パス 72017" d="M360.027,79.206h0l.1.1-.1-.1" transform="translate(-105.71 -23.256)" fill="#1a1311"/>
    <path id="パス_72018" data-name="パス 72018" d="M349.706,4.612a16.022,16.022,0,0,0-.316-2.42l-.895-.106a93.439,93.439,0,0,1-9.629.474l-10.051-.474h-4.157l-.105,4.053.684.158,4.946-.105a5.317,5.317,0,0,1,3.789,1.631q1,1.054,1.158,4.157l.21,2.79c.18,2.105.338,4.156.482,6.177l.34.361-.291.314q.833,11.885.836,21.828a42.384,42.384,0,0,1-1,10.788c-.054.186-.131.379-.195.568.493.715,1.023,1.435-.56,1.851l.037.088-.08-.08-.16.035a24.824,24.824,0,0,1-1.673,2.957,12.673,12.673,0,0,1-3.184,3.026,15.544,15.544,0,0,1-4.867,2.394,32.513,32.513,0,0,1-9.42,1.316,19.329,19.329,0,0,1-8.683-2.21,13.059,13.059,0,0,1-1.529-.932c-.09.174-.227.345-.35.547-.17-.251-.384-.441-.348-.539a1.429,1.429,0,0,1,.216-.367,11.347,11.347,0,0,1-2.725-3.078,15.144,15.144,0,0,1-.965-1.924.682.682,0,0,1-.2.411c-.1.076-.355-.054-.54-.091l.386-1.02c.059.084.113.153.163.215a22.691,22.691,0,0,1-1.373-7.115l-.684-13.208.211-9.1-.316-4.209.105-4.947-.052-1.895q-.053-1.052-.053-2.737,0-5.526.632-6.262.947-1.157,3.894-1.158a43.076,43.076,0,0,0,6.1-.42V5.933L309.4,2.868l.053-.624q-1.107.048-4.243.1t-7.168.213q-4.032.165-8.248.165-1.212,0-8.168-.369-2.9-.157-5.534-.157-1,0-1.949.052L274.3,6.4a13.009,13.009,0,0,0,2.21.158q6.05.212,7.209,1.842.841,1.158.843,10.05v25.1a59.814,59.814,0,0,0,.788,11.156,20.086,20.086,0,0,0,4.078,9.236c.23.274.475.541.73.8l.025-.014c0,.016,0,.033.008.049a21.756,21.756,0,0,0,8.051,4.9,40.07,40.07,0,0,0,14,2.183,45.247,45.247,0,0,0,12.524-1.553,27.846,27.846,0,0,0,8.946-4.213,21.547,21.547,0,0,0,5.264-5.421c-.462-.182-.917-.408-1.379-.593l1.608-.971.494.3a20.7,20.7,0,0,0,1.538-4.873,26.043,26.043,0,0,0,.361-2.673l-.13.053,0-.232.137.059q.363-4.039.364-11.584l-.526-10.692q-.106-3.895-.263-7.688-.052-1.105-.078-2.159t-.027-2.9a44.716,44.716,0,0,0-.158-4.582q-.158-1.79-.158-2.738a2.426,2.426,0,0,1,.737-1.949,3.561,3.561,0,0,1,1.193-.362l-.035-.069.574-.217c0,.061.008.122.012.184.577-.1,1.292-.21,2.15-.325a18.539,18.539,0,0,0,4.1-.632,6.048,6.048,0,0,0,.211-1.421M336.428,25.176a5.217,5.217,0,0,1-.24-.468l.285-.1c.063.16.124.321.185.482a1.071,1.071,0,0,1-.23.084M287.28,57.137l-.165-.109.189-.06Zm.139-32.281c-.019.044-.138.045-.212.065l-.092-.254.308-.088a.738.738,0,0,1,0,.277m.465,27.526c-.038-.09-.113-.184-.1-.27s.1-.156.16-.234c.038.09.077.182.114.272-.056.078-.113.155-.169.232m.088-7.017c-.179-.093-.465-.15-.507-.285-.049-.155.116-.379.189-.574l.482.263-.163.6m1.272,4.81a1.886,1.886,0,0,1-.18-.395c-.013-.058.091-.142.141-.214.065.13.127.261.191.391l-.152.218M289.069,7.23l-.532-.186c.442-.241.875-.507,1.336-.706.13-.056.345.087.521.139l-1.324.754M290.6,34.738l-.158-.113.186-.052Zm.49-10.892a1.237,1.237,0,0,1,.231-.087,2.51,2.51,0,0,1,.134.282h.1l-.077.056c.012.03.028.059.042.089l-.139-.02-.3-.321m.825,39.8-.22.086c-.011-.126-.023-.252-.033-.379.08.018.186.013.235.063s.015.15.018.23m.875-1.44c-.3.135-.759-.1-1.163-.2-.011.022-.022.046-.033.066v0c-.061.006-.121.017-.181.027l.134-.114c.025.006.054.016.081.023.219-.439.38-1.09.7-1.177a4.294,4.294,0,0,1,1.714.258,5.382,5.382,0,0,1-1.246,1.118M294.471,40.5c-.039-.093-.115-.19-.107-.278s.106-.16.162-.239c.04.093.078.187.117.28l-.173.237m.692-30.752.263.516-.256.191a2.493,2.493,0,0,1-.22-.485c-.013-.054.137-.147.213-.222m-.062,4.35v-.14l.061.04.071-.112.01.163.36.227,1.666-.011-.167-.071.3-.119-.094.19-.023.008-1.67.01a.023.023,0,0,1-.01,0l0,0-.014-.007-.5-.178m2.082,22.256a2.634,2.634,0,0,1-.874.241c-.112-.007-.2-.417-.3-.644a5.346,5.346,0,0,1,.923-.1c.078,0,.143.282.246.5m-1.571,21.926a1.1,1.1,0,0,1,.347.087c.05.032.1.073.143.11l.323.13h0l.008,0,0,.15c-.112-.095-.222-.193-.336-.284l-.49-.2m1.121,8.116c-.023-.065-.047-.131-.071-.2l.321.129-.25.066m.422-23.829a2.936,2.936,0,0,1-.17-.5c-.008-.045.133-.118.207-.178a2.755,2.755,0,0,1,.162.493c.008.052-.129.125-.2.189m1.7-4.76a3.645,3.645,0,0,1-1.281,1.125c-.162.069-.639-.6-.971-.924l1.709-1.121c.24.393.614.834.544.92M324.135,66.83l-.044.025-.667,1.012-.442-.407,1.108-.605.031-.047c-.041-.068-.081-.136-.121-.2a1.918,1.918,0,0,0,.18.11v.006l.006-.011Zm15.89-57.27.239.1-.245.1ZM338.91,34.328l.339.73c-.186.062-.425.225-.543.162-.139-.075-.176-.345-.256-.53.153-.121.307-.242.461-.362m-.567,4.14a1.948,1.948,0,0,1,.18.23c-.138.141-.293.266-.444.394-.05-.09-.163-.231-.139-.26a3.1,3.1,0,0,1,.4-.364m1.137,14.951h0c-.036.173-.071.346-.107.519-.03.7-.059,1.41-.107,2.113,0,.047-.23.078-.354.117q.231-1.115.461-2.23l.019-.437,0,0-.03-.109-1.512-.377,1.129-1.031q.193.7.384,1.409Zm.363-48.512.083.215-.206-.02Zm.434,43.78a2.688,2.688,0,0,1-.489-.117l.369-.347.323.29c-.068.061-.14.178-.2.174m.309,7.616.15-.2.059.263Zm.283-33.01c-.155.069-.408.23-.445.191a3.369,3.369,0,0,1-.387-.623c.186-.019.408-.109.546-.037s.194.306.286.47" transform="translate(-80.492 -0.612)" fill="#1a1311"/>
  </g>
</svg>
