<svg xmlns="http://www.w3.org/2000/svg" width="895.464" height="81.781" viewBox="0 0 895.464 81.781">
  <path id="パス_72458" data-name="パス 72458" d="M-426.709-77.227q.293,0,3.984-.117l1.875.059,3.691.059a24.784,24.784,0,0,1,.234,2.754q0,.293-.059,1.816-.059.82-.117,6.27l-.117,8.848.059,5.566-.41,39.551v3.34a3.311,3.311,0,0,0,.82,2.52q.82.762,4.395,1.289,1.406.176,5.625.938a5.683,5.683,0,0,1,.117,1.113q0,.645-.117,2.813h-2.52q-2.578,0-7.5-.234-2.988-.176-4.1-.176-1.406,0-10.371.293-1,.059-1.641.059h-1.055l-1.7-.117-1.582.117-2.93-.117q-.586,0-2.4.176-.117-1.289-.117-1.992,0-.645.117-1.934,2.344-.645,5.449-1.289,4.277-.879,5.244-1.729a2.855,2.855,0,0,0,.967-2.256l-.059-3.984.234-4.336-.059-8.906-.059-2.285q0-.469.117-3.516.117-1.582.117-2.812,0-.762-.176-4.746l.234-3.34q-.234-3.809-.234-4.512,0-.879.059-1.758l.117-1.465-.176-3.984.176-1.816q.059-1.23.059-3.281,0-1.992-.059-4.863A100.166,100.166,0,0,1-440.068-59q-.586.352-5.273,2.4a23.923,23.923,0,0,1-2.4-4.219,94.354,94.354,0,0,0,8.438-4.746,82.634,82.634,0,0,0,7.969-6.445A51.7,51.7,0,0,0-426.709-77.227Zm43.887,78.75q12.832-18.75,51.973-79.8l.762-.176,5.332.234.586-.059L-376.2,1.523a11.892,11.892,0,0,1-1.7,0l-3.574-.176Zm-16.641-58.535a22.446,22.446,0,0,1,.586-5.684,40.435,40.435,0,0,1,2.051-6.328,16.877,16.877,0,0,1,3.105-4.453,16.47,16.47,0,0,1,4.6-3.105,12.39,12.39,0,0,1,4.951-1q6.211,0,10.693,5.332t4.482,14.707a30.684,30.684,0,0,1-1.289,9.316,19.471,19.471,0,0,1-3.633,6.8,13.477,13.477,0,0,1-4.043,3.34A11.043,11.043,0,0,1-383-36.5q-5.039,0-7.617-1.348a16.213,16.213,0,0,1-6.24-6.855Q-399.463-49.57-399.463-57.012Zm10.2-1.641q.176,4.1.176,5.625.059,8.906.762,10.2l1.875,2.4a3.239,3.239,0,0,0,1.934.586,4.118,4.118,0,0,0,2.9-1.26q1.318-1.26,1.9-5.42a61.713,61.713,0,0,0,.586-8.613l-.117-3.926v-4.219q0-6.5-1.7-9.082a3.626,3.626,0,0,0-3.164-1.758,4.032,4.032,0,0,0-2.9,1.23q-1.26,1.23-1.9,5.039Q-389.15-66.387-389.268-58.652Zm51.563,38.789a21.739,21.739,0,0,1,.586-5.625,40.425,40.425,0,0,1,2.051-6.387,16.877,16.877,0,0,1,3.105-4.453,15.921,15.921,0,0,1,4.6-3.076,12.715,12.715,0,0,1,4.951-.967q6.152,0,10.664,5.3t4.512,14.678a30.684,30.684,0,0,1-1.289,9.316,18.942,18.942,0,0,1-3.691,6.8A12.82,12.82,0,0,1-316.2-.937,11.109,11.109,0,0,1-321.3.645q-4.98,0-7.559-1.348a15.9,15.9,0,0,1-6.27-6.855A26.116,26.116,0,0,1-337.705-19.863Zm10.2-1.641q.176,4.1.176,5.625,0,8.906.762,10.2l1.875,2.4a3.239,3.239,0,0,0,1.934.586,4.02,4.02,0,0,0,2.871-1.26q1.289-1.26,1.875-5.42a61.713,61.713,0,0,0,.586-8.613l-.059-3.926v-4.219q0-6.5-1.7-9.082a3.626,3.626,0,0,0-3.164-1.758,4.13,4.13,0,0,0-2.93,1.23q-1.289,1.23-1.934,5.039Q-327.451-29.238-327.51-21.5ZM-274.775-.41l.117-3.984a38.747,38.747,0,0,1,3.926-.879q4.512-.879,5.479-1.582a10.549,10.549,0,0,0,2.373-3.4l11.836-31L-237.158-77.7q1.934.059,3.691.059h2.637l.527,1.055,10.2,24.141q3.457,7.676,6.211,14.912t4.746,11.807q1.172,2.754,3.223,8.262a78.111,78.111,0,0,0,3.223,7.5,9.084,9.084,0,0,0,1.758,2.871,6.674,6.674,0,0,0,3.428,1.172,21.978,21.978,0,0,1,5.127,1.348A21.221,21.221,0,0,1-192.1-1.7q0,.41-.059,1.289-4.336,0-9.551-.41t-9.375-.41q-4.629,0-6.68.117l-9.961.527-2.871.117q0-2.051.176-3.926l6.5-1.406a12.24,12.24,0,0,0,3.4-1.172,1.852,1.852,0,0,0,.586-1.348,4.7,4.7,0,0,0-.293-1.582l-2.344-5.742L-227.2-27.129l-22.383-.059q-1.23,2.813-5.1,13.77A15.76,15.76,0,0,0-255.791-9.2a2.6,2.6,0,0,0,.82,2.168q1.348,1.113,5.156,1.582.527.117,4.16.645.059,2.109.059,2.93a8.2,8.2,0,0,1-.117,1.348q-3.633,0-17.344-1l-2.4.41a51.671,51.671,0,0,1-8.262.7Zm27.539-32.93q13.711.176,16.172.176l1.465-.059q-1.758-5.215-4.57-12.158t-4.57-10.576ZM-189.58-3.984a13.438,13.438,0,0,1,4.512-1.2,24.817,24.817,0,0,0,5.391-1.26,14.649,14.649,0,0,0,.352-1.7q.117-.82.117-5.625l-.059-13.066.234-7.031-.117-5.449.117-3.164q.176-6.387.176-11.953,0-12.187-.293-15.586l-3.457-.7q-4.746-.293-6.328-.586l-.117-3.516.234-.645a34.312,34.312,0,0,1,5.391-.469q1.348,0,5.449-.059,4.219.352,4.57.352l3.105-.176,7.324-.352a142,142,0,0,1,14.473-.7q12.012,0,19.1,6.123t7.09,14.033a16.873,16.873,0,0,1-3.838,10.752q-3.838,4.834-11.807,7.295.7,1.23,1.875,2.871,2.461,3.516,3.984,5.977l9.375,15.176q3.516,6.035,4.6,7.061a14.124,14.124,0,0,0,4.482,2.256A18.466,18.466,0,0,1-109.6-3.34a5.378,5.378,0,0,1,.352,1.758q0,.527-.059,1.348h-1.582l-1.172.059-3.047-.41h-2.4a30.7,30.7,0,0,0-4.629-.293L-128-.937q-.645,0-4.1.41-1.582.176-2.52.293L-136.611-4.1q-2.461-4.395-3.457-6.562-2.578-5.684-8.848-18.105-2.93-5.742-4.1-6.5-1.758-1.23-6.035-1.23-1.172,0-3.984.117a39.992,39.992,0,0,0-.176,4.043l.234,13.008-.293,11.016A13.288,13.288,0,0,0-158.994-6.8a48.12,48.12,0,0,1,7.852,2.227,29.678,29.678,0,0,1-.234,4.336q-1.113-.059-1.406-.059l-2.4.117q-12.6-1.113-14.941-1.113-1.523,0-2.168.059l-8.086.527a61.441,61.441,0,0,1-6.738.41h-2.52q-.117-1.465-.117-1.875A13.131,13.131,0,0,1-189.58-3.984Zm26.367-37.91q2.813.117,4.1.117,9.961,0,14.121-3.574a11.957,11.957,0,0,0,4.16-9.551,22.962,22.962,0,0,0-1.025-6.943A12.243,12.243,0,0,0-144.4-66.68a13.581,13.581,0,0,0-5.684-3.457,27.93,27.93,0,0,0-8.262-.879,31.431,31.431,0,0,0-4.629.293l-.059,1.113.059,7.91-.117,4.8.059,6.387q-.117,2.7-.176,6.973ZM-41.045-75q.762,1.758,3.105,10.02a30.907,30.907,0,0,1,1.113,7.969h-5.332q-5.625-7.969-11.6-11.455a26.023,26.023,0,0,0-13.359-3.486,17.723,17.723,0,0,0-14.648,7.09q-7.559,9.609-7.559,26.777,0,9.961,1.289,14.18a36.858,36.858,0,0,0,5.332,11.191A17.377,17.377,0,0,0-76.26-7.5,23.856,23.856,0,0,0-65.244-4.863,22.111,22.111,0,0,0-52.793-8.877,44.685,44.685,0,0,0-41.279-20.859a34.854,34.854,0,0,1,5.684-.469,42.243,42.243,0,0,1-.762,4.629q-.176.938-1.348,7.441L-38.232-7.5l-.82,2.754A24.9,24.9,0,0,1-49.1-.615,77.947,77.947,0,0,1-65.01.762,66.174,66.174,0,0,1-78.633-.586,32.61,32.61,0,0,1-89.619-4.863,40.2,40.2,0,0,1-100.107-14a34.5,34.5,0,0,1-5.654-10.723,42.8,42.8,0,0,1-1.846-13.008q0-17.461,11.514-28.828T-66.709-77.93a120.825,120.825,0,0,1,13.682.732A84.973,84.973,0,0,1-41.045-75ZM-28.037-.586a29.286,29.286,0,0,1,.352-4.16l7.324-1.289a29.386,29.386,0,0,0,3.223-.937l.762-14.648q-.234-7.91-.234-11.836l.059-1.406q.176-2.4.176-12.07l-.117-1.7.117-4.922-.059-5.1v-2.52a70.706,70.706,0,0,0-.527-7.969,7.057,7.057,0,0,0-.469-1.406,4.147,4.147,0,0,0-1.025-.234q-.557-.059-1.143-.176a44.812,44.812,0,0,0-4.863-.586l-.879-.234a11.264,11.264,0,0,1-2.4-.469q-.176-1.7-.176-2.168a7.542,7.542,0,0,1,.352-1.934,17.69,17.69,0,0,1,3.281-.234q2.109,0,2.93-.059,7.148.762,10.605.82,1.582,0,3.193.088t2.842.088q1.934,0,9.434-.586a11.633,11.633,0,0,1,2.7-.293,23.561,23.561,0,0,1,3.633.234q.059,1.23.059,1.758a13.694,13.694,0,0,1-.234,2.285L.557-70.605a1.849,1.849,0,0,0-1.289,1.7l.176,2.168L-.5-65.8l-.059,2.578L-.674-61.23v.469q.059.645.059,1.113l-.059,7.441q.059,1.055.059,1.582,0,.293-.117,1.875-.059.938-.059,1.934,0,.879.176,4.16a23.047,23.047,0,0,0,2.754.352l8.672.176h4.219l10.547.059,10.254-.293a23.323,23.323,0,0,0,4.219-.41q.117-1.992.176-9.785l.117-2.637-.352-9.961-.41-4.1a1.746,1.746,0,0,0-.82-.762,36.12,36.12,0,0,0-8.2-2.637,16.622,16.622,0,0,1-2.109-.586,16.678,16.678,0,0,1,.469-3.34q1.289-.059,1.582-.059l5.684.059a86.453,86.453,0,0,0,11.074.7q1.289,0,2.051-.059l7.617-.234q1.055-.059,2.051-.117a19.928,19.928,0,0,1,4.336-.469q1.7,0,4.1.176-.059,2.285-.293,4.16-5.391,1.113-7.061,1.611a19.429,19.429,0,0,0-3.369,1.377l-.352,1.172v1l.059,1.523-.059.762q-.117,1.23-.117,1.875v1.465q.059,2.637.059,2.93v7.441l.059,5.625L56.221-38.2q-.059,2.578.176,10.547v8.32l.117,6.914q0,1.934-.117,4.688,1.23.352,2.285.586A45.718,45.718,0,0,1,67-4.746l.176,4.1q-2.344.059-2.754.059-2.812,0-6.445-.352-4.8-.527-15.469-.527-4.8,0-12.422.762A7.14,7.14,0,0,1,28.1-1.055a23.607,23.607,0,0,1,.293-3.809L32.9-5.918l4.746-.762q.7-.176,1.816-.527a138.422,138.422,0,0,0,.7-15.762l.059-4.98a67.409,67.409,0,0,1-.352-7.441q-2.168-.176-4.687-.234L8-35.918l-.527-.059-.41-.059a8.593,8.593,0,0,0-.937.059q-1.523.059-2.578.059H1.9a9.108,9.108,0,0,0-2.52.41L-.85-31.113v.762q.117,1.582.117,2.051v18.164A28.112,28.112,0,0,0-.557-7.031l.586.352L8.643-5.332a6.122,6.122,0,0,0,1,.293,3.878,3.878,0,0,1,1.289.527A17.351,17.351,0,0,1,11.1-2.7a13.134,13.134,0,0,1-.234,2.109Q8.76-.527,7.295-.527q-1.289,0-2.4-.059a8.04,8.04,0,0,1-1-.059L-4.365-1q-2.93-.293-8.2-.293l-1.23.059q-2.461.117-2.871.176A98.363,98.363,0,0,1-28.037-.586ZM76.787-.352V-4.57q1.172-.352,3.867-1A26.054,26.054,0,0,0,86.338-7.5a10.078,10.078,0,0,0,1.055-5.039l-.059-6.914.117-13.359-.059-3.164q.41-11.6.41-11.953l-.117-7.793.176-3.164-.293-6.68-.059-2.52a13.051,13.051,0,0,0-.41-1.875,22.882,22.882,0,0,0-7.793-1.406,20.169,20.169,0,0,1-2.051-.176L77.08-76.7l16.758.7q3.105.117,3.867.117,3.457,0,11.074-.469,4.277-.293,5.391-.352.059,1.113.059,1.875,0,1-.117,2.578-2.344.82-5.361,1.553A38.848,38.848,0,0,0,103.8-69.2a20.809,20.809,0,0,0-.352,4.395,38.584,38.584,0,0,0,.176,4.1q-.176,9.9-.176,15.234L103.506-30l-.176,7.852.117,11.719L103.389-8.2a5.692,5.692,0,0,0,.234,1.348,60.243,60.243,0,0,0,6.5,1.055q.527.059,3.574.469a22.889,22.889,0,0,1,.234,2.93q0,.645-.059,1.992a8.859,8.859,0,0,0-1.172.059q-1.875.117-2.168.117a11.832,11.832,0,0,1-1.523-.176q-.82-.117-7.793-.82L90.85-1.348q-3.105,0-9.023.586Q77.959-.41,76.787-.352Zm48.984-79.16H129.4q.41.645.586.938a20.619,20.619,0,0,0,2.52,3.691,63.68,63.68,0,0,0,8.027.234q4.512,0,8.027-.059l1.172-.176,7.09-.059,13.242.117h18.105l3.457-.527a6.471,6.471,0,0,0,1.641-2.812q.234-.527.645-1.465l2.578-.059q.586,0,1.758.059.059,4.043.059,12.188l.059,5.215-.059,2.988a12.952,12.952,0,0,1-.234,2.637,20.91,20.91,0,0,1-4.219.938,39.6,39.6,0,0,1-3.311-6.621,26.788,26.788,0,0,0-2.256-4.8,3.288,3.288,0,0,0-1.641-1q-1.406-.293-12.422-.293-1.641,0-4.1.234a25.643,25.643,0,0,0-.352,3.75l.059,7.852v17.227l.234,18.574-.059,7.617a19.935,19.935,0,0,0,.7,6.094,15.074,15.074,0,0,0,3.457.762q.469.059,4.336.938a22.763,22.763,0,0,1,3.105.938q.293,2.109.293,2.578a9.5,9.5,0,0,1-.176,1.523q-1.289.059-2.109.059a101.192,101.192,0,0,1-10.254-.439q-4.219-.439-15.293-.439-1.758,0-10.312.7-3.34.234-4.336.234-.059-.879-.117-1.348l-.059-1.348V-3.34q1.289-1.7,4.863-2.52A44.686,44.686,0,0,0,152.549-8.5a7.334,7.334,0,0,0,.7-2.93q.41-7.031.41-22.383l-.293-22.148a94.76,94.76,0,0,0-.352-11.074,1.456,1.456,0,0,0-.41-.791,1.43,1.43,0,0,0-.82-.322q-1.816-.234-11.836-.234-5.508,0-7.383,1.055-2.52,1.465-7.559,7.969-1.465,1.875-2.168,1.875a13.073,13.073,0,0,1-3.457-2.285Q121.2-63.574,124.424-75,125.361-78.34,125.771-79.512ZM204.4-76.23q3.34.176,5.8.527a78.644,78.644,0,0,0,10.723.645q2.109,0,10.84-.352,13.066-.527,23.613-.527l10.605-.117a91.9,91.9,0,0,1,10.547.879,4.553,4.553,0,0,1,1.055,3.164v12.07l.117,2.4q0,.352-.059,1.055l-2.4.117q-.469,0-1.992-.117-.527-1.172-1.406-3.457L269.5-64.1a27.013,27.013,0,0,0-3.75-5.391,15.741,15.741,0,0,0-3.75-.469q-.586-.059-3.574-.293-5.449-.469-11.719-.469-7.148,0-12.773.234-.176,1.465-.176,11.543l.117,9.844v7.383a21.593,21.593,0,0,0,2.52.176q10.488,0,14.941-.41t5.508-1.143a6.049,6.049,0,0,0,1.875-2.549,80.615,80.615,0,0,0,2.051-8.613l.762-.059,3.4.059q.234,5.215.234,7.91,0,6.152-.088,7.91t-.088,2.754q0,1.582.176,5.068t.176,5.186v1.289h-4.16q-.234-.937-.879-3.867-1.172-5.449-2.109-6.8a4.249,4.249,0,0,0-2.344-1.582q-1.172-.41-8.672-.41-8.848,0-13.3.469-.059,1.523-.059,1.992,0,6.973.234,11.6l-.117,12.656a3.115,3.115,0,0,0,1.582,3.047q2.4,1.23,14.707,1.23a66.455,66.455,0,0,0,13.828-1.23,13.751,13.751,0,0,0,6.914-3.926,29.825,29.825,0,0,0,6.621-11.016q1.816-.176,2.988-.176.645,0,1.934.059-.176,1.465-.293,2.461l-.352,1.758L279.7-6.8l-1.055,6.68q-3.809.176-6.035.176-3.281,0-17.52-.586-10.02-.41-24.141-.41-7.031,0-17.285.586H211.2l-7.09.234V-4.16a36.485,36.485,0,0,1,4.453-.645q6.094-.7,8.438-1.875a12.177,12.177,0,0,0,.645-4.277q0-1-.059-3.4l.059-1.816-.176-22.09.059-6.621-.293-9.375.059-6.621-.527-7.266a11.145,11.145,0,0,0-.117-1.172,2.862,2.862,0,0,0-1.758-.82q-.645-.117-1.758-.352a38.31,38.31,0,0,0-6.445-.82q-1.113-.059-2.578-.234ZM359.033-75q.762,1.758,3.105,10.02a30.907,30.907,0,0,1,1.113,7.969H357.92q-5.625-7.969-11.6-11.455a26.023,26.023,0,0,0-13.359-3.486,17.723,17.723,0,0,0-14.648,7.09q-7.559,9.609-7.559,26.777,0,9.961,1.289,14.18a36.858,36.858,0,0,0,5.332,11.191A17.377,17.377,0,0,0,323.818-7.5a23.856,23.856,0,0,0,11.016,2.637,22.111,22.111,0,0,0,12.451-4.014A44.685,44.685,0,0,0,358.8-20.859a34.854,34.854,0,0,1,5.684-.469,42.243,42.243,0,0,1-.762,4.629q-.176.938-1.348,7.441L361.846-7.5l-.82,2.754A24.9,24.9,0,0,1,350.977-.615,77.947,77.947,0,0,1,335.068.762,66.174,66.174,0,0,1,321.445-.586a32.61,32.61,0,0,1-10.986-4.277A40.2,40.2,0,0,1,299.971-14a34.5,34.5,0,0,1-5.654-10.723,42.8,42.8,0,0,1-1.846-13.008q0-17.461,11.514-28.828T333.369-77.93a120.825,120.825,0,0,1,13.682.732A84.973,84.973,0,0,1,359.033-75Zm15.527-4.512h3.633q.41.645.586.938a20.619,20.619,0,0,0,2.52,3.691,63.68,63.68,0,0,0,8.027.234q4.512,0,8.027-.059l1.172-.176,7.09-.059,13.242.117h18.105l3.457-.527a6.471,6.471,0,0,0,1.641-2.812q.234-.527.645-1.465l2.578-.059q.586,0,1.758.059.059,4.043.059,12.188l.059,5.215-.059,2.988a12.952,12.952,0,0,1-.234,2.637,20.91,20.91,0,0,1-4.219.938,39.6,39.6,0,0,1-3.311-6.621,26.788,26.788,0,0,0-2.256-4.8,3.288,3.288,0,0,0-1.641-1q-1.406-.293-12.422-.293-1.641,0-4.1.234a25.643,25.643,0,0,0-.352,3.75l.059,7.852v17.227l.234,18.574-.059,7.617a19.935,19.935,0,0,0,.7,6.094,15.074,15.074,0,0,0,3.457.762q.469.059,4.336.938a22.763,22.763,0,0,1,3.105.938q.293,2.109.293,2.578a9.5,9.5,0,0,1-.176,1.523q-1.289.059-2.109.059a101.192,101.192,0,0,1-10.254-.439q-4.219-.439-15.293-.439-1.758,0-10.312.7-3.34.234-4.336.234-.059-.879-.117-1.348l-.059-1.348V-3.34q1.289-1.7,4.863-2.52A44.686,44.686,0,0,0,401.338-8.5a7.334,7.334,0,0,0,.7-2.93q.41-7.031.41-22.383l-.293-22.148a94.76,94.76,0,0,0-.352-11.074,1.456,1.456,0,0,0-.41-.791,1.43,1.43,0,0,0-.82-.322q-1.816-.234-11.836-.234-5.508,0-7.383,1.055-2.52,1.465-7.559,7.969-1.465,1.875-2.168,1.875a13.073,13.073,0,0,1-3.457-2.285Q369.99-63.574,373.213-75,374.15-78.34,374.561-79.512Z" transform="translate(448.056 79.938)" stroke="#000" stroke-width="0.5"/>
</svg>
