<svg xmlns="http://www.w3.org/2000/svg" width="173.671" height="67.491" viewBox="0 0 173.671 67.491">
  <path id="パス_72460" data-name="パス 72460" d="M-81.962,0V-1.738l4.029-.869a7.646,7.646,0,0,0,3.515-1.422q.751-.79.751-3.239V-45.9q0-2.528-.751-3.318a7.233,7.233,0,0,0-3.515-1.343l-4.029-.869v-1.738h45.188a16.009,16.009,0,0,0-.316,2.173q-.079,1.066-.079,2.173a28.554,28.554,0,0,0,.395,4.779q.395,2.331.79,4.859h-1.738a22.28,22.28,0,0,0-2.37-4.424,19.148,19.148,0,0,0-3.2-3.595,14.234,14.234,0,0,0-4.029-2.449,12.861,12.861,0,0,0-4.858-.909H-62.607v22.752H-52.5a10.568,10.568,0,0,0,4.266-.711,5.3,5.3,0,0,0,2.41-2.054,8.889,8.889,0,0,0,1.145-3.239l.632-3.634H-42.3v21.883h-1.738l-.711-3.792a8.511,8.511,0,0,0-1.146-3.2,5.174,5.174,0,0,0-2.37-1.975,10.317,10.317,0,0,0-4.068-.672h-10.27V-7.268q0,2.449.79,3.279a7.079,7.079,0,0,0,3.476,1.383l4.582.869V0Zm45.583,0V-1.738L-31.8-2.765a6.352,6.352,0,0,0,2.646-1.145,5.32,5.32,0,0,0,1.461-2.015l16.116-38.157-2.449-6.083a9.8,9.8,0,0,0,4.266-.987,7.65,7.65,0,0,0,2.607-2.054,3.473,3.473,0,0,0,.869-1.936h1.106L15.524-4.9a2.788,2.788,0,0,0,1.264,1.422,10.711,10.711,0,0,0,2.765.869l4.029.869V0H-4.068V-1.738l4.029-.869a7.331,7.331,0,0,0,2.568-.987,1.885,1.885,0,0,0,.829-1.619A2.737,2.737,0,0,0,3.239-6q-.118-.4-.276-.869L-11.1-42.107h1.738L-24.687-5.846a3.119,3.119,0,0,0-.118.474,2.483,2.483,0,0,0-.039.395,1.74,1.74,0,0,0,.553,1.264,3.438,3.438,0,0,0,1.817.79l6.794,1.185V0ZM-19.71-17.854v-2.607H2.8v2.607ZM63.082-1.975a13.309,13.309,0,0,0,3.16,3.2,31.553,31.553,0,0,0,4.977,3.042A45.174,45.174,0,0,0,77.3,6.755a50.556,50.556,0,0,0,6.676,1.7,36.48,36.48,0,0,0,6.6.632l.553,1.58q-2.923.553-5.965.869a64.9,64.9,0,0,1-6.675.316,51.6,51.6,0,0,1-11.416-1.225A39.272,39.272,0,0,1,56.88,6.794,38.906,38.906,0,0,1,47.993.079ZM52.575.869a29.651,29.651,0,0,1-11.3-2.093,27.722,27.722,0,0,1-8.927-5.767,26.084,26.084,0,0,1-5.885-8.571,26.252,26.252,0,0,1-2.094-10.428,28.926,28.926,0,0,1,2.094-11.1,26.866,26.866,0,0,1,5.885-8.888,26.766,26.766,0,0,1,8.927-5.885,29.651,29.651,0,0,1,11.3-2.094,30.254,30.254,0,0,1,11.376,2.094,27.193,27.193,0,0,1,9.006,5.806,26.642,26.642,0,0,1,5.886,8.571,26.167,26.167,0,0,1,2.093,10.467,28.631,28.631,0,0,1-2.093,11.06A26.969,26.969,0,0,1,72.956-7.11a26.581,26.581,0,0,1-9.006,5.886A30.254,30.254,0,0,1,52.575.869Zm0-2.765a12.889,12.889,0,0,0,8.611-3.081,19.9,19.9,0,0,0,5.648-8.729,39.385,39.385,0,0,0,2.014-13.232,36.375,36.375,0,0,0-2.014-12.64,19.969,19.969,0,0,0-5.648-8.532,12.889,12.889,0,0,0-8.611-3.081,12.675,12.675,0,0,0-8.453,3.081,19.9,19.9,0,0,0-5.649,8.73,39.921,39.921,0,0,0-2.014,13.391A38.723,38.723,0,0,0,37.6-16.274a25.408,25.408,0,0,0,3.278,7.663,15.534,15.534,0,0,0,5.1,4.977A12.794,12.794,0,0,0,52.575-1.9Z" transform="translate(82.213 55.392)" stroke="#000" stroke-width="0.5"/>
</svg>
