<svg xmlns="http://www.w3.org/2000/svg" xmlns:xlink="http://www.w3.org/1999/xlink" width="695.482" height="53.315" viewBox="0 0 695.482 53.315">
  <defs>
    <clipPath id="clip-path">
      <rect id="長方形_8760" data-name="長方形 8760" width="695.482" height="53.315" transform="translate(0 0)" fill="none"/>
    </clipPath>
  </defs>
  <g id="グループ_6696" data-name="グループ 6696" transform="translate(0 0)">
    <g id="グループ_6696-2" data-name="グループ 6696" clip-path="url(#clip-path)">
      <path id="パス_71947" data-name="パス 71947" d="M222.547,48.778c-.321-.127-.646-.241-.971-.357l-.02.017h-.024l-.166.124-.25-.305a30.179,30.179,0,0,0-4.047-1.061q-.69-.155-1.5-.386c.031-.719.051-1.366.064-1.957l-1.731,1.43-.211-.266a7.314,7.314,0,0,0-.571-.618c-.519-.527-1.056-1.07-1.034-1.679a4.258,4.258,0,0,1,.9-2.056c.172-.259.343-.519.485-.779l.2-.375,1.944,1.782-.053-3.12V33.694q-.154-5.243-.116-6.943l.077-4.9-.038-3.7v-1.68a.427.427,0,0,1-.013-.18c0-.015.01-.029.013-.044V14.7l-.672-.646-.088-.012-.5.531.03-.591-.346-.044.368-.381,0-.089-1.289-1.7,1.325-.721-.217-.235.32-.069.028-.537.4.43.624-.778c.013-.209.032-.45.058-.727l.039-.5-.039-1V6.968l.231-.771a12.8,12.8,0,0,1,2.218-.906q1.1-.328,4.648-1.061.154-1.239.193-2.739-1.581-.116-2.7-.116a13.11,13.11,0,0,0-2.854.309l-1.35.077-5.015.154c-.334.026-.783.039-1.35.039a56.976,56.976,0,0,1-7.291-.463l-3.742-.039c-.128,0-.476.013-1.042.039a11.034,11.034,0,0,0-.309,2.2,10.952,10.952,0,0,0,1.389.386,23.767,23.767,0,0,1,5.4,1.736,1.149,1.149,0,0,1,.54.5l.27,2.7L205,15.571l-.077,1.736q-.039,5.13-.116,6.442h0l.052.048.064.036.089-.051a2.337,2.337,0,0,1,1.283-.419,7.268,7.268,0,0,1,1.832.531c.236.091.472.183.71.262l.377.128-.192.348c-.049.093-.1.21-.156.328-.186.409-.334.736-.634.736a.281.281,0,0,1-.05,0,9.17,9.17,0,0,1-2.149-.517,5.279,5.279,0,0,1-.832-.412l-.233-.037c-.082-.013-.169-.03-.257-.047l-.316.137-.068-.664-.006-.055-.028-.274a15.3,15.3,0,0,1-2.261.2l-6.75.193-3.835-.021a8.047,8.047,0,0,1,.9.847c.3.3.666.684,1.157,1.154l.426.407-.568.155c-.349.1-.658.206-.924.3a3.235,3.235,0,0,1-1,.261.76.76,0,0,1-.368-.088,4.454,4.454,0,0,1-1.6-1.767c-.125-.228.013-.462.277-.767a4.073,4.073,0,0,1,.521-.513l-1.937-.011h-.841l-.027.134-.209.048c-.032.008-.065.021-.1.032a.955.955,0,0,1-.313.071.42.42,0,0,1-.241-.072.6.6,0,0,1-.19-.213h-.857l-3.12-.063a1.343,1.343,0,0,1,.247.225,1.1,1.1,0,0,0,.1.1l.177.159-.49,1.163-1.263-1.106.31-.248a.865.865,0,0,0,.1-.1,1.415,1.415,0,0,1,.26-.211l-2.032-.041c-.492-.033-.979-.106-1.465-.186l-1.311,1.7-.236-.486c-.04-.084-.091-.168-.142-.253a1.5,1.5,0,0,1-.3-.814,1.853,1.853,0,0,1,.324-.841c.054-.091.107-.182.153-.275l.16-.331.965.6c-.053-1.055-.082-1.765-.082-2.087,0-.09.007-.172.008-.261l-.148.142-.227-.3c-.08-.1-.189-.222-.3-.341-.352-.379-.656-.708-.516-1.05a7.27,7.27,0,0,1,.956-1.521c.093-.126.2-.278.3-.419l.038-4.7c0-.206-.014-.45-.04-.733v-.314l.077-1.312.039-1.7-.039-.617-.116-1.427a1.218,1.218,0,0,1,.85-1.119l1.946-.31a1.705,1.705,0,0,0-.178-.064.338.338,0,0,1-.225-.394l-.015,0,.031-.1c.012-.052.025-.105.041-.165l.2-.76.012.021a3.056,3.056,0,0,1,.637-1.328,3.507,3.507,0,0,1,1.965-.78,7.671,7.671,0,0,0-1.68.188q-4.937.387-6.21.386-.813,0-1.871-.058t-2.1-.058q-2.275-.041-6.982-.54c-.23.017-.589.028-1.05.033l-.064.1-.034-.1c-.236,0-.489,0-.78,0a11.669,11.669,0,0,0-2.161.154,4.976,4.976,0,0,0-.231,1.273q0,.309.116,1.427a7.419,7.419,0,0,0,1.582.309l.579.154a29.411,29.411,0,0,1,3.2.386c.258.051.508.09.752.116a2.734,2.734,0,0,1,.675.154,4.663,4.663,0,0,1,.309.926,46.468,46.468,0,0,1,.347,5.246v1.659l.04,3.356-.078,3.24.078,1.119q0,6.365-.117,7.946l-.039.926q0,2.584.155,7.792l-.231,4.443.011.063.2.056.1-.071.089.124v.005l3.588,5.3-4.941.069-.823.47.1-.388c-.239.065-.477.132-.719.187l-4.822.849a19.328,19.328,0,0,0-.231,2.739,64.751,64.751,0,0,0,7.487-.3q.27-.039,1.89-.116l.81-.039q3.471,0,5.4.193l4.029.171.332-.268.077.286,1,.042a5.145,5.145,0,0,0,.656.039q.734.039,1.582.039.965,0,2.353-.039a8.522,8.522,0,0,0,.154-1.389,11.227,11.227,0,0,0-.116-1.2,2.554,2.554,0,0,0-.849-.347,4.075,4.075,0,0,1-.656-.193l-5.67-.887-.386-.231a18.621,18.621,0,0,1-.116-2.044V43.176l-.017-.056.017,0V35.385l-.065.073-.221-.435a3.036,3.036,0,0,0-.172-.28c-.2-.3-.4-.611-.29-.931a2.49,2.49,0,0,1,.456-.745l-.465-.331.677.069.026-.031a.7.7,0,0,1-.062-.106.938.938,0,0,1,.046-.644c0-.035,0-.063-.007-.1v-.284a5.673,5.673,0,0,1-.918-1.025l-.231.176c-.185.141-.372.31-.548.467-.4.359-.707.636-1,.636a.444.444,0,0,1-.192-.044,3.2,3.2,0,0,1-1.747-1.648c-.131-.448.3-.9.756-1.381.16-.168.32-.336.442-.493l.242-.312,2.14,2.34c-.142-.385.147-.87.634-1.642.234-.37.5-.8.756-1.268l.253-.474.311.437c.242.339.471.619.681.873.078,0,.155-.019.233-.021h1.08q.7,0,1.7-.039a5.79,5.79,0,0,1,.617-.039l.27.039.347.039,15.458.167a.321.321,0,0,1-.008-.054.727.727,0,0,1,.365-.52,1.424,1.424,0,0,0,.114-.092l.249-.234.229.253a1.156,1.156,0,0,0,.106.1.729.729,0,0,1,.322.552l0,.008,1.067.011q1.659.037,3.086.154a44.542,44.542,0,0,0,.231,4.9l-.038,3.279c.02,1.629-.008,3.257-.075,4.883l.082-.033a3.442,3.442,0,0,0,.32-.162,1.234,1.234,0,0,1,1-.239,3.859,3.859,0,0,1,1.1.792c.19.171.4.363.665.576l.545.448-.691.136c-.325.065-.606.143-.851.211a3.718,3.718,0,0,1-.924.18,1,1,0,0,1-.387-.072,1.665,1.665,0,0,1-.741-.987c-.044-.1-.091-.195-.138-.289q-.117,2.469-.365,4.932-.736.231-1.2.347l-3.125.5-2.97.694a15.55,15.55,0,0,0-.2,2.5,4.685,4.685,0,0,0,1.312.231q5.016-.5,8.178-.5c.375,0,.727,0,1.085,0l-.6-.73-.014-1.006,0-.275.562.633.135.087a5.245,5.245,0,0,1,.573.4.326.326,0,0,1,.084.409l.1.11-.135-.015c-.028.056-.06.112-.093.167l-.122.225c2.634.016,4.8.075,6.5.175l.709-.974.362,1.046c.371.03.724.061,1.038.095q2.393.231,4.243.231.27,0,1.813-.039ZM175.9,6.994l.573,1.565-1.518-.193Zm-2.132,4.942c.008-.043.013-.088.017-.134a.983.983,0,0,1,.165-.519c.185-.23.477-.17.666-.188l.27-.031.362,1.148-1.505.159ZM170.451,34.93a4.3,4.3,0,0,1-.85.919.365.365,0,0,1-.221.074,1.385,1.385,0,0,1-.71-.318c-.331-.227-.538-.431-.469-.686a3.416,3.416,0,0,1,.525-1.016c.068-.1.137-.2.2-.306l.157-.258,1.9.927-.267.325c-.09.111-.177.225-.262.339m4.759-.132c.008-.043.013-.09.017-.135a1.144,1.144,0,0,1,.134-.487.622.622,0,0,1,.482-.246.93.93,0,0,0,.1-.017l.3-.081.371,1.126-1.494.334Zm-1.746,6.418c.14-.042.281-.089.422-.136a5.2,5.2,0,0,1,1.249-.308c.323-.036.467.268.688.711.078.156.165.332.265.5l.22.375-.42.114c-.153.042-.3.1-.451.151a2.679,2.679,0,0,1-.9.22,1.067,1.067,0,0,1-.244-.027,1.026,1.026,0,0,1-.576-.453L171.542,43.7l-.157-.341c-.034-.072-.076-.152-.12-.238a3.939,3.939,0,0,1-.412-1.05.492.492,0,0,1,.192-.439c.13-.118.705-.529,1.086-.42a2.486,2.486,0,0,1,.924.593c.1.087.2.173.3.25l.308.235c-.05-.075-.1-.152-.146-.229a3.832,3.832,0,0,0-.215-.322l-.3-.384Zm2.107-25.091-.157.163,0,0-.361.369-.187-.469c-.021-.054-.039-.109-.057-.165l-1.721-.794,1.483-.014a.78.78,0,0,0,.1-.01.561.561,0,0,1,.545.137.961.961,0,0,1,.119.192l.561.258-.326.334Zm31.463,24.353.757-1.565.585,1.661Zm2.04-30.942,1.614-1.484,1.9,2.163-.419.182c-.181.078-.352.173-.51.258a1.919,1.919,0,0,1-.837.319.594.594,0,0,1-.233-.046,2.739,2.739,0,0,1-.957-.806c-.1-.117-.2-.234-.312-.341Zm1.6,27.612c-.325,0-.529-.381-.827-.936-.091-.172-.183-.343-.267-.476l-.2-.316.338-.164c.216-.1.429-.216.644-.326a9.1,9.1,0,0,1,1.815-.786c.349-.1.627.177,1.094.63.208.2.457.445.759.7l.437.368-.535.2c-.4.147-.748.286-1.069.414a11.435,11.435,0,0,1-2.106.688.459.459,0,0,1-.081.007m9.177,12.932-.642-1.535,1.34.078Z" fill="#070203"/>
      <path id="パス_71948" data-name="パス 71948" d="M222.547,48.778c-.321-.127-.646-.241-.971-.357l-.02.017h-.024l-.166.124-.25-.305a30.179,30.179,0,0,0-4.047-1.061q-.69-.155-1.5-.386c.031-.719.051-1.366.064-1.957l-1.731,1.43-.211-.266a7.314,7.314,0,0,0-.571-.618c-.519-.527-1.056-1.07-1.034-1.679a4.258,4.258,0,0,1,.9-2.056c.172-.259.343-.519.485-.779l.2-.375,1.944,1.782-.053-3.12V33.694q-.154-5.243-.116-6.943l.077-4.9-.038-3.7v-1.68a.427.427,0,0,1-.013-.18c0-.015.01-.029.013-.044V14.7l-.672-.646-.088-.012-.5.531.03-.591-.346-.044.368-.381,0-.089-1.289-1.7,1.325-.721-.217-.235.32-.069.028-.537.4.43.624-.778c.013-.209.032-.45.058-.727l.039-.5-.039-1V6.968l.231-.771a12.8,12.8,0,0,1,2.218-.906q1.1-.328,4.648-1.061.154-1.239.193-2.739-1.581-.116-2.7-.116a13.11,13.11,0,0,0-2.854.309l-1.35.077-5.015.154c-.334.026-.783.039-1.35.039a56.976,56.976,0,0,1-7.291-.463l-3.742-.039c-.128,0-.476.013-1.042.039a11.034,11.034,0,0,0-.309,2.2,10.952,10.952,0,0,0,1.389.386,23.767,23.767,0,0,1,5.4,1.736,1.149,1.149,0,0,1,.54.5l.27,2.7L205,15.571l-.077,1.736q-.039,5.13-.116,6.442h0l.052.048.064.036.089-.051a2.337,2.337,0,0,1,1.283-.419,7.268,7.268,0,0,1,1.832.531c.236.091.472.183.71.262l.377.128-.192.348c-.049.093-.1.21-.156.328-.186.409-.334.736-.634.736a.281.281,0,0,1-.05,0,9.17,9.17,0,0,1-2.149-.517,5.279,5.279,0,0,1-.832-.412l-.233-.037c-.082-.013-.169-.03-.257-.047l-.316.137-.068-.664-.006-.055-.028-.274a15.3,15.3,0,0,1-2.261.2l-6.75.193-3.835-.021a8.047,8.047,0,0,1,.9.847c.3.3.666.684,1.157,1.154l.426.407-.568.155c-.349.1-.658.206-.924.3a3.235,3.235,0,0,1-1,.261.76.76,0,0,1-.368-.088,4.454,4.454,0,0,1-1.6-1.767c-.125-.228.013-.462.277-.767a4.073,4.073,0,0,1,.521-.513l-1.937-.011h-.841l-.027.134-.209.048c-.032.008-.065.021-.1.032a.955.955,0,0,1-.313.071.42.42,0,0,1-.241-.072.6.6,0,0,1-.19-.213h-.857l-3.12-.063a1.343,1.343,0,0,1,.247.225,1.1,1.1,0,0,0,.1.1l.177.159-.49,1.163-1.263-1.106.31-.248a.865.865,0,0,0,.1-.1,1.415,1.415,0,0,1,.26-.211l-2.032-.041c-.492-.033-.979-.106-1.465-.186l-1.311,1.7-.236-.486c-.04-.084-.091-.168-.142-.253a1.5,1.5,0,0,1-.3-.814,1.853,1.853,0,0,1,.324-.841c.054-.091.107-.182.153-.275l.16-.331.965.6c-.053-1.055-.082-1.765-.082-2.087,0-.09.007-.172.008-.261l-.148.142-.227-.3c-.08-.1-.189-.222-.3-.341-.352-.379-.656-.708-.516-1.05a7.27,7.27,0,0,1,.956-1.521c.093-.126.2-.278.3-.419l.038-4.7c0-.206-.014-.45-.04-.733v-.314l.077-1.312.039-1.7-.039-.617-.116-1.427a1.218,1.218,0,0,1,.85-1.119l1.946-.31a1.705,1.705,0,0,0-.178-.064.338.338,0,0,1-.225-.394l-.015,0,.031-.1c.012-.052.025-.105.041-.165l.2-.76.012.021a3.056,3.056,0,0,1,.637-1.328,3.507,3.507,0,0,1,1.965-.78,7.671,7.671,0,0,0-1.68.188q-4.937.387-6.21.386-.813,0-1.871-.058t-2.1-.058q-2.275-.041-6.982-.54c-.23.017-.589.028-1.05.033l-.064.1-.034-.1c-.236,0-.489,0-.78,0a11.669,11.669,0,0,0-2.161.154,4.976,4.976,0,0,0-.231,1.273q0,.309.116,1.427a7.419,7.419,0,0,0,1.582.309l.579.154a29.411,29.411,0,0,1,3.2.386c.258.051.508.09.752.116a2.734,2.734,0,0,1,.675.154,4.663,4.663,0,0,1,.309.926,46.468,46.468,0,0,1,.347,5.246v1.659l.04,3.356-.078,3.24.078,1.119q0,6.365-.117,7.946l-.039.926q0,2.584.155,7.792l-.231,4.443.011.063.2.056.1-.071.089.124v.005l3.588,5.3-4.941.069-.823.47.1-.388c-.239.065-.477.132-.719.187l-4.822.849a19.328,19.328,0,0,0-.231,2.739,64.751,64.751,0,0,0,7.487-.3q.27-.039,1.89-.116l.81-.039q3.471,0,5.4.193l4.029.171.332-.268.077.286,1,.042a5.145,5.145,0,0,0,.656.039q.734.039,1.582.039.965,0,2.353-.039a8.522,8.522,0,0,0,.154-1.389,11.227,11.227,0,0,0-.116-1.2,2.554,2.554,0,0,0-.849-.347,4.075,4.075,0,0,1-.656-.193l-5.67-.887-.386-.231a18.621,18.621,0,0,1-.116-2.044V43.176l-.017-.056.017,0V35.385l-.065.073-.221-.435a3.036,3.036,0,0,0-.172-.28c-.2-.3-.4-.611-.29-.931a2.49,2.49,0,0,1,.456-.745l-.465-.331.677.069.026-.031a.7.7,0,0,1-.062-.106.938.938,0,0,1,.046-.644c0-.035,0-.063-.007-.1v-.284a5.673,5.673,0,0,1-.918-1.025l-.231.176c-.185.141-.372.31-.548.467-.4.359-.707.636-1,.636a.444.444,0,0,1-.192-.044,3.2,3.2,0,0,1-1.747-1.648c-.131-.448.3-.9.756-1.381.16-.168.32-.336.442-.493l.242-.312,2.14,2.34c-.142-.385.147-.87.634-1.642.234-.37.5-.8.756-1.268l.253-.474.311.437c.242.339.471.619.681.873.078,0,.155-.019.233-.021h1.08q.7,0,1.7-.039a5.79,5.79,0,0,1,.617-.039l.27.039.347.039,15.458.167a.321.321,0,0,1-.008-.054.727.727,0,0,1,.365-.52,1.424,1.424,0,0,0,.114-.092l.249-.234.229.253a1.156,1.156,0,0,0,.106.1.729.729,0,0,1,.322.552l0,.008,1.067.011q1.659.037,3.086.154a44.542,44.542,0,0,0,.231,4.9l-.038,3.279c.02,1.629-.008,3.257-.075,4.883l.082-.033a3.442,3.442,0,0,0,.32-.162,1.234,1.234,0,0,1,1-.239,3.859,3.859,0,0,1,1.1.792c.19.171.4.363.665.576l.545.448-.691.136c-.325.065-.606.143-.851.211a3.718,3.718,0,0,1-.924.18,1,1,0,0,1-.387-.072,1.665,1.665,0,0,1-.741-.987c-.044-.1-.091-.195-.138-.289q-.117,2.469-.365,4.932-.736.231-1.2.347l-3.125.5-2.97.694a15.55,15.55,0,0,0-.2,2.5,4.685,4.685,0,0,0,1.312.231q5.016-.5,8.178-.5c.375,0,.727,0,1.085,0l-.6-.73-.014-1.006,0-.275.562.633.135.087a5.245,5.245,0,0,1,.573.4.326.326,0,0,1,.084.409l.1.11-.135-.015c-.028.056-.06.112-.093.167l-.122.225c2.634.016,4.8.075,6.5.175l.709-.974.362,1.046c.371.03.724.061,1.038.095q2.393.231,4.243.231.27,0,1.813-.039ZM175.9,6.994l.573,1.565-1.518-.193Zm-2.132,4.942c.008-.043.013-.088.017-.134a.983.983,0,0,1,.165-.519c.185-.23.477-.17.666-.188l.27-.031.362,1.148-1.505.159ZM170.451,34.93a4.3,4.3,0,0,1-.85.919.365.365,0,0,1-.221.074,1.385,1.385,0,0,1-.71-.318c-.331-.227-.538-.431-.469-.686a3.416,3.416,0,0,1,.525-1.016c.068-.1.137-.2.2-.306l.157-.258,1.9.927-.267.325C170.623,34.7,170.536,34.816,170.451,34.93Zm4.759-.132c.008-.043.013-.09.017-.135a1.144,1.144,0,0,1,.134-.487.622.622,0,0,1,.482-.246.93.93,0,0,0,.1-.017l.3-.081.371,1.126-1.494.334Zm-1.746,6.418c.14-.042.281-.089.422-.136a5.2,5.2,0,0,1,1.249-.308c.323-.036.467.268.688.711.078.156.165.332.265.5l.22.375-.42.114c-.153.042-.3.1-.451.151a2.679,2.679,0,0,1-.9.22,1.067,1.067,0,0,1-.244-.027,1.026,1.026,0,0,1-.576-.453L171.542,43.7l-.157-.341c-.034-.072-.076-.152-.12-.238a3.939,3.939,0,0,1-.412-1.05.492.492,0,0,1,.192-.439c.13-.118.705-.529,1.086-.42a2.486,2.486,0,0,1,.924.593c.1.087.2.173.3.25l.308.235c-.05-.075-.1-.152-.146-.229a3.832,3.832,0,0,0-.215-.322l-.3-.384Zm2.107-25.091-.157.163,0,0-.361.369-.187-.469c-.021-.054-.039-.109-.057-.165l-1.721-.794,1.483-.014a.78.78,0,0,0,.1-.01.561.561,0,0,1,.545.137.961.961,0,0,1,.119.192l.561.258-.326.334Zm31.463,24.353.757-1.565.585,1.661Zm2.04-30.942,1.614-1.484,1.9,2.163-.419.182c-.181.078-.352.173-.51.258a1.919,1.919,0,0,1-.837.319.594.594,0,0,1-.233-.046,2.739,2.739,0,0,1-.957-.806c-.1-.117-.2-.234-.312-.341Zm1.6,27.612c-.325,0-.529-.381-.827-.936-.091-.172-.183-.343-.267-.476l-.2-.316.338-.164c.216-.1.429-.216.644-.326a9.1,9.1,0,0,1,1.815-.786c.349-.1.627.177,1.094.63.208.2.457.445.759.7l.437.368-.535.2c-.4.147-.748.286-1.069.414a11.435,11.435,0,0,1-2.106.688A.459.459,0,0,1,210.671,37.148Zm9.177,12.932-.642-1.535,1.34.078Z" fill="none" stroke="#070203" stroke-width="0.5"/>
      <path id="パス_71949" data-name="パス 71949" d="M262.54,51.228a1.612,1.612,0,0,1,.447-.87c.073-.091.146-.181.206-.271l.312-.476.9,1.744-.183.262a25.676,25.676,0,0,0,9.1-3.749,8.037,8.037,0,0,1-1.658-1.22c-.266-.254-.079-.575.375-1.349.142-.243.3-.507.429-.762l.206-.391,2.475,2.362a23.521,23.521,0,0,0,2.082-1.931,26.157,26.157,0,0,0,7.43-18.711,25.074,25.074,0,0,0-1.4-8.029,1.381,1.381,0,0,1-.692.273h-.043a2.045,2.045,0,0,1-.843-.248c-.1-.045-.2-.09-.3-.127l-.632-.231.567-.362c.1-.065.2-.139.3-.213a2.177,2.177,0,0,1,.927-.487.522.522,0,0,1,.185,0c-.307-.739-.655-1.46-1.032-2.169l-.3.367-.255-.344a2.173,2.173,0,0,0-.168-.192c-.2-.213-.422-.454-.368-.751a1.863,1.863,0,0,1,.225-.579c-.191-.305-.373-.614-.577-.911a23.891,23.891,0,0,0-9.3-8.139,30.28,30.28,0,0,0-13.925-3c-.662-.008-1.324.009-1.984.04-.306.366-.514.571-.727.571a.425.425,0,0,1-.163-.036A6.447,6.447,0,0,1,253.4.89a34.215,34.215,0,0,0-4.891.816,27.166,27.166,0,0,0-7.483,3.24,24.919,24.919,0,0,0-6.1,5.15,22.511,22.511,0,0,0-3.78,6.365,26.648,26.648,0,0,0-1.852,9.6h0c-.009.556,0,1.111.028,1.665l.2-.54.36.3c.09.076.21.162.33.248.441.318.734.529.624.85-.338.964-.705,1.921-1.076,2.87.1.52.209,1.038.34,1.552a32.773,32.773,0,0,0,2.2,6.4,25.263,25.263,0,0,0,4.32,5.67,32.529,32.529,0,0,0,6.75,4.9q.347.155,3.279,1.119a21.82,21.82,0,0,0,3.78.849,41.808,41.808,0,0,0,6.133.424,38.4,38.4,0,0,0,6.153-.473,1.288,1.288,0,0,1-.186-.668m4.911-2.326.171-1.437,1.291.89Zm1.713-3.129-.258-.456c-.02-.035-.046-.07-.07-.106a.826.826,0,0,1-.2-.513.776.776,0,0,1,.26-.483c.029-.032.058-.063.082-.094l.3-.394.618,1.022Zm8.947-19.262.136-.821,1.872.995-1.34.567a1.359,1.359,0,0,1-.321.135l-.52.171v0l-.449.146.481-.666-.838-.359ZM275.6,24.643a2.624,2.624,0,0,0,.143.259l.243.376-.429.126a3.1,3.1,0,0,0-.3.109,1.926,1.926,0,0,1-.7.186.717.717,0,0,1-.25-.041,1.258,1.258,0,0,1-.609-.726c-.047-.1-.094-.195-.145-.278l-.245-.392.451-.108c.1-.023.2-.058.3-.092a1.461,1.461,0,0,1,.93-.109c.308.1.468.413.61.69m-5.626-14.315c.053-.083.1-.177.148-.272a1.459,1.459,0,0,1,.6-.727c.29-.138.607.051.909.236.091.054.18.11.265.151l.31.149-.159.306c-.043.082-.084.182-.124.282-.131.332-.269.674-.592.732a.842.842,0,0,1-.142.012,1.8,1.8,0,0,1-.775-.25c-.094-.047-.188-.095-.28-.131l-.377-.147ZM247.452,5.29c.23-.1.458-.2.69-.306l.1-.093.19-.17,1.123-1.093.495.445-.965,1.221-.008.018-.009,0-.136.172-.119-.066c-.1.043-.209.086-.311.131-.13.115-.263.229-.4.334a.42.42,0,0,1-.264.084.991.991,0,0,1-.217-.031L246.4,5.808Zm-9.377,36-1.752-.69,1.148-2.512,0-.186-.029-.072.033-.083,0-.126.422-.245.578-.336.276-.16-.421.921-.214,1.124Zm2.135-5.97c-.061.049-.121.109-.182.169a1.178,1.178,0,0,1-.7.421h-.039c-.31,0-.53-.3-.725-.575l-.233-.309.144-.234c.1-.154.359-.513.673-.428a4.243,4.243,0,0,1,.75.286l.74.321Zm-1.975-14.57.418-1.182h.238a1.122,1.122,0,0,0,.126-.01.7.7,0,0,1,.573.116.955.955,0,0,1,.249.505c.012.047.024.094.039.137l.157.446Zm1.621-2.807-.226.35-.171-.179-.67,1-.9-1.607.535-.029.407-.02-.235-.247.647.034.127-.191.161.17.755-1.162.946,1.278.043.014.222.011.219,1.269.109.628-.373-.507-.56-.755ZM261.39,49.518l-.9.732-.209-.274c-.024-.031-.055-.062-.085-.1a.555.555,0,0,1,.116-.994,1.05,1.05,0,0,0,.1-.071l.059-.05a1.313,1.313,0,0,1-.147-.27l-.013-.032a15.871,15.871,0,0,1-3.593.431.714.714,0,0,0,.071.074l.177.159-.491,1.163-1.261-1.106.309-.248a.852.852,0,0,0,.089-.083,12.345,12.345,0,0,1-3.074-.646l-1.46,1.9-.234-.484c-.041-.083-.092-.167-.143-.251a1.491,1.491,0,0,1-.3-.817,1.883,1.883,0,0,1,.324-.841c.037-.062.07-.124.1-.185a11.143,11.143,0,0,1-2.062-1.288,15.652,15.652,0,0,1-3.433-3.9,42.274,42.274,0,0,1-2.353-6.056c-.174-.58-.31-1.17-.434-1.762l-.053-.008.025-.106a21.3,21.3,0,0,1-.348-2.29q-.154-1.119-.231-1.582a28.749,28.749,0,0,1-.27-4.745c0-.144.006-.288.005-.431l0,0h0a39.591,39.591,0,0,1,.6-7.127,3.627,3.627,0,0,1,.11-.576c.071-.367.129-.736.21-1.1a21.064,21.064,0,0,1,3.125-7,12.493,12.493,0,0,1,3.9-3.452,11.249,11.249,0,0,1,5.94-1.562,15.4,15.4,0,0,1,10.123,3.319,16.783,16.783,0,0,1,4.908,7.5l.156.327-.048.014a16.827,16.827,0,0,1,.442,1.8,15.2,15.2,0,0,0,.386,1.582l.055.207a9.148,9.148,0,0,1,1.442-.8,1.153,1.153,0,0,1,.953.225,2.937,2.937,0,0,0,.295.15l.611.253-.566.34c-.179.108-.355.217-.531.327a11.709,11.709,0,0,1-1.563.874.5.5,0,0,1-.2.042.688.688,0,0,1-.24-.053c.239,3.131.36,5.65.36,7.542a29.593,29.593,0,0,1-2.034,11.849l1.041-.37-.408.318a7.678,7.678,0,0,1,1.935-.341h.018c.529,0,.986.455,1.427.9a6.377,6.377,0,0,0,.519.484l.419.333-.483.229c-.182.086-.36.183-.538.281a5.066,5.066,0,0,1-1.35.572,15.387,15.387,0,0,1-3.145.424q-.189,0-.378-.009a4.612,4.612,0,0,1-.512-.059,13.754,13.754,0,0,1-4.4,4.159,15.949,15.949,0,0,1-2.637,1.141l-.137.675-.221.117a.779.779,0,0,0-.1.031,1.418,1.418,0,0,1-.2.056Z" fill="#070203"/>
      <path id="パス_71950" data-name="パス 71950" d="M262.54,51.228a1.612,1.612,0,0,1,.447-.87c.073-.091.146-.181.206-.271l.312-.476.9,1.744-.183.262a25.676,25.676,0,0,0,9.1-3.749,8.037,8.037,0,0,1-1.658-1.22c-.266-.254-.079-.575.375-1.349.142-.243.3-.507.429-.762l.206-.391,2.475,2.362a23.521,23.521,0,0,0,2.082-1.931,26.157,26.157,0,0,0,7.43-18.711,25.074,25.074,0,0,0-1.4-8.029,1.381,1.381,0,0,1-.692.273h-.043a2.045,2.045,0,0,1-.843-.248c-.1-.045-.2-.09-.3-.127l-.632-.231.567-.362c.1-.065.2-.139.3-.213a2.177,2.177,0,0,1,.927-.487.522.522,0,0,1,.185,0c-.307-.739-.655-1.46-1.032-2.169l-.3.367-.255-.344a2.173,2.173,0,0,0-.168-.192c-.2-.213-.422-.454-.368-.751a1.863,1.863,0,0,1,.225-.579c-.191-.305-.373-.614-.577-.911a23.891,23.891,0,0,0-9.3-8.139,30.28,30.28,0,0,0-13.925-3c-.662-.008-1.324.009-1.984.04-.306.366-.514.571-.727.571a.425.425,0,0,1-.163-.036A6.447,6.447,0,0,1,253.4.89a34.215,34.215,0,0,0-4.891.816,27.166,27.166,0,0,0-7.483,3.24,24.919,24.919,0,0,0-6.1,5.15,22.511,22.511,0,0,0-3.78,6.365,26.648,26.648,0,0,0-1.852,9.6h0c-.009.556,0,1.111.028,1.665l.2-.54.36.3c.09.076.21.162.33.248.441.318.734.529.624.85-.338.964-.705,1.921-1.076,2.87.1.52.209,1.038.34,1.552a32.773,32.773,0,0,0,2.2,6.4,25.263,25.263,0,0,0,4.32,5.67,32.529,32.529,0,0,0,6.75,4.9q.347.155,3.279,1.119a21.82,21.82,0,0,0,3.78.849,41.808,41.808,0,0,0,6.133.424,38.4,38.4,0,0,0,6.153-.473A1.288,1.288,0,0,1,262.54,51.228Zm4.911-2.326.171-1.437,1.291.89Zm1.713-3.129-.258-.456c-.02-.035-.046-.07-.07-.106a.826.826,0,0,1-.2-.513.776.776,0,0,1,.26-.483c.029-.032.058-.063.082-.094l.3-.394.618,1.022Zm8.947-19.262.136-.821,1.872.995-1.34.567a1.359,1.359,0,0,1-.321.135l-.52.171v0l-.449.146.481-.666-.838-.359ZM275.6,24.643a2.624,2.624,0,0,0,.143.259l.243.376-.429.126a3.1,3.1,0,0,0-.3.109,1.926,1.926,0,0,1-.7.186.717.717,0,0,1-.25-.041,1.258,1.258,0,0,1-.609-.726c-.047-.1-.094-.195-.145-.278l-.245-.392.451-.108c.1-.023.2-.058.3-.092a1.461,1.461,0,0,1,.93-.109C275.3,24.053,275.455,24.366,275.6,24.643Zm-5.626-14.315c.053-.083.1-.177.148-.272a1.459,1.459,0,0,1,.6-.727c.29-.138.607.051.909.236.091.054.18.11.265.151l.31.149-.159.306c-.043.082-.084.182-.124.282-.131.332-.269.674-.592.732a.842.842,0,0,1-.142.012,1.8,1.8,0,0,1-.775-.25c-.094-.047-.188-.095-.28-.131l-.377-.147ZM247.452,5.29c.23-.1.458-.2.69-.306l.1-.093.19-.17,1.123-1.093.495.445-.965,1.221-.008.018-.009,0-.136.172-.119-.066c-.1.043-.209.086-.311.131-.13.115-.263.229-.4.334a.42.42,0,0,1-.264.084.991.991,0,0,1-.217-.031L246.4,5.808Zm-9.377,36-1.752-.69,1.148-2.512,0-.186-.029-.072.033-.083,0-.126.422-.245.578-.336.276-.16-.421.921-.214,1.124Zm2.135-5.97c-.061.049-.121.109-.182.169a1.178,1.178,0,0,1-.7.421h-.039c-.31,0-.53-.3-.725-.575l-.233-.309.144-.234c.1-.154.359-.513.673-.428a4.243,4.243,0,0,1,.75.286l.74.321Zm-1.975-14.57.418-1.182h.238a1.122,1.122,0,0,0,.126-.01.7.7,0,0,1,.573.116.955.955,0,0,1,.249.505c.012.047.024.094.039.137l.157.446Zm1.621-2.807-.226.35-.171-.179-.67,1-.9-1.607.535-.029.407-.02-.235-.247.647.034.127-.191.161.17.755-1.162.946,1.278.043.014.222.011.219,1.269.109.628-.373-.507-.56-.755ZM261.39,49.518l-.9.732-.209-.274c-.024-.031-.055-.062-.085-.1a.555.555,0,0,1,.116-.994,1.05,1.05,0,0,0,.1-.071l.059-.05a1.313,1.313,0,0,1-.147-.27l-.013-.032a15.871,15.871,0,0,1-3.593.431.714.714,0,0,0,.071.074l.177.159-.491,1.163-1.261-1.106.309-.248a.852.852,0,0,0,.089-.083,12.345,12.345,0,0,1-3.074-.646l-1.46,1.9-.234-.484c-.041-.083-.092-.167-.143-.251a1.491,1.491,0,0,1-.3-.817,1.883,1.883,0,0,1,.324-.841c.037-.062.07-.124.1-.185a11.143,11.143,0,0,1-2.062-1.288,15.652,15.652,0,0,1-3.433-3.9,42.274,42.274,0,0,1-2.353-6.056c-.174-.58-.31-1.17-.434-1.762l-.053-.008.025-.106a21.3,21.3,0,0,1-.348-2.29q-.154-1.119-.231-1.582a28.749,28.749,0,0,1-.27-4.745c0-.144.006-.288.005-.431l0,0h0a39.591,39.591,0,0,1,.6-7.127,3.627,3.627,0,0,1,.11-.576c.071-.367.129-.736.21-1.1a21.064,21.064,0,0,1,3.125-7,12.493,12.493,0,0,1,3.9-3.452,11.249,11.249,0,0,1,5.94-1.562,15.4,15.4,0,0,1,10.123,3.319,16.783,16.783,0,0,1,4.908,7.5l.156.327-.048.014a16.827,16.827,0,0,1,.442,1.8,15.2,15.2,0,0,0,.386,1.582l.055.207a9.148,9.148,0,0,1,1.442-.8,1.153,1.153,0,0,1,.953.225,2.937,2.937,0,0,0,.295.15l.611.253-.566.34c-.179.108-.355.217-.531.327a11.709,11.709,0,0,1-1.563.874.5.5,0,0,1-.2.042.688.688,0,0,1-.24-.053c.239,3.131.36,5.65.36,7.542a29.593,29.593,0,0,1-2.034,11.849l1.041-.37-.408.318a7.678,7.678,0,0,1,1.935-.341h.018c.529,0,.986.455,1.427.9a6.377,6.377,0,0,0,.519.484l.419.333-.483.229c-.182.086-.36.183-.538.281a5.066,5.066,0,0,1-1.35.572,15.387,15.387,0,0,1-3.145.424q-.189,0-.378-.009a4.612,4.612,0,0,1-.512-.059,13.754,13.754,0,0,1-4.4,4.159,15.949,15.949,0,0,1-2.637,1.141l-.137.675-.221.117a.779.779,0,0,0-.1.031,1.418,1.418,0,0,1-.2.056Z" fill="none" stroke="#070203" stroke-width="0.5"/>
      <path id="パス_71951" data-name="パス 71951" d="M131.863,49.094a12.482,12.482,0,0,0,2.43-4.475,20.18,20.18,0,0,0,.849-6.133c0-.338-.017-.66-.031-.986l-.959.378.944-.867a19.027,19.027,0,0,0-.3-2.365l-.067-.142c-.04-.087-.092-.174-.143-.262a1.515,1.515,0,0,1-.293-.879.457.457,0,0,1,.135-.268,11.625,11.625,0,0,0-2.256-4.272,8.952,8.952,0,0,0-3.966-2.922l-.729.069c-.055.005-.109.012-.163.018l-.17.261-.459-.576v0l-.167-.209a8.888,8.888,0,0,0-1.367-.13,8.421,8.421,0,0,0-1.347.109l-.281.688-.388-.555a8.4,8.4,0,0,0-1.244.394,10.476,10.476,0,0,0-3.028,2.025,11.115,11.115,0,0,0-2.044,2.932,26.55,26.55,0,0,0-1.35,4.2,14.308,14.308,0,0,0-.386,3.7v0a17.187,17.187,0,0,0,1.7,8.1,10.468,10.468,0,0,0,4.127,4.513,11.035,11.035,0,0,0,4.976.887,7.316,7.316,0,0,0,3.356-1.035,8.438,8.438,0,0,0,2.623-2.2m-3.821-3.366q-.386,2.739-1.234,3.568a2.645,2.645,0,0,1-1.89.829,2.134,2.134,0,0,1-1.273-.386l-1.234-1.582a9.141,9.141,0,0,1-.431-3.05l-.1-.063.091-.079c-.042-.966-.064-2.133-.064-3.52q0-1-.116-3.7v0q.036-5.093.19-6.052a6.172,6.172,0,0,1,1.273-3.317,2.721,2.721,0,0,1,1.929-.81,2.388,2.388,0,0,1,2.083,1.157q1.119,1.7,1.119,5.979v2.769l.039,2.584c0,.205-.018.409-.02.613.137.011.273.021.421.034.394.035.841.076,1.311.076h.872l-.65.581c-.521.465-1.013.909-1.484,1.334l-.576.52c-.064.839-.144,1.678-.26,2.512" fill="#070203"/>
      <path id="パス_71952" data-name="パス 71952" d="M131.863,49.094a12.482,12.482,0,0,0,2.43-4.475,20.18,20.18,0,0,0,.849-6.133c0-.338-.017-.66-.031-.986l-.959.378.944-.867a19.027,19.027,0,0,0-.3-2.365l-.067-.142c-.04-.087-.092-.174-.143-.262a1.515,1.515,0,0,1-.293-.879.457.457,0,0,1,.135-.268,11.625,11.625,0,0,0-2.256-4.272,8.952,8.952,0,0,0-3.966-2.922l-.729.069c-.055.005-.109.012-.163.018l-.17.261-.459-.576v0l-.167-.209a8.888,8.888,0,0,0-1.367-.13,8.421,8.421,0,0,0-1.347.109l-.281.688-.388-.555a8.4,8.4,0,0,0-1.244.394,10.476,10.476,0,0,0-3.028,2.025,11.115,11.115,0,0,0-2.044,2.932,26.55,26.55,0,0,0-1.35,4.2,14.308,14.308,0,0,0-.386,3.7v0a17.187,17.187,0,0,0,1.7,8.1,10.468,10.468,0,0,0,4.127,4.513,11.035,11.035,0,0,0,4.976.887,7.316,7.316,0,0,0,3.356-1.035A8.438,8.438,0,0,0,131.863,49.094Zm-3.821-3.366q-.386,2.739-1.234,3.568a2.645,2.645,0,0,1-1.89.829,2.134,2.134,0,0,1-1.273-.386l-1.234-1.582a9.141,9.141,0,0,1-.431-3.05l-.1-.063.091-.079c-.042-.966-.064-2.133-.064-3.52q0-1-.116-3.7v0q.036-5.093.19-6.052a6.172,6.172,0,0,1,1.273-3.317,2.721,2.721,0,0,1,1.929-.81,2.388,2.388,0,0,1,2.083,1.157q1.119,1.7,1.119,5.979v2.769l.039,2.584c0,.205-.018.409-.02.613.137.011.273.021.421.034.394.035.841.076,1.311.076h.872l-.65.581c-.521.465-1.013.909-1.484,1.334l-.576.52C128.238,44.055,128.158,44.894,128.042,45.728Z" fill="none" stroke="#070203" stroke-width="0.5"/>
      <path id="パス_71953" data-name="パス 71953" d="M559.188,51.707h1.427a9.15,9.15,0,0,0,1.119-.154,15.729,15.729,0,0,0,.54-3.4q.695-6.944.694-9.721v-1.08a15.951,15.951,0,0,0-2.083-.154h-1.234a23.33,23.33,0,0,1-1.871,4.475,11.068,11.068,0,0,1-2.14,2.507,8.359,8.359,0,0,1-3.473,2.16c-.075.026-.152.047-.228.072l-.146.683-.142.661-.215-.316-.25.241c-.4.735-.778,1.477-1.16,2.218l-.6,1.166-1.347-1.3,2.572-2.486c.03-.055.06-.111.09-.165a.868.868,0,0,1,.277-.29l-.066-.1a26.861,26.861,0,0,1-8.539,1.043l-2.431-.077-2.275.039-3.666-.154a2.075,2.075,0,0,1-.386-1.5l.153-18.291q0-1.543.039-2.507.117-2.583.116-4.59,0-1.735-.116-4.05-.077-1.466-.076-2.083c0-.333.012-.666.038-1q.117-1.929.116-2.122l-.039-.424v-.694L534,7.889l.039-1.08a4,4,0,0,1,.231-.463c.309-.155.528-.257.656-.309l4.783-1.119a3.506,3.506,0,0,0,1.7-.463,1.932,1.932,0,0,0,.423-1.35,2.765,2.765,0,0,0-.311-1.538.951.951,0,0,0-.81-.309q-.192,0-1.426.116-4.167.347-6.829.347l-4.088-.077-5.517.039q-5.785-.309-6.711-.309a1.5,1.5,0,0,0-.734.193c-.026.411-.038.72-.038.926q0,.543.076,1.543a4.955,4.955,0,0,0,.523.293c.078-.108.144-.206.23-.322.17-.229.356-.478.552-.761l.3-.425.263.446c.158.268.333.52.486.743.336.488.541.808.48,1.089.268.085.534.179.795.287l1.467.579a5.113,5.113,0,0,1,2.217,1.022,20.878,20.878,0,0,1,.521,4.455v.54l-.039,3.9-.154,8.6.078,4.012-.039,3.78v3.2l-.232,5.015.077,4.937a6.544,6.544,0,0,1-.231,1.543,3.212,3.212,0,0,1-2.006.5c-.237,0-1.008.1-2.265.284l.332,2.109-.929-1.77c-.04-.076-.081-.15-.125-.224-.159.024-.316.053-.474.079l-.724.662-.225-.2.22-.25-.268.208-.217-.191c-.423.091-.846.183-1.265.294a7.442,7.442,0,0,0-.267,2.352,4.1,4.1,0,0,0,.078.733q.5.039.732.039h.575q3.675-.285,7.853-.4c-.025-.043-.047-.086-.071-.128a3.291,3.291,0,0,1-.465-1.121c-.068-.465.685-1,.692-1.008a.466.466,0,0,1,.494-.082,2.929,2.929,0,0,1,.339.236l-1.18-1.117,1.631-1.854.193.526c.035.1.08.192.126.289a1.83,1.83,0,0,1,.239.864,2.225,2.225,0,0,1-.312.89c-.053.1-.1.2-.15.3l-.173.4c.088.078.173.151.265.236.116.108.239.221.371.338l.3.258-1.146.934,7.393-.217q6.327,0,12.924.226t7.367.27q4.244.309,4.591.309ZM523.16,42l.922-1.334.554,1.522Zm3.531-16.1c-.04.013-.086.035-.132.055a1.019,1.019,0,0,1-.4.115.4.4,0,0,1-.238-.074.869.869,0,0,1-.3-.5,1.287,1.287,0,0,0-.043-.133l-.134-.331.338-.11a1.247,1.247,0,0,0,.132-.055.62.62,0,0,1,.636-.04.871.871,0,0,1,.3.5,1.231,1.231,0,0,0,.043.134l.134.33Zm2.783,1.143.956-1.26.42,1.525Zm.467-13.472a.734.734,0,0,1-.369-.091,4.44,4.44,0,0,1-1.6-1.766c-.137-.25.059-.511.27-.757.365-.425.878-.909,1.247-.774a4.022,4.022,0,0,1,1.356,1.1c.3.306.667.686,1.159,1.157l.425.407-.568.154c-.347.095-.656.207-.922.3a3.231,3.231,0,0,1-1,.263m3.1,6.033-.215.354-.3-.289c-.074-.071-.172-.149-.266-.227-.333-.271-.622-.505-.524-.821a3.81,3.81,0,0,1,.569-1.027c.079-.114.159-.227.232-.343l.3-.477.271.5c.052.092.117.186.18.279a1.535,1.535,0,0,1,.37.9,1.7,1.7,0,0,1-.428.889c-.068.09-.135.18-.19.268m20.476,26.2.551,1.036a1.1,1.1,0,0,0,.069.11.854.854,0,0,1,.188.5.794.794,0,0,1-.252.484.92.92,0,0,0-.079.092l-.665.909Zm-1.063,5.213,2.139-2.552.458.1.017,0,.462.1.292.065h0l.063.014-.7.412Z" fill="#070203"/>
      <path id="パス_71954" data-name="パス 71954" d="M559.188,51.707h1.427a9.15,9.15,0,0,0,1.119-.154,15.729,15.729,0,0,0,.54-3.4q.695-6.944.694-9.721v-1.08a15.951,15.951,0,0,0-2.083-.154h-1.234a23.33,23.33,0,0,1-1.871,4.475,11.068,11.068,0,0,1-2.14,2.507,8.359,8.359,0,0,1-3.473,2.16c-.075.026-.152.047-.228.072l-.146.683-.142.661-.215-.316-.25.241c-.4.735-.778,1.477-1.16,2.218l-.6,1.166-1.347-1.3,2.572-2.486c.03-.055.06-.111.09-.165a.868.868,0,0,1,.277-.29l-.066-.1a26.861,26.861,0,0,1-8.539,1.043l-2.431-.077-2.275.039-3.666-.154a2.075,2.075,0,0,1-.386-1.5l.153-18.291q0-1.543.039-2.507.117-2.583.116-4.59,0-1.735-.116-4.05-.077-1.466-.076-2.083c0-.333.012-.666.038-1q.117-1.929.116-2.122l-.039-.424v-.694L534,7.889l.039-1.08a4,4,0,0,1,.231-.463c.309-.155.528-.257.656-.309l4.783-1.119a3.506,3.506,0,0,0,1.7-.463,1.932,1.932,0,0,0,.423-1.35,2.765,2.765,0,0,0-.311-1.538.951.951,0,0,0-.81-.309q-.192,0-1.426.116-4.167.347-6.829.347l-4.088-.077-5.517.039q-5.785-.309-6.711-.309a1.5,1.5,0,0,0-.734.193c-.026.411-.038.72-.038.926q0,.543.076,1.543a4.955,4.955,0,0,0,.523.293c.078-.108.144-.206.23-.322.17-.229.356-.478.552-.761l.3-.425.263.446c.158.268.333.52.486.743.336.488.541.808.48,1.089.268.085.534.179.795.287l1.467.579a5.113,5.113,0,0,1,2.217,1.022,20.878,20.878,0,0,1,.521,4.455v.54l-.039,3.9-.154,8.6.078,4.012-.039,3.78v3.2l-.232,5.015.077,4.937a6.544,6.544,0,0,1-.231,1.543,3.212,3.212,0,0,1-2.006.5c-.237,0-1.008.1-2.265.284l.332,2.109-.929-1.77c-.04-.076-.081-.15-.125-.224-.159.024-.316.053-.474.079l-.724.662-.225-.2.22-.25-.268.208-.217-.191c-.423.091-.846.183-1.265.294a7.442,7.442,0,0,0-.267,2.352,4.1,4.1,0,0,0,.078.733q.5.039.732.039h.575q3.675-.285,7.853-.4c-.025-.043-.047-.086-.071-.128a3.291,3.291,0,0,1-.465-1.121c-.068-.465.685-1,.692-1.008a.466.466,0,0,1,.494-.082,2.929,2.929,0,0,1,.339.236l-1.18-1.117,1.631-1.854.193.526c.035.1.08.192.126.289a1.83,1.83,0,0,1,.239.864,2.225,2.225,0,0,1-.312.89c-.053.1-.1.2-.15.3l-.173.4c.088.078.173.151.265.236.116.108.239.221.371.338l.3.258-1.146.934,7.393-.217q6.327,0,12.924.226t7.367.27q4.244.309,4.591.309ZM523.16,42l.922-1.334.554,1.522Zm3.531-16.1c-.04.013-.086.035-.132.055a1.019,1.019,0,0,1-.4.115.4.4,0,0,1-.238-.074.869.869,0,0,1-.3-.5,1.287,1.287,0,0,0-.043-.133l-.134-.331.338-.11a1.247,1.247,0,0,0,.132-.055.62.62,0,0,1,.636-.04.871.871,0,0,1,.3.5,1.231,1.231,0,0,0,.043.134l.134.33Zm2.783,1.143.956-1.26.42,1.525Zm.467-13.472a.734.734,0,0,1-.369-.091,4.44,4.44,0,0,1-1.6-1.766c-.137-.25.059-.511.27-.757.365-.425.878-.909,1.247-.774a4.022,4.022,0,0,1,1.356,1.1c.3.306.667.686,1.159,1.157l.425.407-.568.154c-.347.095-.656.207-.922.3A3.231,3.231,0,0,1,529.941,13.569Zm3.1,6.033-.215.354-.3-.289c-.074-.071-.172-.149-.266-.227-.333-.271-.622-.505-.524-.821a3.81,3.81,0,0,1,.569-1.027c.079-.114.159-.227.232-.343l.3-.477.271.5c.052.092.117.186.18.279a1.535,1.535,0,0,1,.37.9,1.7,1.7,0,0,1-.428.889C533.163,19.424,533.1,19.514,533.041,19.6Zm20.476,26.2.551,1.036a1.1,1.1,0,0,0,.069.11.854.854,0,0,1,.188.5.794.794,0,0,1-.252.484.92.92,0,0,0-.079.092l-.665.909Zm-1.063,5.213,2.139-2.552.458.1.017,0,.462.1.292.065h0l.063.014-.7.412Z" fill="none" stroke="#070203" stroke-width="0.5"/>
      <path id="パス_71955" data-name="パス 71955" d="M440.572,42.928a1.608,1.608,0,0,1-.184-.01c-1.2-.142-2.231-1.383-3.152-2.614a19.647,19.647,0,0,1-3.1,4.388,9.046,9.046,0,0,1-4.556,2.584,43.765,43.765,0,0,1-9.1.81q-8.1,0-9.682-.81a2.05,2.05,0,0,1-1.042-2.006l.076-8.331q-.154-3.048-.154-7.638,0-.312.039-1.312,2.931-.309,8.756-.309c.8-.037,1.6-.036,2.4-.01.078-.146.158-.3.247-.461.186-.346.4-.74.635-1.209l.255-.5.318.467c.295.433.583.813.824,1.128a7.734,7.734,0,0,1,.564.805l.156.019.1-.634,1.471.892-.47.131a2.815,2.815,0,0,1,.747.689,15.586,15.586,0,0,1,1.389,4.475q.424,1.929.579,2.546h2.743v-.849q-.008-1.118-.124-3.413c0-.059-.005-.107-.008-.165l-.305-.245.262-.685c-.043-.977-.065-1.726-.065-2.242q0-.656.058-1.813t.058-5.208c0-.742-.023-1.727-.063-2.9l-.091.009h0l-.151.015-.045-.158-.989-.72.549-.367c.036-.026.073-.049.109-.073l-.131-.46.364.336a.294.294,0,0,1,.336.084c-.014-.319-.025-.627-.041-.971l-2.237-.039-.5.039a53.029,53.029,0,0,1-1.35,5.67,3.98,3.98,0,0,1-1.234,1.678,9.573,9.573,0,0,1-3.626.752q-2.936.27-9.836.27a14.169,14.169,0,0,1-1.659-.116v-4.86l-.077-6.48c0-2.1.009-3.758.026-5.006l-.15.08L409.4,5.244l-.869.509.524-1.019s.04-.077.077-.151l-.04-.067L409.1,4.5l-.416-.839,1.345.823.322.2-.307.181v.044c.094.189.187.382.28.573,2.329-.088,4.93-.134,7.831-.134q4.128,0,7.715.309,1.968.155,2.353.193a10.379,10.379,0,0,1,2.469.309A17.806,17.806,0,0,1,433.165,9.7l1.544,2.738c.089.231.172.446.254.651l0-.03c.017-.1.034-.192.057-.3l-.019-.311.651.039h0l.079,0,.225.013h0l.53.032-.515.436.056,1.768c.444.031.751.047.912.047l1.582-.077c.013-.154.023-.289.029-.4l-.145-.089.147.035c.005-.088.008-.172.008-.235l-.077-1.582V4.5a3,3,0,0,0-.694-2.083,60.652,60.652,0,0,0-6.943-.579l-6.982.077q-6.945,0-15.545.347l-1.171.046c.005.013.014.022.018.034a5.263,5.263,0,0,1-.011,2.6,6.716,6.716,0,0,0-.147,1.8c.029.233-.161.395-.329.511a1.8,1.8,0,0,1-.847.334.481.481,0,0,1-.224-.049c-.48-.251-1.287-.764-1.33-1.369-.088-1.248-.078-2.515-.066-3.747q-.955.033-1.647.051l-.889.574-.075-.552-.418,0c-.893.008-1.786-.016-2.677-.054a3.355,3.355,0,0,0,.63,1.11l.291.364L399,4.068c-.29.1-.641.257-.994.409a5.516,5.516,0,0,1-1.68.579.443.443,0,0,1-.381-.176,16.044,16.044,0,0,1-1.706-2.8c-.034-.005-.069-.007-.1-.012q-1.618-.231-3.819-.347l-.2,3.088q.968.115,1.7.154a25.246,25.246,0,0,1,4.243.54q.733.155,1.157.231a1.885,1.885,0,0,1,1.157.54,7.4,7.4,0,0,1,.077.771l.347,4.783-.039,4.359.193,6.172-.039,4.359.12,14.539-.039,1.2q.039,1.581.039,2.237a8.024,8.024,0,0,1-.428,2.813,18.621,18.621,0,0,1-5.554,1.237,24.16,24.16,0,0,0-2.932.424V51.83l4.667-.154h1.62q6.75-.385,11.379-.386,9.294,0,15.893.27,9.373.387,11.534.386,1.467,0,3.973-.116l.694-4.4.886-4.522a1.741,1.741,0,0,1-.191.02M428.4,28.437l.26.393c.052.078.105.151.159.224a2.3,2.3,0,0,1,.362.622c.1.305-.191.669-.225.711a.447.447,0,0,1-.339.185.526.526,0,0,1-.056,0,3.863,3.863,0,0,1-.749-.22l-.667-.234Zm-24.036,6.6.267-.09a3.651,3.651,0,0,1,.822-.216.531.531,0,0,1,.425.187.885.885,0,0,1,.283.609.869.869,0,0,1-.4.546.6.6,0,0,1-.33.116.405.405,0,0,1-.126-.02,3.561,3.561,0,0,1-.768-.385l-.909-.519Zm2.83,13.383c-.034.109-.07.25-.108.39-.155.588-.229.871-.525.871l-.043,0c-.807-.071-1.613-.2-2.4-.326l-.413.014s-.094,0-.184.007l-1.031.22.506-.687.007-.012a.577.577,0,0,1,.047-.063l.147-.2.068-.092h0l.042-.057.207.1.3.049,3.541-.755Z" fill="#070203"/>
      <path id="パス_71956" data-name="パス 71956" d="M440.572,42.928a1.608,1.608,0,0,1-.184-.01c-1.2-.142-2.231-1.383-3.152-2.614a19.647,19.647,0,0,1-3.1,4.388,9.046,9.046,0,0,1-4.556,2.584,43.765,43.765,0,0,1-9.1.81q-8.1,0-9.682-.81a2.05,2.05,0,0,1-1.042-2.006l.076-8.331q-.154-3.048-.154-7.638,0-.312.039-1.312,2.931-.309,8.756-.309c.8-.037,1.6-.036,2.4-.01.078-.146.158-.3.247-.461.186-.346.4-.74.635-1.209l.255-.5.318.467c.295.433.583.813.824,1.128a7.734,7.734,0,0,1,.564.805l.156.019.1-.634,1.471.892-.47.131a2.815,2.815,0,0,1,.747.689,15.586,15.586,0,0,1,1.389,4.475q.424,1.929.579,2.546h2.743v-.849q-.008-1.118-.124-3.413c0-.059-.005-.107-.008-.165l-.305-.245.262-.685c-.043-.977-.065-1.726-.065-2.242q0-.656.058-1.813t.058-5.208c0-.742-.023-1.727-.063-2.9l-.091.009h0l-.151.015-.045-.158-.989-.72.549-.367c.036-.026.073-.049.109-.073l-.131-.46.364.336a.294.294,0,0,1,.336.084c-.014-.319-.025-.627-.041-.971l-2.237-.039-.5.039a53.029,53.029,0,0,1-1.35,5.67,3.98,3.98,0,0,1-1.234,1.678,9.573,9.573,0,0,1-3.626.752q-2.936.27-9.836.27a14.169,14.169,0,0,1-1.659-.116v-4.86l-.077-6.48c0-2.1.009-3.758.026-5.006l-.15.08L409.4,5.244l-.869.509.524-1.019s.04-.077.077-.151l-.04-.067L409.1,4.5l-.416-.839,1.345.823.322.2-.307.181v.044c.094.189.187.382.28.573,2.329-.088,4.93-.134,7.831-.134q4.128,0,7.715.309,1.968.155,2.353.193a10.379,10.379,0,0,1,2.469.309A17.806,17.806,0,0,1,433.165,9.7l1.544,2.738c.089.231.172.446.254.651l0-.03c.017-.1.034-.192.057-.3l-.019-.311.651.039h0l.079,0,.225.013h0l.53.032-.515.436.056,1.768c.444.031.751.047.912.047l1.582-.077c.013-.154.023-.289.029-.4l-.145-.089.147.035c.005-.088.008-.172.008-.235l-.077-1.582V4.5a3,3,0,0,0-.694-2.083,60.652,60.652,0,0,0-6.943-.579l-6.982.077q-6.945,0-15.545.347l-1.171.046c.005.013.014.022.018.034a5.263,5.263,0,0,1-.011,2.6,6.716,6.716,0,0,0-.147,1.8c.029.233-.161.395-.329.511a1.8,1.8,0,0,1-.847.334.481.481,0,0,1-.224-.049c-.48-.251-1.287-.764-1.33-1.369-.088-1.248-.078-2.515-.066-3.747q-.955.033-1.647.051l-.889.574-.075-.552-.418,0c-.893.008-1.786-.016-2.677-.054a3.355,3.355,0,0,0,.63,1.11l.291.364L399,4.068c-.29.1-.641.257-.994.409a5.516,5.516,0,0,1-1.68.579.443.443,0,0,1-.381-.176,16.044,16.044,0,0,1-1.706-2.8c-.034-.005-.069-.007-.1-.012q-1.618-.231-3.819-.347l-.2,3.088q.968.115,1.7.154a25.246,25.246,0,0,1,4.243.54q.733.155,1.157.231a1.885,1.885,0,0,1,1.157.54,7.4,7.4,0,0,1,.077.771l.347,4.783-.039,4.359.193,6.172-.039,4.359.12,14.539-.039,1.2q.039,1.581.039,2.237a8.024,8.024,0,0,1-.428,2.813,18.621,18.621,0,0,1-5.554,1.237,24.16,24.16,0,0,0-2.932.424V51.83l4.667-.154h1.62q6.75-.385,11.379-.386,9.294,0,15.893.27,9.373.387,11.534.386,1.467,0,3.973-.116l.694-4.4.886-4.522A1.741,1.741,0,0,1,440.572,42.928ZM428.4,28.437l.26.393c.052.078.105.151.159.224a2.3,2.3,0,0,1,.362.622c.1.305-.191.669-.225.711a.447.447,0,0,1-.339.185.526.526,0,0,1-.056,0,3.863,3.863,0,0,1-.749-.22l-.667-.234Zm-24.036,6.6.267-.09a3.651,3.651,0,0,1,.822-.216.531.531,0,0,1,.425.187.885.885,0,0,1,.283.609.869.869,0,0,1-.4.546.6.6,0,0,1-.33.116.405.405,0,0,1-.126-.02,3.561,3.561,0,0,1-.768-.385l-.909-.519Zm2.83,13.383c-.034.109-.07.25-.108.39-.155.588-.229.871-.525.871l-.043,0c-.807-.071-1.613-.2-2.4-.326l-.413.014s-.094,0-.184.007l-1.031.22.506-.687.007-.012a.577.577,0,0,1,.047-.063l.147-.2.068-.092h0l.042-.057.207.1.3.049,3.541-.755Z" fill="none" stroke="#070203" stroke-width="0.5"/>
      <path id="パス_71957" data-name="パス 71957" d="M492.543,48.433c-.051-.014-.1-.021-.155-.034-.053.15-.105.3-.158.453,0,.076,0,.149-.005.224l.148-.02-.174.241c-.009.075-.013.15-.025.225l-.112.81-.367-.342-2.928.24.38.215-.469.049.429.671-.531.355,3.106.151,1.2-.039.733.039a11.789,11.789,0,0,0,.116-1.466,10.9,10.9,0,0,0-.146-1.541Z" fill="#070203"/>
      <path id="パス_71958" data-name="パス 71958" d="M492.543,48.433c-.051-.014-.1-.021-.155-.034-.053.15-.105.3-.158.453,0,.076,0,.149-.005.224l.148-.02-.174.241c-.009.075-.013.15-.025.225l-.112.81-.367-.342-2.928.24.38.215-.469.049.429.671-.531.355,3.106.151,1.2-.039.733.039a11.789,11.789,0,0,0,.116-1.466,10.9,10.9,0,0,0-.146-1.541Z" fill="none" stroke="#070203" stroke-width="0.5"/>
      <path id="パス_71959" data-name="パス 71959" d="M504.411,33.383l-2.339-4.468,3.492-.587c-.006-.628-.015-1.006-.025-1.109l-.077-.849q.115-1.428.154-3.4l.023-.625c-.019.059-.041.114-.062.163a1.091,1.091,0,0,0-.043.107l-.133.413-.364-.233a1.03,1.03,0,0,0-.1-.057.794.794,0,0,1-.4-.355.662.662,0,0,1,.061-.549.831.831,0,0,0,.042-.106l.123-.4.361.207a1.071,1.071,0,0,0,.107.049.716.716,0,0,1,.427.363.141.141,0,0,1,0,.02l.194-5.173q-1.276-.115-1.7-.116-.193,0-.733.039-.849.039-1.042.039a17.763,17.763,0,0,1-.6,4.61,3.53,3.53,0,0,1-1.331,1.562,7.806,7.806,0,0,1-2.7.617A36.393,36.393,0,0,1,493,23.9h-4.629l-2.739-.039a1.6,1.6,0,0,1-.579-.27,25.339,25.339,0,0,1-.27-4.938l.116-5.246-.116-4.59a4.586,4.586,0,0,1,.5-2.276,7.708,7.708,0,0,1,1.234-.386,34.739,34.739,0,0,1,5.362-.386l5.323-.154q5.207,0,6.345.714t2.758,4.61a8.385,8.385,0,0,0,.887,1.736,2.012,2.012,0,0,0,1.234.347,16.492,16.492,0,0,0,2.044-.193,5.3,5.3,0,0,0,.231-1.774L510.118,3.8a18.033,18.033,0,0,0-.309-2.314q-.655.039-1.408.116c-.5.051-.906.077-1.215.077l-6.9.231h-.264l-.833.185.134-.185h-.657l-.771.039-1.89-.039-.733.039q-4.9.231-9.412.231-8.988,0-13.617-.463l-5.092-.193V2.8a.608.608,0,0,1,.608-.112,1.381,1.381,0,0,1,.563.674c.043.083.086.165.133.239l.181.284-.285.178c-.068.042-.143.1-.22.157s-.18.133-.268.188l.214.053a23.171,23.171,0,0,0,2.237.617q3.164.54,3.742,1.08l.3,8.468.319-.256.777,2.146-1.008.559.072,2,0,.254.567.729-.58.351-.024,2.073.295.306,0,0,.346.357-.321.128-.241.7-.1-.027-.02,1.687.154,5.516-.039,3.742.145,8.372a9.944,9.944,0,0,1,1.841-1.228c.239-.113.489.059.8.373.434.431.917,1.023.75,1.4a4.756,4.756,0,0,1-1.9,2.4.714.714,0,0,1-.341.08,3.1,3.1,0,0,1-1.272-.475,12.872,12.872,0,0,1-.257,1.39l-.733.463c-.816.208-1.632.4-2.447.573l.086.25-.469-.169c-.368.078-.737.161-1.1.233q-1.967.385-2.816.579l-.077,2.777c.478.02,1.282.032,2.394.037l.3-.11-.147.11.884,0q.27,0,3.317-.347c.321-.038.643-.055.965-.084l.12-1.641.541,1.141a.959.959,0,0,0,.056.093.909.909,0,0,1,.145.332c.212-.013.425-.02.637-.029l1.168-.679-.684.666c.368-.011.734-.031,1.1-.03q7.715,0,8.641.039l1.311.064-.019-.092a4.4,4.4,0,0,1-.121-.748l-.74.077.655-.588.058-.214a.3.3,0,0,1,.285-.232v-.016l.137-.012.659-.054,2.974-.4.158-.442,0-.016c0-.17.007-.34.011-.51a14.171,14.171,0,0,0-2.081-.287l-.771-.077a6.73,6.73,0,0,1-2.893-.926q-.654-.735-.694-3.935l-.057-3.439-1.6.918.5-1.647,1.087.514-.132-7.918a22.971,22.971,0,0,1,.27-3.742,23.917,23.917,0,0,1,3.317-.27q9.8,0,11.649.926,1.041.5,1.929,3.549a16.5,16.5,0,0,0,.771,2.122,11.262,11.262,0,0,0,1.319.2ZM475.863,38.26a1.3,1.3,0,0,0-.121.05.971.971,0,0,1-.376.1.405.405,0,0,1-.236-.074.8.8,0,0,1-.275-.486c-.012-.042-.024-.085-.038-.123l-.121-.323.328-.11a.972.972,0,0,0,.121-.05.574.574,0,0,1,.618-.025.882.882,0,0,1,.267.472,1.1,1.1,0,0,0,.041.123l.132.332Zm3.9-27.085a3.745,3.745,0,0,1-.792,1.427c-.13.17-.26.341-.373.514l-.253.386-.286-.362a4.862,4.862,0,0,0-.367-.392c-.358-.36-.729-.732-.709-1.179a3.813,3.813,0,0,1,.593-1.582c.144-.269.3-.567.464-.912l.261-.564.324.53c.2.328.4.606.577.846.376.515.648.887.561,1.288m.691-5.986c-.153.182-.286.353-.41.51a4.445,4.445,0,0,1-.943.994.369.369,0,0,1-.208.062.792.792,0,0,1-.38-.133c-.037-.022-.917-.545-.874-1.041a2.708,2.708,0,0,1,.52-1.192c.086-.134.172-.266.245-.4l.16-.3,2.147,1.186Zm1.648-2.41c.1-.029.2-.069.3-.109a1.483,1.483,0,0,1,.972-.151c.322.1.4.47.485.863a3.3,3.3,0,0,0,.079.328l.072.226-1.421,1.057-.847-2.113Zm.864,30.778-1.057-.585.16-.29c.014-.028.027-.059.04-.09a.7.7,0,0,1,.315-.4,1.049,1.049,0,0,1,.484-.075.9.9,0,0,0,.127,0l.528-.034Zm1.08-6.429-.32-.639a4.206,4.206,0,0,1-.311-.732c-.083-.278.164-.442.381-.587.051-.033.1-.067.138-.1l.333-.256.67,1.471Z" fill="#070203"/>
      <path id="パス_71960" data-name="パス 71960" d="M504.411,33.383l-2.339-4.468,3.492-.587c-.006-.628-.015-1.006-.025-1.109l-.077-.849q.115-1.428.154-3.4l.023-.625c-.019.059-.041.114-.062.163a1.091,1.091,0,0,0-.043.107l-.133.413-.364-.233a1.03,1.03,0,0,0-.1-.057.794.794,0,0,1-.4-.355.662.662,0,0,1,.061-.549.831.831,0,0,0,.042-.106l.123-.4.361.207a1.071,1.071,0,0,0,.107.049.716.716,0,0,1,.427.363.141.141,0,0,1,0,.02l.194-5.173q-1.276-.115-1.7-.116-.193,0-.733.039-.849.039-1.042.039a17.763,17.763,0,0,1-.6,4.61,3.53,3.53,0,0,1-1.331,1.562,7.806,7.806,0,0,1-2.7.617A36.393,36.393,0,0,1,493,23.9h-4.629l-2.739-.039a1.6,1.6,0,0,1-.579-.27,25.339,25.339,0,0,1-.27-4.938l.116-5.246-.116-4.59a4.586,4.586,0,0,1,.5-2.276,7.708,7.708,0,0,1,1.234-.386,34.739,34.739,0,0,1,5.362-.386l5.323-.154q5.207,0,6.345.714t2.758,4.61a8.385,8.385,0,0,0,.887,1.736,2.012,2.012,0,0,0,1.234.347,16.492,16.492,0,0,0,2.044-.193,5.3,5.3,0,0,0,.231-1.774L510.118,3.8a18.033,18.033,0,0,0-.309-2.314q-.655.039-1.408.116c-.5.051-.906.077-1.215.077l-6.9.231h-.264l-.833.185.134-.185h-.657l-.771.039-1.89-.039-.733.039q-4.9.231-9.412.231-8.988,0-13.617-.463l-5.092-.193V2.8a.608.608,0,0,1,.608-.112,1.381,1.381,0,0,1,.563.674c.043.083.086.165.133.239l.181.284-.285.178c-.068.042-.143.1-.22.157s-.18.133-.268.188l.214.053a23.171,23.171,0,0,0,2.237.617q3.164.54,3.742,1.08l.3,8.468.319-.256.777,2.146-1.008.559.072,2,0,.254.567.729-.58.351-.024,2.073.295.306,0,0,.346.357-.321.128-.241.7-.1-.027-.02,1.687.154,5.516-.039,3.742.145,8.372a9.944,9.944,0,0,1,1.841-1.228c.239-.113.489.059.8.373.434.431.917,1.023.75,1.4a4.756,4.756,0,0,1-1.9,2.4.714.714,0,0,1-.341.08,3.1,3.1,0,0,1-1.272-.475,12.872,12.872,0,0,1-.257,1.39l-.733.463c-.816.208-1.632.4-2.447.573l.086.25-.469-.169c-.368.078-.737.161-1.1.233q-1.967.385-2.816.579l-.077,2.777c.478.02,1.282.032,2.394.037l.3-.11-.147.11.884,0q.27,0,3.317-.347c.321-.038.643-.055.965-.084l.12-1.641.541,1.141a.959.959,0,0,0,.056.093.909.909,0,0,1,.145.332c.212-.013.425-.02.637-.029l1.168-.679-.684.666c.368-.011.734-.031,1.1-.03q7.715,0,8.641.039l1.311.064-.019-.092a4.4,4.4,0,0,1-.121-.748l-.74.077.655-.588.058-.214a.3.3,0,0,1,.285-.232v-.016l.137-.012.659-.054,2.974-.4.158-.442,0-.016c0-.17.007-.34.011-.51a14.171,14.171,0,0,0-2.081-.287l-.771-.077a6.73,6.73,0,0,1-2.893-.926q-.654-.735-.694-3.935l-.057-3.439-1.6.918.5-1.647,1.087.514-.132-7.918a22.971,22.971,0,0,1,.27-3.742,23.917,23.917,0,0,1,3.317-.27q9.8,0,11.649.926,1.041.5,1.929,3.549a16.5,16.5,0,0,0,.771,2.122,11.262,11.262,0,0,0,1.319.2ZM475.863,38.26a1.3,1.3,0,0,0-.121.05.971.971,0,0,1-.376.1.405.405,0,0,1-.236-.074.8.8,0,0,1-.275-.486c-.012-.042-.024-.085-.038-.123l-.121-.323.328-.11a.972.972,0,0,0,.121-.05.574.574,0,0,1,.618-.025.882.882,0,0,1,.267.472,1.1,1.1,0,0,0,.041.123l.132.332Zm3.9-27.085a3.745,3.745,0,0,1-.792,1.427c-.13.17-.26.341-.373.514l-.253.386-.286-.362a4.862,4.862,0,0,0-.367-.392c-.358-.36-.729-.732-.709-1.179a3.813,3.813,0,0,1,.593-1.582c.144-.269.3-.567.464-.912l.261-.564.324.53c.2.328.4.606.577.846C479.575,10.4,479.847,10.774,479.76,11.175Zm.691-5.986c-.153.182-.286.353-.41.51a4.445,4.445,0,0,1-.943.994.369.369,0,0,1-.208.062.792.792,0,0,1-.38-.133c-.037-.022-.917-.545-.874-1.041a2.708,2.708,0,0,1,.52-1.192c.086-.134.172-.266.245-.4l.16-.3,2.147,1.186Zm1.648-2.41c.1-.029.2-.069.3-.109a1.483,1.483,0,0,1,.972-.151c.322.1.4.47.485.863a3.3,3.3,0,0,0,.079.328l.072.226-1.421,1.057-.847-2.113Zm.864,30.778-1.057-.585.16-.29c.014-.028.027-.059.04-.09a.7.7,0,0,1,.315-.4,1.049,1.049,0,0,1,.484-.075.9.9,0,0,0,.127,0l.528-.034Zm1.08-6.429-.32-.639a4.206,4.206,0,0,1-.311-.732c-.083-.278.164-.442.381-.587.051-.033.1-.067.138-.1l.333-.256.67,1.471Z" fill="none" stroke="#070203" stroke-width="0.5"/>
      <path id="パス_71961" data-name="パス 71961" d="M345.106,3.645a11.746,11.746,0,0,0-.231-1.774l-.657-.077a68.743,68.743,0,0,1-7.058.347l-7.368-.309h-3.047l-.077,2.932.5.116,3.626-.077A3.9,3.9,0,0,1,333.57,6a4.941,4.941,0,0,1,.85,3.047l.153,2.044q1,11.688,1,21.023a31.008,31.008,0,0,1-.733,7.908A15.1,15.1,0,0,1,332.912,44a9.322,9.322,0,0,1-2.334,2.218A11.406,11.406,0,0,1,327,47.971a23.874,23.874,0,0,1-6.9.964,14.173,14.173,0,0,1-6.366-1.62,8.531,8.531,0,0,1-3.471-3.2,14.784,14.784,0,0,1-1.852-6.982l-.036-.7-.272-.688.244.161-.411-7.973-.1.039-.014.006-.6.234-1.02.4,1.2-1.118.242-.946.279.387.142-6.156-.231-3.086.078-3.626-.039-1.389q-.039-.773-.039-2.006,0-4.05.462-4.59.694-.849,2.854-.849a31.622,31.622,0,0,0,4.476-.309V4.614l-.078-2.276.039-.463q-.8.037-3.105.077t-5.246.174q-2.951.135-6.036.135-.888,0-5.979-.27-2.121-.117-4.051-.116-.732,0-1.426.039l.115,3.047a9.616,9.616,0,0,0,1.616.121q4.436.15,5.284,1.35.618.849.617,7.368l-.018,8.879.072-.1.809-1.123,1.1,2.207-1.991,2.316L297.34,32.2a43.835,43.835,0,0,0,.58,8.178,14.716,14.716,0,0,0,2.99,6.77,15.1,15.1,0,0,0,6.461,4.2,29.342,29.342,0,0,0,10.26,1.6,33.2,33.2,0,0,0,9.186-1.142,20.451,20.451,0,0,0,6.559-3.087,15.548,15.548,0,0,0,4.049-4.262,13.464,13.464,0,0,0,1.467-4.2,64.923,64.923,0,0,0,.551-9.285l-.716,1.559-.337-.393a1.482,1.482,0,0,0-.119-.118c-.164-.152-.367-.342-.306-.606a3.539,3.539,0,0,1,.3-.769c.041-.084.083-.17.121-.256l.2-.452.345.355c.133.136.267.273.4.407l.114.112c0-.362,0-.723-.01-1.085l-.382-7.835q-.076-2.856-.192-5.632-.039-.81-.059-1.582t-.019-2.122a32.689,32.689,0,0,0-.115-3.356q-.117-1.312-.117-2.006a1.78,1.78,0,0,1,.54-1.427,10.4,10.4,0,0,1,2.854-.579,12.7,12.7,0,0,0,3.01-.5,4.476,4.476,0,0,0,.154-1.042M298.172,34a3.646,3.646,0,0,1,.36-.775c.043-.074.085-.148.121-.218l.2-.378.319.284c.037.034.09.073.143.112.23.173.466.351.366.632a4.8,4.8,0,0,1-.391.8l-.371.675-.314-.37c-.036-.041-.081-.085-.127-.128-.178-.173-.382-.369-.3-.636m2.307,5.275a2.854,2.854,0,0,0-.287.108,1.841,1.841,0,0,1-.654.178.606.606,0,0,1-.284-.065,1.542,1.542,0,0,1-.592-.762c-.047-.1-.1-.2-.148-.289l-.229-.377.427-.116a2.857,2.857,0,0,0,.3-.106.958.958,0,0,1,1.534.658,3.168,3.168,0,0,0,.132.292l.2.363Zm4.991-8.28.263.235c.111.1.225.191.34.284a3.583,3.583,0,0,1,.85.861c.178.286-.032.6-.277.963-.07.1-.142.208-.191.3l-.178.325-2.033-1.415Zm2.3,14.07-.278,1.181.074.073-.132.171-.119.506-.155-.15-.789,1.028.2-1.352h-.111l.178-.441.088-.578.1.1.3-.743.039-.167-3.38-1.276.079-.259q-.054-.594-.11-1.181l-.173-1.3-.04-.078-.175-.175.224-.1-.069-.688.393.393,1.341-1.673.879,1.582-.337.147q-.748.325-1.5.653c.038.386.076.771.115,1.159l.125.943,3.256,1.316.175.277.027.041h0l.443.7-.628-.237Z" fill="#070203"/>
      <path id="パス_71962" data-name="パス 71962" d="M345.106,3.645a11.746,11.746,0,0,0-.231-1.774l-.657-.077a68.743,68.743,0,0,1-7.058.347l-7.368-.309h-3.047l-.077,2.932.5.116,3.626-.077A3.9,3.9,0,0,1,333.57,6a4.941,4.941,0,0,1,.85,3.047l.153,2.044q1,11.688,1,21.023a31.008,31.008,0,0,1-.733,7.908A15.1,15.1,0,0,1,332.912,44a9.322,9.322,0,0,1-2.334,2.218A11.406,11.406,0,0,1,327,47.971a23.874,23.874,0,0,1-6.9.964,14.173,14.173,0,0,1-6.366-1.62,8.531,8.531,0,0,1-3.471-3.2,14.784,14.784,0,0,1-1.852-6.982l-.036-.7-.272-.688.244.161-.411-7.973-.1.039-.014.006-.6.234-1.02.4,1.2-1.118.242-.946.279.387.142-6.156-.231-3.086.078-3.626-.039-1.389q-.039-.773-.039-2.006,0-4.05.462-4.59.694-.849,2.854-.849a31.622,31.622,0,0,0,4.476-.309V4.614l-.078-2.276.039-.463q-.8.037-3.105.077t-5.246.174q-2.951.135-6.036.135-.888,0-5.979-.27-2.121-.117-4.051-.116-.732,0-1.426.039l.115,3.047a9.616,9.616,0,0,0,1.616.121q4.436.15,5.284,1.35.618.849.617,7.368l-.018,8.879.072-.1.809-1.123,1.1,2.207-1.991,2.316L297.34,32.2a43.835,43.835,0,0,0,.58,8.178,14.716,14.716,0,0,0,2.99,6.77,15.1,15.1,0,0,0,6.461,4.2,29.342,29.342,0,0,0,10.26,1.6,33.2,33.2,0,0,0,9.186-1.142,20.451,20.451,0,0,0,6.559-3.087,15.548,15.548,0,0,0,4.049-4.262,13.464,13.464,0,0,0,1.467-4.2,64.923,64.923,0,0,0,.551-9.285l-.716,1.559-.337-.393a1.482,1.482,0,0,0-.119-.118c-.164-.152-.367-.342-.306-.606a3.539,3.539,0,0,1,.3-.769c.041-.084.083-.17.121-.256l.2-.452.345.355c.133.136.267.273.4.407l.114.112c0-.362,0-.723-.01-1.085l-.382-7.835q-.076-2.856-.192-5.632-.039-.81-.059-1.582t-.019-2.122a32.689,32.689,0,0,0-.115-3.356q-.117-1.312-.117-2.006a1.78,1.78,0,0,1,.54-1.427,10.4,10.4,0,0,1,2.854-.579,12.7,12.7,0,0,0,3.01-.5A4.476,4.476,0,0,0,345.106,3.645ZM298.172,34a3.646,3.646,0,0,1,.36-.775c.043-.074.085-.148.121-.218l.2-.378.319.284c.037.034.09.073.143.112.23.173.466.351.366.632a4.8,4.8,0,0,1-.391.8l-.371.675-.314-.37c-.036-.041-.081-.085-.127-.128C298.3,34.462,298.094,34.266,298.172,34Zm2.307,5.275a2.854,2.854,0,0,0-.287.108,1.841,1.841,0,0,1-.654.178.606.606,0,0,1-.284-.065,1.542,1.542,0,0,1-.592-.762c-.047-.1-.1-.2-.148-.289l-.229-.377.427-.116a2.857,2.857,0,0,0,.3-.106.958.958,0,0,1,1.534.658,3.168,3.168,0,0,0,.132.292l.2.363Zm4.991-8.28.263.235c.111.1.225.191.34.284a3.583,3.583,0,0,1,.85.861c.178.286-.032.6-.277.963-.07.1-.142.208-.191.3l-.178.325-2.033-1.415Zm2.3,14.07-.278,1.181.074.073-.132.171-.119.506-.155-.15-.789,1.028.2-1.352h-.111l.178-.441.088-.578.1.1.3-.743.039-.167-3.38-1.276.079-.259q-.054-.594-.11-1.181l-.173-1.3-.04-.078-.175-.175.224-.1-.069-.688.393.393,1.341-1.673.879,1.582-.337.147q-.748.325-1.5.653c.038.386.076.771.115,1.159l.125.943,3.256,1.316.175.277.027.041h0l.443.7-.628-.237Z" fill="none" stroke="#070203" stroke-width="0.5"/>
      <path id="パス_71963" data-name="パス 71963" d="M55.673,1.231l-2.21.211-.161.016-.174.265-.457-.582L52.552.989c-.071,0-.141,0-.212.006l-.18.165a1.607,1.607,0,0,0-.109.119.774.774,0,0,1-.548.342H51.49a.749.749,0,0,1-.538-.374c-.036-.044-.069-.088-.1-.124L50.821,1.1q-.594.069-1.18.184l-.132.32-.177-.252a15.866,15.866,0,0,0-4.317,1.6,13.853,13.853,0,0,0-5.67,5.883,17.961,17.961,0,0,0-2.064,8.506,23.081,23.081,0,0,0,.733,5.748,12.067,12.067,0,0,0,1.755,3.838,14.5,14.5,0,0,0,3.414,3.3A22.728,22.728,0,0,0,47.7,32.193a9.757,9.757,0,0,0,2.276.154,15.172,15.172,0,0,0,5.362-.926,1.791,1.791,0,0,0,1.157-1.89,1.914,1.914,0,0,0-.386-1.292,1.116,1.116,0,0,0-.374-.317l-.322.627-.322-.286a1.847,1.847,0,0,0-.147-.116,1.684,1.684,0,0,1-.268-.235,7.067,7.067,0,0,1-2,.308,6.83,6.83,0,0,1-2.728-.611l-.431.124-.026-.4a4.147,4.147,0,0,1-1.136-1.342,10.259,10.259,0,0,1-1.389-3.9,48.08,48.08,0,0,1-.463-6.866q0-5.943,2.353-9.142a5.1,5.1,0,0,1,4.2-2.353,5.222,5.222,0,0,1,1,.137c.067-.068.135-.135.2-.2a7.185,7.185,0,0,1,1.2-1.066c.3-.188.6.052,1.036.389.12.094.239.189.343.256l.392.259-1.44,1.1a5.271,5.271,0,0,1,1.742,1.873q2.392,3.663,2.392,13.5a41.339,41.339,0,0,1-.209,4.464l.284.8-.361-.045c-.17,1.5-.268,2.459-.292,2.878a32.3,32.3,0,0,1-.906,5.69,21.448,21.448,0,0,1-.885,2.856l.7-.258.481,1.355-1.4-.5a21.345,21.345,0,0,1-1.7,3.262,19.907,19.907,0,0,1-1.923,2.547,3.98,3.98,0,0,1,.67.548c.165.16.348.336.563.51l.524.426-.658.155c-.294.069-.554.15-.789.223a3.9,3.9,0,0,1-1.089.23,1.351,1.351,0,0,1-.289-.03,1.147,1.147,0,0,1-.589-.382c-.413.368-.837.724-1.28,1.058a28.345,28.345,0,0,1-4.746,2.808l.234,1.366-.471-.092c-.043-.007-.087-.011-.131-.016a.974.974,0,0,1-.5-.154.632.632,0,0,1-.206-.518c0-.037,0-.076-.009-.11v0c-.356.149-.708.306-1.071.441a7.994,7.994,0,0,0-2.237,1.042,1.409,1.409,0,0,0-.386,1.042,2.246,2.246,0,0,0,.618,1.427q.961.076,1.462.077a22.51,22.51,0,0,0,7.143-1.54,26.925,26.925,0,0,0,2.571-1.106l-.373-.236-1.185.8-.344,0h-.011l-.617.007h-.04l-.395,0,.8-.573.089-.124a6.932,6.932,0,0,1,.454-.6c.161-.174.323-.131.5-.025L52,49.622l-.022.087c.047.031.094.063.143.1l.543.364.57-.251a3.179,3.179,0,0,0,.3-.151,2.129,2.129,0,0,1,.91-.3,1.065,1.065,0,0,1,.285.066,26.862,26.862,0,0,0,4.044-2.855,27.378,27.378,0,0,0,6.25-7.329,40.417,40.417,0,0,0,2.815-5.5A34.582,34.582,0,0,0,69.838,22.74q0-10.57-4.88-16.163a15.512,15.512,0,0,0-9.285-5.346M41.229,10.952,40.9,11.1l-.722,1.96.1-1.688-.229.1.263-.691.017-.292-.549-2.4.7.146c.319.055.593.1.593.407-.007.556-.039,1.107-.071,1.658l.084,0,1.433-.621L43,10.911l-.578.011c-.394.008-.79.015-1.189.03m2.849,3.694a5.461,5.461,0,0,1-.555.37.379.379,0,0,1-.169.045c-.182,0-.3-.174-.426-.356l-.3-.421.88-.53,1.179.455ZM45.721,31.21c-.039-.006-.08-.008-.121-.011a.9.9,0,0,1-.5-.131.6.6,0,0,1-.2-.524c0-.037,0-.073-.006-.106l-.036-.279,1.1-.329.2,1.44Zm.5,20.473-.364-1.4,1.692.212ZM60.995,8.23c.1-.044.213-.087.3-.134l.247-.131.7.9V6.391l1.4.048-.053.368q-.315,2.173-.622,4.35l-.03.212-.691.2v-2.1l-1.372.835-.158-.335c-.041-.087-.093-.176-.143-.263a1.506,1.506,0,0,1-.293-.879c.032-.324.364-.459.715-.6m.411,4.8.036-.191-1.3.513,1.317-1.209s.045-.041.092-.085l-.023-.08.092-.047.093-.491.7.729.2.212-.318.125-.241.695ZM63.35,27.48c-.037.013-.078.032-.118.05a.974.974,0,0,1-.379.106.394.394,0,0,1-.236-.074.8.8,0,0,1-.276-.485c-.012-.041-.022-.083-.036-.121l-.124-.323.328-.111c.036-.012.078-.031.119-.049a.571.571,0,0,1,.622-.025.889.889,0,0,1,.267.475c.013.041.024.082.039.119l.13.329ZM65.6,14.437l1.3-.839-.54,1.085-.1.194-.078.143-.346.054L63.18,16.792l-.126-.949c-.109-.752-.135-.931.184-1,.665-.141,1.343-.245,2-.345Z" fill="#070203"/>
      <path id="パス_71964" data-name="パス 71964" d="M55.673,1.231l-2.21.211-.161.016-.174.265-.457-.582L52.552.989c-.071,0-.141,0-.212.006l-.18.165a1.607,1.607,0,0,0-.109.119.774.774,0,0,1-.548.342H51.49a.749.749,0,0,1-.538-.374c-.036-.044-.069-.088-.1-.124L50.821,1.1q-.594.069-1.18.184l-.132.32-.177-.252a15.866,15.866,0,0,0-4.317,1.6,13.853,13.853,0,0,0-5.67,5.883,17.961,17.961,0,0,0-2.064,8.506,23.081,23.081,0,0,0,.733,5.748,12.067,12.067,0,0,0,1.755,3.838,14.5,14.5,0,0,0,3.414,3.3A22.728,22.728,0,0,0,47.7,32.193a9.757,9.757,0,0,0,2.276.154,15.172,15.172,0,0,0,5.362-.926,1.791,1.791,0,0,0,1.157-1.89,1.914,1.914,0,0,0-.386-1.292,1.116,1.116,0,0,0-.374-.317l-.322.627-.322-.286a1.847,1.847,0,0,0-.147-.116,1.684,1.684,0,0,1-.268-.235,7.067,7.067,0,0,1-2,.308,6.83,6.83,0,0,1-2.728-.611l-.431.124-.026-.4a4.147,4.147,0,0,1-1.136-1.342,10.259,10.259,0,0,1-1.389-3.9,48.08,48.08,0,0,1-.463-6.866q0-5.943,2.353-9.142a5.1,5.1,0,0,1,4.2-2.353,5.222,5.222,0,0,1,1,.137c.067-.068.135-.135.2-.2a7.185,7.185,0,0,1,1.2-1.066c.3-.188.6.052,1.036.389.12.094.239.189.343.256l.392.259-1.44,1.1a5.271,5.271,0,0,1,1.742,1.873q2.392,3.663,2.392,13.5a41.339,41.339,0,0,1-.209,4.464l.284.8-.361-.045c-.17,1.5-.268,2.459-.292,2.878a32.3,32.3,0,0,1-.906,5.69,21.448,21.448,0,0,1-.885,2.856l.7-.258.481,1.355-1.4-.5a21.345,21.345,0,0,1-1.7,3.262,19.907,19.907,0,0,1-1.923,2.547,3.98,3.98,0,0,1,.67.548c.165.16.348.336.563.51l.524.426-.658.155c-.294.069-.554.15-.789.223a3.9,3.9,0,0,1-1.089.23,1.351,1.351,0,0,1-.289-.03,1.147,1.147,0,0,1-.589-.382c-.413.368-.837.724-1.28,1.058a28.345,28.345,0,0,1-4.746,2.808l.234,1.366-.471-.092c-.043-.007-.087-.011-.131-.016a.974.974,0,0,1-.5-.154.632.632,0,0,1-.206-.518c0-.037,0-.076-.009-.11v0c-.356.149-.708.306-1.071.441a7.994,7.994,0,0,0-2.237,1.042,1.409,1.409,0,0,0-.386,1.042,2.246,2.246,0,0,0,.618,1.427q.961.076,1.462.077a22.51,22.51,0,0,0,7.143-1.54,26.925,26.925,0,0,0,2.571-1.106l-.373-.236-1.185.8-.344,0h-.011l-.617.007h-.04l-.395,0,.8-.573.089-.124a6.932,6.932,0,0,1,.454-.6c.161-.174.323-.131.5-.025L52,49.622l-.022.087c.047.031.094.063.143.1l.543.364.57-.251a3.179,3.179,0,0,0,.3-.151,2.129,2.129,0,0,1,.91-.3,1.065,1.065,0,0,1,.285.066,26.862,26.862,0,0,0,4.044-2.855,27.378,27.378,0,0,0,6.25-7.329,40.417,40.417,0,0,0,2.815-5.5A34.582,34.582,0,0,0,69.838,22.74q0-10.57-4.88-16.163A15.512,15.512,0,0,0,55.673,1.231ZM41.229,10.952,40.9,11.1l-.722,1.96.1-1.688-.229.1.263-.691.017-.292-.549-2.4.7.146c.319.055.593.1.593.407-.007.556-.039,1.107-.071,1.658l.084,0,1.433-.621L43,10.911l-.578.011C42.024,10.93,41.628,10.937,41.229,10.952Zm2.849,3.694a5.461,5.461,0,0,1-.555.37.379.379,0,0,1-.169.045c-.182,0-.3-.174-.426-.356l-.3-.421.88-.53,1.179.455ZM45.721,31.21c-.039-.006-.08-.008-.121-.011a.9.9,0,0,1-.5-.131.6.6,0,0,1-.2-.524c0-.037,0-.073-.006-.106l-.036-.279,1.1-.329.2,1.44Zm.5,20.473-.364-1.4,1.692.212ZM60.995,8.23c.1-.044.213-.087.3-.134l.247-.131.7.9V6.391l1.4.048-.053.368q-.315,2.173-.622,4.35l-.03.212-.691.2v-2.1l-1.372.835-.158-.335c-.041-.087-.093-.176-.143-.263a1.506,1.506,0,0,1-.293-.879C60.312,8.51,60.644,8.375,60.995,8.23Zm.411,4.8.036-.191-1.3.513,1.317-1.209s.045-.041.092-.085l-.023-.08.092-.047.093-.491.7.729.2.212-.318.125-.241.695ZM63.35,27.48c-.037.013-.078.032-.118.05a.974.974,0,0,1-.379.106.394.394,0,0,1-.236-.074.8.8,0,0,1-.276-.485c-.012-.041-.022-.083-.036-.121l-.124-.323.328-.111c.036-.012.078-.031.119-.049a.571.571,0,0,1,.622-.025.889.889,0,0,1,.267.475c.013.041.024.082.039.119l.13.329ZM65.6,14.437l1.3-.839-.54,1.085-.1.194-.078.143-.346.054L63.18,16.792l-.126-.949c-.109-.752-.135-.931.184-1,.665-.141,1.343-.245,2-.345Z" fill="none" stroke="#070203" stroke-width="0.5"/>
      <path id="パス_71965" data-name="パス 71965" d="M86.552,52.8l.058-.6.486.412a.94.94,0,0,0,.1.073,1.573,1.573,0,0,1,.181.155l1.246.061a7.739,7.739,0,0,0,1.119,0l24.688-37.868-.25.081c-.041.013-.086.036-.132.055a.992.992,0,0,1-.4.116.4.4,0,0,1-.238-.076.866.866,0,0,1-.295-.5,1.4,1.4,0,0,0-.043-.134l-.135-.333.342-.109a1.235,1.235,0,0,0,.131-.055.622.622,0,0,1,.632-.039.856.856,0,0,1,.295.5c.015.045.028.092.045.132l.108.266,4.98-7.639c.008-.014.018-.027.026-.041l4.5-6.9-.386.039L120.1.251l-.5.116-.55.858c.141.14.278.276.445.437l.426.407-.569.155c-.347.1-.655.207-.922.3-.1.037-.184.062-.276.094q-9.528,14.856-16.6,25.751l.438.112c.034.009.071.015.105.021a.953.953,0,0,1,.409.141,1.438,1.438,0,0,1,.275.277c.018.021.036.041.054.063l1.61.991-1.73-.31-2.2.313c-.248.381-.483.744-.727,1.117l.157.062-.386.29Q92.877,41.723,88.638,48.073l2.027-.625h0l.314-.1v.133l1.453,0-.128,1.355-1.322-.536,0,.553-.666.017-.039-.728-1.693,0c-.671,1.005-1.3,1.948-1.883,2.805a1.278,1.278,0,0,1,.649-.221h.027a1.524,1.524,0,0,1,.842.409c.083.065.168.132.252.185l.371.234-.326.294c-.069.064-.143.145-.219.227-.225.249-.439.485-.705.485a.411.411,0,0,1-.113-.014,2.84,2.84,0,0,1-.954-.52c-.1-.075-.205-.15-.31-.217l-.068-.044c-.264.388-.531.782-.773,1.136l.887-.116Z" fill="#070203"/>
      <path id="パス_71966" data-name="パス 71966" d="M86.552,52.8l.058-.6.486.412a.94.94,0,0,0,.1.073,1.573,1.573,0,0,1,.181.155l1.246.061a7.739,7.739,0,0,0,1.119,0l24.688-37.868-.25.081c-.041.013-.086.036-.132.055a.992.992,0,0,1-.4.116.4.4,0,0,1-.238-.076.866.866,0,0,1-.295-.5,1.4,1.4,0,0,0-.043-.134l-.135-.333.342-.109a1.235,1.235,0,0,0,.131-.055.622.622,0,0,1,.632-.039.856.856,0,0,1,.295.5c.015.045.028.092.045.132l.108.266,4.98-7.639c.008-.014.018-.027.026-.041l4.5-6.9-.386.039L120.1.251l-.5.116-.55.858c.141.14.278.276.445.437l.426.407-.569.155c-.347.1-.655.207-.922.3-.1.037-.184.062-.276.094q-9.528,14.856-16.6,25.751l.438.112c.034.009.071.015.105.021a.953.953,0,0,1,.409.141,1.438,1.438,0,0,1,.275.277c.018.021.036.041.054.063l1.61.991-1.73-.31-2.2.313c-.248.381-.483.744-.727,1.117l.157.062-.386.29Q92.877,41.723,88.638,48.073l2.027-.625h0l.314-.1v.133l1.453,0-.128,1.355-1.322-.536,0,.553-.666.017-.039-.728-1.693,0c-.671,1.005-1.3,1.948-1.883,2.805a1.278,1.278,0,0,1,.649-.221h.027a1.524,1.524,0,0,1,.842.409c.083.065.168.132.252.185l.371.234-.326.294c-.069.064-.143.145-.219.227-.225.249-.439.485-.705.485a.411.411,0,0,1-.113-.014,2.84,2.84,0,0,1-.954-.52c-.1-.075-.205-.15-.31-.217l-.068-.044c-.264.388-.531.782-.773,1.136l.887-.116Z" fill="none" stroke="#070203" stroke-width="0.5"/>
      <path id="パス_71967" data-name="パス 71967" d="M440.458,37.324c-.111,0-.255.009-.38.013l1.555.843c.03-.252.062-.521.1-.817q-.849-.039-1.273-.039" fill="#070203"/>
      <path id="パス_71968" data-name="パス 71968" d="M440.458,37.324c-.111,0-.255.009-.38.013l1.555.843c.03-.252.062-.521.1-.817Q440.882,37.324,440.458,37.324Z" fill="none" stroke="#070203" stroke-width="0.5"/>
      <path id="パス_71969" data-name="パス 71969" d="M32.808,22.739c0-5.552-1.027-10.058-3.047-13.551l-2.033,2.338L24.67,9.092l.364-.255c.2-.143.4-.319.6-.493a2.979,2.979,0,0,1,1.646-.928,3.535,3.535,0,0,1,1.8.737c.028.017.054.031.081.049a16.013,16.013,0,0,0-1.235-1.626A15.206,15.206,0,0,0,26.833,5.4l-.419.059.018-.425A15.525,15.525,0,0,0,15.718.983,15.9,15.9,0,0,0,7.985,2.95a13.853,13.853,0,0,0-5.67,5.883A17.961,17.961,0,0,0,.251,17.339a22.982,22.982,0,0,0,.733,5.748,12.033,12.033,0,0,0,1.754,3.838c.133.179.279.347.419.519l.161-2.167.541,1.03a.894.894,0,0,0,.056.091.8.8,0,0,1,.168.477.725.725,0,0,1-.24.444.958.958,0,0,0-.067.076l-.319.42a14.444,14.444,0,0,0,2.7,2.41,22.678,22.678,0,0,0,4.513,1.967,9.753,9.753,0,0,0,2.276.154A15.135,15.135,0,0,0,18.3,31.42a1.791,1.791,0,0,0,1.157-1.89,1.917,1.917,0,0,0-.386-1.292,1.118,1.118,0,0,0-.849-.444l-.579.116a7.073,7.073,0,0,1-2.006.309,6.818,6.818,0,0,1-1.793-.268.53.53,0,0,1-.262.084.456.456,0,0,1-.114-.014,2.836,2.836,0,0,1-.95-.518c-.1-.075-.207-.15-.312-.218l-.482-.31.21-.11a4.1,4.1,0,0,1-.618-.879,10.225,10.225,0,0,1-1.389-3.9,48.081,48.081,0,0,1-.464-6.866q0-5.942,2.354-9.142a5.1,5.1,0,0,1,4.2-2.353A5.282,5.282,0,0,1,20.5,6.464q2.391,3.664,2.391,13.5a41.093,41.093,0,0,1-.231,4.745q-.307,2.662-.346,3.356a32.486,32.486,0,0,1-.906,5.69,21.416,21.416,0,0,1-2.8,6.712,19.888,19.888,0,0,1-4.86,5.285,28.281,28.281,0,0,1-6.9,3.722,8.009,8.009,0,0,0-2.237,1.042,1.408,1.408,0,0,0-.386,1.042,2.244,2.244,0,0,0,.617,1.427q.963.078,1.465.077a22.478,22.478,0,0,0,7.136-1.543c.252-.092.493-.209.743-.308.23-.27.48-.564.754-.917l.335-.433.229.5c.042.09.084.167.126.252a26.889,26.889,0,0,0,6.106-3.933,27.364,27.364,0,0,0,6.254-7.33,40.189,40.189,0,0,0,2.815-5.5,34.58,34.58,0,0,0,2.007-11.109m-.8-2.709.124.39c.029.095.07.191.108.289a1.72,1.72,0,0,1,.192.913c-.049.314-.378.449-.695.579-.1.04-.2.08-.282.124l-.27.146-.941-1.457Z" fill="#070203"/>
      <path id="パス_71970" data-name="パス 71970" d="M32.808,22.739c0-5.552-1.027-10.058-3.047-13.551l-2.033,2.338L24.67,9.092l.364-.255c.2-.143.4-.319.6-.493a2.979,2.979,0,0,1,1.646-.928,3.535,3.535,0,0,1,1.8.737c.028.017.054.031.081.049a16.013,16.013,0,0,0-1.235-1.626A15.206,15.206,0,0,0,26.833,5.4l-.419.059.018-.425A15.525,15.525,0,0,0,15.718.983,15.9,15.9,0,0,0,7.985,2.95a13.853,13.853,0,0,0-5.67,5.883A17.961,17.961,0,0,0,.251,17.339a22.982,22.982,0,0,0,.733,5.748,12.033,12.033,0,0,0,1.754,3.838c.133.179.279.347.419.519l.161-2.167.541,1.03a.894.894,0,0,0,.056.091.8.8,0,0,1,.168.477.725.725,0,0,1-.24.444.958.958,0,0,0-.067.076l-.319.42a14.444,14.444,0,0,0,2.7,2.41,22.678,22.678,0,0,0,4.513,1.967,9.753,9.753,0,0,0,2.276.154A15.135,15.135,0,0,0,18.3,31.42a1.791,1.791,0,0,0,1.157-1.89,1.917,1.917,0,0,0-.386-1.292,1.118,1.118,0,0,0-.849-.444l-.579.116a7.073,7.073,0,0,1-2.006.309,6.818,6.818,0,0,1-1.793-.268.53.53,0,0,1-.262.084.456.456,0,0,1-.114-.014,2.836,2.836,0,0,1-.95-.518c-.1-.075-.207-.15-.312-.218l-.482-.31.21-.11a4.1,4.1,0,0,1-.618-.879,10.225,10.225,0,0,1-1.389-3.9,48.081,48.081,0,0,1-.464-6.866q0-5.942,2.354-9.142a5.1,5.1,0,0,1,4.2-2.353A5.282,5.282,0,0,1,20.5,6.464q2.391,3.664,2.391,13.5a41.093,41.093,0,0,1-.231,4.745q-.307,2.662-.346,3.356a32.486,32.486,0,0,1-.906,5.69,21.416,21.416,0,0,1-2.8,6.712,19.888,19.888,0,0,1-4.86,5.285,28.281,28.281,0,0,1-6.9,3.722,8.009,8.009,0,0,0-2.237,1.042,1.408,1.408,0,0,0-.386,1.042,2.244,2.244,0,0,0,.617,1.427q.963.078,1.465.077a22.478,22.478,0,0,0,7.136-1.543c.252-.092.493-.209.743-.308.23-.27.48-.564.754-.917l.335-.433.229.5c.042.09.084.167.126.252a26.889,26.889,0,0,0,6.106-3.933,27.364,27.364,0,0,0,6.254-7.33,40.189,40.189,0,0,0,2.815-5.5A34.58,34.58,0,0,0,32.808,22.739Zm-.8-2.709.124.39c.029.095.07.191.108.289a1.72,1.72,0,0,1,.192.913c-.049.314-.378.449-.695.579-.1.04-.2.08-.282.124l-.27.146-.941-1.457Z" fill="none" stroke="#070203" stroke-width="0.5"/>
      <path id="パス_71971" data-name="パス 71971" d="M358.254,26.871q2.738,1.962,9.836,4.475t8.718,4.012a7.1,7.1,0,0,1,2.636,5l.92,1.345-.513,2.332-.427-.77c-.071-.129-.151-.256-.232-.384-.025-.041-.049-.085-.074-.127a7.09,7.09,0,0,1-1.172,2.226,8.444,8.444,0,0,1-4.031,2.912,13.882,13.882,0,0,1-4.59.887,12.931,12.931,0,0,1-4.359-.714,11.1,11.1,0,0,1-3.452-1.929,12.768,12.768,0,0,1-2.642-3.182q-.54-.888-2.391-5.169l-.2,0-.952.684.01-.662v0l-2.4.053v1.466q0,1.041.077,3.549.193,4.86.193,5.285v.424a1.474,1.474,0,0,0,.347.733,7.677,7.677,0,0,0,2.32.931l1.236-3.243.348.237c.124.084.284.181.444.278.628.379.944.568.827.9-.279.8-.577,1.6-.878,2.4l2.762.806a32.633,32.633,0,0,0,6.442.77,26.679,26.679,0,0,0,6.693-.693,17.689,17.689,0,0,0,2.009-.689l-1.863-.653,2.354.223,0-.006c.312-.827.622-1.653.957-2.471.127-.3.368-.214.727-.084l.6.211-.221.355-1.1,1.763a17.932,17.932,0,0,0,1.576-.9,22.373,22.373,0,0,0,3.587-2.719,10.677,10.677,0,0,0,2.353-3.51,19.758,19.758,0,0,0,1.35-7.136,15.282,15.282,0,0,0-.868-5.535,14.393,14.393,0,0,0-3.182-4.61A16.652,16.652,0,0,0,376.95,22.6a43.066,43.066,0,0,0-5.69-2.237q-7.021-2.083-9.181-4.359a6.816,6.816,0,0,1-2.2-4.745A6.338,6.338,0,0,1,362.1,6.337a8.654,8.654,0,0,1,6-1.987A9.219,9.219,0,0,1,375,7.436q1.7,1.807,3.395,6.9l.463.077,2.777.193.385-.122a8.044,8.044,0,0,0,.154-1.5,57.121,57.121,0,0,0-.463-6.172,25.707,25.707,0,0,0-.694-3.973h0a41.294,41.294,0,0,0-5.825-1.62,33.636,33.636,0,0,0-5.478-.656q-8.562,0-12.961,4.282a13.989,13.989,0,0,0-4.4,10.415,14.667,14.667,0,0,0,1.582,6.345,13.563,13.563,0,0,0,4.322,5.265M364.341,50.2c-.05.139-.1.278-.141.417l-.106.364-.348-.153c-.093-.04-.21-.078-.326-.117-.4-.133-.753-.248-.788-.58a4.848,4.848,0,0,1,.1-1.31c.027-.174.057-.352.08-.539l.064-.506.437.261c.164.1.338.182.5.26.429.21.768.375.789.714a3.031,3.031,0,0,1-.256,1.189M384.3,36.085c-.041-.008-.085-.012-.128-.017a.969.969,0,0,1-.505-.154.633.633,0,0,1-.2-.518c0-.038,0-.075-.009-.108l-.051-.295,1.109-.318.262,1.5Zm-1.611-5.743c.172-.22.38-.485.6-.806l.282-.419.273.424c.175.271.348.5.5.706a2.275,2.275,0,0,1,.621,1.249c0,.411-.391.714-.771,1.008a4.083,4.083,0,0,0-.376.309l-.241.232-.23-.244c-.107-.11-.227-.218-.345-.325a2.64,2.64,0,0,1-.807-1.01c-.119-.336.113-.632.5-1.124M371.873,26.27c.039,0,.08-.01.121-.018a.919.919,0,0,1,.5.018.716.716,0,0,1,.348.394,1.028,1.028,0,0,0,.048.094l.184.294-.992.568-.728-1.308Zm-8.289,1.384h0l.316-.1v.143l1.455,0-.133,1.355-1.319-.535,0,.552-.666.018-.039-.729-1.77,0Z" fill="#070203"/>
      <path id="パス_71972" data-name="パス 71972" d="M358.254,26.871q2.738,1.962,9.836,4.475t8.718,4.012a7.1,7.1,0,0,1,2.636,5l.92,1.345-.513,2.332-.427-.77c-.071-.129-.151-.256-.232-.384-.025-.041-.049-.085-.074-.127a7.09,7.09,0,0,1-1.172,2.226,8.444,8.444,0,0,1-4.031,2.912,13.882,13.882,0,0,1-4.59.887,12.931,12.931,0,0,1-4.359-.714,11.1,11.1,0,0,1-3.452-1.929,12.768,12.768,0,0,1-2.642-3.182q-.54-.888-2.391-5.169l-.2,0-.952.684.01-.662v0l-2.4.053v1.466q0,1.041.077,3.549.193,4.86.193,5.285v.424a1.474,1.474,0,0,0,.347.733,7.677,7.677,0,0,0,2.32.931l1.236-3.243.348.237c.124.084.284.181.444.278.628.379.944.568.827.9-.279.8-.577,1.6-.878,2.4l2.762.806a32.633,32.633,0,0,0,6.442.77,26.679,26.679,0,0,0,6.693-.693,17.689,17.689,0,0,0,2.009-.689l-1.863-.653,2.354.223,0-.006c.312-.827.622-1.653.957-2.471.127-.3.368-.214.727-.084l.6.211-.221.355-1.1,1.763a17.932,17.932,0,0,0,1.576-.9,22.373,22.373,0,0,0,3.587-2.719,10.677,10.677,0,0,0,2.353-3.51,19.758,19.758,0,0,0,1.35-7.136,15.282,15.282,0,0,0-.868-5.535,14.393,14.393,0,0,0-3.182-4.61A16.652,16.652,0,0,0,376.95,22.6a43.066,43.066,0,0,0-5.69-2.237q-7.021-2.083-9.181-4.359a6.816,6.816,0,0,1-2.2-4.745A6.338,6.338,0,0,1,362.1,6.337a8.654,8.654,0,0,1,6-1.987A9.219,9.219,0,0,1,375,7.436q1.7,1.807,3.395,6.9l.463.077,2.777.193.385-.122a8.044,8.044,0,0,0,.154-1.5,57.121,57.121,0,0,0-.463-6.172,25.707,25.707,0,0,0-.694-3.973h0a41.294,41.294,0,0,0-5.825-1.62,33.636,33.636,0,0,0-5.478-.656q-8.562,0-12.961,4.282a13.989,13.989,0,0,0-4.4,10.415,14.667,14.667,0,0,0,1.582,6.345A13.563,13.563,0,0,0,358.254,26.871ZM364.341,50.2c-.05.139-.1.278-.141.417l-.106.364-.348-.153c-.093-.04-.21-.078-.326-.117-.4-.133-.753-.248-.788-.58a4.848,4.848,0,0,1,.1-1.31c.027-.174.057-.352.08-.539l.064-.506.437.261c.164.1.338.182.5.26.429.21.768.375.789.714A3.031,3.031,0,0,1,364.341,50.2ZM384.3,36.085c-.041-.008-.085-.012-.128-.017a.969.969,0,0,1-.505-.154.633.633,0,0,1-.2-.518c0-.038,0-.075-.009-.108l-.051-.295,1.109-.318.262,1.5Zm-1.611-5.743c.172-.22.38-.485.6-.806l.282-.419.273.424c.175.271.348.5.5.706a2.275,2.275,0,0,1,.621,1.249c0,.411-.391.714-.771,1.008a4.083,4.083,0,0,0-.376.309l-.241.232-.23-.244c-.107-.11-.227-.218-.345-.325a2.64,2.64,0,0,1-.807-1.01C382.069,31.13,382.3,30.834,382.684,30.342ZM371.873,26.27c.039,0,.08-.01.121-.018a.919.919,0,0,1,.5.018.716.716,0,0,1,.348.394,1.028,1.028,0,0,0,.048.094l.184.294-.992.568-.728-1.308Zm-8.289,1.384h0l.316-.1v.143l1.455,0-.133,1.355-1.319-.535,0,.552-.666.018-.039-.729-1.77,0Z" fill="none" stroke="#070203" stroke-width="0.5"/>
      <path id="パス_71973" data-name="パス 71973" d="M639.307,9.165c-.083-.254-.2-.5-.291-.744-.041.087-.08.178-.122.265l-.413,1.195,1.151.167c-.131-.346-.246-.655-.325-.883" fill="#070203"/>
      <path id="パス_71974" data-name="パス 71974" d="M639.307,9.165c-.083-.254-.2-.5-.291-.744-.041.087-.08.178-.122.265l-.413,1.195,1.151.167C639.5,9.7,639.386,9.393,639.307,9.165Z" fill="none" stroke="#070203" stroke-width="0.5"/>
      <path id="パス_71975" data-name="パス 71975" d="M505.547,33.9l-.566.008-.575.325a5.858,5.858,0,0,0,1.133-.152c0-.065.005-.12.008-.181" fill="#070203"/>
      <path id="パス_71976" data-name="パス 71976" d="M505.547,33.9l-.566.008-.575.325a5.858,5.858,0,0,0,1.133-.152C505.542,34.02,505.544,33.965,505.547,33.9Z" fill="none" stroke="#070203" stroke-width="0.5"/>
      <path id="パス_71977" data-name="パス 71977" d="M80.249,26.984a11.135,11.135,0,0,0,5.015.887,7.251,7.251,0,0,0,3.317-1.042,8.844,8.844,0,0,0,2.662-2.2,12.8,12.8,0,0,0,2.392-4.474,20.185,20.185,0,0,0,.849-6.133q0-6.173-2.951-9.682a8.786,8.786,0,0,0-1.048-1.13l-.106.025-.427.211-.065.133a.285.285,0,0,1-.274.179.517.517,0,0,1-.107-.017l0,.015-2.2-.715-.036.279L87.128,3.2l-.5,1.091q1.1,1.7,1.1,5.953v2.772l.018.586.614.274-.238.332a2.535,2.535,0,0,0-.148.242,3.3,3.3,0,0,1-.194.305l.025.846a40.567,40.567,0,0,1-.386,5.669q-.385,2.739-1.254,3.568a2.7,2.7,0,0,1-1.909.829,2.123,2.123,0,0,1-1.273-.386L81.753,23.7q-.46-.848-.5-6.711,0-1-.116-3.7.078-5.085.231-6.058a6.287,6.287,0,0,1,1.254-3.316,2.654,2.654,0,0,1,1.909-.811,2.379,2.379,0,0,1,1.6.6L86.5,2.66l-1.079-.93,1.265.41.055-.153L86.758,2l.1-.826A8.9,8.9,0,0,0,84.493.829a8.169,8.169,0,0,0-3.26.656A10.875,10.875,0,0,0,78.205,3.53a11.11,11.11,0,0,0-2.044,2.931,26.643,26.643,0,0,0-1.35,4.166,14.819,14.819,0,0,0-.386,3.742v0a17.044,17.044,0,0,0,1.716,8.1,10.668,10.668,0,0,0,4.108,4.513M92.075,11.056a.817.817,0,0,0,.043-.1l.127-.395.359.209c.031.018.07.034.106.051a.707.707,0,0,1,.425.361.722.722,0,0,1-.073.556,1.1,1.1,0,0,0-.043.108l-.133.412-.364-.233a.932.932,0,0,0-.1-.057.784.784,0,0,1-.4-.355.665.665,0,0,1,.061-.553m-3.9-1.038.244-1.365-.036.023L88.45,8.5l.23-1.292.259.185c.622-.356,1.238-.711,1.854-1.067l.055-.793.664-.008.121,1.255-.265.043c-.7.424-1.38.847-2.057,1.272l-.036.114h-.059l-.083.143ZM77.7,9.824l.45,1.563-1.39-.24Z" fill="#070203"/>
      <path id="パス_71978" data-name="パス 71978" d="M80.249,26.984a11.135,11.135,0,0,0,5.015.887,7.251,7.251,0,0,0,3.317-1.042,8.844,8.844,0,0,0,2.662-2.2,12.8,12.8,0,0,0,2.392-4.474,20.185,20.185,0,0,0,.849-6.133q0-6.173-2.951-9.682a8.786,8.786,0,0,0-1.048-1.13l-.106.025-.427.211-.065.133a.285.285,0,0,1-.274.179.517.517,0,0,1-.107-.017l0,.015-2.2-.715-.036.279L87.128,3.2l-.5,1.091q1.1,1.7,1.1,5.953v2.772l.018.586.614.274-.238.332a2.535,2.535,0,0,0-.148.242,3.3,3.3,0,0,1-.194.305l.025.846a40.567,40.567,0,0,1-.386,5.669q-.385,2.739-1.254,3.568a2.7,2.7,0,0,1-1.909.829,2.123,2.123,0,0,1-1.273-.386L81.753,23.7q-.46-.848-.5-6.711,0-1-.116-3.7.078-5.085.231-6.058a6.287,6.287,0,0,1,1.254-3.316,2.654,2.654,0,0,1,1.909-.811,2.379,2.379,0,0,1,1.6.6L86.5,2.66l-1.079-.93,1.265.41.055-.153L86.758,2l.1-.826A8.9,8.9,0,0,0,84.493.829a8.169,8.169,0,0,0-3.26.656A10.875,10.875,0,0,0,78.205,3.53a11.11,11.11,0,0,0-2.044,2.931,26.643,26.643,0,0,0-1.35,4.166,14.819,14.819,0,0,0-.386,3.742v0a17.044,17.044,0,0,0,1.716,8.1A10.668,10.668,0,0,0,80.249,26.984ZM92.075,11.056a.817.817,0,0,0,.043-.1l.127-.395.359.209c.031.018.07.034.106.051a.707.707,0,0,1,.425.361.722.722,0,0,1-.073.556,1.1,1.1,0,0,0-.043.108l-.133.412-.364-.233a.932.932,0,0,0-.1-.057.784.784,0,0,1-.4-.355A.665.665,0,0,1,92.075,11.056Zm-3.9-1.038.244-1.365-.036.023L88.45,8.5l.23-1.292.259.185c.622-.356,1.238-.711,1.854-1.067l.055-.793.664-.008.121,1.255-.265.043c-.7.424-1.38.847-2.057,1.272l-.036.114h-.059l-.083.143ZM77.7,9.824l.45,1.563-1.39-.24Z" fill="none" stroke="#070203" stroke-width="0.5"/>
      <path id="パス_71979" data-name="パス 71979" d="M185.749,2.836q0-.346-.039-1.157a15.512,15.512,0,0,0-1.926-.142,2,2,0,0,1,.663.874.421.421,0,0,1-.026.536,8.85,8.85,0,0,1-1.8,1.306,5.462,5.462,0,0,1-1.274.4l-.1.023.191.319,4.158-.661a9,9,0,0,0,.154-1.5" fill="#070203"/>
      <path id="パス_71980" data-name="パス 71980" d="M185.749,2.836q0-.346-.039-1.157a15.512,15.512,0,0,0-1.926-.142,2,2,0,0,1,.663.874.421.421,0,0,1-.026.536,8.85,8.85,0,0,1-1.8,1.306,5.462,5.462,0,0,1-1.274.4l-.1.023.191.319,4.158-.661A9,9,0,0,0,185.749,2.836Z" fill="none" stroke="#070203" stroke-width="0.5"/>
      <path id="パス_71981" data-name="パス 71981" d="M89.133,2.174c.086.165.159.329.252.5l.044.079.28.075.019-.243c-.194-.144-.39-.283-.595-.41" fill="#070203"/>
      <path id="パス_71982" data-name="パス 71982" d="M89.133,2.174c.086.165.159.329.252.5l.044.079.28.075.019-.243C89.534,2.44,89.338,2.3,89.133,2.174Z" fill="none" stroke="#070203" stroke-width="0.5"/>
      <path id="パス_71983" data-name="パス 71983" d="M214.986,13.288l.135.128.371.047v-.212q0-.194-.039-1.929v-.127l-.07.015.017.019-.318.17-.028.034-.092,1.823Z" fill="#070203"/>
      <path id="パス_71984" data-name="パス 71984" d="M214.986,13.288l.135.128.371.047v-.212q0-.194-.039-1.929v-.127l-.07.015.017.019-.318.17-.028.034-.092,1.823Z" fill="none" stroke="#070203" stroke-width="0.5"/>
      <path id="パス_71985" data-name="パス 71985" d="M582.131,9.588l0,.006.016.024-.08.174-.171.527-.047-.056-.506,1.1.724-.14c.319-.57.663-1.128,1.035-1.668a12.414,12.414,0,0,1,1.548-1.714Z" fill="#070203"/>
      <path id="パス_71986" data-name="パス 71986" d="M582.131,9.588l0,.006.016.024-.08.174-.171.527-.047-.056-.506,1.1.724-.14c.319-.57.663-1.128,1.035-1.668a12.414,12.414,0,0,1,1.548-1.714Z" fill="none" stroke="#070203" stroke-width="0.5"/>
      <path id="パス_71987" data-name="パス 71987" d="M621.376,29.387l.572-.938q.105-1.284.084-2.584a25.06,25.06,0,0,0-4.4-14,23.907,23.907,0,0,0-9.3-8.139A30.3,30.3,0,0,0,594.407.721c-.322,0-.642.015-.963.02l-.886.54-.99-.458a34.288,34.288,0,0,0-5.686.882,27.2,27.2,0,0,0-7.483,3.24A24.964,24.964,0,0,0,572.3,10.1a22.54,22.54,0,0,0-3.78,6.365,26.635,26.635,0,0,0-1.852,9.6c0,.251.01.5.012.752l.185-.025.144-.425.012-.032q.027-1.217.048-2.438l.028-1.54.51.35c.049.033.115.072.176.108-.02-.034-.041-.072-.06-.1l-.2-.316.338-.164c.217-.1.433-.217.649-.329a9.107,9.107,0,0,1,1.811-.783c.345-.094.626.176,1.09.626.209.2.46.447.764.7l.437.368-.536.2c-.4.147-.746.285-1.066.412a11.373,11.373,0,0,1-2.11.689.373.373,0,0,1-.08.008.465.465,0,0,1-.311-.151c-.248.841-.536,1.674-.823,2.484,0,.075,0,.149-.005.224l.108-.015-.128.195c-.01.084-.016.168-.029.252l-.11.825-.37-.343-.455.037a26.5,26.5,0,0,0,.784,5.378,32.662,32.662,0,0,0,2.2,6.4,25.249,25.249,0,0,0,4.32,5.67,32.494,32.494,0,0,0,6.75,4.9q.347.156,3.279,1.119a21.728,21.728,0,0,0,3.778.849,41.671,41.671,0,0,0,6.133.424q13.231,0,20.663-7.795a26.153,26.153,0,0,0,7.237-15.145ZM577.156,5.812l.236,0a.45.45,0,0,0,.129-.009.693.693,0,0,1,.567.113.959.959,0,0,1,.251.505c.012.047.024.095.039.139l.16.449L576.729,7ZM574.14,18.767l.261,1.108-.426.136a1.05,1.05,0,0,1-.341.082.314.314,0,0,1-.284-.16,1.842,1.842,0,0,1-.17-.448l-.137-.452ZM572.789,34.24c-.076.048-.156.111-.237.174a1.26,1.26,0,0,1-.707.355.526.526,0,0,1-.141-.019,1.422,1.422,0,0,1-.7-.6c-.063-.082-.124-.165-.189-.236l-.264-.293.332-.212c.082-.052.165-.12.25-.187a1.2,1.2,0,0,1,.874-.378c.326.061.522.376.7.655.056.091.113.183.172.26l.226.292Zm2.612,4.668c-.011,1.4-.025,2.805-.04,4.2l-.021,1.829L574.649,43c-.036-1.6-.056-3.164-.076-4.733l-1.192.126,1.1-.746c.029-.019.056-.042.084-.062l-.007-.562.724.593.007.005.619.506-.5.053Zm.333-6.808c-.078.325-.171.706-.258,1.171l-.2,1.043-.434-.971c-.25-.559-.482-1.053-.691-1.5A17.043,17.043,0,0,1,573,28.993c-.108-.413.373-.74,1.039-1.191.212-.143.424-.286.585-.416l.4-.32.133.491c.078.29.165.579.252.867a13.832,13.832,0,0,1,.523,2.156,4.222,4.222,0,0,1-.2,1.52m.842-4.561-1.753-.691,1.15-2.512,0-.186-.03-.071.033-.083,0-.125.3-.173.073-.044.639-.376h0l.272-.16-.418.915-.221,1.136Zm1.256-5.381a.211.211,0,0,1-.035,0c-.315,0-.534-.3-.728-.573l-.236-.31.14-.231c.078-.12.358-.5.67-.435a4.254,4.254,0,0,1,.761.29l.733.321-.426.346a2.33,2.33,0,0,0-.181.168,1.179,1.179,0,0,1-.7.422m31.4,14.919L609,36.591a2.5,2.5,0,0,0-.143-.253c-.038-.063-.077-.128-.114-.195a20.859,20.859,0,0,1-1.3,4.016l1.749,1.912-.289.221c-.184.142-.37.31-.546.466-.4.36-.709.638-1,.638a.452.452,0,0,1-.193-.044,4.536,4.536,0,0,1-1.049-.669,13.747,13.747,0,0,1-4.473,4.268A15.88,15.88,0,0,1,593.9,48.9a12.354,12.354,0,0,1-4.4-.829,11.16,11.16,0,0,1-3.356-1.832,15.646,15.646,0,0,1-3.046-3.329l-.075.089c-.245.288-.49.575-.724.869l-.3.369-.248-.4a8.264,8.264,0,0,0-.53-.726c-.513-.659-1-1.281-.807-1.818a5.984,5.984,0,0,1,1.077-1.747q-.633-1.606-1.137-3.262c-.088-.294-.145-.6-.22-.893l-.337-.063-.006.006-.075.064-.022,0-.183.135-.919-1.109.871.162.243-.028.189-.139a21.287,21.287,0,0,1-.351-2.3Q579.4,31,579.32,30.534a28.838,28.838,0,0,1-.27-4.745,39.584,39.584,0,0,1,.926-9.239,21.131,21.131,0,0,1,1.25-3.661l-.716-.884-.12-.114.009-.023-.208-.255.338-.085.744-1.949-.108-.129.215-.149.168-.44.086.1,1.417-4.371,2.965,1.478.005,0,.35.179.217.112c.139-.086.27-.182.413-.263a11.258,11.258,0,0,1,5.94-1.562,15.412,15.412,0,0,1,10.123,3.319c.229.2.443.418.661.63.678-.446,1.37-.872,2.054-1.275.342-.2.686-.405,1.025-.61l.282-.17.9,1.442-2.867,2.138a16.794,16.794,0,0,1,3.407,7.489,15.069,15.069,0,0,0,.386,1.582l.193.733q.424,5.286.424,8.371a39.913,39.913,0,0,1-.442,6.131l.116-.239,1.59.982Zm4.447-1.168a1.145,1.145,0,0,0,.1-.1.775.775,0,0,1,.533-.294h0a.748.748,0,0,1,.527.321,1.229,1.229,0,0,0,.1.1l.175.159-.485,1.16-1.268-1.1Zm.239,4.656.848-1.294.58,1.433ZM615.28,19.4l-.214-.529a.805.805,0,0,0-.054-.111.693.693,0,0,1,.137-.97,1.191,1.191,0,0,0,.085-.092l.36-.463.464,1.2Zm4.348,16.407-.206.051a.781.781,0,0,0-.1.031.945.945,0,0,1-.316.073.416.416,0,0,1-.241-.073.82.82,0,0,1-.284-.419c-.014-.036-.028-.071-.045-.1l-.191-.381,1.617-.359Zm-.257-6.354c-.059.034-.114.073-.167.109a.986.986,0,0,1-.541.229h-.005a.787.787,0,0,1-.522-.268c-.036-.031-.071-.064-.106-.09l-.825-.6h3.239Z" fill="#070203"/>
      <path id="パス_71988" data-name="パス 71988" d="M621.376,29.387l.572-.938q.105-1.284.084-2.584a25.06,25.06,0,0,0-4.4-14,23.907,23.907,0,0,0-9.3-8.139A30.3,30.3,0,0,0,594.407.721c-.322,0-.642.015-.963.02l-.886.54-.99-.458a34.288,34.288,0,0,0-5.686.882,27.2,27.2,0,0,0-7.483,3.24A24.964,24.964,0,0,0,572.3,10.1a22.54,22.54,0,0,0-3.78,6.365,26.635,26.635,0,0,0-1.852,9.6c0,.251.01.5.012.752l.185-.025.144-.425.012-.032q.027-1.217.048-2.438l.028-1.54.51.35c.049.033.115.072.176.108-.02-.034-.041-.072-.06-.1l-.2-.316.338-.164c.217-.1.433-.217.649-.329a9.107,9.107,0,0,1,1.811-.783c.345-.094.626.176,1.09.626.209.2.46.447.764.7l.437.368-.536.2c-.4.147-.746.285-1.066.412a11.373,11.373,0,0,1-2.11.689.373.373,0,0,1-.08.008.465.465,0,0,1-.311-.151c-.248.841-.536,1.674-.823,2.484,0,.075,0,.149-.005.224l.108-.015-.128.195c-.01.084-.016.168-.029.252l-.11.825-.37-.343-.455.037a26.5,26.5,0,0,0,.784,5.378,32.662,32.662,0,0,0,2.2,6.4,25.249,25.249,0,0,0,4.32,5.67,32.494,32.494,0,0,0,6.75,4.9q.347.156,3.279,1.119a21.728,21.728,0,0,0,3.778.849,41.671,41.671,0,0,0,6.133.424q13.231,0,20.663-7.795a26.153,26.153,0,0,0,7.237-15.145ZM577.156,5.812l.236,0a.45.45,0,0,0,.129-.009.693.693,0,0,1,.567.113.959.959,0,0,1,.251.505c.012.047.024.095.039.139l.16.449L576.729,7ZM574.14,18.767l.261,1.108-.426.136a1.05,1.05,0,0,1-.341.082.314.314,0,0,1-.284-.16,1.842,1.842,0,0,1-.17-.448l-.137-.452ZM572.789,34.24c-.076.048-.156.111-.237.174a1.26,1.26,0,0,1-.707.355.526.526,0,0,1-.141-.019,1.422,1.422,0,0,1-.7-.6c-.063-.082-.124-.165-.189-.236l-.264-.293.332-.212c.082-.052.165-.12.25-.187a1.2,1.2,0,0,1,.874-.378c.326.061.522.376.7.655.056.091.113.183.172.26l.226.292Zm2.612,4.668c-.011,1.4-.025,2.805-.04,4.2l-.021,1.829L574.649,43c-.036-1.6-.056-3.164-.076-4.733l-1.192.126,1.1-.746c.029-.019.056-.042.084-.062l-.007-.562.724.593.007.005.619.506-.5.053Zm.333-6.808c-.078.325-.171.706-.258,1.171l-.2,1.043-.434-.971c-.25-.559-.482-1.053-.691-1.5A17.043,17.043,0,0,1,573,28.993c-.108-.413.373-.74,1.039-1.191.212-.143.424-.286.585-.416l.4-.32.133.491c.078.29.165.579.252.867a13.832,13.832,0,0,1,.523,2.156A4.222,4.222,0,0,1,575.734,32.1Zm.842-4.561-1.753-.691,1.15-2.512,0-.186-.03-.071.033-.083,0-.125.3-.173.073-.044.639-.376h0l.272-.16-.418.915-.221,1.136Zm1.256-5.381a.211.211,0,0,1-.035,0c-.315,0-.534-.3-.728-.573l-.236-.31.14-.231c.078-.12.358-.5.67-.435a4.254,4.254,0,0,1,.761.29l.733.321-.426.346a2.33,2.33,0,0,0-.181.168A1.179,1.179,0,0,1,577.832,22.158Zm31.4,14.919L609,36.591a2.5,2.5,0,0,0-.143-.253c-.038-.063-.077-.128-.114-.195a20.859,20.859,0,0,1-1.3,4.016l1.749,1.912-.289.221c-.184.142-.37.31-.546.466-.4.36-.709.638-1,.638a.452.452,0,0,1-.193-.044,4.536,4.536,0,0,1-1.049-.669,13.747,13.747,0,0,1-4.473,4.268A15.88,15.88,0,0,1,593.9,48.9a12.354,12.354,0,0,1-4.4-.829,11.16,11.16,0,0,1-3.356-1.832,15.646,15.646,0,0,1-3.046-3.329l-.075.089c-.245.288-.49.575-.724.869l-.3.369-.248-.4a8.264,8.264,0,0,0-.53-.726c-.513-.659-1-1.281-.807-1.818a5.984,5.984,0,0,1,1.077-1.747q-.633-1.606-1.137-3.262c-.088-.294-.145-.6-.22-.893l-.337-.063-.006.006-.075.064-.022,0-.183.135-.919-1.109.871.162.243-.028.189-.139a21.287,21.287,0,0,1-.351-2.3Q579.4,31,579.32,30.534a28.838,28.838,0,0,1-.27-4.745,39.584,39.584,0,0,1,.926-9.239,21.131,21.131,0,0,1,1.25-3.661l-.716-.884-.12-.114.009-.023-.208-.255.338-.085.744-1.949-.108-.129.215-.149.168-.44.086.1,1.417-4.371,2.965,1.478.005,0,.35.179.217.112c.139-.086.27-.182.413-.263a11.258,11.258,0,0,1,5.94-1.562,15.412,15.412,0,0,1,10.123,3.319c.229.2.443.418.661.63.678-.446,1.37-.872,2.054-1.275.342-.2.686-.405,1.025-.61l.282-.17.9,1.442-2.867,2.138a16.794,16.794,0,0,1,3.407,7.489,15.069,15.069,0,0,0,.386,1.582l.193.733q.424,5.286.424,8.371a39.913,39.913,0,0,1-.442,6.131l.116-.239,1.59.982Zm4.447-1.168a1.145,1.145,0,0,0,.1-.1.775.775,0,0,1,.533-.294h0a.748.748,0,0,1,.527.321,1.229,1.229,0,0,0,.1.1l.175.159-.485,1.16-1.268-1.1Zm.239,4.656.848-1.294.58,1.433ZM615.28,19.4l-.214-.529a.805.805,0,0,0-.054-.111.693.693,0,0,1,.137-.97,1.191,1.191,0,0,0,.085-.092l.36-.463.464,1.2Zm4.348,16.407-.206.051a.781.781,0,0,0-.1.031.945.945,0,0,1-.316.073.416.416,0,0,1-.241-.073.82.82,0,0,1-.284-.419c-.014-.036-.028-.071-.045-.1l-.191-.381,1.617-.359Zm-.257-6.354c-.059.034-.114.073-.167.109a.986.986,0,0,1-.541.229h-.005a.787.787,0,0,1-.522-.268c-.036-.031-.071-.064-.106-.09l-.825-.6h3.239Z" fill="none" stroke="#070203" stroke-width="0.5"/>
      <path id="パス_71989" data-name="パス 71989" d="M687.662,14.742l-.222-.313c-.065-.093-.155-.206-.242-.32-.38-.486-.553-.708-.328-.951.516-.55,1.077-1.062,1.62-1.556l.914-.839.146,1.6c.427-1.122.856-2.244,1.278-3.382a9.79,9.79,0,0,1,1.2-2.584,6.707,6.707,0,0,1,2.16-1.466,1.514,1.514,0,0,0,.771-.463,2.058,2.058,0,0,0,.27-1.119,7.623,7.623,0,0,0-.116-1.234L694.3,2l-3.819.231L684.7,2l-.617.077a1.855,1.855,0,0,0-.27.81q0,.309.116,1.582a5.11,5.11,0,0,0,1.447.6q.829.213,2.141.636l.116.656a2.521,2.521,0,0,1-.077.617l-1.08,3.24-4.386,11.189.421.3-.542.005-2.282,5.821-4.86,12.729q-.27-.695-.926-2.16l-3.338-7.88-1.514.891-.165-.3c-.051-.091-.121-.2-.191-.31-.279-.433-.462-.719-.238-.966a5.753,5.753,0,0,1,1-.816c.118-.083.235-.165.35-.251l.015-.011-.115-.272-2.157-4.988a8.41,8.41,0,0,1-.784-.652c-.267-.251-.08-.571.371-1.342.143-.244.3-.511.433-.767l.2-.393.218.208q4.47-9.225,6.228-12.322a5.4,5.4,0,0,1,1.543-1.774,25.7,25.7,0,0,1,4.976-1.736l.077-.193.116-1.736-.077-.309q-.695,0-1.312.019t-1.427.019c-.574,0-1.829-.031-3.755-.093l.857.458-1.337.565a1.351,1.351,0,0,1-.31.131l-.011,0-.521.17h0l-.462.151.494-.674-.822-.361.964-.163.052-.316c-3.728-.12-6.017-.181-6.837-.181a10.454,10.454,0,0,0-.116,1.273q0,.385.077,1.119a22.84,22.84,0,0,1,3.279,1,3.142,3.142,0,0,1,.849.694v.229a2.323,2.323,0,0,1-.116.656,50.258,50.258,0,0,1-2.43,5.67l-2.7,5.593c-.178-.39-.377-.841-.594-1.348l-.049.037c-.017.013-.036.029-.057.043l-.064.05,0,0a.452.452,0,0,1-.23.078.293.293,0,0,1-.237-.131l-.2-.263.153-.117.024-.271-.438-2.048h.015q-.583-1.445-1.286-3.24-.579-1.5-.926-2.237a6.692,6.692,0,0,1-.81-2.816,1.046,1.046,0,0,1,.4-.81,2.5,2.5,0,0,1,1.408-.424,12.994,12.994,0,0,0,2.083-.347,1.762,1.762,0,0,0,.154-.617V3.226l-.039-1.312a2.869,2.869,0,0,1-.54-.039l-6.673.386-5.4.077q-.887,0-4.012-.231-2.16-.116-3.4-.116L644.394,4.3a17.555,17.555,0,0,1,3.857,1.215,3.052,3.052,0,0,1,1.2,1.234q.387.753.617,1.138.27.733.656,1.543,1.156,2.47,2.736,6.289L659.13,29.3Q654.965,37.981,653,41.646l-9.991-23.3c-1.307-3.132-2.28-5.506-2.927-7.143l-.642.2.375-.544-1.193-.243-.373-.053-.294.85-.222-.969-.133-.019.577-2.51.1.067c.109-.2.218-.406.322-.6a3,3,0,0,1-.3-1.066q0-.54,1.543-1.389a16.316,16.316,0,0,0,1.427-.81l.309-1.774a.7.7,0,0,0-.347-.424l-5.015.231q-1.851.117-3.24.116-.388,0-1.7-.039-3.2-.115-6.4-.347a1.611,1.611,0,0,0-.733.27l.148,1.826.329-.875.361.3c.088.074.205.157.322.242.449.322.746.534.632.86-.071.2-.151.405-.224.608a3.714,3.714,0,0,1,.668.434,23.291,23.291,0,0,1,2.816,5.285l6.841,16.014a1.6,1.6,0,0,1,.821.151c.1.039.2.079.3.1l.427.114-.229.379a3,3,0,0,0-.14.277,1.576,1.576,0,0,1-.464.651l4.9,11.472c.116.241.223.486.337.728l.032-.059,3.419,3.133-1.506,1.246c1.132,2.631,2.192,5.292,3.157,7.99l3.935-.039q1.847-4.244,5.839-11.785t4.07-7.734c.089.159.16.284.224.4l.127-.4,1.262.593-.978.574c.383.764.84,1.774,1.374,3.04l4.282,9.875q.2.66,1.31,3.164a14.271,14.271,0,0,1,.659,1.744l.067-.112-.149-1.1.535.454.886-1.476-.3,2.018.068.071-.1.173-.027.183-.492.066-.031,0-.33.044h0l-.023,0c.027.094.062.184.087.278l3.9-.039q1.848-4.791,3.455-8.9l-1.2.485.644-1.448.8.325Q681.342,32.4,683.9,26.383q2.711-6.361,5.3-13.1ZM654.818,7.791l.892-1.658.514,1.793Zm7.724,17.02.173-1.436,1.291.885ZM664,21.225a1.2,1.2,0,0,0-.07-.106.836.836,0,0,1-.2-.509.769.769,0,0,1,.263-.49,1.129,1.129,0,0,0,.08-.093l.295-.388.618,1.016-.724,1.028Zm.388,10.6.094-.524c.008-.047.013-.1.018-.146a1.162,1.162,0,0,1,.138-.513.668.668,0,0,1,.475-.268c.036-.009.074-.017.106-.028l.278-.095.535,1.1Z" fill="#070203"/>
      <path id="パス_71990" data-name="パス 71990" d="M687.662,14.742l-.222-.313c-.065-.093-.155-.206-.242-.32-.38-.486-.553-.708-.328-.951.516-.55,1.077-1.062,1.62-1.556l.914-.839.146,1.6c.427-1.122.856-2.244,1.278-3.382a9.79,9.79,0,0,1,1.2-2.584,6.707,6.707,0,0,1,2.16-1.466,1.514,1.514,0,0,0,.771-.463,2.058,2.058,0,0,0,.27-1.119,7.623,7.623,0,0,0-.116-1.234L694.3,2l-3.819.231L684.7,2l-.617.077a1.855,1.855,0,0,0-.27.81q0,.309.116,1.582a5.11,5.11,0,0,0,1.447.6q.829.213,2.141.636l.116.656a2.521,2.521,0,0,1-.077.617l-1.08,3.24-4.386,11.189.421.3-.542.005-2.282,5.821-4.86,12.729q-.27-.695-.926-2.16l-3.338-7.88-1.514.891-.165-.3c-.051-.091-.121-.2-.191-.31-.279-.433-.462-.719-.238-.966a5.753,5.753,0,0,1,1-.816c.118-.083.235-.165.35-.251l.015-.011-.115-.272-2.157-4.988a8.41,8.41,0,0,1-.784-.652c-.267-.251-.08-.571.371-1.342.143-.244.3-.511.433-.767l.2-.393.218.208q4.47-9.225,6.228-12.322a5.4,5.4,0,0,1,1.543-1.774,25.7,25.7,0,0,1,4.976-1.736l.077-.193.116-1.736-.077-.309q-.695,0-1.312.019t-1.427.019c-.574,0-1.829-.031-3.755-.093l.857.458-1.337.565a1.351,1.351,0,0,1-.31.131l-.011,0-.521.17h0l-.462.151.494-.674-.822-.361.964-.163.052-.316c-3.728-.12-6.017-.181-6.837-.181a10.454,10.454,0,0,0-.116,1.273q0,.385.077,1.119a22.84,22.84,0,0,1,3.279,1,3.142,3.142,0,0,1,.849.694v.229a2.323,2.323,0,0,1-.116.656,50.258,50.258,0,0,1-2.43,5.67l-2.7,5.593c-.178-.39-.377-.841-.594-1.348l-.049.037c-.017.013-.036.029-.057.043l-.064.05,0,0a.452.452,0,0,1-.23.078.293.293,0,0,1-.237-.131l-.2-.263.153-.117.024-.271-.438-2.048h.015q-.583-1.445-1.286-3.24-.579-1.5-.926-2.237a6.692,6.692,0,0,1-.81-2.816,1.046,1.046,0,0,1,.4-.81,2.5,2.5,0,0,1,1.408-.424,12.994,12.994,0,0,0,2.083-.347,1.762,1.762,0,0,0,.154-.617V3.226l-.039-1.312a2.869,2.869,0,0,1-.54-.039l-6.673.386-5.4.077q-.887,0-4.012-.231-2.16-.116-3.4-.116L644.394,4.3a17.555,17.555,0,0,1,3.857,1.215,3.052,3.052,0,0,1,1.2,1.234q.387.753.617,1.138.27.733.656,1.543,1.156,2.47,2.736,6.289L659.13,29.3Q654.965,37.981,653,41.646l-9.991-23.3c-1.307-3.132-2.28-5.506-2.927-7.143l-.642.2.375-.544-1.193-.243-.373-.053-.294.85-.222-.969-.133-.019.577-2.51.1.067c.109-.2.218-.406.322-.6a3,3,0,0,1-.3-1.066q0-.54,1.543-1.389a16.316,16.316,0,0,0,1.427-.81l.309-1.774a.7.7,0,0,0-.347-.424l-5.015.231q-1.851.117-3.24.116-.388,0-1.7-.039-3.2-.115-6.4-.347a1.611,1.611,0,0,0-.733.27l.148,1.826.329-.875.361.3c.088.074.205.157.322.242.449.322.746.534.632.86-.071.2-.151.405-.224.608a3.714,3.714,0,0,1,.668.434,23.291,23.291,0,0,1,2.816,5.285l6.841,16.014a1.6,1.6,0,0,1,.821.151c.1.039.2.079.3.1l.427.114-.229.379a3,3,0,0,0-.14.277,1.576,1.576,0,0,1-.464.651l4.9,11.472c.116.241.223.486.337.728l.032-.059,3.419,3.133-1.506,1.246c1.132,2.631,2.192,5.292,3.157,7.99l3.935-.039q1.847-4.244,5.839-11.785t4.07-7.734c.089.159.16.284.224.4l.127-.4,1.262.593-.978.574c.383.764.84,1.774,1.374,3.04l4.282,9.875q.2.66,1.31,3.164a14.271,14.271,0,0,1,.659,1.744l.067-.112-.149-1.1.535.454.886-1.476-.3,2.018.068.071-.1.173-.027.183-.492.066-.031,0-.33.044h0l-.023,0c.027.094.062.184.087.278l3.9-.039q1.848-4.791,3.455-8.9l-1.2.485.644-1.448.8.325Q681.342,32.4,683.9,26.383q2.711-6.361,5.3-13.1ZM654.818,7.791l.892-1.658.514,1.793Zm7.724,17.02.173-1.436,1.291.885ZM664,21.225a1.2,1.2,0,0,0-.07-.106.836.836,0,0,1-.2-.509.769.769,0,0,1,.263-.49,1.129,1.129,0,0,0,.08-.093l.295-.388.618,1.016-.724,1.028Zm.388,10.6.094-.524c.008-.047.013-.1.018-.146a1.162,1.162,0,0,1,.138-.513.668.668,0,0,1,.475-.268c.036-.009.074-.017.106-.028l.278-.095.535,1.1Z" fill="none" stroke="#070203" stroke-width="0.5"/>
    </g>
  </g>
</svg>
