<svg xmlns="http://www.w3.org/2000/svg" xmlns:xlink="http://www.w3.org/1999/xlink" width="427.748" height="392.164" viewBox="0 0 427.748 392.164">
  <defs>
    <filter id="パス_35" x="0" y="295.07" width="84.266" height="92.769" filterUnits="userSpaceOnUse">
      <feOffset dy="3" input="SourceAlpha"/>
      <feGaussianBlur stdDeviation="13" result="blur"/>
      <feFlood flood-opacity="0.149"/>
      <feComposite operator="in" in2="blur"/>
      <feComposite in="SourceGraphic"/>
    </filter>
    <filter id="パス_36" x="25.466" y="301.737" width="85.046" height="86.398" filterUnits="userSpaceOnUse">
      <feOffset dy="3" input="SourceAlpha"/>
      <feGaussianBlur stdDeviation="13" result="blur-2"/>
      <feFlood flood-opacity="0.149"/>
      <feComposite operator="in" in2="blur-2"/>
      <feComposite in="SourceGraphic"/>
    </filter>
    <filter id="パス_37" x="18.63" y="294.563" width="87.811" height="93.781" filterUnits="userSpaceOnUse">
      <feOffset dy="3" input="SourceAlpha"/>
      <feGaussianBlur stdDeviation="13" result="blur-3"/>
      <feFlood flood-opacity="0.149"/>
      <feComposite operator="in" in2="blur-3"/>
      <feComposite in="SourceGraphic"/>
    </filter>
    <filter id="パス_38" x="14.874" y="294.773" width="85.047" height="86.399" filterUnits="userSpaceOnUse">
      <feOffset dy="3" input="SourceAlpha"/>
      <feGaussianBlur stdDeviation="13" result="blur-4"/>
      <feFlood flood-opacity="0.149"/>
      <feComposite operator="in" in2="blur-4"/>
      <feComposite in="SourceGraphic"/>
    </filter>
    <filter id="パス_39" x="46.776" y="294.775" width="89.773" height="93.064" filterUnits="userSpaceOnUse">
      <feOffset dy="3" input="SourceAlpha"/>
      <feGaussianBlur stdDeviation="13" result="blur-5"/>
      <feFlood flood-opacity="0.149"/>
      <feComposite operator="in" in2="blur-5"/>
      <feComposite in="SourceGraphic"/>
    </filter>
    <filter id="パス_40" x="61.734" y="294.415" width="92.431" height="93.781" filterUnits="userSpaceOnUse">
      <feOffset dy="3" input="SourceAlpha"/>
      <feGaussianBlur stdDeviation="13" result="blur-6"/>
      <feFlood flood-opacity="0.149"/>
      <feComposite operator="in" in2="blur-6"/>
      <feComposite in="SourceGraphic"/>
    </filter>
    <filter id="パス_41" x="78.782" y="294.774" width="97.663" height="93.065" filterUnits="userSpaceOnUse">
      <feOffset dy="3" input="SourceAlpha"/>
      <feGaussianBlur stdDeviation="13" result="blur-7"/>
      <feFlood flood-opacity="0.149"/>
      <feComposite operator="in" in2="blur-7"/>
      <feComposite in="SourceGraphic"/>
    </filter>
    <filter id="パス_42" x="102.707" y="294.774" width="88.992" height="93.065" filterUnits="userSpaceOnUse">
      <feOffset dy="3" input="SourceAlpha"/>
      <feGaussianBlur stdDeviation="13" result="blur-8"/>
      <feFlood flood-opacity="0.149"/>
      <feComposite operator="in" in2="blur-8"/>
      <feComposite in="SourceGraphic"/>
    </filter>
    <filter id="パス_43" x="118.531" y="294.775" width="90.743" height="93.065" filterUnits="userSpaceOnUse">
      <feOffset dy="3" input="SourceAlpha"/>
      <feGaussianBlur stdDeviation="13" result="blur-9"/>
      <feFlood flood-opacity="0.149"/>
      <feComposite operator="in" in2="blur-9"/>
      <feComposite in="SourceGraphic"/>
    </filter>
    <filter id="パス_44" x="135.494" y="294.774" width="88.992" height="93.065" filterUnits="userSpaceOnUse">
      <feOffset dy="3" input="SourceAlpha"/>
      <feGaussianBlur stdDeviation="13" result="blur-10"/>
      <feFlood flood-opacity="0.149"/>
      <feComposite operator="in" in2="blur-10"/>
      <feComposite in="SourceGraphic"/>
    </filter>
    <filter id="パス_45" x="151.317" y="294.773" width="90.891" height="93.066" filterUnits="userSpaceOnUse">
      <feOffset dy="3" input="SourceAlpha"/>
      <feGaussianBlur stdDeviation="13" result="blur-11"/>
      <feFlood flood-opacity="0.149"/>
      <feComposite operator="in" in2="blur-11"/>
      <feComposite in="SourceGraphic"/>
    </filter>
    <filter id="パス_46" x="177.204" y="294.773" width="88.802" height="93.36" filterUnits="userSpaceOnUse">
      <feOffset dy="3" input="SourceAlpha"/>
      <feGaussianBlur stdDeviation="13" result="blur-12"/>
      <feFlood flood-opacity="0.149"/>
      <feComposite operator="in" in2="blur-12"/>
      <feComposite in="SourceGraphic"/>
    </filter>
    <filter id="パス_47" x="191.362" y="298.931" width="88.802" height="93.233" filterUnits="userSpaceOnUse">
      <feOffset dy="3" input="SourceAlpha"/>
      <feGaussianBlur stdDeviation="13" result="blur-13"/>
      <feFlood flood-opacity="0.149"/>
      <feComposite operator="in" in2="blur-13"/>
      <feComposite in="SourceGraphic"/>
    </filter>
    <filter id="パス_48" x="214.782" y="294.774" width="88.296" height="93.065" filterUnits="userSpaceOnUse">
      <feOffset dy="3" input="SourceAlpha"/>
      <feGaussianBlur stdDeviation="13" result="blur-14"/>
      <feFlood flood-opacity="0.149"/>
      <feComposite operator="in" in2="blur-14"/>
      <feComposite in="SourceGraphic"/>
    </filter>
    <filter id="長方形_11" x="229.423" y="294.774" width="80.638" height="93.065" filterUnits="userSpaceOnUse">
      <feOffset dy="3" input="SourceAlpha"/>
      <feGaussianBlur stdDeviation="13" result="blur-15"/>
      <feFlood flood-opacity="0.149"/>
      <feComposite operator="in" in2="blur-15"/>
      <feComposite in="SourceGraphic"/>
    </filter>
    <filter id="パス_49" x="238.243" y="294.774" width="88.402" height="93.065" filterUnits="userSpaceOnUse">
      <feOffset dy="3" input="SourceAlpha"/>
      <feGaussianBlur stdDeviation="13" result="blur-16"/>
      <feFlood flood-opacity="0.149"/>
      <feComposite operator="in" in2="blur-16"/>
      <feComposite in="SourceGraphic"/>
    </filter>
    <filter id="パス_50" x="252.441" y="294.774" width="88.992" height="93.065" filterUnits="userSpaceOnUse">
      <feOffset dy="3" input="SourceAlpha"/>
      <feGaussianBlur stdDeviation="13" result="blur-17"/>
      <feFlood flood-opacity="0.149"/>
      <feComposite operator="in" in2="blur-17"/>
      <feComposite in="SourceGraphic"/>
    </filter>
    <filter id="長方形_12" x="276.663" y="294.774" width="80.638" height="93.065" filterUnits="userSpaceOnUse">
      <feOffset dy="3" input="SourceAlpha"/>
      <feGaussianBlur stdDeviation="13" result="blur-18"/>
      <feFlood flood-opacity="0.149"/>
      <feComposite operator="in" in2="blur-18"/>
      <feComposite in="SourceGraphic"/>
    </filter>
    <filter id="パス_51" x="284.153" y="294.415" width="90.279" height="93.781" filterUnits="userSpaceOnUse">
      <feOffset dy="3" input="SourceAlpha"/>
      <feGaussianBlur stdDeviation="13" result="blur-19"/>
      <feFlood flood-opacity="0.149"/>
      <feComposite operator="in" in2="blur-19"/>
      <feComposite in="SourceGraphic"/>
    </filter>
    <filter id="長方形_13" x="309.66" y="294.774" width="80.637" height="93.065" filterUnits="userSpaceOnUse">
      <feOffset dy="3" input="SourceAlpha"/>
      <feGaussianBlur stdDeviation="13" result="blur-20"/>
      <feFlood flood-opacity="0.149"/>
      <feComposite operator="in" in2="blur-20"/>
      <feComposite in="SourceGraphic"/>
    </filter>
    <filter id="パス_52" x="317.721" y="298.636" width="87.578" height="89.203" filterUnits="userSpaceOnUse">
      <feOffset dy="3" input="SourceAlpha"/>
      <feGaussianBlur stdDeviation="13" result="blur-21"/>
      <feFlood flood-opacity="0.149"/>
      <feComposite operator="in" in2="blur-21"/>
      <feComposite in="SourceGraphic"/>
    </filter>
    <filter id="パス_53" x="331.836" y="298.636" width="88.296" height="89.499" filterUnits="userSpaceOnUse">
      <feOffset dy="3" input="SourceAlpha"/>
      <feGaussianBlur stdDeviation="13" result="blur-22"/>
      <feFlood flood-opacity="0.149"/>
      <feComposite operator="in" in2="blur-22"/>
      <feComposite in="SourceGraphic"/>
    </filter>
    <filter id="長方形_14" x="346.816" y="306.99" width="80.932" height="80.849" filterUnits="userSpaceOnUse">
      <feOffset dy="3" input="SourceAlpha"/>
      <feGaussianBlur stdDeviation="13" result="blur-23"/>
      <feFlood flood-opacity="0.149"/>
      <feComposite operator="in" in2="blur-23"/>
      <feComposite in="SourceGraphic"/>
    </filter>
  </defs>
  <g id="グループ_36" data-name="グループ 36" transform="translate(-514.943 -256.295)">
    <g id="グループ_26" data-name="グループ 26" transform="translate(553.942 498.669)">
      <g id="グループ_23" data-name="グループ 23" transform="translate(0 0)">
        <path id="パス_30" data-name="パス 30" d="M34.96,267.076H9.737V243.4H.035v55.417h9.7V276.469H34.96v22.352h9.7V243.4h-9.7Z" transform="translate(-0.035 -242.084)"/>
        <path id="パス_31" data-name="パス 31" d="M122.879,291.582a27.97,27.97,0,0,0,5.24-9.237,35.418,35.418,0,0,0,0-22.431,27.967,27.967,0,0,0-5.24-9.236,24.973,24.973,0,0,0-8.343-6.286,27.791,27.791,0,0,0-22.275,0,24.919,24.919,0,0,0-8.342,6.286,27.915,27.915,0,0,0-5.24,9.236,35.382,35.382,0,0,0,0,22.431,27.918,27.918,0,0,0,5.24,9.237,24.447,24.447,0,0,0,8.342,6.247,28.241,28.241,0,0,0,22.275,0,24.5,24.5,0,0,0,8.343-6.247m-11.836-1.654a17.268,17.268,0,0,1-15.289,0,14.971,14.971,0,0,1-5.24-4.772,18.9,18.9,0,0,1-2.987-6.3,31.493,31.493,0,0,1,0-15.522,17.566,17.566,0,0,1,2.987-6.035,15.015,15.015,0,0,1,5.24-4.774,17.269,17.269,0,0,1,15.289,0,15.018,15.018,0,0,1,5.238,4.774,17.6,17.6,0,0,1,2.989,6.035,31.555,31.555,0,0,1,0,15.522,18.946,18.946,0,0,1-2.989,6.3,14.974,14.974,0,0,1-5.238,4.772" transform="translate(-1.256 -242.063)"/>
        <path id="パス_32" data-name="パス 32" d="M197.581,274.682q0,2.793-.273,5.665a12.972,12.972,0,0,1-1.552,5.168,10.286,10.286,0,0,1-3.88,3.937,16.086,16.086,0,0,1-14.669,0,10.275,10.275,0,0,1-3.881-3.937,12.973,12.973,0,0,1-1.552-5.168q-.274-2.87-.272-5.665V243.4h-9.7v33.456a30.062,30.062,0,0,0,1.629,10.325c1.087,2.638,2.627,5.613,4.619,7.4a19.7,19.7,0,0,0,7.178,4.237,33.527,33.527,0,0,0,18.628,0,19.718,19.718,0,0,0,7.179-4.237c1.991-1.784,3.531-4.759,4.618-7.4a30.04,30.04,0,0,0,1.629-10.325V243.4h-9.7Z" transform="translate(-2.606 -242.084)"/>
        <path id="パス_33" data-name="パス 33" d="M324.046,274.218h27.941V266.3H324.046V251.787h30.191V243.4H314.343v55.417H354.78v-8.383H324.046Z" transform="translate(-5.032 -242.084)"/>
        <path id="パス_34" data-name="パス 34" d="M282.777,283.506a13.433,13.433,0,0,0-5.821-11.947c-7.673-4.895-16.477-4.4-22.07-9.2a6.279,6.279,0,0,1-2.1-4.7,7.925,7.925,0,0,1,.829-3.445,7.381,7.381,0,0,1,2.564-2.773,7.851,7.851,0,0,1,2.669-1.11,15.146,15.146,0,0,1,3.185-.352,12.327,12.327,0,0,1,7.566,2.213q2.975,2.216,3.325,7.569h8.842a17.8,17.8,0,0,0-1.555-7.646A16.3,16.3,0,0,0,276,246.566a17.849,17.849,0,0,0-6.153-3.376,24.215,24.215,0,0,0-7.462-1.127,23.764,23.764,0,0,0-6.718.972,17.673,17.673,0,0,0-5.94,2.988,15.205,15.205,0,0,0-4.211,5.082,15.57,15.57,0,0,0-1.588,7.258,17.362,17.362,0,0,0,.529,4.27,11.824,11.824,0,0,0,1.8,3.956c2.191,3.1,5.1,4.475,8.422,5.821,5.9,2.39,13.972,2.165,17.835,6.56a6.565,6.565,0,0,1,1.816,4.515,9.474,9.474,0,0,1-.72,3.527,7.447,7.447,0,0,1-1.893,2.523,9.668,9.668,0,0,1-3.325,1.9,13.321,13.321,0,0,1-4.736.766,17.953,17.953,0,0,1-4.984-.662,11.215,11.215,0,0,1-4.066-2.093,9.664,9.664,0,0,1-2.759-3.686,18.4,18.4,0,0,1-1.362-5.433h-8.469a23.737,23.737,0,0,0,1.915,9.2,15.714,15.714,0,0,0,4.378,5.858,18.412,18.412,0,0,0,6.651,3.572,27.793,27.793,0,0,0,8.132,1.162,28.262,28.262,0,0,0,7.357-.967,16.582,16.582,0,0,0,5.956-2.962,15.965,15.965,0,0,0,4.545-5.488,14.864,14.864,0,0,0,1.827-7.195" transform="translate(-3.882 -242.063)"/>
      </g>
      <g id="グループ_22" data-name="グループ 22" transform="translate(0.001 88.041)">
        <g transform="matrix(1, 0, 0, 1, -39, -330.42)" filter="url(#パス_35)">
          <path id="パス_35-2" data-name="パス 35" d="M3.766,325.373a3.322,3.322,0,0,1-.992.76,4.627,4.627,0,0,1-1.3.422A8.465,8.465,0,0,1,0,326.68v1.9H3.629V339H6.266V324.233H4.3a2.322,2.322,0,0,1-.538,1.14" transform="translate(39 6.84)"/>
        </g>
        <g transform="matrix(1, 0, 0, 1, -39, -330.42)" filter="url(#パス_36)">
          <path id="パス_36-2" data-name="パス 36" d="M32.093,332.255a3.129,3.129,0,0,0-1.1-.908,3.926,3.926,0,0,0-3.185,0,3.129,3.129,0,0,0-1.1.908,3.743,3.743,0,0,0-.634,1.339,6.421,6.421,0,0,0-.2,1.613,6.682,6.682,0,0,0,.19,1.627,3.684,3.684,0,0,0,.612,1.328,3.015,3.015,0,0,0,1.1.908,4.078,4.078,0,0,0,3.249,0,3.021,3.021,0,0,0,1.1-.908,3.7,3.7,0,0,0,.611-1.328,6.682,6.682,0,0,0,.19-1.627,6.421,6.421,0,0,0-.2-1.613,3.76,3.76,0,0,0-.634-1.339m-1.16,4.061a3.366,3.366,0,0,1-.284.9,1.579,1.579,0,0,1-.507.6,1.292,1.292,0,0,1-.76.221,1.244,1.244,0,0,1-.749-.221,1.627,1.627,0,0,1-.5-.6,3.137,3.137,0,0,1-.275-.9,6.9,6.9,0,0,1-.085-1.109,8.282,8.282,0,0,1,.064-1.032,3.176,3.176,0,0,1,.243-.908,1.639,1.639,0,0,1,.495-.643,1.45,1.45,0,0,1,1.6,0,1.719,1.719,0,0,1,.506.643,3.182,3.182,0,0,1,.264.908,7,7,0,0,1,.074,1.032,6.168,6.168,0,0,1-.094,1.109" transform="translate(38.59 6.73)"/>
        </g>
        <g transform="matrix(1, 0, 0, 1, -39, -330.42)" filter="url(#パス_37)">
          <path id="パス_37-2" data-name="パス 37" d="M27.14,323.719,18.933,339.5h1.645l8.165-15.781Z" transform="translate(38.7 6.84)"/>
        </g>
        <g transform="matrix(1, 0, 0, 1, -39, -330.42)" filter="url(#パス_38)">
          <path id="パス_38-2" data-name="パス 38" d="M21.361,331.085a3.718,3.718,0,0,0,.612-1.328,6.715,6.715,0,0,0,.19-1.625,6.381,6.381,0,0,0-.2-1.615,3.75,3.75,0,0,0-.633-1.339,3.137,3.137,0,0,0-1.1-.907,3.477,3.477,0,0,0-1.593-.339,3.47,3.47,0,0,0-1.592.339,3.132,3.132,0,0,0-1.1.907,3.75,3.75,0,0,0-.633,1.339,6.381,6.381,0,0,0-.2,1.615,6.714,6.714,0,0,0,.19,1.625,3.719,3.719,0,0,0,.612,1.328,3.01,3.01,0,0,0,1.1.907,3.6,3.6,0,0,0,1.625.339,3.6,3.6,0,0,0,1.625-.339,3.01,3.01,0,0,0,1.1-.907m-1.477-.95a1.575,1.575,0,0,1-.506.6,1.294,1.294,0,0,1-.76.222,1.241,1.241,0,0,1-.749-.222,1.606,1.606,0,0,1-.5-.6,3.1,3.1,0,0,1-.275-.9,6.891,6.891,0,0,1-.085-1.107,8.328,8.328,0,0,1,.064-1.035,3.139,3.139,0,0,1,.242-.906,1.626,1.626,0,0,1,.5-.643,1.445,1.445,0,0,1,1.6,0,1.732,1.732,0,0,1,.506.643,3.176,3.176,0,0,1,.264.906,7.179,7.179,0,0,1,.074,1.035,6.155,6.155,0,0,1-.094,1.107,3.321,3.321,0,0,1-.285.9" transform="translate(38.76 6.84)"/>
        </g>
        <g transform="matrix(1, 0, 0, 1, -39, -330.42)" filter="url(#パス_39)">
          <path id="パス_39-2" data-name="パス 39" d="M58.359,325.557A4.14,4.14,0,0,0,56.8,324.4a6.325,6.325,0,0,0-2.616-.465H47.536V339h2.637v-5.781h4.009a6.452,6.452,0,0,0,2.616-.454,4.025,4.025,0,0,0,1.561-1.15,3.94,3.94,0,0,0,.75-1.507,6.313,6.313,0,0,0,.2-1.509,6.449,6.449,0,0,0-.2-1.519,3.953,3.953,0,0,0-.75-1.519m-1.93,4.211a2.113,2.113,0,0,1-.634.759,2.6,2.6,0,0,1-.854.412,3.469,3.469,0,0,1-.907.126H50.173v-4.979h3.9a4.443,4.443,0,0,1,.992.105,2.029,2.029,0,0,1,.823.391,1.956,1.956,0,0,1,.57.771,3.076,3.076,0,0,1,.211,1.223,2.618,2.618,0,0,1-.242,1.193" transform="translate(38.24 6.84)"/>
        </g>
        <g transform="matrix(1, 0, 0, 1, -39, -330.42)" filter="url(#パス_40)">
          <path id="パス_40-2" data-name="パス 40" d="M75.25,325.911a6.791,6.791,0,0,0-2.268-1.71,7.56,7.56,0,0,0-6.056,0,6.781,6.781,0,0,0-2.268,1.71,7.586,7.586,0,0,0-1.424,2.51,9.617,9.617,0,0,0,0,6.1,7.6,7.6,0,0,0,1.424,2.511,6.649,6.649,0,0,0,2.268,1.7,7.682,7.682,0,0,0,6.056,0,6.659,6.659,0,0,0,2.268-1.7,7.617,7.617,0,0,0,1.424-2.511,9.617,9.617,0,0,0,0-6.1,7.6,7.6,0,0,0-1.424-2.51m-.981,7.659a5.849,5.849,0,0,1-.813,1.845,4.086,4.086,0,0,1-1.424,1.3,4.693,4.693,0,0,1-4.156,0,4.07,4.07,0,0,1-1.424-1.3,5.849,5.849,0,0,1-.813-1.845,8.574,8.574,0,0,1,0-4.22,5.854,5.854,0,0,1,.813-1.846,4.065,4.065,0,0,1,1.424-1.3,4.686,4.686,0,0,1,4.156,0,4.082,4.082,0,0,1,1.424,1.3,5.855,5.855,0,0,1,.813,1.846,8.575,8.575,0,0,1,0,4.22" transform="translate(38 6.85)"/>
        </g>
        <g transform="matrix(1, 0, 0, 1, -39, -330.42)" filter="url(#パス_41)">
          <path id="パス_41-2" data-name="パス 41" d="M94.24,335.453H94.2l-2.953-11.521h-2.7l-3.038,11.521h-.042l-2.722-11.521H80.063L84.029,339h2.722l3.08-11.52h.042L92.89,339h2.679l4.156-15.065H97.046Z" transform="translate(37.72 6.84)"/>
        </g>
        <g transform="matrix(1, 0, 0, 1, -39, -330.42)" filter="url(#パス_42)">
          <path id="パス_42-2" data-name="パス 42" d="M107.013,332.309h7.6v-2.153h-7.6v-3.945h8.208v-2.279H104.376V339h10.992v-2.279h-8.355Z" transform="translate(37.33 6.84)"/>
        </g>
        <g transform="matrix(1, 0, 0, 1, -39, -330.42)" filter="url(#パス_43)">
          <path id="パス_43-2" data-name="パス 43" d="M132.378,335.031a4.254,4.254,0,0,0-.221-1.477,2.932,2.932,0,0,0-.559-.959,2.163,2.163,0,0,0-.728-.537,2.682,2.682,0,0,0-.727-.212V331.8q.189-.064.6-.253a2.879,2.879,0,0,0,.833-.623,3.874,3.874,0,0,0,.739-1.138,4.369,4.369,0,0,0,.317-1.783,3.749,3.749,0,0,0-1.245-3,5.585,5.585,0,0,0-3.735-1.077h-7.194V339H123.1v-6.2h3.882a4.055,4.055,0,0,1,1.488.232,1.964,1.964,0,0,1,.918.727,3.109,3.109,0,0,1,.463,1.246,10.828,10.828,0,0,1,.127,1.783q0,.547.053,1.139a2.441,2.441,0,0,0,.348,1.076H133.2a3.183,3.183,0,0,1-.622-1.551,13.356,13.356,0,0,1-.2-2.417m-3.038-4.841a2.748,2.748,0,0,1-1.92.6H123.1v-4.7h4.283a5.526,5.526,0,0,1,.981.085,2.13,2.13,0,0,1,.843.337,1.7,1.7,0,0,1,.581.707,2.787,2.787,0,0,1,.211,1.17,2.331,2.331,0,0,1-.653,1.8" transform="translate(37.07 6.84)"/>
        </g>
        <g transform="matrix(1, 0, 0, 1, -39, -330.42)" filter="url(#パス_44)">
          <path id="パス_44-2" data-name="パス 44" d="M140.333,332.309h7.6v-2.153h-7.6v-3.945h8.208v-2.279H137.7V339h10.992v-2.279h-8.355Z" transform="translate(36.8 6.84)"/>
        </g>
        <g transform="matrix(1, 0, 0, 1, -39, -330.42)" filter="url(#パス_45)">
          <path id="パス_45-2" data-name="パス 45" d="M165.086,326.138a5.6,5.6,0,0,0-2.068-1.614,7.012,7.012,0,0,0-3-.592h-6.245V339h6.245a7.027,7.027,0,0,0,3-.59,5.566,5.566,0,0,0,2.068-1.615,6.893,6.893,0,0,0,1.192-2.4,11.2,11.2,0,0,0,0-5.865,6.884,6.884,0,0,0-1.192-2.4m-1.256,7.448a4.13,4.13,0,0,1-.76,1.708,3.692,3.692,0,0,1-1.54,1.14,6.6,6.6,0,0,1-2.521.411h-2.6v-10.76h2.6a6.6,6.6,0,0,1,2.521.41,3.69,3.69,0,0,1,1.54,1.139,4.13,4.13,0,0,1,.76,1.709,11.3,11.3,0,0,1,0,4.241" transform="translate(36.54 6.84)"/>
        </g>
        <g transform="matrix(1, 0, 0, 1, -39, -330.42)" filter="url(#パス_46)">
          <path id="パス_46-2" data-name="パス 46" d="M189.622,329.492a4.423,4.423,0,0,0-1.593-1.244,5.2,5.2,0,0,0-2.247-.454,3.971,3.971,0,0,0-.938.115,4.093,4.093,0,0,0-.907.338,3.812,3.812,0,0,0-.791.537,3.268,3.268,0,0,0-.611.717h-.042v-5.57h-2.407V339h2.279v-1.5h.042a2.675,2.675,0,0,0,.686.888,3.645,3.645,0,0,0,.918.548,4.212,4.212,0,0,0,1.065.285,8.623,8.623,0,0,0,1.109.073,4.224,4.224,0,0,0,3.554-1.74,5.56,5.56,0,0,0,.865-1.825,7.986,7.986,0,0,0,.284-2.131,7.834,7.834,0,0,0-.316-2.257,5.425,5.425,0,0,0-.95-1.847m-1.3,5.465a3.54,3.54,0,0,1-.527,1.224,2.952,2.952,0,0,1-.94.876,2.685,2.685,0,0,1-1.392.336,2.751,2.751,0,0,1-1.3-.294,3.017,3.017,0,0,1-.959-.8,3.452,3.452,0,0,1-.6-1.212,5.589,5.589,0,0,1-.2-1.531,4.644,4.644,0,0,1,.77-2.8,2.649,2.649,0,0,1,2.289-1.056,2.576,2.576,0,0,1,1.308.328,2.95,2.95,0,0,1,.951.864,3.929,3.929,0,0,1,.569,1.235,5.454,5.454,0,0,1,.19,1.434,6.231,6.231,0,0,1-.158,1.4" transform="translate(36.12 6.84)"/>
        </g>
        <g transform="matrix(1, 0, 0, 1, -39, -330.42)" filter="url(#パス_47)">
          <path id="パス_47-2" data-name="パス 47" d="M200,336.3h-.042l-2.849-8.143h-2.637l4.136,10.865-.275.844a4.686,4.686,0,0,1-.232.633,1.917,1.917,0,0,1-.306.475,1.154,1.154,0,0,1-.453.3,1.956,1.956,0,0,1-.7.105,3.068,3.068,0,0,1-.57-.052q-.275-.053-.57-.1v2.026a10.892,10.892,0,0,0,1.667.127,3.5,3.5,0,0,0,1.562-.306,3.027,3.027,0,0,0,1.022-.823,5.082,5.082,0,0,0,.7-1.193q.285-.676.581-1.414l4.24-11.5h-2.51Z" transform="translate(35.89 6.77)"/>
        </g>
        <g transform="matrix(1, 0, 0, 1, -39, -330.42)" filter="url(#パス_48)">
          <path id="パス_48-2" data-name="パス 48" d="M220.91,323.933h-2.637V339h10.3v-2.279H220.91Z" transform="translate(35.51 6.84)"/>
        </g>
        <g transform="matrix(1, 0, 0, 1, -39, -330.42)" filter="url(#長方形_11)">
          <rect id="長方形_11-2" data-name="長方形 11" width="2.638" height="15.065" transform="translate(268.42 330.77)"/>
        </g>
        <g transform="matrix(1, 0, 0, 1, -39, -330.42)" filter="url(#パス_49)">
          <path id="パス_49-2" data-name="パス 49" d="M242.115,339h2.638v-6.688h6.814v-2.152h-6.814v-3.945h7.764v-2.28h-10.4Z" transform="translate(35.13 6.84)"/>
        </g>
        <g transform="matrix(1, 0, 0, 1, -39, -330.42)" filter="url(#パス_50)">
          <path id="パス_50-2" data-name="パス 50" d="M259.183,332.309h7.6v-2.153h-7.6v-3.945h8.207v-2.279H256.545V339h10.992v-2.279h-8.354Z" transform="translate(34.9 6.84)"/>
        </g>
        <g transform="matrix(1, 0, 0, 1, -39, -330.42)" filter="url(#長方形_12)">
          <rect id="長方形_12-2" data-name="長方形 12" width="2.638" height="15.065" transform="translate(315.66 330.77)"/>
        </g>
        <g transform="matrix(1, 0, 0, 1, -39, -330.42)" filter="url(#パス_51)">
          <path id="パス_51-2" data-name="パス 51" d="M300.324,332.335a4.042,4.042,0,0,0-.919-.917,4.354,4.354,0,0,0-1.286-.633c-.2-.057-.525-.145-.982-.265l-1.4-.369q-.717-.19-1.3-.347l-.665-.18a3.2,3.2,0,0,1-1.3-.686,1.614,1.614,0,0,1-.5-1.255,1.633,1.633,0,0,1,.264-.951,1.948,1.948,0,0,1,.665-.6,3,3,0,0,1,.886-.316,4.957,4.957,0,0,1,.95-.1,3.936,3.936,0,0,1,2.256.6,2.54,2.54,0,0,1,.993,2.058h2.637a4.345,4.345,0,0,0-1.721-3.587,5.455,5.455,0,0,0-1.834-.917,7.85,7.85,0,0,0-2.226-.307,7.724,7.724,0,0,0-2.005.265,5.5,5.5,0,0,0-1.772.812,4.256,4.256,0,0,0-1.256,1.382,3.927,3.927,0,0,0-.473,1.973,4.33,4.33,0,0,0,.157,1.161,3.2,3.2,0,0,0,.538,1.074,3.8,3.8,0,0,0,1.023.918,5.606,5.606,0,0,0,1.615.665q1.562.422,2.626.686a18.126,18.126,0,0,1,1.868.559,2.239,2.239,0,0,1,.853.581,1.8,1.8,0,0,1,.39,1.275,2.174,2.174,0,0,1-.167.833,1.857,1.857,0,0,1-.549.728,2.973,2.973,0,0,1-.991.518,4.775,4.775,0,0,1-1.478.2,5.815,5.815,0,0,1-1.486-.18,3.467,3.467,0,0,1-1.213-.569,2.664,2.664,0,0,1-.824-1,3.358,3.358,0,0,1-.3-1.477h-2.638a5.584,5.584,0,0,0,.528,2.416,4.728,4.728,0,0,0,1.35,1.677,5.653,5.653,0,0,0,1.984.971,9.019,9.019,0,0,0,2.425.316,9.235,9.235,0,0,0,2.2-.263,5.932,5.932,0,0,0,1.92-.833,4.384,4.384,0,0,0,1.359-1.467,4.238,4.238,0,0,0,.518-2.162,4.072,4.072,0,0,0-.179-1.183,3.8,3.8,0,0,0-.548-1.107" transform="translate(34.38 6.85)"/>
        </g>
        <g transform="matrix(1, 0, 0, 1, -39, -330.42)" filter="url(#長方形_13)">
          <rect id="長方形_13-2" data-name="長方形 13" width="2.637" height="15.065" transform="translate(348.66 330.77)"/>
        </g>
        <g transform="matrix(1, 0, 0, 1, -39, -330.42)" filter="url(#パス_52)">
          <path id="パス_52-2" data-name="パス 52" d="M328.6,327.857a3.819,3.819,0,0,0-1.963.518,4.019,4.019,0,0,0-1.434,1.423l-.042-.041v-1.6h-2.279V339.06h2.406v-6.434a3.272,3.272,0,0,1,.19-1.119,2.884,2.884,0,0,1,.526-.918,2.4,2.4,0,0,1,.824-.611,2.611,2.611,0,0,1,1.1-.221,1.991,1.991,0,0,1,1.582.58,2.966,2.966,0,0,1,.549,1.868v6.857h2.4v-7.49a3.558,3.558,0,0,0-1.033-2.785,4.083,4.083,0,0,0-2.827-.928" transform="translate(33.84 6.78)"/>
        </g>
        <g transform="matrix(1, 0, 0, 1, -39, -330.42)" filter="url(#パス_53)">
          <path id="パス_53-2" data-name="パス 53" d="M340.669,330.505a2.348,2.348,0,0,1,.971-.59,3.45,3.45,0,0,1,.991-.158,2.654,2.654,0,0,1,1.678.517,2.259,2.259,0,0,1,.812,1.529h2.4a4.19,4.19,0,0,0-.506-1.751,3.9,3.9,0,0,0-1.086-1.224,4.782,4.782,0,0,0-1.519-.728,6.637,6.637,0,0,0-1.8-.242,5.645,5.645,0,0,0-2.352.455,4.7,4.7,0,0,0-1.677,1.244,5.273,5.273,0,0,0-1.013,1.868,7.633,7.633,0,0,0-.338,2.3,7,7,0,0,0,.347,2.237,5.039,5.039,0,0,0,1.024,1.783,4.792,4.792,0,0,0,1.656,1.181,5.577,5.577,0,0,0,2.268.433,4.929,4.929,0,0,0,3.386-1.129,5.285,5.285,0,0,0,1.614-3.261h-2.4a3.043,3.043,0,0,1-.854,1.837,2.421,2.421,0,0,1-1.741.653,2.539,2.539,0,0,1-1.329-.328,2.735,2.735,0,0,1-.9-.854,3.676,3.676,0,0,1-.507-1.2,5.907,5.907,0,0,1-.158-1.35,5.736,5.736,0,0,1,.3-2.015,3.324,3.324,0,0,1,.739-1.2" transform="translate(33.61 6.78)"/>
        </g>
        <g transform="matrix(1, 0, 0, 1, -39, -330.42)" filter="url(#長方形_14)">
          <rect id="長方形_14-2" data-name="長方形 14" width="2.932" height="2.849" transform="translate(385.82 342.99)"/>
        </g>
      </g>
    </g>
    <g id="グループ_30" data-name="グループ 30" transform="translate(581.468 256.295)">
      <path id="パス_28" data-name="パス 28" d="M150.925,21.865Q131.846,0,103.2,0A62.141,62.141,0,0,0,72.968,7.691,54.141,54.141,0,0,0,50.8,30.685a70.21,70.21,0,0,0-8.067,33.248A89.849,89.849,0,0,0,45.6,86.4a47.057,47.057,0,0,0,6.875,15A56.674,56.674,0,0,0,65.851,114.3q3.476,2.567,17.678,7.691,1.809.6,8.913.6a59.466,59.466,0,0,0,21-3.618q4.53-1.659,4.533-7.39a7.476,7.476,0,0,0-1.515-5.051,4.4,4.4,0,0,0-3.329-1.732l-2.271.452a27.712,27.712,0,0,1-7.87,1.207,26.822,26.822,0,0,1-11.808-2.866q-2.425-1.356-5.145-5.881A39.87,39.87,0,0,1,80.59,82.48a186.986,186.986,0,0,1-1.817-26.841Q78.772,32.42,88,19.9q6.8-9.193,16.484-9.2,10.432,0,17.543,10.706,9.371,14.327,9.375,52.775a162.054,162.054,0,0,1-.907,18.548q-1.21,10.4-1.36,13.119-.3,8.142-3.551,22.24a83.7,83.7,0,0,1-10.955,26.238,77.687,77.687,0,0,1-19.038,20.656,110.729,110.729,0,0,1-27.047,14.552q-8.009,3.021-8.766,4.071a5.5,5.5,0,0,0-1.51,4.072,8.773,8.773,0,0,0,2.412,5.577q3.767.3,5.73.3,10.856,0,27.9-6.032a104.96,104.96,0,0,0,32.419-18.925,106.87,106.87,0,0,0,24.427-28.65q9.047-15.752,11.008-21.485Q170,105.4,170,85.044q0-41.314-19.075-63.179" transform="translate(-42.735)"/>
      <path id="パス_29" data-name="パス 29" d="M190.762,101.405A56.682,56.682,0,0,0,204.135,114.3q3.474,2.566,17.678,7.689,1.809.6,8.913.6a59.446,59.446,0,0,0,21-3.619q4.53-1.657,4.532-7.389a7.482,7.482,0,0,0-1.514-5.051,4.4,4.4,0,0,0-3.329-1.733l-2.271.453a27.761,27.761,0,0,1-7.871,1.206,26.835,26.835,0,0,1-11.808-2.865q-2.425-1.357-5.145-5.881a39.9,39.9,0,0,1-5.45-15.229,187.173,187.173,0,0,1-1.816-26.842q0-23.219,9.224-35.736,6.8-9.195,16.482-9.2,10.432,0,17.544,10.705,9.371,14.327,9.374,52.775a161.778,161.778,0,0,1-.908,18.549q-1.206,10.4-1.359,13.119-.3,8.142-3.549,22.24a83.747,83.747,0,0,1-10.956,26.238,77.686,77.686,0,0,1-19.038,20.656,110.743,110.743,0,0,1-27.047,14.551q-8.008,3.021-8.765,4.072a5.493,5.493,0,0,0-1.511,4.071,8.775,8.775,0,0,0,2.413,5.579q3.767.3,5.73.3,10.856,0,27.9-6.03a104.975,104.975,0,0,0,32.419-18.926,106.827,106.827,0,0,0,24.427-28.649q9.047-15.752,11.01-21.486,7.834-23.072,7.84-43.427,0-41.315-19.076-63.18T241.483,0A62.149,62.149,0,0,0,211.25,7.691a54.151,54.151,0,0,0-22.166,23,70.207,70.207,0,0,0-8.067,33.248,89.855,89.855,0,0,0,2.87,22.468,47.076,47.076,0,0,0,6.875,15" transform="translate(-30.085)"/>
      <path id="パス_54" data-name="パス 54" d="M371.779,46.106a14.787,14.787,0,0,0-3.21-4.8,15.675,15.675,0,0,0-4.93-3.3,16.61,16.61,0,0,0-12.532,0,15.642,15.642,0,0,0-4.928,3.3,14.787,14.787,0,0,0-3.211,4.8,14.968,14.968,0,0,0-1.139,5.782,15.491,15.491,0,0,0,1.114,5.841,14.808,14.808,0,0,0,3.143,4.824,15.083,15.083,0,0,0,4.891,3.3,17.264,17.264,0,0,0,12.794,0,15.072,15.072,0,0,0,4.89-3.3,14.8,14.8,0,0,0,3.143-4.825,15.482,15.482,0,0,0,1.113-5.841,14.946,14.946,0,0,0-1.138-5.782m-7.622,5.782a6.79,6.79,0,0,1-.538,2.695,6.874,6.874,0,0,1-1.459,2.18,6.979,6.979,0,0,1-2.16,1.46,6.794,6.794,0,0,1-5.277,0,6.9,6.9,0,0,1-3.682-3.683,6.682,6.682,0,0,1-.538-2.651,6.494,6.494,0,0,1,.535-2.646,6.6,6.6,0,0,1,1.475-2.111,7.027,7.027,0,0,1,2.2-1.421,6.909,6.909,0,0,1,2.659-.521,6.76,6.76,0,0,1,6.249,4.053,6.493,6.493,0,0,1,.535,2.646" transform="translate(-15.374 3.365)"/>
      <path id="パス_55" data-name="パス 55" d="M322.773,33.317a16.3,16.3,0,0,0,6.35-1.2,14.757,14.757,0,0,0,8.08-8.128,15.347,15.347,0,0,0,1.114-5.82,14.875,14.875,0,0,0-1.16-5.8,15.234,15.234,0,0,0-3.208-4.821,15.066,15.066,0,0,0-4.914-3.278,16.878,16.878,0,0,0-12.526,0,15.324,15.324,0,0,0-4.932,3.276,14.725,14.725,0,0,0-3.211,4.828,15.086,15.086,0,0,0-1.138,5.8,15.332,15.332,0,0,0,1.115,5.821,15.153,15.153,0,0,0,3.14,4.822,14.659,14.659,0,0,0,4.9,3.305,16.416,16.416,0,0,0,6.393,1.2m-6.914-15.153a6.682,6.682,0,0,1,.536-2.67,6.523,6.523,0,0,1,1.472-2.129,6.755,6.755,0,0,1,2.195-1.4,7.334,7.334,0,0,1,2.711-.5,7.076,7.076,0,0,1,2.643.5,6.562,6.562,0,0,1,2.15,1.394,6.673,6.673,0,0,1,1.992,4.8,6.82,6.82,0,0,1-.538,2.7,6.856,6.856,0,0,1-12.623-.043,6.724,6.724,0,0,1-.538-2.653" transform="translate(-18.539 0.28)"/>
      <path id="パス_56" data-name="パス 56" d="M368.416,1.418H358.4L312.2,70.536h9.977Z" transform="translate(-18.084 0.13)"/>
    </g>
  </g>
</svg>
