<svg xmlns="http://www.w3.org/2000/svg" width="496.71" height="53.31" viewBox="0 0 496.71 53.31">
  <path id="パス_72459" data-name="パス 72459" d="M-243.789,1.08a2.246,2.246,0,0,1-.617-1.427,1.407,1.407,0,0,1,.386-1.042,8.006,8.006,0,0,1,2.237-1.042,28.281,28.281,0,0,0,6.9-3.722,19.868,19.868,0,0,0,4.86-5.285,21.418,21.418,0,0,0,2.8-6.712,32.4,32.4,0,0,0,.906-5.69q.039-.694.347-3.356a41.429,41.429,0,0,0,.231-4.745q0-9.836-2.392-13.5a5.28,5.28,0,0,0-4.475-2.739,5.1,5.1,0,0,0-4.2,2.353q-2.353,3.2-2.353,9.142a48.048,48.048,0,0,0,.463,6.866,10.248,10.248,0,0,0,1.389,3.9,4.148,4.148,0,0,0,1.312,1.5,6.818,6.818,0,0,0,3.009.733,7.052,7.052,0,0,0,2.006-.309l.579-.116a1.118,1.118,0,0,1,.849.444,1.915,1.915,0,0,1,.386,1.292,1.791,1.791,0,0,1-1.157,1.89,15.151,15.151,0,0,1-5.362.926,9.734,9.734,0,0,1-2.276-.154,22.7,22.7,0,0,1-4.513-1.967,14.483,14.483,0,0,1-3.414-3.3,12.053,12.053,0,0,1-1.755-3.838,23.026,23.026,0,0,1-.733-5.748,17.963,17.963,0,0,1,2.064-8.506,13.856,13.856,0,0,1,5.67-5.883,15.9,15.9,0,0,1,7.734-1.967A15.532,15.532,0,0,1-220.7-45.325q4.88,5.593,4.88,16.163a34.593,34.593,0,0,1-2.006,11.109,40.294,40.294,0,0,1-2.816,5.5,27.347,27.347,0,0,1-6.249,7.329,26.854,26.854,0,0,1-8.293,4.841,22.484,22.484,0,0,1-7.136,1.543Q-242.825,1.157-243.789,1.08Zm37.031,0a2.246,2.246,0,0,1-.617-1.427,1.407,1.407,0,0,1,.386-1.042,8.006,8.006,0,0,1,2.237-1.042,28.281,28.281,0,0,0,6.9-3.722,19.868,19.868,0,0,0,4.86-5.285,21.418,21.418,0,0,0,2.8-6.712,32.4,32.4,0,0,0,.906-5.69q.039-.694.347-3.356a41.429,41.429,0,0,0,.231-4.745q0-9.836-2.392-13.5a5.28,5.28,0,0,0-4.475-2.739,5.1,5.1,0,0,0-4.2,2.353q-2.353,3.2-2.353,9.142a48.048,48.048,0,0,0,.463,6.866,10.248,10.248,0,0,0,1.389,3.9,4.148,4.148,0,0,0,1.312,1.5,6.818,6.818,0,0,0,3.009.733,7.052,7.052,0,0,0,2.006-.309l.579-.116a1.118,1.118,0,0,1,.849.444,1.915,1.915,0,0,1,.386,1.292,1.791,1.791,0,0,1-1.157,1.89,15.151,15.151,0,0,1-5.362.926,9.734,9.734,0,0,1-2.276-.154,22.7,22.7,0,0,1-4.513-1.967,14.483,14.483,0,0,1-3.414-3.3,12.053,12.053,0,0,1-1.755-3.838,23.026,23.026,0,0,1-.733-5.748,17.963,17.963,0,0,1,2.064-8.506,13.856,13.856,0,0,1,5.67-5.883,15.9,15.9,0,0,1,7.734-1.967,15.532,15.532,0,0,1,12.209,5.593q4.88,5.593,4.88,16.163A34.593,34.593,0,0,1-180.8-18.053a40.294,40.294,0,0,1-2.816,5.5,27.347,27.347,0,0,1-6.249,7.329,26.854,26.854,0,0,1-8.293,4.841,22.484,22.484,0,0,1-7.136,1.543Q-205.793,1.157-206.758,1.08ZM-163.246,1q8.448-12.344,34.215-52.538l.5-.116,3.51.154.386-.039L-158.887,1a7.829,7.829,0,0,1-1.119,0l-2.353-.116ZM-174.2-37.533a14.777,14.777,0,0,1,.386-3.742,26.62,26.62,0,0,1,1.35-4.166,11.111,11.111,0,0,1,2.044-2.932,10.843,10.843,0,0,1,3.028-2.044,8.157,8.157,0,0,1,3.26-.656,8.926,8.926,0,0,1,7.04,3.51q2.951,3.51,2.951,9.682a20.2,20.2,0,0,1-.849,6.133,12.819,12.819,0,0,1-2.392,4.475,8.872,8.872,0,0,1-2.662,2.2,7.27,7.27,0,0,1-3.317,1.042,11.144,11.144,0,0,1-5.015-.887,10.673,10.673,0,0,1-4.108-4.513A17.031,17.031,0,0,1-174.2-37.533Zm6.712-1.08q.116,2.7.116,3.7.039,5.863.5,6.712l1.234,1.582a2.133,2.133,0,0,0,1.273.386,2.711,2.711,0,0,0,1.909-.829q.868-.829,1.254-3.568a40.629,40.629,0,0,0,.386-5.67l-.077-2.584V-41.66q0-4.282-1.119-5.979a2.387,2.387,0,0,0-2.083-1.157,2.654,2.654,0,0,0-1.909.81,6.29,6.29,0,0,0-1.254,3.317Q-167.412-43.7-167.489-38.613Zm33.945,25.536a14.312,14.312,0,0,1,.386-3.7,26.614,26.614,0,0,1,1.35-4.2,11.111,11.111,0,0,1,2.044-2.932,10.481,10.481,0,0,1,3.028-2.025,8.371,8.371,0,0,1,3.26-.636,8.962,8.962,0,0,1,7.021,3.491q2.97,3.491,2.97,9.663a20.2,20.2,0,0,1-.849,6.133,12.47,12.47,0,0,1-2.43,4.475,8.44,8.44,0,0,1-2.623,2.2A7.314,7.314,0,0,1-122.743.424a11.034,11.034,0,0,1-4.976-.887,10.47,10.47,0,0,1-4.127-4.513A17.193,17.193,0,0,1-133.544-13.077Zm6.712-1.08q.116,2.7.116,3.7,0,5.863.5,6.712l1.234,1.582a2.133,2.133,0,0,0,1.273.386,2.646,2.646,0,0,0,1.89-.829q.849-.829,1.234-3.568a40.627,40.627,0,0,0,.386-5.67l-.039-2.584V-17.2q0-4.282-1.119-5.979a2.387,2.387,0,0,0-2.083-1.157,2.719,2.719,0,0,0-1.929.81,6.167,6.167,0,0,0-1.273,3.317Q-126.793-19.249-126.832-14.157Zm68.315-34.91a25.712,25.712,0,0,1,.694,3.973,57.042,57.042,0,0,1,.463,6.172,8.074,8.074,0,0,1-.154,1.5l-.386.116-2.777-.193-.463-.077q-1.7-5.092-3.395-6.9a9.223,9.223,0,0,0-6.9-3.086,8.659,8.659,0,0,0-6,1.987,6.339,6.339,0,0,0-2.218,4.918,6.814,6.814,0,0,0,2.2,4.745q2.16,2.276,9.181,4.359a43.1,43.1,0,0,1,5.69,2.237,16.669,16.669,0,0,1,5.073,3.356,14.4,14.4,0,0,1,3.182,4.61,15.293,15.293,0,0,1,.868,5.535,19.731,19.731,0,0,1-1.35,7.136,10.665,10.665,0,0,1-2.353,3.51,22.321,22.321,0,0,1-3.587,2.719A17.734,17.734,0,0,1-65.788-.193,26.64,26.64,0,0,1-72.481.5,32.609,32.609,0,0,1-78.923-.27l-4.629-1.35a7.66,7.66,0,0,1-2.43-.964,1.471,1.471,0,0,1-.347-.733v-.424q0-.424-.193-5.285-.077-2.507-.077-3.549v-1.466l3.549-.077q1.852,4.282,2.392,5.169a12.756,12.756,0,0,0,2.642,3.182,11.083,11.083,0,0,0,3.452,1.929,12.916,12.916,0,0,0,4.359.714,13.87,13.87,0,0,0,4.59-.887,8.438,8.438,0,0,0,4.031-2.912,7.085,7.085,0,0,0,1.524-4.34,7.108,7.108,0,0,0-2.662-5.285q-1.62-1.5-8.718-4.012t-9.836-4.475A13.551,13.551,0,0,1-85.6-30.3a14.659,14.659,0,0,1-1.582-6.345,13.99,13.99,0,0,1,4.4-10.415q4.4-4.282,12.961-4.282a33.666,33.666,0,0,1,5.478.656A41.319,41.319,0,0,1-58.517-49.066Zm9.3-1.119q2.2.116,3.819.347a51.774,51.774,0,0,0,7.059.424q1.389,0,7.136-.231,8.6-.347,15.545-.347l6.982-.077a60.5,60.5,0,0,1,6.943.579,3,3,0,0,1,.694,2.083v7.946l.077,1.582q0,.231-.039.694l-1.582.077q-.309,0-1.312-.077-.347-.771-.926-2.276L-6.365-42.2a17.783,17.783,0,0,0-2.469-3.549,10.363,10.363,0,0,0-2.469-.309q-.386-.039-2.353-.193-3.587-.309-7.715-.309-4.706,0-8.409.154-.116.964-.116,7.6l.077,6.48v4.86a14.215,14.215,0,0,0,1.659.116q6.9,0,9.836-.27a9.582,9.582,0,0,0,3.626-.752,3.982,3.982,0,0,0,1.234-1.678,53.071,53.071,0,0,0,1.35-5.67l.5-.039,2.237.039q.154,3.433.154,5.208,0,4.05-.058,5.208t-.058,1.813q0,1.042.116,3.337t.116,3.414v.849h-2.739q-.154-.617-.579-2.546a15.585,15.585,0,0,0-1.389-4.475,2.8,2.8,0,0,0-1.543-1.042,30.473,30.473,0,0,0-5.709-.27q-5.825,0-8.756.309-.039,1-.039,1.312,0,4.59.154,7.638l-.077,8.332a2.05,2.05,0,0,0,1.042,2.006q1.582.81,9.682.81a43.75,43.75,0,0,0,9.1-.81A9.053,9.053,0,0,0-5.4-7.213a19.635,19.635,0,0,0,4.359-7.252q1.2-.116,1.967-.116.424,0,1.273.039-.116.964-.193,1.62l-.231,1.157L.347-4.475l-.694,4.4Q-2.854.039-4.32.039q-2.16,0-11.534-.386-6.6-.27-15.893-.27-4.629,0-11.379.386h-1.62l-4.667.154V-2.739a24.019,24.019,0,0,1,2.932-.424A18.64,18.64,0,0,0-40.927-4.4,8.017,8.017,0,0,0-40.5-7.213q0-.656-.039-2.237l.039-1.2-.116-14.542.039-4.359-.193-6.172.039-4.359-.347-4.783a7.337,7.337,0,0,0-.077-.771,1.884,1.884,0,0,0-1.157-.54q-.424-.077-1.157-.231a25.221,25.221,0,0,0-4.243-.54q-.733-.039-1.7-.154ZM8.409-2.623a8.846,8.846,0,0,1,2.97-.791,16.338,16.338,0,0,0,3.549-.829,9.644,9.644,0,0,0,.231-1.119q.077-.54.077-3.7l-.039-8.6.154-4.629-.077-3.587.077-2.083q.116-4.2.116-7.869,0-8.023-.193-10.261L13-46.559q-3.125-.193-4.166-.386l-.077-2.314.154-.424a22.588,22.588,0,0,1,3.549-.309q.887,0,3.587-.039,2.777.231,3.009.231l2.044-.116,4.822-.231a93.487,93.487,0,0,1,9.528-.463q7.908,0,12.575,4.031t4.667,9.239a11.108,11.108,0,0,1-2.527,7.078,15.38,15.38,0,0,1-7.773,4.8q.463.81,1.234,1.89,1.62,2.314,2.623,3.935l6.172,9.991A30,30,0,0,0,55.45-5,9.3,9.3,0,0,0,58.4-3.51,12.157,12.157,0,0,1,61.063-2.2a3.541,3.541,0,0,1,.231,1.157q0,.347-.039.887H60.214l-.771.039-2.006-.27H55.855a20.209,20.209,0,0,0-3.047-.193L48.951-.617q-.424,0-2.7.27-1.042.116-1.659.193L43.28-2.7Q41.66-5.593,41-7.021q-1.7-3.742-5.825-11.919-1.929-3.78-2.7-4.282a7.219,7.219,0,0,0-3.973-.81q-.771,0-2.623.077a26.328,26.328,0,0,0-.116,2.662l.154,8.563-.193,7.252a8.748,8.748,0,0,0,2.816,1,31.679,31.679,0,0,1,5.169,1.466A19.538,19.538,0,0,1,33.56-.154q-.733-.039-.926-.039l-1.582.077q-8.293-.733-9.836-.733-1,0-1.427.039l-5.323.347a40.448,40.448,0,0,1-4.436.27H8.371q-.077-.964-.077-1.234A8.644,8.644,0,0,1,8.409-2.623ZM25.768-27.581q1.852.077,2.7.077,6.558,0,9.3-2.353A7.872,7.872,0,0,0,40.5-36.144a15.116,15.116,0,0,0-.675-4.571A8.06,8.06,0,0,0,38.15-43.9a8.941,8.941,0,0,0-3.742-2.276,18.387,18.387,0,0,0-5.439-.579,20.692,20.692,0,0,0-3.047.193l-.039.733.039,5.208-.077,3.163.039,4.2q-.077,1.774-.116,4.59ZM56.473-47.253v-3.317q2.006.039,2.43.077a114.852,114.852,0,0,0,12.459.54q1.157,0,4.706-.231,2.546-.193,3.819-.386H82.7q.077,2.816.077,3.163-3.857.5-4.513.656a5.844,5.844,0,0,0-2.507,1.234,1.371,1.371,0,0,0-.424,1,4.735,4.735,0,0,0,.077.849l1.273,3.356q1.35,3.935,4.475,10.685l4.4,9.952q1.273,2.893,2.314,5.478l2.237-5.478L94.7-32.4l1.08-2.7q.193-.579.5-1.62,1-3.433,1.678-5.208a8.592,8.592,0,0,0,.675-2.893A1.56,1.56,0,0,0,97.9-46.1a7.282,7.282,0,0,0-3.665-1.08,8.867,8.867,0,0,0-1.427-.251,14.642,14.642,0,0,1-1.582-.251A4.474,4.474,0,0,1,91-48.835a17.388,17.388,0,0,1,.154-1.774q.694,0,3.973.309t6.4.309A44.28,44.28,0,0,0,107-50.281q2.276-.289,3.7-.328v1.234q0,.463-.039,1.389a32.645,32.645,0,0,0-5.825,2.469,3.89,3.89,0,0,0-1.042,1.273,92.239,92.239,0,0,0-4.475,10.454L94.391-21.023q-.694,1.852-1.524,3.915t-1.755,4.532Q90.919-12,89.3-7.946l-.386.694Q87.216-1.813,86.368.27q-1.543.077-1.929.077-.733,0-2.044-.077-.424-1.157-.849-2.353t-3.279-8.371L70.977-26.809,66.618-37.34q-3.356-7.175-3.665-7.676A4.138,4.138,0,0,0,61.487-46.4a10.6,10.6,0,0,0-3.356-.656Zm56.7,47.022V-3.009q.771-.231,2.546-.656a17.152,17.152,0,0,0,3.742-1.273,6.635,6.635,0,0,0,.694-3.317l-.039-4.552L120.2-21.6l-.039-2.083q.27-7.638.27-7.869l-.077-5.13.116-2.083-.193-4.4-.039-1.659a8.592,8.592,0,0,0-.27-1.234,15.064,15.064,0,0,0-5.13-.926,13.277,13.277,0,0,1-1.35-.116l-.116-3.395,11.032.463q2.044.077,2.546.077,2.276,0,7.291-.309,2.816-.193,3.549-.231.039.733.039,1.234,0,.656-.077,1.7-1.543.54-3.53,1.022a25.575,25.575,0,0,0-3.26.984,13.7,13.7,0,0,0-.231,2.893,25.4,25.4,0,0,0,.116,2.7q-.116,6.519-.116,10.029l.039,10.184-.116,5.169.077,7.715L130.689-5.4a3.747,3.747,0,0,0,.154.887,39.66,39.66,0,0,0,4.282.694q.347.039,2.353.309a15.07,15.07,0,0,1,.154,1.929q0,.424-.039,1.312a5.832,5.832,0,0,0-.771.039q-1.234.077-1.427.077a7.79,7.79,0,0,1-1-.116q-.54-.077-5.13-.54l-6.828-.077q-2.044,0-5.94.386Q113.948-.27,113.177-.231Zm75.528-49.144q.5,1.157,2.044,6.6a20.347,20.347,0,0,1,.733,5.246h-3.51a25.546,25.546,0,0,0-7.638-7.541,17.132,17.132,0,0,0-8.795-2.3A11.668,11.668,0,0,0,161.9-42.7q-4.976,6.326-4.976,17.628a35.726,35.726,0,0,0,.849,9.335,24.265,24.265,0,0,0,3.51,7.368,11.44,11.44,0,0,0,4.243,3.433A15.705,15.705,0,0,0,172.774-3.2a14.556,14.556,0,0,0,8.2-2.642,29.418,29.418,0,0,0,7.58-7.888,22.946,22.946,0,0,1,3.742-.309,27.809,27.809,0,0,1-.5,3.047q-.116.617-.887,4.9l-.347,1.157-.54,1.813A16.389,16.389,0,0,1,183.4-.405,51.315,51.315,0,0,1,172.928.5a43.565,43.565,0,0,1-8.969-.887A21.468,21.468,0,0,1,156.727-3.2a26.468,26.468,0,0,1-6.9-6.018,22.713,22.713,0,0,1-3.722-7.059,28.174,28.174,0,0,1-1.215-8.563q0-11.5,7.58-18.979T171.81-51.3a79.543,79.543,0,0,1,9.007.482A55.941,55.941,0,0,1,188.705-49.375Zm7.676-.81q2.2.116,3.819.347a51.774,51.774,0,0,0,7.059.424q1.389,0,7.136-.231,8.6-.347,15.545-.347l6.982-.077a60.5,60.5,0,0,1,6.943.579,3,3,0,0,1,.694,2.083v7.946l.077,1.582q0,.231-.039.694l-1.582.077q-.309,0-1.312-.077-.347-.771-.926-2.276L239.237-42.2a17.783,17.783,0,0,0-2.469-3.549,10.363,10.363,0,0,0-2.469-.309q-.386-.039-2.353-.193-3.587-.309-7.715-.309-4.706,0-8.409.154-.116.964-.116,7.6l.077,6.48v4.86a14.215,14.215,0,0,0,1.659.116q6.9,0,9.836-.27a9.582,9.582,0,0,0,3.626-.752,3.982,3.982,0,0,0,1.234-1.678,53.073,53.073,0,0,0,1.35-5.67l.5-.039,2.237.039q.154,3.433.154,5.208,0,4.05-.058,5.208t-.058,1.813q0,1.042.116,3.337t.116,3.414v.849H233.76q-.154-.617-.579-2.546a15.585,15.585,0,0,0-1.389-4.475,2.8,2.8,0,0,0-1.543-1.042,30.473,30.473,0,0,0-5.709-.27q-5.825,0-8.756.309-.039,1-.039,1.312,0,4.59.154,7.638l-.077,8.332a2.05,2.05,0,0,0,1.042,2.006q1.582.81,9.682.81a43.75,43.75,0,0,0,9.1-.81A9.053,9.053,0,0,0,240.2-7.213a19.634,19.634,0,0,0,4.359-7.252q1.2-.116,1.967-.116.424,0,1.273.039-.116.964-.193,1.62l-.231,1.157-1.427,7.291-.694,4.4q-2.507.116-3.973.116-2.16,0-11.534-.386-6.6-.27-15.893-.27-4.629,0-11.379.386h-1.62l-4.667.154V-2.739a24.019,24.019,0,0,1,2.932-.424A18.64,18.64,0,0,0,204.675-4.4a8.017,8.017,0,0,0,.424-2.816q0-.656-.039-2.237l.039-1.2-.116-14.542.039-4.359-.193-6.172.039-4.359-.347-4.783a7.336,7.336,0,0,0-.077-.771,1.884,1.884,0,0,0-1.157-.54q-.424-.077-1.157-.231a25.221,25.221,0,0,0-4.243-.54q-.733-.039-1.7-.154Z" transform="translate(248.629 51.902)" stroke="#000" stroke-width="0.5"/>
</svg>
