<svg xmlns="http://www.w3.org/2000/svg" width="310" height="97.968" viewBox="0 0 310 97.968">
  <g id="グループ_6820" data-name="グループ 6820" transform="translate(-48 -4165.171)">
    <g id="グループ_6819" data-name="グループ 6819" transform="translate(-95.883 179)">
      <g id="グループ_6818" data-name="グループ 6818" transform="translate(-1590 4699.499)">
        <path id="パス_71953" data-name="パス 71953" d="M545.991,36.8H547a6.447,6.447,0,0,0,.788-.109,11.082,11.082,0,0,0,.38-2.392q.489-4.892.489-6.849v-.761a11.24,11.24,0,0,0-1.468-.109h-.87A16.438,16.438,0,0,1,545,29.736a7.8,7.8,0,0,1-1.508,1.766,5.89,5.89,0,0,1-2.447,1.522c-.053.018-.107.033-.161.051l-.1.481-.1.466-.151-.223-.176.17c-.279.518-.548,1.041-.817,1.563l-.426.822-.949-.918,1.812-1.752.063-.116a.612.612,0,0,1,.2-.2l-.047-.068a18.926,18.926,0,0,1-6.017.735l-1.713-.054-1.6.027-2.583-.109A1.462,1.462,0,0,1,528,32.838l.108-12.888q0-1.088.027-1.766.082-1.82.082-3.234,0-1.223-.082-2.854-.054-1.033-.054-1.468c0-.235.008-.469.027-.7q.082-1.359.082-1.5l-.027-.3V7.641l.082-1.712.027-.761a2.824,2.824,0,0,1,.163-.326c.218-.109.372-.181.462-.218l3.37-.788a2.47,2.47,0,0,0,1.2-.326,1.362,1.362,0,0,0,.3-.951,1.949,1.949,0,0,0-.219-1.084.67.67,0,0,0-.571-.218q-.135,0-1,.082-2.936.244-4.812.244l-2.88-.054-3.887.027q-4.076-.218-4.729-.218a1.054,1.054,0,0,0-.517.136c-.018.29-.027.507-.027.652q0,.383.054,1.087a3.5,3.5,0,0,0,.369.206c.055-.076.1-.145.162-.227.12-.161.251-.337.389-.536l.209-.3.185.314c.111.189.235.366.342.524.237.344.381.569.338.767.189.06.376.126.56.2l1.034.408a3.6,3.6,0,0,1,1.562.72,14.708,14.708,0,0,1,.367,3.139v.38l-.027,2.748-.109,6.06.055,2.827-.027,2.663v2.255l-.163,3.534.054,3.479a4.61,4.61,0,0,1-.163,1.087,2.263,2.263,0,0,1-1.413.352c-.167,0-.71.069-1.6.2l.234,1.486-.655-1.247c-.028-.054-.057-.106-.088-.158-.112.017-.223.037-.334.056l-.51.466-.159-.14.155-.176-.189.147-.153-.135c-.3.064-.6.129-.891.207a5.243,5.243,0,0,0-.188,1.657,2.887,2.887,0,0,0,.055.516q.353.027.516.027h.405q2.589-.2,5.533-.284c-.018-.03-.033-.061-.05-.09a2.318,2.318,0,0,1-.328-.79c-.048-.328.483-.707.488-.71a.328.328,0,0,1,.348-.058,2.067,2.067,0,0,1,.239.166l-.831-.787,1.149-1.306.136.371c.025.068.056.135.089.2a1.29,1.29,0,0,1,.168.609,1.568,1.568,0,0,1-.22.627c-.037.071-.074.142-.106.213l-.122.283c.062.055.122.106.187.166.082.076.168.156.261.238l.209.182-.807.658,5.209-.153q4.458,0,9.106.159t5.191.19q2.99.218,3.235.218Zm-25.385-6.84.65-.94.39,1.072Zm2.488-11.345c-.028.009-.061.025-.093.039a.718.718,0,0,1-.28.081.278.278,0,0,1-.168-.052.613.613,0,0,1-.209-.356.9.9,0,0,0-.03-.094L522.219,18l.238-.078a.88.88,0,0,0,.093-.039.437.437,0,0,1,.448-.028.614.614,0,0,1,.209.354.861.861,0,0,0,.03.094l.094.233Zm1.961.805.674-.888.3,1.075Zm.329-9.492a.517.517,0,0,1-.26-.064A3.128,3.128,0,0,1,524,8.622c-.1-.176.042-.36.19-.533.257-.3.619-.64.879-.545a2.834,2.834,0,0,1,.955.778c.209.216.47.483.817.815l.3.287-.4.109c-.245.067-.462.146-.65.213a2.277,2.277,0,0,1-.7.185m2.184,4.251-.151.249-.211-.2c-.052-.05-.121-.1-.187-.16-.235-.191-.438-.356-.369-.578a2.685,2.685,0,0,1,.4-.724c.056-.08.112-.16.163-.242l.212-.336.191.349c.037.065.082.131.127.2a1.082,1.082,0,0,1,.261.633,1.2,1.2,0,0,1-.3.626c-.048.063-.1.127-.134.189M542,32.645l.388.73a.771.771,0,0,0,.049.078.6.6,0,0,1,.132.355.56.56,0,0,1-.178.341.649.649,0,0,0-.056.065l-.469.64Zm-.749,3.673,1.507-1.8.323.073.012,0,.326.074.206.046h0l.044.01-.49.29Z" transform="translate(1328.014 -653.37)" fill="#070203"/>
        <path id="パス_71954" data-name="パス 71954" d="M545.991,36.8H547a6.447,6.447,0,0,0,.788-.109,11.082,11.082,0,0,0,.38-2.392q.489-4.892.489-6.849v-.761a11.24,11.24,0,0,0-1.468-.109h-.87A16.438,16.438,0,0,1,545,29.736a7.8,7.8,0,0,1-1.508,1.766,5.89,5.89,0,0,1-2.447,1.522c-.053.018-.107.033-.161.051l-.1.481-.1.466-.151-.223-.176.17c-.279.518-.548,1.041-.817,1.563l-.426.822-.949-.918,1.812-1.752.063-.116a.612.612,0,0,1,.2-.2l-.047-.068a18.926,18.926,0,0,1-6.017.735l-1.713-.054-1.6.027-2.583-.109A1.462,1.462,0,0,1,528,32.838l.108-12.888q0-1.088.027-1.766.082-1.82.082-3.234,0-1.223-.082-2.854-.054-1.033-.054-1.468c0-.235.008-.469.027-.7q.082-1.359.082-1.5l-.027-.3V7.641l.082-1.712.027-.761a2.824,2.824,0,0,1,.163-.326c.218-.109.372-.181.462-.218l3.37-.788a2.47,2.47,0,0,0,1.2-.326,1.362,1.362,0,0,0,.3-.951,1.949,1.949,0,0,0-.219-1.084.67.67,0,0,0-.571-.218q-.135,0-1,.082-2.936.244-4.812.244l-2.88-.054-3.887.027q-4.076-.218-4.729-.218a1.054,1.054,0,0,0-.517.136c-.018.29-.027.507-.027.652q0,.383.054,1.087a3.5,3.5,0,0,0,.369.206c.055-.076.1-.145.162-.227.12-.161.251-.337.389-.536l.209-.3.185.314c.111.189.235.366.342.524.237.344.381.569.338.767.189.06.376.126.56.2l1.034.408a3.6,3.6,0,0,1,1.562.72,14.708,14.708,0,0,1,.367,3.139v.38l-.027,2.748-.109,6.06.055,2.827-.027,2.663v2.255l-.163,3.534.054,3.479a4.61,4.61,0,0,1-.163,1.087,2.263,2.263,0,0,1-1.413.352c-.167,0-.71.069-1.6.2l.234,1.486-.655-1.247c-.028-.054-.057-.106-.088-.158-.112.017-.223.037-.334.056l-.51.466-.159-.14.155-.176-.189.147-.153-.135c-.3.064-.6.129-.891.207a5.243,5.243,0,0,0-.188,1.657,2.887,2.887,0,0,0,.055.516q.353.027.516.027h.405q2.589-.2,5.533-.284c-.018-.03-.033-.061-.05-.09a2.318,2.318,0,0,1-.328-.79c-.048-.328.483-.707.488-.71a.328.328,0,0,1,.348-.058,2.067,2.067,0,0,1,.239.166l-.831-.787,1.149-1.306.136.371c.025.068.056.135.089.2a1.29,1.29,0,0,1,.168.609,1.568,1.568,0,0,1-.22.627c-.037.071-.074.142-.106.213l-.122.283c.062.055.122.106.187.166.082.076.168.156.261.238l.209.182-.807.658,5.209-.153q4.458,0,9.106.159t5.191.19q2.99.218,3.235.218Zm-25.385-6.84.65-.94.39,1.072Zm2.488-11.345c-.028.009-.061.025-.093.039a.718.718,0,0,1-.28.081.278.278,0,0,1-.168-.052.613.613,0,0,1-.209-.356.9.9,0,0,0-.03-.094L522.219,18l.238-.078a.88.88,0,0,0,.093-.039.437.437,0,0,1,.448-.028.614.614,0,0,1,.209.354.861.861,0,0,0,.03.094l.094.233Zm1.961.805.674-.888.3,1.075Zm.329-9.492a.517.517,0,0,1-.26-.064A3.128,3.128,0,0,1,524,8.622c-.1-.176.042-.36.19-.533.257-.3.619-.64.879-.545a2.834,2.834,0,0,1,.955.778c.209.216.47.483.817.815l.3.287-.4.109c-.245.067-.462.146-.65.213A2.277,2.277,0,0,1,525.384,9.931Zm2.184,4.251-.151.249-.211-.2c-.052-.05-.121-.1-.187-.16-.235-.191-.438-.356-.369-.578a2.685,2.685,0,0,1,.4-.724c.056-.08.112-.16.163-.242l.212-.336.191.349c.037.065.082.131.127.2a1.082,1.082,0,0,1,.261.633,1.2,1.2,0,0,1-.3.626C527.654,14.056,527.607,14.12,527.568,14.182ZM542,32.645l.388.73a.771.771,0,0,0,.049.078.6.6,0,0,1,.132.355.56.56,0,0,1-.178.341.649.649,0,0,0-.056.065l-.469.64Zm-.749,3.673,1.507-1.8.323.073.012,0,.326.074.206.046h0l.044.01-.49.29Z" transform="translate(1328.014 -653.37)" fill="none" stroke="#070203" stroke-width="0.5"/>
        <path id="パス_71957" data-name="パス 71957" d="M491.371,48.423c-.036-.01-.073-.015-.109-.024-.037.106-.074.214-.111.319,0,.054,0,.1,0,.158l.1-.014-.123.17c-.006.053-.009.106-.018.159l-.079.571-.259-.241-2.063.169.268.151-.33.035.3.473-.374.25,2.189.106.846-.027.516.027a8.3,8.3,0,0,0,.082-1.033,7.681,7.681,0,0,0-.1-1.086Z" transform="translate(1335.676 -667.297)" fill="#070203"/>
        <path id="パス_71958" data-name="パス 71958" d="M491.371,48.423c-.036-.01-.073-.015-.109-.024-.037.106-.074.214-.111.319,0,.054,0,.1,0,.158l.1-.014-.123.17c-.006.053-.009.106-.018.159l-.079.571-.259-.241-2.063.169.268.151-.33.035.3.473-.374.25,2.189.106.846-.027.516.027a8.3,8.3,0,0,0,.082-1.033,7.681,7.681,0,0,0-.1-1.086Z" transform="translate(1335.676 -667.297)" fill="none" stroke="#070203" stroke-width="0.5"/>
        <path id="パス_71959" data-name="パス 71959" d="M493.29,23.962l-1.648-3.148,2.46-.414c0-.442-.011-.709-.018-.781l-.054-.6q.081-1.006.109-2.392l.016-.44c-.013.042-.029.08-.044.115a.77.77,0,0,0-.03.075l-.094.291-.257-.164a.726.726,0,0,0-.073-.04.559.559,0,0,1-.285-.25.466.466,0,0,1,.043-.387.584.584,0,0,0,.03-.075l.087-.279.254.146a.755.755,0,0,0,.075.035.5.5,0,0,1,.3.256.1.1,0,0,1,0,.014l.137-3.645q-.9-.081-1.2-.082-.136,0-.516.027-.6.027-.734.027a12.516,12.516,0,0,1-.423,3.248,2.488,2.488,0,0,1-.938,1.1,5.5,5.5,0,0,1-1.9.435,25.642,25.642,0,0,1-3.343.244h-3.262l-1.93-.027a1.127,1.127,0,0,1-.408-.19,17.855,17.855,0,0,1-.19-3.479l.082-3.7-.082-3.234a3.231,3.231,0,0,1,.352-1.6,5.431,5.431,0,0,1,.869-.272,24.477,24.477,0,0,1,3.778-.272l3.751-.109q3.669,0,4.471.5t1.943,3.248a5.909,5.909,0,0,0,.625,1.223,1.418,1.418,0,0,0,.87.244,11.619,11.619,0,0,0,1.44-.136,3.735,3.735,0,0,0,.163-1.25l-.408-5.11a12.706,12.706,0,0,0-.218-1.63q-.462.027-.992.082c-.354.036-.638.054-.856.054l-4.862.163H490.2l-.587.13.094-.13h-.463l-.543.027-1.332-.027-.516.027q-3.452.163-6.632.163-6.333,0-9.595-.326l-3.588-.136v.895a.429.429,0,0,1,.428-.079.973.973,0,0,1,.4.475c.03.058.061.116.094.168l.128.2-.2.125c-.048.03-.1.07-.155.111s-.127.094-.189.132l.151.037a16.325,16.325,0,0,0,1.576.435,6.776,6.776,0,0,1,2.637.761l.214,5.967.225-.18.547,1.512-.71.394.051,1.413,0,.179.4.514-.409.247-.017,1.461.208.216,0,0,.244.252-.226.09-.17.49-.07-.019-.014,1.189.109,3.887-.027,2.637.1,5.9a7.005,7.005,0,0,1,1.3-.865c.168-.08.345.042.567.263.306.3.646.721.528.984A3.351,3.351,0,0,1,473.409,33a.5.5,0,0,1-.24.056,2.182,2.182,0,0,1-.9-.335,9.073,9.073,0,0,1-.181.979l-.516.326c-.575.147-1.15.278-1.724.4l.061.176-.33-.119c-.259.055-.519.113-.779.164q-1.386.272-1.984.408l-.054,1.957c.337.014.9.023,1.687.026l.214-.078-.1.078h.623q.19,0,2.337-.244c.226-.027.453-.039.68-.059l.085-1.156.381.8a.683.683,0,0,0,.039.066.641.641,0,0,1,.1.234c.149-.009.3-.014.449-.02l.823-.478-.482.469c.259-.008.517-.022.776-.021q5.436,0,6.088.027l.924.045-.013-.065a3.1,3.1,0,0,1-.085-.527l-.521.054.462-.414.041-.151a.208.208,0,0,1,.2-.163v-.011l.1-.008.464-.038,2.1-.283.111-.311,0-.011c0-.12,0-.24.008-.359a9.985,9.985,0,0,0-1.466-.2l-.543-.054a4.742,4.742,0,0,1-2.038-.652,5.09,5.09,0,0,1-.489-2.773l-.04-2.423-1.124.647.355-1.16.766.362-.093-5.579a16.185,16.185,0,0,1,.19-2.637,16.852,16.852,0,0,1,2.337-.19q6.9,0,8.208.652.734.354,1.359,2.5a11.621,11.621,0,0,0,.543,1.5,7.935,7.935,0,0,0,.929.143ZM473.175,27.4a.91.91,0,0,0-.085.035.684.684,0,0,1-.265.074.285.285,0,0,1-.166-.052.564.564,0,0,1-.194-.342c-.008-.03-.017-.06-.027-.087l-.085-.228.231-.078a.686.686,0,0,0,.085-.035.4.4,0,0,1,.435-.018.622.622,0,0,1,.188.333.777.777,0,0,0,.029.087l.093.234Zm2.746-19.084a2.639,2.639,0,0,1-.558,1.005c-.092.12-.183.24-.263.362l-.178.272-.2-.255a3.425,3.425,0,0,0-.259-.276c-.252-.254-.514-.516-.5-.831a2.686,2.686,0,0,1,.418-1.115c.1-.19.214-.4.327-.643l.184-.4.228.373c.141.231.284.427.407.6.265.363.457.625.4.908m.487-4.218c-.108.128-.2.249-.289.359a3.131,3.131,0,0,1-.664.7.26.26,0,0,1-.147.044.558.558,0,0,1-.268-.094c-.026-.016-.646-.384-.616-.733a1.908,1.908,0,0,1,.366-.84c.061-.094.121-.187.173-.282l.113-.208,1.513.836Zm1.161-1.7c.069-.02.142-.049.215-.077a1.045,1.045,0,0,1,.685-.106c.227.07.282.331.342.608a2.339,2.339,0,0,0,.056.231l.051.159-1,.745-.6-1.489Zm.609,21.686-.745-.412.113-.2c.01-.02.019-.042.028-.063a.49.49,0,0,1,.222-.283.739.739,0,0,1,.341-.053.632.632,0,0,0,.089,0l.372-.024Zm.761-4.53-.225-.45a2.964,2.964,0,0,1-.219-.516c-.058-.2.116-.311.268-.414.036-.023.07-.047.1-.068l.235-.18.472,1.036Z" transform="translate(1342.119 -653.44)" fill="#070203"/>
        <path id="パス_71960" data-name="パス 71960" d="M493.29,23.962l-1.648-3.148,2.46-.414c0-.442-.011-.709-.018-.781l-.054-.6q.081-1.006.109-2.392l.016-.44c-.013.042-.029.08-.044.115a.77.77,0,0,0-.03.075l-.094.291-.257-.164a.726.726,0,0,0-.073-.04.559.559,0,0,1-.285-.25.466.466,0,0,1,.043-.387.584.584,0,0,0,.03-.075l.087-.279.254.146a.755.755,0,0,0,.075.035.5.5,0,0,1,.3.256.1.1,0,0,1,0,.014l.137-3.645q-.9-.081-1.2-.082-.136,0-.516.027-.6.027-.734.027a12.516,12.516,0,0,1-.423,3.248,2.488,2.488,0,0,1-.938,1.1,5.5,5.5,0,0,1-1.9.435,25.642,25.642,0,0,1-3.343.244h-3.262l-1.93-.027a1.127,1.127,0,0,1-.408-.19,17.855,17.855,0,0,1-.19-3.479l.082-3.7-.082-3.234a3.231,3.231,0,0,1,.352-1.6,5.431,5.431,0,0,1,.869-.272,24.477,24.477,0,0,1,3.778-.272l3.751-.109q3.669,0,4.471.5t1.943,3.248a5.909,5.909,0,0,0,.625,1.223,1.418,1.418,0,0,0,.87.244,11.619,11.619,0,0,0,1.44-.136,3.735,3.735,0,0,0,.163-1.25l-.408-5.11a12.706,12.706,0,0,0-.218-1.63q-.462.027-.992.082c-.354.036-.638.054-.856.054l-4.862.163H490.2l-.587.13.094-.13h-.463l-.543.027-1.332-.027-.516.027q-3.452.163-6.632.163-6.333,0-9.595-.326l-3.588-.136v.895a.429.429,0,0,1,.428-.079.973.973,0,0,1,.4.475c.03.058.061.116.094.168l.128.2-.2.125c-.048.03-.1.07-.155.111s-.127.094-.189.132l.151.037a16.325,16.325,0,0,0,1.576.435,6.776,6.776,0,0,1,2.637.761l.214,5.967.225-.18.547,1.512-.71.394.051,1.413,0,.179.4.514-.409.247-.017,1.461.208.216,0,0,.244.252-.226.09-.17.49-.07-.019-.014,1.189.109,3.887-.027,2.637.1,5.9a7.005,7.005,0,0,1,1.3-.865c.168-.08.345.042.567.263.306.3.646.721.528.984A3.351,3.351,0,0,1,473.409,33a.5.5,0,0,1-.24.056,2.182,2.182,0,0,1-.9-.335,9.073,9.073,0,0,1-.181.979l-.516.326c-.575.147-1.15.278-1.724.4l.061.176-.33-.119c-.259.055-.519.113-.779.164q-1.386.272-1.984.408l-.054,1.957c.337.014.9.023,1.687.026l.214-.078-.1.078h.623q.19,0,2.337-.244c.226-.027.453-.039.68-.059l.085-1.156.381.8a.683.683,0,0,0,.039.066.641.641,0,0,1,.1.234c.149-.009.3-.014.449-.02l.823-.478-.482.469c.259-.008.517-.022.776-.021q5.436,0,6.088.027l.924.045-.013-.065a3.1,3.1,0,0,1-.085-.527l-.521.054.462-.414.041-.151a.208.208,0,0,1,.2-.163v-.011l.1-.008.464-.038,2.1-.283.111-.311,0-.011c0-.12,0-.24.008-.359a9.985,9.985,0,0,0-1.466-.2l-.543-.054a4.742,4.742,0,0,1-2.038-.652,5.09,5.09,0,0,1-.489-2.773l-.04-2.423-1.124.647.355-1.16.766.362-.093-5.579a16.185,16.185,0,0,1,.19-2.637,16.852,16.852,0,0,1,2.337-.19q6.9,0,8.208.652.734.354,1.359,2.5a11.621,11.621,0,0,0,.543,1.5,7.935,7.935,0,0,0,.929.143ZM473.175,27.4a.91.91,0,0,0-.085.035.684.684,0,0,1-.265.074.285.285,0,0,1-.166-.052.564.564,0,0,1-.194-.342c-.008-.03-.017-.06-.027-.087l-.085-.228.231-.078a.686.686,0,0,0,.085-.035.4.4,0,0,1,.435-.018.622.622,0,0,1,.188.333.777.777,0,0,0,.029.087l.093.234Zm2.746-19.084a2.639,2.639,0,0,1-.558,1.005c-.092.12-.183.24-.263.362l-.178.272-.2-.255a3.425,3.425,0,0,0-.259-.276c-.252-.254-.514-.516-.5-.831a2.686,2.686,0,0,1,.418-1.115c.1-.19.214-.4.327-.643l.184-.4.228.373c.141.231.284.427.407.6C475.791,7.769,475.982,8.032,475.921,8.314Zm.487-4.218c-.108.128-.2.249-.289.359a3.131,3.131,0,0,1-.664.7.26.26,0,0,1-.147.044.558.558,0,0,1-.268-.094c-.026-.016-.646-.384-.616-.733a1.908,1.908,0,0,1,.366-.84c.061-.094.121-.187.173-.282l.113-.208,1.513.836Zm1.161-1.7c.069-.02.142-.049.215-.077a1.045,1.045,0,0,1,.685-.106c.227.07.282.331.342.608a2.339,2.339,0,0,0,.056.231l.051.159-1,.745-.6-1.489Zm.609,21.686-.745-.412.113-.2c.01-.02.019-.042.028-.063a.49.49,0,0,1,.222-.283.739.739,0,0,1,.341-.053.632.632,0,0,0,.089,0l.372-.024Zm.761-4.53-.225-.45a2.964,2.964,0,0,1-.219-.516c-.058-.2.116-.311.268-.414.036-.023.07-.047.1-.068l.235-.18.472,1.036Z" transform="translate(1342.119 -653.44)" fill="none" stroke="#070203" stroke-width="0.5"/>
        <path id="パス_71973" data-name="パス 71973" d="M639.063,8.945c-.058-.179-.137-.349-.205-.524-.029.061-.056.125-.086.187l-.291.842.811.118c-.092-.244-.173-.462-.229-.622" transform="translate(1291.394 -655.488)" fill="#070203"/>
        <path id="パス_71974" data-name="パス 71974" d="M639.063,8.945c-.058-.179-.137-.349-.205-.524-.029.061-.056.125-.086.187l-.291.842.811.118C639.2,9.324,639.119,9.106,639.063,8.945Z" transform="translate(1291.394 -655.488)" fill="none" stroke="#070203" stroke-width="0.5"/>
        <path id="パス_71975" data-name="パス 71975" d="M505.21,33.9l-.4.006-.405.229a4.128,4.128,0,0,0,.8-.107c0-.046,0-.085.006-.128" transform="translate(1331 -663.015)" fill="#070203"/>
        <path id="パス_71976" data-name="パス 71976" d="M505.21,33.9l-.4.006-.405.229a4.128,4.128,0,0,0,.8-.107C505.206,33.986,505.208,33.947,505.21,33.9Z" transform="translate(1331 -663.015)" fill="none" stroke="#070203" stroke-width="0.5"/>
        <path id="パス_71985" data-name="パス 71985" d="M581.9,9.071v0l.011.017-.056.123-.121.371-.033-.039-.357.772.51-.1c.225-.4.467-.795.729-1.175a8.746,8.746,0,0,1,1.091-1.208Z" transform="translate(1308.273 -655.315)" fill="#070203"/>
        <path id="パス_71986" data-name="パス 71986" d="M581.9,9.071v0l.011.017-.056.123-.121.371-.033-.039-.357.772.51-.1c.225-.4.467-.795.729-1.175a8.746,8.746,0,0,1,1.091-1.208Z" transform="translate(1308.273 -655.315)" fill="none" stroke="#070203" stroke-width="0.5"/>
        <path id="パス_71987" data-name="パス 71987" d="M605.216,20.916l.4-.661q.074-.9.059-1.821a17.658,17.658,0,0,0-3.1-9.864,16.846,16.846,0,0,0-6.553-5.735A21.352,21.352,0,0,0,586.214.718c-.227,0-.452.011-.679.014l-.624.38-.7-.323a24.159,24.159,0,0,0-4.006.621,19.162,19.162,0,0,0-5.273,2.283,17.589,17.589,0,0,0-4.295,3.629,15.881,15.881,0,0,0-2.663,4.485,18.769,18.769,0,0,0-1.3,6.764c0,.177.007.354.009.53l.13-.018.1-.3.008-.023q.019-.857.034-1.718l.02-1.085.359.247c.034.023.081.051.124.076-.014-.024-.029-.051-.042-.072l-.142-.223.238-.116c.153-.073.305-.153.457-.232a6.419,6.419,0,0,1,1.276-.552c.243-.066.441.124.768.441.147.142.324.315.538.495l.308.259-.378.14c-.278.1-.526.2-.751.29a8.013,8.013,0,0,1-1.487.485.263.263,0,0,1-.056.006.328.328,0,0,1-.219-.106c-.175.593-.378,1.18-.58,1.75,0,.053,0,.1,0,.158L567.46,19l-.09.137c-.007.059-.011.118-.02.178l-.078.581-.261-.242-.321.026a18.669,18.669,0,0,0,.552,3.789,23.014,23.014,0,0,0,1.55,4.509,17.791,17.791,0,0,0,3.044,4,22.9,22.9,0,0,0,4.756,3.453q.244.11,2.31.788a15.309,15.309,0,0,0,2.662.6,29.362,29.362,0,0,0,4.321.3q9.323,0,14.559-5.492a18.428,18.428,0,0,0,5.1-10.671ZM574.059,4.305l.166,0a.318.318,0,0,0,.091-.006.488.488,0,0,1,.4.08.675.675,0,0,1,.177.356c.009.033.017.067.028.1l.113.316-1.275-.011Zm-2.125,9.128.184.781-.3.1a.74.74,0,0,1-.24.058.221.221,0,0,1-.2-.113,1.3,1.3,0,0,1-.12-.316l-.1-.318Zm-.952,10.9c-.054.034-.11.078-.167.123a.888.888,0,0,1-.5.25.371.371,0,0,1-.1-.013,1,1,0,0,1-.492-.426c-.044-.058-.087-.116-.133-.166l-.186-.206.234-.149c.058-.037.116-.085.176-.132a.847.847,0,0,1,.616-.266c.23.043.368.265.49.462.039.064.08.129.121.183l.159.206Zm1.84,3.289c-.008.989-.018,1.976-.028,2.958l-.015,1.289-.487-1.365c-.025-1.124-.039-2.229-.053-3.335l-.84.089.774-.526c.02-.013.039-.03.059-.044l-.005-.4.51.418.005,0,.436.357-.352.037Zm.235-4.8c-.055.229-.12.5-.182.825l-.139.735-.306-.684c-.176-.394-.34-.742-.487-1.056a12.007,12.007,0,0,1-.811-2.009c-.076-.291.263-.521.732-.839.149-.1.3-.2.412-.293l.28-.225.094.346c.055.2.116.408.178.611a9.75,9.75,0,0,1,.368,1.519,2.974,2.974,0,0,1-.14,1.071m.593-3.214-1.235-.487.81-1.77,0-.131-.021-.05.023-.058V17.03l.208-.122.051-.031.45-.265h0l.192-.113-.294.645-.156.8Zm.885-3.791h-.025c-.222,0-.376-.213-.513-.4l-.166-.218.1-.163c.055-.085.252-.354.472-.307a3,3,0,0,1,.536.2l.517.226-.3.244a1.645,1.645,0,0,0-.128.118.831.831,0,0,1-.492.3M596.66,26.335l-.165-.342a1.766,1.766,0,0,0-.1-.178c-.027-.044-.054-.09-.08-.137a14.7,14.7,0,0,1-.918,2.83l1.232,1.347-.2.156c-.13.1-.261.218-.385.328-.282.254-.5.45-.705.45a.319.319,0,0,1-.136-.031,3.2,3.2,0,0,1-.739-.471,9.686,9.686,0,0,1-3.152,3.007,11.189,11.189,0,0,1-5.449,1.373,8.7,8.7,0,0,1-3.1-.584,7.863,7.863,0,0,1-2.365-1.291,11.025,11.025,0,0,1-2.146-2.346l-.053.063c-.173.2-.345.405-.51.612l-.209.26L577.3,31.1a5.8,5.8,0,0,0-.373-.512c-.361-.464-.7-.9-.569-1.281a4.216,4.216,0,0,1,.759-1.231q-.446-1.132-.8-2.3c-.062-.207-.1-.419-.155-.629l-.237-.044,0,0-.053.045h-.016l-.129.1-.648-.781.614.114.171-.02.133-.1a15.018,15.018,0,0,1-.247-1.623q-.109-.788-.163-1.115a20.323,20.323,0,0,1-.19-3.343,27.892,27.892,0,0,1,.653-6.51,14.887,14.887,0,0,1,.881-2.58l-.5-.623-.085-.08.006-.016-.147-.18.238-.06.524-1.373-.076-.091.151-.1.118-.31.061.074,1-3.08L580.3,4.489l0,0,.247.126.153.079c.1-.061.19-.128.291-.185a7.932,7.932,0,0,1,4.185-1.1,10.859,10.859,0,0,1,7.133,2.339c.161.142.312.295.466.444.478-.314.965-.614,1.447-.9.241-.142.483-.285.722-.43l.2-.12.631,1.016-2.02,1.506a11.833,11.833,0,0,1,2.4,5.277,10.6,10.6,0,0,0,.272,1.115l.136.516q.3,3.725.3,5.9a28.125,28.125,0,0,1-.311,4.32l.082-.168,1.12.692Zm3.133-.823a.812.812,0,0,0,.073-.068.546.546,0,0,1,.376-.207h0a.527.527,0,0,1,.371.226.869.869,0,0,0,.07.073l.123.112-.342.817-.893-.778Zm.168,3.281.6-.912.409,1.01Zm.959-14.914-.151-.373a.567.567,0,0,0-.038-.078.488.488,0,0,1,.1-.683.828.828,0,0,0,.06-.065l.254-.326.327.845Zm3.064,11.56-.145.036a.548.548,0,0,0-.069.022.666.666,0,0,1-.223.051.293.293,0,0,1-.17-.051.578.578,0,0,1-.2-.3c-.01-.025-.02-.05-.032-.074l-.135-.268,1.139-.253Zm-.181-4.477c-.042.024-.08.051-.118.077a.7.7,0,0,1-.381.161h0a.555.555,0,0,1-.368-.189c-.025-.022-.05-.045-.075-.063l-.581-.424h2.282Z" transform="translate(1312.606 -653.21)" fill="#070203"/>
        <path id="パス_71988" data-name="パス 71988" d="M605.216,20.916l.4-.661q.074-.9.059-1.821a17.658,17.658,0,0,0-3.1-9.864,16.846,16.846,0,0,0-6.553-5.735A21.352,21.352,0,0,0,586.214.718c-.227,0-.452.011-.679.014l-.624.38-.7-.323a24.159,24.159,0,0,0-4.006.621,19.162,19.162,0,0,0-5.273,2.283,17.589,17.589,0,0,0-4.295,3.629,15.881,15.881,0,0,0-2.663,4.485,18.769,18.769,0,0,0-1.3,6.764c0,.177.007.354.009.53l.13-.018.1-.3.008-.023q.019-.857.034-1.718l.02-1.085.359.247c.034.023.081.051.124.076-.014-.024-.029-.051-.042-.072l-.142-.223.238-.116c.153-.073.305-.153.457-.232a6.419,6.419,0,0,1,1.276-.552c.243-.066.441.124.768.441.147.142.324.315.538.495l.308.259-.378.14c-.278.1-.526.2-.751.29a8.013,8.013,0,0,1-1.487.485.263.263,0,0,1-.056.006.328.328,0,0,1-.219-.106c-.175.593-.378,1.18-.58,1.75,0,.053,0,.1,0,.158L567.46,19l-.09.137c-.007.059-.011.118-.02.178l-.078.581-.261-.242-.321.026a18.669,18.669,0,0,0,.552,3.789,23.014,23.014,0,0,0,1.55,4.509,17.791,17.791,0,0,0,3.044,4,22.9,22.9,0,0,0,4.756,3.453q.244.11,2.31.788a15.309,15.309,0,0,0,2.662.6,29.362,29.362,0,0,0,4.321.3q9.323,0,14.559-5.492a18.428,18.428,0,0,0,5.1-10.671ZM574.059,4.305l.166,0a.318.318,0,0,0,.091-.006.488.488,0,0,1,.4.08.675.675,0,0,1,.177.356c.009.033.017.067.028.1l.113.316-1.275-.011Zm-2.125,9.128.184.781-.3.1a.74.74,0,0,1-.24.058.221.221,0,0,1-.2-.113,1.3,1.3,0,0,1-.12-.316l-.1-.318Zm-.952,10.9c-.054.034-.11.078-.167.123a.888.888,0,0,1-.5.25.371.371,0,0,1-.1-.013,1,1,0,0,1-.492-.426c-.044-.058-.087-.116-.133-.166l-.186-.206.234-.149c.058-.037.116-.085.176-.132a.847.847,0,0,1,.616-.266c.23.043.368.265.49.462.039.064.08.129.121.183l.159.206Zm1.84,3.289c-.008.989-.018,1.976-.028,2.958l-.015,1.289-.487-1.365c-.025-1.124-.039-2.229-.053-3.335l-.84.089.774-.526c.02-.013.039-.03.059-.044l-.005-.4.51.418.005,0,.436.357-.352.037Zm.235-4.8c-.055.229-.12.5-.182.825l-.139.735-.306-.684c-.176-.394-.34-.742-.487-1.056a12.007,12.007,0,0,1-.811-2.009c-.076-.291.263-.521.732-.839.149-.1.3-.2.412-.293l.28-.225.094.346c.055.2.116.408.178.611a9.75,9.75,0,0,1,.368,1.519A2.974,2.974,0,0,1,573.057,22.828Zm.593-3.214-1.235-.487.81-1.77,0-.131-.021-.05.023-.058V17.03l.208-.122.051-.031.45-.265h0l.192-.113-.294.645-.156.8Zm.885-3.791h-.025c-.222,0-.376-.213-.513-.4l-.166-.218.1-.163c.055-.085.252-.354.472-.307a3,3,0,0,1,.536.2l.517.226-.3.244a1.645,1.645,0,0,0-.128.118A.831.831,0,0,1,574.535,15.823ZM596.66,26.335l-.165-.342a1.766,1.766,0,0,0-.1-.178c-.027-.044-.054-.09-.08-.137a14.7,14.7,0,0,1-.918,2.83l1.232,1.347-.2.156c-.13.1-.261.218-.385.328-.282.254-.5.45-.705.45a.319.319,0,0,1-.136-.031,3.2,3.2,0,0,1-.739-.471,9.686,9.686,0,0,1-3.152,3.007,11.189,11.189,0,0,1-5.449,1.373,8.7,8.7,0,0,1-3.1-.584,7.863,7.863,0,0,1-2.365-1.291,11.025,11.025,0,0,1-2.146-2.346l-.053.063c-.173.2-.345.405-.51.612l-.209.26L577.3,31.1a5.8,5.8,0,0,0-.373-.512c-.361-.464-.7-.9-.569-1.281a4.216,4.216,0,0,1,.759-1.231q-.446-1.132-.8-2.3c-.062-.207-.1-.419-.155-.629l-.237-.044,0,0-.053.045h-.016l-.129.1-.648-.781.614.114.171-.02.133-.1a15.018,15.018,0,0,1-.247-1.623q-.109-.788-.163-1.115a20.323,20.323,0,0,1-.19-3.343,27.892,27.892,0,0,1,.653-6.51,14.887,14.887,0,0,1,.881-2.58l-.5-.623-.085-.08.006-.016-.147-.18.238-.06.524-1.373-.076-.091.151-.1.118-.31.061.074,1-3.08L580.3,4.489l0,0,.247.126.153.079c.1-.061.19-.128.291-.185a7.932,7.932,0,0,1,4.185-1.1,10.859,10.859,0,0,1,7.133,2.339c.161.142.312.295.466.444.478-.314.965-.614,1.447-.9.241-.142.483-.285.722-.43l.2-.12.631,1.016-2.02,1.506a11.833,11.833,0,0,1,2.4,5.277,10.6,10.6,0,0,0,.272,1.115l.136.516q.3,3.725.3,5.9a28.125,28.125,0,0,1-.311,4.32l.082-.168,1.12.692Zm3.133-.823a.812.812,0,0,0,.073-.068.546.546,0,0,1,.376-.207h0a.527.527,0,0,1,.371.226.869.869,0,0,0,.07.073l.123.112-.342.817-.893-.778Zm.168,3.281.6-.912.409,1.01Zm.959-14.914-.151-.373a.567.567,0,0,0-.038-.078.488.488,0,0,1,.1-.683.828.828,0,0,0,.06-.065l.254-.326.327.845Zm3.064,11.56-.145.036a.548.548,0,0,0-.069.022.666.666,0,0,1-.223.051.293.293,0,0,1-.17-.051.578.578,0,0,1-.2-.3c-.01-.025-.02-.05-.032-.074l-.135-.268,1.139-.253Zm-.181-4.477c-.042.024-.08.051-.118.077a.7.7,0,0,1-.381.161h0a.555.555,0,0,1-.368-.189c-.025-.022-.05-.045-.075-.063l-.581-.424h2.282Z" transform="translate(1312.606 -653.21)" fill="none" stroke="#070203" stroke-width="0.5"/>
        <path id="パス_71989" data-name="パス 71989" d="M668.9,10.941l-.156-.221c-.046-.066-.109-.145-.17-.225-.268-.342-.39-.5-.231-.67.364-.388.759-.748,1.141-1.1l.644-.591.1,1.129c.3-.791.6-1.581.9-2.383a6.9,6.9,0,0,1,.846-1.821A4.726,4.726,0,0,1,673.5,4.029a1.067,1.067,0,0,0,.543-.326,1.45,1.45,0,0,0,.19-.788,5.376,5.376,0,0,0-.082-.869l-.571-.082-2.691.163-4.077-.163-.435.054a1.307,1.307,0,0,0-.19.571q0,.218.082,1.115a3.6,3.6,0,0,0,1.02.423q.584.15,1.509.448l.082.462a1.777,1.777,0,0,1-.054.435l-.761,2.283-3.09,7.884.3.215-.382,0-1.608,4.1-3.424,8.969q-.19-.489-.652-1.522l-2.352-5.552-1.067.628-.116-.211c-.036-.064-.085-.142-.135-.218-.2-.305-.326-.507-.168-.681a4.055,4.055,0,0,1,.7-.575c.083-.058.166-.116.247-.177l.011-.008-.081-.192-1.52-3.515a5.927,5.927,0,0,1-.552-.459c-.188-.177-.056-.4.261-.946.1-.172.211-.36.305-.54l.144-.277.154.147q3.15-6.5,4.388-8.682A3.808,3.808,0,0,1,660.51,4.9a18.11,18.11,0,0,1,3.506-1.223l.054-.136.082-1.223L664.1,2.1q-.489,0-.924.013t-1.005.013c-.4,0-1.289-.022-2.646-.066l.6.323-.942.4a.953.953,0,0,1-.218.092l-.008,0-.367.12h0l-.326.106.348-.475-.579-.254.679-.115.037-.223c-2.627-.085-4.24-.128-4.817-.128a7.37,7.37,0,0,0-.082.9q0,.272.054.788a16.093,16.093,0,0,1,2.31.7,2.213,2.213,0,0,1,.6.489v.161a1.635,1.635,0,0,1-.082.462,35.414,35.414,0,0,1-1.712,4l-1.9,3.941c-.125-.275-.266-.593-.419-.95l-.034.026c-.012.009-.025.02-.04.03l-.045.035,0,0a.319.319,0,0,1-.162.055.206.206,0,0,1-.167-.092l-.144-.185.108-.082.017-.191-.309-1.443h.011q-.411-1.018-.906-2.283-.408-1.06-.653-1.576A4.715,4.715,0,0,1,649.8,4.7a.736.736,0,0,1,.285-.571,1.763,1.763,0,0,1,.992-.3,9.156,9.156,0,0,0,1.468-.244,1.241,1.241,0,0,0,.109-.435V2.827l-.028-.924a2.021,2.021,0,0,1-.38-.027l-4.7.272-3.8.054q-.625,0-2.827-.163-1.522-.081-2.392-.082l-.108,1.63a12.37,12.37,0,0,1,2.718.856,2.151,2.151,0,0,1,.846.869q.273.531.435.8.19.517.462,1.087.815,1.741,1.928,4.431l4,9.567q-2.935,6.115-4.321,8.7l-7.04-16.417c-.921-2.207-1.606-3.88-2.062-5.033l-.452.139.264-.383-.841-.171-.263-.037-.207.6-.156-.683-.094-.013.407-1.769.073.047c.077-.144.154-.286.227-.425A2.117,2.117,0,0,1,634.121,5q0-.38,1.087-.979a11.494,11.494,0,0,0,1.005-.571l.218-1.25a.49.49,0,0,0-.245-.3l-3.534.163q-1.3.082-2.283.082-.274,0-1.2-.027-2.254-.081-4.509-.244a1.135,1.135,0,0,0-.516.19l.1,1.287.232-.617.254.211c.062.052.144.111.227.171.316.227.526.376.445.606-.05.143-.106.285-.158.428a2.618,2.618,0,0,1,.471.306,16.41,16.41,0,0,1,1.984,3.724l4.82,11.283a1.13,1.13,0,0,1,.579.106c.073.027.144.056.212.074l.3.08-.161.267a2.106,2.106,0,0,0-.1.2,1.11,1.11,0,0,1-.327.459l3.453,8.083c.082.17.157.342.237.513l.023-.042,2.409,2.208-1.061.878c.8,1.854,1.544,3.729,2.224,5.63l2.773-.027q1.3-2.99,4.114-8.3t2.868-5.449c.063.112.113.2.158.278l.089-.28.889.418-.689.4c.27.538.592,1.25.968,2.142l3.017,6.958q.142.465.923,2.229a10.05,10.05,0,0,1,.464,1.229l.047-.079-.105-.773.377.32.624-1.04-.209,1.422.048.05-.073.122-.019.129-.347.047-.022,0-.232.031h0l-.016,0c.019.066.044.13.061.2l2.748-.027q1.3-3.376,2.434-6.268l-.842.342.454-1.02.564.229q3.063-7.816,4.868-12.054,1.91-4.482,3.733-9.23Zm-23.142-4.9.629-1.168.362,1.263ZM651.2,18.035l.122-1.012.91.624Zm1.026-2.527a.841.841,0,0,0-.049-.075.589.589,0,0,1-.142-.359.542.542,0,0,1,.185-.345.805.805,0,0,0,.056-.066l.208-.273.435.716-.51.724Zm.273,7.466.066-.369c.006-.033.009-.068.013-.1a.82.82,0,0,1,.1-.361.471.471,0,0,1,.335-.189c.025-.006.052-.012.075-.02l.2-.067.377.776Z" transform="translate(1295.628 -653.554)" fill="#070203"/>
        <path id="パス_71990" data-name="パス 71990" d="M668.9,10.941l-.156-.221c-.046-.066-.109-.145-.17-.225-.268-.342-.39-.5-.231-.67.364-.388.759-.748,1.141-1.1l.644-.591.1,1.129c.3-.791.6-1.581.9-2.383a6.9,6.9,0,0,1,.846-1.821A4.726,4.726,0,0,1,673.5,4.029a1.067,1.067,0,0,0,.543-.326,1.45,1.45,0,0,0,.19-.788,5.376,5.376,0,0,0-.082-.869l-.571-.082-2.691.163-4.077-.163-.435.054a1.307,1.307,0,0,0-.19.571q0,.218.082,1.115a3.6,3.6,0,0,0,1.02.423q.584.15,1.509.448l.082.462a1.777,1.777,0,0,1-.054.435l-.761,2.283-3.09,7.884.3.215-.382,0-1.608,4.1-3.424,8.969q-.19-.489-.652-1.522l-2.352-5.552-1.067.628-.116-.211c-.036-.064-.085-.142-.135-.218-.2-.305-.326-.507-.168-.681a4.055,4.055,0,0,1,.7-.575c.083-.058.166-.116.247-.177l.011-.008-.081-.192-1.52-3.515a5.927,5.927,0,0,1-.552-.459c-.188-.177-.056-.4.261-.946.1-.172.211-.36.305-.54l.144-.277.154.147q3.15-6.5,4.388-8.682A3.808,3.808,0,0,1,660.51,4.9a18.11,18.11,0,0,1,3.506-1.223l.054-.136.082-1.223L664.1,2.1q-.489,0-.924.013t-1.005.013c-.4,0-1.289-.022-2.646-.066l.6.323-.942.4a.953.953,0,0,1-.218.092l-.008,0-.367.12h0l-.326.106.348-.475-.579-.254.679-.115.037-.223c-2.627-.085-4.24-.128-4.817-.128a7.37,7.37,0,0,0-.082.9q0,.272.054.788a16.093,16.093,0,0,1,2.31.7,2.213,2.213,0,0,1,.6.489v.161a1.635,1.635,0,0,1-.082.462,35.414,35.414,0,0,1-1.712,4l-1.9,3.941c-.125-.275-.266-.593-.419-.95l-.034.026c-.012.009-.025.02-.04.03l-.045.035,0,0a.319.319,0,0,1-.162.055.206.206,0,0,1-.167-.092l-.144-.185.108-.082.017-.191-.309-1.443h.011q-.411-1.018-.906-2.283-.408-1.06-.653-1.576A4.715,4.715,0,0,1,649.8,4.7a.736.736,0,0,1,.285-.571,1.763,1.763,0,0,1,.992-.3,9.156,9.156,0,0,0,1.468-.244,1.241,1.241,0,0,0,.109-.435V2.827l-.028-.924a2.021,2.021,0,0,1-.38-.027l-4.7.272-3.8.054q-.625,0-2.827-.163-1.522-.081-2.392-.082l-.108,1.63a12.37,12.37,0,0,1,2.718.856,2.151,2.151,0,0,1,.846.869q.273.531.435.8.19.517.462,1.087.815,1.741,1.928,4.431l4,9.567q-2.935,6.115-4.321,8.7l-7.04-16.417c-.921-2.207-1.606-3.88-2.062-5.033l-.452.139.264-.383-.841-.171-.263-.037-.207.6-.156-.683-.094-.013.407-1.769.073.047c.077-.144.154-.286.227-.425A2.117,2.117,0,0,1,634.121,5q0-.38,1.087-.979a11.494,11.494,0,0,0,1.005-.571l.218-1.25a.49.49,0,0,0-.245-.3l-3.534.163q-1.3.082-2.283.082-.274,0-1.2-.027-2.254-.081-4.509-.244a1.135,1.135,0,0,0-.516.19l.1,1.287.232-.617.254.211c.062.052.144.111.227.171.316.227.526.376.445.606-.05.143-.106.285-.158.428a2.618,2.618,0,0,1,.471.306,16.41,16.41,0,0,1,1.984,3.724l4.82,11.283a1.13,1.13,0,0,1,.579.106c.073.027.144.056.212.074l.3.08-.161.267a2.106,2.106,0,0,0-.1.2,1.11,1.11,0,0,1-.327.459l3.453,8.083c.082.17.157.342.237.513l.023-.042,2.409,2.208-1.061.878c.8,1.854,1.544,3.729,2.224,5.63l2.773-.027q1.3-2.99,4.114-8.3t2.868-5.449c.063.112.113.2.158.278l.089-.28.889.418-.689.4c.27.538.592,1.25.968,2.142l3.017,6.958q.142.465.923,2.229a10.05,10.05,0,0,1,.464,1.229l.047-.079-.105-.773.377.32.624-1.04-.209,1.422.048.05-.073.122-.019.129-.347.047-.022,0-.232.031h0l-.016,0c.019.066.044.13.061.2l2.748-.027q1.3-3.376,2.434-6.268l-.842.342.454-1.02.564.229q3.063-7.816,4.868-12.054,1.91-4.482,3.733-9.23Zm-23.142-4.9.629-1.168.362,1.263ZM651.2,18.035l.122-1.012.91.624Zm1.026-2.527a.841.841,0,0,0-.049-.075.589.589,0,0,1-.142-.359.542.542,0,0,1,.185-.345.805.805,0,0,0,.056-.066l.208-.273.435.716-.51.724Zm.273,7.466.066-.369c.006-.033.009-.068.013-.1a.82.82,0,0,1,.1-.361.471.471,0,0,1,.335-.189c.025-.006.052-.012.075-.02l.2-.067.377.776Z" transform="translate(1295.628 -653.554)" fill="none" stroke="#070203" stroke-width="0.5"/>
      </g>
    </g>
    <g id="グループ_6804" data-name="グループ 6804" transform="translate(357 -2589.829)">
      <g id="グループ_6783" data-name="グループ 6783" transform="translate(-212.291 6555.159)">
        <path id="パス_71876" data-name="パス 71876" d="M134.23,16.83l-.21.006-4.886-.027h-1.956l-4.015-.081c-.273-.019-.543-.065-.813-.1a5.029,5.029,0,0,1-.627.181l-.069.016.333.555-.621-.248c-.056-.022-.111-.045-.17-.062a.229.229,0,0,1-.149-.268l-.01,0,.021-.07c.008-.035.016-.07.028-.11l.139-.514.007.012a2.056,2.056,0,0,1,.432-.9,1.071,1.071,0,0,1,.154-.117c-.007-.2-.011-.36-.011-.459,0-.308.008-.606.027-.9q.054-.734.055-.869,0-.244-.027-.733l.027-3.448c0-.144-.009-.316-.027-.515V7.96l.055-.927.027-1.194-.027-.434-.081-1a.856.856,0,0,1,.6-.788l1.125-.179-.127-.241,2.607-.44.019.107.136.037.072-.048.06.085v0l.035.05.853-.135a6.4,6.4,0,0,0,.108-1.058q0-.244-.027-.814a10.964,10.964,0,0,0-1.683-.108,5.362,5.362,0,0,0-1.249.136q-3.475.272-4.371.272-.571,0-1.317-.041T117.19,1.2q-1.6-.026-4.913-.38c-.162.011-.414.019-.737.023l.259.568-.612.576-.208-.433a2.912,2.912,0,0,1-.213-.5.227.227,0,0,1,.036-.2,8.1,8.1,0,0,0-1.4.105,3.444,3.444,0,0,0-.163.9q0,.218.081,1a5.244,5.244,0,0,0,1.113.217l.412.108a20.722,20.722,0,0,1,2.253.272c.181.036.357.064.529.081a1.935,1.935,0,0,1,.475.108,3.3,3.3,0,0,1,.217.652,33.03,33.03,0,0,1,.244,3.692V9.151l.027,2.362-.055,2.281.055.788q0,2.218-.021,3.609l.065.1-.067.045c-.013.865-.033,1.483-.059,1.837l-.027.652q0,1.818.108,5.484l-.353,6.787a13.676,13.676,0,0,1-1.493.434l-3.4.6a13.573,13.573,0,0,0-.163,1.927h.006a45.673,45.673,0,0,0,5.267-.214c.069-.01.243-.023.5-.038a6.372,6.372,0,0,1,.135-.975c.063-.278.449-.489.762-.617.155-.062.946-.363,1.32-.123a4.044,4.044,0,0,1,1.438,1.682c.594.023,1.112.055,1.542.1l3.828.163a3.625,3.625,0,0,0,.461.027q.516.026,1.113.027.678,0,1.656-.027a6.222,6.222,0,0,0,.108-.977,8.218,8.218,0,0,0-.081-.841,1.8,1.8,0,0,0-.6-.244,2.857,2.857,0,0,1-.461-.136l-3.991-.624-.272-.163a12.965,12.965,0,0,1-.081-1.441V23.216c0-.145-.019-.461-.055-.95v-.353l.1-2.037a4.2,4.2,0,0,1,1.168-.19h.76q.488,0,1.194-.027a4.084,4.084,0,0,1,.434-.027l.19.027.244.027,1.932.021c-.445-.488-.9-.993-1.335-1.509-.141-.173-.006-.314.219-.55.177-.185.306-.318.474-.19.532.415,1.042.848,1.535,1.267l.344.292-.533.7,5.769.062,0-.009c-.022-.992-.034-1.963-.045-2.936m-17.648,4.916c.005-.029.008-.06.011-.091a.665.665,0,0,1,.112-.352.434.434,0,0,1,.372-.127.684.684,0,0,0,.08,0l.183-.022.246.78-1.064.111Zm1.218,2.84,0,0-.106.11,0,0-.244.249-.128-.317c-.014-.035-.027-.073-.039-.111l-1.147-.529.983-.019a.6.6,0,0,0,.07-.007.386.386,0,0,1,.372.094.594.594,0,0,1,.08.129l.382.174Zm-.413-5.26.64-.933.39,1.059Zm3.237,7.212a4.085,4.085,0,0,1-.819.871c-.109.1-.219.193-.323.292l-.183.175-.152-.2c-.056-.072-.13-.152-.2-.233-.238-.256-.445-.479-.349-.711a4.97,4.97,0,0,1,.648-1.031c.116-.156.243-.327.377-.52l.2-.288.178.3c.107.182.225.353.329.5.27.389.43.625.3.839m.7-15.743.411,1.016-1.006-.094Zm10.37,7.334-.235.107a.206.206,0,0,1-.1.029.255.255,0,0,1-.167-.072l-.005.005-.056-.059-.291-.3,2.592-.493Z" transform="translate(-94.181 200.649)" fill="#070203"/>
        <path id="パス_71878" data-name="パス 71878" d="M236.215,1.058a48.224,48.224,0,0,1-4.968.244l-5.185-.217h-2.145l-.008.292.133.567-.147-.028-.032,1.227.353.081,2.552-.055a2.744,2.744,0,0,1,1.956.841,3.481,3.481,0,0,1,.6,2.145L229.43,7.6q.706,8.225.706,14.8a21.881,21.881,0,0,1-.515,5.565,10.654,10.654,0,0,1-1.352,2.8,6.542,6.542,0,0,1-1.647,1.561,8.025,8.025,0,0,1-2.511,1.236,16.767,16.767,0,0,1-4.86.679,9.957,9.957,0,0,1-4.474-1.141,6.006,6.006,0,0,1-2.443-2.253,10.4,10.4,0,0,1-1.3-4.913l-.353-6.814.108-4.7-.163-2.171.055-2.552-.027-.977q-.028-.542-.027-1.412,0-2.851.325-3.231a2.558,2.558,0,0,1,2.009-.6,22.275,22.275,0,0,0,3.031-.2c-.018-.183-.034-.367-.053-.549l-.117-.88-.026-.053-.119-.119.152-.067-.047-.466.267.267.011-.014.023-.275q-.571.028-2.186.055t-3.692.123q-2.077.1-4.248.095-.625,0-4.208-.19-1.495-.082-2.851-.081-.516,0-1,.027l.081,2.145h0a6.654,6.654,0,0,0,1.136.082,8.77,8.77,0,0,1,3.135.519.2.2,0,0,1,.257-.056c.477.239.939.49,1.4.741l.067.036.492-.308-.2.468.161.086-.116.073.543.383-1.313.025.111-.27-.637-.212a27.78,27.78,0,0,1,.248,4.649l-.027,12.949a30.779,30.779,0,0,0,.412,5.755,10.335,10.335,0,0,0,1.387,3.73l1.224-1.138-.961,1.519c.148.219.287.445.453.653a10.633,10.633,0,0,0,4.548,2.959,20.624,20.624,0,0,0,7.226,1.126,23.35,23.35,0,0,0,6.461-.8,14.374,14.374,0,0,0,4.609-2.16,10.928,10.928,0,0,0,2.851-3,9.5,9.5,0,0,0,1.03-2.959,45.75,45.75,0,0,0,.38-7.413l-.272-5.511q-.056-2.008-.136-3.964-.028-.57-.041-1.113t-.013-1.493a23.186,23.186,0,0,0-.081-2.362q-.082-.922-.081-1.412a1.254,1.254,0,0,1,.38-1,7.319,7.319,0,0,1,2.009-.412,8.907,8.907,0,0,0,2.118-.353,3.146,3.146,0,0,0,.108-.733,8.363,8.363,0,0,0-.163-1.249ZM213.329,33.229a1.833,1.833,0,0,0-.171.109,1.1,1.1,0,0,1-.554.24h-.029a1.4,1.4,0,0,1-.57-.168c-.067-.031-.135-.063-.2-.088l-.43-.156.387-.246c.069-.044.137-.095.206-.145a1.5,1.5,0,0,1,.628-.329c.218-.045.413.124.584.266a1.656,1.656,0,0,0,.166.132l.308.2ZM232.548,18.22l-.972-.15.624-.855Z" transform="translate(-91.555 200.656)" fill="#070203"/>
        <path id="パス_71879" data-name="パス 71879" d="M261.559,18.073a11.748,11.748,0,0,0-3.57-2.362,30.315,30.315,0,0,0-4-1.574q-4.941-1.464-6.461-3.067a4.79,4.79,0,0,1-1.548-3.339,4.467,4.467,0,0,1,1.561-3.461,6.088,6.088,0,0,1,4.221-1.4,6.486,6.486,0,0,1,4.86,2.17,14.015,14.015,0,0,1,2.389,4.86l.325.055,1.956.136.272-.081a5.694,5.694,0,0,0,.108-1.058,40.039,40.039,0,0,0-.325-4.343,18.016,18.016,0,0,0-.489-2.8h0a29.119,29.119,0,0,0-4.1-1.142c-.763-.155-1.534-.26-2.308-.34l0,.007L254.428.33c-.51-.053-1.02-.1-1.533-.12q-6.026,0-9.121,3.014a9.848,9.848,0,0,0-3.095,7.331,10.313,10.313,0,0,0,1.113,4.464,9.412,9.412,0,0,0,.594,1.088l.256-.19.073.343c.025.116.057.232.089.347.011.041.02.084.031.126a9.542,9.542,0,0,0,1.646,1.7l.011-.021.055.075c.1.077.185.164.285.238a30.246,30.246,0,0,0,6.923,3.149c.245.086.467.169.7.253-.034-.061-.067-.121-.1-.176l-.125-.055.03-.086-.406-.576.283.126-.128-.274,1.009-.1-.167.49.03-.011a2.667,2.667,0,0,1,.913-.232c.709.008,1.426.073,2.117.135q.422.039.84.073l.292.022-.1.277c-.054.153-.106.348-.16.543-.175.648-.281,1.039-.578,1.045h-.185c-.208,0-.431-.03-.647-.043a9.976,9.976,0,0,1,2.515,1.416,4.748,4.748,0,0,1,.807,6.777,5.939,5.939,0,0,1-2.837,2.051,9.789,9.789,0,0,1-3.231.624,9.1,9.1,0,0,1-3.067-.5,7.791,7.791,0,0,1-2.43-1.357,8.977,8.977,0,0,1-1.859-2.238c-.245-.4-.783-1.562-1.606-3.463l-.63.725-1.084-.865-.861.02V27.5q0,.732.055,2.5.136,3.421.136,3.719v.3a1.037,1.037,0,0,0,.244.515,5.356,5.356,0,0,0,1.71.679l3.258.95a22.985,22.985,0,0,0,4.53.544,18.762,18.762,0,0,0,4.707-.49,12.458,12.458,0,0,0,3.54-1.587,15.687,15.687,0,0,0,2.525-1.913,7.5,7.5,0,0,0,.972-1.187,12.083,12.083,0,0,1-1.25-2.511l-.033-.089.042-.107a6.255,6.255,0,0,1,2-1.155c.223-.081.454-.143.682-.211a13.733,13.733,0,0,0,.2-2.233,10.757,10.757,0,0,0-.611-3.9,10.125,10.125,0,0,0-2.233-3.246m-18.123-3.352-.877-.587.98-.386Zm-.823-1.927-.112-.2c-.034-.063-.083-.137-.131-.212-.187-.292-.312-.485-.161-.653a3.978,3.978,0,0,1,.677-.556c.08-.056.16-.11.236-.169l.211-.156.617,1.164ZM244.9,8.805a5.659,5.659,0,0,1-1,1.064c-.13.116-.259.233-.384.352l-.176.17-.155-.192c-.064-.078-.148-.161-.232-.245-.253-.251-.491-.488-.426-.755a5.58,5.58,0,0,1,.573-1.284c.126-.233.269-.5.427-.814l.173-.343.217.317c.2.3.4.554.56.769.388.509.564.742.421.961m8.283,10.5c-.067.06-.131.123-.194.184a2.8,2.8,0,0,1-.609.492.22.22,0,0,1-.112.033c-.1,0-.253-.068-.529-.355-.1-.1-.248-.26-.145-.431a4.318,4.318,0,0,1,.513-.671l.328-.386.917.98Zm4.29.306-.208-.521a2.7,2.7,0,0,1-.193-.562c-.038-.184.116-.3.252-.4.034-.026.069-.051.095-.075l.245-.225.427,1.107Zm-11.715,14.95a2.085,2.085,0,0,0-.191.084l-.183.1-.638-.988,1.2-.668.083.266c.021.064.048.13.074.2a1.161,1.161,0,0,1,.13.62c-.033.213-.255.3-.472.392m13.4-13.965a.513.513,0,0,1-.367-.255c-.024-.029-.046-.059-.069-.082l-.16-.166.574-.531.174.117.484.438-.182.168c-.025.023-.049.051-.074.079a.515.515,0,0,1-.371.233Zm2.316,5.76c-.056.176-.112.352-.155.527l-.092.368-.28-.255c-.158-.143-.326-.28-.493-.418a5.021,5.021,0,0,1-1.179-1.211c-.163-.271.055-.614.413-1.182.159-.251.342-.542.513-.863l.173-.321.211.3c.189.266.372.486.53.677a2.091,2.091,0,0,1,.6,1.039,3.44,3.44,0,0,1-.244,1.343m-.04-3.259-.846-.673.184-.179c.091-.089.179-.18.269-.272a4.794,4.794,0,0,1,.807-.717c.2-.132.411.035.7.265.081.063.163.127.233.172l.265.176Z" transform="translate(-90.289 200.631)" fill="#070203"/>
        <path id="パス_71880" data-name="パス 71880" d="M150.941,2.386a.834.834,0,0,1,.679-.163,2.62,2.62,0,0,1,.744.537l.048.041.109-.023c.041-.325.071-.675.095-1.04l-.442-.032.416-.86c-.711-.05-1.325-.077-1.834-.077a9.219,9.219,0,0,0-2.009.217l-.95.055-3.529.108q-.352.026-.95.027c-.458,0-.916-.028-1.375-.043l.266.968-.933-.179.6-.791q-1.149-.04-2.292-.146l.035.085-.23.074c-.027.009-.059.024-.09.037a.666.666,0,0,1-.27.078.275.275,0,0,1-.162-.051A.544.544,0,0,1,138.677.9c-.163-.019-.326-.026-.489-.046L135.554.826q-.136,0-.733.027A7.732,7.732,0,0,0,134.6,2.4a7.679,7.679,0,0,0,.977.272,16.69,16.69,0,0,1,3.8,1.222.806.806,0,0,1,.38.353l.19,1.9.163,4.615-.047,1.066.1.038-.109.286c-.018,2.3-.044,3.76-.08,4.362-.046.008-.094.011-.141.02.085.174.17.337.248.485.274.519.456.862.308,1.142a9.108,9.108,0,0,1-1.184,1.613l-.092.109c.264.015.528.03.776.05,0,.03,0,.06,0,.089l.988-.909,1.292,1.469-.284.123a3.737,3.737,0,0,0-.346.177,1.308,1.308,0,0,1-.569.216.406.406,0,0,1-.159-.031,1.872,1.872,0,0,1-.649-.547c-.069-.08-.139-.161-.212-.233l-.058-.057a31.264,31.264,0,0,0,.156,3.151l-.027,2.307a64.077,64.077,0,0,1-.324,7.3c-.345.108-.625.189-.842.244l-2.2.353-2.09.489a11.012,11.012,0,0,0-.136,1.765,3.344,3.344,0,0,0,.927.163q3.53-.354,5.756-.353,4.941,0,7.166.244,1.683.162,2.986.163.19,0,1.276-.027l-.082-1.9a21.162,21.162,0,0,0-3.855-1.113q-.488-.11-1.058-.272.056-1.276.055-2.171l-.055-3.2v-3.85q-.108-3.693-.081-4.886l.055-3.448-.026-2.558-.188-.081.187-.371V9.132q0-.136-.027-1.357V7.1q0-.3.055-.869l.027-.353-.027-.706V4.707l.163-.543a9.018,9.018,0,0,1,1.561-.638c.3-.091.826-.217,1.522-.373-.009-.02-.019-.039-.027-.059a2.924,2.924,0,0,0-.133-.279l-.126-.223.237-.1a2.38,2.38,0,0,0,.217-.109m-7.007,7.365a.844.844,0,0,0,.084-.073l.192-.2.655.958-1.076.781-.043-.385c-.007-.063-.017-.127-.027-.188a2.069,2.069,0,0,1-.035-.538.568.568,0,0,1,.25-.357m.147,11.517-.214.115-.021.025-.063,1.234.02.026.089.084,1.093.138-.607.955-.2-.192q-.244-.238-.49-.473l-.059-.007-.343.363.021-.4-.233-.03.247-.262,0-.059-.875-1.154.9-.49-.146-.159.216-.046.019-.366.27.292.582-.725.851.889-1.07.231Z" transform="translate(-93.433 200.648)" fill="#070203"/>
        <path id="パス_71881" data-name="パス 71881" d="M185.882,2.437a21.337,21.337,0,0,0-9.8-2.118,24.208,24.208,0,0,0-3.443.219l-.024.129-.032,1.605L171.393,1.8l.531-1.16c-.618.1-1.233.218-1.843.368a19.173,19.173,0,0,0-3.623,1.375l-.022.158-.1-.1c-.517.262-1.025.538-1.518.846a17.539,17.539,0,0,0-3.908,3.215l.287.054.193-.022L163.2,5.188l0-.006c.02-.042.037-.085.056-.129l-.067-.319.6.192.412.13-.394.24-.037.028.474,2.27-2.812-.526,0,0-.064.054h-.015l-.113.084-.224-.274h0l-.238-.291c-.083.094-.174.179-.255.274s-.159.208-.24.311l.4.023-.474.988-.25-.6a15.84,15.84,0,0,0-2.1,3.756,18.762,18.762,0,0,0-1.3,6.759l.006,0a18.7,18.7,0,0,0,.577,4.886,23.064,23.064,0,0,0,1.544,4.507,17.789,17.789,0,0,0,2.787,3.725l-.025-.167-.192-.236.238-.056.5-1.318-.075-.089.147-.1.113-.3.06.071.962-2.968,2.012,1,0,0,.228.116.011.005.279.144-1.819,1.771.575-.979-1.91,1.328,0,.006.011.015-.056.123-.114.35-.029-.034-.336.741.808-.154-.535,1.526a22.9,22.9,0,0,0,4.145,2.913q.249.11,2.307.788a15.293,15.293,0,0,0,2.66.6,29.248,29.248,0,0,0,4.316.3,21.424,21.424,0,0,0,10.658-2.5l.045-.281c.009-.059.016-.117.024-.177a2.458,2.458,0,0,1,.092-.475.59.59,0,0,1,.249-.281c.026-.019.051-.036.074-.056l.252-.222.306.883a16.488,16.488,0,0,0,2.837-2.375,18.411,18.411,0,0,0,5.227-13.17,17.637,17.637,0,0,0-3.1-9.85,16.828,16.828,0,0,0-6.542-5.728M157.313,16.119a.736.736,0,0,0-.055.062l-.449.607.127-2.1.373.686c.013.024.03.047.045.072a.587.587,0,0,1,.131.346.543.543,0,0,1-.172.33m1.608,11.623.284-.8h.162a.835.835,0,0,0,.085-.006.465.465,0,0,1,.388.077.65.65,0,0,1,.17.344.816.816,0,0,0,.027.093l.105.3Zm.6-9.612.57-.88.4.975Zm3.7-7.542c-.039.024-.077.049-.112.074a.655.655,0,0,1-.369.154h0a.536.536,0,0,1-.354-.181.774.774,0,0,0-.072-.061l-.559-.408h2.2Zm21.209-3.127a.6.6,0,0,0,.07-.066c.09-.088.22-.216.363-.2a.507.507,0,0,1,.357.216.75.75,0,0,0,.068.071l.119.107-.333.79-.856-.751ZM165.146,9.624l.39,1-.958-.083ZM185.208,28.2a9.676,9.676,0,0,1-4.027,4.656,11.171,11.171,0,0,1-5.443,1.371,8.722,8.722,0,0,1-3.095-.584,7.853,7.853,0,0,1-2.362-1.289,11,11,0,0,1-2.416-2.742,29.777,29.777,0,0,1-1.656-4.263,15.1,15.1,0,0,1-.57-2.932c-.029-.212-.054-.382-.076-.544l-.11.013.051-.3c0-.021,0-.044.005-.067-.01-.071-.024-.162-.033-.215a20.339,20.339,0,0,1-.19-3.339c0-.091,0-.181,0-.272l-.823-.09.71-.35.118-.053a27.871,27.871,0,0,1,.642-5.738,14.87,14.87,0,0,1,2.2-4.928,8.834,8.834,0,0,1,2.742-2.43A7.934,7.934,0,0,1,175.06,3a10.844,10.844,0,0,1,7.122,2.335,11.818,11.818,0,0,1,3.841,6.787,10.821,10.821,0,0,0,.272,1.113l.136.515q.3,3.72.3,5.891a20.49,20.49,0,0,1-1.521,8.552M187.6,8.1a.463.463,0,0,1-.173-.36.46.46,0,0,1,.251-.314.641.641,0,0,0,.07-.048l.041-.034a.826.826,0,0,1-.1-.183c-.009-.024-.02-.048-.03-.07l-.13-.259,1.1-.244-.153.758-.149.079c-.021.005-.043.013-.067.022a1,1,0,0,1-.14.032l.287.377-.61.5-.142-.185A.8.8,0,0,0,187.6,8.1m.619,15.5-.173-.234a1.394,1.394,0,0,0-.113-.13c-.135-.144-.286-.309-.25-.51a1.184,1.184,0,0,1,.5-.759c.179-.106.385-.025.6.063a2.391,2.391,0,0,0,.242.086l.328.1Zm1.474-13.4-.166-.35c-.032-.067-.073-.135-.114-.2a1.155,1.155,0,0,1-.224-.629,1.094,1.094,0,0,1,.3-.59c.049-.062.1-.123.14-.183l.211-.323.614,1.183Zm5.426,8.438.047.344c0,.026.01.051.015.077a.607.607,0,0,1,.008.332.488.488,0,0,1-.236.248.645.645,0,0,0-.059.038l-.18.139-.478-.631Z" transform="translate(-92.779 200.634)" fill="#070203"/>
        <path id="パス_71882" data-name="パス 71882" d="M161.563,30.624l.015.016c.085.081.177.154.265.234l-.255-.315Z" transform="translate(-92.631 201.53)" fill="#070203"/>
        <path id="パス_71889" data-name="パス 71889" d="M138,19.375c-.345-.443-.668-.862-.539-1.223a5.532,5.532,0,0,1,1.1-1.632l.266-.316c-.1.008-.2.01-.3.015-.024.047-.049.095-.069.141l-.129.3-.429-.407-3.843.11c-.008.99-.018,1.982-.028,2.966l3.712.04c.09,0,.173.007.262.009" transform="translate(-93.446 201.105)" fill="#070203"/>
        <path id="パス_71894" data-name="パス 71894" d="M300.536,26.14a13.8,13.8,0,0,1-3.067,5.1,6.37,6.37,0,0,1-3.2,1.819,30.686,30.686,0,0,1-6.407.57q-5.7,0-6.814-.57a1.443,1.443,0,0,1-.735-1.4l.055-5.869c-.059-1.169-.092-2.594-.1-4.246-.009.021-.019.038-.029.06-.131.289-.227.5-.429.5h-.033a6.394,6.394,0,0,1-1.46-.353,3.746,3.746,0,0,1-.565-.279l-.158-.026-.174-.032-.215.093-.048-.48,0-.008-.06-.59.432.39.036.021.061-.034a1.593,1.593,0,0,1,.871-.284,4.9,4.9,0,0,1,1.243.359c.16.062.32.125.482.178l.046.016c0-.221,0-.43,0-.66q0-.219.027-.927c.609-.064,1.357-.113,2.231-.148l.186-1.512.526,1.4c.01.028.023.056.033.083.935-.027,1.991-.042,3.186-.042a21.551,21.551,0,0,1,4.015.19,1.972,1.972,0,0,1,1.086.733,10.948,10.948,0,0,1,.974,3.15q.3,1.358.412,1.791h.565l.763-2.021.244.2c.061.05.142.109.222.167.04.028.071.053.107.079-.013-.406-.034-.88-.062-1.429q-.08-1.615-.081-2.349,0-.46.041-1.276t.041-3.665q0-1.248-.108-3.665l-1.574-.027-.343.027a37.107,37.107,0,0,1-.95,3.991,2.791,2.791,0,0,1-.869,1.181,6.714,6.714,0,0,1-2.558.528q-2.063.191-6.923.19a9.841,9.841,0,0,1-1.168-.081v-3.42l-.055-4.561q0-4.669.081-5.348,2.605-.108,5.918-.108,2.9,0,5.429.217,1.384.11,1.656.136a7.371,7.371,0,0,1,1.737.217,12.5,12.5,0,0,1,1.74,2.5l1.086,1.937q.408,1.059.652,1.6c.474.037.783.055.927.055l1.113-.055c.018-.217.027-.38.027-.489l-.055-1.113V2.965A2.108,2.108,0,0,0,300.05,1.5a42.882,42.882,0,0,0-4.886-.412l-4.913.055q-4.886,0-10.94.244-4.045.164-5.022.163a36.264,36.264,0,0,1-4.968-.3q-1.143-.162-2.687-.244L266.5,3.17q.68.082,1.194.108a17.878,17.878,0,0,1,2.986.38q.516.108.814.163a1.332,1.332,0,0,1,.814.38,5.07,5.07,0,0,1,.055.543L272.6,8.11l-.033,3.069.136,4.344-.024,3.071.081,10.234-.027.841q.028,1.114.027,1.574a5.66,5.66,0,0,1-.278,1.9c.063.137.133.269.191.408.087.207-.041.273-.465.493-.09.046-.178.092-.247.13l-.319.174-.033-.826a13.087,13.087,0,0,1-3.06.573,17.134,17.134,0,0,0-2.059.3v1.873l3.284-.108h1.14q4.751-.272,8.008-.272,6.547,0,11.18.19,6.6.272,8.121.271,1.032,0,2.792-.081l.492-3.1,1-5.13.163-.814c.036-.307.082-.687.136-1.14-.4-.018-.7-.027-.9-.027q-.544,0-1.385.081m-27.159-23.5-.211.223-.053-.323-.194-.073.13-.139-.885-.618.841.072a.589.589,0,0,0,.074,0c.114,0,.281-.005.366.139a.5.5,0,0,1,.052.141l.053.065.188.132-.025.026.975.37-.75.663-.55-.672Zm.969,21.678a.743.743,0,0,0-.079.064l-.169.161-.155-.174c-.022-.024-.047-.047-.072-.07a.4.4,0,0,1,.031-.725.816.816,0,0,0,.077-.063l.169-.159.156.172a.576.576,0,0,0,.072.069.4.4,0,0,1-.029.725m1.1-6.153a.337.337,0,0,1-.229.241,1.776,1.776,0,0,1-.335.028c-.069,0-.136,0-.2,0l-.488-.005.448-1.335.248.177c.048.035.1.067.147.1a1.558,1.558,0,0,1,.391.315.54.54,0,0,1,.019.485m.105,8.872.635-.9.307,1.063Z" transform="translate(-89.525 200.655)" fill="#070203"/>
        <path id="パス_71897" data-name="パス 71897" d="M294.043,24.451v-.262c-.032.086-.064.174-.1.262Z" transform="translate(-88.713 201.341)" fill="#070203"/>
      </g>
      <g id="グループ_6729" data-name="グループ 6729" transform="translate(-309 6755)">
        <path id="パス_71852" data-name="パス 71852" d="M10.947.731A11.24,11.24,0,0,0,5.474,2.123c-.127.07-.248.148-.372.223l.333.534-1.495.432-.008-.127a9.792,9.792,0,0,0-2.472,3.1c-.108.2-.208.413-.3.623.048-.013.1-.03.146-.039.158-.025.269.123.356.261.022.035.044.071.064.1l.168.221-.263.092c-.056.019-.112.041-.168.062a2.368,2.368,0,0,1-.512.152l-.038,0a.232.232,0,0,1-.1-.022A12.715,12.715,0,0,0,0,12.306,16.269,16.269,0,0,0,.52,16.374a8.53,8.53,0,0,0,1.241,2.716,10.273,10.273,0,0,0,2.416,2.335,16.085,16.085,0,0,0,3.194,1.392,6.908,6.908,0,0,0,1.611.109,10.736,10.736,0,0,0,3.794-.655,1.269,1.269,0,0,0,.82-1.338,1.356,1.356,0,0,0-.273-.914.792.792,0,0,0-.6-.314l-.409.082a5.009,5.009,0,0,1-1.42.219,4.835,4.835,0,0,1-2.13-.519,2.949,2.949,0,0,1-.929-1.062,7.323,7.323,0,0,1-.468-.933.45.45,0,0,1-.287.144A.286.286,0,0,1,7,17.626a2.074,2.074,0,0,1-.621-.343c-.07-.049-.139-.1-.208-.142l-.322-.2.35-.151c.06-.026.12-.059.18-.093a1.081,1.081,0,0,1,.553-.178.584.584,0,0,1,.1.019,7.074,7.074,0,0,1-.182-.868c-.09-.642-.156-1.287-.209-1.932a2.218,2.218,0,0,1-.623.129.825.825,0,0,1-.176-.018,1.077,1.077,0,0,1-.565-.491,2.713,2.713,0,0,0-.172-.221l-.2-.224.286-.1c.091-.032.183-.076.276-.118a1.375,1.375,0,0,1,.771-.2.759.759,0,0,1,.336.147c-.03-.611-.05-1.221-.047-1.832,0-.06,0-.115,0-.175-.108-.053-.212-.113-.312-.173-.059-.036-.12-.072-.18-.107l-.246-.137L6,10.026a1.674,1.674,0,0,0,.133-.139.878.878,0,0,1,.435-.315A9.791,9.791,0,0,1,8.188,4.337a3.608,3.608,0,0,1,2.972-1.665A3.735,3.735,0,0,1,14.328,4.61Q16.021,7.2,16.02,14.164a29.249,29.249,0,0,1-.163,3.358q-.218,1.883-.246,2.375a22.869,22.869,0,0,1-.641,4.027,15.081,15.081,0,0,1-.907,2.715,1.59,1.59,0,0,1,.376-.161.455.455,0,0,1,.352.119.554.554,0,0,0,.069.048l.327.189-.914.454-.406-.232a15.1,15.1,0,0,1-.879,1.619,14.074,14.074,0,0,1-3.439,3.74,20.159,20.159,0,0,1-2.461,1.542,1.67,1.67,0,0,1-.195.21c-.043.042-.088.084-.125.127l-.212.247-.113-.265c-.581.283-1.171.548-1.778.774a5.644,5.644,0,0,0-1.582.737.992.992,0,0,0-.273.737,1.588,1.588,0,0,0,.437,1.01q.682.054,1.04.054A15.919,15.919,0,0,0,9.337,36.5a19.015,19.015,0,0,0,5.869-3.426,19.352,19.352,0,0,0,4.052-4.613c-.016-.033-.033-.067-.05-.1l-.15-.24.275-.064c.059-.014.121-.035.183-.056l.047-.016c.021-.035.045-.067.066-.1a28.448,28.448,0,0,0,1.993-3.892,24.479,24.479,0,0,0,1.42-7.862q0-7.481-3.454-11.439A10.988,10.988,0,0,0,10.947.731M1.706,9.449,1.65,10.2l-.185,0,0-.2-.041.2H1.37c-.1,0-.215-.018-.247-.161a3,3,0,0,1-.029-.32l-.017-.268Zm-.024,7.287c-.025,0-.052-.007-.079-.011a.583.583,0,0,1-.3-.094.381.381,0,0,1-.125-.314c0-.023,0-.047,0-.067l-.031-.179.674-.2.156.914Zm-.066-2.175c-.08.062-.161.125-.226.187l-.146.141L1.1,14.742c-.065-.068-.137-.133-.209-.2A1.607,1.607,0,0,1,.4,13.929c-.072-.2.069-.383.3-.682.105-.134.231-.294.363-.489L1.24,12.5l.166.258c.106.165.212.306.305.431a1.361,1.361,0,0,1,.374.756c0,.25-.238.434-.469.612M7.522,3.8l-.194-.171c-.025-.022-.056-.046-.088-.069-.13-.1-.276-.205-.223-.375a2.455,2.455,0,0,1,.21-.466l.189-.367.609.471Zm3.286,28.947.543-1.008.31,1.09ZM20.837,16.718l.328.626a.582.582,0,0,0,.034.055.483.483,0,0,1,.1.29.442.442,0,0,1-.145.269c-.014.015-.029.031-.041.047l-.414.545Z" transform="translate(0 -0.213)" fill="#070203"/>
        <path id="パス_71856" data-name="パス 71856" d="M83.911,18.356l.731.35a6.274,6.274,0,0,0,1.434-1.284,9.081,9.081,0,0,0,1.693-3.167,14.3,14.3,0,0,0,.6-4.34,10.327,10.327,0,0,0-2.088-6.852A6.317,6.317,0,0,0,81.3.578a5.769,5.769,0,0,0-2.307.464,7.658,7.658,0,0,0-2.143,1.447A7.866,7.866,0,0,0,75.4,4.564a18.807,18.807,0,0,0-.955,2.948,10.417,10.417,0,0,0-.273,2.648v0c-.013.339-.006.677.011,1.015.13.008.265.015.4.015h.529l-.395.352c-.167.149-.317.285-.475.427a12.032,12.032,0,0,0,1.139,3.922,7.554,7.554,0,0,0,2.907,3.194,7.887,7.887,0,0,0,3.549.628,5.154,5.154,0,0,0,1.79-.444ZM87.69,7.288l.273.95-.844-.146ZM77.546,6.32c.064-.027.13-.053.183-.081l.15-.08.621.8-1.028.626-.1-.2c-.025-.052-.056-.106-.087-.159a.923.923,0,0,1-.178-.534c.02-.2.222-.279.435-.366m-1.49,10.216L76.6,15.7l.332.944Zm1.74-7.3.022-.116-.793.311.8-.734s.027-.025.055-.052l-.013-.049.056-.028.057-.3.422.442.122.129-.193.076-.146.422Zm1.18,8.778a.733.733,0,0,0-.071.03.6.6,0,0,1-.23.065.243.243,0,0,1-.144-.045.488.488,0,0,1-.168-.294c-.007-.025-.013-.051-.022-.074l-.075-.2.2-.067c.022-.007.047-.019.073-.03a.345.345,0,0,1,.377-.015.535.535,0,0,1,.162.288c.008.025.015.05.024.073l.079.2Zm4.594-4.878c-.045.639-.11,1.277-.2,1.912a4.546,4.546,0,0,1-.887,2.525,1.922,1.922,0,0,1-1.351.587,1.51,1.51,0,0,1-.9-.273l-.873-1.12q-.327-.6-.354-4.75c0-.148,0-.348-.009-.575l-.124.08-.076-.576c-.067-.457-.082-.566.111-.61l.054-.009c-.011-.282-.023-.59-.038-.929v0q.055-3.6.163-4.286a4.446,4.446,0,0,1,.887-2.347,1.877,1.877,0,0,1,1.351-.573A1.688,1.688,0,0,1,82.8,3.01a8.153,8.153,0,0,1,.792,4.231V9.2l.03.994a.906.906,0,0,1,.166-.132c.031-.021.063-.042.086-.061l.2-.159.408.895-.548.516-.188-.393c-.04-.08-.08-.163-.116-.248l.013.418c0,.385-.023.77-.038,1.155l.242.149,0,0,.286.177-.185.108v.028c.205.414.415.839.6,1.272.075.188-.03.242-.425.446l-.214.113-.286.156Z" transform="translate(-21.679 -0.169)" fill="#070203"/>
        <path id="パス_71857" data-name="パス 71857" d="M41.209,21.432A16.067,16.067,0,0,0,44.4,22.824a6.9,6.9,0,0,0,1.611.109,10.727,10.727,0,0,0,3.795-.655,1.267,1.267,0,0,0,.819-1.338,1.357,1.357,0,0,0-.273-.914.791.791,0,0,0-.6-.314l-.41.082a4.99,4.99,0,0,1-.989.184,3.053,3.053,0,0,1-1.667.919.978.978,0,0,1-.112-.006c-.817-.1-1.507-1.033-2.116-1.858l-.168-.227c-.127-.17-.018-.369.343-.8a7.252,7.252,0,0,1-.752-2.331,33.924,33.924,0,0,1-.328-4.859,10.784,10.784,0,0,1,1.665-6.47,3.57,3.57,0,0,1,.534-.65l-.411-.253.539.139a3.608,3.608,0,0,1,1.9-.868c-.174-.413-.348-.837-.485-1.27-.064-.2.077-.393.213-.58.028-.039.052-.076.078-.113a11.181,11.181,0,0,0-1.394.13c0,.022-.01.044-.013.066l-.068.374-.272-.265c-.033-.033-.071-.064-.106-.1a11.262,11.262,0,0,0-3.227,1.173,9.8,9.8,0,0,0-4.013,4.163,12.7,12.7,0,0,0-1.446,5.369l.451.274-.46.128c0,.084-.006.166-.006.249a16.269,16.269,0,0,0,.519,4.068,8.493,8.493,0,0,0,.3.919,1.1,1.1,0,0,1,.427.233c.051.04.1.08.153.113l.224.142-.2.178a1.774,1.774,0,0,0-.132.137l-.076.081a8.483,8.483,0,0,0,.541.913,10.246,10.246,0,0,0,2.416,2.335M39.961,5l.217.2a.182.182,0,0,1,.213.051,3.98,3.98,0,0,1,.3.388l.048.069.061.055,0,.024.156.22-.586.059h0l-.091.009-.027-.1-.6-.438.331-.221c.024-.017.046-.031.069-.046Z" transform="translate(-10.825 -0.219)" fill="#070203"/>
        <path id="パス_71862" data-name="パス 71862" d="M107.434,6.945l-.014.181L107.1,6.71c-.038-.05-.074-.094-.113-.141l-.613-.438,1,.107.113.013-.008.113.123.149c.151.108.3.219.447.328L112.456.081l-.273.028L109.7,0l-.354.082q-5.167,8.059-9.337,14.517l-.059.233.131.248-.6.341Q89.316,31.148,85.131,37.263l.627-.082,1.665.082a5.477,5.477,0,0,0,.792,0l10.9-16.713-.461-.336.33-.22.069-.046-.078-.272.217.2a.182.182,0,0,1,.213.051c.023.026.041.056.064.083l5.071-7.778a1.008,1.008,0,0,1-.4-.427c-.044-.069-.086-.139-.131-.2l-.184-.233.284-.086c.086-.026.171-.054.257-.084a3.114,3.114,0,0,1,.759-.187.229.229,0,0,1,.167.057l2.451-3.761Zm-16.445,25.7a.605.605,0,0,0-.04.046l-.413.538.135-1.824.329.625c.009.018.022.037.033.055a.482.482,0,0,1,.1.289.443.443,0,0,1-.147.271" transform="translate(-24.884)" fill="#070203"/>
        <path id="パス_71863" data-name="パス 71863" d="M60.512,14.27c-.143-.108-.287-.218-.408-.3l-.224-.147.2-.176c.258-.222.512-.452.766-.682l.183-.164a14.754,14.754,0,0,0-3.256-8.112l-.02-.021c-.341-.052-.687-.118-1.042-.205-.271-.067-.429-.359-.582-.64-.05-.091-.1-.179-.151-.259l-.11-.049.025-.077-.366-.519.254.115-.115-.245.035,0a11.014,11.014,0,0,0-1.627-.967.83.83,0,0,1-.133.444,1.8,1.8,0,0,0-.081.17l-.074.19L53.6,2.55c-.055-.021-.121-.039-.188-.057-.213-.058-.434-.118-.491-.313a.874.874,0,0,1,.1-.573c.026-.064.053-.127.072-.19v0A10.983,10.983,0,0,0,49.189.735l.658.92-.136,1.053a3.734,3.734,0,0,1,2.809,1.9q1.693,2.592,1.693,9.554a29.41,29.41,0,0,1-.163,3.358q-.219,1.883-.246,2.375a22.99,22.99,0,0,1-.641,4.027,15.17,15.17,0,0,1-1.982,4.75,14.075,14.075,0,0,1-3.439,3.74q-.573.42-1.173.8l.181.162c.024.021.057.045.088.069.139.1.281.21.223.379a2.956,2.956,0,0,1-.238.489l-.225.413-.191-.226a.9.9,0,0,0-.078-.079c-.108-.1-.232-.224-.184-.385a2.252,2.252,0,0,1,.219-.472l.179-.335a20.161,20.161,0,0,1-2.735,1.43l.108,1.2-1.175,1.112-.134-.189c-.039-.054-.091-.12-.144-.187-.234-.3-.34-.437-.2-.585.311-.333.651-.643.98-.943l.349-.32c-.243.1-.484.209-.731.3a5.633,5.633,0,0,0-1.581.737.994.994,0,0,0-.273.737,1.589,1.589,0,0,0,.435,1.01q.682.054,1.037.057a15.887,15.887,0,0,0,3.95-.709c-.023-.05-.047-.1-.074-.146l-.139-.229.259-.071c.059-.016.122-.041.184-.064a.789.789,0,0,1,.581-.073.509.509,0,0,1,.229.221l.061-.021A19.024,19.024,0,0,0,53.4,33.073a19.34,19.34,0,0,0,3.946-4.449,1.6,1.6,0,0,1,.3-.478l.05-.066c.04-.066.086-.127.125-.193a28.609,28.609,0,0,0,1.993-3.892,24.5,24.5,0,0,0,1.307-5.853l-.241.069-.146-2.3-.122-.2.164-.168h0l.287-.3h0l.032-.033.028.444.021.143.084.134c0-.419-.018-.826-.037-1.229a3.062,3.062,0,0,1-.676-.442M51.291,33.635c-.043.063-.086.126-.117.182l-.108.2-1.235-.859.744-.944.16.143c.067.059.135.115.2.17a2.226,2.226,0,0,1,.518.525c.11.174-.019.364-.168.586m3.525-13.318.317.856-.845-.108Zm.147,1.142-.42,1.012-.414-1.026Zm.27,2.608-.167.34-.817-.657.294-.239a1.545,1.545,0,0,1,.335-.237.313.313,0,0,1,.326.079c.144.111.205.219.185.329a1.413,1.413,0,0,1-.156.386m.614-16.048-.2.088L55.206,9.3l.058-1.025-.139.061.16-.42.01-.178-.333-1.458.427.088c.193.033.36.062.36.247,0,.338-.024.672-.043,1.007l.051,0,.87-.377.294.753L56.569,8c-.239,0-.479.01-.722.018m1.291,2.5c-.111,0-.183-.106-.259-.217l-.182-.256.534-.321.716.277-.369.265a3.722,3.722,0,0,1-.338.224.24.24,0,0,1-.1.028M58.587,25.1l-.185,0,0-.2-.041.2h-.05c-.1,0-.214-.018-.248-.156a3.225,3.225,0,0,1-.03-.323l-.016-.269.628-.007ZM58.4,22.5a2.347,2.347,0,0,1-.515.154.229.229,0,0,1-.038,0c-.146,0-.238-.128-.321-.242a.872.872,0,0,0-.067-.088l-.2-.222.451-.168a2.881,2.881,0,0,1,.525-.168c.162-.037.268.122.354.259a1.075,1.075,0,0,0,.066.1l.168.222Zm.173-2.18-.074-.006a.54.54,0,0,1-.3-.08.363.363,0,0,1-.122-.318.607.607,0,0,0,0-.064l-.022-.17.667-.2.121.874Z" transform="translate(-11.985 -0.214)" fill="#070203"/>
        <path id="パス_71865" data-name="パス 71865" d="M128.522,30.752l-.895-2.091.021-.079a7.66,7.66,0,0,0-.724-1.03,6.338,6.338,0,0,0-3.078-2.156l-.151.379-.218-.205c-.021-.02-.05-.041-.078-.062a.459.459,0,0,1-.212-.287,6.327,6.327,0,0,0-1.232-.14,5.918,5.918,0,0,0-2.307.45,7.4,7.4,0,0,0-2.143,1.433,7.861,7.861,0,0,0-1.447,2.075q-.306.737-.548,1.5a.272.272,0,0,1,.042-.008h.011a.456.456,0,0,1,.323.227c.021.026.04.052.061.074l.143.15-.526.481-.137-.12.134-.151h0l-.166.123-.079-.07c-.071.257-.153.511-.213.771a10.126,10.126,0,0,0-.273,2.618v0a12.172,12.172,0,0,0,1.2,5.733c.05.1.117.2.171.3l.925.5-.279.186c-.05.034-.1.077-.155.115a7.4,7.4,0,0,0,2.258,2.09,7.81,7.81,0,0,0,3.522.628,5.178,5.178,0,0,0,2.375-.732A5.971,5.971,0,0,0,126.7,41.9a8.833,8.833,0,0,0,1.72-3.167,14.3,14.3,0,0,0,.6-4.34,13.443,13.443,0,0,0-.468-3.672Zm-11.577,8.989.512-.788.355.87Zm1.323-9.615h-.7v.156l-.257-.156h0l-.849-.515.561.014.021-.5c.016-.121.052-.142.231-.242l.3-.168,0,.924,1.544.04ZM124,39.515a4.624,4.624,0,0,1-.873,2.525,1.862,1.862,0,0,1-.315.263c.022,0,.043,0,.064,0l.144-.009.279.671-1.046.134.046-.269a.859.859,0,0,0,.008-.088.8.8,0,0,1,.045-.22,1.84,1.84,0,0,1-.562.1,1.5,1.5,0,0,1-.355-.048l.226.609-.845-.108.4-.567a1.531,1.531,0,0,1-.326-.159l-.873-1.12q-.353-.6-.354-4.75,0-.708-.082-2.618.027-3.6.134-4.282a4.361,4.361,0,0,1,.694-2.035l-.824-.1.56-.807.311.843c.054-.081.1-.166.161-.243a1.926,1.926,0,0,1,1.365-.573,1.69,1.69,0,0,1,1.474.819,8.153,8.153,0,0,1,.792,4.231v1.96l.028,1.829A28.72,28.72,0,0,1,124,39.515" transform="translate(-33.562 -7.331)" fill="#070203"/>
      </g>
    </g>
  </g>
</svg>
