<svg id="グループ_6500" data-name="グループ 6500" xmlns="http://www.w3.org/2000/svg" width="24.576" height="18.014" viewBox="0 0 24.576 18.014">
  <path id="パス_4187" data-name="パス 4187" d="M5.635,15.711c1.6-1.356,2.03-3.474,1.559-4.009s-1.034-.11-2.682-.339C2.83,11.13.4,9.507.671,5.7A5.25,5.25,0,0,1,7.11.612C10.118,1.2,11.826,4,11.9,7.552a11.239,11.239,0,0,1-3.558,8.492,10.185,10.185,0,0,1-5.119,2.434c-1.931.231-1.664-.751-.9-.981a9.032,9.032,0,0,0,3.316-1.787" transform="translate(-0.651 -0.5)" fill="#1a1311"/>
  <path id="パス_4188" data-name="パス 4188" d="M140.323,15.711c1.6-1.356,2.03-3.474,1.559-4.009s-1.034-.11-2.682-.339c-1.682-.234-4.111-1.856-3.84-5.667A5.25,5.25,0,0,1,141.8.612c3.008.589,4.716,3.387,4.789,6.94a11.239,11.239,0,0,1-3.558,8.492,10.185,10.185,0,0,1-5.119,2.434c-1.931.231-1.664-.751-.9-.981a9.032,9.032,0,0,0,3.316-1.787" transform="translate(-122.013 -0.5)" fill="#1a1311"/>
</svg>
