<svg id="icon_insta" xmlns="http://www.w3.org/2000/svg" width="26.983" height="26.983" viewBox="0 0 26.983 26.983">
  <path id="パス_3" d="M13.692,2.57c3.646,0,4.011,0,5.47.091a8.373,8.373,0,0,1,2.552.456,4.841,4.841,0,0,1,2.552,2.644,7.909,7.909,0,0,1,.456,2.552c.091,1.459.091,1.823.091,5.47s0,4.011-.091,5.47a8.373,8.373,0,0,1-.456,2.552,4.4,4.4,0,0,1-2.552,2.552,7.909,7.909,0,0,1-2.552.456c-1.459.091-1.823.091-5.47.091s-4.011,0-5.47-.091a8.373,8.373,0,0,1-2.552-.456,5.341,5.341,0,0,1-2.552-2.735,7.909,7.909,0,0,1-.456-2.552c-.091-1.459-.091-1.823-.091-5.47s0-4.011.091-5.47a8.373,8.373,0,0,1,.456-2.552A5.01,5.01,0,0,1,5.761,3.117a7.368,7.368,0,0,1,2.461-.456c1.459,0,1.823-.091,5.47-.091m0-2.37c-3.646,0-4.1,0-5.561.091A10.473,10.473,0,0,0,4.849.929a6.658,6.658,0,0,0-3.92,3.92A8.1,8.1,0,0,0,.291,8.131C.2,9.589.2,10.045.2,13.692s0,4.1.091,5.561a10.473,10.473,0,0,0,.638,3.282,6.658,6.658,0,0,0,3.92,3.92,10.473,10.473,0,0,0,3.282.638c1.459.091,1.914.091,5.561.091s4.1,0,5.561-.091a10.473,10.473,0,0,0,3.282-.638,6.658,6.658,0,0,0,3.92-3.92,10.473,10.473,0,0,0,.638-3.282c.091-1.459.091-1.914.091-5.561s0-4.1-.091-5.561a10.473,10.473,0,0,0-.638-3.282,6.658,6.658,0,0,0-3.92-3.92A10.473,10.473,0,0,0,19.252.291C17.794.2,17.338.2,13.692.2Z" transform="translate(-0.2 -0.2)"/>
  <path id="パス_4" d="M14.328,7.4a6.928,6.928,0,1,0,6.928,6.928A6.925,6.925,0,0,0,14.328,7.4Zm0,11.395a4.467,4.467,0,1,1,4.467-4.467h0a4.474,4.474,0,0,1-4.467,4.467Z" transform="translate(-0.837 -0.837)"/>
  <circle id="楕円形_1" cx="1.641" cy="1.641" r="1.641" transform="translate(19.052 4.649)"/>
</svg>
