<svg xmlns="http://www.w3.org/2000/svg" xmlns:xlink="http://www.w3.org/1999/xlink" width="209.988" height="189.778" viewBox="0 0 209.988 189.778">
  <defs>
    <clipPath id="clip-path">
      <rect id="長方形_35" data-name="長方形 35" width="209.988" height="189.778" fill="none"/>
    </clipPath>
  </defs>
  <g id="グループ_50" data-name="グループ 50" transform="translate(0)">
    <g id="グループ_46" data-name="グループ 46" transform="translate(0)" clip-path="url(#clip-path)">
      <path id="パス_226" data-name="パス 226" d="M52.057,102.844a4.381,4.381,0,0,1-1.253-2.823,2.741,2.741,0,0,1,.784-2.06q.393-.533,4.554-2.06a58.029,58.029,0,0,0,14.052-7.362,39.733,39.733,0,0,0,9.891-10.452,41.761,41.761,0,0,0,5.692-13.276A62.492,62.492,0,0,0,87.62,53.558q.077-1.373.706-6.638a79.742,79.742,0,0,0,.472-9.385q0-19.456-4.87-26.7-3.695-5.417-9.114-5.417-5.03,0-8.564,4.653Q61.458,16.4,61.458,28.152A92.182,92.182,0,0,0,62.4,41.732a19.841,19.841,0,0,0,2.831,7.706,8.268,8.268,0,0,0,2.673,2.976,14.243,14.243,0,0,0,6.134,1.45,14.755,14.755,0,0,0,4.088-.61l1.18-.229a2.3,2.3,0,0,1,1.73.877,3.716,3.716,0,0,1,.787,2.556A3.538,3.538,0,0,1,79.471,60.2a31.637,31.637,0,0,1-10.911,1.831,20.368,20.368,0,0,1-4.631-.3q-7.379-2.594-9.184-3.891A29.109,29.109,0,0,1,47.8,51.307a23.516,23.516,0,0,1-3.571-7.591,44.346,44.346,0,0,1-1.491-11.368,34.779,34.779,0,0,1,4.191-16.822A27.745,27.745,0,0,1,58.441,3.89,32.973,32.973,0,0,1,74.148,0,31.907,31.907,0,0,1,98.943,11.062q9.908,11.062,9.91,31.967A66.856,66.856,0,0,1,104.779,65,78.807,78.807,0,0,1,99.06,75.874a54.464,54.464,0,0,1-12.691,14.5,54.882,54.882,0,0,1-16.843,9.576Q60.673,103,55.034,103q-1.019,0-2.977-.153" transform="translate(-18.502 0)" fill="#1a1311"/>
      <path id="パス_227" data-name="パス 227" d="M190.339,102.844a4.381,4.381,0,0,1-1.253-2.823,2.741,2.741,0,0,1,.784-2.06q.393-.533,4.554-2.06a58.029,58.029,0,0,0,14.052-7.362,39.734,39.734,0,0,0,9.891-10.452,41.787,41.787,0,0,0,5.692-13.276A62.481,62.481,0,0,0,225.9,53.558q.077-1.373.706-6.638a79.723,79.723,0,0,0,.472-9.385q0-19.456-4.87-26.7-3.695-5.417-9.115-5.417-5.029,0-8.563,4.653Q199.74,16.4,199.74,28.152a92.182,92.182,0,0,0,.944,13.581,19.841,19.841,0,0,0,2.831,7.706,8.263,8.263,0,0,0,2.673,2.976,14.243,14.243,0,0,0,6.134,1.45,14.755,14.755,0,0,0,4.088-.61l1.18-.229a2.305,2.305,0,0,1,1.73.877,3.716,3.716,0,0,1,.787,2.556,3.538,3.538,0,0,1-2.354,3.739,31.64,31.64,0,0,1-10.911,1.831,20.365,20.365,0,0,1-4.631-.3q-7.379-2.594-9.184-3.891a29.109,29.109,0,0,1-6.948-6.523,23.515,23.515,0,0,1-3.571-7.591,44.345,44.345,0,0,1-1.491-11.368,34.779,34.779,0,0,1,4.191-16.822A27.745,27.745,0,0,1,196.723,3.89,32.973,32.973,0,0,1,212.43,0a31.9,31.9,0,0,1,24.794,11.063q9.911,11.062,9.91,31.967A66.869,66.869,0,0,1,243.062,65a79.032,79.032,0,0,1-5.719,10.871,57.992,57.992,0,0,1-29.534,24.072Q198.955,103,193.316,103q-1.019,0-2.977-.153" transform="translate(-78.37 0)" fill="#1a1311"/>
      <path id="パス_228" data-name="パス 228" d="M.035,243.4h5.59v13.284H20.16V243.4h5.59v31.1H20.16V261.96H5.625V274.5H.035Z" transform="translate(-0.015 -108.982)" fill="#1a1311"/>
      <path id="パス_229" data-name="パス 229" d="M92.15,242.064a15.189,15.189,0,0,1,6.417,1.306,14.364,14.364,0,0,1,4.808,3.528,15.6,15.6,0,0,1,3.02,5.184,19.383,19.383,0,0,1,0,12.587,15.594,15.594,0,0,1-3.02,5.183,14.087,14.087,0,0,1-4.808,3.506,16.667,16.667,0,0,1-12.835,0,14.063,14.063,0,0,1-4.807-3.506,15.575,15.575,0,0,1-3.02-5.183,19.373,19.373,0,0,1,0-12.587,15.577,15.577,0,0,1,3.02-5.184,14.339,14.339,0,0,1,4.807-3.528,15.183,15.183,0,0,1,6.418-1.306m0,4.868a9.141,9.141,0,0,0-4.4,1,8.566,8.566,0,0,0-3.019,2.679A9.754,9.754,0,0,0,83,254a17.226,17.226,0,0,0,0,8.711,10.474,10.474,0,0,0,1.722,3.537,8.549,8.549,0,0,0,3.019,2.678,10.185,10.185,0,0,0,8.81,0,8.552,8.552,0,0,0,3.018-2.678,10.507,10.507,0,0,0,1.722-3.537,17.243,17.243,0,0,0,0-8.711,9.784,9.784,0,0,0-1.722-3.386,8.569,8.569,0,0,0-3.018-2.679,9.149,9.149,0,0,0-4.4-1" transform="translate(-33.274 -108.381)" fill="#1a1311"/>
      <path id="パス_230" data-name="パス 230" d="M161.8,243.4h5.59v17.552q0,1.567.156,3.179a7.142,7.142,0,0,0,.894,2.9,5.842,5.842,0,0,0,2.236,2.21,9.49,9.49,0,0,0,8.453,0,5.848,5.848,0,0,0,2.236-2.21,7.142,7.142,0,0,0,.894-2.9q.156-1.61.157-3.179V243.4h5.589V262.18a16.457,16.457,0,0,1-.939,5.794,11.756,11.756,0,0,1-2.661,4.151,11.429,11.429,0,0,1-4.137,2.377,19.816,19.816,0,0,1-10.734,0,11.417,11.417,0,0,1-4.136-2.377,11.742,11.742,0,0,1-2.662-4.151,16.471,16.471,0,0,1-.938-5.794Z" transform="translate(-70.051 -108.982)" fill="#1a1311"/>
      <path id="パス_231" data-name="パス 231" d="M314.344,243.4h22.987v4.7h-17.4v8.145h16.1V260.7h-16.1v9.1h17.71v4.7h-23.3Z" transform="translate(-136.093 -108.982)" fill="#1a1311"/>
      <path id="パス_232" data-name="パス 232" d="M265.5,265.32a8.175,8.175,0,0,1-1.052,4.038,9.019,9.019,0,0,1-2.619,3.08A9.659,9.659,0,0,1,258.4,274.1a16.727,16.727,0,0,1-4.24.542,16.41,16.41,0,0,1-4.686-.652,10.691,10.691,0,0,1-3.832-2,8.837,8.837,0,0,1-2.523-3.288,13.024,13.024,0,0,1-1.1-5.16h4.88a10.11,10.11,0,0,0,.785,3.049,5.438,5.438,0,0,0,1.59,2.068,6.517,6.517,0,0,0,2.343,1.175,10.581,10.581,0,0,0,2.872.372,7.861,7.861,0,0,0,2.729-.43,5.615,5.615,0,0,0,1.917-1.068,4.211,4.211,0,0,0,1.091-1.416,5.213,5.213,0,0,0,.414-1.98,3.634,3.634,0,0,0-1.046-2.533c-2.226-2.467-6.88-2.34-10.277-3.681a9.887,9.887,0,0,1-4.853-3.267,6.562,6.562,0,0,1-1.039-2.221,9.5,9.5,0,0,1-.3-2.4,8.263,8.263,0,0,1,3.342-6.925,10.278,10.278,0,0,1,3.423-1.677,14.051,14.051,0,0,1,3.871-.546,14.293,14.293,0,0,1,4.3.633,10.34,10.34,0,0,1,3.545,1.895,9.177,9.177,0,0,1,2.426,3.113,9.758,9.758,0,0,1,.9,4.29h-5.1a5.377,5.377,0,0,0-1.916-4.247,7.238,7.238,0,0,0-4.359-1.242,8.989,8.989,0,0,0-1.835.2,4.6,4.6,0,0,0-1.537.623,4.184,4.184,0,0,0-1.478,1.556,4.357,4.357,0,0,0-.477,1.933,3.487,3.487,0,0,0,1.21,2.64c3.223,2.69,8.3,2.413,12.717,5.16a7.48,7.48,0,0,1,3.354,6.7" transform="translate(-104.779 -108.381)" fill="#1a1311"/>
      <path id="パス_233" data-name="パス 233" d="M0,325.606a5.006,5.006,0,0,0,.851-.071A2.7,2.7,0,0,0,1.6,325.3a1.91,1.91,0,0,0,.571-.427,1.282,1.282,0,0,0,.31-.64H3.612v8.289H2.091v-5.85H0Z" transform="translate(0 -145.171)" fill="#1a1311"/>
      <path id="パス_234" data-name="パス 234" d="M17.147,328.55a2.117,2.117,0,0,1-.936-.19,1.731,1.731,0,0,1-.633-.509,2.078,2.078,0,0,1-.352-.746,3.646,3.646,0,0,1-.109-.912,3.493,3.493,0,0,1,.115-.906,2.077,2.077,0,0,1,.365-.752,1.784,1.784,0,0,1,.632-.509,2.312,2.312,0,0,1,1.836,0,1.789,1.789,0,0,1,.632.509,2.086,2.086,0,0,1,.365.752,3.517,3.517,0,0,1,.115.906,3.646,3.646,0,0,1-.109.912,2.06,2.06,0,0,1-.353.746,1.732,1.732,0,0,1-.632.509,2.121,2.121,0,0,1-.936.19m-.936-2.356a3.765,3.765,0,0,0,.048.621,1.706,1.706,0,0,0,.158.5.917.917,0,0,0,.286.338.73.73,0,0,0,.432.124.76.76,0,0,0,.438-.124.889.889,0,0,0,.291-.338,1.811,1.811,0,0,0,.164-.5,3.361,3.361,0,0,0,.055-.621,4,4,0,0,0-.043-.58,1.755,1.755,0,0,0-.153-.509.972.972,0,0,0-.291-.362.853.853,0,0,0-.924,0,.924.924,0,0,0-.286.362,1.751,1.751,0,0,0-.139.509,4.548,4.548,0,0,0-.036.58m5.8-2.475h.924l-4.705,8.857H17.28Zm1.24,8.739a2.119,2.119,0,0,1-.936-.189,1.73,1.73,0,0,1-.632-.509,2.068,2.068,0,0,1-.353-.746,3.68,3.68,0,0,1-.109-.912,3.491,3.491,0,0,1,.115-.906,2.081,2.081,0,0,1,.365-.752,1.8,1.8,0,0,1,.632-.509,2.319,2.319,0,0,1,1.836,0,1.8,1.8,0,0,1,.632.509,2.081,2.081,0,0,1,.365.752,3.491,3.491,0,0,1,.116.906,3.653,3.653,0,0,1-.109.912,2.059,2.059,0,0,1-.353.746,1.726,1.726,0,0,1-.632.509,2.119,2.119,0,0,1-.936.189m-.936-2.356a3.781,3.781,0,0,0,.049.622,1.716,1.716,0,0,0,.158.5.913.913,0,0,0,.285.337.733.733,0,0,0,.432.124.756.756,0,0,0,.437-.124.888.888,0,0,0,.292-.337,1.842,1.842,0,0,0,.164-.5,3.329,3.329,0,0,0,.055-.622,3.918,3.918,0,0,0-.043-.58,1.741,1.741,0,0,0-.152-.509.966.966,0,0,0-.292-.361.853.853,0,0,0-.924,0,.915.915,0,0,0-.286.361,1.737,1.737,0,0,0-.14.509,4.544,4.544,0,0,0-.036.58" transform="translate(-6.544 -144.941)" fill="#1a1311"/>
      <path id="パス_235" data-name="パス 235" d="M47.536,323.932h3.83a3.72,3.72,0,0,1,1.508.261,2.382,2.382,0,0,1,.9.651,2.2,2.2,0,0,1,.432.853,3.53,3.53,0,0,1,.115.853,3.46,3.46,0,0,1-.115.847,2.2,2.2,0,0,1-.432.846,2.316,2.316,0,0,1-.9.645,3.8,3.8,0,0,1-1.508.255h-2.31v3.245h-1.52Zm1.52,4h2.225a2.026,2.026,0,0,0,.523-.071,1.511,1.511,0,0,0,.493-.231,1.2,1.2,0,0,0,.365-.426,1.439,1.439,0,0,0,.139-.67,1.686,1.686,0,0,0-.121-.686,1.1,1.1,0,0,0-.328-.432,1.177,1.177,0,0,0-.474-.219,2.629,2.629,0,0,0-.572-.059h-2.25Z" transform="translate(-20.58 -145.037)" fill="#1a1311"/>
      <path id="パス_236" data-name="パス 236" d="M66.9,323.568a4.135,4.135,0,0,1,1.745.355,3.9,3.9,0,0,1,1.307.96,4.23,4.23,0,0,1,.821,1.409,5.264,5.264,0,0,1,0,3.422,4.233,4.233,0,0,1-.821,1.409,3.824,3.824,0,0,1-1.307.953,4.536,4.536,0,0,1-3.49,0,3.817,3.817,0,0,1-1.306-.953,4.224,4.224,0,0,1-.821-1.409,5.264,5.264,0,0,1,0-3.422,4.221,4.221,0,0,1,.821-1.409,3.891,3.891,0,0,1,1.306-.96,4.135,4.135,0,0,1,1.745-.355m0,1.208a2.484,2.484,0,0,0-1.2.273,2.331,2.331,0,0,0-.821.728,3.233,3.233,0,0,0-.468,1.037,4.672,4.672,0,0,0,0,2.368,3.229,3.229,0,0,0,.468,1.036,2.334,2.334,0,0,0,.821.728,2.77,2.77,0,0,0,2.4,0,2.34,2.34,0,0,0,.821-.728,3.254,3.254,0,0,0,.468-1.036,4.689,4.689,0,0,0,0-2.368,3.258,3.258,0,0,0-.468-1.037,2.338,2.338,0,0,0-.821-.728,2.484,2.484,0,0,0-1.2-.273" transform="translate(-27.162 -144.874)" fill="#1a1311"/>
      <path id="パス_237" data-name="パス 237" d="M80.062,323.933h1.544l1.568,6.466H83.2l1.751-6.466h1.556l1.7,6.466h.024l1.617-6.466h1.544L89,332.388H87.455l-1.739-6.465h-.024l-1.775,6.465H82.348Z" transform="translate(-34.662 -145.037)" fill="#1a1311"/>
      <path id="パス_238" data-name="パス 238" d="M104.376,323.933h6.25v1.279H105.9v2.214h4.377v1.208H105.9v2.475h4.815v1.279h-6.335Z" transform="translate(-45.189 -145.037)" fill="#1a1311"/>
      <path id="パス_239" data-name="パス 239" d="M120.458,323.933H124.6a3.279,3.279,0,0,1,2.153.6,2.079,2.079,0,0,1,.717,1.682,2.4,2.4,0,0,1-.183,1,2.18,2.18,0,0,1-.425.639,1.652,1.652,0,0,1-.48.349,3.684,3.684,0,0,1-.346.142v.024a1.6,1.6,0,0,1,.419.119,1.227,1.227,0,0,1,.42.3,1.636,1.636,0,0,1,.322.538,2.329,2.329,0,0,1,.128.829,7.3,7.3,0,0,0,.116,1.356,1.764,1.764,0,0,0,.358.87h-1.629a1.343,1.343,0,0,1-.2-.6q-.031-.331-.031-.639a5.932,5.932,0,0,0-.073-1,1.719,1.719,0,0,0-.267-.7,1.132,1.132,0,0,0-.529-.409,2.408,2.408,0,0,0-.857-.13h-2.237v3.481h-1.52Zm1.52,3.849h2.493a1.612,1.612,0,0,0,1.106-.337,1.29,1.29,0,0,0,.377-1.013,1.531,1.531,0,0,0-.121-.657.962.962,0,0,0-.335-.4,1.255,1.255,0,0,0-.486-.189,3.323,3.323,0,0,0-.565-.047h-2.468Z" transform="translate(-52.151 -145.037)" fill="#1a1311"/>
      <path id="パス_240" data-name="パス 240" d="M137.7,323.933h6.25v1.279h-4.73v2.214h4.377v1.208h-4.377v2.475h4.815v1.279H137.7Z" transform="translate(-59.615 -145.037)" fill="#1a1311"/>
      <path id="パス_241" data-name="パス 241" d="M153.777,323.933h3.6a4.147,4.147,0,0,1,1.727.332,3.2,3.2,0,0,1,1.191.906,3.827,3.827,0,0,1,.687,1.344,6.13,6.13,0,0,1,0,3.292,3.83,3.83,0,0,1-.687,1.344,3.206,3.206,0,0,1-1.191.906,4.148,4.148,0,0,1-1.727.331h-3.6Zm1.52,7.247h1.5a3.9,3.9,0,0,0,1.453-.231,2.132,2.132,0,0,0,.887-.64,2.29,2.29,0,0,0,.437-.959,6.208,6.208,0,0,0,0-2.38,2.294,2.294,0,0,0-.437-.959,2.135,2.135,0,0,0-.887-.64,3.886,3.886,0,0,0-1.453-.23h-1.5Z" transform="translate(-66.577 -145.037)" fill="#1a1311"/>
      <path id="パス_242" data-name="パス 242" d="M180.086,323.933h1.386v3.126h.024a1.894,1.894,0,0,1,.353-.4,2.189,2.189,0,0,1,.456-.3,2.379,2.379,0,0,1,.523-.19,2.349,2.349,0,0,1,.541-.065,3.067,3.067,0,0,1,1.3.255,2.543,2.543,0,0,1,.918.7,3,3,0,0,1,.547,1.036,4.274,4.274,0,0,1,.183,1.267,4.348,4.348,0,0,1-.164,1.2,3.076,3.076,0,0,1-.5,1.024,2.472,2.472,0,0,1-.845.71,2.564,2.564,0,0,1-1.2.266,5.007,5.007,0,0,1-.638-.041,2.486,2.486,0,0,1-.614-.16,2.1,2.1,0,0,1-.528-.308,1.5,1.5,0,0,1-.4-.5H181.4v.841h-1.313Zm4.839,5.4a2.981,2.981,0,0,0-.109-.8,2.174,2.174,0,0,0-.328-.693,1.683,1.683,0,0,0-.547-.485,1.515,1.515,0,0,0-.754-.183,1.544,1.544,0,0,0-1.32.592,2.562,2.562,0,0,0-.443,1.574,3.056,3.056,0,0,0,.115.859,1.91,1.91,0,0,0,.347.681,1.729,1.729,0,0,0,.553.45,1.612,1.612,0,0,0,.748.166,1.577,1.577,0,0,0,.8-.189,1.672,1.672,0,0,0,.542-.491,1.966,1.966,0,0,0,.3-.686,3.413,3.413,0,0,0,.091-.788" transform="translate(-77.967 -145.037)" fill="#1a1311"/>
      <path id="パス_243" data-name="パス 243" d="M194.473,328.157h1.519l1.642,4.571h.024l1.593-4.571H200.7l-2.444,6.453q-.171.415-.335.794a2.822,2.822,0,0,1-.4.669,1.726,1.726,0,0,1-.59.462,2.058,2.058,0,0,1-.9.172,6.463,6.463,0,0,1-.961-.071V335.5c.114.017.223.034.329.054a1.809,1.809,0,0,0,.329.029,1.15,1.15,0,0,0,.4-.059.666.666,0,0,0,.262-.171,1.093,1.093,0,0,0,.176-.267,2.6,2.6,0,0,0,.134-.355l.158-.474Z" transform="translate(-84.196 -146.929)" fill="#1a1311"/>
      <path id="パス_244" data-name="パス 244" d="M218.273,323.933h1.52v7.176h4.413v1.279h-5.933Z" transform="translate(-94.5 -145.037)" fill="#1a1311"/>
      <rect id="長方形_31" data-name="長方形 31" width="1.52" height="8.455" transform="translate(132.21 178.896)" fill="#1a1311"/>
      <path id="パス_245" data-name="パス 245" d="M242.115,323.933h5.994v1.279h-4.474v2.214h3.927v1.208h-3.927v3.754h-1.52Z" transform="translate(-104.822 -145.037)" fill="#1a1311"/>
      <path id="パス_246" data-name="パス 246" d="M256.545,323.933h6.25v1.279h-4.729v2.214h4.377v1.208h-4.377v2.475h4.814v1.279h-6.335Z" transform="translate(-111.07 -145.037)" fill="#1a1311"/>
      <rect id="長方形_32" data-name="長方形 32" width="1.52" height="8.455" transform="translate(159.434 178.896)" fill="#1a1311"/>
      <path id="パス_247" data-name="パス 247" d="M290.292,329.407a1.845,1.845,0,0,0,.17.829,1.5,1.5,0,0,0,.475.562,2.029,2.029,0,0,0,.7.32,3.452,3.452,0,0,0,.857.1,2.794,2.794,0,0,0,.851-.113,1.721,1.721,0,0,0,.572-.29,1.041,1.041,0,0,0,.316-.409,1.184,1.184,0,0,0,.1-.468,1,1,0,0,0-.225-.716,1.3,1.3,0,0,0-.492-.325,10.583,10.583,0,0,0-1.076-.314q-.614-.147-1.513-.385a3.281,3.281,0,0,1-.931-.373,2.184,2.184,0,0,1-.59-.515,1.792,1.792,0,0,1-.31-.6,2.367,2.367,0,0,1-.091-.651,2.151,2.151,0,0,1,.273-1.107,2.4,2.4,0,0,1,.724-.775,3.217,3.217,0,0,1,1.021-.456,4.576,4.576,0,0,1,1.155-.148,4.661,4.661,0,0,1,1.283.172,3.2,3.2,0,0,1,1.058.515,2.549,2.549,0,0,1,.724.846,2.46,2.46,0,0,1,.267,1.167h-1.52a1.414,1.414,0,0,0-.572-1.155,2.313,2.313,0,0,0-1.3-.337,2.9,2.9,0,0,0-.548.054,1.769,1.769,0,0,0-.51.177,1.112,1.112,0,0,0-.383.337,1.009,1.009,0,0,0,.134,1.238,1.859,1.859,0,0,0,.747.385l.383.1q.335.089.748.194l.808.208q.4.1.565.148a2.549,2.549,0,0,1,.742.355,2.324,2.324,0,0,1,.529.515,2.1,2.1,0,0,1,.316.621,2.213,2.213,0,0,1,.1.663,2.339,2.339,0,0,1-.3,1.214,2.492,2.492,0,0,1-.784.823,3.47,3.47,0,0,1-1.106.468,5.453,5.453,0,0,1-1.265.147,5.338,5.338,0,0,1-1.4-.177,3.307,3.307,0,0,1-1.143-.545,2.668,2.668,0,0,1-.778-.941,3.067,3.067,0,0,1-.3-1.356Z" transform="translate(-125.022 -144.874)" fill="#1a1311"/>
      <rect id="長方形_33" data-name="長方形 33" width="1.52" height="8.455" transform="translate(178.449 178.896)" fill="#1a1311"/>
      <path id="パス_248" data-name="パス 248" d="M322.886,328.023H324.2v.9l.024.023a2.288,2.288,0,0,1,.826-.8,2.246,2.246,0,0,1,1.131-.29,2.393,2.393,0,0,1,1.629.521,1.967,1.967,0,0,1,.6,1.563v4.2H327.02V330.3a1.636,1.636,0,0,0-.317-1.048,1.164,1.164,0,0,0-.912-.325,1.539,1.539,0,0,0-.632.124,1.381,1.381,0,0,0-.475.343,1.6,1.6,0,0,0-.3.515,1.791,1.791,0,0,0-.109.628v3.611h-1.386Z" transform="translate(-139.791 -146.794)" fill="#1a1311"/>
      <path id="パス_249" data-name="パス 249" d="M341.777,330.071a1.26,1.26,0,0,0-.468-.858,1.556,1.556,0,0,0-.967-.29,2.044,2.044,0,0,0-.571.089,1.361,1.361,0,0,0-.559.331,1.85,1.85,0,0,0-.426.675,3.141,3.141,0,0,0-.17,1.131,3.225,3.225,0,0,0,.091.757,2.05,2.05,0,0,0,.291.675,1.565,1.565,0,0,0,.517.479,1.5,1.5,0,0,0,.766.184,1.418,1.418,0,0,0,1-.367,1.7,1.7,0,0,0,.492-1.031h1.386a2.936,2.936,0,0,1-.93,1.83,2.886,2.886,0,0,1-1.952.633,3.284,3.284,0,0,1-1.307-.243,2.763,2.763,0,0,1-.954-.662,2.807,2.807,0,0,1-.59-1,3.812,3.812,0,0,1-.2-1.255,4.186,4.186,0,0,1,.194-1.291,2.95,2.95,0,0,1,.584-1.048,2.726,2.726,0,0,1,.966-.7,3.332,3.332,0,0,1,1.356-.255,3.9,3.9,0,0,1,1.04.136,2.77,2.77,0,0,1,.875.409,2.2,2.2,0,0,1,.626.687,2.3,2.3,0,0,1,.292.982Z" transform="translate(-146.002 -146.794)" fill="#1a1311"/>
      <rect id="長方形_34" data-name="長方形 34" width="1.69" height="1.599" transform="translate(199.861 185.751)" fill="#1a1311"/>
      <path id="パス_250" data-name="パス 250" d="M307.806,10.226a7.169,7.169,0,0,1,2.164-5.153,7.619,7.619,0,0,1,2.458-1.588,8.649,8.649,0,0,1,6.253,0,7.491,7.491,0,0,1,2.447,1.588,7.352,7.352,0,0,1,1.6,2.339,7.01,7.01,0,0,1,.577,2.813,7.2,7.2,0,0,1-2.129,5.163,7.4,7.4,0,0,1-2.447,1.6,8.955,8.955,0,0,1-6.366,0,7.232,7.232,0,0,1-4.554-6.763M334.473,2h4.418L315.305,36.33h-4.4ZM315.555,6.519a4.214,4.214,0,0,0-1.529.276,3.828,3.828,0,0,0-1.246.773,3.665,3.665,0,0,0-.839,4.126,3.826,3.826,0,0,0,.839,1.213,3.954,3.954,0,0,0,2.776,1.114,3.787,3.787,0,0,0,1.5-.3,3.948,3.948,0,0,0,1.223-.805,3.8,3.8,0,0,0,.827-1.2,3.661,3.661,0,0,0,.306-1.489,3.585,3.585,0,0,0-.306-1.478,3.67,3.67,0,0,0-2.05-1.953,4.066,4.066,0,0,0-1.5-.276m11.872,22.33a7.048,7.048,0,0,1,.566-2.8,7.124,7.124,0,0,1,1.6-2.328,7.788,7.788,0,0,1,2.458-1.6,8.507,8.507,0,0,1,6.253,0,7.787,7.787,0,0,1,2.458,1.6,7.131,7.131,0,0,1,1.6,2.328,7.037,7.037,0,0,1,.567,2.8,7.311,7.311,0,0,1-.555,2.836,7.13,7.13,0,0,1-1.563,2.338,7.494,7.494,0,0,1-2.435,1.6,8.862,8.862,0,0,1-6.39,0,7.5,7.5,0,0,1-2.435-1.6,7.122,7.122,0,0,1-1.564-2.338,7.32,7.32,0,0,1-.555-2.836m7.749-3.707a4.054,4.054,0,0,0-2.753,1.071,3.631,3.631,0,0,0-.838,1.169,3.5,3.5,0,0,0-.306,1.467,3.6,3.6,0,0,0,.306,1.467,3.833,3.833,0,0,0,.838,1.214,3.939,3.939,0,0,0,1.246.816,3.867,3.867,0,0,0,1.507.3,3.789,3.789,0,0,0,1.5-.3,3.934,3.934,0,0,0,1.223-.806,3.788,3.788,0,0,0,.827-1.2,3.649,3.649,0,0,0,.306-1.489,3.5,3.5,0,0,0-.306-1.467,3.716,3.716,0,0,0-.827-1.169,3.877,3.877,0,0,0-1.223-.784,3.922,3.922,0,0,0-1.5-.287" transform="translate(-133.263 -0.893)" fill="#1a1311"/>
      <path id="パス_251" data-name="パス 251" d="M307.806,10.226a7.169,7.169,0,0,1,2.164-5.153,7.619,7.619,0,0,1,2.458-1.588,8.649,8.649,0,0,1,6.253,0,7.491,7.491,0,0,1,2.447,1.588,7.352,7.352,0,0,1,1.6,2.339,7.01,7.01,0,0,1,.577,2.813,7.2,7.2,0,0,1-2.129,5.163,7.4,7.4,0,0,1-2.447,1.6,8.955,8.955,0,0,1-6.366,0,7.232,7.232,0,0,1-4.554-6.763ZM334.473,2h4.418L315.305,36.33h-4.4ZM315.555,6.519a4.214,4.214,0,0,0-1.529.276,3.828,3.828,0,0,0-1.246.773,3.665,3.665,0,0,0-.839,4.126,3.826,3.826,0,0,0,.839,1.213,3.954,3.954,0,0,0,2.776,1.114,3.787,3.787,0,0,0,1.5-.3,3.948,3.948,0,0,0,1.223-.805,3.8,3.8,0,0,0,.827-1.2,3.661,3.661,0,0,0,.306-1.489,3.585,3.585,0,0,0-.306-1.478,3.67,3.67,0,0,0-2.05-1.953A4.066,4.066,0,0,0,315.555,6.519Zm11.872,22.33a7.048,7.048,0,0,1,.566-2.8,7.124,7.124,0,0,1,1.6-2.328,7.788,7.788,0,0,1,2.458-1.6,8.507,8.507,0,0,1,6.253,0,7.787,7.787,0,0,1,2.458,1.6,7.131,7.131,0,0,1,1.6,2.328,7.037,7.037,0,0,1,.567,2.8,7.311,7.311,0,0,1-.555,2.836,7.13,7.13,0,0,1-1.563,2.338,7.494,7.494,0,0,1-2.435,1.6,8.862,8.862,0,0,1-6.39,0,7.5,7.5,0,0,1-2.435-1.6,7.122,7.122,0,0,1-1.564-2.338A7.32,7.32,0,0,1,327.427,28.849Zm7.749-3.707a4.054,4.054,0,0,0-2.753,1.071,3.631,3.631,0,0,0-.838,1.169,3.5,3.5,0,0,0-.306,1.467,3.6,3.6,0,0,0,.306,1.467,3.833,3.833,0,0,0,.838,1.214,3.939,3.939,0,0,0,1.246.816,3.867,3.867,0,0,0,1.507.3,3.789,3.789,0,0,0,1.5-.3,3.934,3.934,0,0,0,1.223-.806,3.788,3.788,0,0,0,.827-1.2,3.649,3.649,0,0,0,.306-1.489,3.5,3.5,0,0,0-.306-1.467,3.716,3.716,0,0,0-.827-1.169,3.877,3.877,0,0,0-1.223-.784A3.922,3.922,0,0,0,335.176,25.142Z" transform="translate(-133.263 -0.893)" fill="none" stroke="#1a1311" stroke-miterlimit="10" stroke-width="1.155"/>
    </g>
  </g>
</svg>
