<svg id="グループ_33" data-name="グループ 33" xmlns="http://www.w3.org/2000/svg" xmlns:xlink="http://www.w3.org/1999/xlink" width="97.947" height="121.565" viewBox="0 0 97.947 121.565">
  <defs>
    <clipPath id="clip-path">
      <rect id="長方形_7" data-name="長方形 7" width="97.947" height="121.565" fill="none"/>
    </clipPath>
  </defs>
  <g id="グループ_10" data-name="グループ 10" clip-path="url(#clip-path)">
    <path id="パス_7" data-name="パス 7" d="M20.424,60.842c6.335-5.377,8.054-13.783,6.183-15.9S22.5,44.5,15.968,43.6C9.295,42.669-.341,36.232.733,21.117,1.844,5.476,14.343-1.391,26.275.945s18.71,13.437,19,27.531S39.1,55.3,31.161,62.165c-6.816,5.893-14.674,8.983-20.308,9.658-7.66.918-6.6-2.98-3.585-3.891a35.83,35.83,0,0,0,13.157-7.089" transform="translate(-0.395 -0.304)" fill="#1a1311"/>
    <path id="パス_8" data-name="パス 8" d="M20.424,60.842c6.335-5.377,8.054-13.783,6.183-15.9S22.5,44.5,15.968,43.6C9.295,42.669-.341,36.232.733,21.117,1.844,5.476,14.343-1.391,26.275.945s18.71,13.437,19,27.531S39.1,55.3,31.161,62.165c-6.816,5.893-14.674,8.983-20.308,9.658-7.66.918-6.6-2.98-3.585-3.891A35.83,35.83,0,0,0,20.424,60.842Z" transform="translate(-0.395 -0.304)" fill="none" stroke="#1a1311" stroke-miterlimit="10" stroke-width="1"/>
    <path id="パス_9" data-name="パス 9" d="M155.112,60.842c6.335-5.377,8.054-13.783,6.183-15.9s-4.1-.435-10.639-1.343c-6.674-.927-16.309-7.364-15.235-22.479C136.532,5.476,149.031-1.391,160.963.945s18.71,13.437,19,27.531S173.783,55.3,165.849,62.165c-6.816,5.893-14.674,8.983-20.308,9.658-7.66.918-6.6-2.98-3.585-3.891a35.83,35.83,0,0,0,13.157-7.089" transform="translate(-82.221 -0.304)" fill="#1a1311"/>
    <path id="パス_10" data-name="パス 10" d="M155.112,60.842c6.335-5.377,8.054-13.783,6.183-15.9s-4.1-.435-10.639-1.343c-6.674-.927-16.309-7.364-15.235-22.479C136.532,5.476,149.031-1.391,160.963.945s18.71,13.437,19,27.531S173.783,55.3,165.849,62.165c-6.816,5.893-14.674,8.983-20.308,9.658-7.66.918-6.6-2.98-3.585-3.891A35.83,35.83,0,0,0,155.112,60.842Z" transform="translate(-82.221 -0.304)" fill="none" stroke="#1a1311" stroke-miterlimit="10" stroke-width="1"/>
    <path id="パス_11" data-name="パス 11" d="M.861,263.183H3.985v15.148h9.073v2.7H.861Z" transform="translate(-0.523 -159.89)" fill="#1a1311"/>
    <rect id="長方形_4" data-name="長方形 4" width="3.125" height="17.847" transform="translate(17.683 103.293)" fill="#1a1311"/>
    <path id="パス_12" data-name="パス 12" d="M71.678,263.183H84v2.7H74.8v4.673h8.073v2.55H74.8v7.923H71.678Z" transform="translate(-43.546 -159.89)" fill="#1a1311"/>
    <path id="パス_13" data-name="パス 13" d="M114.538,263.183h12.848v2.7h-9.723v4.673h9v2.55h-9v5.224h9.9v2.7H114.538Z" transform="translate(-69.585 -159.89)" fill="#1a1311"/>
    <rect id="長方形_5" data-name="長方形 5" width="3.125" height="17.847" transform="translate(73.649 103.293)" fill="#1a1311"/>
    <path id="パス_14" data-name="パス 14" d="M225.016,275.447a4.786,4.786,0,0,1-.588,2.317,5.136,5.136,0,0,1-1.464,1.767,5.337,5.337,0,0,1-1.918.954,9.115,9.115,0,0,1-2.369.312,8.939,8.939,0,0,1-2.619-.375,5.921,5.921,0,0,1-2.142-1.15,5.064,5.064,0,0,1-1.41-1.886,7.653,7.653,0,0,1-.617-2.962h2.728a5.92,5.92,0,0,0,.438,1.75,3.108,3.108,0,0,0,.889,1.187,3.606,3.606,0,0,0,1.309.674,5.773,5.773,0,0,0,1.605.213,4.277,4.277,0,0,0,1.526-.247,3.1,3.1,0,0,0,1.071-.613,2.4,2.4,0,0,0,.61-.812,3.055,3.055,0,0,0,.232-1.136,2.115,2.115,0,0,0-.585-1.454c-1.244-1.415-3.845-1.343-5.743-2.113A5.516,5.516,0,0,1,213.256,270a3.809,3.809,0,0,1-.581-1.274,5.591,5.591,0,0,1-.17-1.375,5.012,5.012,0,0,1,.511-2.338,4.894,4.894,0,0,1,1.356-1.637,5.694,5.694,0,0,1,1.913-.962,7.663,7.663,0,0,1,2.163-.313,7.8,7.8,0,0,1,2.4.363,5.747,5.747,0,0,1,1.982,1.087,5.254,5.254,0,0,1,1.356,1.787,5.733,5.733,0,0,1,.5,2.462h-2.847a3.121,3.121,0,0,0-1.071-2.437,3.971,3.971,0,0,0-2.436-.712,4.884,4.884,0,0,0-1.026.113,2.533,2.533,0,0,0-.86.358,2.377,2.377,0,0,0-.826.893,2.553,2.553,0,0,0-.267,1.11,2.022,2.022,0,0,0,.676,1.515c1.8,1.544,4.637,1.385,7.108,2.961a4.326,4.326,0,0,1,1.874,3.847" transform="translate(-128.728 -159.233)" fill="#1a1311"/>
    <path id="パス_15" data-name="パス 15" d="M0,221.192a4.412,4.412,0,0,0,.768-.066,2.393,2.393,0,0,0,.675-.22,1.731,1.731,0,0,0,.516-.395,1.214,1.214,0,0,0,.28-.593H3.26V227.6H1.888V222.18H0Z" transform="translate(0 -133.606)" fill="#1a1311"/>
    <path id="パス_16" data-name="パス 16" d="M59.333,219.527h1.46l3.018,7.837H62.34L61.6,225.29H58.476l-.736,2.075H56.325Zm-.483,4.72h2.393l-1.175-3.37h-.033Z" transform="translate(-34.219 -133.368)" fill="#1a1311"/>
    <path id="パス_17" data-name="パス 17" d="M85.165,224.137h-2.02v3.227H81.774v-7.837h3.743a2.9,2.9,0,0,1,1.943.56,1.95,1.95,0,0,1,.648,1.559,3.076,3.076,0,0,1-.158,1.065,2.477,2.477,0,0,1-.48.736,2.3,2.3,0,0,1-.641.409,3.415,3.415,0,0,1-1.663.282m-2.02-1.042H85.4a1.426,1.426,0,0,0,1-.313,1.212,1.212,0,0,0,.34-.938,1.451,1.451,0,0,0-.11-.61.884.884,0,0,0-.3-.367,1.1,1.1,0,0,0-.439-.176,2.935,2.935,0,0,0-.511-.044H83.146Z" transform="translate(-49.68 -133.368)" fill="#1a1311"/>
    <path id="パス_18" data-name="パス 18" d="M105.826,221.111a2.773,2.773,0,0,0-.453.947,4.455,4.455,0,0,0,0,2.2,2.307,2.307,0,0,0,1.163,1.536,2.2,2.2,0,0,0,1.081.253,1.955,1.955,0,0,0,.812-.159,1.826,1.826,0,0,0,.6-.439,2.368,2.368,0,0,0,.443-.689,2.15,2.15,0,0,0,.139-.666h1.34a3.717,3.717,0,0,1-.3,1.284,3.145,3.145,0,0,1-.7,1,3.073,3.073,0,0,1-1.032.653,3.572,3.572,0,0,1-1.306.231,3.7,3.7,0,0,1-1.575-.324,3.46,3.46,0,0,1-1.18-.884,3.95,3.95,0,0,1-.741-1.306,5,5,0,0,1,0-3.172,3.956,3.956,0,0,1,.741-1.306,3.519,3.519,0,0,1,1.18-.889,3.638,3.638,0,0,1,1.575-.33,4.158,4.158,0,0,1,1.24.181,3.205,3.205,0,0,1,1.026.527,2.743,2.743,0,0,1,.719.839,2.926,2.926,0,0,1,.34,1.131h-1.372a2.069,2.069,0,0,0-.209-.563,1.953,1.953,0,0,0-1.835-.9,2.143,2.143,0,0,0-1.7.841" transform="translate(-63.1 -133.079)" fill="#1a1311"/>
    <path id="パス_19" data-name="パス 19" d="M208.88,221.111a2.773,2.773,0,0,0-.453.947,4.455,4.455,0,0,0,0,2.2,2.307,2.307,0,0,0,1.163,1.536,2.2,2.2,0,0,0,1.081.253,1.955,1.955,0,0,0,.812-.159,1.826,1.826,0,0,0,.6-.439,2.369,2.369,0,0,0,.443-.689,2.15,2.15,0,0,0,.139-.666h1.34a3.717,3.717,0,0,1-.3,1.284,3.146,3.146,0,0,1-.7,1,3.073,3.073,0,0,1-1.032.653,3.572,3.572,0,0,1-1.306.231,3.7,3.7,0,0,1-1.575-.324,3.46,3.46,0,0,1-1.18-.884,3.949,3.949,0,0,1-.741-1.306,5,5,0,0,1,0-3.172,3.955,3.955,0,0,1,.741-1.306,3.519,3.519,0,0,1,1.18-.889,3.636,3.636,0,0,1,1.575-.33,4.158,4.158,0,0,1,1.24.181,3.205,3.205,0,0,1,1.026.527,2.743,2.743,0,0,1,.719.839,2.926,2.926,0,0,1,.34,1.131h-1.372a2.069,2.069,0,0,0-.209-.563,1.953,1.953,0,0,0-1.835-.9,2.143,2.143,0,0,0-1.7.841" transform="translate(-125.708 -133.079)" fill="#1a1311"/>
    <path id="パス_20" data-name="パス 20" d="M128.951,219.527h1.372v3.117h3.567v-3.117h1.372v7.837H133.89V223.83h-3.567v3.534h-1.372Z" transform="translate(-78.341 -133.368)" fill="#1a1311"/>
    <rect id="長方形_6" data-name="長方形 6" width="1.372" height="7.837" transform="translate(60.324 86.159)" fill="#1a1311"/>
    <path id="パス_21" data-name="パス 21" d="M164.046,219.527h6.344v1.186H167.9v6.651h-1.372v-6.651h-2.481Z" transform="translate(-99.662 -133.368)" fill="#1a1311"/>
    <path id="パス_22" data-name="パス 22" d="M186.448,219.527h5.642v1.186h-4.27v2.053h3.952v1.119h-3.952v2.294h4.347v1.185h-5.718Z" transform="translate(-113.271 -133.368)" fill="#1a1311"/>
    <path id="パス_23" data-name="パス 23" d="M229.177,219.527h6.344v1.186h-2.492v6.651h-1.372v-6.651h-2.481Z" transform="translate(-139.23 -133.368)" fill="#1a1311"/>
    <path id="パス_24" data-name="パス 24" d="M92.074,233.547h1.471l-1.46-3.791-1.36-.052Z" transform="translate(-55.118 -139.551)" fill="#1a1311"/>
    <path id="パス_25" data-name="パス 25" d="M19.184,221.316a1.657,1.657,0,0,1,.126-.639,1.615,1.615,0,0,1,.354-.532,1.676,1.676,0,0,1,.544-.361,1.865,1.865,0,0,1,1.384,0,1.649,1.649,0,0,1,.542.361,1.678,1.678,0,0,1,.354.532,1.63,1.63,0,0,1,.128.639,1.679,1.679,0,0,1-.123.642,1.623,1.623,0,0,1-.89.9,1.937,1.937,0,0,1-1.409,0,1.607,1.607,0,0,1-.539-.364,1.658,1.658,0,0,1-.346-.531,1.686,1.686,0,0,1-.123-.642m5.9-1.871h.978l-5.22,7.8h-.973ZM20.9,220.473a.911.911,0,0,0-.338.063.836.836,0,0,0-.276.175.826.826,0,0,0-.186.268.864.864,0,0,0,0,.67.866.866,0,0,0,.462.462.848.848,0,0,0,.338.068.819.819,0,0,0,.331-.068.857.857,0,0,0,.454-.456.856.856,0,0,0,.068-.338.841.841,0,0,0-.068-.336.851.851,0,0,0-.183-.268.818.818,0,0,0-.271-.175.88.88,0,0,0-.331-.063m2.627,5.075a1.64,1.64,0,0,1,.479-1.166,1.715,1.715,0,0,1,.544-.363,1.766,1.766,0,0,1,1.928.363,1.637,1.637,0,0,1,.479,1.166,1.7,1.7,0,0,1-.123.644,1.619,1.619,0,0,1-.346.531,1.654,1.654,0,0,1-.539.364,1.913,1.913,0,0,1-1.414,0,1.654,1.654,0,0,1-.539-.364,1.62,1.62,0,0,1-.346-.531,1.7,1.7,0,0,1-.123-.644m1.715-.843a.882.882,0,0,0-.609.243.825.825,0,0,0-.186.266.815.815,0,0,0-.068.334.836.836,0,0,0,.068.333.867.867,0,0,0,.461.462.839.839,0,0,0,.334.068.82.82,0,0,0,.331-.068.855.855,0,0,0,.454-.456.844.844,0,0,0,.068-.338.809.809,0,0,0-.068-.334.842.842,0,0,0-.183-.266.859.859,0,0,0-.6-.243" transform="translate(-11.655 -133.318)" fill="#1a1311"/>
    <path id="パス_26" data-name="パス 26" d="M19.184,221.316a1.657,1.657,0,0,1,.126-.639,1.615,1.615,0,0,1,.354-.532,1.676,1.676,0,0,1,.544-.361,1.865,1.865,0,0,1,1.384,0,1.649,1.649,0,0,1,.542.361,1.678,1.678,0,0,1,.354.532,1.63,1.63,0,0,1,.128.639,1.679,1.679,0,0,1-.123.642,1.623,1.623,0,0,1-.89.9,1.937,1.937,0,0,1-1.409,0,1.607,1.607,0,0,1-.539-.364,1.658,1.658,0,0,1-.346-.531A1.686,1.686,0,0,1,19.184,221.316Zm5.9-1.871h.978l-5.22,7.8h-.973ZM20.9,220.473a.911.911,0,0,0-.338.063.836.836,0,0,0-.276.175.826.826,0,0,0-.186.268.864.864,0,0,0,0,.67.866.866,0,0,0,.462.462.848.848,0,0,0,.338.068.819.819,0,0,0,.331-.068.857.857,0,0,0,.454-.456.856.856,0,0,0,.068-.338.841.841,0,0,0-.068-.336.851.851,0,0,0-.183-.268.818.818,0,0,0-.271-.175A.88.88,0,0,0,20.9,220.473Zm2.627,5.075a1.64,1.64,0,0,1,.479-1.166,1.715,1.715,0,0,1,.544-.363,1.766,1.766,0,0,1,1.928.363,1.637,1.637,0,0,1,.479,1.166,1.7,1.7,0,0,1-.123.644,1.619,1.619,0,0,1-.346.531,1.654,1.654,0,0,1-.539.364,1.913,1.913,0,0,1-1.414,0,1.654,1.654,0,0,1-.539-.364,1.62,1.62,0,0,1-.346-.531A1.7,1.7,0,0,1,23.526,225.548Zm1.715-.843a.882.882,0,0,0-.609.243.825.825,0,0,0-.186.266.815.815,0,0,0-.068.334.836.836,0,0,0,.068.333.867.867,0,0,0,.461.462.839.839,0,0,0,.334.068.82.82,0,0,0,.331-.068.855.855,0,0,0,.454-.456.844.844,0,0,0,.068-.338.809.809,0,0,0-.068-.334.842.842,0,0,0-.183-.266.859.859,0,0,0-.6-.243Z" transform="translate(-11.655 -133.318)" fill="none" stroke="#1a1311" stroke-miterlimit="10" stroke-width="0.302"/>
  </g>
</svg>
