<svg id="グループ_2" data-name="グループ 2" xmlns="http://www.w3.org/2000/svg" xmlns:xlink="http://www.w3.org/1999/xlink" width="35.102" height="35.235" viewBox="0 0 35.102 35.235">
  <defs>
    <clipPath id="clip-path">
      <rect id="長方形_1" data-name="長方形 1" width="35.102" height="35.235" fill="none"/>
    </clipPath>
  </defs>
  <g id="グループ_1" data-name="グループ 1" transform="translate(0 0)" clip-path="url(#clip-path)">
    <path id="パス_1" data-name="パス 1" d="M.562,8.854A7.353,7.353,0,0,1,1.118,6.02,7.172,7.172,0,0,1,2.685,3.663,7.485,7.485,0,0,1,5.1,2.063a7.838,7.838,0,0,1,3.069-.589,7.832,7.832,0,0,1,3.068.589,7.36,7.36,0,0,1,2.4,1.6A7.431,7.431,0,0,1,15.2,6.02a7.237,7.237,0,0,1,.567,2.834,7.466,7.466,0,0,1-.545,2.846,7.2,7.2,0,0,1-3.946,3.968,7.952,7.952,0,0,1-3.112.589,8.011,8.011,0,0,1-3.135-.589,7.123,7.123,0,0,1-2.39-1.612A7.353,7.353,0,0,1,1.107,11.7,7.445,7.445,0,0,1,.562,8.854M26.729.562h4.335L7.921,35.155H3.608ZM8.166,5.12a4.034,4.034,0,0,0-1.5.278,3.741,3.741,0,0,0-1.223.778,3.641,3.641,0,0,0-.823,1.189,3.819,3.819,0,0,0,0,2.968,3.838,3.838,0,0,0,2.045,2.045,3.771,3.771,0,0,0,1.5.3,3.634,3.634,0,0,0,1.467-.3,3.788,3.788,0,0,0,2.012-2.023,3.781,3.781,0,0,0,.3-1.5,3.722,3.722,0,0,0-1.112-2.679,3.637,3.637,0,0,0-1.2-.778A3.886,3.886,0,0,0,8.166,5.12m11.649,22.5a7.27,7.27,0,0,1,.556-2.823,7.191,7.191,0,0,1,1.567-2.346,7.614,7.614,0,0,1,2.412-1.612,8.147,8.147,0,0,1,6.136,0A7.611,7.611,0,0,1,32.9,22.449a7.268,7.268,0,0,1,2.124,5.169,7.532,7.532,0,0,1-.545,2.857,7.19,7.19,0,0,1-1.534,2.356,7.337,7.337,0,0,1-2.389,1.612,8.487,8.487,0,0,1-6.27,0,7.348,7.348,0,0,1-2.39-1.612,7.2,7.2,0,0,1-1.534-2.356,7.532,7.532,0,0,1-.545-2.857m7.6-3.735a3.837,3.837,0,0,0-1.478.289,3.89,3.89,0,0,0-1.223.789,3.668,3.668,0,0,0-.823,1.178,3.608,3.608,0,0,0-.3,1.478,3.713,3.713,0,0,0,.3,1.478,3.838,3.838,0,0,0,2.045,2.045,3.713,3.713,0,0,0,1.478.3,3.632,3.632,0,0,0,1.467-.3A3.791,3.791,0,0,0,30.9,29.119a3.77,3.77,0,0,0,.3-1.5,3.608,3.608,0,0,0-.3-1.478,3.748,3.748,0,0,0-.812-1.178,3.812,3.812,0,0,0-2.667-1.079" transform="translate(-0.241 -0.24)" fill="#1a1311"/>
    <path id="パス_2" data-name="パス 2" d="M.562,8.854A7.353,7.353,0,0,1,1.118,6.02,7.172,7.172,0,0,1,2.685,3.663,7.485,7.485,0,0,1,5.1,2.063a7.838,7.838,0,0,1,3.069-.589,7.832,7.832,0,0,1,3.068.589,7.36,7.36,0,0,1,2.4,1.6A7.431,7.431,0,0,1,15.2,6.02a7.237,7.237,0,0,1,.567,2.834,7.466,7.466,0,0,1-.545,2.846,7.2,7.2,0,0,1-3.946,3.968,7.952,7.952,0,0,1-3.112.589,8.011,8.011,0,0,1-3.135-.589,7.123,7.123,0,0,1-2.39-1.612A7.353,7.353,0,0,1,1.107,11.7,7.445,7.445,0,0,1,.562,8.854ZM26.729.562h4.335L7.921,35.155H3.608ZM8.166,5.12a4.034,4.034,0,0,0-1.5.278,3.741,3.741,0,0,0-1.223.778,3.641,3.641,0,0,0-.823,1.189,3.819,3.819,0,0,0,0,2.968,3.838,3.838,0,0,0,2.045,2.045,3.771,3.771,0,0,0,1.5.3,3.634,3.634,0,0,0,1.467-.3,3.788,3.788,0,0,0,2.012-2.023,3.781,3.781,0,0,0,.3-1.5,3.722,3.722,0,0,0-1.112-2.679,3.637,3.637,0,0,0-1.2-.778A3.886,3.886,0,0,0,8.166,5.12Zm11.649,22.5a7.27,7.27,0,0,1,.556-2.823,7.191,7.191,0,0,1,1.567-2.346,7.614,7.614,0,0,1,2.412-1.612,8.147,8.147,0,0,1,6.136,0A7.611,7.611,0,0,1,32.9,22.449a7.268,7.268,0,0,1,2.124,5.169,7.532,7.532,0,0,1-.545,2.857,7.19,7.19,0,0,1-1.534,2.356,7.337,7.337,0,0,1-2.389,1.612,8.487,8.487,0,0,1-6.27,0,7.348,7.348,0,0,1-2.39-1.612,7.2,7.2,0,0,1-1.534-2.356A7.532,7.532,0,0,1,19.814,27.618Zm7.6-3.735a3.837,3.837,0,0,0-1.478.289,3.89,3.89,0,0,0-1.223.789,3.668,3.668,0,0,0-.823,1.178,3.608,3.608,0,0,0-.3,1.478,3.713,3.713,0,0,0,.3,1.478,3.838,3.838,0,0,0,2.045,2.045,3.713,3.713,0,0,0,1.478.3,3.632,3.632,0,0,0,1.467-.3A3.791,3.791,0,0,0,30.9,29.119a3.77,3.77,0,0,0,.3-1.5,3.608,3.608,0,0,0-.3-1.478,3.748,3.748,0,0,0-.812-1.178,3.812,3.812,0,0,0-2.667-1.079Z" transform="translate(-0.241 -0.24)" fill="none" stroke="#1a1311" stroke-miterlimit="10" stroke-width="1.124"/>
  </g>
</svg>
