<svg id="グループ_6999" data-name="グループ 6999" xmlns="http://www.w3.org/2000/svg" xmlns:xlink="http://www.w3.org/1999/xlink" width="129.378" height="30.844" viewBox="0 0 129.378 30.844">
  <defs>
    <clipPath id="clip-path">
      <rect id="長方形_10175" data-name="長方形 10175" width="129.378" height="30.844" fill="none"/>
    </clipPath>
  </defs>
  <g id="グループ_6952" data-name="グループ 6952" clip-path="url(#clip-path)">
    <path id="パス_72112" data-name="パス 72112" d="M8.693,26.107c2.719-2.308,3.457-5.916,2.654-6.827S9.585,19.093,6.78,18.7c-2.865-.4-7-3.161-6.54-9.649C.717,2.341,6.082-.607,11.2.4s8.031,5.768,8.156,11.817A19.139,19.139,0,0,1,13.3,26.675a17.346,17.346,0,0,1-8.717,4.146C1.3,31.214,1.75,29.542,3.045,29.15a15.382,15.382,0,0,0,5.648-3.043" transform="translate(-0.12 -0.12)" fill="#1a1311"/>
    <path id="パス_72113" data-name="パス 72113" d="M8.693,26.107c2.719-2.308,3.457-5.916,2.654-6.827S9.585,19.093,6.78,18.7c-2.865-.4-7-3.161-6.54-9.649C.717,2.341,6.082-.607,11.2.4s8.031,5.768,8.156,11.817A19.139,19.139,0,0,1,13.3,26.675a17.346,17.346,0,0,1-8.717,4.146C1.3,31.214,1.75,29.542,3.045,29.15A15.382,15.382,0,0,0,8.693,26.107Z" transform="translate(-0.12 -0.12)" fill="none" stroke="#1a1311" stroke-miterlimit="10" stroke-width="0.409"/>
    <path id="パス_72114" data-name="パス 72114" d="M63.8,26.107c2.719-2.308,3.457-5.916,2.654-6.827s-1.761-.187-4.567-.576c-2.865-.4-7-3.161-6.54-9.649C55.822,2.341,61.187-.607,66.309.4s8.031,5.768,8.156,11.817a19.139,19.139,0,0,1-6.059,14.461,17.346,17.346,0,0,1-8.717,4.146c-3.288.394-2.833-1.279-1.539-1.671A15.382,15.382,0,0,0,63.8,26.107" transform="translate(-32.534 -0.12)" fill="#1a1311"/>
    <path id="パス_72115" data-name="パス 72115" d="M63.8,26.107c2.719-2.308,3.457-5.916,2.654-6.827s-1.761-.187-4.567-.576c-2.865-.4-7-3.161-6.54-9.649C55.822,2.341,61.187-.607,66.309.4s8.031,5.768,8.156,11.817a19.139,19.139,0,0,1-6.059,14.461,17.346,17.346,0,0,1-8.717,4.146c-3.288.394-2.833-1.279-1.539-1.671A15.382,15.382,0,0,0,63.8,26.107Z" transform="translate(-32.534 -0.12)" fill="none" stroke="#1a1311" stroke-miterlimit="10" stroke-width="0.409"/>
    <path id="パス_72116" data-name="パス 72116" d="M133.2,36.513h2.427V48.278h7.047v2.1H133.2Z" transform="translate(-78.352 -21.477)" fill="#1a1311"/>
    <rect id="長方形_10172" data-name="長方形 10172" width="2.427" height="13.862" transform="translate(68.323 15.035)" fill="#1a1311"/>
    <path id="パス_72117" data-name="パス 72117" d="M185.627,36.513H195.2v2.1h-7.144v3.63h6.27v1.981h-6.27v6.154h-2.427Z" transform="translate(-109.189 -21.477)" fill="#1a1311"/>
    <path id="パス_72118" data-name="パス 72118" d="M217.356,36.513h9.979v2.1h-7.552v3.63h6.989v1.981h-6.989v4.058h7.688v2.1H217.356Z" transform="translate(-127.852 -21.477)" fill="#1a1311"/>
    <rect id="長方形_10173" data-name="長方形 10173" width="2.427" height="13.862" transform="translate(111.792 15.035)" fill="#1a1311"/>
    <path id="パス_72119" data-name="パス 72119" d="M299.619,46.078a3.723,3.723,0,0,1-.457,1.8,3.986,3.986,0,0,1-1.137,1.372,4.146,4.146,0,0,1-1.489.742,7.091,7.091,0,0,1-1.84.242,6.945,6.945,0,0,1-2.034-.291A4.609,4.609,0,0,1,291,49.049a3.927,3.927,0,0,1-1.095-1.465,5.941,5.941,0,0,1-.479-2.3h2.119a4.614,4.614,0,0,0,.341,1.359,2.416,2.416,0,0,0,.691.922,2.813,2.813,0,0,0,1.017.524,4.489,4.489,0,0,0,1.247.165,3.33,3.33,0,0,0,1.185-.191,2.426,2.426,0,0,0,.832-.476,1.869,1.869,0,0,0,.474-.631,2.379,2.379,0,0,0,.18-.882,1.64,1.64,0,0,0-.454-1.129c-.966-1.1-2.986-1.043-4.461-1.641a4.289,4.289,0,0,1-2.107-1.456,2.956,2.956,0,0,1-.451-.99,4.334,4.334,0,0,1-.132-1.068,3.893,3.893,0,0,1,.4-1.816,3.8,3.8,0,0,1,1.053-1.271,4.412,4.412,0,0,1,1.486-.747,5.935,5.935,0,0,1,1.68-.243,6.058,6.058,0,0,1,1.867.282,4.449,4.449,0,0,1,1.539.845,4.075,4.075,0,0,1,1.053,1.387,4.451,4.451,0,0,1,.389,1.913h-2.212a2.423,2.423,0,0,0-.831-1.893,3.086,3.086,0,0,0-1.893-.553,3.774,3.774,0,0,0-.8.088,1.963,1.963,0,0,0-.668.278,1.84,1.84,0,0,0-.642.694,1.982,1.982,0,0,0-.207.862,1.569,1.569,0,0,0,.525,1.176c1.4,1.2,3.6,1.076,5.52,2.3a3.36,3.36,0,0,1,1.456,2.988" transform="translate(-170.243 -21.006)" fill="#1a1311"/>
    <path id="パス_72120" data-name="パス 72120" d="M132.565,5.473a3.426,3.426,0,0,0,.6-.051,1.848,1.848,0,0,0,.524-.17,1.347,1.347,0,0,0,.4-.307.939.939,0,0,0,.217-.46h.793v5.968h-1.066V6.24h-1.466Z" transform="translate(-77.977 -2.638)" fill="#1a1311"/>
    <path id="パス_72121" data-name="パス 72121" d="M176.6,4.194h1.134l2.344,6.087h-1.142l-.571-1.611h-2.43l-.571,1.611h-1.1Zm-.375,3.666h1.858l-.912-2.617h-.026Z" transform="translate(-102.503 -2.467)" fill="#1a1311"/>
    <path id="パス_72122" data-name="パス 72122" d="M195.736,7.776h-1.569v2.506H193.1V4.2h2.907a2.254,2.254,0,0,1,1.509.435,1.514,1.514,0,0,1,.5,1.211,2.4,2.4,0,0,1-.122.827,1.923,1.923,0,0,1-.373.571,1.778,1.778,0,0,1-.5.318,2.65,2.65,0,0,1-1.291.219m-1.569-.81h1.748a1.109,1.109,0,0,0,.776-.243.942.942,0,0,0,.264-.729,1.13,1.13,0,0,0-.085-.474.693.693,0,0,0-.234-.285.86.86,0,0,0-.341-.136,2.273,2.273,0,0,0-.4-.034h-1.731Z" transform="translate(-113.585 -2.468)" fill="#1a1311"/>
    <path id="パス_72123" data-name="パス 72123" d="M210.978,5.443a2.16,2.16,0,0,0-.352.735,3.475,3.475,0,0,0,0,1.705,1.793,1.793,0,0,0,.9,1.193,1.7,1.7,0,0,0,.84.2A1.518,1.518,0,0,0,213,9.149a1.407,1.407,0,0,0,.469-.341,1.836,1.836,0,0,0,.344-.535,1.663,1.663,0,0,0,.108-.517h1.04a2.876,2.876,0,0,1-.235,1,2.439,2.439,0,0,1-.541.78,2.384,2.384,0,0,1-.8.507,2.777,2.777,0,0,1-1.014.179,2.87,2.87,0,0,1-1.223-.252,2.682,2.682,0,0,1-.917-.686,3.063,3.063,0,0,1-.576-1.014,3.885,3.885,0,0,1,0-2.464,3.071,3.071,0,0,1,.576-1.014,2.735,2.735,0,0,1,.917-.691,2.829,2.829,0,0,1,1.223-.256,3.228,3.228,0,0,1,.963.14,2.49,2.49,0,0,1,.8.41,2.127,2.127,0,0,1,.559.652,2.264,2.264,0,0,1,.264.878h-1.065a1.617,1.617,0,0,0-.163-.437,1.516,1.516,0,0,0-1.425-.7,1.665,1.665,0,0,0-1.321.654" transform="translate(-123.204 -2.261)" fill="#1a1311"/>
    <path id="パス_72124" data-name="パス 72124" d="M287.267,5.443a2.159,2.159,0,0,0-.352.735,3.475,3.475,0,0,0,0,1.705,1.793,1.793,0,0,0,.9,1.193,1.7,1.7,0,0,0,.84.2,1.518,1.518,0,0,0,.631-.124,1.407,1.407,0,0,0,.469-.341,1.835,1.835,0,0,0,.344-.535,1.663,1.663,0,0,0,.108-.517h1.04a2.876,2.876,0,0,1-.235,1,2.439,2.439,0,0,1-.541.78,2.384,2.384,0,0,1-.8.507,2.777,2.777,0,0,1-1.014.179,2.87,2.87,0,0,1-1.223-.252,2.682,2.682,0,0,1-.917-.686,3.064,3.064,0,0,1-.576-1.014,3.885,3.885,0,0,1,0-2.464,3.072,3.072,0,0,1,.576-1.014,2.735,2.735,0,0,1,.917-.691,2.829,2.829,0,0,1,1.223-.256,3.228,3.228,0,0,1,.963.14,2.49,2.49,0,0,1,.8.41,2.127,2.127,0,0,1,.559.652,2.263,2.263,0,0,1,.264.878h-1.065a1.617,1.617,0,0,0-.163-.437,1.516,1.516,0,0,0-1.425-.7,1.664,1.664,0,0,0-1.321.654" transform="translate(-168.078 -2.261)" fill="#1a1311"/>
    <path id="パス_72125" data-name="パス 72125" d="M228.025,4.195h1.066V6.616h2.77V4.195h1.066v6.087h-1.066V7.537h-2.77v2.745h-1.066Z" transform="translate(-134.128 -2.467)" fill="#1a1311"/>
    <rect id="長方形_10174" data-name="長方形 10174" width="1.066" height="6.087" transform="translate(101.442 1.727)" fill="#1a1311"/>
    <path id="パス_72126" data-name="パス 72126" d="M254.006,4.195h4.928v.921H257v5.166h-1.066V5.115h-1.927Z" transform="translate(-149.41 -2.467)" fill="#1a1311"/>
    <path id="パス_72127" data-name="パス 72127" d="M270.59,4.195h4.382v.921h-3.317V6.71h3.069v.87h-3.069V9.361h3.376v.921H270.59Z" transform="translate(-159.165 -2.467)" fill="#1a1311"/>
    <path id="パス_72128" data-name="パス 72128" d="M302.222,4.195h4.928v.921h-1.935v5.166h-1.066V5.115h-1.927Z" transform="translate(-177.771 -2.467)" fill="#1a1311"/>
    <path id="パス_72129" data-name="パス 72129" d="M200.776,14.714h1.142l-1.134-2.944-1.056-.04Z" transform="translate(-117.483 -6.899)" fill="#1a1311"/>
    <path id="パス_72130" data-name="パス 72130" d="M146.767,5.587a1.283,1.283,0,0,1,.1-.5,1.257,1.257,0,0,1,.275-.413,1.307,1.307,0,0,1,.422-.28,1.455,1.455,0,0,1,1.075,0,1.274,1.274,0,0,1,.7.693,1.263,1.263,0,0,1,.1.5,1.3,1.3,0,0,1-.1.5,1.261,1.261,0,0,1-.691.7,1.506,1.506,0,0,1-1.095,0,1.257,1.257,0,0,1-.419-.282,1.3,1.3,0,0,1-.364-.911m4.584-1.453h.759l-4.054,6.06H147.3Zm-3.252.8a.7.7,0,0,0-.263.049.654.654,0,0,0-.214.136.636.636,0,0,0-.144.208.667.667,0,0,0,0,.52.672.672,0,0,0,.358.359.661.661,0,0,0,.263.052.639.639,0,0,0,.257-.052.683.683,0,0,0,.21-.142.669.669,0,0,0,.142-.212.661.661,0,0,0,.052-.263.649.649,0,0,0-.195-.469.64.64,0,0,0-.21-.136.681.681,0,0,0-.257-.049m2.04,3.941a1.274,1.274,0,0,1,.372-.906,1.334,1.334,0,0,1,.423-.282,1.371,1.371,0,0,1,1.5.282,1.274,1.274,0,0,1,.372.906,1.323,1.323,0,0,1-.1.5,1.261,1.261,0,0,1-.269.413,1.288,1.288,0,0,1-.418.282,1.489,1.489,0,0,1-1.1,0,1.289,1.289,0,0,1-.418-.282,1.255,1.255,0,0,1-.269-.413,1.315,1.315,0,0,1-.1-.5m1.332-.654a.672.672,0,0,0-.259.051.685.685,0,0,0-.214.138.645.645,0,0,0-.144.206.633.633,0,0,0-.053.259.652.652,0,0,0,.053.259.673.673,0,0,0,.358.358.652.652,0,0,0,.259.053.638.638,0,0,0,.257-.053.661.661,0,0,0,.352-.355.659.659,0,0,0,.053-.263.633.633,0,0,0-.053-.259.663.663,0,0,0-.609-.4" transform="translate(-86.331 -2.432)" fill="#1a1311"/>
    <path id="パス_72131" data-name="パス 72131" d="M146.767,5.587a1.283,1.283,0,0,1,.1-.5,1.257,1.257,0,0,1,.275-.413,1.307,1.307,0,0,1,.422-.28,1.455,1.455,0,0,1,1.075,0,1.274,1.274,0,0,1,.7.693,1.263,1.263,0,0,1,.1.5,1.3,1.3,0,0,1-.1.5,1.261,1.261,0,0,1-.691.7,1.506,1.506,0,0,1-1.095,0,1.257,1.257,0,0,1-.419-.282,1.3,1.3,0,0,1-.364-.911Zm4.584-1.453h.759l-4.054,6.06H147.3Zm-3.252.8a.7.7,0,0,0-.263.049.654.654,0,0,0-.214.136.636.636,0,0,0-.144.208.667.667,0,0,0,0,.52.672.672,0,0,0,.358.359.661.661,0,0,0,.263.052.639.639,0,0,0,.257-.052.683.683,0,0,0,.21-.142.669.669,0,0,0,.142-.212.661.661,0,0,0,.052-.263.649.649,0,0,0-.195-.469.64.64,0,0,0-.21-.136A.681.681,0,0,0,148.1,4.932Zm2.04,3.941a1.274,1.274,0,0,1,.372-.906,1.334,1.334,0,0,1,.423-.282,1.371,1.371,0,0,1,1.5.282,1.274,1.274,0,0,1,.372.906,1.323,1.323,0,0,1-.1.5,1.261,1.261,0,0,1-.269.413,1.288,1.288,0,0,1-.418.282,1.489,1.489,0,0,1-1.1,0,1.289,1.289,0,0,1-.418-.282,1.255,1.255,0,0,1-.269-.413A1.315,1.315,0,0,1,150.14,8.874Zm1.332-.654a.672.672,0,0,0-.259.051.685.685,0,0,0-.214.138.645.645,0,0,0-.144.206.633.633,0,0,0-.053.259.652.652,0,0,0,.053.259.673.673,0,0,0,.358.358.652.652,0,0,0,.259.053.638.638,0,0,0,.257-.053.661.661,0,0,0,.352-.355.659.659,0,0,0,.053-.263.633.633,0,0,0-.053-.259.663.663,0,0,0-.609-.4Z" transform="translate(-86.331 -2.432)" fill="none" stroke="#1a1311" stroke-miterlimit="10" stroke-width="0.224"/>
  </g>
</svg>
