<svg xmlns="http://www.w3.org/2000/svg" width="178.345" height="33.862" viewBox="0 0 178.345 33.862">
  <path id="パス_72462" data-name="パス 72462" d="M-89.368-31.763q1.392.073,2.417.22a32.768,32.768,0,0,0,4.468.269q.879,0,4.517-.146,5.444-.22,9.839-.22l4.419-.049a38.291,38.291,0,0,1,4.395.366A1.9,1.9,0,0,1-58.875-30v5.029l.049,1q0,.146-.024.439l-1,.049q-.2,0-.83-.049-.22-.488-.586-1.44l-.977-1.733a11.255,11.255,0,0,0-1.562-2.246,6.559,6.559,0,0,0-1.562-.2q-.244-.024-1.489-.122-2.271-.2-4.883-.2-2.979,0-5.322.1-.073.61-.073,4.81l.049,4.1v3.076a9,9,0,0,0,1.05.073q4.37,0,6.226-.171a6.065,6.065,0,0,0,2.295-.476,2.52,2.52,0,0,0,.781-1.062,33.59,33.59,0,0,0,.854-3.589l.317-.024,1.416.024q.1,2.173.1,3.3,0,2.563-.037,3.3t-.037,1.147q0,.659.073,2.112t.073,2.161v.537H-65.71q-.1-.391-.366-1.611a9.864,9.864,0,0,0-.879-2.832,1.771,1.771,0,0,0-.977-.659,19.287,19.287,0,0,0-3.613-.171q-3.687,0-5.542.2-.024.635-.024.83,0,2.905.1,4.834L-77.063-4.2A1.3,1.3,0,0,0-76.4-2.93q1,.513,6.128.513a27.69,27.69,0,0,0,5.762-.513,5.73,5.73,0,0,0,2.881-1.636,12.427,12.427,0,0,0,2.759-4.59q.757-.073,1.245-.073.269,0,.806.024-.073.61-.122,1.025l-.146.732L-58-2.832l-.439,2.783q-1.587.073-2.515.073-1.367,0-7.3-.244-4.175-.171-10.059-.171-2.93,0-7.2.244h-1.025l-2.954.1V-1.733A15.2,15.2,0,0,1-87.634-2a11.8,11.8,0,0,0,3.516-.781,5.074,5.074,0,0,0,.269-1.782q0-.415-.024-1.416l.024-.757-.073-9.2L-83.9-18.7l-.122-3.906L-84-25.366l-.22-3.027a4.643,4.643,0,0,0-.049-.488A1.193,1.193,0,0,0-85-29.224q-.269-.049-.732-.146a15.962,15.962,0,0,0-2.686-.342q-.464-.024-1.074-.1Zm33.862,1.855v-2.1q1.27.024,1.538.049a72.691,72.691,0,0,0,7.886.342q.732,0,2.979-.146,1.611-.122,2.417-.244H-38.9q.049,1.782.049,2-2.441.317-2.856.415a3.7,3.7,0,0,0-1.587.781.868.868,0,0,0-.269.635,3,3,0,0,0,.049.537l.806,2.124q.854,2.49,2.832,6.763l2.783,6.3q.806,1.831,1.465,3.467l1.416-3.467,2.905-8.057.684-1.709q.122-.366.317-1.025.635-2.173,1.062-3.3a5.438,5.438,0,0,0,.427-1.831.988.988,0,0,0-.464-.806,4.609,4.609,0,0,0-2.319-.684,5.612,5.612,0,0,0-.9-.159,9.267,9.267,0,0,1-1-.159,2.832,2.832,0,0,1-.146-.732,11.005,11.005,0,0,1,.1-1.123q.439,0,2.515.2t4.053.2a28.025,28.025,0,0,0,3.467-.183q1.44-.183,2.344-.208v.781q0,.293-.024.879a20.661,20.661,0,0,0-3.687,1.563,2.462,2.462,0,0,0-.659.806,58.378,58.378,0,0,0-2.832,6.616l-3.125,8.081q-.439,1.172-.964,2.478t-1.111,2.869q-.122.366-1.147,2.93l-.244.439Q-36.047-1.147-36.584.171q-.977.049-1.221.049-.464,0-1.294-.049-.269-.732-.537-1.489t-2.075-5.3l-4.614-10.352-2.759-6.665q-2.124-4.541-2.319-4.858a2.619,2.619,0,0,0-.928-.879,6.712,6.712,0,0,0-2.124-.415Zm34.888-1.855q1.392.073,2.417.22a32.768,32.768,0,0,0,4.468.269q.879,0,4.517-.146,5.444-.22,9.839-.22l4.419-.049a38.291,38.291,0,0,1,4.395.366A1.9,1.9,0,0,1,9.875-30v5.029l.049,1q0,.146-.024.439l-1,.049q-.2,0-.83-.049-.22-.488-.586-1.44l-.977-1.733a11.255,11.255,0,0,0-1.562-2.246,6.559,6.559,0,0,0-1.562-.2q-.244-.024-1.489-.122-2.271-.2-4.883-.2-2.979,0-5.322.1-.073.61-.073,4.81l.049,4.1v3.076a9,9,0,0,0,1.05.073q4.37,0,6.226-.171a6.065,6.065,0,0,0,2.295-.476,2.52,2.52,0,0,0,.781-1.062,33.589,33.589,0,0,0,.854-3.589l.317-.024,1.416.024q.1,2.173.1,3.3,0,2.563-.037,3.3t-.037,1.147q0,.659.073,2.112T4.773-10.6v.537H3.04q-.1-.391-.366-1.611A9.864,9.864,0,0,0,1.794-14.5a1.771,1.771,0,0,0-.977-.659A19.287,19.287,0,0,0-2.8-15.332q-3.687,0-5.542.2-.024.635-.024.83,0,2.905.1,4.834L-8.313-4.2a1.3,1.3,0,0,0,.659,1.27q1,.513,6.128.513A27.69,27.69,0,0,0,4.236-2.93,5.73,5.73,0,0,0,7.117-4.565a12.427,12.427,0,0,0,2.759-4.59q.757-.073,1.245-.073.269,0,.806.024-.073.61-.122,1.025l-.146.732-.9,4.614L10.315-.049Q8.728.024,7.8.024,6.433.024.5-.22-3.674-.391-9.558-.391q-2.93,0-7.2.244h-1.025l-2.954.1V-1.733A15.2,15.2,0,0,1-18.884-2a11.8,11.8,0,0,0,3.516-.781A5.074,5.074,0,0,0-15.1-4.565q0-.415-.024-1.416l.024-.757-.073-9.2.024-2.759-.122-3.906.024-2.759-.22-3.027a4.644,4.644,0,0,0-.049-.488,1.193,1.193,0,0,0-.732-.342q-.269-.049-.732-.146a15.962,15.962,0,0,0-2.686-.342q-.464-.024-1.074-.1Zm34.692,1.929-.1-1.709h2.075l.708-.024q1.465-.073,2.026-.073.293,0,1.709.049.317.024.537.024t1.538-.049q1.318-.049,1.489-.049.269,0,.757.024,3.76,3.418,6.128,5.884T48.23-8.5v-.61l-.1-2.832q-.073-2.49-.2-3.943t-.146-3.467q-.024-2.014-.171-3.65-.293-3.2-.293-3.687a3.527,3.527,0,0,0-.342-1.929,4.348,4.348,0,0,0-2.344-.806,7.032,7.032,0,0,1-2-.562l.024-1.44.635-.073,4.81-.146,5.371-.146q.537-.024,1.025-.024l.024,1.587a5.2,5.2,0,0,1-1.147.439,10.411,10.411,0,0,0-1.807.513,7.509,7.509,0,0,0-1.343.854,1.507,1.507,0,0,0-.22.9q0,.146.049,1.025.024.439.024,2.051.024,3.54.2,5.591.049.659.073,1.489l.269,8.569q.024.9.024,1.27v3l.073,1.27-.073,1.318q.1,1,.1,1.2V.562l-2.808.1-2.905-3L39.1-8.228l-4.15-4.15L31.9-15.5q-2.979-2.93-5.42-5.151L22.5-24.243l.22,9.082q.024.83.024,1.709l-.024,1.733.146,3.2q.073,2,.269,4.346a5.136,5.136,0,0,0,.122.891,6.059,6.059,0,0,0,.293.745,18.345,18.345,0,0,0,4.15.513q.22.049.635.171l.1,1.978-.952.024q-.781,0-4.932-.366-3.882.049-5.176.146t-1.416.1a4.586,4.586,0,0,1-.806-.1Q15.1-.635,15.1-1.05q0-.269.024-.879a6.644,6.644,0,0,1,1.123-.122q.146,0,.952.049a5.3,5.3,0,0,0,2.429-.305q.378-.305.427-1.648.171-3.882.171-4.736v-1.343l.049-7.935L20.2-22.925a15.653,15.653,0,0,0-.366-3.931,2.113,2.113,0,0,0-.562-.977,5.734,5.734,0,0,0-1.9-1.318A19.28,19.28,0,0,0,14.075-29.834Zm44.531-3.3H60.12q.171.269.244.391a8.591,8.591,0,0,0,1.05,1.538,26.533,26.533,0,0,0,3.345.1q1.88,0,3.345-.024l.488-.073,2.954-.024,5.518.049h7.544l1.44-.22a2.7,2.7,0,0,0,.684-1.172q.1-.22.269-.61l1.074-.024q.244,0,.732.024.024,1.685.024,5.078l.024,2.173-.024,1.245a5.4,5.4,0,0,1-.1,1.1,8.713,8.713,0,0,1-1.758.391A16.5,16.5,0,0,1,85.6-25.952a11.162,11.162,0,0,0-.94-2,1.37,1.37,0,0,0-.684-.415q-.586-.122-5.176-.122-.684,0-1.709.1a10.685,10.685,0,0,0-.146,1.563l.024,3.271v7.178l.1,7.739-.024,3.174a8.306,8.306,0,0,0,.293,2.539,6.281,6.281,0,0,0,1.44.317q.2.024,1.807.391a9.485,9.485,0,0,1,1.294.391q.122.879.122,1.074a3.958,3.958,0,0,1-.073.635q-.537.024-.879.024A42.163,42.163,0,0,1,76.77-.281Q75.012-.464,70.4-.464q-.732,0-4.3.293-1.392.1-1.807.1-.024-.366-.049-.562L64.221-1.2v-.2a3.437,3.437,0,0,1,2.026-1.05,18.619,18.619,0,0,0,3.516-1.1,3.056,3.056,0,0,0,.293-1.221q.171-2.93.171-9.326L70.1-23.315a39.483,39.483,0,0,0-.146-4.614.606.606,0,0,0-.171-.33.6.6,0,0,0-.342-.134q-.757-.1-4.932-.1a7.131,7.131,0,0,0-3.076.439,14.5,14.5,0,0,0-3.149,3.32q-.61.781-.9.781a5.447,5.447,0,0,1-1.44-.952,47.911,47.911,0,0,0,2.1-6.348Q58.435-32.642,58.606-33.13Z" transform="translate(89.49 33.203)"/>
</svg>
