<svg xmlns="http://www.w3.org/2000/svg" width="553.16" height="64.86" viewBox="0 0 553.16 64.86">
  <path id="パス_72461" data-name="パス 72461" d="M-277.475-46.541l-.152-2.666h3.237l1.1-.038q2.285-.114,3.161-.114.457,0,2.666.076.5.038.838.038t2.4-.076q2.057-.076,2.323-.076.419,0,1.181.038,5.865,5.332,9.56,9.179t26.965,26.927v-.952l-.152-4.418q-.114-3.885-.3-6.151t-.229-5.408q-.038-3.142-.267-5.694-.457-4.989-.457-5.751-.038-2.476-.533-3.009-.8-.838-3.656-1.257a10.97,10.97,0,0,1-3.123-.876l.038-2.247.99-.114,7.5-.229,8.379-.229q.838-.038,1.6-.038l.038,2.476a8.119,8.119,0,0,1-1.79.686,16.241,16.241,0,0,0-2.818.8,11.714,11.714,0,0,0-2.095,1.333,2.35,2.35,0,0,0-.343,1.409q0,.229.076,1.6.038.686.038,3.2.038,5.522.3,8.722.076,1.028.114,2.323l.419,13.368q.038,1.409.038,1.98v4.685l.114,1.98-.114,2.057q.152,1.562.152,1.866V.876l-4.38.152-4.532-4.685-9.255-9.179-6.475-6.475-4.761-4.875q-4.646-4.57-8.455-8.036l-6.208-5.6.343,14.168q.038,1.295.038,2.666l-.038,2.7.229,4.989q.114,3.123.419,6.779a8.012,8.012,0,0,0,.19,1.39,9.452,9.452,0,0,0,.457,1.162,28.619,28.619,0,0,0,6.475.8q.343.076.99.267l.152,3.085-1.485.038q-1.219,0-7.693-.571-6.056.076-8.074.229t-2.209.152A7.154,7.154,0,0,1-275.8-.114q-.076-.876-.076-1.523,0-.419.038-1.371a10.365,10.365,0,0,1,1.752-.19q.229,0,1.485.076,3.2,0,3.79-.476t.667-2.571q.267-6.056.267-7.389v-2.095l.076-12.378-.114-7.731a24.418,24.418,0,0,0-.571-6.132,3.3,3.3,0,0,0-.876-1.523,8.945,8.945,0,0,0-2.971-2.057A30.077,30.077,0,0,0-277.475-46.541Zm66.955-3.009q2.171.114,3.771.343a51.119,51.119,0,0,0,6.97.419q1.371,0,7.046-.229,8.493-.343,15.349-.343l6.894-.076a59.734,59.734,0,0,1,6.855.571,2.96,2.96,0,0,1,.686,2.057v7.846l.076,1.562q0,.229-.038.686l-1.562.076q-.3,0-1.295-.076-.343-.762-.914-2.247l-1.523-2.7a17.558,17.558,0,0,0-2.437-3.5,10.232,10.232,0,0,0-2.437-.3q-.381-.038-2.323-.19-3.542-.3-7.617-.3-4.646,0-8.3.152-.114.952-.114,7.5l.076,6.4v4.8a14.035,14.035,0,0,0,1.638.114q6.817,0,9.712-.267a9.461,9.461,0,0,0,3.58-.743,3.932,3.932,0,0,0,1.219-1.657,52.4,52.4,0,0,0,1.333-5.6l.5-.038,2.209.038q.152,3.39.152,5.142,0,4-.057,5.142t-.057,1.79q0,1.028.114,3.294t.114,3.371v.838h-2.7q-.152-.609-.571-2.514a15.388,15.388,0,0,0-1.371-4.418,2.762,2.762,0,0,0-1.523-1.028,30.087,30.087,0,0,0-5.637-.267q-5.751,0-8.646.3-.038.99-.038,1.295,0,4.532.152,7.541l-.076,8.227A2.024,2.024,0,0,0-190.3-4.57q1.562.8,9.56.8a43.2,43.2,0,0,0,8.988-.8,8.938,8.938,0,0,0,4.494-2.552,19.386,19.386,0,0,0,4.3-7.16q1.181-.114,1.942-.114.419,0,1.257.038-.114.952-.19,1.6l-.229,1.143-1.409,7.2-.686,4.342q-2.476.114-3.923.114-2.133,0-11.388-.381-6.513-.267-15.691-.267-4.57,0-11.235.381h-1.6l-4.608.152V-2.7a23.715,23.715,0,0,1,2.895-.419,18.4,18.4,0,0,0,5.484-1.219,7.915,7.915,0,0,0,.419-2.78q0-.647-.038-2.209l.038-1.181-.114-14.358.038-4.3-.19-6.094.038-4.3-.343-4.723a7.244,7.244,0,0,0-.076-.762,1.86,1.86,0,0,0-1.143-.533q-.419-.076-1.143-.229a24.9,24.9,0,0,0-4.189-.533q-.724-.038-1.676-.152Zm53.815,2.78-.19-2.361a1.588,1.588,0,0,1,.724-.267q3.161.229,6.322.343,1.295.038,1.676.038,1.371,0,3.2-.114l4.951-.229a.694.694,0,0,1,.343.419l-.3,1.752q-.724.457-1.409.8-1.523.838-1.523,1.371a2.982,2.982,0,0,0,.381,1.257,14.464,14.464,0,0,1,.609,1.562q.647,1.866,3.656,9.064l9.864,23q1.942-3.618,6.056-12.187l-5.6-13.406q-1.562-3.771-2.7-6.208-.381-.8-.647-1.523-.229-.381-.609-1.124a3.018,3.018,0,0,0-1.181-1.219A17.317,17.317,0,0,0-136.9-47l.152-2.285q1.219,0,3.352.114,3.085.229,3.961.229l5.332-.076,6.589-.381a2.875,2.875,0,0,0,.533.038l.038,1.295v.457A1.756,1.756,0,0,1-117.1-47a12.947,12.947,0,0,1-2.057.343,2.463,2.463,0,0,0-1.39.419,1.028,1.028,0,0,0-.4.8,6.609,6.609,0,0,0,.8,2.78q.343.724.914,2.209,1.9,4.875,2.933,7.122l2.666-5.522a49.651,49.651,0,0,0,2.4-5.6,2.321,2.321,0,0,0,.114-.647v-.229a3.106,3.106,0,0,0-.838-.686,22.605,22.605,0,0,0-3.237-.99q-.076-.724-.076-1.1a10.207,10.207,0,0,1,.114-1.257q1.257,0,7.122.19,3.466.114,4.418.114.8,0,1.409-.019t1.295-.019l.076.3-.114,1.714-.076.19a25.368,25.368,0,0,0-4.913,1.714,5.323,5.323,0,0,0-1.523,1.752q-1.9,3.352-7.046,14.016l.152.343,2.438,5.637,4.151,9.788q.647,1.447.914,2.133l4.8-12.568,6.7-17.1,1.066-3.2a2.5,2.5,0,0,0,.076-.609l-.114-.647q-1.295-.419-2.114-.628a5.03,5.03,0,0,1-1.428-.59q-.114-1.257-.114-1.562a1.824,1.824,0,0,1,.267-.8l.609-.076,5.713.229,3.771-.229.8.114A7.506,7.506,0,0,1-86.7-47.95a2.032,2.032,0,0,1-.267,1.1,1.5,1.5,0,0,1-.762.457,6.615,6.615,0,0,0-2.133,1.447,9.669,9.669,0,0,0-1.181,2.552q-3.313,8.912-6.836,17.177T-108.374,1.1l-3.847.038a14.213,14.213,0,0,0-.838-2.323q-1.1-2.476-1.295-3.123l-4.228-9.75q-1.028-2.437-1.676-3.618-.114-.19-.3-.533-.076.19-4.018,7.636t-5.77,11.635l-3.885.038a135.253,135.253,0,0,0-5.37-12.873l-12.3-28.793a23,23,0,0,0-2.78-5.218,3.658,3.658,0,0,0-1.143-.647Q-156.133-46.541-156.7-46.77Zm101.956-1.676a25.386,25.386,0,0,1,.686,3.923,56.32,56.32,0,0,1,.457,6.094,7.971,7.971,0,0,1-.152,1.485l-.381.114-2.742-.19-.457-.076q-1.676-5.027-3.352-6.817a9.106,9.106,0,0,0-6.817-3.047A8.55,8.55,0,0,0-73.43-45a6.259,6.259,0,0,0-2.19,4.856,6.728,6.728,0,0,0,2.171,4.685q2.133,2.247,9.064,4.3a42.554,42.554,0,0,1,5.618,2.209,16.458,16.458,0,0,1,5.008,3.313,14.219,14.219,0,0,1,3.142,4.551,15.1,15.1,0,0,1,.857,5.465,19.481,19.481,0,0,1-1.333,7.046A10.53,10.53,0,0,1-53.416-5.1a22.039,22.039,0,0,1-3.542,2.685A17.51,17.51,0,0,1-61.928-.19,26.3,26.3,0,0,1-68.536.5,32.2,32.2,0,0,1-74.9-.267L-79.466-1.6a7.563,7.563,0,0,1-2.4-.952,1.452,1.452,0,0,1-.343-.724v-.419q0-.419-.19-5.218-.076-2.476-.076-3.5v-1.447l3.5-.076q1.828,4.228,2.361,5.1A12.594,12.594,0,0,0-74-5.694a10.943,10.943,0,0,0,3.409,1.9,12.752,12.752,0,0,0,4.3.7,13.694,13.694,0,0,0,4.532-.876,8.331,8.331,0,0,0,3.98-2.875,7,7,0,0,0,1.5-4.285A7.018,7.018,0,0,0-58.9-16.339q-1.6-1.485-8.607-3.961t-9.712-4.418a13.379,13.379,0,0,1-4.266-5.2,14.474,14.474,0,0,1-1.562-6.265A13.813,13.813,0,0,1-78.7-46.465q4.342-4.228,12.8-4.228a33.239,33.239,0,0,1,5.408.647A40.8,40.8,0,0,1-54.749-48.445Zm39.914-5.865h6.322L-36.353,10.55h-6.322Zm12.34,4.761q2.171.114,3.771.343a51.119,51.119,0,0,0,6.97.419q1.371,0,7.046-.229,8.493-.343,15.349-.343l6.894-.076a59.734,59.734,0,0,1,6.855.571,2.96,2.96,0,0,1,.686,2.057v7.846l.076,1.562q0,.229-.038.686l-1.562.076q-.3,0-1.295-.076-.343-.762-.914-2.247l-1.523-2.7a17.558,17.558,0,0,0-2.437-3.5,10.232,10.232,0,0,0-2.437-.3q-.381-.038-2.323-.19-3.542-.3-7.617-.3-4.646,0-8.3.152-.114.952-.114,7.5l.076,6.4v4.8A14.035,14.035,0,0,0,18.3-27q6.817,0,9.712-.267a9.461,9.461,0,0,0,3.58-.743,3.932,3.932,0,0,0,1.219-1.657,52.4,52.4,0,0,0,1.333-5.6l.5-.038,2.209.038Q37-31.878,37-30.126q0,4-.057,5.142t-.057,1.79q0,1.028.114,3.294t.114,3.371v.838h-2.7q-.152-.609-.571-2.514a15.388,15.388,0,0,0-1.371-4.418,2.762,2.762,0,0,0-1.523-1.028,30.087,30.087,0,0,0-5.637-.267q-5.751,0-8.646.3-.038.99-.038,1.295,0,4.532.152,7.541L16.7-6.551a2.024,2.024,0,0,0,1.028,1.98q1.562.8,9.56.8a43.2,43.2,0,0,0,8.988-.8,8.938,8.938,0,0,0,4.494-2.552,19.386,19.386,0,0,0,4.3-7.16q1.181-.114,1.942-.114.419,0,1.257.038-.114.952-.19,1.6l-.229,1.143-1.409,7.2L45.76-.076q-2.476.114-3.923.114Q39.7.038,30.45-.343,23.937-.609,14.758-.609q-4.57,0-11.235.381h-1.6l-4.608.152V-2.7A23.715,23.715,0,0,1,.209-3.123,18.4,18.4,0,0,0,5.694-4.342a7.915,7.915,0,0,0,.419-2.78q0-.647-.038-2.209l.038-1.181L6-24.87l.038-4.3-.19-6.094.038-4.3-.343-4.723a7.244,7.244,0,0,0-.076-.762,1.86,1.86,0,0,0-1.143-.533q-.419-.076-1.143-.229a24.9,24.9,0,0,0-4.189-.533q-.724-.038-1.676-.152Zm52.825,2.895v-3.275q1.98.038,2.4.076a113.4,113.4,0,0,0,12.3.533q1.143,0,4.646-.229,2.514-.19,3.771-.381h2.78q.076,2.78.076,3.123-3.809.5-4.456.647a5.77,5.77,0,0,0-2.476,1.219,1.354,1.354,0,0,0-.419.99,4.675,4.675,0,0,0,.076.838L70.288-39.8q1.333,3.885,4.418,10.55l4.342,9.826q1.257,2.856,2.285,5.408l2.209-5.408,4.532-12.568,1.066-2.666q.19-.571.5-1.6.99-3.39,1.657-5.142a8.483,8.483,0,0,0,.667-2.856,1.541,1.541,0,0,0-.724-1.257,7.19,7.19,0,0,0-3.618-1.066,8.755,8.755,0,0,0-1.409-.248,14.456,14.456,0,0,1-1.562-.248,4.418,4.418,0,0,1-.229-1.143,17.169,17.169,0,0,1,.152-1.752q.686,0,3.923.3t6.322.3a43.719,43.719,0,0,0,5.408-.286q2.247-.286,3.656-.324v1.219q0,.457-.038,1.371a32.231,32.231,0,0,0-5.751,2.438,3.841,3.841,0,0,0-1.028,1.257,91.071,91.071,0,0,0-4.418,10.321L87.769-20.757q-.686,1.828-1.5,3.866t-1.733,4.475q-.19.571-1.79,4.57l-.381.686Q80.685-1.79,79.847.267q-1.523.076-1.9.076-.724,0-2.019-.076-.419-1.143-.838-2.323t-3.237-8.265l-7.2-16.148-4.3-10.4q-3.313-7.084-3.618-7.579a4.086,4.086,0,0,0-1.447-1.371,10.47,10.47,0,0,0-3.313-.647Zm54.425-2.895q2.171.114,3.771.343a51.119,51.119,0,0,0,6.97.419q1.371,0,7.046-.229,8.493-.343,15.349-.343l6.894-.076a59.734,59.734,0,0,1,6.855.571,2.96,2.96,0,0,1,.686,2.057v7.846L152.4-37.4q0,.229-.038.686l-1.562.076q-.3,0-1.295-.076-.343-.762-.914-2.247l-1.523-2.7a17.558,17.558,0,0,0-2.437-3.5,10.232,10.232,0,0,0-2.437-.3q-.381-.038-2.323-.19-3.542-.3-7.617-.3-4.646,0-8.3.152-.114.952-.114,7.5l.076,6.4v4.8A14.035,14.035,0,0,0,125.55-27q6.817,0,9.712-.267a9.461,9.461,0,0,0,3.58-.743,3.932,3.932,0,0,0,1.219-1.657,52.4,52.4,0,0,0,1.333-5.6l.5-.038,2.209.038q.152,3.39.152,5.142,0,4-.057,5.142t-.057,1.79q0,1.028.114,3.294t.114,3.371v.838h-2.7q-.152-.609-.571-2.514a15.388,15.388,0,0,0-1.371-4.418,2.762,2.762,0,0,0-1.523-1.028,30.087,30.087,0,0,0-5.637-.267q-5.751,0-8.646.3-.038.99-.038,1.295,0,4.532.152,7.541l-.076,8.227a2.024,2.024,0,0,0,1.028,1.98q1.562.8,9.56.8a43.2,43.2,0,0,0,8.988-.8,8.938,8.938,0,0,0,4.494-2.552,19.386,19.386,0,0,0,4.3-7.16q1.181-.114,1.942-.114.419,0,1.257.038-.114.952-.19,1.6l-.229,1.143-1.409,7.2L153.01-.076q-2.476.114-3.923.114-2.133,0-11.388-.381-6.513-.267-15.691-.267-4.57,0-11.235.381h-1.6l-4.608.152V-2.7a23.715,23.715,0,0,1,2.895-.419,18.4,18.4,0,0,0,5.484-1.219,7.915,7.915,0,0,0,.419-2.78q0-.647-.038-2.209l.038-1.181-.114-14.358.038-4.3-.19-6.094.038-4.3-.343-4.723a7.244,7.244,0,0,0-.076-.762,1.86,1.86,0,0,0-1.143-.533q-.419-.076-1.143-.229a24.9,24.9,0,0,0-4.189-.533q-.724-.038-1.676-.152Zm54.12,3.009-.152-2.666h3.237l1.1-.038q2.285-.114,3.161-.114.457,0,2.666.076.5.038.838.038t2.4-.076q2.057-.076,2.323-.076.419,0,1.181.038,5.865,5.332,9.56,9.179t26.965,26.927v-.952l-.152-4.418q-.114-3.885-.3-6.151t-.229-5.408q-.038-3.142-.267-5.694-.457-4.989-.457-5.751-.038-2.476-.533-3.009-.8-.838-3.656-1.257a10.97,10.97,0,0,1-3.123-.876l.038-2.247.99-.114,7.5-.229,8.379-.229q.838-.038,1.6-.038l.038,2.476a8.119,8.119,0,0,1-1.79.686,16.241,16.241,0,0,0-2.818.8,11.714,11.714,0,0,0-2.095,1.333,2.35,2.35,0,0,0-.343,1.409q0,.229.076,1.6.038.686.038,3.2.038,5.522.3,8.722.076,1.028.114,2.323l.419,13.368q.038,1.409.038,1.98v4.685l.114,1.98-.114,2.057q.152,1.562.152,1.866V.876l-4.38.152-4.532-4.685-9.255-9.179-6.475-6.475-4.761-4.875q-4.646-4.57-8.455-8.036l-6.208-5.6.343,14.168q.038,1.295.038,2.666l-.038,2.7.229,4.989q.114,3.123.419,6.779a8.012,8.012,0,0,0,.19,1.39,9.452,9.452,0,0,0,.457,1.162,28.619,28.619,0,0,0,6.475.8q.343.076.99.267L181.27.19l-1.485.038q-1.219,0-7.693-.571-6.056.076-8.074.229t-2.209.152a7.154,7.154,0,0,1-1.257-.152q-.076-.876-.076-1.523,0-.419.038-1.371a10.365,10.365,0,0,1,1.752-.19q.229,0,1.485.076,3.2,0,3.79-.476t.667-2.571q.267-6.056.267-7.389v-2.095l.076-12.378-.114-7.731a24.418,24.418,0,0,0-.571-6.132,3.3,3.3,0,0,0-.876-1.523,8.945,8.945,0,0,0-2.971-2.057A30.077,30.077,0,0,0,158.875-46.541Zm69.469-5.142h2.361q.267.419.381.609a13.4,13.4,0,0,0,1.638,2.4,41.392,41.392,0,0,0,5.218.152q2.933,0,5.218-.038l.762-.114,4.608-.038,8.607.076h11.769l2.247-.343a4.206,4.206,0,0,0,1.066-1.828q.152-.343.419-.952l1.676-.038q.381,0,1.143.038.038,2.628.038,7.922l.038,3.39-.038,1.942a8.419,8.419,0,0,1-.152,1.714,13.591,13.591,0,0,1-2.742.609,25.743,25.743,0,0,1-2.152-4.3,17.412,17.412,0,0,0-1.466-3.123,2.137,2.137,0,0,0-1.066-.647q-.914-.19-8.074-.19-1.066,0-2.666.152a16.668,16.668,0,0,0-.229,2.438l.038,5.1v11.2l.152,12.073L257.1-8.531a12.957,12.957,0,0,0,.457,3.961,9.8,9.8,0,0,0,2.247.5q.3.038,2.818.609a14.8,14.8,0,0,1,2.019.609q.19,1.371.19,1.676a6.174,6.174,0,0,1-.114.99q-.838.038-1.371.038a65.775,65.775,0,0,1-6.665-.286q-2.742-.286-9.94-.286-1.143,0-6.7.457-2.171.152-2.818.152-.038-.571-.076-.876l-.038-.876v-.3a5.361,5.361,0,0,1,3.161-1.638,29.046,29.046,0,0,0,5.484-1.714,4.767,4.767,0,0,0,.457-1.9q.267-4.57.267-14.549l-.19-14.4a61.594,61.594,0,0,0-.229-7.2.946.946,0,0,0-.267-.514.93.93,0,0,0-.533-.209q-1.181-.152-7.693-.152-3.58,0-4.8.686-1.638.952-4.913,5.18-.952,1.219-1.409,1.219a8.5,8.5,0,0,1-2.247-1.485,74.741,74.741,0,0,0,3.275-9.9Q228.078-50.921,228.344-51.683Z" transform="translate(277.627 54.311)"/>
</svg>
