<svg xmlns="http://www.w3.org/2000/svg" width="146.069" height="33.228" viewBox="0 0 146.069 33.228">
  <path id="パス_72463" data-name="パス 72463" d="M-73.694-29.834l-.1-1.709h2.075l.708-.024q1.465-.073,2.026-.073.293,0,1.709.049.317.024.537.024t1.538-.049q1.318-.049,1.489-.049.269,0,.757.024,3.76,3.418,6.128,5.884T-39.539-8.5v-.61l-.1-2.832q-.073-2.49-.2-3.943t-.146-3.467Q-40-21.362-40.149-23q-.293-3.2-.293-3.687a3.527,3.527,0,0,0-.342-1.929,4.348,4.348,0,0,0-2.344-.806,7.032,7.032,0,0,1-2-.562l.024-1.44.635-.073,4.81-.146,5.371-.146q.537-.024,1.025-.024l.024,1.587a5.2,5.2,0,0,1-1.147.439,10.411,10.411,0,0,0-1.807.513,7.509,7.509,0,0,0-1.343.854,1.507,1.507,0,0,0-.22.9q0,.146.049,1.025.024.439.024,2.051.024,3.54.2,5.591.049.659.073,1.489l.269,8.569q.024.9.024,1.27v3l.073,1.27-.073,1.318q.1,1,.1,1.2V.562l-2.808.1-2.905-3-5.933-5.884-4.15-4.15L-55.872-15.5q-2.979-2.93-5.42-5.151l-3.979-3.589.22,9.082q.024.83.024,1.709l-.024,1.733.146,3.2q.073,2,.269,4.346a5.136,5.136,0,0,0,.122.891,6.059,6.059,0,0,0,.293.745,18.345,18.345,0,0,0,4.15.513q.22.049.635.171l.1,1.978-.952.024q-.781,0-4.932-.366Q-69.1-.171-70.4-.073t-1.416.1a4.586,4.586,0,0,1-.806-.1q-.049-.562-.049-.977,0-.269.024-.879a6.644,6.644,0,0,1,1.123-.122q.146,0,.952.049a5.3,5.3,0,0,0,2.429-.305q.378-.305.427-1.648.171-3.882.171-4.736v-1.343l.049-7.935-.073-4.956a15.653,15.653,0,0,0-.366-3.931,2.113,2.113,0,0,0-.562-.977,5.734,5.734,0,0,0-1.9-1.318A19.28,19.28,0,0,0-73.694-29.834Zm42.92-1.929q1.392.073,2.417.22a32.768,32.768,0,0,0,4.468.269q.879,0,4.517-.146,5.444-.22,9.839-.22l4.419-.049a38.291,38.291,0,0,1,4.395.366A1.9,1.9,0,0,1-.281-30v5.029l.049,1q0,.146-.024.439l-1,.049q-.2,0-.83-.049-.22-.488-.586-1.44l-.977-1.733a11.255,11.255,0,0,0-1.562-2.246,6.559,6.559,0,0,0-1.562-.2q-.244-.024-1.489-.122-2.271-.2-4.883-.2-2.979,0-5.322.1-.073.61-.073,4.81l.049,4.1v3.076a9,9,0,0,0,1.05.073q4.37,0,6.226-.171a6.065,6.065,0,0,0,2.295-.476,2.52,2.52,0,0,0,.781-1.062,33.589,33.589,0,0,0,.854-3.589l.317-.024,1.416.024q.1,2.173.1,3.3,0,2.563-.037,3.3t-.037,1.147q0,.659.073,2.112t.073,2.161v.537H-7.117q-.1-.391-.366-1.611A9.864,9.864,0,0,0-8.362-14.5a1.771,1.771,0,0,0-.977-.659,19.287,19.287,0,0,0-3.613-.171q-3.687,0-5.542.2-.024.635-.024.83,0,2.905.1,4.834L-18.469-4.2a1.3,1.3,0,0,0,.659,1.27q1,.513,6.128.513A27.69,27.69,0,0,0-5.92-2.93,5.73,5.73,0,0,0-3.04-4.565,12.427,12.427,0,0,0-.281-9.155Q.476-9.229.964-9.229q.269,0,.806.024-.073.61-.122,1.025L1.5-7.446.6-2.832.159-.049Q-1.428.024-2.356.024q-1.367,0-7.3-.244-4.175-.171-10.059-.171-2.93,0-7.2.244h-1.025l-2.954.1V-1.733A15.2,15.2,0,0,1-29.041-2a11.8,11.8,0,0,0,3.516-.781,5.074,5.074,0,0,0,.269-1.782q0-.415-.024-1.416l.024-.757-.073-9.2.024-2.759-.122-3.906.024-2.759-.22-3.027a4.644,4.644,0,0,0-.049-.488,1.193,1.193,0,0,0-.732-.342q-.269-.049-.732-.146a15.962,15.962,0,0,0-2.686-.342q-.464-.024-1.074-.1Zm34.5,1.782L3.6-31.494a1.018,1.018,0,0,1,.464-.171q2.026.146,4.053.22.83.024,1.074.024.879,0,2.051-.073l3.174-.146a.445.445,0,0,1,.22.269l-.2,1.123q-.464.293-.9.513-.977.537-.977.879a1.912,1.912,0,0,0,.244.806,9.272,9.272,0,0,1,.391,1q.415,1.2,2.344,5.811L21.863-6.494q1.245-2.319,3.882-7.812L22.156-22.9q-1-2.417-1.733-3.979-.244-.513-.415-.977-.146-.244-.391-.72a1.935,1.935,0,0,0-.757-.781,11.1,11.1,0,0,0-2.441-.769l.1-1.465q.781,0,2.148.073,1.978.146,2.539.146l3.418-.049,4.224-.244a1.843,1.843,0,0,0,.342.024l.024.83v.293a1.125,1.125,0,0,1-.1.391,8.3,8.3,0,0,1-1.318.22,1.579,1.579,0,0,0-.891.269.659.659,0,0,0-.256.513,4.237,4.237,0,0,0,.513,1.782q.22.464.586,1.416,1.221,3.125,1.88,4.565l1.709-3.54a31.828,31.828,0,0,0,1.538-3.589,1.488,1.488,0,0,0,.073-.415v-.146a1.991,1.991,0,0,0-.537-.439,14.49,14.49,0,0,0-2.075-.635q-.049-.464-.049-.708a6.543,6.543,0,0,1,.073-.806q.806,0,4.565.122,2.222.073,2.832.073.513,0,.9-.012t.83-.012l.049.2-.073,1.1-.049.122a16.261,16.261,0,0,0-3.149,1.1,3.412,3.412,0,0,0-.977,1.123q-1.221,2.148-4.517,8.984l.1.22,1.563,3.613L35.1-8.74q.415.928.586,1.367l3.076-8.057,4.3-10.962.684-2.051a1.605,1.605,0,0,0,.049-.391l-.073-.415q-.83-.269-1.355-.4a3.225,3.225,0,0,1-.916-.378q-.073-.806-.073-1a1.169,1.169,0,0,1,.171-.513l.391-.049,3.662.146,2.417-.146.513.073a4.812,4.812,0,0,1,.073.781,1.3,1.3,0,0,1-.171.708.965.965,0,0,1-.488.293,4.24,4.24,0,0,0-1.367.928,6.2,6.2,0,0,0-.757,1.636q-2.124,5.713-4.382,11.011T34.7.708L32.239.732A9.111,9.111,0,0,0,31.7-.757q-.708-1.587-.83-2l-2.71-6.25q-.659-1.563-1.074-2.319-.073-.122-.2-.342-.049.122-2.576,4.9T20.618.684l-2.49.024a86.7,86.7,0,0,0-3.442-8.252L6.8-26a14.742,14.742,0,0,0-1.782-3.345,2.345,2.345,0,0,0-.732-.415Q4.089-29.834,3.723-29.98ZM69.08-31.055a16.274,16.274,0,0,1,.439,2.515,36.1,36.1,0,0,1,.293,3.906,5.11,5.11,0,0,1-.1.952l-.244.073-1.758-.122-.293-.049a12.6,12.6,0,0,0-2.148-4.37A5.837,5.837,0,0,0,60.9-30.1a5.481,5.481,0,0,0-3.8,1.257,4.012,4.012,0,0,0-1.4,3.113,4.313,4.313,0,0,0,1.392,3q1.367,1.44,5.811,2.759a27.278,27.278,0,0,1,3.6,1.416,10.55,10.55,0,0,1,3.21,2.124,9.115,9.115,0,0,1,2.014,2.917,9.679,9.679,0,0,1,.549,3.5,12.488,12.488,0,0,1-.854,4.517,6.75,6.75,0,0,1-1.489,2.222A14.127,14.127,0,0,1,67.664-1.55,11.224,11.224,0,0,1,64.478-.122a16.861,16.861,0,0,1-4.236.439,20.639,20.639,0,0,1-4.077-.488l-2.93-.854a4.848,4.848,0,0,1-1.538-.61.931.931,0,0,1-.22-.464v-.269q0-.269-.122-3.345-.049-1.587-.049-2.246v-.928l2.246-.049q1.172,2.71,1.514,3.271A8.073,8.073,0,0,0,56.738-3.65a7.015,7.015,0,0,0,2.185,1.221,8.175,8.175,0,0,0,2.759.452,8.778,8.778,0,0,0,2.905-.562,5.341,5.341,0,0,0,2.551-1.843A4.484,4.484,0,0,0,68.1-7.129a4.5,4.5,0,0,0-1.685-3.345q-1.025-.952-5.518-2.539a27.192,27.192,0,0,1-6.226-2.832,8.577,8.577,0,0,1-2.734-3.333,9.278,9.278,0,0,1-1-4.016,8.854,8.854,0,0,1,2.783-6.592q2.783-2.71,8.2-2.71a21.308,21.308,0,0,1,3.467.415A26.151,26.151,0,0,1,69.08-31.055Z" transform="translate(73.792 32.495)"/>
</svg>
